<svg xmlns="http://www.w3.org/2000/svg" width="156" height="31" fill="none"><g fill="#675E50" clip-path="url(#a)"><path d="M0 14.207h20c0-8-3.444-10-5.167-10H0zm20 6H0c0 8 3.444 10 5.167 10H20zM52.6 3.754V30.16h-5.28V12.985L40.263 30.16h-3.999l-7.092-17.175V30.16H23.89V3.754h5.998l8.376 19.634L46.64 3.754zm3.865 15.851q0-3.177 1.245-5.636 1.283-2.459 3.433-3.784 2.188-1.323 4.867-1.324 2.339 0 4.075.946 1.772.946 2.829 2.383V9.203h5.32V30.16h-5.32v-3.064q-1.019 1.475-2.83 2.459-1.773.945-4.112.946-2.64 0-4.829-1.362-2.15-1.362-3.433-3.821-1.245-2.497-1.245-5.713m16.449.076q0-1.929-.755-3.291-.754-1.4-2.037-2.119a5.33 5.33 0 0 0-2.754-.757q-1.47 0-2.716.72-1.245.718-2.038 2.118-.754 1.362-.754 3.253t.755 3.33q.791 1.399 2.037 2.156 1.282.756 2.716.756 1.472 0 2.754-.718a5.5 5.5 0 0 0 2.037-2.119q.755-1.4.755-3.329m9.121-.077q0-3.177 1.245-5.637 1.283-2.459 3.471-3.783t4.867-1.324q2.038 0 3.886.908 1.848.87 2.943 2.346v-9.95h5.357V30.16h-5.357v-3.102q-.981 1.55-2.754 2.497-1.774.945-4.113.946-2.64 0-4.829-1.363-2.188-1.361-3.47-3.82-1.246-2.498-1.246-5.713Zm16.45.076q0-1.93-.755-3.291-.754-1.4-2.037-2.119a5.33 5.33 0 0 0-2.755-.757q-1.47 0-2.716.72-1.245.717-2.037 2.118-.755 1.362-.755 3.253 0 1.89.755 3.33.792 1.398 2.037 2.156a5.26 5.26 0 0 0 2.716.756 5.55 5.55 0 0 0 2.755-.718 5.5 5.5 0 0 0 2.037-2.12q.754-1.398.754-3.328Zm15.758-7.226a7.5 7.5 0 0 1 2.641-2.61q1.66-.945 3.773-.946v5.562h-1.396q-2.49 0-3.773 1.172-1.245 1.173-1.245 4.086V30.16h-5.282V9.2h5.282v3.253Zm12.65-5.75q-1.396 0-2.339-.87-.906-.908-.906-2.232t.906-2.194Q125.497.5 126.893.5c1.396 0 1.698.303 2.301.908q.944.87.944 2.194c0 1.324-.315 1.627-.944 2.232q-.905.87-2.301.87m2.603 2.497V30.16h-5.282V9.2h5.282Zm3.859 10.403q0-3.177 1.245-5.637 1.284-2.458 3.471-3.783 2.188-1.323 4.867-1.324 2.037 0 3.886.908 1.848.87 2.943 2.346v-9.95h5.357V30.16h-5.357v-3.102q-.981 1.55-2.754 2.497-1.773.945-4.113.946-2.64 0-4.829-1.363-2.187-1.361-3.471-3.82-1.245-2.498-1.245-5.713Zm16.449.076q0-1.93-.754-3.291-.754-1.4-2.037-2.119a5.33 5.33 0 0 0-2.754-.757 5.34 5.34 0 0 0-2.717.72q-1.245.717-2.037 2.118-.755 1.362-.755 3.253 0 1.89.755 3.33.792 1.398 2.037 2.156a5.26 5.26 0 0 0 2.717.756q1.47 0 2.754-.718a5.5 5.5 0 0 0 2.037-2.12q.754-1.398.754-3.328"/></g><defs><clipPath id="a"><path fill="#fff" d="M0 0h156v31H0z"/></clipPath></defs></svg>