<svg xmlns="http://www.w3.org/2000/svg" viewBox="1491.230712890625 160.37184143066406 124.7867431640625 143.3340606689453"><style>:root{--app-green:#34C759;--app-gray:#747484;--app-blue:#018DFF;--app-pink:#F966AC;--graphic-green:#44C67F;--graphic-blue:#7DC4FF;--graphic-blue-alt:#4DAFFF;--graphic-blue-pale:#8ECCFF;--graphic-blue-pale-alt:#6DBDFF;--graphic-purple:#5F5DE7;--graphic-yellow:#FFCF7B;--graphic-gold:#F5B442;--graphic-gold-alt:#FFA620;--graphic-yellow-pale:#F6F4EF;--graphic-black:#343433;--graphic-gray:#E2D6C5;--graphic-stone:#F2EBE0;--graphic-orange:#FF5310;--graphic-outline:#B2A79A;--pocket:#52CB58;--heading:#343433;--body:#494440;--body-muted:#848281;--gray:#747484;--gray-light:#F2F0ED;--beige:#FBFAF9;--beige-dark:#EAEAEA;--focus:#848281;--white:#FFFFFF;--blue:#3784F4;--blue-light:#EEFBFD;--green:#44C67F;--yellow:#FFBE4C;--gold:#CA9230;--orange:#FF5310;--orange-dark:#FF2B00;--red:#EF4444;--purple:#9553F9;--twitter-blue:#343433;--color-anchor:#6187FE;--color-primary:#343433;--color-text:#343433;--color-border:#E8E8E8;--color-valid:#00C454;--background-valid:rgba(0,196,84,0.1);--color-invalid:#FF4E4E;--background-invalid:#FFF0F0;--color-warning:#F6C30F;--background-warning:#FEFAE6;}</style><g class="graphic-complex__GroupContainer-sc-nno4pa-1 fTQCoV"><g data-projection-id="345"><g data-projection-id="346" transform-origin="1553.6296997070312px 234.22813415527344px" style="transform: translateY(-1.45877px); transform-origin: 1553.63px 234.228px;"><g data-projection-id="347" transform-origin="1553.6296997070312px 234.22813415527344px" style="transform: rotate(-0.4385deg); transform-origin: 1553.63px 234.228px;"><g data-projection-id="348"><g data-projection-id="349" transform-origin="1547.9200439453125px 238.32899475097656px" style="transform-origin: 1547.92px 238.329px; transform: rotate(14.5742deg);"><path d="M1547.92 238.329L1523.93 291.412L1515.15 286.111" stroke="var(--graphic-black)" stroke-width="8.1175" stroke-linecap="round" stroke-linejoin="round"></path><path fill-rule="evenodd" clip-rule="evenodd" d="M1531.94 283.565L1527.64 293.085C1527.16 294.143 1526.25 294.945 1525.14 295.29C1524.04 295.634 1522.83 295.488 1521.84 294.888L1513.06 289.587C1511.15 288.428 1510.53 285.933 1511.69 284.014C1512.85 282.095 1515.34 281.48 1517.26 282.639L1522.12 285.576L1524.4 280.547L1531.94 283.565Z" fill="var(--graphic-orange)" stroke="var(--graphic-orange)" stroke-width="0.5" stroke-linejoin="miter"></path></g><g data-projection-id="350" transform-origin="1551.02001953125px 240.06300354003906px" style="transform-origin: 1551.02px 240.063px; transform: rotate(-8.22105deg);"><path d="M1554.03 240.063L1555.34 298.298L1565.84 295.319" stroke="var(--graphic-black)" stroke-width="8.1175" stroke-linecap="round" stroke-linejoin="round"></path><path fill-rule="evenodd" clip-rule="evenodd" d="M1559.13 286.341L1551.02 286.733L1551.28 298.389C1551.31 299.645 1551.92 300.817 1552.93 301.563C1553.94 302.309 1555.24 302.545 1556.45 302.202L1566.95 299.224C1569.1 298.612 1570.35 296.368 1569.74 294.211C1569.13 292.055 1566.89 290.803 1564.73 291.415L1559.28 292.961L1559.13 286.341Z" fill="var(--graphic-orange)" stroke="var(--graphic-orange)" stroke-width="0.5" stroke-linejoin="miter"></path></g><g data-projection-id="351" transform-origin="1524.6500244140625px 239.06199645996094px" style="transform-origin: 1524.65px 239.062px; transform: rotate(14.5742deg);"><path d="M1524.65 239.062L1498.41 249.332" stroke="var(--graphic-black)" stroke-width="8.1175" stroke-linecap="round" stroke-linejoin="round"></path></g><g data-projection-id="352" transform-origin="1553.6296997070312px 217.1837158203125px" style="transform: rotate(0.813869deg); transform-origin: 1553.63px 217.184px;"><path d="M1569.37 181.495C1571.01 177.257 1572 172.759 1567.36 168.617C1565.84 167.255 1563.84 166.504 1561.68 166.219C1559.51 165.933 1557.39 166.143 1555.56 167.064C1550.01 169.864 1549.8 174.465 1550.29 178.982C1548.89 175.577 1544.34 172.967 1539.65 174.309C1535.78 175.421 1533.88 178.635 1533.37 182.226C1532.86 185.818 1534.21 189.509 1536.44 192.499C1538.67 195.489 1541.74 197.841 1544.96 199.888C1547.39 201.432 1549.4 202.421 1552.87 203.649L1552.88 203.643C1554.1 204.071 1555.34 204.311 1556.64 204.481C1557.93 204.651 1559.2 204.742 1560.48 204.643L1560.49 204.652C1564.16 204.364 1566.36 203.93 1569.11 203.067C1572.75 201.924 1576.32 200.446 1579.25 198.136C1582.18 195.826 1584.44 192.607 1584.88 189.007C1585.32 185.407 1584.31 181.81 1580.85 179.733C1576.67 177.223 1571.61 178.568 1569.37 181.495Z" fill="var(--graphic-yellow)"></path><path d="M1538.68 187.263C1517.57 185.985 1498.35 199.539 1495.56 220.756C1493.54 259.103 1528.58 263.997 1548.48 266.618C1568.38 269.238 1603.48 273.577 1611.45 236.013C1614.24 214.797 1599.17 196.812 1578.46 192.501C1571.47 191.045 1566.43 190.38 1558.67 189.359L1558.65 189.357C1550.88 188.333 1546.22 187.72 1538.68 187.263Z" fill="var(--graphic-green)"></path><g data-projection-id="353" transform-origin="1549.774658203125px 228.89807891845703px" style="transform: translateX(-0.72871px) translateY(0.914841px); transform-origin: 1549.77px 228.898px;"><path d="M1555.38 225.294C1556.27 222.279 1559.56 220.168 1562.71 220.591C1565.86 221.014 1568.47 223.927 1568.52 227.066" stroke="var(--graphic-black)" stroke-width="4.05875" stroke-linecap="round" stroke-linejoin="round"></path><path d="M1546.21 224.091C1546.13 220.948 1543.5 218.057 1540.35 217.651C1537.2 217.244 1533.92 219.381 1533.05 222.4" stroke="var(--graphic-black)" stroke-width="4.05875" stroke-linecap="round" stroke-linejoin="round"></path><path d="M1540.97 231.019C1542.57 234.106 1545.85 236.419 1549.19 236.858C1552.52 237.297 1556.29 235.912 1558.64 233.345" stroke="var(--graphic-black)" stroke-width="4.05875" stroke-linecap="round" stroke-linejoin="round"></path><ellipse cx="3.89077" cy="3.89072" rx="3.89077" ry="3.89072" transform="matrix(-0.991445 -0.130524 -0.130528 0.991445 1529.02 225.867)" fill="white" fill-opacity="0.2"></ellipse><ellipse cx="3.89077" cy="3.89072" rx="3.89077" ry="3.89072" transform="matrix(-0.991445 -0.130524 -0.130528 0.991445 1579.26 232.48)" fill="white" fill-opacity="0.2"></ellipse></g></g><g data-projection-id="354" transform-origin="1587.5px 252.4739990234375px" style="transform-origin: 1587.5px 252.474px; transform: rotate(-14.5742deg);"><path d="M1587.5 252.474L1600.78 271.033" stroke="var(--graphic-black)" stroke-width="8.1175" stroke-linecap="round" stroke-linejoin="round"></path></g></g></g></g></g></g></svg>