<svg xmlns="http://www.w3.org/2000/svg" viewBox="1557.6942138671875 61.39945983886719 49.6268310546875 48.813880920410156"><style>:root{--app-green:#34C759;--app-gray:#747484;--app-blue:#018DFF;--app-pink:#F966AC;--graphic-green:#44C67F;--graphic-blue:#7DC4FF;--graphic-blue-alt:#4DAFFF;--graphic-blue-pale:#8ECCFF;--graphic-blue-pale-alt:#6DBDFF;--graphic-purple:#5F5DE7;--graphic-yellow:#FFCF7B;--graphic-gold:#F5B442;--graphic-gold-alt:#FFA620;--graphic-yellow-pale:#F6F4EF;--graphic-black:#343433;--graphic-gray:#E2D6C5;--graphic-stone:#F2EBE0;--graphic-orange:#FF5310;--graphic-outline:#B2A79A;--pocket:#52CB58;--heading:#343433;--body:#494440;--body-muted:#848281;--gray:#747484;--gray-light:#F2F0ED;--beige:#FBFAF9;--beige-dark:#EAEAEA;--focus:#848281;--white:#FFFFFF;--blue:#3784F4;--blue-light:#EEFBFD;--green:#44C67F;--yellow:#FFBE4C;--gold:#CA9230;--orange:#FF5310;--orange-dark:#FF2B00;--red:#EF4444;--purple:#9553F9;--twitter-blue:#343433;--color-anchor:#6187FE;--color-primary:#343433;--color-text:#343433;--color-border:#E8E8E8;--color-valid:#00C454;--background-valid:rgba(0,196,84,0.1);--color-invalid:#FF4E4E;--background-invalid:#FFF0F0;--color-warning:#F6C30F;--background-warning:#FEFAE6;}</style><g class="graphic-complex__GroupContainer-sc-nno4pa-1 fTQCoV"><g data-projection-id="307"><g data-projection-id="308" transform-origin="1582.52001953125px 86.07563018798828px" style="transform: translateY(0.318624px); transform-origin: 1582.52px 86.0756px;"><g data-projection-id="309" transform-origin="1582.52001953125px 86.07563018798828px" style="transform: rotate(-1.21022deg); transform-origin: 1582.52px 86.0756px;"><g data-projection-id="310"><path d="M1572.07 86.1351C1573.5 85.9377 1575.23 85.6005 1576.78 85.2746C1579.07 84.7915 1580.63 82.6967 1580.44 80.3649C1580.32 78.8181 1580.16 77.0898 1579.97 75.6933C1579.78 74.2968 1579.46 72.5902 1579.15 71.0689C1578.69 68.7757 1576.62 67.1851 1574.29 67.3437C1572.71 67.4507 1570.95 67.6 1569.53 67.7974C1568.11 67.9947 1566.37 68.3319 1564.82 68.6578C1562.54 69.1409 1560.97 71.2357 1561.16 73.5675C1561.28 75.1143 1561.44 76.8427 1561.63 78.2392C1561.83 79.6357 1562.14 81.3422 1562.45 82.8635C1562.91 85.1568 1564.98 86.7473 1567.31 86.5887C1568.89 86.4817 1570.65 86.3324 1572.07 86.1351Z" fill="var(--graphic-gray)" data-projection-id="311" transform-origin="1570.800048828125px 76.9661979675293px" style="transform: none; transform-origin: 1570.8px 76.9662px;"></path><path d="M1593.25 83.1956C1594.67 82.9982 1596.41 82.6611 1597.95 82.3351C1600.24 81.852 1601.8 79.7572 1601.62 77.4255C1601.5 75.8786 1601.34 74.1503 1601.14 72.7538C1600.95 71.3573 1600.63 69.6508 1600.33 68.1295C1599.87 65.8362 1597.79 64.2457 1595.46 64.4042C1593.89 64.5112 1592.12 64.6606 1590.7 64.8579C1589.28 65.0553 1587.54 65.3925 1586 65.7184C1583.71 66.2015 1582.15 68.2963 1582.33 70.6281C1582.45 72.1749 1582.61 73.9032 1582.8 75.2997C1583 76.6962 1583.31 78.4028 1583.62 79.924C1584.08 82.2173 1586.15 83.8079 1588.48 83.6493C1590.06 83.5423 1591.82 83.393 1593.25 83.1956Z" fill="var(--graphic-gray)" data-projection-id="312" transform-origin="1591.9750366210938px 74.0267562866211px" style="transform: scale(0.986072); transform-origin: 1591.98px 74.0268px;"></path><path d="M1575.01 107.293C1576.43 107.096 1578.17 106.759 1579.72 106.433C1582 105.95 1583.56 103.855 1583.38 101.523C1583.26 99.9763 1583.1 98.248 1582.91 96.8515C1582.71 95.455 1582.4 93.7484 1582.09 92.2271C1581.63 89.9339 1579.56 88.3433 1577.23 88.5019C1575.65 88.6089 1573.89 88.7582 1572.47 88.9556C1571.04 89.1529 1569.31 89.4901 1567.76 89.8161C1565.47 90.2991 1563.91 92.3939 1564.09 94.7257C1564.22 96.2725 1564.38 98.0009 1564.57 99.3974C1564.76 100.794 1565.08 102.5 1565.39 104.022C1565.85 106.315 1567.92 107.906 1570.25 107.747C1571.82 107.64 1573.59 107.491 1575.01 107.293Z" fill="var(--graphic-gray)" data-projection-id="313" transform-origin="1573.7350463867188px 98.12447357177734px" style="transform: scale(0.864); transform-origin: 1573.74px 98.1245px;"></path><g data-projection-id="314" transform-origin="1588.8800048828125px 90.6803970336914px" style="transform: scale(0.801774); transform-origin: 1588.88px 90.6804px;"><ellipse cx="1588.88" cy="90.6804" rx="3.90725" ry="3.96637" transform="rotate(-7.90405 1588.88 90.6804)" fill="var(--graphic-gray)"></ellipse></g><g data-projection-id="315" transform-origin="1590.3499755859375px 101.16300201416016px" style="transform: scale(0.924866); transform-origin: 1590.35px 101.163px;"><ellipse cx="1590.35" cy="101.163" rx="3.90725" ry="3.96637" transform="rotate(-7.90405 1590.35 101.163)" fill="var(--graphic-gray)"></ellipse></g><g data-projection-id="316" transform-origin="1599.47998046875px 89.20780181884766px" style="transform: none; transform-origin: 1599.48px 89.2078px;"><ellipse cx="1599.48" cy="89.2078" rx="3.90725" ry="3.96637" transform="rotate(-7.90405 1599.48 89.2078)" fill="var(--graphic-gray)"></ellipse></g></g></g></g></g></g></svg>