# Decoded from sources/assets/lusion.dev/assets/models/about/sphere_l.buf
# Position/index data decoded from public .buf header and payload.
v -0.0000153 -0.0000153 -0.5000000
v -0.3069763 -0.0000153 -0.3946838
v -0.4464722 -0.0000153 -0.2251129
v -0.5000000 -0.0000153 -0.0000076
v -0.2965240 0.0794373 -0.3946838
v -0.4312592 0.1155396 -0.2251129
v -0.4829712 0.1293945 -0.0000076
v -0.2658539 0.1534729 -0.3946838
v -0.3866577 0.2232056 -0.2251129
v -0.4330139 0.2499847 -0.0000076
v -0.2170715 0.2170410 -0.3946838
v -0.3157043 0.3156738 -0.2251129
v -0.3535614 0.3535309 -0.0000076
v -0.1535034 0.2658234 -0.3946838
v -0.2232361 0.3866272 -0.2251129
v -0.2500153 0.4329834 -0.0000076
v -0.0794678 0.2964935 -0.3946838
v -0.1155701 0.4312286 -0.2251129
v -0.1294250 0.4829407 -0.0000076
v -0.0000153 0.3069458 -0.3946838
v -0.0000153 0.4464417 -0.2251129
v -0.0000153 0.4999847 -0.0000076
v 0.0794373 0.2964935 -0.3946838
v 0.1155396 0.4312286 -0.2251129
v 0.1293945 0.4829407 -0.0000076
v 0.1534729 0.2658234 -0.3946838
v 0.2232056 0.3866272 -0.2251129
v 0.2499847 0.4329834 -0.0000076
v 0.2170410 0.2170410 -0.3946838
v 0.3156738 0.3156738 -0.2251129
v 0.3535309 0.3535309 -0.0000076
v 0.2658234 0.1534729 -0.3946838
v 0.3866272 0.2232056 -0.2251129
v 0.4329834 0.2499847 -0.0000076
v 0.2964935 0.0794373 -0.3946838
v 0.4312286 0.1155396 -0.2251129
v 0.4829407 0.1293945 -0.0000076
v 0.3069458 -0.0000153 -0.3946838
v 0.4464417 -0.0000153 -0.2251129
v 0.4999847 -0.0000153 -0.0000076
v 0.2964935 -0.0794678 -0.3946838
v 0.4312286 -0.1155701 -0.2251129
v 0.4829407 -0.1294250 -0.0000076
v 0.2658234 -0.1535034 -0.3946838
v 0.3866272 -0.2232361 -0.2251129
v 0.4329834 -0.2500153 -0.0000076
v 0.2170410 -0.2170715 -0.3946838
v 0.3156738 -0.3157043 -0.2251129
v 0.3535309 -0.3535614 -0.0000076
v 0.1534729 -0.2658539 -0.3946838
v 0.2232056 -0.3866577 -0.2251129
v 0.2499847 -0.4330139 -0.0000076
v 0.0794373 -0.2965240 -0.3946838
v 0.1155396 -0.4312592 -0.2251129
v 0.1293945 -0.4829712 -0.0000153
v -0.0000153 -0.3069763 -0.3946838
v -0.0000153 -0.4464722 -0.2251129
v -0.0000153 -0.5000000 -0.0000076
v -0.0794678 -0.2965240 -0.3946838
v -0.1155701 -0.4312592 -0.2251129
v -0.1294250 -0.4829712 -0.0000153
v -0.1535034 -0.2658539 -0.3946838
v -0.2232361 -0.3866577 -0.2251129
v -0.2500153 -0.4330139 -0.0000076
v -0.2170715 -0.2170715 -0.3946838
v -0.3157043 -0.3157043 -0.2251129
v -0.3535614 -0.3535614 -0.0000076
v -0.2658539 -0.1535034 -0.3946838
v -0.3866577 -0.2232361 -0.2251129
v -0.4330139 -0.2500153 -0.0000076
v -0.2965240 -0.0794678 -0.3946838
v -0.4312592 -0.1155701 -0.2251129
v -0.4829712 -0.1294250 -0.0000076
f 1 2 5
f 5 3 6
f 3 4 7
f 1 5 8
f 8 6 9
f 9 7 10
f 1 8 11
f 8 9 12
f 9 10 13
f 1 11 14
f 11 12 15
f 15 13 16
f 1 14 17
f 17 15 18
f 15 16 19
f 1 17 20
f 17 18 21
f 21 19 22
f 1 20 23
f 20 21 24
f 24 22 25
f 1 23 26
f 26 24 27
f 24 25 28
f 1 26 29
f 26 27 30
f 30 28 31
f 1 29 32
f 29 30 33
f 33 31 34
f 1 32 35
f 32 33 36
f 36 34 37
f 1 35 38
f 35 36 39
f 36 37 40
f 1 38 41
f 38 39 42
f 39 40 43
f 1 41 44
f 44 42 45
f 45 43 46
f 1 44 47
f 44 45 48
f 48 46 49
f 1 47 50
f 50 48 51
f 51 49 52
f 1 50 53
f 53 51 54
f 51 52 55
f 1 53 56
f 56 54 57
f 57 55 58
f 1 56 59
f 59 57 60
f 57 58 61
f 1 59 62
f 62 60 63
f 63 61 64
f 1 62 65
f 62 63 66
f 66 64 67
f 1 65 68
f 68 66 69
f 69 67 70
f 1 68 71
f 71 69 72
f 69 70 73
f 1 71 2
f 71 72 3
f 72 73 4
f 72 4 3
f 71 3 2
f 69 73 72
f 68 69 71
f 66 67 69
f 65 66 68
f 63 64 66
f 62 66 65
f 60 61 63
f 59 60 62
f 57 61 60
f 56 57 59
f 54 55 57
f 53 54 56
f 51 55 54
f 50 51 53
f 48 49 51
f 47 48 50
f 45 46 48
f 44 48 47
f 42 43 45
f 41 42 44
f 39 43 42
f 38 42 41
f 36 40 39
f 35 39 38
f 33 34 36
f 32 36 35
f 30 31 33
f 29 33 32
f 27 28 30
f 26 30 29
f 24 28 27
f 23 24 26
f 21 22 24
f 20 24 23
f 18 19 21
f 17 21 20
f 15 19 18
f 14 15 17
f 12 13 15
f 11 15 14
f 9 13 12
f 8 12 11
f 6 7 9
f 5 6 8
f 3 7 6
f 2 3 5
