# Decoded from sources/assets/lusion.dev/assets/models/about/rock_2.buf
# Position/index data decoded from public .buf header and payload.
v 0.1402640 0.0206249 0.0333976
v 0.1311198 -0.0069528 0.0640541
v 0.1400725 0.0665267 -0.0059971
v 0.1353115 0.1019772 -0.0329407
v 0.1314762 0.1053527 -0.0329568
v 0.1350775 0.1027589 -0.0334390
v 0.1298803 -0.0204752 0.0766392
v 0.1400778 0.0394617 0.0173140
v -0.0980882 0.0896883 -0.1435814
v 0.0170318 -0.1444655 0.0327065
v 0.0657161 -0.1450239 -0.0129781
v 0.1026815 -0.1085328 -0.0033665
v 0.0915690 -0.1354303 -0.0253650
v 0.0824354 -0.1413184 -0.0239881
v 0.1119216 -0.0708083 0.0333709
v 0.1298856 -0.0207340 0.0768589
v -0.0170717 -0.1215476 -0.1109159
v -0.0241946 -0.1055279 -0.1127696
v -0.0331314 -0.1435265 -0.0898014
v -0.0176037 -0.1434148 -0.1010096
v -0.0799699 0.0271779 -0.1304874
v -0.0982425 0.0882823 -0.1439672
v -0.0737886 0.0047016 -0.1251351
v -0.0159387 -0.1269433 -0.1093782
v -0.0569203 -0.0343325 -0.1202596
v -0.0708043 -0.0022626 -0.1242457
v -0.0196730 0.1511937 -0.0426381
v -0.0057039 0.1482902 -0.0348802
v 0.0737912 0.1441026 -0.0228362
v 0.0499384 0.1433107 -0.0211217
v 0.0112707 0.1465695 -0.0301547
v 0.0250111 0.1432599 -0.0213521
v -0.0722459 0.0844245 0.1303121
v -0.0603195 0.0848662 0.1293316
v -0.0536861 -0.1423641 -0.0187322
v -0.0669583 -0.1429681 -0.0657295
v -0.0426108 -0.1420595 0.0200464
v -0.0779804 -0.0183026 0.1585522
v -0.1046472 -0.0811734 -0.0655527
v -0.0357273 -0.1428514 0.0420931
v -0.0265299 -0.1415722 0.0764570
v -0.0850341 0.1094642 -0.1219312
v -0.0839436 0.1104845 -0.1200292
v -0.0312164 0.1557366 -0.0546338
v -0.0815817 0.1124743 -0.1173236
v -0.0970349 0.0986321 -0.1402704
v -0.0826775 0.1115657 -0.1184862
v -0.0802678 0.1322553 0.0057415
v -0.0280885 -0.1340497 0.0869259
v 0.1274067 -0.0209371 0.0789055
v 0.0129304 0.0002500 0.1469851
v -0.0653305 -0.0370380 0.1627205
v 0.1298856 -0.0207340 0.0768589
v -0.0982425 0.0882823 -0.1439672
v 0.0737912 0.1441026 -0.0228362
v -0.0722459 0.0844245 0.1303121
v -0.0722459 0.0844245 0.1303121
v -0.0603195 0.0848662 0.1293316
v -0.0603195 0.0848662 0.1293316
v -0.0669583 -0.1429681 -0.0657295
v -0.0779804 -0.0183026 0.1585522
v -0.0779804 -0.0183026 0.1585522
v -0.1046472 -0.0811734 -0.0655527
v -0.1046472 -0.0811734 -0.0655527
v -0.0265299 -0.1415722 0.0764570
v -0.0312164 0.1557366 -0.0546338
v -0.0970349 0.0986321 -0.1402704
v -0.0802678 0.1322553 0.0057415
v -0.0802678 0.1322553 0.0057415
v -0.0280885 -0.1340497 0.0869259
v -0.0280885 -0.1340497 0.0869259
v 0.1274067 -0.0209371 0.0789055
v 0.1274067 -0.0209371 0.0789055
v 0.0129304 0.0002500 0.1469851
v 0.0129304 0.0002500 0.1469851
v -0.0653305 -0.0370380 0.1627205
v -0.0653305 -0.0370380 0.1627205
v 0.0489596 -0.1438158 -0.0378912
v 0.1036018 -0.0668542 -0.0087134
v 0.1348860 0.1022411 -0.0336747
v 0.0448210 0.0357360 -0.0365357
v -0.0009163 0.0409084 -0.0535730
v 0.1266726 -0.0004404 0.0286186
v 0.0283730 -0.0063183 -0.0387484
v 0.0874517 -0.0043285 -0.0355606
v -0.0123746 0.1279965 -0.0383841
v 0.0620031 -0.0184194 -0.0468492
v -0.0834648 0.1082155 -0.1200989
v 0.0782649 -0.1373084 -0.0572269
v 0.0077013 -0.0192975 -0.0537927
v -0.0699426 0.0038641 -0.1216312
v -0.0093371 -0.1246997 -0.1050064
v 0.0126325 0.1269763 -0.0237899
v 0.0572527 -0.1308010 -0.0637525
v -0.0107734 -0.1437397 -0.0949072
v -0.0792571 0.0575169 -0.1252904
v 0.1402640 0.0206249 0.0333976
v 0.1311198 -0.0069528 0.0640541
v 0.1400725 0.0665267 -0.0059971
v 0.1353115 0.1019772 -0.0329407
v 0.1314762 0.1053527 -0.0329568
v 0.1350775 0.1027589 -0.0334390
v 0.1298803 -0.0204752 0.0766392
v 0.1400778 0.0394617 0.0173140
v -0.0980882 0.0896883 -0.1435814
v 0.0170318 -0.1444655 0.0327065
v 0.0657161 -0.1450239 -0.0129781
v 0.1026815 -0.1085328 -0.0033665
v 0.0915690 -0.1354303 -0.0253650
v 0.0824354 -0.1413184 -0.0239881
v 0.1119216 -0.0708083 0.0333709
v 0.1298856 -0.0207340 0.0768589
v -0.0170717 -0.1215476 -0.1109159
v -0.0241946 -0.1055279 -0.1127696
v -0.0331314 -0.1435265 -0.0898014
v -0.0176037 -0.1434148 -0.1010096
v -0.0799699 0.0271779 -0.1304874
v -0.0982425 0.0882823 -0.1439672
v -0.0737886 0.0047016 -0.1251351
v -0.0159387 -0.1269433 -0.1093782
v -0.0569203 -0.0343325 -0.1202596
v -0.0708043 -0.0022626 -0.1242457
v -0.0196730 0.1511937 -0.0426381
v -0.0057039 0.1482902 -0.0348802
v 0.0737912 0.1441026 -0.0228362
v 0.0499384 0.1433107 -0.0211217
v 0.0112707 0.1465695 -0.0301547
v 0.0250111 0.1432599 -0.0213521
v -0.0536861 -0.1423641 -0.0187322
v -0.0669583 -0.1429681 -0.0657295
v -0.0426108 -0.1420595 0.0200464
v -0.0357273 -0.1428514 0.0420931
v -0.0265299 -0.1415722 0.0764570
v -0.0850341 0.1094642 -0.1219312
v -0.0839436 0.1104845 -0.1200292
v -0.0312164 0.1557366 -0.0546338
v -0.0815817 0.1124743 -0.1173236
v -0.0970349 0.0986321 -0.1402704
v -0.0826775 0.1115657 -0.1184862
v 0.0489596 -0.1438158 -0.0378912
v -0.0834648 0.1082155 -0.1200989
v -0.0699426 0.0038641 -0.1216312
v -0.0107734 -0.1437397 -0.0949072
v -0.0792571 0.0575169 -0.1252904
v 0.0657161 -0.1450239 -0.0129781
v -0.0176037 -0.1434148 -0.1010096
v -0.0708043 -0.0022626 -0.1242457
v -0.0826775 0.1115657 -0.1184862
v 0.0027808 0.0918202 -0.1271603
v 0.0037223 0.0755264 -0.1304659
v -0.0005280 -0.0460326 -0.1405919
v 0.0013126 -0.0213178 -0.1397989
v 0.0068608 0.1360978 -0.1267477
v -0.1380804 -0.0581641 0.1571807
v -0.1112434 -0.0488497 0.1644403
v 0.1426099 -0.0259623 -0.0808273
v 0.1343859 -0.0016637 -0.0282153
v 0.0512470 -0.0011358 0.1238347
v 0.0687057 0.0010469 0.0954606
v 0.1114215 -0.0833916 -0.1130911
v 0.1177092 -0.0726357 -0.1078567
v 0.1289015 0.0034377 -0.0103315
v 0.0750306 -0.0023286 0.0787287
v 0.1071925 0.0022093 0.0272471
v 0.1443228 -0.0315966 -0.0926785
v -0.0479144 0.0778360 0.0996931
v -0.0805337 0.0435225 0.1157768
v -0.0458025 0.0799272 0.0997253
v 0.0269048 0.1676448 -0.0324639
v 0.0140262 0.1492293 0.0156585
v 0.0313626 0.1742385 -0.0509799
v -0.0092680 0.1200324 0.0673330
v 0.0082865 0.1420417 0.0282918
v -0.1016150 0.0202898 0.1352786
v -0.0279395 0.0983986 0.0936497
v -0.0202847 0.1075506 0.0804217
v -0.0406373 0.0851758 0.0987877
v 0.0318307 0.1760963 -0.0629060
v 0.0078024 0.1588990 -0.1203828
v 0.0250217 0.1712589 -0.0794879
v 0.0050309 0.1563051 -0.1217812
v -0.0056879 -0.0360177 0.1319462
v -0.0063688 -0.0366624 0.1319301
v -0.0239499 -0.0370329 0.1388736
v -0.0989340 -0.0475198 0.1644296
v -0.0845713 -0.0395506 0.1622544
v 0.0297986 -0.0120034 0.1285548
v 0.0471776 -0.0054808 0.1245044
v -0.0758206 -0.0332818 0.1615793
v -0.0127150 -0.0830109 0.1133176
v -0.0516115 0.0924090 -0.0567822
v -0.1135787 0.0076609 0.1415899
v 0.0254792 -0.0872087 -0.1258208
v 0.0424591 -0.0889295 -0.1210900
v 0.0115101 -0.0843053 -0.1335787
v 0.0561995 -0.0922339 -0.1122874
v 0.0811268 -0.0921832 -0.1120571
v -0.0000280 -0.0797572 -0.1455745
v 0.1049796 -0.0913913 -0.1137715
v -0.0291311 -0.1506277 0.0383963
v -0.1311065 -0.0511441 0.0275203
v -0.1533900 -0.0726763 0.1425650
v -0.0410575 -0.1510744 0.0393714
v -0.0796294 -0.1427803 0.0536013
v -0.0490794 -0.1032386 -0.0851938
v -0.0677296 -0.1053604 -0.0613523
v -0.1281489 -0.0326067 0.1583647
v -0.1212973 -0.0120998 0.1516998
v -0.1391337 -0.0544993 0.1566181
v -0.1185950 -0.0015266 0.1462618
v -0.1417509 -0.0595651 0.1560341
v -0.1533262 -0.0725138 0.1427418
v 0.0050309 0.1563051 -0.1217812
v -0.0989340 -0.0475198 0.1644296
v 0.0471776 -0.0054808 0.1245044
v -0.0127150 -0.0830109 0.1133176
v -0.0127150 -0.0830109 0.1133176
v -0.0516115 0.0924090 -0.0567822
v -0.0516115 0.0924090 -0.0567822
v -0.1135787 0.0076609 0.1415899
v -0.0000280 -0.0797572 -0.1455745
v 0.1049796 -0.0913913 -0.1137715
v -0.0291311 -0.1506277 0.0383963
v -0.0291311 -0.1506277 0.0383963
v -0.1311065 -0.0511441 0.0275203
v -0.1311065 -0.0511441 0.0275203
v -0.1533900 -0.0726763 0.1425650
v -0.1533900 -0.0726763 0.1425650
v -0.0410575 -0.1510744 0.0393714
v -0.0410575 -0.1510744 0.0393714
v -0.0796294 -0.1427803 0.0536013
v -0.0796294 -0.1427803 0.0536013
v -0.0490794 -0.1032386 -0.0851938
v -0.0490794 -0.1032386 -0.0851938
v -0.0677296 -0.1053604 -0.0613523
v -0.0677296 -0.1053604 -0.0613523
v -0.1185950 -0.0015266 0.1462618
v -0.1417509 -0.0595651 0.1560341
v -0.1533262 -0.0725138 0.1427418
v -0.1533262 -0.0725138 0.1427418
v 0.1045115 0.0306549 -0.0656866
v 0.0794937 0.0923126 0.0079435
v 0.0591039 0.1159005 0.0541639
v 0.0642745 0.1411280 -0.0799755
v 0.0635192 0.0419337 -0.0942322
v -0.0905238 -0.0145363 0.1536178
v -0.0409032 0.0373248 0.1094387
v 0.0549228 0.0023666 -0.1103533
v 0.1221404 0.0242948 -0.0101975
v 0.1294335 -0.0020697 -0.0854617
v 0.0287188 0.1087993 0.0884207
v 0.0224630 0.1491887 -0.1192631
v 0.0827865 -0.0572606 -0.1070530
v 0.0919467 0.0697043 -0.0399110
v 0.0282826 0.1360064 0.0278578
v 0.0598753 0.1302604 -0.0005002
v -0.0034378 0.1149310 0.0719459
v 0.0480287 0.0059350 0.1254045
v 0.0027808 0.0918202 -0.1271603
v 0.0037223 0.0755264 -0.1304659
v -0.0005280 -0.0460326 -0.1405919
v 0.0013126 -0.0213178 -0.1397989
v 0.0068608 0.1360978 -0.1267477
v -0.1380804 -0.0581641 0.1571807
v -0.1112434 -0.0488497 0.1644403
v 0.1426099 -0.0259623 -0.0808273
v 0.1343859 -0.0016637 -0.0282153
v 0.0512470 -0.0011358 0.1238347
v 0.0687057 0.0010469 0.0954606
v 0.1114215 -0.0833916 -0.1130911
v 0.1177092 -0.0726357 -0.1078567
v 0.1289015 0.0034377 -0.0103315
v 0.0750306 -0.0023286 0.0787287
v 0.1071925 0.0022093 0.0272471
v 0.1443228 -0.0315966 -0.0926785
v -0.0479144 0.0778360 0.0996931
v -0.0805337 0.0435225 0.1157768
v -0.0458025 0.0799272 0.0997253
v 0.0269048 0.1676448 -0.0324639
v 0.0140262 0.1492293 0.0156585
v 0.0313626 0.1742385 -0.0509799
v -0.0092680 0.1200324 0.0673330
v 0.0082865 0.1420417 0.0282918
v -0.1016150 0.0202898 0.1352786
v -0.0279395 0.0983986 0.0936497
v -0.0202847 0.1075506 0.0804217
v -0.0406373 0.0851758 0.0987877
v 0.0318307 0.1760963 -0.0629060
v 0.0078024 0.1588990 -0.1203828
v 0.0250217 0.1712589 -0.0794879
v 0.0050309 0.1563051 -0.1217812
v -0.0056879 -0.0360177 0.1319462
v -0.0063688 -0.0366624 0.1319301
v -0.0239499 -0.0370329 0.1388736
v -0.0989340 -0.0475198 0.1644296
v -0.0845713 -0.0395506 0.1622544
v 0.0297986 -0.0120034 0.1285548
v 0.0471776 -0.0054808 0.1245044
v -0.0758206 -0.0332818 0.1615793
v -0.1135787 0.0076609 0.1415899
v 0.0254792 -0.0872087 -0.1258208
v 0.0424591 -0.0889295 -0.1210900
v 0.0115101 -0.0843053 -0.1335787
v 0.0561995 -0.0922339 -0.1122874
v 0.0811268 -0.0921832 -0.1120571
v -0.0000280 -0.0797572 -0.1455745
v 0.1049796 -0.0913913 -0.1137715
v -0.1281489 -0.0326067 0.1583647
v -0.1212973 -0.0120998 0.1516998
v -0.1391337 -0.0544993 0.1566181
v -0.1185950 -0.0015266 0.1462618
v -0.1417509 -0.0595651 0.1560341
v -0.0754855 -0.0209929 -0.0399914
v -0.0930559 -0.0294291 -0.0158123
v -0.0957050 -0.0420480 0.1032774
v -0.1064345 -0.0352614 0.0953695
v -0.1440809 -0.0464894 0.0496260
v -0.1401604 -0.0401699 0.0570302
v -0.0345836 -0.1088272 0.1338642
v -0.0265245 -0.1169437 0.1382521
v -0.0734854 -0.0654329 0.1148499
v -0.0838372 -0.0539663 0.1097548
v -0.1223346 -0.0235613 0.0844989
v -0.1446022 -0.0502812 0.0471186
v 0.0171062 0.0292997 -0.1358825
v 0.0044351 0.0282033 -0.1364290
v 0.0672162 0.0325432 -0.1325125
v 0.0448476 0.0316904 -0.1347038
v 0.0829674 0.0305280 -0.1279853
v -0.0209816 0.0037473 -0.1120678
v -0.0105819 0.0137520 -0.1220330
v 0.0018286 0.0262896 -0.1346074
v 0.0493213 -0.0494842 0.0979787
v 0.0166966 -0.0837926 0.1140677
v 0.1241458 0.0403246 -0.0341730
v 0.1112619 0.0219040 0.0139440
v 0.1285983 0.0469132 -0.0526890
v 0.0879624 -0.0072827 0.0656239
v 0.1055168 0.0147215 0.0265827
v -0.0043793 -0.1070303 0.1335642
v -0.0163430 -0.1196644 0.1398808
v 0.0692908 -0.0289165 0.0919353
v 0.0769456 -0.0197645 0.0787126
v 0.0565984 -0.0421393 0.0970786
v 0.1290664 0.0487710 -0.0646151
v 0.1222574 0.0439336 -0.0812024
v 0.0514279 -0.0473879 0.0980108
v 0.0456189 -0.0349112 -0.0584913
v 0.1050328 0.0315737 -0.1220973
v 0.1022613 0.0289850 -0.1234956
v -0.0265245 -0.1169437 0.1382521
v -0.1446022 -0.0502812 0.0471186
v -0.0209816 0.0037473 -0.1120678
v -0.0163430 -0.1196644 0.1398808
v 0.0456189 -0.0349112 -0.0584913
v 0.0456189 -0.0349112 -0.0584913
v 0.1022613 0.0289850 -0.1234956
v 0.0852920 0.0446392 -0.1236028
v 0.0047969 0.0349086 -0.1321964
v 0.0464860 -0.0331041 0.0940408
v -0.1047216 0.0047067 0.0647506
v 0.0166966 0.0873635 -0.0681940
v 0.0404111 0.0343604 0.0279971
v -0.0483027 0.0215690 0.0655007
v -0.0462228 0.0630700 0.0279971
v 0.1235128 0.0547556 -0.0616952
v -0.0014483 0.0849220 -0.0845509
v -0.0351209 0.0726940 -0.0174625
v 0.0757009 0.0548825 -0.0164767
v -0.0132683 -0.0791024 0.1188628
v 0.0462998 0.0575524 -0.1184059
v 0.0241812 0.0776126 -0.1003292
v -0.0754855 -0.0209929 -0.0399914
v -0.0930559 -0.0294291 -0.0158123
v -0.0957050 -0.0420480 0.1032774
v -0.1064345 -0.0352614 0.0953695
v -0.1440809 -0.0464894 0.0496260
v -0.1401604 -0.0401699 0.0570302
v -0.0345836 -0.1088272 0.1338642
v -0.0265245 -0.1169437 0.1382521
v -0.0734854 -0.0654329 0.1148499
v -0.0838372 -0.0539663 0.1097548
v -0.1223346 -0.0235613 0.0844989
v -0.1446022 -0.0502812 0.0471186
v 0.0171062 0.0292997 -0.1358825
v 0.0044351 0.0282033 -0.1364290
v 0.0672162 0.0325432 -0.1325125
v 0.0448476 0.0316904 -0.1347038
v 0.0829674 0.0305280 -0.1279853
v -0.0209816 0.0037473 -0.1120678
v -0.0105819 0.0137520 -0.1220330
v 0.0018286 0.0262896 -0.1346074
v 0.0493213 -0.0494842 0.0979787
v 0.0166966 -0.0837926 0.1140677
v 0.1241458 0.0403246 -0.0341730
v 0.1112619 0.0219040 0.0139440
v 0.1285983 0.0469132 -0.0526890
v 0.0879624 -0.0072827 0.0656239
v 0.1055168 0.0147215 0.0265827
v -0.0043793 -0.1070303 0.1335642
v -0.0163430 -0.1196644 0.1398808
v 0.0692908 -0.0289165 0.0919353
v 0.0769456 -0.0197645 0.0787126
v 0.0565984 -0.0421393 0.0970786
v 0.1290664 0.0487710 -0.0646151
v 0.1222574 0.0439336 -0.0812024
v 0.0514279 -0.0473879 0.0980108
v 0.1050328 0.0315737 -0.1220973
v 0.1022613 0.0289850 -0.1234956
v 0.0462998 0.0575524 -0.1184059
v 0.0448476 0.0316904 -0.1347038
v -0.0860075 -0.1247860 -0.0631953
v -0.0860501 -0.1241414 -0.0618988
v -0.1517037 -0.0541693 0.0583643
v -0.1171587 -0.0867316 0.0037752
v -0.1092379 -0.0941831 -0.0087134
v -0.1644706 -0.0345051 0.0941212
v -0.1582787 -0.0492203 0.0662079
v 0.1192466 0.1135301 0.0013321
v 0.1201881 0.0972363 -0.0019789
v 0.1159378 -0.0243227 -0.0120941
v 0.1177784 0.0003921 -0.0113012
v 0.1233266 0.1578076 0.0017447
v 0.0363417 0.1783297 -0.0056810
v 0.0236652 0.1772384 -0.0062168
v 0.0864517 0.1815783 -0.0023111
v 0.0640830 0.1807256 -0.0044970
v 0.1022028 0.1795581 0.0022162
v 0.0086535 0.1627821 0.0081685
v 0.0210587 0.1753248 -0.0044059
v 0.1214967 0.1780150 0.0067059
v -0.1201111 0.0177620 0.0821308
v -0.0934070 0.0437154 0.0712119
v -0.1565179 -0.0098918 0.0909763
v -0.1650398 -0.0269673 0.1013272
v -0.1643057 -0.0297946 0.1037971
v -0.0017462 0.1527723 0.0181337
v -0.0454036 0.0945561 0.0483187
v -0.0146354 -0.0294393 0.1560181
v 0.0648544 0.1141138 0.0717102
v 0.0487362 -0.0836505 0.0671347
v 0.0626202 -0.1043249 -0.0843741
v 0.0637107 -0.1033046 -0.0824721
v 0.0649767 -0.1022234 -0.0809291
v 0.1164378 -0.0580474 -0.0170767
v 0.0660725 -0.1013097 -0.0797665
v 0.0506193 -0.1151569 -0.1027133
v 0.0673865 -0.0815287 0.0432986
v -0.0538191 -0.0935537 -0.1326197
v -0.0538403 -0.0935638 -0.1325983
v -0.0315621 -0.0885437 -0.1434153
v -0.0303174 -0.0881985 -0.1441118
v -0.0535424 -0.0934826 -0.1327644
v -0.0275353 -0.0884980 -0.1440261
v 0.0170796 -0.0962845 -0.1379827
v -0.0707671 -0.1101064 -0.1046314
v -0.0844489 -0.1296082 -0.0725123
v -0.0289928 -0.1370089 -0.0685423
v -0.0538084 -0.0935537 -0.1326197
v 0.0451615 -0.1165731 -0.1102997
v 0.0336181 -0.1073755 -0.1230134
v 0.0465552 -0.1177355 -0.1086871
v 0.1214967 0.1780150 0.0067059
v -0.1643057 -0.0297946 0.1037971
v -0.0146354 -0.0294393 0.1560181
v -0.0146354 -0.0294393 0.1560181
v 0.0648544 0.1141138 0.0717102
v 0.0487362 -0.0836505 0.0671347
v 0.0487362 -0.0836505 0.0671347
v 0.1164378 -0.0580474 -0.0170767
v 0.0673865 -0.0815287 0.0432986
v -0.0844489 -0.1296082 -0.0725123
v -0.0289928 -0.1370089 -0.0685423
v -0.0289928 -0.1370089 -0.0685423
v 0.0465552 -0.1177355 -0.1086871
v -0.0017462 0.1527723 0.0181337
v 0.0506193 -0.1151569 -0.1027133
v 0.0648544 0.1141138 0.0717102
v 0.0673865 -0.0815287 0.0432986
v 0.0946384 0.1337374 -0.0120030
v -0.0538244 -0.0935232 -0.1326143
v -0.0720172 -0.0584484 -0.0334283
v 0.1093310 -0.0033438 -0.0159409
v 0.0165796 -0.0677475 -0.1380577
v 0.0390812 0.0134272 -0.0788343
v -0.0975669 0.0256450 0.0599769
v -0.1533368 -0.0132368 0.0798109
v 0.0270538 0.0805059 -0.0876958
v -0.0633197 -0.0662603 -0.0953841
v 0.0650725 0.0117622 -0.0456705
v -0.0244659 -0.0152012 -0.0986576
v 0.0091110 0.0379389 -0.1031366
v -0.0163483 0.0666536 -0.0347891
v -0.0666976 -0.0083842 -0.0118370
v 0.0204841 0.1187989 -0.0430774
v 0.0632585 0.1660611 -0.0137336
v 0.0074832 -0.0279571 -0.1312910
v -0.0422650 0.0927136 0.0418252
v 0.0612477 0.1087181 -0.0369107
v 0.0504863 0.1238393 -0.0376126
v 0.0779032 -0.0470376 -0.0543338
v -0.0860075 -0.1247860 -0.0631953
v -0.0860501 -0.1241414 -0.0618988
v -0.1517037 -0.0541693 0.0583643
v -0.1171587 -0.0867316 0.0037752
v -0.1092379 -0.0941831 -0.0087134
v -0.1644706 -0.0345051 0.0941212
v -0.1582787 -0.0492203 0.0662079
v 0.1192466 0.1135301 0.0013321
v 0.1201881 0.0972363 -0.0019789
v 0.1159378 -0.0243227 -0.0120941
v 0.1177784 0.0003921 -0.0113012
v 0.1233266 0.1578076 0.0017447
v 0.0363417 0.1783297 -0.0056810
v 0.0236652 0.1772384 -0.0062168
v 0.0864517 0.1815783 -0.0023111
v 0.0640830 0.1807256 -0.0044970
v 0.1022028 0.1795581 0.0022162
v 0.0086535 0.1627821 0.0081685
v 0.0210587 0.1753248 -0.0044059
v 0.1214967 0.1780150 0.0067059
v -0.1201111 0.0177620 0.0821308
v -0.0934070 0.0437154 0.0712119
v -0.1565179 -0.0098918 0.0909763
v -0.1650398 -0.0269673 0.1013272
v -0.1643057 -0.0297946 0.1037971
v -0.0017462 0.1527723 0.0181337
v -0.0454036 0.0945561 0.0483187
v 0.0626202 -0.1043249 -0.0843741
v 0.0637107 -0.1033046 -0.0824721
v 0.0649767 -0.1022234 -0.0809291
v 0.1164378 -0.0580474 -0.0170767
v 0.0660725 -0.1013097 -0.0797665
v 0.0506193 -0.1151569 -0.1027133
v -0.0538191 -0.0935537 -0.1326197
v -0.0538403 -0.0935638 -0.1325983
v -0.0315621 -0.0885437 -0.1434153
v -0.0303174 -0.0881985 -0.1441118
v -0.0535424 -0.0934826 -0.1327644
v -0.0275353 -0.0884980 -0.1440261
v 0.0170796 -0.0962845 -0.1379827
v -0.0707671 -0.1101064 -0.1046314
v -0.0844489 -0.1296082 -0.0725123
v -0.0538084 -0.0935537 -0.1326197
v 0.0451615 -0.1165731 -0.1102997
v 0.0336181 -0.1073755 -0.1230134
v 0.0465552 -0.1177355 -0.1086871
v 0.0650725 0.0117622 -0.0456705
v 0.0632585 0.1660611 -0.0137336
v 0.0612477 0.1087181 -0.0369107
v 0.0504863 0.1238393 -0.0376126
v 0.0779032 -0.0470376 -0.0543338
v 0.0640830 0.1807256 -0.0044970
v 0.0649767 -0.1022234 -0.0809291
v -0.0786187 -0.0297692 0.0495456
v -0.0497762 -0.0302667 0.0967089
v -0.0296524 -0.0311448 0.1308103
v -0.0386371 -0.0323021 0.1190985
v -0.0254926 -0.0307540 0.1365752
v -0.0109011 -0.0313935 0.1613061
v 0.0480819 0.0504918 0.0699689
v 0.0435337 0.0346853 0.0985091
v -0.0061348 -0.0303022 0.1664387
v -0.0100393 -0.0311245 0.1620722
v -0.0928751 -0.0294088 0.0259827
v 0.0558590 0.0871909 -0.0007520
v 0.0089089 -0.0109780 0.1466797
v 0.0420442 0.0311625 0.1041025
v 0.0345703 0.0211984 0.1147535
v 0.0205107 0.0040569 0.1311532
v 0.0229737 0.0071127 0.1281583
v -0.0600163 -0.0339315 -0.0611594
v -0.0113320 -0.0344949 -0.1068548
v 0.0256281 0.0019961 -0.0972325
v 0.0145156 -0.0248963 -0.1192363
v 0.0053873 -0.0307844 -0.1178594
v 0.0348682 0.0397206 -0.0605004
v -0.1110466 -0.0301753 -0.0012877
v -0.1035833 -0.0310433 -0.0174143
v -0.1051419 -0.0235156 -0.0069401
v 0.0543057 0.0904751 -0.0106583
v 0.0528269 0.0897949 -0.0170071
v 0.0503533 0.0895919 -0.0149658
v -0.1110466 -0.0301753 -0.0012877
v -0.1035833 -0.0310433 -0.0174143
v -0.1051419 -0.0235156 -0.0069401
v -0.1051419 -0.0235156 -0.0069401
v 0.0543057 0.0904751 -0.0106583
v 0.0528269 0.0897949 -0.0170071
v 0.0503533 0.0895919 -0.0149658
v 0.0503533 0.0895919 -0.0149658
v 0.0109143 -0.0360989 -0.0737767
v 0.0476776 0.0336345 0.0043003
v 0.0442146 0.0309544 0.0992217
v 0.0022754 -0.0323224 0.1222381
v 0.0313892 -0.0329772 -0.0374947
v 0.0166700 -0.0282718 0.0734835
v -0.0357486 -0.0320382 0.0413377
v 0.0250696 -0.0234040 -0.0939696
v -0.0054911 -0.0316879 0.1605881
v -0.0786187 -0.0297692 0.0495456
v -0.0497762 -0.0302667 0.0967089
v -0.0296524 -0.0311448 0.1308103
v -0.0386371 -0.0323021 0.1190985
v -0.0254926 -0.0307540 0.1365752
v -0.0109011 -0.0313935 0.1613061
v 0.0480819 0.0504918 0.0699689
v 0.0435337 0.0346853 0.0985091
v -0.0061348 -0.0303022 0.1664387
v -0.0100393 -0.0311245 0.1620722
v -0.0928751 -0.0294088 0.0259827
v 0.0558590 0.0871909 -0.0007520
v 0.0089089 -0.0109780 0.1466797
v 0.0420442 0.0311625 0.1041025
v 0.0345703 0.0211984 0.1147535
v 0.0205107 0.0040569 0.1311532
v 0.0229737 0.0071127 0.1281583
v -0.0600163 -0.0339315 -0.0611594
v -0.0113320 -0.0344949 -0.1068548
v 0.0256281 0.0019961 -0.0972325
v 0.0145156 -0.0248963 -0.1192363
v 0.0053873 -0.0307844 -0.1178594
v 0.0348682 0.0397206 -0.0605004
v -0.1110466 -0.0301753 -0.0012877
v -0.1035833 -0.0310433 -0.0174143
v 0.0543057 0.0904751 -0.0106583
v 0.0528269 0.0897949 -0.0170071
v 0.0109143 -0.0360989 -0.0737767
v 0.0022754 -0.0323224 0.1222381
v 0.0313892 -0.0329772 -0.0374947
v 0.0166700 -0.0282718 0.0734835
v -0.0254926 -0.0307540 0.1365752
v -0.0113320 -0.0344949 -0.1068548
v -0.0015813 0.0023514 -0.1723841
v -0.0016238 0.0029961 -0.1710822
v -0.0672775 0.0729580 -0.0508192
v -0.0327324 0.0404008 -0.1054029
v -0.0248117 0.0329442 -0.1179022
v -0.0800497 0.0926222 -0.0150569
v -0.0738577 0.0779070 -0.0429756
v 0.0360651 0.0529688 0.1681853
v 0.0415389 0.0260257 0.1568110
v 0.0401079 -0.0447687 0.1426936
v 0.0404643 -0.0369314 0.1440544
v 0.0404643 -0.0345660 0.1445741
v -0.0105287 -0.0821074 0.0772875
v 0.0049192 -0.0763563 0.0919192
v -0.0653997 -0.1029290 0.0148870
v -0.0515849 -0.0975738 0.0337298
v -0.0771612 -0.1089592 -0.0416951
v -0.0778740 -0.1105987 -0.0800773
v -0.0746929 -0.1076496 -0.0286117
v -0.0772941 -0.1088678 -0.0379823
v 0.0420229 -0.0621741 0.1369609
v -0.0827573 -0.0980358 -0.1074923
v -0.0767037 -0.0902137 -0.1135465
v -0.0346900 -0.0448956 -0.1488159
v -0.0074434 -0.0152368 -0.1718912
v -0.0005865 -0.0037143 -0.1807474
v -0.0000280 -0.0024758 -0.1817011
v -0.0232371 -0.0344239 -0.1570184
v -0.0788634 -0.1094059 -0.0990594
v -0.0812093 -0.1123296 -0.0967931
v 0.0554281 -0.0098715 -0.1777257
v 0.0730677 -0.0527227 0.1080671
v -0.0053900 -0.0874575 -0.1176612
v -0.0411373 0.0848408 0.0801109
v -0.0798794 0.0973327 -0.0053863
v -0.0782836 0.0952668 0.0070112
v -0.0730119 0.0927390 0.0233842
v 0.0475020 0.0761660 0.1618740
v 0.1212573 0.0060619 0.0729156
v 0.1331571 0.0434819 -0.0420434
v 0.0697802 0.0976931 0.0468293
v -0.0095978 0.0788664 0.1256081
v -0.0096616 0.0788968 0.1255277
v 0.0265910 0.0660394 0.1646814
v 0.0473797 0.0761406 0.1619865
v 0.0379854 0.0672627 0.1694122
v 0.0420229 -0.0621741 0.1369609
v -0.0000280 -0.0024758 -0.1817011
v -0.0812093 -0.1123296 -0.0967931
v 0.0554281 -0.0098715 -0.1777257
v 0.0554281 -0.0098715 -0.1777257
v 0.0730677 -0.0527227 0.1080671
v 0.0730677 -0.0527227 0.1080671
v -0.0053900 -0.0874575 -0.1176612
v -0.0053900 -0.0874575 -0.1176612
v -0.0798794 0.0973327 -0.0053863
v 0.0475020 0.0761660 0.1618740
v 0.0475020 0.0761660 0.1618740
v 0.1212573 0.0060619 0.0729156
v 0.1212573 0.0060619 0.0729156
v 0.1331571 0.0434819 -0.0420434
v 0.1331571 0.0434819 -0.0420434
v 0.0697802 0.0976931 0.0468293
v 0.0697802 0.0976931 0.0468293
v -0.0096616 0.0788968 0.1255277
v 0.0473797 0.0761406 0.1619865
v 0.0473797 0.0761406 0.1619865
v 0.0379854 0.0672627 0.1694122
v -0.0681339 -0.0253734 0.0602394
v -0.0928272 -0.0629457 -0.0730855
v -0.0071827 -0.0630979 0.0851739
v -0.1157544 -0.0031763 -0.0176125
v -0.0637506 -0.0154195 -0.0971253
v -0.0716820 0.0460960 -0.0110119
v -0.0273650 0.0193508 0.0715601
v -0.0222051 0.0409490 0.0826987
v -0.0019855 0.0013108 -0.1718109
v -0.0277002 0.0301727 -0.1159842
v -0.0771452 0.0539434 -0.0520354
v -0.0697936 -0.0812445 0.0200732
v -0.0015813 0.0023514 -0.1723841
v -0.0016238 0.0029961 -0.1710822
v -0.0672775 0.0729580 -0.0508192
v -0.0327324 0.0404008 -0.1054029
v -0.0248117 0.0329442 -0.1179022
v -0.0800497 0.0926222 -0.0150569
v -0.0738577 0.0779070 -0.0429756
v 0.0360651 0.0529688 0.1681853
v 0.0415389 0.0260257 0.1568110
v 0.0401079 -0.0447687 0.1426936
v 0.0404643 -0.0369314 0.1440544
v 0.0404643 -0.0345660 0.1445741
v -0.0105287 -0.0821074 0.0772875
v 0.0049192 -0.0763563 0.0919192
v -0.0653997 -0.1029290 0.0148870
v -0.0515849 -0.0975738 0.0337298
v -0.0771612 -0.1089592 -0.0416951
v -0.0778740 -0.1105987 -0.0800773
v -0.0746929 -0.1076496 -0.0286117
v -0.0772941 -0.1088678 -0.0379823
v 0.0420229 -0.0621741 0.1369609
v -0.0827573 -0.0980358 -0.1074923
v -0.0767037 -0.0902137 -0.1135465
v -0.0346900 -0.0448956 -0.1488159
v -0.0074434 -0.0152368 -0.1718912
v -0.0005865 -0.0037143 -0.1807474
v -0.0000280 -0.0024758 -0.1817011
v -0.0232371 -0.0344239 -0.1570184
v -0.0788634 -0.1094059 -0.0990594
v -0.0812093 -0.1123296 -0.0967931
v -0.0411373 0.0848408 0.0801109
v -0.0798794 0.0973327 -0.0053863
v -0.0782836 0.0952668 0.0070112
v -0.0730119 0.0927390 0.0233842
v -0.0095978 0.0788664 0.1256081
v -0.0096616 0.0788968 0.1255277
v 0.0265910 0.0660394 0.1646814
v 0.0379854 0.0672627 0.1694122
v 0.0204310 0.0659227 0.0500653
v -0.0003205 0.0672983 0.0383588
v 0.0102068 0.0669074 0.0471346
v -0.0395680 0.0698566 0.0157978
v -0.1102274 -0.0408500 -0.0295708
v -0.1077219 -0.0520781 -0.0353945
v -0.0761345 0.0292489 -0.0183036
v -0.0948380 -0.0163332 -0.0273848
v -0.1056632 -0.0519867 -0.0363964
v -0.0700011 0.0438372 -0.0154748
v 0.0233354 -0.0452204 -0.0987647
v -0.1004820 -0.0516567 -0.0388770
v -0.0695861 0.0714859 -0.0044595
v 0.0457679 -0.0447179 -0.0705835
v 0.0487521 -0.0447128 -0.0627506
v 0.0799086 -0.0461696 0.0176730
v 0.0693387 -0.0492863 -0.0127692
v 0.0964896 -0.0100288 0.0928889
v 0.0795416 0.0279292 0.0817825
v 0.0952608 -0.0383019 0.0648417
v 0.0863133 -0.0448550 0.0356318
v 0.0888454 -0.0449514 0.0421895
v 0.0920584 -0.0405506 0.0544693
v 0.0437571 -0.0446976 -0.0758394
v 0.0333468 -0.0456773 -0.1039992
v 0.0665672 0.0580143 0.0741640
v 0.0707165 0.0457102 0.0742443
v 0.0651788 0.0629076 0.0748230
v 0.0181808 0.0548216 -0.0555285
v -0.0695861 0.0714859 -0.0044595
v 0.0333468 -0.0456773 -0.1039992
v 0.0651788 0.0629076 0.0748230
v 0.0181808 0.0548216 -0.0555285
v 0.0181808 0.0548216 -0.0555285
v 0.0752700 -0.0384745 0.0599448
v -0.0855873 -0.0514639 0.0013643
v 0.0158083 0.0277363 0.0576303
v 0.0364268 -0.0442255 -0.0687941
v -0.0258170 0.0540602 0.0192427
v -0.0038101 -0.0430733 0.0401536
v 0.0661789 0.0391419 0.0683348
v -0.0416692 -0.0327539 0.0419431
v -0.0582449 0.0002246 0.0007589
v -0.0349134 -0.0492304 -0.0207681
v 0.0683067 -0.0438398 0.0449273
v 0.0152338 -0.0373324 0.0554872
v 0.0204310 0.0659227 0.0500653
v -0.0003205 0.0672983 0.0383588
v 0.0102068 0.0669074 0.0471346
v -0.0395680 0.0698566 0.0157978
v -0.1102274 -0.0408500 -0.0295708
v -0.1077219 -0.0520781 -0.0353945
v -0.0761345 0.0292489 -0.0183036
v -0.0948380 -0.0163332 -0.0273848
v -0.1056632 -0.0519867 -0.0363964
v -0.0700011 0.0438372 -0.0154748
v 0.0233354 -0.0452204 -0.0987647
v -0.1004820 -0.0516567 -0.0388770
v -0.0695861 0.0714859 -0.0044595
v 0.0457679 -0.0447179 -0.0705835
v 0.0487521 -0.0447128 -0.0627506
v 0.0799086 -0.0461696 0.0176730
v 0.0693387 -0.0492863 -0.0127692
v 0.0964896 -0.0100288 0.0928889
v 0.0795416 0.0279292 0.0817825
v 0.0952608 -0.0383019 0.0648417
v 0.0863133 -0.0448550 0.0356318
v 0.0888454 -0.0449514 0.0421895
v 0.0920584 -0.0405506 0.0544693
v 0.0437571 -0.0446976 -0.0758394
v 0.0333468 -0.0456773 -0.1039992
v 0.0665672 0.0580143 0.0741640
v 0.0707165 0.0457102 0.0742443
v 0.0651788 0.0629076 0.0748230
v -0.0855873 -0.0514639 0.0013643
v -0.0038101 -0.0430733 0.0401536
v 0.0683067 -0.0438398 0.0449273
v -0.1077219 -0.0520781 -0.0353945
v 0.0863133 -0.0448550 0.0356318
v -0.0571863 -0.0747726 0.0345174
v -0.0890609 -0.0668745 -0.0222040
v -0.0943326 -0.0643466 -0.0385770
v -0.0517338 -0.0147190 -0.0726462
v -0.0250298 0.0112343 -0.0835597
v 0.0229631 0.0620700 -0.1064583
v -0.0881407 -0.0423779 -0.0638007
v -0.0966626 -0.0594534 -0.0534444
v -0.0959285 -0.0622807 -0.0509745
v 0.0537312 -0.0619254 0.0012357
v 0.0121218 0.0955460 -0.0645615
v 0.0666204 0.1202862 -0.1366433
v -0.0054486 0.0871148 -0.0403825
v 0.0712591 -0.0031154 0.1153053
v 0.1332316 0.0816277 -0.0830668
v -0.0706341 0.0445022 0.0195910
v -0.0926889 -0.0035367 0.0181230
v -0.0794379 -0.0232060 0.0314796
v -0.0907206 -0.0087142 0.0206840
v -0.0583992 0.0635268 0.0223663
v -0.0569948 0.0662577 0.0225484
v -0.0257107 -0.0807217 0.0799341
v 0.0662481 -0.0123029 0.1199772
v 0.0610828 -0.0003997 0.1136820
v 0.0314477 -0.0834525 0.1162804
v 0.0313307 -0.0834779 0.1163929
v 0.0315115 -0.0832901 0.1164572
v -0.0959285 -0.0622807 -0.0509745
v 0.0537312 -0.0619254 0.0012357
v 0.0537312 -0.0619254 0.0012357
v 0.0666204 0.1202862 -0.1366433
v 0.0712591 -0.0031154 0.1153053
v 0.1332316 0.0816277 -0.0830668
v 0.1332316 0.0816277 -0.0830668
v -0.0569948 0.0662577 0.0225484
v -0.0257107 -0.0807217 0.0799341
v 0.0662481 -0.0123029 0.1199772
v 0.0610828 -0.0003997 0.1136820
v 0.0314477 -0.0834525 0.1162804
v 0.0314477 -0.0834525 0.1162804
v 0.0313307 -0.0834779 0.1163929
v 0.0313307 -0.0834779 0.1163929
v 0.0315115 -0.0832901 0.1164572
v 0.0315115 -0.0832901 0.1164572
v -0.0090126 0.0808257 -0.0402807
v -0.0987851 -0.0311753 -0.0264151
v -0.0571863 -0.0747726 0.0345174
v -0.0890609 -0.0668745 -0.0222040
v -0.0943326 -0.0643466 -0.0385770
v -0.0517338 -0.0147190 -0.0726462
v -0.0250298 0.0112343 -0.0835597
v 0.0229631 0.0620700 -0.1064583
v -0.0881407 -0.0423779 -0.0638007
v -0.0966626 -0.0594534 -0.0534444
v -0.0959285 -0.0622807 -0.0509745
v 0.0121218 0.0955460 -0.0645615
v 0.0666204 0.1202862 -0.1366433
v -0.0054486 0.0871148 -0.0403825
v 0.0712591 -0.0031154 0.1153053
v -0.0706341 0.0445022 0.0195910
v -0.0926889 -0.0035367 0.0181230
v -0.0794379 -0.0232060 0.0314796
v -0.0907206 -0.0087142 0.0206840
v -0.0583992 0.0635268 0.0223663
v -0.0569948 0.0662577 0.0225484
v -0.0257107 -0.0807217 0.0799341
v 0.0662481 -0.0123029 0.1199772
v 0.0610828 -0.0003997 0.1136820
v -0.0504944 0.0357918 0.0902315
v -0.0288758 0.0434717 0.1115335
v -0.0116352 0.0492837 0.1315176
v -0.0046028 0.0525425 0.1310086
v 0.0226545 0.0708058 0.0739282
v 0.0313413 0.0769375 0.0527120
v -0.0714107 -0.0724073 -0.0562036
v -0.0684265 -0.0724022 -0.0483707
v -0.0372700 -0.0738590 0.0320475
v -0.0478346 -0.0769807 0.0016000
v -0.0206890 -0.0377232 0.1072635
v -0.0376317 0.0002449 0.0961625
v -0.0219178 -0.0659963 0.0792216
v -0.0308600 -0.0725443 0.0500063
v -0.0283279 -0.0726407 0.0565641
v -0.0251202 -0.0682399 0.0688438
v -0.0734215 -0.0723869 -0.0614595
v -0.0506114 0.0303250 0.0885439
v -0.0464621 0.0180209 0.0886189
v -0.0519945 0.0352182 0.0892029
v 0.0207820 -0.0754630 0.0233360
v 0.0353788 -0.0760975 0.0480722
v 0.0943671 0.0057929 -0.0432649
v 0.0898189 -0.0100136 -0.0147194
v 0.0401451 -0.0750061 0.0532049
v 0.0362353 -0.0758284 0.0488330
v 0.1021389 0.0424870 -0.1139804
v 0.0551888 -0.0556820 0.0334459
v 0.0883241 -0.0135363 -0.0091260
v 0.0808502 -0.0235055 0.0015197
v 0.0667960 -0.0406470 0.0179141
v 0.0692536 -0.0375913 0.0149245
v -0.0034910 -0.0749706 -0.0165249
v -0.0323388 -0.0744732 -0.0636829
v 0.0166222 -0.0758487 0.0175765
v 0.0076428 -0.0770061 0.0058593
v -0.0465898 -0.0741178 -0.0872458
v 0.0916595 0.0576540 -0.0763644
v 0.1030007 0.0493903 -0.1085478
v 0.1029741 0.0479487 -0.1145001
v 0.1005856 0.0457661 -0.1238921
v 0.0787064 0.0684556 -0.0339908
v 0.0556197 0.0783588 0.0029394
v 0.0420282 0.0845311 0.0261166
v -0.0178324 0.0660699 -0.0601200
v 0.0966332 0.0448828 -0.1281996
v -0.0838319 -0.0733666 -0.0896246
v -0.0647667 -0.0748792 -0.1145216
v -0.0989978 0.0271322 -0.0411486
v -0.0961040 0.0287819 -0.0443846
v -0.0588567 -0.0682247 -0.1201739
v -0.0519945 0.0352182 0.0892029
v 0.1005856 0.0457661 -0.1238921
v 0.0420282 0.0845311 0.0261166
v -0.0178324 0.0660699 -0.0601200
v -0.0178324 0.0660699 -0.0601200
v 0.0966332 0.0448828 -0.1281996
v 0.0966332 0.0448828 -0.1281996
v -0.0838319 -0.0733666 -0.0896246
v -0.0647667 -0.0748792 -0.1145216
v -0.0989978 0.0271322 -0.0411486
v -0.0989978 0.0271322 -0.0411486
v -0.0961040 0.0287819 -0.0443846
v -0.0961040 0.0287819 -0.0443846
v -0.0588567 -0.0682247 -0.1201739
v -0.0588567 -0.0682247 -0.1201739
v 0.0610296 -0.0109324 0.0521762
v 0.0765680 0.0625167 -0.0285153
v 0.0357406 -0.0654989 0.0933550
v -0.0097893 -0.0231096 0.1241829
v 0.0697696 -0.0347183 0.0193660
v 0.0232929 -0.0040443 0.1221470
v -0.0504944 0.0357918 0.0902315
v -0.0288758 0.0434717 0.1115335
v -0.0116352 0.0492837 0.1315176
v -0.0046028 0.0525425 0.1310086
v 0.0226545 0.0708058 0.0739282
v 0.0313413 0.0769375 0.0527120
v -0.0714107 -0.0724073 -0.0562036
v -0.0684265 -0.0724022 -0.0483707
v -0.0372700 -0.0738590 0.0320475
v -0.0478346 -0.0769807 0.0016000
v -0.0206890 -0.0377232 0.1072635
v -0.0376317 0.0002449 0.0961625
v -0.0219178 -0.0659963 0.0792216
v -0.0308600 -0.0725443 0.0500063
v -0.0283279 -0.0726407 0.0565641
v -0.0251202 -0.0682399 0.0688438
v -0.0734215 -0.0723869 -0.0614595
v -0.0506114 0.0303250 0.0885439
v -0.0464621 0.0180209 0.0886189
v -0.0519945 0.0352182 0.0892029
v 0.0207820 -0.0754630 0.0233360
v 0.0353788 -0.0760975 0.0480722
v 0.0943671 0.0057929 -0.0432649
v 0.0898189 -0.0100136 -0.0147194
v 0.0401451 -0.0750061 0.0532049
v 0.0362353 -0.0758284 0.0488330
v 0.1021389 0.0424870 -0.1139804
v 0.0551888 -0.0556820 0.0334459
v 0.0883241 -0.0135363 -0.0091260
v 0.0808502 -0.0235055 0.0015197
v 0.0667960 -0.0406470 0.0179141
v 0.0692536 -0.0375913 0.0149245
v -0.0034910 -0.0749706 -0.0165249
v -0.0323388 -0.0744732 -0.0636829
v 0.0166222 -0.0758487 0.0175765
v 0.0076428 -0.0770061 0.0058593
v -0.0465898 -0.0741178 -0.0872458
v 0.0916595 0.0576540 -0.0763644
v 0.1030007 0.0493903 -0.1085478
v 0.1029741 0.0479487 -0.1145001
v 0.1005856 0.0457661 -0.1238921
v 0.0787064 0.0684556 -0.0339908
v 0.0556197 0.0783588 0.0029394
v 0.0420282 0.0845311 0.0261166
v -0.0838319 -0.0733666 -0.0896246
v -0.0647667 -0.0748792 -0.1145216
v -0.0308600 -0.0725443 0.0500063
v 0.0207820 -0.0754630 0.0233360
v 0.0186489 0.0585219 0.1283619
v -0.0295354 -0.0002627 0.1635188
v 0.0296550 0.0584458 -0.1614385
v -0.1079985 -0.0349924 -0.0622149
v 0.0572208 0.0502329 0.1141320
v 0.0514864 -0.0524943 0.1423721
v 0.0248196 -0.1153651 -0.0817328
v 0.0312296 0.0540906 -0.1601473
v 0.0313839 0.0554967 -0.1597615
v 0.0283730 0.0618619 -0.1624243
v 0.0324318 0.0644405 -0.1564505
v 0.0305487 0.0959419 0.0133976
v -0.0471750 0.0425834 -0.1222794
v 0.0492043 0.0980636 -0.0104332
v 0.0186489 0.0585219 0.1283619
v 0.0186489 0.0585219 0.1283619
v -0.0295354 -0.0002627 0.1635188
v -0.0295354 -0.0002627 0.1635188
v -0.1079985 -0.0349924 -0.0622149
v -0.1079985 -0.0349924 -0.0622149
v 0.0572208 0.0502329 0.1141320
v 0.0572208 0.0502329 0.1141320
v 0.0514864 -0.0524943 0.1423721
v 0.0514864 -0.0524943 0.1423721
v 0.0248196 -0.1153651 -0.0817328
v 0.0248196 -0.1153651 -0.0817328
v 0.0312296 0.0540906 -0.1601473
v 0.0283730 0.0618619 -0.1624243
v 0.0324318 0.0644405 -0.1564505
v 0.0305487 0.0959419 0.0133976
v 0.0305487 0.0959419 0.0133976
v -0.0471750 0.0425834 -0.1222794
v -0.0471750 0.0425834 -0.1222794
v 0.0492043 0.0980636 -0.0104332
v 0.0492043 0.0980636 -0.0104332
v 0.0296550 0.0584458 -0.1614385
v 0.0312296 0.0540906 -0.1601473
v 0.0313839 0.0554967 -0.1597615
v 0.0283730 0.0618619 -0.1624243
v 0.0324318 0.0644405 -0.1564505
v 0.0034563 -0.0818536 0.1226882
v 0.0560399 -0.1150707 0.0185248
v 0.0673811 -0.1233343 -0.0136586
v 0.0673599 -0.1247759 -0.0196055
v 0.0430922 -0.1042690 0.0608931
v 0.0200054 -0.0943658 0.0978287
v 0.0064193 -0.0881935 0.1210059
v 0.0738763 -0.0862748 -0.0788129
v 0.0647320 -0.1138575 -0.0481564
v 0.0736848 -0.0403729 -0.1182130
v 0.0689238 -0.0049224 -0.1451619
v 0.0650884 -0.0015469 -0.1451727
v 0.0686897 -0.0041407 -0.1456548
v 0.0634926 -0.1273798 -0.0355767
v 0.0736901 -0.0674328 -0.0949019
v -0.0534520 -0.1066547 0.0347638
v -0.0019483 -0.0672196 0.1276600
v -0.0106617 -0.0282617 0.1229775
v -0.0339134 0.0669531 0.1110138
v -0.0241733 0.0235080 0.1162429
v -0.0625910 0.0822419 0.1024684
v -0.0018579 -0.0680013 0.1277297
v 0.0450338 0.1026320 -0.1021133
v 0.0368098 0.1269255 -0.0494958
v 0.0313254 0.1320319 -0.0316120
v -0.0225402 0.1262656 0.0574428
v -0.0288651 0.1296412 0.0741800
v 0.0096163 0.1308035 0.0059665
v 0.0467467 0.0969926 -0.1139590
v 0.0201331 0.0559586 -0.1291372
v 0.0138454 0.0452026 -0.1343716
v 0.0074087 0.0371979 -0.1350521
v -0.1267073 -0.0220335 0.0171158
v -0.0463238 0.1274585 0.1025541
v -0.0503933 0.1231084 0.1032238
v -0.1102912 0.0455833 0.0920371
v 0.0634979 -0.1276336 -0.0353570
v 0.0649714 -0.1269585 -0.0290028
v 0.0610190 -0.1278418 -0.0333104
v 0.0064193 -0.0881935 0.1210059
v -0.0534520 -0.1066547 0.0347638
v -0.0534520 -0.1066547 0.0347638
v -0.0018579 -0.0680013 0.1277297
v 0.0074087 0.0371979 -0.1350521
v -0.1267073 -0.0220335 0.0171158
v -0.1267073 -0.0220335 0.0171158
v -0.0503933 0.1231084 0.1032238
v -0.1102912 0.0455833 0.0920371
v -0.1102912 0.0455833 0.0920371
v 0.0634979 -0.1276336 -0.0353570
v 0.0610190 -0.1278418 -0.0333104
v 0.0649714 -0.1269585 -0.0290028
v 0.0610190 -0.1278418 -0.0333104
v 0.0809459 0.0291829 -0.1305302
v 0.0604498 -0.0560982 0.0164889
v 0.1037561 -0.0399567 -0.0683012
v 0.0522258 0.0675368 -0.0320353
v 0.0672535 0.0623594 -0.0943072
v -0.0078636 0.0163357 0.0959857
v 0.0682429 -0.1189994 -0.0201520
v -0.0247212 0.0800491 0.0920103
v 0.0902711 -0.0180438 -0.1088907
v 0.0792596 0.0365532 -0.0615666
v 0.0034563 -0.0818536 0.1226882
v 0.0560399 -0.1150707 0.0185248
v 0.0673811 -0.1233343 -0.0136586
v 0.0673599 -0.1247759 -0.0196055
v 0.0430922 -0.1042690 0.0608931
v 0.0200054 -0.0943658 0.0978287
v 0.0064193 -0.0881935 0.1210059
v 0.0738763 -0.0862748 -0.0788129
v 0.0647320 -0.1138575 -0.0481564
v 0.0736848 -0.0403729 -0.1182130
v 0.0689238 -0.0049224 -0.1451619
v 0.0650884 -0.0015469 -0.1451727
v 0.0686897 -0.0041407 -0.1456548
v 0.0634926 -0.1273798 -0.0355767
v 0.0736901 -0.0674328 -0.0949019
v -0.0019483 -0.0672196 0.1276600
v -0.0106617 -0.0282617 0.1229775
v -0.0339134 0.0669531 0.1110138
v -0.0241733 0.0235080 0.1162429
v -0.0625910 0.0822419 0.1024684
v -0.0018579 -0.0680013 0.1277297
v 0.0450338 0.1026320 -0.1021133
v 0.0368098 0.1269255 -0.0494958
v 0.0313254 0.1320319 -0.0316120
v -0.0225402 0.1262656 0.0574428
v -0.0288651 0.1296412 0.0741800
v 0.0096163 0.1308035 0.0059665
v 0.0467467 0.0969926 -0.1139590
v 0.0201331 0.0559586 -0.1291372
v 0.0138454 0.0452026 -0.1343716
v 0.0074087 0.0371979 -0.1350521
v -0.0463238 0.1274585 0.1025541
v -0.0503933 0.1231084 0.1032238
v 0.0634979 -0.1276336 -0.0353570
v 0.0649714 -0.1269585 -0.0290028
v 0.1379341 -0.0289926 0.0060683
v 0.0432783 0.0073817 0.0847400
v 0.0151008 0.0359644 0.0768160
v -0.0310993 0.0992514 0.0400197
v -0.0399883 0.1096723 0.0354871
v -0.0106830 0.0698362 0.0583803
v 0.1080649 -0.0300179 0.0618950
v 0.1212839 -0.0222873 0.0349621
v 0.0590188 -0.0046179 0.0834166
v 0.0849888 -0.0405150 0.1045686
v 0.1227468 -0.0208355 0.0311153
v 0.1326145 -0.0151352 0.0111098
v 0.1245820 -0.0188965 0.0261166
v -0.1252018 0.1007234 0.0125510
v 0.0483585 -0.0840667 0.0685009
v 0.0699824 -0.0763919 0.0898029
v 0.0872230 -0.0705748 0.1097869
v 0.0942554 -0.0673211 0.1092726
v 0.1215180 -0.0490528 0.0521976
v 0.1302048 -0.0429210 0.0309813
v 0.1408917 -0.0353274 0.0043860
v 0.0810257 -0.0537937 -0.0818507
v -0.1011735 0.1232962 0.0192749
v -0.0743418 0.1326055 0.0265345
v -0.0620324 0.1339405 0.0265238
v -0.1048440 0.1218902 0.0181337
v 0.0241812 0.0984443 -0.0245828
v 0.0077705 0.0308275 -0.0995041
v -0.0041559 0.0303859 -0.0985236
v 0.0468637 -0.0846454 0.0674669
v 0.0021211 -0.0816252 0.0427092
v -0.0186357 -0.0802496 0.0310028
v -0.0081030 -0.0806405 0.0397786
v -0.0578885 -0.0776964 0.0084417
v -0.1113764 -0.0457636 -0.0163909
v -0.0879066 -0.0760619 -0.0118102
v -0.0098904 -0.0723413 -0.0702835
v 0.0027595 -0.0910766 -0.0661153
v -0.0001344 -0.0927263 -0.0628846
v -0.1164246 0.1089414 0.0048360
v -0.1279254 0.0855869 0.0109759
v -0.1224516 0.0586387 -0.0004037
v -0.1238826 -0.0121506 -0.0145158
v -0.1219676 -0.0295560 -0.0202485
v -0.1235262 -0.0043184 -0.0131549
v -0.1235209 -0.0019479 -0.0126352
v -0.1259998 0.0998808 0.0121974
v -0.1166055 0.1087536 0.0047717
v -0.1164885 0.1087841 0.0046592
v -0.0427278 0.0386750 -0.0842937
v -0.0909175 -0.0201097 -0.0491369
v 0.1326145 -0.0151352 0.0111098
v 0.1408917 -0.0353274 0.0043860
v 0.0810257 -0.0537937 -0.0818507
v 0.0810257 -0.0537937 -0.0818507
v -0.0620324 0.1339405 0.0265238
v -0.1048440 0.1218902 0.0181337
v 0.0241812 0.0984443 -0.0245828
v 0.0241812 0.0984443 -0.0245828
v 0.0077705 0.0308275 -0.0995041
v 0.0077705 0.0308275 -0.0995041
v -0.0041559 0.0303859 -0.0985236
v -0.0041559 0.0303859 -0.0985236
v 0.0468637 -0.0846454 0.0674669
v -0.0879066 -0.0760619 -0.0118102
v -0.0098904 -0.0723413 -0.0702835
v -0.0098904 -0.0723413 -0.0702835
v 0.0027595 -0.0910766 -0.0661153
v 0.0027595 -0.0910766 -0.0661153
v -0.0001344 -0.0927263 -0.0628846
v -0.0001344 -0.0927263 -0.0628846
v -0.1164246 0.1089414 0.0048360
v -0.1164246 0.1089414 0.0048360
v -0.1219676 -0.0295560 -0.0202485
v -0.1259998 0.0998808 0.0121974
v -0.1166055 0.1087536 0.0047717
v -0.1166055 0.1087536 0.0047717
v -0.1164885 0.1087841 0.0046592
v -0.1164885 0.1087841 0.0046592
v -0.0427278 0.0386750 -0.0842937
v -0.0427278 0.0386750 -0.0842937
v -0.0909175 -0.0201097 -0.0491369
v -0.0909175 -0.0201097 -0.0491369
v -0.0368764 0.0965967 0.0400036
v -0.1055302 0.0546794 0.0192695
v -0.0088850 -0.0751838 0.0383160
v -0.1172013 -0.0095618 -0.0063989
v 0.0867549 -0.0521136 0.1116568
v -0.0839382 0.0633086 0.0284204
v 0.0497894 -0.0146480 0.0899583
v -0.0528669 0.0039960 0.0457095
v -0.0126831 0.0309697 0.0762749
v 0.1379341 -0.0289926 0.0060683
v 0.0432783 0.0073817 0.0847400
v 0.0151008 0.0359644 0.0768160
v -0.0310993 0.0992514 0.0400197
v -0.0399883 0.1096723 0.0354871
v -0.0106830 0.0698362 0.0583803
v 0.1080649 -0.0300179 0.0618950
v 0.1212839 -0.0222873 0.0349621
v 0.0590188 -0.0046179 0.0834166
v 0.0849888 -0.0405150 0.1045686
v 0.1227468 -0.0208355 0.0311153
v 0.1326145 -0.0151352 0.0111098
v 0.1245820 -0.0188965 0.0261166
v -0.1252018 0.1007234 0.0125510
v 0.0483585 -0.0840667 0.0685009
v 0.0699824 -0.0763919 0.0898029
v 0.0872230 -0.0705748 0.1097869
v 0.0942554 -0.0673211 0.1092726
v 0.1215180 -0.0490528 0.0521976
v 0.1302048 -0.0429210 0.0309813
v 0.1408917 -0.0353274 0.0043860
v -0.1011735 0.1232962 0.0192749
v -0.0743418 0.1326055 0.0265345
v -0.0620324 0.1339405 0.0265238
v -0.1048440 0.1218902 0.0181337
v 0.0468637 -0.0846454 0.0674669
v 0.0021211 -0.0816252 0.0427092
v -0.0186357 -0.0802496 0.0310028
v -0.0081030 -0.0806405 0.0397786
v -0.0578885 -0.0776964 0.0084417
v -0.1113764 -0.0457636 -0.0163909
v -0.0879066 -0.0760619 -0.0118102
v -0.1279254 0.0855869 0.0109759
v -0.1224516 0.0586387 -0.0004037
v -0.1238826 -0.0121506 -0.0145158
v -0.1219676 -0.0295560 -0.0202485
v -0.1235262 -0.0043184 -0.0131549
v -0.1235209 -0.0019479 -0.0126352
v -0.1259998 0.0998808 0.0121974
v 0.0204256 0.0577199 0.0046271
v 0.0096961 0.0645065 -0.0032754
v -0.0279449 0.0532785 -0.0490190
v -0.0240244 0.0595980 -0.0416094
v 0.0815470 -0.0090543 0.0352139
v 0.0426453 0.0343350 0.0161996
v 0.0322935 0.0458016 0.0111045
v -0.0061986 0.0762066 -0.0141461
v 0.0028765 -0.0975231 0.0059344
v 0.0390653 -0.1103500 0.0450077
v -0.0421108 0.0277261 -0.0544838
v -0.0641602 -0.0203076 -0.0559518
v -0.0509093 -0.0399820 -0.0425898
v -0.0621920 -0.0254902 -0.0533855
v -0.0298705 0.0467559 -0.0517032
v -0.0284662 0.0494867 -0.0515264
v 0.0896061 -0.0171707 0.0396018
v 0.0028180 -0.0974926 0.0058540
v 0.0742380 -0.0820516 0.0562587
v 0.0947714 -0.0290789 0.0458970
v 0.0920691 -0.0396521 0.0513350
v 0.0852228 -0.0601590 0.0580053
v 0.0512630 -0.1082790 0.0500921
v 0.0716155 -0.0871174 0.0556747
v 0.0504597 -0.1091267 0.0497385
v 0.0598593 -0.1002489 0.0423128
v 0.0600402 -0.1000611 0.0423771
v -0.0284662 0.0494867 -0.0515264
v 0.0896061 -0.0171707 0.0396018
v 0.0028180 -0.0974926 0.0058540
v 0.0947714 -0.0290789 0.0458970
v 0.0716155 -0.0871174 0.0556747
v 0.0504597 -0.1091267 0.0497385
v 0.0598593 -0.1002489 0.0423128
v 0.0598593 -0.1002489 0.0423128
v 0.0600402 -0.1000611 0.0423771
v 0.0600402 -0.1000611 0.0423771
v -0.0625484 -0.0130033 -0.0441811
v -0.0265033 -0.0075162 0.0128832
v -0.0167047 0.0593442 -0.0023754
v 0.0087386 0.0420302 0.0139440
v -0.0358071 0.0446798 -0.0441757
v 0.0613541 -0.0372207 0.0494224
v 0.0113346 -0.0720722 0.0347371
v 0.0204256 0.0577199 0.0046271
v 0.0096961 0.0645065 -0.0032754
v -0.0279449 0.0532785 -0.0490190
v -0.0240244 0.0595980 -0.0416094
v 0.0815470 -0.0090543 0.0352139
v 0.0426453 0.0343350 0.0161996
v 0.0322935 0.0458016 0.0111045
v -0.0061986 0.0762066 -0.0141461
v 0.0028765 -0.0975231 0.0059344
v 0.0390653 -0.1103500 0.0450077
v -0.0421108 0.0277261 -0.0544838
v -0.0641602 -0.0203076 -0.0559518
v -0.0509093 -0.0399820 -0.0425898
v -0.0621920 -0.0254902 -0.0533855
v -0.0298705 0.0467559 -0.0517032
v -0.0284662 0.0494867 -0.0515264
v 0.0896061 -0.0171707 0.0396018
v 0.0028180 -0.0974926 0.0058540
v 0.0742380 -0.0820516 0.0562587
v 0.0947714 -0.0290789 0.0458970
v 0.0920691 -0.0396521 0.0513350
v 0.0852228 -0.0601590 0.0580053
v 0.0512630 -0.1082790 0.0500921
v 0.0716155 -0.0871174 0.0556747
v 0.0504597 -0.1091267 0.0497385
v 0.1424663 -0.0688186 -0.0312370
v 0.1355828 -0.0680267 -0.0532837
v 0.1245076 -0.0683313 -0.0920677
v -0.0184389 -0.0603316 0.1185735
v -0.0159334 -0.0715596 0.1127497
v 0.0156487 0.0097674 0.1298406
v -0.0030495 -0.0358198 0.1207648
v -0.0138747 -0.0714682 0.1117478
v 0.0217821 0.0243506 0.1326694
v 0.1151292 -0.0647020 0.0493795
v -0.0086935 -0.0711383 0.1092673
v -0.0152365 -0.0682856 -0.1100426
v -0.0507018 -0.0650623 -0.1023222
v -0.1429052 -0.0231248 -0.0868654
v -0.1405646 -0.0285662 -0.0866565
v -0.1241060 -0.0497939 -0.0875244
v -0.1148022 -0.0606463 -0.0881727
v -0.1569807 0.0249496 -0.0902407
v 0.0004561 -0.0678846 -0.1137072
v -0.1398093 0.0427966 -0.0966485
v -0.1563956 0.0297311 -0.0910337
v -0.1203132 -0.0561134 -0.0875298
v -0.1178875 -0.0590981 -0.0876798
v 0.1112353 -0.0689353 -0.1390649
v 0.0735465 -0.0071406 -0.1388881
v 0.1251353 -0.0651588 0.0441451
v -0.0489676 0.0843281 0.0902101
v -0.0644102 0.0785770 0.0755784
v -0.1192865 0.0577555 0.0131779
v -0.1054717 0.0631106 0.0320207
v -0.1310427 0.0517252 -0.0434042
v -0.1317608 0.0500857 -0.0817864
v -0.1350908 0.0483548 -0.0984969
v -0.1285797 0.0530348 -0.0303208
v -0.1311757 0.0518166 -0.0396913
v -0.0592769 0.0732270 -0.1193702
v 0.0221970 0.0520044 0.1436901
v -0.0012674 0.0823028 0.1391093
v 0.1002133 0.0557302 0.0852168
v 0.1128631 0.0369897 0.0893850
v 0.1099693 0.0353401 0.0926210
v 0.0191809 0.1079617 0.1063634
v -0.0118586 0.0985103 0.1352518
v 0.1442005 -0.0666714 0.0192481
v 0.1516638 -0.0675394 0.0031216
v 0.1501052 -0.0600168 0.0135904
v 0.1112353 -0.0689353 -0.1390649
v 0.0735465 -0.0071406 -0.1388881
v 0.0735465 -0.0071406 -0.1388881
v 0.1251353 -0.0651588 0.0441451
v -0.1350908 0.0483548 -0.0984969
v -0.0592769 0.0732270 -0.1193702
v -0.0592769 0.0732270 -0.1193702
v 0.0221970 0.0520044 0.1436901
v 0.1002133 0.0557302 0.0852168
v 0.1002133 0.0557302 0.0852168
v 0.1128631 0.0369897 0.0893850
v 0.1128631 0.0369897 0.0893850
v 0.1099693 0.0353401 0.0926210
v 0.1099693 0.0353401 0.0926210
v 0.0191809 0.1079617 0.1063634
v 0.0191809 0.1079617 0.1063634
v -0.0118586 0.0985103 0.1352518
v 0.1442005 -0.0666714 0.0192481
v 0.1516638 -0.0675394 0.0031216
v 0.1501052 -0.0600168 0.0135904
v 0.1501052 -0.0600168 0.0135904
v -0.1351653 -0.0293225 -0.0699245
v -0.0723629 0.0334163 0.0568427
v 0.0085471 0.0212898 0.1222649
v -0.0383073 -0.0517786 0.0936390
v -0.0910611 -0.0307083 0.0490259
v -0.1102859 0.0133662 0.0025590
v -0.0375253 -0.0701180 0.0030037
v -0.0169441 -0.0715900 0.1110674
v 0.0844249 -0.0670420 -0.0209182
v -0.0786719 -0.0623112 0.0446701
v -0.1486184 0.0288581 -0.0640311
v -0.1296064 0.0475020 -0.0405218
v -0.1160629 -0.0601082 -0.0603290
v 0.1424663 -0.0688186 -0.0312370
v 0.1355828 -0.0680267 -0.0532837
v 0.1245076 -0.0683313 -0.0920677
v -0.0184389 -0.0603316 0.1185735
v -0.0159334 -0.0715596 0.1127497
v 0.0156487 0.0097674 0.1298406
v -0.0030495 -0.0358198 0.1207648
v -0.0138747 -0.0714682 0.1117478
v 0.0217821 0.0243506 0.1326694
v 0.1151292 -0.0647020 0.0493795
v -0.0086935 -0.0711383 0.1092673
v -0.0152365 -0.0682856 -0.1100426
v -0.0507018 -0.0650623 -0.1023222
v -0.1429052 -0.0231248 -0.0868654
v -0.1405646 -0.0285662 -0.0866565
v -0.1241060 -0.0497939 -0.0875244
v -0.1148022 -0.0606463 -0.0881727
v -0.1569807 0.0249496 -0.0902407
v 0.0004561 -0.0678846 -0.1137072
v -0.1398093 0.0427966 -0.0966485
v -0.1563956 0.0297311 -0.0910337
v -0.1203132 -0.0561134 -0.0875298
v -0.1178875 -0.0590981 -0.0876798
v 0.1112353 -0.0689353 -0.1390649
v 0.1251353 -0.0651588 0.0441451
v -0.0489676 0.0843281 0.0902101
v -0.0644102 0.0785770 0.0755784
v -0.1192865 0.0577555 0.0131779
v -0.1054717 0.0631106 0.0320207
v -0.1310427 0.0517252 -0.0434042
v -0.1317608 0.0500857 -0.0817864
v -0.1350908 0.0483548 -0.0984969
v -0.1285797 0.0530348 -0.0303208
v -0.1311757 0.0518166 -0.0396913
v 0.0221970 0.0520044 0.1436901
v -0.0012674 0.0823028 0.1391093
v -0.0118586 0.0985103 0.1352518
v 0.1442005 -0.0666714 0.0192481
v 0.1516638 -0.0675394 0.0031216
v -0.0169441 -0.0715900 0.1110674
v -0.0786719 -0.0623112 0.0446701
v -0.1160629 -0.0601082 -0.0603290
v -0.0159334 -0.0715596 0.1127497
v -0.1203132 -0.0561134 -0.0875298
v 0.0060789 -0.0962642 0.0839095
v -0.0293865 -0.0930359 0.0916299
v -0.1215899 -0.0511035 0.1070867
v -0.1192493 -0.0565398 0.1072956
v -0.1027907 -0.0777675 0.1064277
v -0.0934868 -0.0886249 0.1057794
v -0.1356654 -0.0030189 0.1037114
v 0.0217715 -0.0958582 0.0802449
v -0.1184939 0.0148230 0.0973036
v -0.1350802 0.0017575 0.1029184
v -0.0989978 -0.0840921 0.1064223
v -0.0965721 -0.0870768 0.1062723
v -0.0019643 0.1662896 -0.0495601
v -0.0019855 0.1662794 -0.0495387
v 0.0202873 0.1712995 -0.0603504
v 0.0215321 0.1716447 -0.0610469
v -0.0019536 0.1662896 -0.0495601
v -0.0016877 0.1663606 -0.0496994
v 0.0854729 0.1524677 -0.0399485
v 0.0970162 0.1432701 -0.0272348
v 0.0689344 0.1635587 -0.0549178
v 0.0243142 0.1713452 -0.0609612
v -0.0189123 0.1497369 -0.0215664
v 0.0996973 0.1386916 -0.0246310
v 0.0984100 0.1421077 -0.0256222
v 0.1824373 -0.0754884 0.0097008
v 0.1753144 -0.0594737 0.0078470
v 0.1663829 -0.0974672 0.0308153
v 0.1819053 -0.0973556 0.0196071
v 0.1195391 0.0732321 -0.0098600
v 0.1012665 0.1343415 -0.0233452
v 0.1257204 0.0507557 -0.0045184
v 0.1835756 -0.0808841 0.0112384
v 0.1425940 0.0117216 0.0003570
v 0.1287047 0.0437864 -0.0036290
v 0.1325507 -0.0969089 0.0548925
v 0.0948618 -0.0351142 0.0550640
v -0.1153235 0.0346700 0.0847507
v -0.1092752 0.0424921 0.0787019
v -0.0400096 0.1174690 0.0203518
v -0.0331527 0.1289914 0.0114956
v -0.0325941 0.1302350 0.0105473
v -0.0672562 0.0878153 0.0434272
v -0.1114349 0.0232999 0.0931890
v -0.1137755 0.0203761 0.0954552
v -0.0558086 0.0982819 0.0352300
v -0.0379615 0.0452534 0.0745819
v 0.0228620 0.1228343 0.0145173
v 0.0984100 0.1421077 -0.0256222
v 0.1325507 -0.0969089 0.0548925
v 0.0948618 -0.0351142 0.0550640
v -0.0325941 0.1302350 0.0105473
v -0.1137755 0.0203761 0.0954552
v -0.0379615 0.0452534 0.0745819
v -0.0379615 0.0452534 0.0745819
v 0.0228620 0.1228343 0.0145173
v 0.0228620 0.1228343 0.0145173
v 0.1012665 0.1343415 -0.0233452
v 0.0948618 -0.0351142 0.0550640
v 0.1011495 -0.0997768 -0.0483654
v 0.0080258 0.0553901 -0.0828204
v -0.1060781 -0.0714124 -0.0183947
v -0.0541701 0.0745366 0.0201482
v -0.0264926 0.1050837 -0.0309852
v -0.0552660 -0.0921629 -0.0501066
v 0.0680780 -0.0835591 -0.0892121
v 0.0201011 0.1693605 -0.0615345
v 0.1449133 -0.0601742 -0.0189733
v 0.0094727 -0.0959851 0.0666579
v 0.0602689 -0.0208203 -0.0955984
v -0.0589737 0.0691104 -0.0375215
v -0.0412224 -0.0568342 -0.0535891
v 0.0706952 0.0627198 -0.0546606
v -0.1123977 0.0244572 0.0747372
v -0.1563903 0.0041382 0.0288919
v -0.0997532 -0.0833815 0.1015951
v -0.1647100 -0.0165920 0.0126957
v -0.0883588 -0.0908127 -0.0075187
v -0.1307448 0.0258328 -0.0066454
v -0.1539592 -0.0516821 -0.0003019
v -0.1013969 -0.0844068 0.0340352
v 0.1303697 -0.0449616 -0.0283546
v 0.0276655 0.0997235 -0.0690673
v 0.0141539 -0.0953150 -0.0650812
v -0.0965402 0.0523699 0.0095668
v -0.0321792 -0.0129374 -0.0647866
v 0.1408013 -0.0954064 -0.0171035
v 0.1235767 0.0072954 -0.0191984
v 0.0060789 -0.0962642 0.0839095
v -0.0293865 -0.0930359 0.0916299
v -0.1215899 -0.0511035 0.1070867
v -0.1192493 -0.0565398 0.1072956
v -0.1027907 -0.0777675 0.1064277
v -0.0934868 -0.0886249 0.1057794
v -0.1356654 -0.0030189 0.1037114
v 0.0217715 -0.0958582 0.0802449
v -0.1184939 0.0148230 0.0973036
v -0.1350802 0.0017575 0.1029184
v -0.0989978 -0.0840921 0.1064223
v -0.0965721 -0.0870768 0.1062723
v -0.0019643 0.1662896 -0.0495601
v -0.0019855 0.1662794 -0.0495387
v 0.0202873 0.1712995 -0.0603504
v 0.0215321 0.1716447 -0.0610469
v -0.0019536 0.1662896 -0.0495601
v -0.0016877 0.1663606 -0.0496994
v 0.0854729 0.1524677 -0.0399485
v 0.0970162 0.1432701 -0.0272348
v 0.0689344 0.1635587 -0.0549178
v 0.0243142 0.1713452 -0.0609612
v -0.0189123 0.1497369 -0.0215664
v 0.0996973 0.1386916 -0.0246310
v 0.0984100 0.1421077 -0.0256222
v 0.1824373 -0.0754884 0.0097008
v 0.1753144 -0.0594737 0.0078470
v 0.1663829 -0.0974672 0.0308153
v 0.1819053 -0.0973556 0.0196071
v 0.1195391 0.0732321 -0.0098600
v 0.1012665 0.1343415 -0.0233452
v 0.1257204 0.0507557 -0.0045184
v 0.1835756 -0.0808841 0.0112384
v 0.1425940 0.0117216 0.0003570
v 0.1287047 0.0437864 -0.0036290
v 0.1325507 -0.0969089 0.0548925
v -0.1153235 0.0346700 0.0847507
v -0.1092752 0.0424921 0.0787019
v -0.0400096 0.1174690 0.0203518
v -0.0331527 0.1289914 0.0114956
v -0.0325941 0.1302350 0.0105473
v -0.0672562 0.0878153 0.0434272
v -0.1114349 0.0232999 0.0931890
v -0.1137755 0.0203761 0.0954552
v -0.0558086 0.0982819 0.0352300
v 0.1011495 -0.0997768 -0.0483654
v -0.0552660 -0.0921629 -0.0501066
v 0.1449133 -0.0601742 -0.0189733
v -0.0997532 -0.0833815 0.1015951
v -0.0883588 -0.0908127 -0.0075187
v -0.1013969 -0.0844068 0.0340352
v 0.1303697 -0.0449616 -0.0283546
v 0.0141539 -0.0953150 -0.0650812
v 0.1408013 -0.0954064 -0.0171035
v 0.1408013 -0.0954064 -0.0171035
v 0.1235767 0.0072954 -0.0191984
v -0.0989978 -0.0840921 0.1064223
v 0.1819053 -0.0973556 0.0196071
v 0.1287047 0.0437864 -0.0036290
v -0.0113479 -0.0764782 0.0698189
v -0.0395255 -0.0478904 0.0618896
v -0.0857309 0.0153966 0.0250933
v -0.0946199 0.0258176 0.0205607
v -0.0653146 -0.0140135 0.0434539
v 0.0534386 -0.1138778 0.0469686
v 0.0666577 -0.1061471 0.0200357
v 0.0043979 -0.0884777 0.0684902
v 0.0699505 -0.1027513 0.0111956
v 0.0681152 -0.1046954 0.0161942
v 0.0303625 -0.1243749 0.0896422
v 0.0556728 -0.0074807 -0.0153033
v 0.0691791 -0.0592555 -0.0085634
v 0.0459275 0.0359593 -0.0205271
v 0.0172552 0.0512481 -0.0290725
v 0.0778925 -0.0982134 -0.0038862
v 0.0779883 -0.0989951 -0.0038166
v -0.0234126 0.0615777 -0.0208753
v -0.0240935 0.0609381 -0.0208967
v -0.0416799 0.0605676 -0.0139479
v -0.0935453 0.0643187 0.0087525
v -0.1022959 0.0580448 0.0094275
v -0.1166587 0.0500806 0.0116027
v 0.0120687 0.0855971 -0.0242667
v 0.0294529 0.0921197 -0.0283171
v -0.0304397 0.0145946 -0.0395038
v 0.0779883 -0.0989951 -0.0038166
v -0.1166587 0.0500806 0.0116027
v 0.0294529 0.0921197 -0.0283171
v -0.0304397 0.0145946 -0.0395038
v -0.0304397 0.0145946 -0.0395038
v -0.0632665 0.0257262 0.0251522
v -0.0205986 0.0534409 -0.0186144
v 0.0249206 0.0060416 0.0228859
v -0.0207901 -0.0445200 0.0622539
v 0.0666045 -0.1002235 0.0162210
v 0.0219896 -0.0693617 0.0560176
v -0.0113479 -0.0764782 0.0698189
v -0.0395255 -0.0478904 0.0618896
v -0.0857309 0.0153966 0.0250933
v -0.0946199 0.0258176 0.0205607
v -0.0653146 -0.0140135 0.0434539
v 0.0534386 -0.1138778 0.0469686
v 0.0666577 -0.1061471 0.0200357
v 0.0043979 -0.0884777 0.0684902
v 0.0699505 -0.1027513 0.0111956
v 0.0681152 -0.1046954 0.0161942
v 0.0303625 -0.1243749 0.0896422
v 0.0556728 -0.0074807 -0.0153033
v 0.0691791 -0.0592555 -0.0085634
v 0.0459275 0.0359593 -0.0205271
v 0.0172552 0.0512481 -0.0290725
v 0.0778925 -0.0982134 -0.0038862
v 0.0779883 -0.0989951 -0.0038166
v -0.0234126 0.0615777 -0.0208753
v -0.0240935 0.0609381 -0.0208967
v -0.0416799 0.0605676 -0.0139479
v -0.0935453 0.0643187 0.0087525
v -0.1022959 0.0580448 0.0094275
v -0.1166587 0.0500806 0.0116027
v 0.0120687 0.0855971 -0.0242667
v 0.0294529 0.0921197 -0.0283171
f 15 50 49
f 18 36 39
f 27 44 48
f 51 55 59
f 75 38 52
f 64 37 62
f 46 9 54
f 68 42 67
f 70 72 74
f 141 134 135
f 80 85 87
f 92 113 114
f 95 115 116
f 86 123 124
f 142 96 88
f 89 108 109
f 88 86 82
f 87 94 90
f 87 85 94
f 87 90 84
f 90 82 84
f 144 117 118
f 91 119 117
f 80 101 102
f 92 90 94
f 86 88 137
f 113 92 120
f 89 94 85
f 85 79 89
f 142 88 82
f 78 110 107
f 79 85 83
f 81 84 82
f 81 80 87
f 93 82 86
f 81 87 84
f 78 94 89
f 143 94 78
f 90 142 82
f 104 85 99
f 141 138 134
f 92 94 143
f 93 81 82
f 88 139 137
f 125 81 126
f 115 129 130
f 140 131 129
f 79 111 108
f 97 98 83
f 80 99 85
f 102 100 80
f 83 98 103
f 103 112 111
f 104 97 83
f 131 106 132
f 109 110 89
f 92 146 120
f 114 121 90
f 122 119 91
f 142 121 147
f 124 127 86
f 93 127 128
f 93 128 126
f 133 132 106
f 135 148 141
f 163 190 200
f 167 191 192
f 217 186 185
f 212 154 211
f 223 230 205
f 234 151 221
f 232 226 236
f 229 231 235
f 220 218 225
f 208 237 239
f 247 276 277
f 256 279 255
f 248 253 302
f 282 255 283
f 247 294 293
f 245 248 260
f 243 257 251
f 242 254 244
f 251 257 286
f 258 268 269
f 241 248 245
f 251 258 243
f 302 253 304
f 255 243 256
f 255 257 243
f 284 247 277
f 249 272 267
f 243 242 256
f 244 288 281
f 244 245 252
f 244 254 245
f 252 289 290
f 291 289 252
f 256 242 244
f 254 249 241
f 250 241 249
f 250 253 248
f 248 241 250
f 295 296 246
f 245 254 241
f 278 297 258
f 304 253 305
f 254 242 249
f 252 259 263
f 262 260 248
f 310 265 308
f 267 266 250
f 270 253 271
f 243 273 242
f 242 273 274
f 249 274 272
f 275 250 266
f 270 307 305
f 253 275 271
f 279 280 255
f 246 300 311
f 285 287 258
f 255 280 283
f 257 282 286
f 244 290 288
f 247 292 278
f 258 298 268
f 299 246 296
f 299 294 246
f 301 303 261
f 303 306 261
f 310 312 264
f 1064 1065 1074
f 1090 1100 1091
f 1080 1104 1099
f 1107 1079 1093
f 1088 1102 1086
f 1108 1110 1111
f 1113 1117 1138
f 1114 1118 1130
f 1116 1143 1144
f 1115 1119 1117
f 1113 1115 1117
f 1121 1115 1114
f 1121 1114 1120
f 1118 1123 1124
f 1120 1131 1132
f 1112 1120 1132
f 1130 1118 1135
f 1118 1125 1156
f 1113 1126 1123
f 1125 1118 1124
f 1119 1146 1147
f 1117 1139 1140
f 1146 1119 1148
f 1115 1148 1119
f 1113 1114 1115
f 1136 1114 1129
f 1116 1149 1143
f 1112 1116 1120
f 1149 1112 1150
f 1113 1118 1114
f 1116 1115 1121
f 1121 1120 1116
f 1127 1122 1128
f 1112 1133 1151
f 1136 1131 1120
f 1133 1152 1151
f 1154 1119 1153
f 1140 1138 1117
f 1137 1142 1122
f 1141 1139 1119
f 1144 1145 1115
f 1147 1153 1119
f 1193 1184 1178
f 1157 1177 1211
f 1163 1164 1165
f 1170 1196 1204
f 1214 1216 1219
f 1225 1186 1195
f 1227 1190 1192
f 1223 1207 1237
f 1191 1239 1221
f 1233 1228 1235
f 1198 1234 1236
f 1246 1242 1275
f 1245 1240 1271
f 1241 1281 1282
f 1243 1283 1284
f 1248 1250 1251
f 1248 1240 1245
f 1244 1264 1265
f 1241 1247 1245
f 1245 1247 1248
f 1243 1247 1241
f 1255 1266 1267
f 1242 1246 1248
f 1243 1285 1283
f 1254 1252 1240
f 1246 1244 1258
f 1266 1244 1265
f 1248 1247 1242
f 1278 1276 1242
f 1242 1247 1243
f 1278 1243 1279
f 1252 1253 1240
f 1254 1248 1251
f 1257 1250 1246
f 1258 1244 1255
f 1271 1253 1272
f 1260 1261 1249
f 1273 1245 1270
f 1281 1262 1287
f 1246 1263 1264
f 1268 1259 1256
f 1268 1249 1261
f 1276 1277 1242
f 1277 1275 1242
f 1286 1285 1243
f 1241 1286 1243
f 1288 1294 1303
f 1314 1316 1307
f 1322 1312 1297
f 1308 1324 1318
f 1321 1310 1320
f 1327 1325 1326
f 1328 1326 1330
f 1328 1332 1333
f 1331 1354 1355
f 1329 1325 1327
f 1330 1326 1331
f 1331 1326 1325
f 1328 1327 1326
f 1325 1342 1343
f 1342 1329 1346
f 1347 1346 1329
f 1327 1339 1335
f 1332 1328 1338
f 1341 1354 1331
f 1334 1329 1335
f 1351 1330 1352
f 1330 1336 1337
f 1328 1337 1338
f 1327 1333 1339
f 1341 1331 1340
f 1344 1325 1345
f 1331 1349 1340
f 1343 1345 1325
f 1350 1353 1330
f 1353 1352 1330
f 1397 1366 1382
f 1395 1392 1398
f 1376 1370 1374
f 1388 1408 1407
f 1404 1359 1403
f 1411 1416 1414
f 1406 1400 1423
f 1420 1421 1422
f 1430 1478 1449
f 1427 1425 1428
f 1424 1428 1429
f 1428 1424 1477
f 1430 1433 1478
f 1425 1429 1428
f 1477 1424 1436
f 1476 1430 1432
f 1440 1431 1441
f 1427 1428 1477
f 1476 1433 1430
f 1431 1427 1477
f 1476 1444 1479
f 1450 1434 1454
f 1435 1434 1429
f 1429 1434 1424
f 1435 1466 1467
f 1434 1435 1467
f 1434 1457 1454
f 1457 1434 1456
f 1444 1476 1447
f 1447 1432 1446
f 1469 1429 1464
f 1426 1425 1427
f 1438 1432 1439
f 1426 1471 1472
f 1437 1432 1438
f 1443 1442 1426
f 1445 1426 1442
f 1432 1437 1475
f 1427 1440 1443
f 1450 1451 1424
f 1452 1424 1451
f 1453 1449 1478
f 1430 1448 1455
f 1436 1452 1458
f 1478 1480 1459
f 1478 1459 1453
f 1455 1439 1432
f 1425 1462 1463
f 1465 1464 1429
f 1425 1463 1465
f 1469 1470 1435
f 1435 1470 1466
f 1472 1473 1462
f 1528 1503 1522
f 1504 1529 1537
f 1510 1538 1539
f 1489 1490 1487
f 1534 1524 1533
f 1542 1558 1561
f 1543 1565 1554
f 1565 1543 1551
f 1620 1553 1568
f 1618 1540 1549
f 1563 1585 1586
f 1616 1562 1624
f 1540 1623 1549
f 1546 1566 1550
f 1551 1543 1544
f 1551 1544 1541
f 1541 1550 1566
f 1541 1566 1551
f 1620 1614 1546
f 1553 1550 1563
f 1583 1547 1586
f 1554 1605 1606
f 1571 1560 1572
f 1542 1552 1545
f 1542 1560 1559
f 1559 1560 1557
f 1542 1561 1560
f 1556 1573 1572
f 1620 1546 1550
f 1566 1546 1552
f 1618 1549 1570
f 1597 1622 1601
f 1624 1602 1595
f 1552 1564 1545
f 1564 1546 1614
f 1618 1621 1540
f 1567 1620 1548
f 1559 1557 1555
f 1569 1549 1576
f 1565 1559 1554
f 1565 1551 1559
f 1560 1561 1556
f 1620 1567 1614
f 1547 1553 1563
f 1553 1620 1550
f 1558 1542 1545
f 1573 1556 1579
f 1544 1607 1608
f 1582 1544 1591
f 1609 1544 1608
f 1566 1542 1559
f 1566 1559 1551
f 1566 1552 1542
f 1580 1625 1617
f 1574 1580 1619
f 1546 1564 1552
f 1559 1555 1554
f 1550 1541 1563
f 1615 1621 1618
f 1569 1570 1549
f 1571 1575 1557
f 1554 1612 1611
f 1575 1578 1555
f 1554 1578 1577
f 1544 1581 1541
f 1583 1584 1547
f 1547 1584 1590
f 1563 1581 1585
f 1588 1593 1592
f 1547 1590 1589
f 1595 1594 1616
f 1623 1596 1549
f 1599 1587 1588
f 1598 1600 1553
f 1622 1594 1601
f 1568 1600 1603
f 1549 1604 1576
f 1627 1602 1624
f 1543 1606 1610
f 1611 1605 1554
f 1613 1607 1543
f 1610 1613 1543
f 1653 1631 1650
f 1658 1642 1641
f 1649 1657 1655
f 1660 1682 1683
f 1662 1664 1661
f 1664 1663 1661
f 1661 1663 1677
f 1668 1685 1686
f 1662 1669 1666
f 1664 1662 1665
f 1661 1659 1662
f 1664 1675 1670
f 1674 1663 1671
f 1688 1679 1689
f 1659 1660 1684
f 1659 1661 1660
f 1679 1661 1678
f 1665 1662 1666
f 1670 1671 1663
f 1673 1663 1674
f 1659 1667 1669
f 1672 1675 1664
f 1678 1661 1676
f 1673 1680 1663
f 1680 1677 1663
f 1684 1660 1683
f 1668 1686 1687
f 1660 1688 1682
f 313 330 348
f 318 317 352
f 331 356 353
f 334 340 354
f 395 369 396
f 410 387 388
f 363 364 360
f 387 358 389
f 361 377 378
f 400 379 380
f 365 362 368
f 365 368 361
f 360 404 402
f 358 410 366
f 369 365 363
f 399 396 369
f 362 410 372
f 372 359 367
f 372 367 362
f 362 369 366
f 403 398 363
f 382 381 370
f 371 359 372
f 371 385 359
f 362 366 410
f 368 367 359
f 376 361 383
f 364 365 361
f 362 367 368
f 363 365 364
f 362 365 369
f 390 359 391
f 368 373 374
f 374 384 377
f 361 375 364
f 381 379 370
f 383 361 378
f 364 375 382
f 385 386 359
f 386 392 359
f 392 391 359
f 394 393 360
f 366 395 397
f 398 399 363
f 402 403 360
f 400 394 370
f 405 366 397
f 405 406 366
f 407 404 360
f 393 407 360
f 406 408 358
f 358 408 409
f 421 448 445
f 467 429 437
f 414 436 417
f 464 434 435
f 442 471 447
f 474 462 477
f 456 473 472
f 491 493 492
f 489 502 503
f 497 491 492
f 481 535 536
f 530 501 531
f 491 497 538
f 514 495 515
f 486 522 523
f 550 500 480
f 487 522 486
f 486 482 487
f 486 498 494
f 495 493 520
f 488 551 485
f 540 538 497
f 509 480 513
f 483 532 533
f 482 494 489
f 480 500 496
f 485 497 492
f 494 498 493
f 485 551 499
f 499 490 485
f 551 488 495
f 549 551 495
f 493 495 492
f 483 480 510
f 491 494 493
f 491 489 494
f 492 488 485
f 481 489 491
f 548 550 480
f 501 485 490
f 552 548 483
f 540 484 541
f 488 492 495
f 482 486 494
f 482 505 487
f 493 498 519
f 533 554 552
f 548 480 483
f 484 497 485
f 504 487 505
f 482 503 506
f 524 507 525
f 525 507 526
f 504 508 487
f 509 510 480
f 511 483 512
f 516 496 517
f 480 516 518
f 549 514 553
f 518 521 513
f 498 527 519
f 498 523 528
f 530 529 484
f 484 529 534
f 491 537 539
f 489 536 542
f 502 542 543
f 539 544 481
f 544 535 481
f 545 546 484
f 546 541 484
f 583 566 581
f 572 579 587
f 585 584 586
f 590 588 589
f 592 618 619
f 605 600 606
f 593 594 631
f 600 609 610
f 631 596 593
f 598 597 629
f 630 598 592
f 596 628 599
f 609 600 613
f 614 594 608
f 613 595 616
f 596 599 593
f 597 598 630
f 599 628 622
f 595 631 617
f 602 601 598
f 603 604 629
f 607 608 594
f 598 601 611
f 593 612 607
f 614 615 594
f 611 624 625
f 600 610 606
f 632 603 629
f 604 602 629
f 631 615 617
f 620 599 621
f 622 628 633
f 599 623 593
f 627 612 593
f 650 652 653
f 656 662 655
f 687 673 672
f 636 640 639
f 697 693 694
f 644 685 645
f 676 690 696
f 699 675 677
f 709 748 749
f 712 703 705
f 713 704 702
f 708 707 702
f 706 716 717
f 711 715 710
f 712 719 720
f 713 728 729
f 705 702 707
f 736 706 737
f 709 725 722
f 729 726 704
f 709 707 708
f 732 705 733
f 705 713 702
f 703 733 705
f 746 707 747
f 714 740 739
f 705 707 712
f 716 712 720
f 706 711 741
f 741 710 738
f 706 703 712
f 702 704 708
f 714 710 715
f 711 717 718
f 722 721 750
f 723 704 727
f 704 724 708
f 708 724 725
f 726 727 704
f 731 730 703
f 732 728 713
f 736 735 703
f 738 710 739
f 743 731 742
f 746 745 719
f 709 744 747
f 751 750 721
f 780 752 779
f 760 757 756
f 784 767 768
f 793 790 794
f 799 788 800
f 788 797 786
f 794 787 793
f 789 811 812
f 791 795 814
f 786 815 816
f 815 786 817
f 793 797 788
f 793 788 790
f 788 792 798
f 811 789 821
f 794 804 805
f 826 795 791
f 794 807 804
f 821 808 822
f 786 797 828
f 819 820 786
f 792 788 786
f 793 787 827
f 796 791 813
f 797 827 828
f 793 827 797
f 805 802 787
f 814 789 812
f 790 799 801
f 807 801 810
f 802 803 787
f 826 806 795
f 795 806 809
f 809 808 789
f 830 819 828
f 820 817 786
f 823 792 824
f 823 825 798
f 816 824 792
f 855 852 840
f 837 858 838
f 844 859 864
f 854 862 863
f 849 846 847
f 871 869 873
f 882 886 887
f 881 875 882
f 878 892 893
f 877 896 892
f 876 879 878
f 875 880 876
f 876 880 883
f 883 884 876
f 879 884 885
f 888 886 875
f 890 876 891
f 875 890 894
f 875 894 895
f 898 897 889
f 947 906 908
f 950 948 960
f 949 935 946
f 936 956 954
f 953 964 962
f 961 957 959
f 965 967 969
f 967 970 968
f 965 970 967
f 965 969 1000
f 965 1013 1014
f 972 988 989
f 1000 969 1002
f 971 990 988
f 982 972 989
f 974 970 975
f 965 976 975
f 970 974 973
f 978 977 1004
f 979 980 1006
f 981 968 982
f 967 981 983
f 1004 977 987
f 1007 1015 1016
f 992 996 986
f 984 979 1005
f 980 978 1003
f 1018 992 985
f 996 995 967
f 967 995 998
f 966 999 994
f 998 1001 969
f 1001 1002 969
f 993 1008 966
f 1010 997 1011
f 1012 966 1008
f 997 1010 1009
f 1012 1013 966
f 1023 1030 1019
f 1024 1040 1034
f 1022 1042 1036
f 1033 1038 1035
f 1051 1021 1026
f 1043 1039 1041
f 1047 1046 1050
f 1054 1057 1058
f 1055 1054 1056
f 1054 1058 1056
f 1050 1048 1052
f 1047 1050 1052
f 1029 1045 1027
f 1029 1053 1045
f 1045 1053 1043
f 1053 1039 1043
f 1051 1044 1037
f 1051 1026 1044
f 1051 1028 1021
f 1031 1038 1049
f 1049 1038 1033
f 1025 1042 1022
f 1024 1034 1020
f 1032 1030 1023
f 997 1009 993
f 1009 1008 993
f 993 966 994
f 965 999 966
f 967 998 969
f 996 983 986
f 996 967 983
f 1018 985 1017
f 980 1003 1006
f 984 1005 991
f 992 986 985
f 987 1015 1007
f 1004 987 1007
f 968 981 967
f 979 1006 1005
f 978 1004 1003
f 970 973 968
f 965 975 970
f 973 972 968
f 968 972 982
f 971 988 972
f 966 1013 965
f 965 1014 976
f 965 1000 999
f 958 957 963
f 963 957 961
f 955 964 953
f 952 941 954
f 954 940 936
f 941 940 954
f 956 936 937
f 956 938 951
f 956 937 938
f 944 939 925
f 944 925 921
f 944 921 932
f 921 922 931
f 922 927 928
f 922 928 931
f 928 930 931
f 930 934 931
f 929 926 933
f 926 923 924
f 926 920 919
f 924 920 926
f 926 919 933
f 929 934 930
f 933 934 929
f 921 931 932
f 944 932 935
f 944 935 949
f 899 903 950
f 900 903 899
f 901 902 900
f 902 903 900
f 950 903 904
f 943 950 904
f 942 943 904
f 950 943 948
f 945 915 947
f 947 907 917
f 907 910 917
f 914 911 910
f 911 909 910
f 914 910 912
f 947 917 916
f 947 916 918
f 947 905 906
f 947 915 905
f 910 907 912
f 914 912 913
f 947 908 907
f 875 895 888
f 876 890 875
f 876 884 879
f 881 880 875
f 876 893 891
f 876 878 893
f 877 892 878
f 875 886 882
f 849 848 846
f 846 868 850
f 848 868 846
f 850 868 865
f 848 866 868
f 868 866 874
f 866 872 874
f 868 874 867
f 851 854 843
f 843 863 841
f 841 863 861
f 843 854 863
f 857 870 853
f 853 859 844
f 853 870 859
f 836 845 860
f 836 842 845
f 836 860 835
f 835 860 834
f 834 858 837
f 834 860 858
f 832 833 839
f 840 832 839
f 840 831 832
f 852 831 840
f 855 856 852
f 823 798 792
f 795 809 789
f 829 806 826
f 790 801 807
f 795 789 814
f 805 787 794
f 796 813 818
f 819 786 828
f 789 808 821
f 790 807 794
f 788 798 800
f 786 816 792
f 791 814 813
f 790 788 799
f 766 765 784
f 766 784 768
f 765 775 784
f 770 769 771
f 774 770 771
f 767 778 770
f 767 784 778
f 778 784 777
f 777 784 783
f 770 772 767
f 772 774 773
f 784 775 782
f 774 772 770
f 776 762 785
f 785 761 781
f 785 758 761
f 785 762 758
f 758 762 759
f 759 762 763
f 759 763 756
f 763 760 756
f 780 764 755
f 780 755 753
f 780 753 752
f 753 754 752
f 709 747 707
f 746 719 707
f 707 719 712
f 736 703 706
f 731 735 742
f 731 703 735
f 708 725 709
f 723 724 704
f 723 727 734
f 722 748 709
f 722 750 748
f 711 710 741
f 706 741 737
f 706 712 716
f 714 739 710
f 730 733 703
f 713 705 732
f 729 704 713
f 718 715 711
f 706 717 711
f 709 749 744
f 698 675 699
f 699 677 701
f 689 669 670
f 667 696 670
f 667 676 696
f 670 696 689
f 676 700 690
f 678 679 691
f 679 641 691
f 691 641 642
f 691 642 692
f 642 685 692
f 645 685 642
f 644 643 685
f 643 680 685
f 671 693 697
f 668 636 639
f 668 674 636
f 636 674 637
f 637 695 638
f 638 683 635
f 683 681 634
f 635 683 634
f 638 695 683
f 637 674 695
f 684 673 687
f 687 672 686
f 656 657 688
f 688 657 661
f 688 661 664
f 661 658 664
f 658 659 664
f 664 659 660
f 656 688 662
f 662 688 682
f 663 666 651
f 651 666 650
f 650 666 652
f 652 649 648
f 652 666 649
f 649 666 646
f 646 665 647
f 646 666 665
f 647 665 654
f 626 612 627
f 627 593 623
f 620 623 599
f 594 615 631
f 611 618 592
f 611 625 618
f 593 607 594
f 598 611 592
f 602 598 629
f 595 617 616
f 599 622 621
f 600 595 613
f 595 600 605
f 573 572 574
f 574 575 576
f 573 574 576
f 587 591 577
f 577 591 582
f 572 577 574
f 577 572 587
f 580 578 565
f 580 565 583
f 583 565 555
f 583 555 561
f 555 556 561
f 556 562 561
f 569 562 556
f 557 570 558
f 559 567 557
f 560 567 559
f 564 563 567
f 564 567 560
f 567 570 557
f 569 556 571
f 571 558 570
f 569 568 562
f 556 558 571
f 583 561 566
f 489 542 502
f 481 536 489
f 491 539 481
f 484 534 545
f 545 534 547
f 530 484 485
f 486 523 498
f 528 527 498
f 518 513 480
f 496 516 480
f 508 507 487
f 487 507 524
f 533 552 483
f 493 519 520
f 506 505 482
f 483 510 512
f 511 532 483
f 540 497 484
f 495 520 515
f 524 522 487
f 549 495 514
f 491 538 537
f 485 501 530
f 489 503 482
f 450 453 456
f 450 449 459
f 450 459 453
f 473 453 454
f 453 451 454
f 451 452 454
f 473 460 475
f 473 454 455
f 473 461 460
f 455 461 473
f 453 473 456
f 474 479 468
f 474 477 479
f 443 444 471
f 471 444 446
f 471 446 470
f 443 471 442
f 433 432 465
f 433 465 438
f 438 478 476
f 438 465 478
f 465 432 464
f 432 434 464
f 466 436 414
f 417 418 414
f 466 414 415
f 466 415 469
f 415 416 469
f 416 458 469
f 413 412 458
f 413 458 416
f 457 458 412
f 424 429 427
f 429 467 427
f 427 467 426
f 426 467 428
f 428 467 463
f 424 425 430
f 424 430 429
f 440 439 441
f 440 441 422
f 440 423 431
f 440 419 423
f 440 420 419
f 440 422 420
f 441 448 422
f 422 448 421
f 358 409 389
f 406 358 366
f 394 360 370
f 364 382 360
f 376 375 361
f 374 377 368
f 359 373 368
f 373 359 390
f 411 385 371
f 382 370 360
f 403 363 360
f 399 369 363
f 370 379 400
f 400 380 401
f 368 377 361
f 358 387 410
f 366 369 395
f 335 355 346
f 355 357 346
f 357 349 346
f 335 346 337
f 337 346 345
f 335 336 355
f 336 339 355
f 339 338 355
f 338 343 355
f 343 333 355
f 343 342 344
f 343 344 333
f 344 347 333
f 355 333 334
f 355 334 354
f 328 327 356
f 356 327 329
f 356 329 350
f 328 331 325
f 325 332 326
f 325 331 332
f 328 356 331
f 318 352 316
f 318 316 323
f 352 351 319
f 352 315 316
f 352 322 315
f 352 321 322
f 352 319 321
f 320 324 314
f 320 348 341
f 314 348 320
f 313 348 314
f 1681 1680 1673
f 1660 1661 1679
f 1659 1684 1685
f 1660 1679 1688
f 1664 1670 1663
f 1664 1665 1672
f 1659 1669 1662
f 1659 1668 1667
f 1659 1685 1668
f 1661 1677 1676
f 1646 1645 1657
f 1657 1645 1651
f 1651 1656 1657
f 1646 1657 1647
f 1647 1649 1648
f 1647 1657 1649
f 1652 1642 1658
f 1658 1643 1654
f 1658 1641 1639
f 1658 1639 1640
f 1658 1640 1643
f 1653 1636 1628
f 1628 1636 1635
f 1653 1644 1636
f 1635 1633 1638
f 1635 1634 1633
f 1635 1637 1634
f 1635 1636 1637
f 1653 1628 1629
f 1653 1629 1632
f 1653 1632 1630
f 1653 1630 1631
f 1554 1606 1543
f 1596 1604 1549
f 1553 1600 1568
f 1616 1594 1622
f 1553 1589 1587
f 1598 1553 1587
f 1598 1587 1599
f 1599 1588 1592
f 1626 1596 1623
f 1595 1616 1624
f 1547 1589 1553
f 1541 1581 1563
f 1582 1581 1544
f 1555 1578 1554
f 1575 1555 1557
f 1577 1612 1554
f 1574 1619 1618
f 1580 1617 1619
f 1591 1544 1609
f 1543 1607 1544
f 1618 1570 1574
f 1556 1572 1560
f 1557 1560 1571
f 1563 1586 1547
f 1519 1518 1524
f 1519 1524 1534
f 1519 1534 1523
f 1523 1534 1526
f 1526 1536 1520
f 1520 1536 1521
f 1526 1534 1536
f 1521 1536 1532
f 1535 1483 1485
f 1535 1485 1482
f 1485 1491 1486
f 1491 1492 1486
f 1485 1486 1482
f 1535 1488 1531
f 1535 1482 1481
f 1535 1481 1488
f 1531 1488 1530
f 1485 1483 1484
f 1525 1483 1535
f 1525 1489 1483
f 1483 1489 1487
f 1509 1513 1508
f 1513 1506 1508
f 1506 1507 1508
f 1508 1507 1516
f 1507 1539 1516
f 1507 1514 1539
f 1514 1515 1539
f 1515 1512 1539
f 1512 1510 1539
f 1537 1527 1517
f 1511 1537 1517
f 1511 1504 1537
f 1498 1503 1528
f 1498 1502 1495
f 1495 1502 1496
f 1498 1528 1502
f 1502 1528 1501
f 1528 1499 1501
f 1528 1500 1499
f 1528 1505 1500
f 1498 1497 1494
f 1497 1493 1494
f 1498 1494 1503
f 1472 1462 1426
f 1465 1429 1425
f 1426 1462 1425
f 1460 1439 1455
f 1424 1452 1436
f 1430 1455 1432
f 1446 1432 1461
f 1461 1432 1474
f 1474 1432 1475
f 1443 1426 1427
f 1445 1471 1426
f 1435 1429 1469
f 1476 1432 1447
f 1467 1468 1456
f 1434 1467 1456
f 1424 1434 1450
f 1427 1431 1440
f 1430 1449 1448
f 1406 1413 1415
f 1406 1423 1413
f 1394 1417 1419
f 1394 1410 1417
f 1417 1410 1411
f 1410 1416 1411
f 1412 1358 1404
f 1412 1396 1402
f 1412 1357 1358
f 1402 1357 1412
f 1404 1358 1359
f 1402 1401 1357
f 1388 1387 1408
f 1408 1387 1390
f 1408 1390 1386
f 1390 1385 1386
f 1408 1386 1384
f 1408 1384 1418
f 1384 1383 1418
f 1418 1383 1399
f 1390 1387 1391
f 1368 1409 1375
f 1409 1405 1375
f 1375 1405 1380
f 1368 1369 1409
f 1409 1369 1372
f 1369 1373 1372
f 1373 1379 1378
f 1373 1378 1372
f 1409 1370 1389
f 1389 1370 1376
f 1409 1372 1370
f 1372 1371 1370
f 1376 1374 1377
f 1381 1392 1395
f 1360 1367 1363
f 1360 1361 1364
f 1360 1364 1367
f 1363 1367 1366
f 1363 1366 1362
f 1362 1397 1365
f 1365 1397 1393
f 1362 1366 1397
f 1344 1331 1325
f 1344 1349 1331
f 1328 1333 1327
f 1330 1337 1328
f 1336 1330 1348
f 1348 1330 1351
f 1356 1354 1341
f 1327 1335 1329
f 1347 1329 1334
f 1329 1342 1325
f 1331 1350 1330
f 1331 1355 1350
f 1319 1310 1323
f 1323 1310 1321
f 1324 1308 1309
f 1306 1324 1309
f 1306 1311 1324
f 1322 1296 1317
f 1322 1297 1296
f 1299 1298 1301
f 1301 1298 1300
f 1300 1316 1305
f 1300 1298 1316
f 1298 1302 1316
f 1302 1315 1316
f 1305 1314 1313
f 1305 1316 1314
f 1303 1292 1304
f 1303 1290 1291
f 1303 1293 1292
f 1291 1289 1303
f 1291 1295 1289
f 1303 1294 1293
f 1289 1288 1303
f 1282 1286 1241
f 1269 1249 1268
f 1268 1261 1259
f 1268 1256 1267
f 1246 1264 1244
f 1245 1281 1241
f 1245 1262 1281
f 1262 1245 1273
f 1240 1253 1271
f 1278 1279 1280
f 1278 1242 1243
f 1246 1258 1257
f 1254 1240 1248
f 1244 1266 1255
f 1255 1267 1256
f 1246 1250 1248
f 1243 1284 1279
f 1245 1271 1270
f 1246 1274 1263
f 1246 1275 1274
f 1198 1197 1234
f 1234 1231 1232
f 1234 1197 1231
f 1198 1238 1202
f 1202 1238 1201
f 1238 1230 1199
f 1201 1238 1199
f 1198 1236 1238
f 1222 1226 1221
f 1239 1222 1221
f 1191 1200 1239
f 1226 1222 1224
f 1223 1237 1218
f 1220 1187 1227
f 1227 1187 1188
f 1187 1189 1188
f 1227 1188 1190
f 1171 1186 1175
f 1171 1175 1172
f 1172 1174 1173
f 1186 1210 1176
f 1172 1175 1174
f 1186 1176 1175
f 1210 1209 1176
f 1210 1186 1225
f 1179 1229 1213
f 1179 1205 1229
f 1179 1180 1205
f 1180 1212 1205
f 1205 1212 1206
f 1212 1214 1206
f 1206 1214 1219
f 1182 1196 1170
f 1170 1204 1203
f 1215 1181 1161
f 1215 1161 1160
f 1215 1160 1162
f 1215 1162 1159
f 1215 1159 1158
f 1215 1169 1208
f 1215 1158 1169
f 1158 1165 1169
f 1169 1165 1167
f 1165 1166 1163
f 1165 1164 1167
f 1183 1168 1217
f 1217 1168 1211
f 1168 1157 1211
f 1185 1184 1193
f 1193 1178 1194
f 1144 1115 1116
f 1113 1127 1126
f 1113 1137 1127
f 1127 1137 1122
f 1141 1119 1154
f 1134 1133 1112
f 1112 1151 1150
f 1112 1149 1116
f 1120 1114 1136
f 1145 1148 1115
f 1119 1139 1117
f 1113 1123 1118
f 1156 1155 1135
f 1118 1156 1135
f 1112 1132 1134
f 1114 1130 1129
f 1113 1138 1137
f 1082 1088 1086
f 1106 1105 1084
f 1103 1084 1086
f 1082 1086 1083
f 1084 1105 1085
f 1105 1092 1085
f 1082 1081 1088
f 1081 1087 1088
f 1084 1103 1106
f 1086 1102 1103
f 1088 1089 1102
f 1075 1107 1101
f 1075 1076 1107
f 1076 1078 1107
f 1107 1078 1077
f 1077 1079 1107
f 1080 1094 1104
f 1080 1099 1059
f 1059 1099 1098
f 1066 1100 1073
f 1090 1068 1073
f 1070 1071 1069
f 1070 1068 1090
f 1070 1069 1068
f 1073 1100 1090
f 1067 1072 1097
f 1097 1072 1095
f 1067 1100 1066
f 1067 1097 1100
f 1109 1062 1061
f 1109 1096 1062
f 1109 1061 1060
f 1109 1060 1074
f 1060 1063 1074
f 1063 1064 1074
f 261 262 248
f 301 261 248
f 297 298 258
f 293 292 247
f 247 278 276
f 252 290 244
f 285 258 251
f 284 300 246
f 246 311 309
f 250 275 253
f 270 305 253
f 242 274 249
f 269 273 243
f 267 250 249
f 264 265 310
f 245 259 252
f 292 297 278
f 278 258 287
f 265 295 308
f 308 246 309
f 308 295 246
f 291 252 263
f 244 281 256
f 246 247 284
f 258 269 243
f 251 286 285
f 245 260 259
f 246 294 247
f 257 255 282
f 248 302 301
f 281 279 256
f 207 239 209
f 209 239 238
f 207 208 239
f 210 227 240
f 210 225 227
f 210 220 225
f 229 235 233
f 228 226 232
f 201 219 206
f 206 152 234
f 206 219 152
f 219 213 153
f 219 153 149
f 219 149 150
f 219 150 152
f 234 152 151
f 193 194 196
f 193 196 205
f 193 205 195
f 195 205 198
f 223 196 197
f 223 197 222
f 196 223 205
f 224 216 203
f 203 216 204
f 204 216 214
f 204 214 202
f 202 214 155
f 202 154 212
f 202 155 154
f 183 184 217
f 183 217 182
f 217 187 182
f 217 215 187
f 217 184 186
f 184 189 186
f 167 166 191
f 191 166 176
f 166 168 177
f 166 177 176
f 191 180 181
f 177 175 176
f 191 172 173
f 176 172 191
f 191 173 170
f 191 170 169
f 181 180 179
f 191 169 180
f 180 169 171
f 180 171 178
f 167 192 174
f 159 188 163
f 159 158 188
f 161 157 164
f 156 157 161
f 164 157 162
f 161 165 156
f 199 161 164
f 163 200 164
f 163 188 190
f 161 199 160
f 164 200 199
f 93 126 81
f 86 127 93
f 90 121 142
f 114 90 92
f 143 146 92
f 145 106 140
f 140 106 131
f 103 111 79
f 83 103 79
f 100 99 80
f 140 129 95
f 95 129 115
f 80 81 101
f 101 81 125
f 105 141 144
f 105 138 141
f 83 85 104
f 89 110 78
f 86 136 123
f 86 137 136
f 91 117 144
f 144 118 105
f 79 108 89
f 70 74 76
f 43 42 68
f 43 68 47
f 47 68 45
f 45 68 66
f 63 61 56
f 69 63 56
f 69 46 54
f 69 54 63
f 60 35 64
f 64 35 37
f 37 40 62
f 40 65 71
f 40 71 62
f 71 77 62
f 57 38 58
f 58 38 75
f 51 8 55
f 55 3 5
f 51 73 2
f 73 7 2
f 51 1 8
f 5 4 6
f 5 3 4
f 2 1 51
f 55 8 3
f 7 73 53
f 28 48 32
f 48 34 32
f 28 32 31
f 34 48 33
f 32 34 30
f 30 34 29
f 27 48 28
f 18 17 19
f 19 17 24
f 24 20 19
f 18 39 25
f 18 19 36
f 25 39 26
f 26 39 23
f 23 39 21
f 21 39 22
f 13 12 14
f 12 11 14
f 50 15 16
f 10 11 12
f 15 10 12
f 49 41 10
f 15 49 10
