# Decoded from sources/assets/lusion.dev/assets/models/tunnels/tunnel_block_base.buf
# Position/index data decoded from public .buf header and payload.
v 0.4999996 0.5000000 -0.6000000
v 0.4999996 0.5000000 -0.6666666
v -0.4999996 0.5000000 -0.6666666
v -0.4999996 0.5000000 -0.6000000
v 0.4999996 0.5000000 -0.3333333
v 0.4999996 0.5000000 -0.4000000
v -0.4999996 0.5000000 -0.4000000
v -0.4999996 0.5000000 -0.3333333
v 0.4999996 0.5000000 -0.4000000
v 0.4999996 0.5000000 -0.4666666
v -0.4999996 0.5000000 -0.4666666
v -0.4999996 0.5000000 -0.4000000
v 0.4999996 0.5000000 -0.6666666
v 0.4999996 0.5000000 -0.7333333
v -0.4999996 0.5000000 -0.7333333
v -0.4999996 0.5000000 -0.6666666
v 0.4999996 0.5000000 -0.4666666
v 0.4999996 0.5000000 -0.5333333
v -0.4999996 0.5000000 -0.5333333
v -0.4999996 0.5000000 -0.4666666
v 0.4999996 0.5000000 -0.2666667
v 0.4999996 0.5000000 -0.3333333
v -0.4999996 0.5000000 -0.3333333
v -0.4999996 0.5000000 -0.2666667
v 0.4999996 0.5000000 -0.5333333
v 0.4999996 0.5000000 -0.6000000
v -0.4999996 0.5000000 -0.6000000
v -0.4999996 0.5000000 -0.5333333
v 0.4999996 0.5000000 -0.2000000
v 0.4999996 0.5000000 -0.2666667
v -0.4999996 0.5000000 -0.2666667
v -0.4999996 0.5000000 -0.2000000
v -0.6303040 -0.5000000 -0.5333333
v -0.6303040 -0.5000000 -0.6000000
v 0.6303040 -0.5000000 -0.6000000
v 0.6303040 -0.5000000 -0.5333333
v -0.6303040 -0.5000000 -0.3333333
v -0.6303040 -0.5000000 -0.4000000
v 0.6303040 -0.5000000 -0.4000000
v 0.6303040 -0.5000000 -0.3333333
v -0.6303040 -0.5000000 -0.4000000
v -0.6303040 -0.5000000 -0.4666666
v 0.6303040 -0.5000000 -0.4666666
v 0.6303040 -0.5000000 -0.4000000
v -0.4999996 -0.5000000 0.0000000
v -0.4999996 -0.5000000 -0.0666667
v 0.4999996 -0.5000000 -0.0666667
v 0.4999996 -0.5000000 0.0000000
v 0.4999996 -0.5000000 -0.2000000
v 0.4999996 -0.5000000 -0.1333333
v -0.4999996 -0.5000000 -0.1333333
v -0.4999996 -0.5000000 -0.2000000
v 0.4999996 -0.5000000 -0.1333333
v 0.4999996 -0.5000000 -0.0666667
v -0.4999996 -0.5000000 -0.0666667
v -0.4999996 -0.5000000 -0.1333333
v -0.4999996 -0.5000000 -0.2666667
v 0.4999996 -0.5000000 -0.2666667
v 0.4999996 -0.5000000 -0.2000000
v -0.4999996 -0.5000000 -0.2000000
v -0.6303040 -0.5000000 -0.6000000
v -0.6303040 -0.5000000 -0.6666666
v 0.6303040 -0.5000000 -0.6666666
v 0.6303040 -0.5000000 -0.6000000
v 0.4999996 -0.5000000 -0.3267958
v 0.4999996 -0.5000000 -0.2666667
v -0.4999996 -0.5000000 -0.2666667
v -0.4999996 -0.5000000 -0.3267958
v -0.5005134 -0.5000000 -0.3287131
v -0.5019170 -0.5000000 -0.3301167
v -0.5038341 -0.5000000 -0.3306303
v -0.6303040 -0.5000000 -0.3306303
v -0.6303040 -0.5000000 -0.3333333
v 0.6303040 -0.5000000 -0.3333333
v 0.6303040 -0.5000000 -0.3306303
v 0.5038341 -0.5000000 -0.3306303
v 0.5019170 -0.5000000 -0.3301167
v 0.5005134 -0.5000000 -0.3287131
v -0.6303040 -0.5000000 -0.4666666
v -0.6303040 -0.5000000 -0.5333333
v 0.6303040 -0.5000000 -0.5333333
v 0.6303040 -0.5000000 -0.4666666
v 0.4999996 0.5000000 -0.8000000
v 0.4999996 0.5000000 -0.8666667
v -0.4999996 0.5000000 -0.8666667
v -0.4999996 0.5000000 -0.8000000
v 0.4999996 -0.5000000 -0.8666667
v -0.4999996 0.5000000 -0.9333333
v -0.4999996 0.5000000 -0.8666667
v 0.4999996 0.5000000 -0.8666667
v 0.4999996 0.5000000 -0.9333333
v -0.4999996 -0.5000000 -0.8666667
v -0.4999996 0.5000000 -0.9333333
v 0.4999996 0.5000000 -0.9333333
v -0.4999996 -0.5000000 -0.9333333
v -0.4999996 0.5000000 -0.0666667
v -0.5000000 0.5000000 0.0000000
v 0.5000000 0.5000000 0.0000000
v 0.5000000 0.5000000 -0.0666667
v 0.4999996 0.5000000 -0.0000003
v 0.4999996 0.5000000 -0.7333333
v 0.4999996 0.5000000 -0.8000000
v -0.4999996 0.5000000 -0.8000000
v -0.4999996 0.5000000 -0.7333333
v 0.4999996 -0.5000000 -0.8000000
v 0.4999996 0.5000000 -0.1333333
v 0.4999996 0.5000000 -0.2000000
v -0.4999996 0.5000000 -0.2000000
v -0.4999996 0.5000000 -0.1333333
v -0.4999996 0.5000000 -0.1333333
v -0.5000000 0.5000000 -0.0666667
v 0.4999996 0.5000000 -0.0666667
v 0.4999996 0.5000000 -0.1333333
v 0.6303040 -0.5000000 -0.6666666
v -0.6303040 -0.5000000 -0.6666666
v -0.6303040 -0.5000000 -0.6702490
v -0.4999996 -0.5000000 -0.8000000
v -0.4999996 -0.5000000 -0.8666667
v 0.4999996 -0.5000000 -0.8000000
v 0.4999996 -0.5000000 -0.9333333
v 0.4999996 -0.5000000 -0.8666667
v -0.4999996 -0.5000000 -0.9333333
v -0.4999996 0.5000000 -1.0000000
v 0.4999996 0.5000000 -1.0000000
v 0.4999996 -0.5000000 -1.0000000
v 0.4999996 -0.5000000 -0.9333333
v -0.4999996 -0.5000000 -1.0000000
v -0.4999996 0.5000000 -0.0000003
v -0.4999996 -0.5000000 -0.7333333
v -0.4999996 -0.5000000 -0.8000000
v 0.4999996 -0.5000000 -0.7333333
v -0.5038341 -0.5000000 -0.6702490
v -0.5019170 -0.5000000 -0.6707630
v -0.5005134 -0.5000000 -0.6721663
v -0.4999996 -0.5000000 -0.6740837
v -0.4999996 -0.5000000 -0.7333333
v 0.4999996 -0.5000000 -0.7333333
v 0.4999996 -0.5000000 -0.6740837
v 0.5005134 -0.5000000 -0.6721663
v 0.5019170 -0.5000000 -0.6707630
v 0.5038341 -0.5000000 -0.6702490
v 0.6303040 -0.5000000 -0.6702490
f 2 4 3
f 6 8 7
f 10 12 11
f 14 16 15
f 18 20 19
f 22 24 23
f 26 28 27
f 30 32 31
f 34 36 35
f 38 40 39
f 42 44 43
f 46 48 47
f 50 52 51
f 54 56 55
f 58 60 59
f 62 64 63
f 71 73 72
f 80 82 81
f 84 86 85
f 118 119 87
f 89 91 90
f 121 122 92
f 93 124 94
f 126 127 95
f 99 100 99
f 102 104 103
f 130 131 105
f 107 109 108
f 112 111 110
f 132 116 115
f 132 115 114
f 132 141 133
f 133 140 134
f 134 139 135
f 132 114 141
f 141 114 142
f 135 138 136
f 133 141 140
f 134 140 139
f 135 139 138
f 136 138 137
f 112 110 113
f 106 109 107
f 129 131 130
f 101 104 102
f 128 96 96
f 96 96 97
f 97 96 98
f 96 99 98
f 98 99 99
f 125 127 126
f 123 124 93
f 120 122 121
f 88 91 89
f 117 119 118
f 83 86 84
f 79 82 80
f 65 78 68
f 68 78 69
f 65 68 66
f 78 77 69
f 77 70 69
f 74 76 75
f 66 68 67
f 76 70 77
f 76 71 70
f 76 74 71
f 71 74 73
f 61 64 62
f 57 60 58
f 53 56 54
f 49 52 50
f 45 48 46
f 41 44 42
f 37 40 38
f 33 36 34
f 29 32 30
f 25 28 26
f 21 24 22
f 17 20 18
f 13 16 14
f 9 12 10
f 5 8 6
f 1 4 2
