# Decoded from sources/assets/lusion.dev/assets/models/tunnels/earth_card.buf
# Position/index data decoded from public .buf header and payload.
v 0.3682861 -0.0622925 0.0309136
v 0.3898193 -0.0712708 0.0686834
v 0.2959229 -0.0372375 0.0000151
v 0.3179077 -0.0448181 0.0376792
v 0.3395874 -0.0533264 0.0753283
v 0.3609375 -0.0627441 0.1129320
v 0.3819458 -0.0730713 0.1504904
v -0.3708618 0.0590698 0.0029449
v -0.3220947 0.0596619 0.0032167
v -0.2733154 0.0590698 0.0029449
v -0.2245117 0.0573059 0.0021294
v -0.1756226 0.0543457 0.0007551
v -0.3949463 0.0579041 0.0424665
v -0.3463745 0.0590576 0.0429800
v -0.2978149 0.0590576 0.0429800
v -0.2492432 0.0579041 0.0424665
v -0.2006104 0.0555847 0.0414094
v -0.1518921 0.0520874 0.0398086
v -0.1030518 0.0473999 0.0376943
v -0.0540527 0.0414917 0.0350213
v -0.0048706 0.0343445 0.0317895
v 0.0445313 0.0259094 0.0279989
v 0.0941895 0.0161560 0.0236194
v 0.1441406 0.0050232 0.0186508
v 0.1943848 -0.0075378 0.0130782
v 0.2449707 -0.0216003 0.0068714
v -0.3704468 0.0573914 0.0826527
v -0.3220947 0.0579590 0.0829094
v -0.2737427 0.0573914 0.0826527
v -0.2253540 0.0556824 0.0818825
v -0.1769043 0.0528259 0.0805988
v -0.1283569 0.0488037 0.0788017
v -0.0796753 0.0436035 0.0764911
v -0.0308350 0.0371948 0.0736369
v 0.0181885 0.0295532 0.0702389
v 0.0674316 0.0206360 0.0662822
v 0.1169312 0.0104004 0.0617668
v 0.1667114 -0.0012024 0.0566623
v 0.2167847 -0.0142273 0.0509538
v 0.2671753 -0.0287415 0.0446412
v -0.3943237 0.0546692 0.1222046
v -0.3461670 0.0557922 0.1227029
v -0.2980225 0.0557922 0.1227029
v -0.2498657 0.0546692 0.1222046
v -0.2016724 0.0524231 0.1212229
v -0.1533936 0.0490417 0.1197278
v -0.1050049 0.0445129 0.1177344
v -0.0564941 0.0388062 0.1152275
v -0.0078125 0.0319092 0.1121920
v 0.0410400 0.0237793 0.1086280
v 0.0901245 0.0143799 0.1045353
v 0.1394409 0.0036804 0.0998689
v 0.1890381 -0.0083801 0.0946436
v 0.2389038 -0.0218628 0.0888143
v 0.2890869 -0.0368164 0.0823960
v -0.3700317 0.0525574 0.1623907
v -0.3220947 0.0531067 0.1626323
v -0.2741577 0.0525574 0.1623907
v -0.2261963 0.0508972 0.1616658
v -0.1781738 0.0481323 0.1604577
v -0.1300781 0.0442383 0.1587663
v -0.0818604 0.0392029 0.1565916
v -0.0335205 0.0330139 0.1539034
v 0.0149780 0.0256287 0.1507018
v 0.0636719 0.0170227 0.1469868
v 0.1125732 0.0071594 0.1427431
v 0.1617065 -0.0039978 0.1379407
v 0.2110962 -0.0165161 0.1325796
v 0.2607544 -0.0304321 0.1266445
v 0.3106934 -0.0458191 0.1201054
v -0.3936890 0.0482666 0.2019728
v -0.3459595 0.0493530 0.2024258
v -0.2982300 0.0493530 0.2024258
v -0.2504883 0.0482666 0.2019728
v -0.2027222 0.0460876 0.2010365
v -0.1548828 0.0428101 0.1996169
v -0.1069580 0.0384155 0.1977292
v -0.0589111 0.0328918 0.1953733
v -0.0107422 0.0262146 0.1925039
v 0.0375732 0.0183594 0.1891513
v 0.0860840 0.0092896 0.1852852
v 0.1348022 -0.0010254 0.1808905
v 0.1837280 -0.0126404 0.1759522
v 0.2328980 -0.0255981 0.1704702
v 0.2823120 -0.0399475 0.1644144
v 0.3319946 -0.0557495 0.1577544
v -0.3696167 0.0445374 0.2421136
v -0.3220947 0.0450745 0.2423402
v -0.2745728 0.0445374 0.2421136
v -0.2270264 0.0429321 0.2414340
v -0.1794312 0.0402405 0.2402863
v -0.1317749 0.0364624 0.2386855
v -0.0840210 0.0315796 0.2366165
v -0.0361694 0.0255737 0.2340643
v 0.0118164 0.0184265 0.2310439
v 0.0599609 0.0101013 0.2275252
v 0.1082764 0.0005737 0.2235081
v 0.1567749 -0.0101929 0.2189624
v 0.2054932 -0.0222412 0.2139033
v 0.2544189 -0.0356262 0.2082854
v 0.3035767 -0.0503906 0.2021087
v 0.3529785 -0.0665955 0.1953431
v -0.3930786 0.0386658 0.2816957
v -0.3457520 0.0397217 0.2821488
v -0.2984375 0.0397217 0.2821488
v -0.2511108 0.0386658 0.2816957
v -0.2037476 0.0365479 0.2808047
v -0.1563355 0.0333618 0.2794606
v -0.1088623 0.0290894 0.2776786
v -0.0612915 0.0237305 0.2754133
v -0.0136108 0.0172546 0.2726950
v 0.0341797 0.0096375 0.2695085
v 0.0821289 0.0008606 0.2658236
v 0.1302368 -0.0091125 0.2616555
v 0.1785156 -0.0203186 0.2569739
v 0.2269897 -0.0328003 0.2517637
v 0.2756592 -0.0466003 0.2460250
v 0.3245361 -0.0617676 0.2397275
v 0.3736206 -0.0783630 0.2328411
v -0.3692139 0.0333069 0.3218366
v -0.3220947 0.0338257 0.3220480
v -0.2749756 0.0333069 0.3218366
v -0.2278320 0.0317383 0.3211721
v -0.1806641 0.0291199 0.3200847
v -0.1334351 0.0254456 0.3185443
v -0.0861328 0.0206970 0.3165660
v -0.0387573 0.0148621 0.3141346
v 0.0087158 0.0079224 0.3112501
v 0.0563232 -0.0001404 0.3078824
v 0.1040649 -0.0093689 0.3040465
v 0.1519531 -0.0197815 0.2997123
v 0.2000000 -0.0314148 0.2948948
v 0.2482178 -0.0443115 0.2895487
v 0.2966064 -0.0585205 0.2836590
v 0.3451782 -0.0740784 0.2772407
v 0.3939331 -0.0910400 0.2702334
v -0.3924805 0.0258179 0.3614186
v -0.3455566 0.0268494 0.3618415
v -0.2986328 0.0268494 0.3618415
v -0.2517090 0.0258179 0.3614186
v -0.2047485 0.0237549 0.3605578
v -0.1577637 0.0206482 0.3592742
v -0.1107178 0.0164917 0.3575525
v -0.0636108 0.0112793 0.3553779
v -0.0164063 0.0049805 0.3527652
v 0.0308716 -0.0024048 0.3496996
v 0.0782715 -0.0109253 0.3461808
v 0.1257813 -0.0205872 0.3421788
v 0.1734375 -0.0314270 0.3376936
v 0.2212280 -0.0434814 0.3327099
v 0.2691650 -0.0567810 0.3272279
v 0.3172485 -0.0713745 0.3212023
v 0.3655029 -0.0873047 0.3146330
v -0.3688232 0.0187927 0.4015444
v -0.3220947 0.0193054 0.4017558
v -0.2753662 0.0187927 0.4015444
v -0.2286255 0.0172668 0.4009101
v -0.1818481 0.0147156 0.3998681
v -0.1350464 0.0111328 0.3983730
v -0.0881836 0.0065063 0.3964701
v -0.0412598 0.0008240 0.3941142
v 0.0057251 -0.0059143 0.3913204
v 0.0528076 -0.0137573 0.3880886
v 0.0999878 -0.0227051 0.3843886
v 0.1472656 -0.0327942 0.3802205
v 0.1946655 -0.0440552 0.3755691
v 0.2421875 -0.0565125 0.3704345
v 0.2898193 -0.0702026 0.3647864
v 0.3375855 -0.0851685 0.3586097
v 0.3854858 -0.1014587 0.3519044
v -0.3919067 0.0096558 0.4411718
v -0.3453613 0.0106628 0.4415795
v -0.2988281 0.0106628 0.4415795
v -0.2522827 0.0096558 0.4411718
v -0.2057251 0.0076416 0.4403412
v -0.1591309 0.0046082 0.4390877
v -0.1125122 0.0005554 0.4374114
v -0.0658447 -0.0045227 0.4352971
v -0.0191162 -0.0106506 0.4327600
v 0.0276733 -0.0178467 0.4297849
v 0.0745361 -0.0261230 0.4263719
v 0.1214844 -0.0354980 0.4224907
v 0.1685181 -0.0460022 0.4181565
v 0.2156494 -0.0576599 0.4133390
v 0.2628662 -0.0705078 0.4080231
v 0.3101929 -0.0845764 0.4022240
v 0.3576172 -0.0999023 0.3958963
v -0.3684448 0.0009216 0.4813277
v -0.3220947 0.0014160 0.4815391
v -0.2757446 0.0009216 0.4813277
v -0.2293823 -0.0005676 0.4807085
v -0.1829956 -0.0030579 0.4796816
v -0.1365967 -0.0065552 0.4782318
v -0.0901489 -0.0110718 0.4763592
v -0.0436768 -0.0166077 0.4740637
v 0.0028320 -0.0231812 0.4713303
v 0.0494141 -0.0308044 0.4681740
v 0.0960571 -0.0395081 0.4645646
v 0.1427490 -0.0492981 0.4605022
v 0.1895264 -0.0602051 0.4559716
v 0.2363647 -0.0722595 0.4509880
v 0.2832764 -0.0854797 0.4455060
v 0.3302612 -0.0999023 0.4395257
v 0.3773193 -0.1155701 0.4330318
v -0.3913574 -0.0099243 0.5210004
v -0.3451782 -0.0089417 0.5214081
v -0.2990112 -0.0089417 0.5214081
v -0.2528320 -0.0099243 0.5210004
v -0.2066406 -0.0118958 0.5201698
v -0.1604492 -0.0148560 0.5189465
v -0.1142212 -0.0188110 0.5172853
v -0.0679810 -0.0237732 0.5152164
v -0.0217041 -0.0297546 0.5127246
v 0.0246094 -0.0367615 0.5098099
v 0.0709595 -0.0448120 0.5064422
v 0.1173584 -0.0539246 0.5026365
v 0.1637939 -0.0641174 0.4983929
v 0.2102783 -0.0754150 0.4936962
v 0.2568237 -0.0878357 0.4885011
v 0.3033936 -0.1014221 0.4828379
v 0.3500244 -0.1161865 0.4766763
v 0.3966797 -0.1321716 0.4700013
v -0.3680908 -0.0204407 0.5612470
v -0.3220947 -0.0199524 0.5614433
v -0.2760986 -0.0204407 0.5612470
v -0.2300903 -0.0218994 0.5606278
v -0.1840820 -0.0243347 0.5596008
v -0.1380615 -0.0277527 0.5581662
v -0.0920288 -0.0321594 0.5563086
v -0.0459839 -0.0375610 0.5540282
v 0.0000854 -0.0439697 0.5513401
v 0.0461792 -0.0513977 0.5482140
v 0.0922974 -0.0598633 0.5446500
v 0.1384399 -0.0693726 0.5406329
v 0.1845947 -0.0799561 0.5361778
v 0.2307861 -0.0916260 0.5312546
v 0.2770020 -0.1044128 0.5258783
v 0.3232178 -0.1183350 0.5200037
v 0.3694580 -0.1334168 0.5136458
v -0.3908325 -0.0330872 0.6010405
v -0.3450073 -0.0321228 0.6014482
v -0.2991821 -0.0321228 0.6014482
v -0.2533569 -0.0330872 0.6010405
v -0.2075195 -0.0350098 0.6002099
v -0.1616943 -0.0379028 0.5989866
v -0.1158569 -0.0417725 0.5973405
v -0.0700073 -0.0466125 0.5952715
v -0.0241577 -0.0524475 0.5927797
v 0.0216919 -0.0592773 0.5898651
v 0.0675537 -0.0671143 0.5865275
v 0.1134155 -0.0759766 0.5827521
v 0.1592896 -0.0858765 0.5785235
v 0.2051636 -0.0968323 0.5738419
v 0.2510376 -0.1088562 0.5687073
v 0.2968994 -0.1219788 0.5631045
v 0.3427490 -0.1362244 0.5570184
v 0.3885742 -0.1516052 0.5504491
v -0.3677490 -0.0454712 0.6414229
v -0.3220947 -0.0449951 0.6416344
v -0.2764282 -0.0454712 0.6414229
v -0.2307739 -0.0468994 0.6408038
v -0.1851196 -0.0492798 0.6397768
v -0.1394531 -0.0526184 0.6383270
v -0.0938110 -0.0569214 0.6364544
v -0.0481567 -0.0621948 0.6341740
v -0.0025146 -0.0684509 0.6314708
v 0.0431030 -0.0756836 0.6283296
v 0.0887207 -0.0839233 0.6247655
v 0.1343262 -0.0931641 0.6207484
v 0.1799194 -0.1034363 0.6162934
v 0.2254761 -0.1147461 0.6114004
v 0.2710083 -0.1271118 0.6060241
v 0.3165039 -0.1405518 0.6001948
v 0.3619629 -0.1550903 0.5938671
v -0.3903442 -0.0600159 0.6813826
v -0.3448486 -0.0590759 0.6818054
v -0.2993408 -0.0590759 0.6818054
v -0.2538452 -0.0600159 0.6813826
v -0.2083496 -0.0619019 0.6805520
v -0.1628662 -0.0647278 0.6792985
v -0.1173828 -0.0685059 0.6776373
v -0.0719238 -0.0732361 0.6755532
v -0.0264771 -0.0789246 0.6730312
v 0.0189331 -0.0855835 0.6700863
v 0.0643311 -0.0932129 0.6667186
v 0.1096924 -0.1018311 0.6629129
v 0.1550171 -0.1114441 0.6586542
v 0.2003052 -0.1220703 0.6539575
v 0.2455322 -0.1337097 0.6488078
v 0.2907105 -0.1463928 0.6431899
v 0.3358276 -0.1601318 0.6371038
v 0.3808594 -0.1749390 0.6305345
v -0.3674439 -0.0743958 0.7219916
v -0.3220947 -0.0739319 0.7221879
v -0.2767456 -0.0743958 0.7219916
v -0.2314087 -0.0757935 0.7213573
v -0.1860840 -0.0781189 0.7203002
v -0.1407715 -0.0813843 0.7188202
v -0.0954712 -0.0855835 0.7169324
v -0.0502075 -0.0907288 0.7145916
v -0.0049805 -0.0968201 0.7118431
v 0.0402100 -0.1038696 0.7086566
v 0.0853516 -0.1118835 0.7050321
v 0.1304443 -0.1208618 0.7009697
v 0.1754761 -0.1308289 0.6964543
v 0.2204468 -0.1417847 0.6914857
v 0.2653320 -0.1537415 0.6860641
v 0.3101318 -0.1667175 0.6801895
v 0.3548340 -0.1807251 0.6738316
v 0.3994263 -0.1957764 0.6670056
v -0.3898804 -0.0909851 0.7621928
v -0.3446899 -0.0900635 0.7626157
v -0.2994995 -0.0900635 0.7626157
v -0.2543091 -0.0909851 0.7621928
v -0.2091187 -0.0928223 0.7613320
v -0.1639648 -0.0955872 0.7600483
v -0.1188232 -0.0992737 0.7583418
v -0.0737183 -0.1038879 0.7561974
v -0.0286621 -0.1094299 0.7536149
v 0.0163330 -0.1159119 0.7506097
v 0.0612915 -0.1233398 0.7471513
v 0.1061768 -0.1317139 0.7432550
v 0.1509888 -0.1410400 0.7389208
v 0.1957153 -0.1513306 0.7341335
v 0.2403442 -0.1625977 0.7288931
v 0.2848633 -0.1748474 0.7231846
v 0.3292603 -0.1880920 0.7170230
v -0.3671387 -0.1075195 0.8030737
v -0.3220947 -0.1070679 0.8033002
v -0.2770386 -0.1075195 0.8030737
v -0.2320068 -0.1088806 0.8024243
v -0.1869873 -0.1111511 0.8013369
v -0.1419922 -0.1143372 0.7998116
v -0.0970337 -0.1184326 0.7978484
v -0.0521240 -0.1234436 0.7954472
v -0.0072754 -0.1293762 0.7926080
v 0.0374878 -0.1362305 0.7893158
v 0.0821899 -0.1440125 0.7855857
v 0.1267944 -0.1527283 0.7814024
v 0.1713013 -0.1623779 0.7767813
v 0.2156982 -0.1729797 0.7716919
v 0.2599731 -0.1845337 0.7661495
v 0.3041016 -0.1970398 0.7601390
v -0.3894531 -0.1263306 0.8436072
v -0.3445557 -0.1254334 0.8440451
v -0.2996338 -0.1254334 0.8440451
v -0.2547363 -0.1263306 0.8436072
v -0.2098389 -0.1281250 0.8427161
v -0.1649902 -0.1308167 0.8413721
v -0.1201660 -0.1344055 0.8395900
v -0.0754028 -0.1388977 0.8373701
v -0.0307007 -0.1442932 0.8346819
v 0.0139160 -0.1505920 0.8315558
v 0.0584473 -0.1578003 0.8279918
v 0.1028809 -0.1659180 0.8239596
v 0.1472046 -0.1749512 0.8194743
v 0.1913940 -0.1849060 0.8145209
v 0.2354370 -0.1957886 0.8091144
v -0.3668701 -0.1452271 0.8848655
v -0.3220947 -0.1447815 0.8850921
v -0.2773193 -0.1452271 0.8848655
v -0.2325562 -0.1465515 0.8841860
v -0.1878174 -0.1487610 0.8830533
v -0.1431274 -0.1518616 0.8814525
v -0.0984863 -0.1558411 0.8793987
v -0.0539185 -0.1607117 0.8768917
v -0.0094360 -0.1664673 0.8739167
v 0.0349487 -0.1731140 0.8704885
v 0.0792236 -0.1806580 0.8665922
v 0.1233765 -0.1890930 0.8622429
v 0.1673828 -0.1984192 0.8574405
v -0.3890625 -0.1664917 0.9257766
v -0.3444214 -0.1656189 0.9262447
v -0.2997681 -0.1656189 0.9262447
v -0.2551270 -0.1664917 0.9257766
v -0.2105103 -0.1682312 0.9248403
v -0.1659424 -0.1708435 0.9234358
v -0.1214111 -0.1743286 0.9215632
v -0.0769653 -0.1786865 0.9192224
v -0.0326050 -0.1839172 0.9164134
v 0.0116455 -0.1900147 0.9131363
v 0.0557861 -0.1969910 0.9093759
v -0.3666138 -0.1880005 0.9675182
v -0.3220947 -0.1875732 0.9677599
v -0.2775757 -0.1880005 0.9675182
v -0.2330689 -0.1892883 0.9667933
v -0.1885986 -0.1914307 0.9655852
v -0.1441895 -0.1944275 0.9638938
v -0.0998413 -0.1982849 0.9617342
v 0.3714966 -0.2000000 0.7064215
v 0.3662598 -0.2000000 0.7114655
v 0.3827637 -0.2000000 0.6949139
v 0.3392456 -0.2000000 0.7364743
v 0.3137451 -0.2000000 0.7587194
v 0.2729492 -0.2000000 0.7910223
v 0.2510864 -0.2000000 0.8070304
v 0.3065064 -0.2000000 0.7648054
v 0.2971680 -0.2000000 0.7722054
v 0.2040039 -0.2000000 0.8384423
v 0.1741455 -0.2000000 0.8566250
v 0.2388550 -0.2000000 0.8156686
v 0.2275147 -0.2000000 0.8232045
v 0.0956787 -0.2000000 0.8974303
v 0.0726440 -0.2000000 0.9077600
v 0.1324097 -0.2000000 0.8792778
v 0.1070435 -0.2000000 0.8919634
v 0.1686523 -0.2000000 0.8598417
v 0.1649170 -0.2000000 0.8619107
v -0.0582275 -0.2000000 0.9541530
v -0.0837524 -0.2000000 0.9607677
v -0.0187988 -0.2000000 0.9422074
v -0.0519775 -0.2000000 0.9523710
v 0.0200073 -0.2000000 0.9287970
v -0.0007690 -0.2000000 0.9361667
v 0.0582520 -0.2000000 0.9139971
v 0.0519043 -0.2000000 0.9165493
v -0.3550537 -0.2000000 0.9892197
v -0.3776489 -0.2000000 0.9882078
v -0.3104004 -0.2000000 0.9897029
v -0.3337891 -0.2000000 0.9897029
v -0.2665405 -0.2000000 0.9882078
v -0.2891357 -0.2000000 0.9892197
v -0.2234375 -0.2000000 0.9848401
v -0.2436523 -0.2000000 0.9866523
v -0.1810791 -0.2000000 0.9797055
v -0.1972778 -0.2000000 0.9818801
v -0.1394043 -0.2000000 0.9728794
v -0.1499756 -0.2000000 0.9747671
v -0.0984131 -0.2000000 0.9644223
v -0.1016724 -0.2000000 0.9651623
v -0.4000000 0.0580139 0.0024465
v -0.4000000 0.0577820 0.0342360
v -0.4000000 0.0576599 0.0423457
v -0.4000000 0.0563477 0.0821845
v -0.4000000 0.0574341 0.0507877
v -0.4000000 0.0549072 0.1128716
v -0.4000000 0.0544067 0.1220988
v -0.4000000 0.0515198 0.1619377
v -0.4000000 0.0537659 0.1316735
v -0.4000000 0.0489502 0.1915223
v -0.4000000 0.0479797 0.2018369
v -0.4000000 0.0435120 0.2416757
v -0.4000000 0.0468323 0.2125592
v -0.4000000 0.0398865 0.2701428
v -0.4000000 0.0383545 0.2815749
v -0.4000000 0.0322815 0.3213986
v -0.4000000 0.0366089 0.2934299
v -0.4000000 0.0276794 0.3487632
v -0.4000000 0.0254883 0.3612827
v -0.4000000 0.0177734 0.4011215
v -0.4000000 0.0230347 0.3742703
v -0.4000000 0.0122559 0.4274139
v -0.4000000 0.0093079 0.4410207
v -0.4000000 -0.0000916 0.4809049
v -0.4000000 0.0060425 0.4551259
v -0.4000000 -0.0064819 0.5061552
v -0.4000000 -0.0102966 0.5208494
v -0.4000000 -0.0214539 0.5608090
v -0.4000000 -0.0144714 0.5360570
v -0.4000000 -0.0286804 0.5851231
v -0.4000000 -0.0334717 0.6008743
v -0.4000000 -0.0464783 0.6409850
v -0.4000000 -0.0386902 0.6171693
v -0.4000000 -0.0545288 0.6644080
v -0.4000000 -0.0604187 0.6812164
v -0.4000000 -0.0753967 0.7215385
v -0.4000000 -0.0668030 0.6985836
v -0.4000000 -0.0842773 0.7441611
v -0.4000000 -0.0913940 0.7619965
v -0.4000000 -0.1085144 0.8026055
v -0.4000000 -0.0990967 0.7804359
v -0.4000000 -0.1182434 0.8245032
v -0.4000000 -0.1267517 0.8433957
v -0.4000000 -0.1462097 0.8843672
v -0.4000000 -0.1359436 0.8628923
v -0.4000000 -0.1568298 0.9056306
v -0.4000000 -0.1669189 0.9255501
v -0.4000000 -0.1889648 0.9669746
v -0.4000000 -0.1777893 0.9461188
v -0.4000000 -0.2000000 0.9866825
v 0.3999878 -0.0747925 0.0525395
v 0.3999878 -0.0742493 0.0269871
v 0.3999878 -0.0760193 0.0867755
v 0.3999878 -0.0752136 0.0674451
v 0.3999878 -0.0780945 0.1231409
v 0.3999878 -0.0771057 0.1078578
v 0.3999878 -0.0828735 0.1831860
v 0.3999878 -0.0799011 0.1481798
v 0.3999878 -0.0833679 0.1883660
v 0.3999878 -0.0880249 0.2288542
v 0.3999878 -0.0837646 0.1920659
v 0.3999878 -0.0933167 0.2692971
v 0.3999878 -0.0921692 0.2608853
v 0.3999878 -0.0951538 0.2815296
v 0.3999878 -0.0996460 0.3095587
v 0.3999878 -0.1067871 0.3497147
v 0.3999878 -0.1030762 0.3292667
v 0.3999878 -0.1125793 0.3792993
v 0.3999878 -0.1147278 0.3897800
v 0.3999878 -0.1237183 0.4296490
v 0.3999878 -0.1163513 0.3971799
v 0.3999878 -0.1333862 0.4694878
v 0.3999878 -0.1322083 0.4647609
v 0.3999878 -0.1352112 0.4763743
v 0.3999878 -0.1441650 0.5091001
v 0.3999878 -0.1557251 0.5486822
v 0.3999878 -0.1508057 0.5320852
v 0.3999878 -0.1632263 0.5726791
v 0.3999878 -0.1682007 0.5881736
v 0.3999878 -0.1817078 0.6275443
v 0.3999878 -0.1719116 0.5991678
v 0.3999878 -0.1956726 0.6660843
v 0.3999878 -0.1959778 0.6669149
v 0.3999878 -0.1964478 0.6681231
v 0.3999878 -0.2000000 0.6770936
v 0.3875488 -0.0693237 0.0000151
v 0.3503906 -0.0556946 0.0000151
v 0.3420166 -0.0527832 0.0000151
v 0.3999878 -0.0740234 0.0000151
v -0.3726685 0.0589905 0.0000151
v -0.4000000 0.0580078 0.0000151
v -0.3240601 0.0596191 0.0000151
v -0.3690674 0.0590820 0.0000151
v -0.2751221 0.0590820 0.0000151
v -0.3201294 0.0596191 0.0000151
v -0.2258057 0.0573425 0.0000151
v -0.2715210 0.0589905 0.0000151
v -0.1760742 0.0543701 0.0000151
v -0.2232056 0.0572144 0.0000151
v -0.1565186 0.0527222 0.0000151
v -0.1751587 0.0543030 0.0000151
v -0.1259155 0.0500977 0.0000151
v -0.1273438 0.0502380 -0.0000000
v -0.0752563 0.0444824 0.0000151
v -0.0797363 0.0450256 0.0000151
v -0.0240845 0.0374878 0.0000151
v -0.0322998 0.0386841 0.0000151
v 0.0276367 0.0290527 0.0000151
v 0.0149658 0.0312256 0.0000151
v 0.0799805 0.0191162 0.0000151
v 0.0620972 0.0226440 0.0000151
v 0.1329468 0.0076050 0.0000151
v 0.1090942 0.0129333 0.0000151
v 0.1865723 -0.0055603 0.0000151
v 0.1559692 0.0020935 0.0000151
v 0.2408936 -0.0204773 0.0000151
v 0.2027344 -0.0098755 0.0000151
v 0.2493897 -0.0229858 0.0000151
v -0.2232056 0.0572144 0.0000151
v -0.2258057 0.0573425 0.0000151
v -0.2715210 0.0589905 0.0000151
v -0.2751221 0.0590820 0.0000151
v -0.3201294 0.0596191 0.0000151
v -0.3240601 0.0596191 0.0000151
v -0.3690674 0.0590820 0.0000151
v -0.3726685 0.0589905 0.0000151
v -0.4000000 0.0580078 0.0000151
v -0.4000000 0.1999939 0.0000151
v 0.3999878 0.1999939 0.0000151
v 0.3999878 -0.0740234 0.0000151
v 0.3875488 -0.0693237 0.0000151
v 0.3503906 -0.0556946 0.0000151
v 0.3420166 -0.0527832 0.0000151
v 0.2959229 -0.0372375 0.0000151
v 0.2493897 -0.0229858 0.0000151
v 0.2408936 -0.0204773 0.0000151
v 0.2027344 -0.0098755 0.0000151
v 0.1865723 -0.0055603 0.0000151
v 0.1559692 0.0020935 0.0000151
v 0.1329468 0.0076050 0.0000151
v 0.1090942 0.0129333 0.0000151
v 0.0799805 0.0191162 0.0000151
v 0.0620972 0.0226440 0.0000151
v 0.0276367 0.0290527 0.0000151
v 0.0149658 0.0312256 0.0000151
v -0.0240845 0.0374878 0.0000151
v -0.0322998 0.0386841 0.0000151
v -0.0752563 0.0444824 0.0000151
v -0.0797363 0.0450256 0.0000151
v -0.1259155 0.0500977 0.0000151
v -0.1273438 0.0502380 0.0000151
v -0.1565186 0.0527222 0.0000151
v -0.1751587 0.0543030 0.0000151
v -0.1760742 0.0543701 0.0000151
f 1 516 517
f 1 481 482
f 4 518 3
f 5 1 4
f 6 2 5
f 6 485 486
f 482 519 516
f 2 1 5
f 6 483 2
f 431 520 521
f 8 522 523
f 10 524 525
f 11 526 527
f 12 528 529
f 13 432 433
f 14 8 13
f 15 9 14
f 16 10 15
f 17 11 16
f 18 12 17
f 19 532 533
f 20 534 535
f 21 536 537
f 22 538 539
f 23 540 541
f 24 542 543
f 25 544 545
f 26 546 547
f 27 13 435
f 28 14 27
f 29 15 28
f 30 16 29
f 31 17 30
f 32 18 31
f 33 19 32
f 34 20 33
f 35 21 34
f 36 22 35
f 37 23 36
f 38 24 37
f 39 25 38
f 40 26 39
f 4 3 40
f 41 436 437
f 42 27 41
f 43 28 42
f 44 29 43
f 45 30 44
f 46 31 45
f 47 32 46
f 48 33 47
f 49 34 48
f 50 35 49
f 51 36 50
f 52 37 51
f 53 38 52
f 54 39 53
f 55 40 54
f 5 4 55
f 56 41 439
f 57 42 56
f 58 43 57
f 59 44 58
f 60 45 59
f 61 46 60
f 62 47 61
f 63 48 62
f 64 49 63
f 65 50 64
f 66 51 65
f 67 52 66
f 68 53 67
f 69 54 68
f 70 55 69
f 6 5 70
f 71 440 441
f 72 56 71
f 73 57 72
f 74 58 73
f 75 59 74
f 76 60 75
f 77 61 76
f 78 62 77
f 79 63 78
f 80 64 79
f 81 65 80
f 82 66 81
f 83 67 82
f 84 68 83
f 85 69 84
f 86 70 85
f 7 6 86
f 87 71 443
f 88 72 87
f 89 73 88
f 90 74 89
f 91 75 90
f 92 76 91
f 93 77 92
f 94 78 93
f 95 79 94
f 96 80 95
f 97 81 96
f 98 82 97
f 99 83 98
f 100 84 99
f 101 85 100
f 102 86 101
f 102 487 7
f 103 444 445
f 104 87 103
f 105 88 104
f 106 89 105
f 107 90 106
f 108 91 107
f 109 92 108
f 110 93 109
f 111 94 110
f 112 95 111
f 113 96 112
f 114 97 113
f 115 98 114
f 116 99 115
f 117 100 116
f 118 101 117
f 119 102 118
f 120 103 447
f 121 104 120
f 122 105 121
f 123 106 122
f 124 107 123
f 125 108 124
f 126 109 125
f 127 110 126
f 128 111 127
f 129 112 128
f 130 113 129
f 131 114 130
f 132 115 131
f 133 116 132
f 134 117 133
f 135 118 134
f 136 119 135
f 137 448 449
f 138 120 137
f 139 121 138
f 140 122 139
f 141 123 140
f 142 124 141
f 143 125 142
f 144 126 143
f 145 127 144
f 146 128 145
f 147 129 146
f 148 130 147
f 149 131 148
f 150 132 149
f 151 133 150
f 152 134 151
f 153 135 152
f 154 137 451
f 155 138 154
f 156 139 155
f 157 140 156
f 158 141 157
f 159 142 158
f 160 143 159
f 161 144 160
f 162 145 161
f 163 146 162
f 164 147 163
f 165 148 164
f 166 149 165
f 167 150 166
f 168 151 167
f 169 152 168
f 170 153 169
f 171 452 453
f 172 154 171
f 173 155 172
f 174 156 173
f 175 157 174
f 176 158 175
f 177 159 176
f 178 160 177
f 179 161 178
f 180 162 179
f 181 163 180
f 182 164 181
f 183 165 182
f 184 166 183
f 185 167 184
f 186 168 185
f 187 169 186
f 188 171 455
f 189 172 188
f 190 173 189
f 191 174 190
f 192 175 191
f 193 176 192
f 194 177 193
f 195 178 194
f 196 179 195
f 197 180 196
f 198 181 197
f 199 182 198
f 200 183 199
f 201 184 200
f 202 185 201
f 203 186 202
f 204 187 203
f 205 456 457
f 206 188 205
f 207 189 206
f 208 190 207
f 209 191 208
f 210 192 209
f 211 193 210
f 212 194 211
f 213 195 212
f 214 196 213
f 215 197 214
f 216 198 215
f 217 199 216
f 218 200 217
f 219 201 218
f 220 202 219
f 221 203 220
f 222 204 221
f 223 205 459
f 224 206 223
f 225 207 224
f 226 208 225
f 227 209 226
f 228 210 227
f 229 211 228
f 230 212 229
f 231 213 230
f 232 214 231
f 233 215 232
f 234 216 233
f 235 217 234
f 236 218 235
f 237 219 236
f 238 220 237
f 239 221 238
f 240 460 461
f 241 223 240
f 242 224 241
f 243 225 242
f 244 226 243
f 245 227 244
f 246 228 245
f 247 229 246
f 248 230 247
f 249 231 248
f 250 232 249
f 251 233 250
f 252 234 251
f 253 235 252
f 254 236 253
f 255 237 254
f 256 238 255
f 257 239 256
f 258 240 463
f 259 241 258
f 260 242 259
f 261 243 260
f 262 244 261
f 263 245 262
f 264 246 263
f 265 247 264
f 266 248 265
f 267 249 266
f 268 250 267
f 269 251 268
f 270 252 269
f 271 253 270
f 272 254 271
f 273 255 272
f 274 256 273
f 275 464 465
f 276 258 275
f 277 259 276
f 278 260 277
f 279 261 278
f 280 262 279
f 281 263 280
f 282 264 281
f 283 265 282
f 284 266 283
f 285 267 284
f 286 268 285
f 287 269 286
f 288 270 287
f 289 271 288
f 290 272 289
f 291 273 290
f 292 274 291
f 293 275 467
f 294 276 293
f 295 277 294
f 296 278 295
f 297 279 296
f 298 280 297
f 299 281 298
f 300 282 299
f 301 283 300
f 302 284 301
f 303 285 302
f 304 286 303
f 305 287 304
f 306 288 305
f 307 289 306
f 308 290 307
f 309 291 308
f 310 292 309
f 311 468 469
f 312 293 311
f 313 294 312
f 314 295 313
f 315 296 314
f 316 297 315
f 317 298 316
f 318 299 317
f 319 300 318
f 320 301 319
f 321 302 320
f 322 303 321
f 323 304 322
f 324 305 323
f 325 306 324
f 326 307 325
f 327 308 326
f 328 311 471
f 329 312 328
f 330 313 329
f 331 314 330
f 332 315 331
f 333 316 332
f 334 317 333
f 335 318 334
f 336 319 335
f 337 320 336
f 338 321 337
f 339 322 338
f 340 323 339
f 341 324 340
f 342 325 341
f 343 326 342
f 344 472 473
f 345 328 344
f 346 329 345
f 347 330 346
f 348 331 347
f 349 332 348
f 350 333 349
f 351 334 350
f 352 335 351
f 353 336 352
f 354 337 353
f 355 338 354
f 356 339 355
f 357 340 356
f 358 341 357
f 359 344 475
f 360 345 359
f 361 346 360
f 362 347 361
f 363 348 362
f 364 349 363
f 365 350 364
f 366 351 365
f 367 352 366
f 368 353 367
f 369 354 368
f 370 355 369
f 371 356 370
f 372 476 477
f 373 359 372
f 374 360 373
f 375 361 374
f 376 362 375
f 377 363 376
f 378 364 377
f 379 365 378
f 380 366 379
f 381 367 380
f 382 368 381
f 383 372 479
f 384 373 383
f 385 374 384
f 386 375 385
f 387 376 386
f 388 377 387
f 389 378 388
f 9 8 14
f 10 9 15
f 11 10 16
f 12 11 17
f 18 530 12
f 14 13 27
f 15 14 28
f 16 15 29
f 17 16 30
f 18 17 31
f 19 18 32
f 20 19 33
f 21 20 34
f 22 21 35
f 23 22 36
f 24 23 37
f 25 24 38
f 26 25 39
f 3 26 40
f 28 27 42
f 29 28 43
f 30 29 44
f 31 30 45
f 32 31 46
f 33 32 47
f 34 33 48
f 35 34 49
f 36 35 50
f 37 36 51
f 38 37 52
f 39 38 53
f 40 39 54
f 4 40 55
f 42 41 56
f 43 42 57
f 44 43 58
f 45 44 59
f 46 45 60
f 47 46 61
f 48 47 62
f 49 48 63
f 50 49 64
f 51 50 65
f 52 51 66
f 53 52 67
f 54 53 68
f 55 54 69
f 5 55 70
f 57 56 72
f 58 57 73
f 59 58 74
f 60 59 75
f 61 60 76
f 62 61 77
f 63 62 78
f 64 63 79
f 65 64 80
f 66 65 81
f 67 66 82
f 68 67 83
f 69 68 84
f 70 69 85
f 6 70 86
f 72 71 87
f 73 72 88
f 74 73 89
f 75 74 90
f 76 75 91
f 77 76 92
f 78 77 93
f 79 78 94
f 80 79 95
f 81 80 96
f 82 81 97
f 83 82 98
f 84 83 99
f 85 84 100
f 86 85 101
f 7 86 102
f 88 87 104
f 89 88 105
f 90 89 106
f 91 90 107
f 92 91 108
f 93 92 109
f 94 93 110
f 95 94 111
f 96 95 112
f 97 96 113
f 98 97 114
f 99 98 115
f 100 99 116
f 101 100 117
f 102 101 118
f 491 489 102
f 104 103 120
f 105 104 121
f 106 105 122
f 107 106 123
f 108 107 124
f 109 108 125
f 110 109 126
f 111 110 127
f 112 111 128
f 113 112 129
f 114 113 130
f 115 114 131
f 116 115 132
f 117 116 133
f 118 117 134
f 119 118 135
f 493 490 119
f 121 120 138
f 122 121 139
f 123 122 140
f 124 123 141
f 125 124 142
f 126 125 143
f 127 126 144
f 128 127 145
f 129 128 146
f 130 129 147
f 131 130 148
f 132 131 149
f 133 132 150
f 134 133 151
f 135 134 152
f 136 135 153
f 492 136 494
f 138 137 154
f 139 138 155
f 140 139 156
f 141 140 157
f 142 141 158
f 143 142 159
f 144 143 160
f 145 144 161
f 146 145 162
f 147 146 163
f 148 147 164
f 149 148 165
f 150 149 166
f 151 150 167
f 152 151 168
f 153 152 169
f 497 495 153
f 155 154 172
f 156 155 173
f 157 156 174
f 158 157 175
f 159 158 176
f 160 159 177
f 161 160 178
f 162 161 179
f 163 162 180
f 164 163 181
f 165 164 182
f 166 165 183
f 167 166 184
f 168 167 185
f 169 168 186
f 170 169 187
f 496 170 498
f 172 171 188
f 173 172 189
f 174 173 190
f 175 174 191
f 176 175 192
f 177 176 193
f 178 177 194
f 179 178 195
f 180 179 196
f 181 180 197
f 182 181 198
f 183 182 199
f 184 183 200
f 185 184 201
f 186 185 202
f 187 186 203
f 501 499 187
f 189 188 206
f 190 189 207
f 191 190 208
f 192 191 209
f 193 192 210
f 194 193 211
f 195 194 212
f 196 195 213
f 197 196 214
f 198 197 215
f 199 198 216
f 200 199 217
f 201 200 218
f 202 201 219
f 203 202 220
f 204 203 221
f 503 500 204
f 206 205 223
f 207 206 224
f 208 207 225
f 209 208 226
f 210 209 227
f 211 210 228
f 212 211 229
f 213 212 230
f 214 213 231
f 215 214 232
f 216 215 233
f 217 216 234
f 218 217 235
f 219 218 236
f 220 219 237
f 221 220 238
f 222 221 239
f 502 222 504
f 224 223 241
f 225 224 242
f 226 225 243
f 227 226 244
f 228 227 245
f 229 228 246
f 230 229 247
f 231 230 248
f 232 231 249
f 233 232 250
f 234 233 251
f 235 234 252
f 236 235 253
f 237 236 254
f 238 237 255
f 239 238 256
f 507 505 239
f 241 240 258
f 242 241 259
f 243 242 260
f 244 243 261
f 245 244 262
f 246 245 263
f 247 246 264
f 248 247 265
f 249 248 266
f 250 249 267
f 251 250 268
f 252 251 269
f 253 252 270
f 254 253 271
f 255 254 272
f 256 255 273
f 257 256 274
f 506 257 508
f 259 258 276
f 260 259 277
f 261 260 278
f 262 261 279
f 263 262 280
f 264 263 281
f 265 264 282
f 266 265 283
f 267 266 284
f 268 267 285
f 269 268 286
f 270 269 287
f 271 270 288
f 272 271 289
f 273 272 290
f 274 273 291
f 511 509 274
f 276 275 293
f 277 276 294
f 278 277 295
f 279 278 296
f 280 279 297
f 281 280 298
f 282 281 299
f 283 282 300
f 284 283 301
f 285 284 302
f 286 285 303
f 287 286 304
f 288 287 305
f 289 288 306
f 290 289 307
f 291 290 308
f 292 291 309
f 512 510 292
f 294 293 312
f 295 294 313
f 296 295 314
f 297 296 315
f 298 297 316
f 299 298 317
f 300 299 318
f 301 300 319
f 302 301 320
f 303 302 321
f 304 303 322
f 305 304 323
f 306 305 324
f 307 306 325
f 308 307 326
f 309 308 327
f 392 309 390
f 312 311 328
f 313 312 329
f 314 313 330
f 315 314 331
f 316 315 332
f 317 316 333
f 318 317 334
f 319 318 335
f 320 319 336
f 321 320 337
f 322 321 338
f 323 322 339
f 324 323 340
f 325 324 341
f 326 325 342
f 327 326 343
f 391 327 393
f 329 328 345
f 330 329 346
f 331 330 347
f 332 331 348
f 333 332 349
f 334 333 350
f 335 334 351
f 336 335 352
f 337 336 353
f 338 337 354
f 339 338 355
f 340 339 356
f 341 340 357
f 342 341 358
f 398 342 395
f 394 343 397
f 345 344 359
f 346 345 360
f 347 346 361
f 348 347 362
f 349 348 363
f 350 349 364
f 351 350 365
f 352 351 366
f 353 352 367
f 354 353 368
f 355 354 369
f 356 355 370
f 357 356 371
f 402 357 399
f 396 358 401
f 360 359 373
f 361 360 374
f 362 361 375
f 363 362 376
f 364 363 377
f 365 364 378
f 366 365 379
f 367 366 380
f 368 367 381
f 369 368 382
f 406 369 403
f 408 370 405
f 400 371 407
f 373 372 383
f 374 373 384
f 375 374 385
f 376 375 386
f 377 376 387
f 378 377 388
f 379 378 389
f 412 379 409
f 414 380 411
f 416 381 413
f 404 382 415
f 384 383 417
f 422 384 419
f 424 385 421
f 426 386 423
f 428 387 425
f 430 388 427
f 410 389 429
f 391 390 309
f 515 514 310
f 394 393 327
f 396 395 342
f 397 343 398
f 400 399 357
f 401 358 402
f 404 403 369
f 405 370 406
f 407 371 408
f 410 409 379
f 411 380 412
f 413 381 414
f 415 382 416
f 417 383 418
f 419 384 420
f 421 385 422
f 423 386 424
f 425 387 426
f 427 388 428
f 429 389 430
f 8 431 432
f 13 433 435
f 27 434 436
f 41 437 439
f 56 438 440
f 71 441 443
f 87 442 444
f 103 445 447
f 120 446 448
f 137 449 451
f 154 450 452
f 171 453 455
f 188 454 456
f 205 457 459
f 223 458 460
f 240 461 463
f 258 462 464
f 275 465 467
f 293 466 468
f 311 469 471
f 328 470 472
f 344 473 475
f 359 474 476
f 372 477 479
f 418 478 480
f 483 484 2
f 487 488 7
f 484 481 2
f 488 485 7
f 490 491 119
f 492 493 136
f 153 494 136
f 496 497 170
f 187 498 170
f 500 501 204
f 502 503 222
f 239 504 222
f 506 507 257
f 274 508 257
f 510 511 292
f 513 310 514
f 513 512 310
f 1 517 518
f 530 531 12
f 3 548 26
f 523 520 8
f 525 522 9
f 527 524 10
f 529 526 11
f 531 528 12
f 535 532 19
f 537 534 20
f 539 536 21
f 541 538 22
f 543 540 23
f 545 542 24
f 547 544 25
f 548 546 26
f 556 558 557
f 549 584 558
f 558 584 583
f 558 583 582
f 558 582 581
f 558 581 580
f 558 580 579
f 558 579 578
f 559 578 577
f 559 577 576
f 559 576 575
f 559 575 574
f 559 574 573
f 559 573 572
f 559 572 571
f 559 571 570
f 559 570 569
f 559 569 568
f 559 568 567
f 559 567 566
f 559 566 565
f 559 565 564
f 559 564 563
f 559 563 562
f 559 562 561
f 559 561 560
f 549 558 550
f 550 558 551
f 551 558 552
f 552 558 553
f 553 558 554
f 554 558 555
f 555 558 556
f 578 559 558
f 1 518 4
f 509 508 274
f 505 504 239
f 499 498 187
f 495 494 153
f 383 478 418
f 359 476 372
f 328 472 344
f 293 468 311
f 258 464 275
f 223 460 240
f 188 456 205
f 154 452 171
f 120 448 137
f 87 444 103
f 56 440 71
f 27 436 41
f 8 432 13
f 410 379 389
f 404 369 382
f 400 357 371
f 396 342 358
f 394 327 343
f 515 310 392
f 391 309 327
f 389 388 430
f 388 387 428
f 387 386 426
f 386 385 424
f 385 384 422
f 384 417 420
f 382 381 416
f 381 380 414
f 380 379 412
f 371 370 408
f 370 369 406
f 358 357 402
f 343 342 398
f 310 309 392
f 512 292 310
f 511 274 292
f 507 239 257
f 503 204 222
f 501 187 204
f 497 153 170
f 493 119 136
f 491 102 119
f 533 530 18
f 383 479 478
f 359 475 474
f 328 471 470
f 293 467 466
f 258 463 462
f 223 459 458
f 188 455 454
f 154 451 450
f 120 447 446
f 489 487 102
f 87 443 442
f 56 439 438
f 27 435 434
f 26 547 25
f 25 545 24
f 24 543 23
f 23 541 22
f 22 539 21
f 21 537 20
f 20 535 19
f 19 533 18
f 12 529 11
f 11 527 10
f 10 525 9
f 9 522 8
f 8 520 431
f 486 483 6
f 482 516 1
f 7 485 6
f 2 481 1
