# Decoded from sources/assets/lusion.dev/assets/models/lines/line_goal.buf
# Position/index data decoded from public .buf header and payload.
v -0.9715575 0.2368160 0.0000000
v 0.9714965 -0.2368770 0.0000000
v -0.9617308 0.2739863 0.0031281
v 0.9616698 -0.2740473 0.0031281
v -0.9333800 0.3589166 0.0062561
v 0.9333190 -0.3589776 0.0062561
v -0.8969115 0.4421989 0.0093994
v 0.8968505 -0.4422599 0.0093994
v -0.8637389 0.5039053 0.0125275
v 0.8636779 -0.5039969 0.0125275
v -0.8348388 0.5505056 0.0156708
v 0.8347777 -0.5505666 0.0156708
v -0.8088988 0.5879201 0.0187988
v 0.8088378 -0.5879811 0.0187988
v -0.7851256 0.6193226 0.0219269
v 0.7850646 -0.6193836 0.0219269
v -0.7628783 0.6465137 0.0250702
v 0.7628173 -0.6465747 0.0250702
v -0.7417602 0.6706531 0.0281982
v 0.7416991 -0.6707141 0.0281982
v -0.7214660 0.6924426 0.0313416
v 0.7214049 -0.6925036 0.0313416
v -0.7017516 0.7124010 0.0344696
v 0.7016906 -0.7124621 0.0344696
v -0.6824645 0.7308946 0.0376129
v 0.6824035 -0.7309557 0.0376129
v -0.6634826 0.7481676 0.0407410
v 0.6634216 -0.7482286 0.0407410
v -0.6446532 0.7644334 0.0438843
v 0.6445922 -0.7644944 0.0438843
v -0.6259155 0.7798753 0.0470123
v 0.6258544 -0.7799363 0.0470123
v -0.6071777 0.7945237 0.0501556
v 0.6071166 -0.7945847 0.0501556
v -0.5884094 0.8085312 0.0532837
v 0.5883483 -0.8085923 0.0532837
v -0.5695495 0.8219284 0.0564270
v 0.5694885 -0.8219894 0.0564270
v -0.5505370 0.8347763 0.0595551
v 0.5504760 -0.8348373 0.0595551
v -0.5313720 0.8471054 0.0626831
v 0.5313110 -0.8471664 0.0626831
v -0.5119933 0.8589767 0.0658264
v 0.5119323 -0.8590377 0.0658264
v -0.4923400 0.8703597 0.0689545
v 0.4922790 -0.8704208 0.0689545
v -0.4725036 0.8813155 0.0720978
v 0.4724426 -0.8813765 0.0720978
v -0.4523620 0.8917830 0.0752258
v 0.4523010 -0.8918441 0.0752258
v -0.4319763 0.9018538 0.0783691
v 0.4319152 -0.9019148 0.0783691
v -0.4112854 0.9114668 0.0814972
v 0.4112243 -0.9115279 0.0814972
v -0.3903198 0.9206526 0.0846405
v 0.3902587 -0.9207136 0.0846405
v -0.3690795 0.9293806 0.0877686
v 0.3690185 -0.9294416 0.0877686
v -0.3475341 0.9376203 0.0909119
v 0.3474731 -0.9376814 0.0909119
v -0.3257141 0.9454328 0.0940399
v 0.3256530 -0.9454939 0.0940399
v -0.3036499 0.9527570 0.0971832
v 0.3035888 -0.9528181 0.0971832
v -0.2813110 0.9595930 0.1003113
v 0.2812500 -0.9596540 0.1003113
v -0.2587280 0.9659101 0.1034393
v 0.2586670 -0.9659711 0.1034393
v -0.2359314 0.9717389 0.1065826
v 0.2358703 -0.9718000 0.1065826
v -0.2129211 0.9770185 0.1097107
v 0.2128601 -0.9770795 0.1097107
v -0.1897583 0.9817792 0.1128540
v 0.1896972 -0.9818402 0.1128540
v -0.1664734 0.9859906 0.1159821
v 0.1664123 -0.9860516 0.1159821
v -0.1430664 0.9896832 0.1191254
v 0.1430054 -0.9897443 0.1191254
v -0.1195373 0.9927960 0.1222534
v 0.1194763 -0.9928571 0.1222534
v -0.0959778 0.9953290 0.1253967
v 0.0959167 -0.9953900 0.1253967
v -0.0724182 0.9973431 0.1285248
v 0.0723572 -0.9974042 0.1285248
v -0.0488586 0.9987469 0.1316681
v 0.0487976 -0.9988080 0.1316681
v -0.0253601 0.9996319 0.1347961
v 0.0252991 -0.9996930 0.1347961
v -0.0019531 0.9999676 0.1379395
v 0.0018921 -0.9999982 0.1379395
v 0.0213013 0.9997235 0.1410675
v -0.0213623 -0.9997845 0.1410675
v 0.0444336 0.9989606 0.1441956
v -0.0444946 -0.9990216 0.1441956
v 0.0673523 0.9976788 0.1473389
v -0.0674133 -0.9977399 0.1473389
v 0.0900268 0.9958783 0.1504669
v -0.0900879 -0.9959393 0.1504669
v 0.1124267 0.9936200 0.1536102
v -0.1124878 -0.9936810 0.1536102
v 0.1345520 0.9908429 0.1567383
v -0.1346130 -0.9909039 0.1567383
v 0.1563415 0.9876386 0.1598816
v -0.1564026 -0.9876996 0.1598816
v 0.1775818 0.9840680 0.1630096
v -0.1776428 -0.9841290 0.1630096
v 0.1971130 0.9803144 0.1661530
v -0.1971740 -0.9803754 0.1661530
v 0.2138366 0.9768048 0.1692810
v -0.2138977 -0.9768659 0.1692810
v 0.2278442 0.9736310 0.1724243
v -0.2279052 -0.9736920 0.1724243
v 0.2394714 0.9708539 0.1755524
v -0.2395324 -0.9709150 0.1755524
v 0.2488708 0.9684736 0.1786957
v -0.2489319 -0.9685346 0.1786957
v 0.2561645 0.9665815 0.1818237
v -0.2562256 -0.9666425 0.1818237
v 0.2612304 0.9652387 0.1849670
v -0.2612915 -0.9652997 0.1849670
v 0.2640075 0.9644758 0.1880951
v -0.2640686 -0.9645368 0.1880951
v 0.2643127 0.9643842 0.1912384
v -0.2643737 -0.9644452 0.1912384
v 0.2617187 0.9650861 0.1943665
v -0.2617798 -0.9651471 0.1943665
v 0.2558899 0.9666425 0.1975098
v -0.2559509 -0.9667035 0.1975098
v 0.2464904 0.9690839 0.2006378
v -0.2465515 -0.9691449 0.2006378
v 0.2336731 0.9722577 0.2037659
v -0.2337341 -0.9723188 0.2037659
v 0.2184448 0.9757978 0.2069092
v -0.2185058 -0.9758588 0.2069092
v 0.2025451 0.9792157 0.2100372
v -0.2026062 -0.9792768 0.2100372
v 0.1866760 0.9823590 0.2131805
v -0.1867370 -0.9824201 0.2131805
v 0.1708069 0.9852582 0.2163086
v -0.1708679 -0.9853192 0.2163086
v 0.1549682 0.9878827 0.2194519
v -0.1550293 -0.9879437 0.2194519
v 0.1390686 0.9902325 0.2225800
v -0.1391296 -0.9902936 0.2225800
v 0.1231384 0.9923383 0.2257233
v -0.1231994 -0.9923993 0.2257233
v 0.1071167 0.9941998 0.2288513
v -0.1071777 -0.9942609 0.2288513
v 0.0910034 0.9957867 0.2319946
v -0.0910644 -0.9958478 0.2319946
v 0.0747375 0.9971600 0.2351227
v -0.0747986 -0.9972211 0.2351227
v 0.0583191 0.9982587 0.2382660
v -0.0583801 -0.9983197 0.2382660
v 0.0416870 0.9990826 0.2413940
v -0.0417480 -0.9991437 0.2413940
v 0.0248413 0.9996319 0.2445221
v -0.0249023 -0.9996930 0.2445221
v 0.0077209 0.9999371 0.2476654
v -0.0077820 -0.9999982 0.2476654
v -0.0097046 0.9999066 0.2507935
v 0.0096436 -0.9999676 0.2507935
v -0.0274658 0.9995709 0.2539368
v 0.0274048 -0.9996319 0.2539368
v -0.0455933 0.9989300 0.2570648
v 0.0455322 -0.9989911 0.2570648
v -0.0641785 0.9978924 0.2602081
v 0.0641174 -0.9979535 0.2602081
v -0.0831909 0.9964886 0.2633362
v 0.0831299 -0.9965497 0.2633362
v -0.1027222 0.9946576 0.2664795
v 0.1026611 -0.9947186 0.2664795
v -0.1228332 0.9923688 0.2696075
v 0.1227722 -0.9924298 0.2696075
v -0.1435852 0.9895917 0.2727509
v 0.1435242 -0.9896527 0.2727509
v -0.1649475 0.9862653 0.2758789
v 0.1648865 -0.9863263 0.2758789
v -0.1870727 0.9822980 0.2790222
v 0.1870117 -0.9823590 0.2790222
v -0.2099914 0.9776593 0.2821503
v 0.2099304 -0.9777204 0.2821503
v -0.2337646 0.9722577 0.2852936
v 0.2337036 -0.9723188 0.2852936
v -0.2584533 0.9660016 0.2884216
v 0.2583923 -0.9660627 0.2884216
v -0.2841186 0.9587385 0.2915497
v 0.2840576 -0.9587995 0.2915497
v -0.3108520 0.9504072 0.2946930
v 0.3107910 -0.9504682 0.2946930
v -0.3387146 0.9408552 0.2978210
v 0.3386535 -0.9409162 0.2978210
v -0.3677368 0.9298994 0.3009644
v 0.3676757 -0.9299604 0.3009644
v -0.3979797 0.9173567 0.3040924
v 0.3979187 -0.9174177 0.3040924
v -0.4294433 0.9030745 0.3072357
v 0.4293823 -0.9031355 0.3072357
v -0.4621887 0.8867476 0.3103638
v 0.4621276 -0.8868087 0.3103638
v -0.4961852 0.8681930 0.3135071
v 0.4961242 -0.8682540 0.3135071
v -0.5314025 0.8471054 0.3166351
v 0.5313415 -0.8471664 0.3166351
v -0.5677184 0.8232101 0.3197784
v 0.5676574 -0.8232712 0.3197784
v -0.6049499 0.7962327 0.3229065
v 0.6048888 -0.7962937 0.3229065
v -0.6429137 0.7659288 0.3260345
v 0.6428527 -0.7659898 0.3260345
v -0.6812438 0.7320238 0.3291779
v 0.6811828 -0.7320848 0.3291779
v -0.7195739 0.6943957 0.3323059
v 0.7195129 -0.6944567 0.3323059
v -0.7573852 0.6529529 0.3354492
v 0.7573241 -0.6530139 0.3354492
v -0.7940978 0.6077870 0.3385773
v 0.7940368 -0.6078480 0.3385773
v -0.8291320 0.5590505 0.3417206
v 0.8290709 -0.5591115 0.3417206
v -0.8618773 0.5071097 0.3448486
v 0.8618163 -0.5071707 0.3448486
v -0.8917540 0.4525443 0.3479919
v 0.8916930 -0.4526054 0.3479919
v -0.9182433 0.3959954 0.3511200
v 0.9181823 -0.3960564 0.3511200
v -0.9410704 0.3382257 0.3542480
v 0.9410094 -0.3382867 0.3542480
v -0.9599913 0.2800593 0.3573914
v 0.9599303 -0.2801203 0.3573914
v -0.9749755 0.2222896 0.3605194
v 0.9749144 -0.2223507 0.3605194
v -0.9862059 0.1656491 0.3636627
v 0.9861449 -0.1657101 0.3636627
v -0.9938353 0.1108702 0.3667908
v 0.9937743 -0.1109312 0.3667908
v -0.9981993 0.0603331 0.3699341
v 0.9981383 -0.0603942 0.3699341
v -0.9998778 0.0163574 0.3730621
v 0.9998168 -0.0164184 0.3730621
v -0.9997557 -0.0223388 0.3762054
v 0.9996947 0.0222778 0.3762054
v -0.9982909 -0.0588073 0.3793335
v 0.9982299 0.0587462 0.3793335
v -0.9953307 -0.0967100 0.3824768
v 0.9952697 0.0966490 0.3824768
v -0.9900817 -0.1405942 0.3856049
v 0.9900206 0.1405332 0.3856049
v -0.9813231 -0.1925045 0.3887329
v 0.9812621 0.1924435 0.3887329
v -0.9688720 -0.2476497 0.3918762
v 0.9688109 0.2475887 0.3918762
v -0.9544982 -0.2983088 0.3950043
v 0.9544371 0.2982477 0.3950043
v -0.9386901 -0.3448175 0.3981476
v 0.9386290 0.3447564 0.3981476
v -0.9203795 -0.3911126 0.4012756
v 0.9203185 0.3910515 0.4012756
v -0.8992919 -0.4374076 0.4044189
v 0.8992309 0.4373466 0.4044189
v -0.8755187 -0.4832450 0.4075470
v 0.8754577 0.4831839 0.4075470
v -0.8492125 -0.5281362 0.4106903
v 0.8491515 0.5280752 0.4106903
v -0.8205260 -0.5716542 0.4138184
v 0.8204650 0.5715932 0.4138184
v -0.7898253 -0.6134022 0.4169464
v 0.7897643 0.6133412 0.4169464
v -0.7573546 -0.6530444 0.4200897
v 0.7572936 0.6529834 0.4200897
v -0.7235107 -0.6903674 0.4232178
v 0.7234496 0.6903063 0.4232178
v -0.6886901 -0.7250963 0.4263611
v 0.6886291 0.7250353 0.4263611
v -0.6532287 -0.7572007 0.4294891
v 0.6531676 0.7571397 0.4294891
v -0.6174621 -0.7866196 0.4326324
v 0.6174010 0.7865586 0.4326324
v -0.5816650 -0.8134751 0.4357605
v 0.5816039 0.8134140 0.4357605
v -0.5460510 -0.8377975 0.4389038
v 0.5459899 0.8377365 0.4389038
v -0.5108337 -0.8597091 0.4420319
v 0.5107726 0.8596481 0.4420319
v -0.4761352 -0.8794234 0.4451599
v 0.4760742 0.8793624 0.4451599
v -0.4420165 -0.8970320 0.4483032
v 0.4419555 0.8969710 0.4483032
v -0.4085083 -0.9127791 0.4514313
v 0.4084472 0.9127180 0.4514313
v -0.3756408 -0.9267866 0.4545746
v 0.3755798 0.9267256 0.4545746
v -0.3433532 -0.9392378 0.4577026
v 0.3432922 0.9391767 0.4577026
v -0.3115234 -0.9502546 0.4608459
v 0.3114624 0.9501936 0.4608459
v -0.2800598 -0.9599897 0.4639740
v 0.2799987 0.9599286 0.4639740
v -0.2487487 -0.9685956 0.4671173
v 0.2486877 0.9685346 0.4671173
v -0.2172241 -0.9761335 0.4702454
v 0.2171631 0.9760724 0.4702454
v -0.1843567 -0.9828778 0.4733887
v 0.1842956 0.9828168 0.4733887
v -0.1492309 -0.9888287 0.4765167
v 0.1491699 0.9887677 0.4765167
v -0.1133118 -0.9935895 0.4796448
v 0.1132507 0.9935284 0.4796448
v -0.0777893 -0.9969769 0.4827881
v 0.0777283 0.9969159 0.4827881
v -0.0420837 -0.9991437 0.4859161
v 0.0420227 0.9990826 0.4859161
v -0.0057068 -0.9999982 0.4890594
v 0.0056458 0.9999371 0.4890594
v 0.0321045 -0.9995099 0.4921875
v -0.0321655 0.9994488 0.4921875
v 0.0718079 -0.9974347 0.4953308
v -0.0718689 0.9973736 0.4953308
v 0.1138916 -0.9934979 0.4984589
v -0.1139526 0.9934369 0.4984589
v 0.1588440 -0.9873029 0.5016022
v -0.1589050 0.9872418 0.5016022
v 0.2070312 -0.9783307 0.5047302
v -0.2070923 0.9782697 0.5047302
v 0.2588195 -0.9659406 0.5078735
v -0.2588806 0.9658796 0.5078735
v 0.3144226 -0.9492780 0.5110016
v -0.3144836 0.9492170 0.5110016
v 0.3738708 -0.9274885 0.5141296
v -0.3739318 0.9274275 0.5141296
v 0.4368286 -0.8995345 0.5172729
v -0.4368896 0.8994734 0.5172729
v 0.5026245 -0.8645004 0.5204010
v -0.5026855 0.8644393 0.5204010
v 0.5700988 -0.8215622 0.5235443
v -0.5701598 0.8215012 0.5235443
v 0.6375732 -0.7703843 0.5266724
v -0.6376342 0.7703233 0.5266724
v 0.7029723 -0.7111803 0.5298004
v -0.7030334 0.7111193 0.5298004
v 0.7641601 -0.6449878 0.5329437
v -0.7642211 0.6449268 0.5329437
v 0.8191833 -0.5735158 0.5360718
v -0.8192443 0.5734548 0.5360718
v 0.8665770 -0.4989920 0.5392151
v -0.8666381 0.4989310 0.5392151
v 0.9057006 -0.4238579 0.5423431
v -0.9057616 0.4237968 0.5423431
v 0.9366149 -0.3503106 0.5454712
v -0.9366759 0.3502496 0.5454712
v 0.9599608 -0.2799983 0.5486145
v -0.9600219 0.2799372 0.5486145
v 0.9767760 -0.2140499 0.5517426
v -0.9768370 0.2139889 0.5517426
v 0.9881591 -0.1531064 0.5548859
v -0.9882201 0.1530454 0.5548859
v 0.9952086 -0.0973204 0.5580139
v -0.9952697 0.0972593 0.5580139
v 0.9988707 -0.0465392 0.5611572
v -0.9989318 0.0464782 0.5611572
v 0.9999694 -0.0006409 0.5642853
v -0.9999999 0.0005798 0.5642853
v 0.9992675 0.0368957 0.5674133
v -0.9993285 -0.0369567 0.5674133
v 0.9981383 0.0603942 0.5705566
v -0.9981993 -0.0604552 0.5705566
v 0.9975280 0.0696105 0.5736847
v -0.9975890 -0.0696715 0.5736847
v 0.9975890 0.0688475 0.5768280
v -0.9976500 -0.0689086 0.5768280
v 0.9980468 0.0617064 0.5799561
v -0.9981078 -0.0617675 0.5799561
v 0.9987181 0.0498046 0.5830994
v -0.9987792 -0.0498656 0.5830994
v 0.9993895 0.0332946 0.5862274
v -0.9994506 -0.0333557 0.5862274
v 0.9998778 0.0118713 0.5893707
v -0.9999388 -0.0119324 0.5893707
v 0.9998473 -0.0155334 0.5924988
v -0.9999083 0.0154724 0.5924988
v 0.9986571 -0.0509948 0.5956421
v -0.9987181 0.0509337 0.5956421
v 0.9953307 -0.0960081 0.5987701
v -0.9953917 0.0959471 0.5987701
v 0.9888915 -0.1483457 0.6019135
v -0.9889525 0.1482846 0.6019135
v 0.9786681 -0.2052914 0.6050415
v -0.9787291 0.2052303 0.6050415
v 0.9637755 -0.2665706 0.6081848
v -0.9638366 0.2665095 0.6081848
v 0.9431762 -0.3321832 0.6113129
v -0.9432372 0.3321222 0.6113129
v 0.9156493 -0.4019463 0.6144562
v -0.9157103 0.4018852 0.6144562
v 0.8797606 -0.4753409 0.6175842
v -0.8798217 0.4752799 0.6175842
v 0.8341369 -0.5515127 0.6207123
v -0.8341979 0.5514516 0.6207123
v 0.7772521 -0.6291492 0.6238556
v -0.7773131 0.6290882 0.6238556
v 0.7078246 -0.7063586 0.6269836
v -0.7078857 0.7062975 0.6269836
v 0.6247863 -0.7807908 0.6301117
v -0.6248473 0.7807298 0.6301117
v 0.5275878 -0.8494857 0.6332550
v -0.5276489 0.8494247 0.6332550
v 0.4163513 -0.9092085 0.6363831
v -0.4164123 0.9091475 0.6363831
v 0.2920532 -0.9564191 0.6395111
v -0.2921142 0.9563581 0.6395111
v 0.1565246 -0.9876996 0.6426544
v -0.1565857 0.9876386 0.6426544
v 0.0126648 -0.9999371 0.6457825
v -0.0127258 0.9998761 0.6457825
v -0.1355591 -0.9907819 0.6489105
v 0.1354980 0.9907208 0.6489105
v -0.2832336 -0.9590742 0.6520538
v 0.2831726 0.9590131 0.6520538
v -0.4248962 -0.9052718 0.6551819
v 0.4248352 0.9052107 0.6551819
v -0.5549926 -0.8318771 0.6583099
v 0.5549316 0.8318161 0.6583099
v -0.6690673 -0.7432542 0.6614380
v 0.6690063 0.7431932 0.6614380
v -0.7643432 -0.6448352 0.6645813
v 0.7642821 0.6447742 0.6645813
v -0.8402099 -0.5423269 0.6677094
v 0.8401488 0.5422658 0.6677094
v -0.8977660 -0.4405509 0.6708374
v 0.8977050 0.4404899 0.6708374
v -0.9393309 -0.3430475 0.6739807
v 0.9392699 0.3429864 0.6739807
v -0.9677428 -0.2520137 0.6771088
v 0.9676818 0.2519527 0.6771088
v -0.9857177 -0.1685178 0.6802521
v 0.9856566 0.1684567 0.6802521
v -0.9956969 -0.0927427 0.6833801
v 0.9956359 0.0926817 0.6833801
v -0.9997252 -0.0244140 0.6865082
v 0.9996642 0.0243530 0.6865082
v -0.9993285 0.0369872 0.6896515
v 0.9992675 -0.0370483 0.6896515
v -0.9957579 0.0921324 0.6927795
v 0.9956969 -0.0921934 0.6927795
v -0.9899291 0.1416929 0.6959229
v 0.9898680 -0.1417539 0.6959229
v -0.9825133 0.1863095 0.6990509
v 0.9824523 -0.1863705 0.6990509
v -0.9739989 0.2265926 0.7021942
v 0.9739379 -0.2266536 0.7021942
v -0.9647826 0.2630916 0.7053223
v 0.9647216 -0.2631526 0.7053223
v -0.9551085 0.2962641 0.7084503
v 0.9550475 -0.2963251 0.7084503
v -0.9452208 0.3264764 0.7115936
v 0.9451598 -0.3265375 0.7115936
v -0.9352111 0.3540948 0.7147369
v 0.9351500 -0.3541558 0.7147369
v -0.9252318 0.3794243 0.7178650
v 0.9251708 -0.3794854 0.7178650
v -0.9153136 0.4027397 0.7209930
v 0.9152526 -0.4028008 0.7209930
v -0.9055480 0.4242241 0.7241364
v 0.9054870 -0.4242851 0.7241364
v -0.8959655 0.4441215 0.7272644
v 0.8959044 -0.4441825 0.7272644
v -0.8865661 0.4625846 0.7304077
v 0.8865050 -0.4626456 0.7304077
v -0.8774108 0.4797354 0.7335358
v 0.8773497 -0.4797965 0.7335358
v -0.8684691 0.4957571 0.7366791
v 0.8684081 -0.4958182 0.7366791
v -0.8597411 0.5107107 0.7398071
v 0.8596801 -0.5107718 0.7398071
v -0.8512877 0.5246878 0.7429352
v 0.8512267 -0.5247488 0.7429352
v -0.8430480 0.5378408 0.7460785
v 0.8429870 -0.5379018 0.7460785
v -0.8350829 0.5501088 0.7492218
v 0.8350219 -0.5501699 0.7492218
v -0.8278808 0.5608815 0.7523499
v 0.8278197 -0.5609426 0.7523499
v -0.8217467 0.5698537 0.7554932
v 0.8216857 -0.5699147 0.7554932
v -0.8165282 0.5773000 0.7586212
v 0.8164672 -0.5773610 0.7586212
v -0.8121032 0.5834950 0.7617645
v 0.8120421 -0.5835561 0.7617645
v -0.8083190 0.5887135 0.7648926
v 0.8082580 -0.5887745 0.7648926
v -0.8051757 0.5930165 0.7680359
v 0.8051147 -0.5930775 0.7680359
v -0.8026732 0.5964039 0.7711792
v 0.8026122 -0.5964650 0.7711792
v -0.8009337 0.5987233 0.7743073
v 0.8008727 -0.5987843 0.7743073
v -0.8003539 0.5994862 0.7774506
v 0.8002929 -0.5995472 0.7774506
v -0.8017882 0.5975941 0.7805939
v 0.8017272 -0.5976551 0.7805939
v -0.8066405 0.5910328 0.7837219
v 0.8065795 -0.5910939 0.7837219
v -0.8200377 0.5722951 0.7868500
v 0.8199767 -0.5723561 0.7868500
v -0.8521422 0.5233145 0.7899780
v 0.8520812 -0.5233755 0.7899780
v -0.8934630 0.4491569 0.7931061
v 0.8934020 -0.4492179 0.7931061
v -0.9277343 0.3732293 0.7962494
v 0.9276732 -0.3732903 0.7962494
v -0.9541625 0.2992853 0.7993774
v 0.9541014 -0.2993464 0.7993774
v -0.9743956 0.2248226 0.8025055
v 0.9743346 -0.2248836 0.8025055
v -0.9889525 0.1483152 0.8056488
v 0.9888915 -0.1483762 0.8056488
v -0.9976500 0.0685729 0.8087769
v 0.9975890 -0.0686339 0.8087769
v -0.9999083 -0.0153808 0.8119202
v 0.9998473 0.0153198 0.8119202
v -0.9945983 -0.1040342 0.8150482
v 0.9945372 0.1039732 0.8150482
v -0.9803466 -0.1974178 0.8181763
v 0.9802855 0.1973568 0.8181763
v -0.9555968 -0.2947077 0.8213196
v 0.9555358 0.2946467 0.8213196
v -0.9190978 -0.3941033 0.8244476
v 0.9190368 0.3940422 0.8244476
v -0.8702697 -0.4926444 0.8275909
v 0.8702086 0.4925833 0.8275909
v -0.8096923 -0.5868825 0.8307190
v 0.8096313 0.5868214 0.8307190
v -0.7394103 -0.6733081 0.8338470
v 0.7393493 0.6732470 0.8338470
v -0.6624755 -0.7491441 0.8369904
v 0.6624145 0.7490831 0.8369904
v -0.5825195 -0.8128342 0.8401184
v 0.5824584 0.8127732 0.8401184
v -0.5029907 -0.8643173 0.8432465
v 0.5029296 0.8642562 0.8432465
v -0.4264831 -0.9045088 0.8463898
v 0.4264221 0.9044478 0.8463898
v -0.3547668 -0.9349653 0.8495178
v 0.3547058 0.9349043 0.8495178
v -0.2886963 -0.9574567 0.8526611
v 0.2886352 0.9573957 0.8526611
v -0.2284851 -0.9735700 0.8557892
v 0.2284240 0.9735089 0.8557892
v -0.1740112 -0.9847699 0.8589325
v 0.1739502 0.9847089 0.8589325
v -0.1248474 -0.9921857 0.8620605
v 0.1247864 0.9921246 0.8620605
v -0.0805359 -0.9967633 0.8651886
v 0.0804748 0.9967023 0.8651886
v -0.0405273 -0.9992047 0.8683319
v 0.0404663 0.9991437 0.8683319
v -0.0043945 -0.9999982 0.8714600
v 0.0043335 0.9999371 0.8714600
v 0.0283813 -0.9996014 0.8746033
v -0.0284424 0.9995404 0.8746033
v 0.0581665 -0.9983197 0.8777313
v -0.0582275 0.9982587 0.8777313
v 0.0853271 -0.9963666 0.8808746
v -0.0853882 0.9963055 0.8808746
v 0.1101990 -0.9939252 0.8840027
v -0.1102600 0.9938641 0.8840027
v 0.1329956 -0.9911176 0.8871460
v -0.1330566 0.9910565 0.8871460
v 0.1540222 -0.9880658 0.8902740
v -0.1540832 0.9880048 0.8902740
v 0.1731567 -0.9848920 0.8934174
v -0.1732178 0.9848309 0.8934174
v 0.1894226 -0.9819013 0.8965454
v -0.1894836 0.9818402 0.8965454
v 0.2021789 -0.9793683 0.8996887
v -0.2022400 0.9793073 0.8996887
v 0.2119751 -0.9772931 0.9028168
v -0.2120361 0.9772321 0.9028168
v 0.2193298 -0.9756452 0.9059601
v -0.2193908 0.9755841 0.9059601
v 0.2244568 -0.9744855 0.9090881
v -0.2245178 0.9744245 0.9090881
v 0.2273864 -0.9738141 0.9122314
v -0.2274475 0.9737531 0.9122314
v 0.2279968 -0.9736615 0.9153595
v -0.2280578 0.9736005 0.9153595
v 0.2261352 -0.9741193 0.9184875
v -0.2261963 0.9740583 0.9184875
v 0.2212524 -0.9752179 0.9216309
v -0.2213135 0.9751569 0.9216309
v 0.2126159 -0.9771405 0.9247589
v -0.2126770 0.9770795 0.9247589
v 0.1990967 -0.9799787 0.9279022
v -0.1991577 0.9799176 0.9279022
v 0.1797485 -0.9837323 0.9310303
v -0.1798095 0.9836713 0.9310303
v 0.1553039 -0.9878827 0.9341736
v -0.1553650 0.9878217 0.9341736
v 0.1271057 -0.9919110 0.9373016
v -0.1271667 0.9918500 0.9373016
v 0.0950622 -0.9954816 0.9404449
v -0.0951233 0.9954205 0.9404449
v 0.0583801 -0.9983197 0.9435730
v -0.0584412 0.9982587 0.9435730
v 0.0161133 -0.9998761 0.9467163
v -0.0161743 0.9998150 0.9467163
v -0.0330505 -0.9994794 0.9498444
v 0.0329895 0.9994183 0.9498444
v -0.0905456 -0.9959088 0.9529877
v 0.0904846 0.9958478 0.9529877
v -0.1580200 -0.9874555 0.9561157
v 0.1579590 0.9873944 0.9561157
v -0.2371521 -0.9714948 0.9592438
v 0.2370910 0.9714338 0.9592438
v -0.3290710 -0.9443342 0.9623871
v 0.3290100 0.9442732 0.9623871
v -0.4332885 -0.9012740 0.9655151
v 0.4332275 0.9012129 0.9655151
v -0.5463256 -0.8376144 0.9686432
v 0.5462646 0.8375534 0.9686432
v -0.6605834 -0.7507921 0.9717865
v 0.6605224 0.7507310 0.9717865
v -0.7656249 -0.6433399 0.9749146
v 0.7655639 0.6432788 0.9749146
v -0.8519896 -0.5235891 0.9780426
v 0.8519286 0.5235281 0.9780426
v -0.9152526 -0.4029228 0.9811859
v 0.9151915 0.4028618 0.9811859
v -0.9566954 -0.2911677 0.9843140
v 0.9566344 0.2911066 0.9843140
v -0.9808959 -0.1947018 0.9874420
v 0.9808348 0.1946408 0.9874420
v -0.9930724 -0.1175535 0.9905853
v 0.9930114 0.1174925 0.9905853
v -0.9977111 -0.0678710 0.9937134
v 0.9976500 0.0678099 0.9937134
v -0.9946898 -0.1031187 0.9968567
v 0.9946288 0.1030577 0.9968567
v -0.9880370 -0.1544492 0.9999847
v 0.9879760 0.1543881 0.9999847
f 1 4 2
f 4 1 3
f 3 6 4
f 6 3 5
f 5 8 6
f 8 5 7
f 7 10 8
f 10 7 9
f 9 12 10
f 12 9 11
f 11 14 12
f 14 11 13
f 13 16 14
f 16 13 15
f 15 18 16
f 18 15 17
f 17 20 18
f 20 17 19
f 19 22 20
f 22 19 21
f 21 24 22
f 24 21 23
f 23 26 24
f 26 23 25
f 25 28 26
f 28 25 27
f 27 30 28
f 30 27 29
f 29 32 30
f 32 29 31
f 31 34 32
f 34 31 33
f 33 36 34
f 36 33 35
f 35 38 36
f 38 35 37
f 37 40 38
f 40 37 39
f 39 42 40
f 42 39 41
f 41 44 42
f 44 41 43
f 43 46 44
f 46 43 45
f 45 48 46
f 48 45 47
f 47 50 48
f 50 47 49
f 49 52 50
f 52 49 51
f 51 54 52
f 54 51 53
f 53 56 54
f 56 53 55
f 55 58 56
f 58 55 57
f 57 60 58
f 60 57 59
f 59 62 60
f 62 59 61
f 61 64 62
f 64 61 63
f 63 66 64
f 66 63 65
f 65 68 66
f 68 65 67
f 67 70 68
f 70 67 69
f 69 72 70
f 72 69 71
f 71 74 72
f 74 71 73
f 73 76 74
f 76 73 75
f 75 78 76
f 78 75 77
f 77 80 78
f 80 77 79
f 79 82 80
f 82 79 81
f 81 84 82
f 84 81 83
f 83 86 84
f 86 83 85
f 85 88 86
f 88 85 87
f 87 90 88
f 90 87 89
f 89 92 90
f 92 89 91
f 91 94 92
f 94 91 93
f 93 96 94
f 96 93 95
f 95 98 96
f 98 95 97
f 97 100 98
f 100 97 99
f 99 102 100
f 102 99 101
f 101 104 102
f 104 101 103
f 103 106 104
f 106 103 105
f 105 108 106
f 108 105 107
f 107 110 108
f 110 107 109
f 109 112 110
f 112 109 111
f 111 114 112
f 114 111 113
f 113 116 114
f 116 113 115
f 115 118 116
f 118 115 117
f 117 120 118
f 120 117 119
f 119 122 120
f 122 119 121
f 121 124 122
f 124 121 123
f 123 126 124
f 126 123 125
f 125 128 126
f 128 125 127
f 127 130 128
f 130 127 129
f 129 132 130
f 132 129 131
f 131 134 132
f 134 131 133
f 133 136 134
f 136 133 135
f 135 138 136
f 138 135 137
f 137 140 138
f 140 137 139
f 139 142 140
f 142 139 141
f 141 144 142
f 144 141 143
f 143 146 144
f 146 143 145
f 145 148 146
f 148 145 147
f 147 150 148
f 150 147 149
f 149 152 150
f 152 149 151
f 151 154 152
f 154 151 153
f 153 156 154
f 156 153 155
f 155 158 156
f 158 155 157
f 157 160 158
f 160 157 159
f 159 162 160
f 162 159 161
f 161 164 162
f 164 161 163
f 163 166 164
f 166 163 165
f 165 168 166
f 168 165 167
f 167 170 168
f 170 167 169
f 169 172 170
f 172 169 171
f 171 174 172
f 174 171 173
f 173 176 174
f 176 173 175
f 175 178 176
f 178 175 177
f 177 180 178
f 180 177 179
f 179 182 180
f 182 179 181
f 181 184 182
f 184 181 183
f 183 186 184
f 186 183 185
f 185 188 186
f 188 185 187
f 187 190 188
f 190 187 189
f 189 192 190
f 192 189 191
f 191 194 192
f 194 191 193
f 193 196 194
f 196 193 195
f 195 198 196
f 198 195 197
f 197 200 198
f 200 197 199
f 199 202 200
f 202 199 201
f 201 204 202
f 204 201 203
f 203 206 204
f 206 203 205
f 205 208 206
f 208 205 207
f 207 210 208
f 210 207 209
f 209 212 210
f 212 209 211
f 211 214 212
f 214 211 213
f 213 216 214
f 216 213 215
f 215 218 216
f 218 215 217
f 217 220 218
f 220 217 219
f 219 222 220
f 222 219 221
f 221 224 222
f 224 221 223
f 223 226 224
f 226 223 225
f 225 228 226
f 228 225 227
f 227 230 228
f 230 227 229
f 229 232 230
f 232 229 231
f 231 234 232
f 234 231 233
f 233 236 234
f 236 233 235
f 235 238 236
f 238 235 237
f 237 240 238
f 240 237 239
f 239 242 240
f 242 239 241
f 241 244 242
f 244 241 243
f 243 246 244
f 246 243 245
f 245 248 246
f 248 245 247
f 247 250 248
f 250 247 249
f 249 252 250
f 252 249 251
f 251 254 252
f 254 251 253
f 253 256 254
f 256 253 255
f 255 258 256
f 258 255 257
f 257 260 258
f 260 257 259
f 259 262 260
f 262 259 261
f 261 264 262
f 264 261 263
f 263 266 264
f 266 263 265
f 265 268 266
f 268 265 267
f 267 270 268
f 270 267 269
f 269 272 270
f 272 269 271
f 271 274 272
f 274 271 273
f 273 276 274
f 276 273 275
f 275 278 276
f 278 275 277
f 277 280 278
f 280 277 279
f 279 282 280
f 282 279 281
f 281 284 282
f 284 281 283
f 283 286 284
f 286 283 285
f 285 288 286
f 288 285 287
f 287 290 288
f 290 287 289
f 289 292 290
f 292 289 291
f 291 294 292
f 294 291 293
f 293 296 294
f 296 293 295
f 295 298 296
f 298 295 297
f 297 300 298
f 300 297 299
f 299 302 300
f 302 299 301
f 301 304 302
f 304 301 303
f 303 306 304
f 306 303 305
f 305 308 306
f 308 305 307
f 307 310 308
f 310 307 309
f 309 312 310
f 312 309 311
f 311 314 312
f 314 311 313
f 313 316 314
f 316 313 315
f 315 318 316
f 318 315 317
f 317 320 318
f 320 317 319
f 319 322 320
f 322 319 321
f 321 324 322
f 324 321 323
f 323 326 324
f 326 323 325
f 325 328 326
f 328 325 327
f 327 330 328
f 330 327 329
f 329 332 330
f 332 329 331
f 331 334 332
f 334 331 333
f 333 336 334
f 336 333 335
f 335 338 336
f 338 335 337
f 337 340 338
f 340 337 339
f 339 342 340
f 342 339 341
f 341 344 342
f 344 341 343
f 343 346 344
f 346 343 345
f 345 348 346
f 348 345 347
f 347 350 348
f 350 347 349
f 349 352 350
f 352 349 351
f 351 354 352
f 354 351 353
f 353 356 354
f 356 353 355
f 355 358 356
f 358 355 357
f 357 360 358
f 360 357 359
f 359 362 360
f 362 359 361
f 361 364 362
f 364 361 363
f 363 366 364
f 366 363 365
f 365 368 366
f 368 365 367
f 367 370 368
f 370 367 369
f 369 372 370
f 372 369 371
f 371 374 372
f 374 371 373
f 373 376 374
f 376 373 375
f 375 378 376
f 378 375 377
f 377 380 378
f 380 377 379
f 379 382 380
f 382 379 381
f 381 384 382
f 384 381 383
f 383 386 384
f 386 383 385
f 385 388 386
f 388 385 387
f 387 390 388
f 390 387 389
f 389 392 390
f 392 389 391
f 391 394 392
f 394 391 393
f 393 396 394
f 396 393 395
f 395 398 396
f 398 395 397
f 397 400 398
f 400 397 399
f 399 402 400
f 402 399 401
f 401 404 402
f 404 401 403
f 403 406 404
f 406 403 405
f 405 408 406
f 408 405 407
f 407 410 408
f 410 407 409
f 409 412 410
f 412 409 411
f 411 414 412
f 414 411 413
f 413 416 414
f 416 413 415
f 415 418 416
f 418 415 417
f 417 420 418
f 420 417 419
f 419 422 420
f 422 419 421
f 421 424 422
f 424 421 423
f 423 426 424
f 426 423 425
f 425 428 426
f 428 425 427
f 427 430 428
f 430 427 429
f 429 432 430
f 432 429 431
f 431 434 432
f 434 431 433
f 433 436 434
f 436 433 435
f 435 438 436
f 438 435 437
f 437 440 438
f 440 437 439
f 439 442 440
f 442 439 441
f 441 444 442
f 444 441 443
f 443 446 444
f 446 443 445
f 445 448 446
f 448 445 447
f 447 450 448
f 450 447 449
f 449 452 450
f 452 449 451
f 451 454 452
f 454 451 453
f 453 456 454
f 456 453 455
f 455 458 456
f 458 455 457
f 457 460 458
f 460 457 459
f 459 462 460
f 462 459 461
f 461 464 462
f 464 461 463
f 463 466 464
f 466 463 465
f 465 468 466
f 468 465 467
f 467 470 468
f 470 467 469
f 469 472 470
f 472 469 471
f 471 474 472
f 474 471 473
f 473 476 474
f 476 473 475
f 475 478 476
f 478 475 477
f 477 480 478
f 480 477 479
f 479 482 480
f 482 479 481
f 481 484 482
f 484 481 483
f 483 486 484
f 486 483 485
f 485 488 486
f 488 485 487
f 487 490 488
f 490 487 489
f 489 492 490
f 492 489 491
f 491 494 492
f 494 491 493
f 493 496 494
f 496 493 495
f 495 498 496
f 498 495 497
f 497 500 498
f 500 497 499
f 499 502 500
f 502 499 501
f 501 504 502
f 504 501 503
f 503 506 504
f 506 503 505
f 505 508 506
f 508 505 507
f 507 510 508
f 510 507 509
f 509 512 510
f 512 509 511
f 511 514 512
f 514 511 513
f 513 516 514
f 516 513 515
f 515 518 516
f 518 515 517
f 517 520 518
f 520 517 519
f 519 522 520
f 522 519 521
f 521 524 522
f 524 521 523
f 523 526 524
f 526 523 525
f 525 528 526
f 528 525 527
f 527 530 528
f 530 527 529
f 529 532 530
f 532 529 531
f 531 534 532
f 534 531 533
f 533 536 534
f 536 533 535
f 535 538 536
f 538 535 537
f 537 540 538
f 540 537 539
f 539 542 540
f 542 539 541
f 541 544 542
f 544 541 543
f 543 546 544
f 546 543 545
f 545 548 546
f 548 545 547
f 547 550 548
f 550 547 549
f 549 552 550
f 552 549 551
f 551 554 552
f 554 551 553
f 553 556 554
f 556 553 555
f 555 558 556
f 558 555 557
f 557 560 558
f 560 557 559
f 559 562 560
f 562 559 561
f 561 564 562
f 564 561 563
f 563 566 564
f 566 563 565
f 565 568 566
f 568 565 567
f 567 570 568
f 570 567 569
f 569 572 570
f 572 569 571
f 571 574 572
f 574 571 573
f 573 576 574
f 576 573 575
f 575 578 576
f 578 575 577
f 577 580 578
f 580 577 579
f 579 582 580
f 582 579 581
f 581 584 582
f 584 581 583
f 583 586 584
f 586 583 585
f 585 588 586
f 588 585 587
f 587 590 588
f 590 587 589
f 589 592 590
f 592 589 591
f 591 594 592
f 594 591 593
f 593 596 594
f 596 593 595
f 595 598 596
f 598 595 597
f 597 600 598
f 600 597 599
f 599 602 600
f 602 599 601
f 601 604 602
f 604 601 603
f 603 606 604
f 606 603 605
f 605 608 606
f 608 605 607
f 607 610 608
f 610 607 609
f 609 612 610
f 612 609 611
f 611 614 612
f 614 611 613
f 613 616 614
f 616 613 615
f 615 618 616
f 618 615 617
f 617 620 618
f 620 617 619
f 619 622 620
f 622 619 621
f 621 624 622
f 624 621 623
f 623 626 624
f 626 623 625
f 625 628 626
f 628 625 627
f 627 630 628
f 630 627 629
f 629 632 630
f 632 629 631
f 631 634 632
f 634 631 633
f 633 636 634
f 636 633 635
f 635 638 636
f 638 635 637
f 637 640 638
f 640 637 639
