# Decoded from sources/assets/lusion.dev/assets/models/about/sphere_xs.buf
# Position/index data decoded from public .buf header and payload.
v -0.0000153 -0.0000153 -0.5000000
v -0.5000000 -0.0000153 -0.0000076
v -0.3535614 0.3535309 -0.0000076
v -0.0000153 0.4999847 -0.0000076
v 0.3535309 0.3535309 -0.0000153
v 0.4999847 -0.0000153 -0.0000076
v 0.3535309 -0.3535614 -0.0000076
v -0.0000153 -0.5000000 -0.0000076
v -0.3535614 -0.3535614 -0.0000076
f 1 2 3
f 1 3 4
f 1 4 5
f 1 5 6
f 1 6 7
f 1 7 8
f 1 8 9
f 1 9 2
