# Decoded from sources/assets/lusion.dev/assets/models/tunnels/astronaut_helmet_glass.buf
# Position/index data decoded from public .buf header and payload.
v -0.1039820 1.5843128 0.1117437
v -0.0798484 1.5779024 0.1284598
v -0.0875115 1.6084619 0.1463012
v -0.1120810 1.6156576 0.1275396
v -0.0548430 1.5734357 0.1402850
v -0.0617433 1.6047450 0.1600870
v -0.0657358 1.6460182 0.1745400
v -0.0924452 1.6468888 0.1587316
v -0.0350636 1.6874584 0.1892998
v -0.0355689 1.7295168 0.1849145
v -0.0679649 1.7261517 0.1755659
v -0.0673952 1.6868294 0.1791511
v -0.0940898 1.6853867 0.1633863
v -0.0339689 1.6456024 0.1843260
v -0.0635365 1.7647953 0.1628184
v -0.0889034 1.7596002 0.1526532
v -0.0933666 1.7216709 0.1624019
v -0.0545508 1.7967549 0.1429729
v -0.0790955 1.7915030 0.1343351
v -0.1130964 1.7532467 0.1372220
v -0.1186791 1.7177656 0.1418766
v -0.1173565 1.6478056 0.1364552
v -0.1022185 1.7849149 0.1225824
v -0.1217899 1.5919811 0.0936473
v -0.1301465 1.6215066 0.1069087
v -0.1471370 1.6107788 0.0603767
v -0.1374133 1.6020089 0.0742184
v -0.1453488 1.6272525 0.0823941
v -0.1586787 1.6381438 0.0566443
v -0.1188425 1.6843029 0.1419927
v -0.1369823 1.7179007 0.1199691
v -0.1374529 1.6816911 0.1186966
v -0.1608632 1.7205089 0.0657982
v -0.1622750 1.6798327 0.0603912
v -0.1516398 1.6791291 0.0905967
v -0.1513277 1.7174529 0.0934463
v -0.1352189 1.6503960 0.1140233
v -0.1496931 1.6530256 0.0874301
v -0.1472807 1.7428706 0.0932494
v -0.1327966 1.7478384 0.1165289
v -0.1390826 1.7663624 0.0900931
v -0.1535865 1.7509334 0.0724009
v -0.1225428 1.7764328 0.1080506
v 0.1472508 1.7428671 0.0932411
v 0.1512631 1.7174600 0.0934276
v 0.1609076 1.7205160 0.0657940
v 0.1536408 1.7509938 0.0723739
v 0.1390973 1.7665081 0.0900309
v 0.1515603 1.6778641 0.0905366
v 0.1623540 1.6798256 0.0604306
v 0.1496185 1.6532139 0.0874238
v 0.1587380 1.6381296 0.0566360
v 0.1451802 1.6270571 0.0822780
v 0.1374180 1.6019201 0.0741790
v 0.1471319 1.6107681 0.0603622
v 0.1327914 1.7478384 0.1165310
v 0.1225674 1.7763831 0.1080879
v 0.0885664 1.7600977 0.1527050
v 0.1131111 1.7532609 0.1372468
v 0.1022332 1.7850215 0.1225845
v 0.0791299 1.7914283 0.1344822
v 0.0319130 1.7692656 0.1698667
v 0.0617530 1.7650583 0.1637282
v 0.0545605 1.7968580 0.1429646
v 0.0284257 1.8000454 0.1492026
v 0.1372546 1.6816805 0.1188790
v 0.1373932 1.7178793 0.1193329
v 0.1351642 1.6504067 0.1139943
v 0.1300175 1.6214320 0.1069004
v 0.1218194 1.5920770 0.0937281
v 0.0798482 1.5778526 0.1284660
v 0.0874221 1.6085223 0.1461955
v 0.0617034 1.6047806 0.1600911
v 0.0548279 1.5730662 0.1401068
v 0.1038926 1.5844691 0.1117250
v 0.1119668 1.6157181 0.1274526
v 0.0680142 1.7261802 0.1756923
v 0.0926085 1.7227546 0.1626692
v 0.0674347 1.6868223 0.1792506
v 0.0940747 1.6853867 0.1633780
v 0.0657455 1.6460111 0.1745794
v 0.0923608 1.6469172 0.1586342
v 0.1188126 1.7175311 0.1417917
v 0.1188027 1.6843029 0.1419657
v 0.1172621 1.6478305 0.1363847
v -0.0327255 1.7683843 0.1701175
v -0.0284308 1.7997327 0.1493809
v -0.0000026 1.8022024 0.1506948
v -0.0000174 1.7704204 0.1721464
v 0.0357024 1.7293640 0.1849332
v -0.0000026 1.7309347 0.1875154
v 0.0350684 1.6874548 0.1893827
v -0.0000026 1.6889508 0.1924519
v 0.0339637 1.6455918 0.1843653
v 0.0310808 1.6026343 0.1687331
v 0.0279254 1.5699676 0.1472173
v -0.0000026 1.6458725 0.1872025
v -0.0310314 1.6020444 0.1681943
v -0.0000224 1.6014617 0.1708034
v -0.0279404 1.5700351 0.1472297
v -0.0000026 1.5693279 0.1500420
f 3 1 2
f 3 5 6
f 3 7 8
f 10 12 9
f 13 7 12
f 7 9 12
f 15 17 11
f 12 17 13
f 18 16 15
f 21 16 20
f 4 8 22
f 20 19 23
f 24 4 25
f 29 27 28
f 28 24 25
f 22 13 30
f 30 31 32
f 13 21 30
f 33 35 36
f 31 35 32
f 25 38 28
f 22 25 4
f 38 34 29
f 38 32 35
f 29 28 38
f 31 39 36
f 37 30 32
f 31 20 40
f 39 41 42
f 40 41 39
f 33 39 42
f 43 20 23
f 44 46 47
f 47 48 44
f 49 46 45
f 50 51 52
f 54 52 53
f 51 53 52
f 56 48 57
f 59 61 58
f 57 59 56
f 65 63 64
f 61 63 58
f 66 45 67
f 44 67 45
f 51 66 68
f 54 69 70
f 53 68 69
f 71 73 74
f 76 71 75
f 69 75 70
f 77 58 63
f 79 78 77
f 82 79 81
f 73 82 81
f 59 78 83
f 67 59 83
f 83 80 84
f 66 83 84
f 84 82 85
f 84 68 66
f 76 82 72
f 68 76 69
f 18 86 87
f 86 11 10
f 89 65 88
f 89 87 86
f 62 77 63
f 86 91 89
f 90 89 91
f 79 90 92
f 93 10 9
f 91 92 90
f 94 79 92
f 95 81 94
f 74 95 96
f 93 14 97
f 92 97 94
f 97 98 99
f 97 95 94
f 100 99 98
f 95 101 96
f 100 6 5
f 14 6 98
f 6 14 7
f 6 100 98
f 101 95 99
f 99 100 101
f 95 97 99
f 98 97 14
f 97 92 93
f 14 93 9
f 95 74 73
f 81 95 73
f 79 94 81
f 92 91 93
f 10 93 91
f 90 79 77
f 89 90 62
f 91 86 10
f 77 62 90
f 87 89 88
f 65 89 62
f 11 86 15
f 86 18 15
f 76 68 85
f 82 76 85
f 68 84 85
f 82 84 80
f 83 66 67
f 80 83 78
f 59 67 56
f 78 59 58
f 82 73 72
f 79 82 80
f 78 79 80
f 58 77 78
f 75 69 76
f 71 76 72
f 73 71 72
f 68 53 51
f 69 54 53
f 66 51 49
f 67 44 56
f 45 66 49
f 63 61 64
f 63 65 62
f 59 57 60
f 61 59 60
f 48 56 44
f 52 54 55
f 51 50 49
f 46 49 50
f 46 44 45
f 20 43 40
f 39 33 36
f 41 40 43
f 20 31 21
f 30 37 22
f 39 31 40
f 32 38 37
f 34 38 35
f 25 22 37
f 38 25 37
f 35 31 36
f 35 33 34
f 21 13 17
f 31 30 21
f 13 22 8
f 24 28 27
f 27 29 26
f 4 24 1
f 19 20 16
f 8 4 3
f 16 21 17
f 16 18 19
f 17 12 11
f 17 15 16
f 9 7 14
f 7 13 8
f 12 10 11
f 7 3 6
f 5 3 2
f 1 3 4
