# Decoded from sources/assets/lusion.dev/assets/models/lines/line_office.buf
# Position/index data decoded from public .buf header and payload.
v -0.3965039 -0.9180461 0.0000000
v 0.3964428 0.9179851 0.0000000
v -0.3960156 -0.9182597 0.0031281
v 0.3959546 0.9181987 0.0031281
v -0.3945508 -0.9189006 0.0062561
v 0.3944898 0.9188396 0.0062561
v -0.3921400 -0.9199382 0.0093994
v 0.3920790 0.9198772 0.0093994
v -0.3887221 -0.9213725 0.0125275
v 0.3886611 0.9213115 0.0125275
v -0.3842667 -0.9232340 0.0156708
v 0.3842056 0.9231730 0.0156708
v -0.3787737 -0.9255228 0.0187988
v 0.3787126 0.9254618 0.0187988
v -0.3721820 -0.9281778 0.0219421
v 0.3721210 0.9281168 0.0219421
v -0.3644613 -0.9312600 0.0250702
v 0.3644003 0.9311990 0.0250702
v -0.3555199 -0.9346780 0.0282135
v 0.3554589 0.9346169 0.0282135
v -0.3454189 -0.9384926 0.0313416
v 0.3453578 0.9384316 0.0313416
v -0.3345549 -0.9423988 0.0344849
v 0.3344939 0.9423377 0.0344849
v -0.3236299 -0.9462134 0.0376129
v 0.3235689 0.9461524 0.0376129
v -0.3128270 -0.9498450 0.0407562
v 0.3127660 0.9497839 0.0407562
v -0.3022377 -0.9532629 0.0438843
v 0.3021767 0.9532018 0.0438843
v -0.2918010 -0.9564977 0.0470276
v 0.2917399 0.9564367 0.0470276
v -0.2815474 -0.9595799 0.0501556
v 0.2814863 0.9595189 0.0501556
v -0.2715074 -0.9624485 0.0532837
v 0.2714463 0.9623875 0.0532837
v -0.2616504 -0.9651951 0.0564270
v 0.2615894 0.9651340 0.0564270
v -0.2520987 -0.9677280 0.0595551
v 0.2520377 0.9676669 0.0595551
v -0.2427606 -0.9701083 0.0626984
v 0.2426996 0.9700473 0.0626984
v -0.2336971 -0.9723361 0.0658264
v 0.2336361 0.9722750 0.0658264
v -0.2249083 -0.9744112 0.0689697
v 0.2248473 0.9743502 0.0689697
v -0.2163941 -0.9763338 0.0720978
v 0.2163331 0.9762728 0.0720978
v -0.2082157 -0.9781038 0.0752411
v 0.2081546 0.9780428 0.0752411
v -0.2003423 -0.9797517 0.0783691
v 0.2002813 0.9796907 0.0783691
v -0.1928047 -0.9812471 0.0815125
v 0.1927437 0.9811860 0.0815125
v -0.1856028 -0.9826508 0.0846405
v 0.1855417 0.9825898 0.0846405
v -0.1787670 -0.9839020 0.0877838
v 0.1787060 0.9838410 0.0877838
v -0.1723280 -0.9850617 0.0909119
v 0.1722669 0.9850007 0.0909119
v -0.1662551 -0.9860993 0.0940399
v 0.1661941 0.9860382 0.0940399
v -0.1606096 -0.9870453 0.0971832
v 0.1605485 0.9869843 0.0971832
v -0.1553912 -0.9878693 0.1003113
v 0.1553302 0.9878082 0.1003113
v -0.1506001 -0.9886017 0.1034546
v 0.1505390 0.9885406 0.1034546
v -0.1462667 -0.9892731 0.1065826
v 0.1462057 0.9892120 0.1065826
v -0.1423911 -0.9898224 0.1097260
v 0.1423300 0.9897613 0.1097260
v -0.1390037 -0.9903106 0.1128540
v 0.1389427 0.9902496 0.1128540
v -0.1361657 -0.9907074 0.1159973
v 0.1361046 0.9906463 0.1159973
v -0.1338769 -0.9910125 0.1191254
v 0.1338159 0.9909515 0.1191254
v -0.1321069 -0.9912567 0.1222687
v 0.1320459 0.9911956 0.1222687
v -0.1309473 -0.9914093 0.1253967
v 0.1308863 0.9913482 0.1253967
v -0.1303980 -0.9914703 0.1285400
v 0.1303370 0.9914093 0.1285400
v -0.1304895 -0.9914703 0.1316681
v 0.1304285 0.9914093 0.1316681
v -0.1312830 -0.9913787 0.1347961
v 0.1312219 0.9913177 0.1347961
v -0.1327478 -0.9911651 0.1379395
v 0.1326867 0.9911041 0.1379395
v -0.1350060 -0.9908599 0.1410675
v 0.1349450 0.9907989 0.1410675
v -0.1380272 -0.9904327 0.1442108
v 0.1379661 0.9903717 0.1442108
v -0.1419028 -0.9899139 0.1473389
v 0.1418418 0.9898529 0.1473389
v -0.1466939 -0.9892120 0.1504822
v 0.1466329 0.9891510 0.1504822
v -0.1524311 -0.9883270 0.1536102
v 0.1523700 0.9882660 0.1536102
v -0.1591753 -0.9872589 0.1567535
v 0.1591142 0.9871979 0.1567535
v -0.1669570 -0.9859772 0.1598816
v 0.1668960 0.9859162 0.1598816
v -0.1759290 -0.9844208 0.1630249
v 0.1758679 0.9843598 0.1630249
v -0.1861215 -0.9825593 0.1661530
v 0.1860605 0.9824983 0.1661530
v -0.1975653 -0.9803010 0.1692963
v 0.1975043 0.9802400 0.1692963
v -0.2104129 -0.9776460 0.1724243
v 0.2103518 0.9775850 0.1724243
v -0.2247557 -0.9744417 0.1755524
v 0.2246947 0.9743807 0.1755524
v -0.2406244 -0.9706271 0.1786957
v 0.2405634 0.9705661 0.1786957
v -0.2581410 -0.9661411 0.1818237
v 0.2580800 0.9660801 0.1818237
v -0.2774276 -0.9607701 0.1849670
v 0.2773666 0.9607090 0.1849670
v -0.2984841 -0.9544225 0.1880951
v 0.2984231 0.9543615 0.1880951
v -0.3214327 -0.9469458 0.1912384
v 0.3213717 0.9468848 0.1912384
v -0.3463039 -0.9381569 0.1943665
v 0.3462428 0.9380959 0.1943665
v -0.3731281 -0.9278116 0.1975098
v 0.3730670 0.9277506 0.1975098
v -0.4018138 -0.9157573 0.2006378
v 0.4017528 0.9156963 0.2006378
v -0.4323916 -0.9017195 0.2037811
v 0.4323305 0.9016584 0.2037811
v -0.4646783 -0.8855149 0.2069092
v 0.4646172 0.8854539 0.2069092
v -0.4984603 -0.8669605 0.2100525
v 0.4983992 0.8668995 0.2100525
v -0.5334324 -0.8458732 0.2131805
v 0.5333714 0.8458121 0.2131805
v -0.5693201 -0.8221614 0.2163086
v 0.5692591 0.8221003 0.2163086
v -0.6056045 -0.7957946 0.2194519
v 0.6055435 0.7957336 0.2194519
v -0.6418584 -0.7668644 0.2225800
v 0.6417974 0.7668033 0.2225800
v -0.6775324 -0.7355233 0.2257233
v 0.6774714 0.7354623 0.2257233
v -0.7121689 -0.7020460 0.2288513
v 0.7121079 0.7019850 0.2288513
v -0.7452491 -0.6668293 0.2319946
v 0.7451880 0.6667683 0.2319946
v -0.7764067 -0.6302698 0.2351227
v 0.7763456 0.6302088 0.2351227
v -0.8053365 -0.5928558 0.2382507
v 0.8052755 0.5927948 0.2382507
v -0.8317945 -0.5551062 0.2413940
v 0.8317335 0.5550451 0.2413940
v -0.8557196 -0.5174786 0.2445221
v 0.8556586 0.5174175 0.2445221
v -0.8771119 -0.4803698 0.2476654
v 0.8770508 0.4803087 0.2476654
v -0.8960017 -0.4440849 0.2507935
v 0.8959407 0.4440239 0.2507935
v -0.9125723 -0.4089903 0.2539368
v 0.9125113 0.4089292 0.2539368
v -0.9269457 -0.3752689 0.2570648
v 0.9268847 0.3752078 0.2570648
v -0.9393355 -0.3430428 0.2601929
v 0.9392744 0.3429818 0.2601929
v -0.9499858 -0.3123731 0.2633362
v 0.9499248 0.3123121 0.2633362
v -0.9590493 -0.2833208 0.2664642
v 0.9589883 0.2832598 0.2664642
v -0.9667395 -0.2558859 0.2696075
v 0.9666785 0.2558249 0.2696075
v -0.9732091 -0.2300074 0.2727356
v 0.9731480 0.2299464 0.2727356
v -0.9785495 -0.2061125 0.2758789
v 0.9784884 0.2060515 0.2758789
v -0.9827303 -0.1851168 0.2790070
v 0.9826692 0.1850557 0.2790070
v -0.9859650 -0.1670506 0.2821503
v 0.9859040 0.1669896 0.2821503
v -0.9885590 -0.1510292 0.2852783
v 0.9884979 0.1509681 0.2852783
v -0.9906646 -0.1364115 0.2884216
v 0.9906036 0.1363504 0.2884216
v -0.9924651 -0.1225567 0.2915649
v 0.9924041 0.1224957 0.2915649
v -0.9940825 -0.1088240 0.2946930
v 0.9940215 0.1087630 0.2946930
v -0.9955778 -0.0942673 0.2978363
v 0.9955168 0.0942063 0.2978363
v -0.9970426 -0.0769031 0.3009644
v 0.9969816 0.0768421 0.3009644
v -0.9986295 -0.0525505 0.3041077
v 0.9985685 0.0524894 0.3041077
v -0.9998807 -0.0155027 0.3072357
v 0.9998196 0.0154417 0.3072357
v -0.9993314 0.0368341 0.3103638
v 0.9992703 -0.0368952 0.3103638
v -0.9956694 0.0932298 0.3135071
v 0.9956083 -0.0932908 0.3135071
v -0.9900543 0.1408364 0.3166351
v 0.9899933 -0.1408975 0.3166351
v -0.9833101 0.1820345 0.3197632
v 0.9832491 -0.1820956 0.3197632
v -0.9752537 0.2211270 0.3229065
v 0.9751926 -0.2211880 0.3229065
v -0.9660987 0.2581442 0.3260345
v 0.9660376 -0.2582052 0.3260345
v -0.9560892 0.2930558 0.3291779
v 0.9560281 -0.2931168 0.3291779
v -0.9454083 0.3258617 0.3323059
v 0.9453473 -0.3259227 0.3323059
v -0.9342392 0.3566839 0.3354492
v 0.9341782 -0.3567450 0.3354492
v -0.9226733 0.3855836 0.3385773
v 0.9226123 -0.3856447 0.3385773
v -0.9108939 0.4126523 0.3417206
v 0.9108329 -0.4127134 0.3417206
v -0.8989313 0.4380731 0.3448486
v 0.8988703 -0.4381341 0.3448486
v -0.8869077 0.4619069 0.3479919
v 0.8868467 -0.4619680 0.3479919
v -0.8749147 0.4842455 0.3511200
v 0.8748536 -0.4843065 0.3511200
v -0.8630131 0.5051802 0.3542480
v 0.8629521 -0.5052412 0.3542480
v -0.8511726 0.5248942 0.3573914
v 0.8511116 -0.5249553 0.3573914
v -0.8394542 0.5433876 0.3605194
v 0.8393932 -0.5434486 0.3605194
v -0.8279189 0.5608129 0.3636627
v 0.8278579 -0.5608739 0.3636627
v -0.8165667 0.5772616 0.3667908
v 0.8165056 -0.5773226 0.3667908
v -0.8053670 0.5927643 0.3699341
v 0.8053060 -0.5928253 0.3699341
v -0.7943200 0.6074735 0.3730621
v 0.7942589 -0.6075346 0.3730621
v -0.7834560 0.6214198 0.3762054
v 0.7833950 -0.6214809 0.3762054
v -0.7727752 0.6346643 0.3793335
v 0.7727141 -0.6347253 0.3793335
v -0.7622469 0.6472678 0.3824768
v 0.7621859 -0.6473289 0.3824768
v -0.7519017 0.6592611 0.3856049
v 0.7518407 -0.6593221 0.3856049
v -0.7416786 0.6707355 0.3887482
v 0.7416176 -0.6707965 0.3887482
v -0.7316081 0.6817217 0.3918762
v 0.7315471 -0.6817827 0.3918762
v -0.7215681 0.6923111 0.3950043
v 0.7215071 -0.6923721 0.3950043
v -0.7116196 0.7025343 0.3981476
v 0.7115586 -0.7025954 0.3981476
v -0.7017017 0.7124524 0.4012756
v 0.7016407 -0.7125134 0.4012756
v -0.6917838 0.7220653 0.4044189
v 0.6917227 -0.7221263 0.4044189
v -0.6818658 0.7314340 0.4075470
v 0.6818048 -0.7314951 0.4075470
v -0.6718869 0.7406197 0.4106903
v 0.6718258 -0.7406807 0.4106903
v -0.6617553 0.7497138 0.4138184
v 0.6616943 -0.7497748 0.4138184
v -0.6539735 0.7564886 0.4169617
v 0.6539125 -0.7565496 0.4169617
v -0.6557740 0.7549322 0.4200897
v 0.6557130 -0.7549932 0.4200897
v -0.6674619 0.7446174 0.4232178
v 0.6674009 -0.7446784 0.4232178
v -0.6815301 0.7317697 0.4263611
v 0.6814691 -0.7318307 0.4263611
v -0.6955984 0.7184032 0.4294891
v 0.6955373 -0.7184642 0.4294891
v -0.7112229 0.7029310 0.4326324
v 0.7111619 -0.7029921 0.4326324
v -0.7297161 0.6837358 0.4357605
v 0.7296550 -0.6837968 0.4357605
v -0.7525731 0.6584676 0.4389038
v 0.7525121 -0.6585287 0.4389038
v -0.7813504 0.6240748 0.4420319
v 0.7812893 -0.6241359 0.4420319
v -0.8144610 0.5802218 0.4451752
v 0.8144000 -0.5802828 0.4451752
v -0.8490975 0.5282511 0.4483032
v 0.8490365 -0.5283122 0.4483032
v -0.8841307 0.4672474 0.4514465
v 0.8840697 -0.4673085 0.4514465
v -0.9184315 0.3955627 0.4545746
v 0.9183705 -0.3956238 0.4545746
v -0.9502910 0.3113660 0.4577179
v 0.9502300 -0.3114271 0.4577179
v -0.9770542 0.2129789 0.4608459
v 0.9769931 -0.2130399 0.4608459
v -0.9950590 0.0993332 0.4639740
v 0.9949980 -0.0993942 0.4639740
v -0.9995755 -0.0293575 0.4671173
v 0.9995145 0.0292964 0.4671173
v -0.9853242 -0.1708348 0.4702454
v 0.9852632 0.1707737 0.4702454
v -0.9474224 -0.3200634 0.4733734
v 0.9473614 0.3200024 0.4733734
v -0.8829406 -0.4695667 0.4765015
v 0.8828795 0.4695057 0.4765015
v -0.7920312 -0.6105252 0.4796448
v 0.7919702 0.6104642 0.4796448
v -0.6782649 -0.7348519 0.4827728
v 0.6782038 0.7347909 0.4827728
v -0.5475312 -0.8368096 0.4859009
v 0.5474701 0.8367486 0.4859009
v -0.4067575 -0.9135601 0.4890289
v 0.4066965 0.9134991 0.4890289
v -0.2624439 -0.9649814 0.4921722
v 0.2623828 0.9649204 0.4921722
v -0.1201139 -0.9927825 0.4953003
v 0.1200528 0.9927215 0.4953003
v 0.0158992 -0.9998930 0.4984283
v -0.0159603 0.9998320 0.4984283
v 0.1425742 -0.9897918 0.5015564
v -0.1426352 0.9897308 0.5015564
v 0.2579884 -0.9661411 0.5046997
v -0.2580495 0.9660801 0.5046997
v 0.3612571 -0.9324502 0.5078278
v -0.3613181 0.9323892 0.5078278
v 0.4523800 -0.8918319 0.5109558
v -0.4524410 0.8917709 0.5109558
v 0.5318151 -0.8468497 0.5140991
v -0.5318761 0.8467887 0.5140991
v 0.6004777 -0.7996398 0.5172272
v -0.6005387 0.7995787 0.5172272
v 0.6594665 -0.7516974 0.5203705
v -0.6595276 0.7516363 0.5203705
v 0.7099412 -0.7042128 0.5234985
v -0.7100023 0.7041517 0.5234985
v 0.7530308 -0.6579488 0.5266418
v -0.7530919 0.6578878 0.5266418
v 0.7897730 -0.6133633 0.5297699
v -0.7898340 0.6133023 0.5297699
v 0.8210831 -0.5707920 0.5328979
v -0.8211442 0.5707309 0.5328979
v 0.8477548 -0.5303263 0.5360413
v -0.8478158 0.5302653 0.5360413
v 0.8705508 -0.4920273 0.5391693
v -0.8706118 0.4919663 0.5391693
v 0.8900204 -0.4558340 0.5423126
v -0.8900815 0.4557730 0.5423126
v 0.9066826 -0.4217464 0.5454407
v -0.9067436 0.4216854 0.5454407
v 0.9209339 -0.3896424 0.5485840
v -0.9209949 0.3895814 0.5485840
v 0.9331711 -0.3593695 0.5517120
v -0.9332321 0.3593084 0.5517120
v 0.9436383 -0.3308665 0.5548401
v -0.9436994 0.3308054 0.5548401
v 0.9526408 -0.3039504 0.5579834
v -0.9527018 0.3038894 0.5579834
v 0.9602394 -0.2790484 0.5611115
v -0.9603005 0.2789874 0.5611115
v 0.9662207 -0.2576254 0.5642548
v -0.9662818 0.2575644 0.5642548
v 0.9705846 -0.2405969 0.5673828
v -0.9706456 0.2405358 0.5673828
v 0.9737278 -0.2274745 0.5705261
v -0.9737889 0.2274135 0.5705261
v 0.9759861 -0.2176785 0.5736542
v -0.9760471 0.2176175 0.5736542
v 0.9774814 -0.2108122 0.5767975
v -0.9775424 0.2107511 0.5767975
v 0.9783969 -0.2065398 0.5799255
v -0.9784579 0.2064787 0.5799255
v 0.9787936 -0.2047088 0.5830688
v -0.9788546 0.2046477 0.5830688
v 0.9787021 -0.2051665 0.5861969
v -0.9787631 0.2051055 0.5861969
v 0.9781222 -0.2078520 0.5893402
v -0.9781833 0.2077910 0.5893402
v 0.9770542 -0.2127958 0.5924683
v -0.9771152 0.2127348 0.5924683
v 0.9754368 -0.2200589 0.5956116
v -0.9754978 0.2199978 0.5956116
v 0.9732091 -0.2297633 0.5987396
v -0.9732701 0.2297023 0.5987396
v 0.9701879 -0.2421532 0.6018829
v -0.9702489 0.2420922 0.6018829
v 0.9662207 -0.2575339 0.6050110
v -0.9662818 0.2574728 0.6050110
v 0.9610329 -0.2763019 0.6081543
v -0.9610939 0.2762409 0.6081543
v 0.9545023 -0.2980911 0.6112823
v -0.9545633 0.2980301 0.6112823
v 0.9469036 -0.3214367 0.6144257
v -0.9469647 0.3213757 0.6144257
v 0.9383895 -0.3454537 0.6175537
v -0.9384505 0.3453926 0.6175537
v 0.9289293 -0.3701420 0.6206970
v -0.9289903 0.3700810 0.6206970
v 0.9184315 -0.3955017 0.6238251
v -0.9184926 0.3954407 0.6238251
v 0.9067741 -0.4215328 0.6269531
v -0.9068352 0.4214718 0.6269531
v 0.8938656 -0.4482963 0.6300964
v -0.8939266 0.4482353 0.6300964
v 0.8795532 -0.4757617 0.6332245
v -0.8796142 0.4757007 0.6332245
v 0.8636845 -0.5039595 0.6363678
v -0.8637455 0.5038985 0.6363678
v 0.8461069 -0.5329508 0.6394958
v -0.8461679 0.5328897 0.6394958
v 0.8266372 -0.5626744 0.6426392
v -0.8266982 0.5626134 0.6426392
v 0.8050313 -0.5932220 0.6457672
v -0.8050924 0.5931610 0.6457672
v 0.7809536 -0.6245631 0.6489105
v -0.7810147 0.6245021 0.6489105
v 0.7541294 -0.6566976 0.6520386
v -0.7541905 0.6566366 0.6520386
v 0.7240705 -0.6897171 0.6551666
v -0.7241315 0.6896561 0.6551666
v 0.6902579 -0.7235301 0.6583099
v -0.6903190 0.7234691 0.6583099
v 0.6520510 -0.7581365 0.6614380
v -0.6521120 0.7580755 0.6614380
v 0.6085646 -0.7934753 0.6645813
v -0.6086257 0.7934143 0.6645813
v 0.5586393 -0.8293939 0.6677094
v -0.5587003 0.8293329 0.6677094
v 0.5007185 -0.8655872 0.6708527
v -0.5007795 0.8655262 0.6708527
v 0.4328188 -0.9014753 0.6739807
v -0.4328798 0.9014143 0.6739807
v 0.3521936 -0.9359292 0.6771240
v -0.3522546 0.9358681 0.6771240
v 0.2552114 -0.9668735 0.6802521
v -0.2552725 0.9668125 0.6802521
v 0.1375084 -0.9905243 0.6833801
v -0.1375694 0.9904632 0.6833801
v -0.0055846 -0.9999846 0.6865234
v 0.0055235 0.9999540 0.6865234
v -0.1762341 -0.9843598 0.6896515
v 0.1761731 0.9842988 0.6896515
v -0.3688557 -0.9295206 0.6927795
v 0.3687947 0.9294595 0.6927795
v -0.5645595 -0.8254267 0.6959076
v 0.5644985 0.8253657 0.6959076
v -0.7353311 -0.6777544 0.6990356
v 0.7352701 0.6776934 0.6990356
v -0.8605718 -0.5093915 0.7021637
v 0.8605108 0.5093305 0.7021637
v -0.9382064 -0.3460945 0.7052917
v 0.9381453 0.3460335 0.7052917
v -0.9792514 -0.2028167 0.7084198
v 0.9791903 0.2027557 0.7084198
v -0.9965544 -0.0830676 0.7115631
v 0.9964933 0.0830065 0.7115631
v -0.9999112 0.0153806 0.7146912
v 0.9998502 -0.0154417 0.7146912
v -0.9953642 0.0964035 0.7178192
v 0.9953032 -0.0964646 0.7178192
v -0.9865143 0.1637243 0.7209625
v 0.9864533 -0.1637853 0.7209625
v -0.9754368 0.2202725 0.7240906
v 0.9753757 -0.2203335 0.7240906
v -0.9633216 0.2683674 0.7272339
v 0.9632606 -0.2684285 0.7272339
v -0.9508098 0.3097792 0.7303619
v 0.9507487 -0.3098402 0.7303619
v -0.9382979 0.3457893 0.7335052
v 0.9382369 -0.3458504 0.7335052
v -0.9260302 0.3774356 0.7366333
v 0.9259692 -0.3774966 0.7366333
v -0.9140981 0.4054503 0.7397766
v 0.9140371 -0.4055113 0.7397766
v -0.9025933 0.4304743 0.7429047
v 0.9025323 -0.4305353 0.7429047
v -0.8915158 0.4529654 0.7460327
v 0.8914547 -0.4530265 0.7460327
v -0.8808654 0.4733508 0.7491760
v 0.8808044 -0.4734119 0.7491760
v -0.8706423 0.4919052 0.7523041
v 0.8705813 -0.4919663 0.7523041
v -0.8608464 0.5088422 0.7554474
v 0.8607854 -0.5089033 0.7554474
v -0.8517219 0.5240092 0.7585754
v 0.8516609 -0.5240703 0.7585754
v -0.8437876 0.5366433 0.7617188
v 0.8437266 -0.5367044 0.7617188
v -0.8374401 0.5465309 0.7648468
v 0.8373791 -0.5465919 0.7648468
v -0.8324354 0.5540991 0.7679901
v 0.8323743 -0.5541601 0.7679901
v -0.8286818 0.5597143 0.7711182
v 0.8286208 -0.5597753 0.7711182
v -0.8259658 0.5636815 0.7742615
v 0.8259048 -0.5637425 0.7742615
v -0.8242874 0.5661839 0.7773895
v 0.8242264 -0.5662449 0.7773895
v -0.8235245 0.5672520 0.7805328
v 0.8234635 -0.5673130 0.7805328
v -0.8237076 0.5670078 0.7836609
v 0.8236466 -0.5670689 0.7836609
v -0.8248062 0.5654210 0.7868042
v 0.8247452 -0.5654820 0.7868042
v -0.8267898 0.5624913 0.7899323
v 0.8267287 -0.5625524 0.7899323
v -0.8297499 0.5581274 0.7930756
v 0.8296889 -0.5581884 0.7930756
v -0.8337171 0.5521765 0.7962036
v 0.8336560 -0.5522376 0.7962036
v -0.8387523 0.5444862 0.7993469
v 0.8386913 -0.5445473 0.7993469
v -0.8449777 0.5348123 0.8024750
v 0.8449167 -0.5348733 0.8024750
v -0.8524849 0.5227580 0.8056183
v 0.8524238 -0.5228191 0.8056183
v -0.8614263 0.5078657 0.8087463
v 0.8613652 -0.5079267 0.8087463
v -0.8720156 0.4894639 0.8118896
v 0.8719545 -0.4895249 0.8118896
v -0.8841917 0.4671254 0.8150177
v 0.8841307 -0.4671864 0.8150177
v -0.8972834 0.4414605 0.8181458
v 0.8972224 -0.4415215 0.8181458
v -0.9107108 0.4130185 0.8212891
v 0.9106498 -0.4130796 0.8212891
v -0.9243212 0.3816164 0.8244324
v 0.9242602 -0.3816775 0.8244324
v -0.9379012 0.3469185 0.8275604
v 0.9378402 -0.3469795 0.8275604
v -0.9512065 0.3085890 0.8306885
v 0.9511455 -0.3086500 0.8306885
v -0.9638709 0.2663533 0.8338318
v 0.9638099 -0.2664143 0.8338318
v -0.9755283 0.2199368 0.8369598
v 0.9754673 -0.2199978 0.8369598
v -0.9855988 0.1692174 0.8401031
v 0.9855378 -0.1692784 0.8401031
v -0.9934722 0.1141645 0.8432312
v 0.9934111 -0.1142255 0.8432312
v -0.9985074 0.0551139 0.8463745
v 0.9984464 -0.0551749 0.8463745
v -0.9999722 -0.0075072 0.8495026
v 0.9999417 0.0074462 0.8495026
v -0.9973783 -0.0728138 0.8526306
v 0.9973173 0.0727528 0.8526306
v -0.9902069 -0.1397073 0.8557739
v 0.9901458 0.1396463 0.8557739
v -0.9783969 -0.2069060 0.8589020
v 0.9783359 0.2068450 0.8589020
v -0.9620704 -0.2729145 0.8620453
v 0.9620094 0.2728535 0.8620453
v -0.9417158 -0.3364511 0.8651733
v 0.9416548 0.3363901 0.8651733
v -0.9181264 -0.3963562 0.8683014
v 0.9180653 0.3962952 0.8683014
v -0.8921566 -0.4518058 0.8714447
v 0.8920956 0.4517447 0.8714447
v -0.8647526 -0.5022811 0.8745728
v 0.8646916 0.5022200 0.8745728
v -0.8367687 -0.5476295 0.8777161
v 0.8367077 0.5475685 0.8777161
v -0.8089375 -0.5879121 0.8808441
v 0.8088765 0.5878510 0.8808441
v -0.7819302 -0.6234035 0.8839874
v 0.7818692 0.6233424 0.8839874
v -0.7561130 -0.6544699 0.8871155
v 0.7560520 0.6544088 0.8871155
v -0.7318217 -0.6815386 0.8902588
v 0.7317607 0.6814775 0.8902588
v -0.7092698 -0.7049757 0.8933868
v 0.7092088 0.7049147 0.8933868
v -0.6885185 -0.7252696 0.8965149
v 0.6884574 0.7252085 0.8965149
v -0.6696286 -0.7427254 0.8996582
v 0.6695676 0.7426643 0.8996582
v -0.6526003 -0.7577398 0.9027863
v 0.6525392 0.7576787 0.9027863
v -0.6374335 -0.7705264 0.9059296
v 0.6373724 0.7704654 0.9059296
v -0.6240977 -0.7813905 0.9090576
v 0.6240366 0.7813295 0.9090576
v -0.6125013 -0.7905151 0.9122009
v 0.6124403 0.7904541 0.9122009
v -0.6026444 -0.7980529 0.9153290
v 0.6025834 0.7979918 0.9153290
v -0.5944659 -0.8041563 0.9184723
v 0.5944049 0.8040953 0.9184723
v -0.5879353 -0.8089475 0.9216003
v 0.5878743 0.8088864 0.9216003
v -0.5830527 -0.8124569 0.9247437
v 0.5829916 0.8123959 0.9247437
v -0.5797874 -0.8148068 0.9278717
v 0.5797263 0.8147457 0.9278717
v -0.5781395 -0.8159664 0.9310150
v 0.5780784 0.8159054 0.9310150
v -0.5781700 -0.8159664 0.9341431
v 0.5781089 0.8159054 0.9341431
v -0.5798789 -0.8147457 0.9372711
v 0.5798179 0.8146847 0.9372711
v -0.5833273 -0.8122738 0.9404144
v 0.5832663 0.8122128 0.9404144
v -0.5885762 -0.8084592 0.9435425
v 0.5885151 0.8083982 0.9435425
v -0.5957476 -0.8032103 0.9466858
v 0.5956866 0.8031492 0.9466858
v -0.6049331 -0.7963134 0.9498138
v 0.6048721 0.7962524 0.9498138
v -0.6162243 -0.7875855 0.9529572
v 0.6161633 0.7875245 0.9529572
v -0.6298348 -0.7767519 0.9560852
v 0.6297738 0.7766909 0.9560852
v -0.6459171 -0.7634465 0.9592285
v 0.6458561 0.7633854 0.9592285
v -0.6646544 -0.7472114 0.9623566
v 0.6645934 0.7471503 0.9623566
v -0.6861687 -0.7274973 0.9654999
v 0.6861077 0.7274363 0.9654999
v -0.7106126 -0.7036329 0.9686279
v 0.7105516 0.7035719 0.9686279
v -0.7380776 -0.6747638 0.9717712
v 0.7380166 0.6747027 0.9717712
v -0.7685028 -0.6398827 0.9748993
v 0.7684418 0.6398217 0.9748993
v -0.8015830 -0.5979217 0.9780273
v 0.8015219 0.5978606 0.9780273
v -0.8367077 -0.5477210 0.9811707
v 0.8366467 0.5476600 0.9811707
v -0.8727175 -0.4883042 0.9842987
v 0.8726564 0.4882432 0.9842987
v -0.9059807 -0.4233943 0.9874420
v 0.9059197 0.4233333 0.9874420
v -0.9312791 -0.3643743 0.9905701
v 0.9312180 0.3643132 0.9905701
v -0.9473614 -0.3202770 0.9937134
v 0.9473003 0.3202160 0.9937134
v -0.9560281 -0.2933304 0.9968414
v 0.9559671 0.2932694 0.9968414
v -0.9587441 -0.2842974 0.9999847
v 0.9586831 0.2842363 0.9999847
f 1 4 2
f 4 1 3
f 3 6 4
f 6 3 5
f 5 8 6
f 8 5 7
f 7 10 8
f 10 7 9
f 9 12 10
f 12 9 11
f 11 14 12
f 14 11 13
f 13 16 14
f 16 13 15
f 15 18 16
f 18 15 17
f 17 20 18
f 20 17 19
f 19 22 20
f 22 19 21
f 21 24 22
f 24 21 23
f 23 26 24
f 26 23 25
f 25 28 26
f 28 25 27
f 27 30 28
f 30 27 29
f 29 32 30
f 32 29 31
f 31 34 32
f 34 31 33
f 33 36 34
f 36 33 35
f 35 38 36
f 38 35 37
f 37 40 38
f 40 37 39
f 39 42 40
f 42 39 41
f 41 44 42
f 44 41 43
f 43 46 44
f 46 43 45
f 45 48 46
f 48 45 47
f 47 50 48
f 50 47 49
f 49 52 50
f 52 49 51
f 51 54 52
f 54 51 53
f 53 56 54
f 56 53 55
f 55 58 56
f 58 55 57
f 57 60 58
f 60 57 59
f 59 62 60
f 62 59 61
f 61 64 62
f 64 61 63
f 63 66 64
f 66 63 65
f 65 68 66
f 68 65 67
f 67 70 68
f 70 67 69
f 69 72 70
f 72 69 71
f 71 74 72
f 74 71 73
f 73 76 74
f 76 73 75
f 75 78 76
f 78 75 77
f 77 80 78
f 80 77 79
f 79 82 80
f 82 79 81
f 81 84 82
f 84 81 83
f 83 86 84
f 86 83 85
f 85 88 86
f 88 85 87
f 87 90 88
f 90 87 89
f 89 92 90
f 92 89 91
f 91 94 92
f 94 91 93
f 93 96 94
f 96 93 95
f 95 98 96
f 98 95 97
f 97 100 98
f 100 97 99
f 99 102 100
f 102 99 101
f 101 104 102
f 104 101 103
f 103 106 104
f 106 103 105
f 105 108 106
f 108 105 107
f 107 110 108
f 110 107 109
f 109 112 110
f 112 109 111
f 111 114 112
f 114 111 113
f 113 116 114
f 116 113 115
f 115 118 116
f 118 115 117
f 117 120 118
f 120 117 119
f 119 122 120
f 122 119 121
f 121 124 122
f 124 121 123
f 123 126 124
f 126 123 125
f 125 128 126
f 128 125 127
f 127 130 128
f 130 127 129
f 129 132 130
f 132 129 131
f 131 134 132
f 134 131 133
f 133 136 134
f 136 133 135
f 135 138 136
f 138 135 137
f 137 140 138
f 140 137 139
f 139 142 140
f 142 139 141
f 141 144 142
f 144 141 143
f 143 146 144
f 146 143 145
f 145 148 146
f 148 145 147
f 147 150 148
f 150 147 149
f 149 152 150
f 152 149 151
f 151 154 152
f 154 151 153
f 153 156 154
f 156 153 155
f 155 158 156
f 158 155 157
f 157 160 158
f 160 157 159
f 159 162 160
f 162 159 161
f 161 164 162
f 164 161 163
f 163 166 164
f 166 163 165
f 165 168 166
f 168 165 167
f 167 170 168
f 170 167 169
f 169 172 170
f 172 169 171
f 171 174 172
f 174 171 173
f 173 176 174
f 176 173 175
f 175 178 176
f 178 175 177
f 177 180 178
f 180 177 179
f 179 182 180
f 182 179 181
f 181 184 182
f 184 181 183
f 183 186 184
f 186 183 185
f 185 188 186
f 188 185 187
f 187 190 188
f 190 187 189
f 189 192 190
f 192 189 191
f 191 194 192
f 194 191 193
f 193 196 194
f 196 193 195
f 195 198 196
f 198 195 197
f 197 200 198
f 200 197 199
f 199 202 200
f 202 199 201
f 201 204 202
f 204 201 203
f 203 206 204
f 206 203 205
f 205 208 206
f 208 205 207
f 207 210 208
f 210 207 209
f 209 212 210
f 212 209 211
f 211 214 212
f 214 211 213
f 213 216 214
f 216 213 215
f 215 218 216
f 218 215 217
f 217 220 218
f 220 217 219
f 219 222 220
f 222 219 221
f 221 224 222
f 224 221 223
f 223 226 224
f 226 223 225
f 225 228 226
f 228 225 227
f 227 230 228
f 230 227 229
f 229 232 230
f 232 229 231
f 231 234 232
f 234 231 233
f 233 236 234
f 236 233 235
f 235 238 236
f 238 235 237
f 237 240 238
f 240 237 239
f 239 242 240
f 242 239 241
f 241 244 242
f 244 241 243
f 243 246 244
f 246 243 245
f 245 248 246
f 248 245 247
f 247 250 248
f 250 247 249
f 249 252 250
f 252 249 251
f 251 254 252
f 254 251 253
f 253 256 254
f 256 253 255
f 255 258 256
f 258 255 257
f 257 260 258
f 260 257 259
f 259 262 260
f 262 259 261
f 261 264 262
f 264 261 263
f 263 266 264
f 266 263 265
f 265 268 266
f 268 265 267
f 267 270 268
f 270 267 269
f 269 272 270
f 272 269 271
f 271 274 272
f 274 271 273
f 273 276 274
f 276 273 275
f 275 278 276
f 278 275 277
f 277 280 278
f 280 277 279
f 279 282 280
f 282 279 281
f 281 284 282
f 284 281 283
f 283 286 284
f 286 283 285
f 285 288 286
f 288 285 287
f 287 290 288
f 290 287 289
f 289 292 290
f 292 289 291
f 291 294 292
f 294 291 293
f 293 296 294
f 296 293 295
f 295 298 296
f 298 295 297
f 297 300 298
f 300 297 299
f 299 302 300
f 302 299 301
f 301 304 302
f 304 301 303
f 303 306 304
f 306 303 305
f 305 308 306
f 308 305 307
f 307 310 308
f 310 307 309
f 309 312 310
f 312 309 311
f 311 314 312
f 314 311 313
f 313 316 314
f 316 313 315
f 315 318 316
f 318 315 317
f 317 320 318
f 320 317 319
f 319 322 320
f 322 319 321
f 321 324 322
f 324 321 323
f 323 326 324
f 326 323 325
f 325 328 326
f 328 325 327
f 327 330 328
f 330 327 329
f 329 332 330
f 332 329 331
f 331 334 332
f 334 331 333
f 333 336 334
f 336 333 335
f 335 338 336
f 338 335 337
f 337 340 338
f 340 337 339
f 339 342 340
f 342 339 341
f 341 344 342
f 344 341 343
f 343 346 344
f 346 343 345
f 345 348 346
f 348 345 347
f 347 350 348
f 350 347 349
f 349 352 350
f 352 349 351
f 351 354 352
f 354 351 353
f 353 356 354
f 356 353 355
f 355 358 356
f 358 355 357
f 357 360 358
f 360 357 359
f 359 362 360
f 362 359 361
f 361 364 362
f 364 361 363
f 363 366 364
f 366 363 365
f 365 368 366
f 368 365 367
f 367 370 368
f 370 367 369
f 369 372 370
f 372 369 371
f 371 374 372
f 374 371 373
f 373 376 374
f 376 373 375
f 375 378 376
f 378 375 377
f 377 380 378
f 380 377 379
f 379 382 380
f 382 379 381
f 381 384 382
f 384 381 383
f 383 386 384
f 386 383 385
f 385 388 386
f 388 385 387
f 387 390 388
f 390 387 389
f 389 392 390
f 392 389 391
f 391 394 392
f 394 391 393
f 393 396 394
f 396 393 395
f 395 398 396
f 398 395 397
f 397 400 398
f 400 397 399
f 399 402 400
f 402 399 401
f 401 404 402
f 404 401 403
f 403 406 404
f 406 403 405
f 405 408 406
f 408 405 407
f 407 410 408
f 410 407 409
f 409 412 410
f 412 409 411
f 411 414 412
f 414 411 413
f 413 416 414
f 416 413 415
f 415 418 416
f 418 415 417
f 417 420 418
f 420 417 419
f 419 422 420
f 422 419 421
f 421 424 422
f 424 421 423
f 423 426 424
f 426 423 425
f 425 428 426
f 428 425 427
f 427 430 428
f 430 427 429
f 429 432 430
f 432 429 431
f 431 434 432
f 434 431 433
f 433 436 434
f 436 433 435
f 435 438 436
f 438 435 437
f 437 440 438
f 440 437 439
f 439 442 440
f 442 439 441
f 441 444 442
f 444 441 443
f 443 446 444
f 446 443 445
f 445 448 446
f 448 445 447
f 447 450 448
f 450 447 449
f 449 452 450
f 452 449 451
f 451 454 452
f 454 451 453
f 453 456 454
f 456 453 455
f 455 458 456
f 458 455 457
f 457 460 458
f 460 457 459
f 459 462 460
f 462 459 461
f 461 464 462
f 464 461 463
f 463 466 464
f 466 463 465
f 465 468 466
f 468 465 467
f 467 470 468
f 470 467 469
f 469 472 470
f 472 469 471
f 471 474 472
f 474 471 473
f 473 476 474
f 476 473 475
f 475 478 476
f 478 475 477
f 477 480 478
f 480 477 479
f 479 482 480
f 482 479 481
f 481 484 482
f 484 481 483
f 483 486 484
f 486 483 485
f 485 488 486
f 488 485 487
f 487 490 488
f 490 487 489
f 489 492 490
f 492 489 491
f 491 494 492
f 494 491 493
f 493 496 494
f 496 493 495
f 495 498 496
f 498 495 497
f 497 500 498
f 500 497 499
f 499 502 500
f 502 499 501
f 501 504 502
f 504 501 503
f 503 506 504
f 506 503 505
f 505 508 506
f 508 505 507
f 507 510 508
f 510 507 509
f 509 512 510
f 512 509 511
f 511 514 512
f 514 511 513
f 513 516 514
f 516 513 515
f 515 518 516
f 518 515 517
f 517 520 518
f 520 517 519
f 519 522 520
f 522 519 521
f 521 524 522
f 524 521 523
f 523 526 524
f 526 523 525
f 525 528 526
f 528 525 527
f 527 530 528
f 530 527 529
f 529 532 530
f 532 529 531
f 531 534 532
f 534 531 533
f 533 536 534
f 536 533 535
f 535 538 536
f 538 535 537
f 537 540 538
f 540 537 539
f 539 542 540
f 542 539 541
f 541 544 542
f 544 541 543
f 543 546 544
f 546 543 545
f 545 548 546
f 548 545 547
f 547 550 548
f 550 547 549
f 549 552 550
f 552 549 551
f 551 554 552
f 554 551 553
f 553 556 554
f 556 553 555
f 555 558 556
f 558 555 557
f 557 560 558
f 560 557 559
f 559 562 560
f 562 559 561
f 561 564 562
f 564 561 563
f 563 566 564
f 566 563 565
f 565 568 566
f 568 565 567
f 567 570 568
f 570 567 569
f 569 572 570
f 572 569 571
f 571 574 572
f 574 571 573
f 573 576 574
f 576 573 575
f 575 578 576
f 578 575 577
f 577 580 578
f 580 577 579
f 579 582 580
f 582 579 581
f 581 584 582
f 584 581 583
f 583 586 584
f 586 583 585
f 585 588 586
f 588 585 587
f 587 590 588
f 590 587 589
f 589 592 590
f 592 589 591
f 591 594 592
f 594 591 593
f 593 596 594
f 596 593 595
f 595 598 596
f 598 595 597
f 597 600 598
f 600 597 599
f 599 602 600
f 602 599 601
f 601 604 602
f 604 601 603
f 603 606 604
f 606 603 605
f 605 608 606
f 608 605 607
f 607 610 608
f 610 607 609
f 609 612 610
f 612 609 611
f 611 614 612
f 614 611 613
f 613 616 614
f 616 613 615
f 615 618 616
f 618 615 617
f 617 620 618
f 620 617 619
f 619 622 620
f 622 619 621
f 621 624 622
f 624 621 623
f 623 626 624
f 626 623 625
f 625 628 626
f 628 625 627
f 627 630 628
f 630 627 629
f 629 632 630
f 632 629 631
f 631 634 632
f 634 631 633
f 633 636 634
f 636 633 635
f 635 638 636
f 638 635 637
f 637 640 638
f 640 637 639
