# Decoded from sources/assets/lusion.dev/assets/models/playground/tunnel.buf
# Position/index data decoded from public .buf header and payload.
v -10.0000000 0.4999847 0.0000000
v -10.0000000 0.4903717 -0.1950989
v -10.0000000 0.4619141 -0.3826904
v -10.0000000 0.4157104 -0.5555725
v -10.0000000 0.3535309 -0.7070923
v -10.0000000 0.2777710 -0.8314514
v -10.0000000 0.1913300 -0.9238586
v -10.0000000 0.0975342 -0.9807739
v -10.0000000 0.0000000 -1.0000000
v -10.0000000 -0.0975494 -0.9807739
v -10.0000000 -0.1913452 -0.9238586
v -10.0000000 -0.2777863 -0.8314514
v -10.0000000 -0.3535461 -0.7070923
v -10.0000000 -0.4157257 -0.5555725
v -10.0000000 -0.4619293 -0.3826904
v -10.0000000 -0.4903870 -0.1950989
v -10.0000000 -0.5000000 0.0000000
v -10.0000000 -0.4903870 0.1950684
v -10.0000000 -0.4619293 0.3826599
v -10.0000000 -0.4157257 0.5555420
v -10.0000000 -0.3535461 0.7070618
v -10.0000000 -0.2777863 0.8314209
v -10.0000000 -0.1913452 0.9238281
v -10.0000000 -0.0975494 0.9807434
v -10.0000000 0.0000000 0.9999695
v -10.0000000 0.0975342 0.9807434
v -10.0000000 0.1913300 0.9238281
v -10.0000000 0.2777710 0.8314209
v -10.0000000 0.3535309 0.7070618
v -10.0000000 0.4157104 0.5555420
v -10.0000000 0.4619141 0.3826599
v -10.0000000 0.4903717 0.1950684
v 9.9996948 0.4999847 0.0000000
v 9.9996948 0.4903717 -0.1950989
v 9.9996948 0.4619141 -0.3826904
v 9.9996948 0.4157104 -0.5555725
v 9.9996948 0.3535309 -0.7070923
v 9.9996948 0.2777710 -0.8314514
v 9.9996948 0.1913300 -0.9238586
v 9.9996948 0.0975342 -0.9807739
v 9.9996948 0.0000000 -1.0000000
v 9.9996948 -0.0975494 -0.9807739
v 9.9996948 -0.1913452 -0.9238586
v 9.9996948 -0.2777863 -0.8314514
v 9.9996948 -0.3535461 -0.7070923
v 9.9996948 -0.4157257 -0.5555725
v 9.9996948 -0.4619293 -0.3826904
v 9.9996948 -0.4903870 -0.1950989
v 9.9996948 -0.5000000 0.0000000
v 9.9996948 -0.4903870 0.1950684
v 9.9996948 -0.4619293 0.3826599
v 9.9996948 -0.4157257 0.5555420
v 9.9996948 -0.3535461 0.7070618
v 9.9996948 -0.2777863 0.8314209
v 9.9996948 -0.1913452 0.9238281
v 9.9996948 -0.0975494 0.9807434
v 9.9996948 0.0000000 0.9999695
v 9.9996948 0.0975342 0.9807434
v 9.9996948 0.1913300 0.9238281
v 9.9996948 0.2777710 0.8314209
v 9.9996948 0.3535309 0.7070618
v 9.9996948 0.4157104 0.5555420
v 9.9996948 0.4619141 0.3826599
v 9.9996948 0.4903717 0.1950684
f 1 34 2
f 1 33 34
f 2 35 3
f 2 34 35
f 3 36 4
f 3 35 36
f 4 37 5
f 4 36 37
f 5 38 6
f 5 37 38
f 6 39 7
f 6 38 39
f 7 40 8
f 7 39 40
f 8 41 9
f 8 40 41
f 9 42 10
f 9 41 42
f 10 43 11
f 10 42 43
f 11 44 12
f 11 43 44
f 12 45 13
f 12 44 45
f 13 46 14
f 13 45 46
f 14 47 15
f 14 46 47
f 15 48 16
f 15 47 48
f 16 49 17
f 16 48 49
f 17 50 18
f 17 49 50
f 18 51 19
f 18 50 51
f 19 52 20
f 19 51 52
f 20 53 21
f 20 52 53
f 21 54 22
f 21 53 54
f 22 55 23
f 22 54 55
f 23 56 24
f 23 55 56
f 24 57 25
f 24 56 57
f 25 58 26
f 25 57 58
f 26 59 27
f 26 58 59
f 27 60 28
f 27 59 60
f 28 61 29
f 28 60 61
f 29 62 30
f 29 61 62
f 30 63 31
f 30 62 63
f 31 64 32
f 31 63 64
f 32 33 1
f 32 64 33
