# Decoded from sources/assets/lusion.dev/assets/models/about/bg_box.buf
# Position/index data decoded from public .buf header and payload.
v -187.1411130 -1.0187836 -200.0000000
v 267.0437896 -1.0187836 -200.0000000
v -187.1411130 -1.0187836 65.3926103
v 267.0437896 -1.0187836 65.3926103
v -187.1411130 998.9659422 65.3926103
v 267.0437896 998.9659422 65.3926103
v 267.0437896 998.9659422 -200.0000000
v -187.1411130 998.9659422 -200.0000000
f 1 4 2
f 3 6 4
f 4 7 2
f 1 4 2
f 1 5 3
f 5 1 8
f 4 1 3
f 7 4 6
f 6 3 5
f 4 1 3
