# Decoded from sources/assets/lusion.dev/assets/models/about/logo_text.buf
# Position/index data decoded from public .buf header and payload.
v 0.0000000 0.0016896 0.0000000
v 0.0000000 0.0115540 0.0000000
v 0.0000000 0.0214185 0.0000000
v 0.0000000 0.0312830 0.0000000
v 0.0000000 0.0411474 0.0000000
v 0.0000000 0.0510119 0.0000000
v 0.0000000 0.0608764 0.0000000
v 0.0000000 0.0707409 0.0000000
v 0.0000000 0.0806053 0.0000000
v 0.0000000 0.0904698 0.0000000
v 0.0000000 0.1003343 0.0000000
v 0.0000000 0.1101987 0.0000000
v 0.0000000 0.1200632 0.0000000
v 0.0000000 0.1299277 0.0000000
v 0.0000000 0.1397921 0.0000000
v 0.0000000 0.1496566 0.0000000
v 0.0000000 0.1595211 0.0000000
v 0.0000000 0.1693856 0.0000000
v 0.0000000 0.1792500 0.0000000
v 0.0000000 0.1891145 0.0000000
v 0.0000000 0.1989790 0.0000000
v 0.0081024 0.1989790 0.0000000
v 0.0097656 0.0016896 0.0000000
v 0.0129852 0.0146878 0.9999847
v 0.0129852 0.0146878 0.9999847
v 0.0129852 0.0214185 0.9999847
v 0.0129852 0.0146878 0.9999847
v 0.0129852 0.0312830 0.9999847
v 0.0129852 0.0411474 0.9999847
v 0.0129852 0.0510119 0.9999847
v 0.0129852 0.0608764 0.9999847
v 0.0129852 0.0707409 0.9999847
v 0.0129852 0.0806053 0.9999847
v 0.0129852 0.0904698 0.9999847
v 0.0129852 0.1003343 0.9999847
v 0.0129852 0.1101987 0.9999847
v 0.0129852 0.1200632 0.9999847
v 0.0129852 0.1299277 0.9999847
v 0.0129852 0.1397921 0.9999847
v 0.0129852 0.1496566 0.9999847
v 0.0129852 0.1595211 0.9999847
v 0.0129852 0.1693856 0.9999847
v 0.0129852 0.1792500 0.9999847
v 0.0129852 0.1859807 0.9999847
v 0.0129852 0.1859807 0.9999847
v 0.0129852 0.1859807 0.9999847
v 0.0162048 0.1989790 0.0000000
v 0.0162048 0.1859807 0.9999847
v 0.0194092 0.1859807 0.9999847
v 0.0194092 0.1859807 0.9999847
v 0.0194092 0.1859807 0.9999847
v 0.0194092 0.1791519 0.9999847
v 0.0194092 0.1692353 0.9999847
v 0.0194092 0.1593218 0.9999847
v 0.0194092 0.1494082 0.9999847
v 0.0194092 0.1394947 0.9999847
v 0.0194092 0.1295812 0.9999847
v 0.0194092 0.1196646 0.9999847
v 0.0194092 0.1097510 0.9999847
v 0.0194092 0.0998375 0.9999847
v 0.0194092 0.0899240 0.9999847
v 0.0194092 0.0800074 0.9999847
v 0.0194092 0.0700939 0.9999847
v 0.0194092 0.0601803 0.9999847
v 0.0194092 0.0502668 0.9999847
v 0.0194092 0.0403502 0.9999847
v 0.0194092 0.0174384 0.9999847
v 0.0195313 0.0016896 0.0000000
v 0.0195313 0.0146878 0.9999847
v 0.0243073 0.1989790 0.0000000
v 0.0293121 0.0016896 0.0000000
v 0.0293121 0.0146878 0.9999847
v 0.0324097 0.1989790 0.0000000
v 0.0324097 0.1890654 0.0000000
v 0.0324097 0.1791519 0.0000000
v 0.0324097 0.1692353 0.0000000
v 0.0324097 0.1593218 0.0000000
v 0.0324097 0.1494082 0.0000000
v 0.0324097 0.1394947 0.0000000
v 0.0324097 0.1295812 0.0000000
v 0.0324097 0.1196646 0.0000000
v 0.0324097 0.1097510 0.0000000
v 0.0324097 0.0998375 0.0000000
v 0.0324097 0.0899240 0.0000000
v 0.0324097 0.0800074 0.0000000
v 0.0324097 0.0700939 0.0000000
v 0.0324097 0.0601803 0.0000000
v 0.0324097 0.0502668 0.0000000
v 0.0324097 0.0403502 0.0000000
v 0.0324097 0.0304367 0.0000000
v 0.0390778 0.0016896 0.0000000
v 0.0390778 0.0146878 0.9999847
v 0.0418396 0.0304367 0.0000000
v 0.0418396 0.0174384 0.9999847
v 0.0488586 0.0016896 0.0000000
v 0.0488586 0.0146878 0.9999847
v 0.0512695 0.0304367 0.0000000
v 0.0512695 0.0174384 0.9999847
v 0.0586243 0.0016896 0.0000000
v 0.0586243 0.0146878 0.9999847
v 0.0606995 0.0304367 0.0000000
v 0.0606995 0.0174384 0.9999847
v 0.0684052 0.0016896 0.0000000
v 0.0684052 0.0146878 0.9999847
v 0.0701294 0.0304367 0.0000000
v 0.0701294 0.0174384 0.9999847
v 0.0781708 0.0016896 0.0000000
v 0.0781708 0.0146878 0.9999847
v 0.0795441 0.0304367 0.0000000
v 0.0795441 0.0174384 0.9999847
v 0.0879517 0.0016896 0.0000000
v 0.0879517 0.0146878 0.9999847
v 0.0889740 0.0304367 0.0000000
v 0.0889740 0.0174384 0.9999847
v 0.0977173 0.0016896 0.0000000
v 0.0977173 0.0146878 0.9999847
v 0.0984039 0.0304367 0.0000000
v 0.0984039 0.0174384 0.9999847
v 0.1042633 0.0174384 0.9999847
v 0.1042633 0.0174384 0.9999847
v 0.1042633 0.0174384 0.9999847
v 0.1042633 0.0146878 0.9999847
v 0.1042633 0.0146878 0.9999847
v 0.1042633 0.0146878 0.9999847
v 0.1074982 0.0016896 0.0000000
v 0.1078339 0.0304367 0.0000000
v 0.1172638 0.0304367 0.0000000
v 0.1172638 0.0208543 0.0000000
v 0.1172638 0.0112719 0.0000000
v 0.1172638 0.0016896 0.0000000
v 0.1409760 0.1989790 0.0000000
v 0.1409760 0.1890102 0.0000000
v 0.1409912 0.1790384 0.0000000
v 0.1410065 0.1690697 0.0000000
v 0.1410217 0.1590979 0.0000000
v 0.1410217 0.1491292 0.0000000
v 0.1410370 0.1391574 0.0000000
v 0.1410522 0.1291887 0.0000000
v 0.1410675 0.1192169 0.0000000
v 0.1410675 0.1092482 0.0000000
v 0.1410828 0.0992764 0.0000000
v 0.1410980 0.0893076 0.0000000
v 0.1411133 0.0793359 0.0000000
v 0.1415253 0.0727125 0.0000000
v 0.1422119 0.0663713 0.0000000
v 0.1431580 0.0603122 0.0000000
v 0.1443939 0.0545352 0.0000000
v 0.1459045 0.0490402 0.0000000
v 0.1476898 0.0438244 0.0000000
v 0.1490784 0.1989790 0.0000000
v 0.1497498 0.0388937 0.0000000
v 0.1520691 0.0342420 0.0000000
v 0.1539917 0.1859807 0.9999847
v 0.1539917 0.1859807 0.9999847
v 0.1539917 0.1859807 0.9999847
v 0.1539917 0.1790538 0.9999847
v 0.1540070 0.1690850 0.9999847
v 0.1540222 0.1591133 0.9999847
v 0.1540222 0.1491445 0.9999847
v 0.1540375 0.1391727 0.9999847
v 0.1540527 0.1292040 0.9999847
v 0.1540680 0.1192322 0.9999847
v 0.1540680 0.1092635 0.9999847
v 0.1540833 0.0992917 0.9999847
v 0.1540985 0.0893230 0.9999847
v 0.1541138 0.0797467 0.9999847
v 0.1544800 0.0738164 0.9999847
v 0.1546783 0.0298724 0.0000000
v 0.1550903 0.0680885 0.9999847
v 0.1559448 0.0626886 0.9999847
v 0.1570282 0.0576138 0.9999847
v 0.1571808 0.1989790 0.0000000
v 0.1571808 0.1859807 0.9999847
v 0.1575470 0.0257881 0.0000000
v 0.1583405 0.0528640 0.9999847
v 0.1598511 0.0484331 0.9999847
v 0.1604004 0.1859807 0.9999847
v 0.1604004 0.1859807 0.9999847
v 0.1604004 0.1859807 0.9999847
v 0.1604004 0.1791396 0.9999847
v 0.1604156 0.1692261 0.9999847
v 0.1604156 0.1593095 0.9999847
v 0.1604156 0.1493960 0.9999847
v 0.1604309 0.1394794 0.9999847
v 0.1604309 0.1295658 0.9999847
v 0.1604462 0.1196492 0.9999847
v 0.1604462 0.1097326 0.9999847
v 0.1604614 0.0998191 0.9999847
v 0.1604614 0.0899025 0.9999847
v 0.1604614 0.0795290 0.9999847
v 0.1607056 0.0219827 0.0000000
v 0.1611481 0.0699865 0.9999847
v 0.1615753 0.0443119 0.9999847
v 0.1625519 0.0610328 0.9999847
v 0.1634827 0.0404882 0.9999847
v 0.1641235 0.0184717 0.0000000
v 0.1647034 0.0528609 0.9999847
v 0.1652832 0.1989790 0.0000000
v 0.1655884 0.0369527 0.9999847
v 0.1661682 0.0487305 0.9999847
v 0.1677856 0.0152643 0.0000000
v 0.1678009 0.0449252 0.9999847
v 0.1678925 0.0336870 0.9999847
v 0.1696777 0.0412854 0.9999847
v 0.1703796 0.0306758 0.9999847
v 0.1717224 0.0123636 0.0000000
v 0.1717834 0.0378204 0.9999847
v 0.1730652 0.0279130 0.9999847
v 0.1733856 0.1989790 0.0000000
v 0.1734009 0.1890654 0.0000000
v 0.1734009 0.1791488 0.0000000
v 0.1734161 0.1692322 0.0000000
v 0.1734161 0.1593187 0.0000000
v 0.1734161 0.1494021 0.0000000
v 0.1734314 0.1394886 0.0000000
v 0.1734314 0.1295720 0.0000000
v 0.1734467 0.1196584 0.0000000
v 0.1734467 0.1097418 0.0000000
v 0.1734619 0.0998283 0.0000000
v 0.1734619 0.0899117 0.0000000
v 0.1734619 0.0799982 0.0000000
v 0.1740723 0.0714645 0.0000000
v 0.1741791 0.0344842 0.9999847
v 0.1752930 0.0636974 0.0000000
v 0.1759033 0.0097694 0.0000000
v 0.1759491 0.0254048 0.9999847
v 0.1768646 0.0313964 0.9999847
v 0.1771393 0.0566969 0.0000000
v 0.1782837 0.0534865 0.0000000
v 0.1790161 0.0231326 0.9999847
v 0.1795807 0.0504661 0.0000000
v 0.1797638 0.0285876 0.9999847
v 0.1803284 0.0074788 0.0000000
v 0.1810303 0.0476389 0.0000000
v 0.1823120 0.0210843 0.9999847
v 0.1826324 0.0450019 0.0000000
v 0.1829071 0.0260487 0.9999847
v 0.1843872 0.0425580 0.0000000
v 0.1850128 0.0054949 0.0000000
v 0.1858521 0.0192567 0.9999847
v 0.1862640 0.0237888 0.9999847
v 0.1862946 0.0403502 0.0000000
v 0.1883850 0.0383356 0.0000000
v 0.1896515 0.0176499 0.9999847
v 0.1898041 0.0218202 0.9999847
v 0.1899567 0.0038145 0.0000000
v 0.1906433 0.0365142 0.0000000
v 0.1930542 0.0348829 0.0000000
v 0.1935272 0.0201429 0.9999847
v 0.1937256 0.0162670 0.9999847
v 0.1951599 0.0024408 0.0000000
v 0.1956482 0.0334448 0.0000000
v 0.1973877 0.0187508 0.9999847
v 0.1980743 0.0151171 0.9999847
v 0.1984100 0.0321998 0.0000000
v 0.2006073 0.0013737 0.0000000
v 0.2013397 0.0311450 0.0000000
v 0.2013702 0.0176377 0.9999847
v 0.2027283 0.0142064 0.9999847
v 0.2044373 0.0302803 0.0000000
v 0.2054901 0.0167914 0.9999847
v 0.2063141 0.0006102 0.0000000
v 0.2076721 0.0135441 0.9999847
v 0.2076874 0.0296087 0.0000000
v 0.2097015 0.0162026 0.9999847
v 0.2111206 0.0291304 0.0000000
v 0.2122803 0.0001503 0.0000000
v 0.2129364 0.0131393 0.9999847
v 0.2142029 0.0158439 0.9999847
v 0.2147217 0.0288422 0.0000000
v 0.2184906 0.0000000 0.0000000
v 0.2184906 0.0130014 0.9999847
v 0.2223053 0.0288422 0.0000000
v 0.2228241 0.0158439 0.9999847
v 0.2241058 0.0131393 0.9999847
v 0.2247620 0.0001503 0.0000000
v 0.2259521 0.0291304 0.0000000
v 0.2273560 0.0161996 0.9999847
v 0.2294006 0.0135441 0.9999847
v 0.2294159 0.0296087 0.0000000
v 0.2307587 0.0006102 0.0000000
v 0.2316132 0.0167883 0.9999847
v 0.2327118 0.0302803 0.0000000
v 0.2344055 0.0142064 0.9999847
v 0.2357483 0.0176316 0.9999847
v 0.2358398 0.0311450 0.0000000
v 0.2364960 0.0013737 0.0000000
v 0.2387848 0.0321998 0.0000000
v 0.2390900 0.0151202 0.9999847
v 0.2397614 0.0187416 0.9999847
v 0.2415771 0.0334448 0.0000000
v 0.2419891 0.0024408 0.0000000
v 0.2434692 0.0162732 0.9999847
v 0.2436523 0.0201276 0.9999847
v 0.2441864 0.0348829 0.0000000
v 0.2466125 0.0365142 0.0000000
v 0.2472076 0.0038145 0.0000000
v 0.2473755 0.0218049 0.9999847
v 0.2475739 0.0176591 0.9999847
v 0.2488708 0.0383356 0.0000000
v 0.2509460 0.0237704 0.9999847
v 0.2509613 0.0403502 0.0000000
v 0.2513885 0.0192659 0.9999847
v 0.2521820 0.0054949 0.0000000
v 0.2528839 0.0425580 0.0000000
v 0.2543182 0.0260303 0.9999847
v 0.2546844 0.0450019 0.0000000
v 0.2549438 0.0210935 0.9999847
v 0.2563324 0.0476389 0.0000000
v 0.2568970 0.0074788 0.0000000
v 0.2574768 0.0285723 0.9999847
v 0.2578278 0.0504661 0.0000000
v 0.2582550 0.0231418 0.9999847
v 0.2591553 0.0534865 0.0000000
v 0.2603302 0.0566969 0.0000000
v 0.2604065 0.0313872 0.9999847
v 0.2613373 0.0254140 0.9999847
v 0.2613373 0.0601006 0.0000000
v 0.2613373 0.0097694 0.0000000
v 0.2629089 0.0674844 0.0000000
v 0.2630463 0.0344229 0.9999847
v 0.2638550 0.0756348 0.0000000
v 0.2640076 0.0812186 0.0000000
v 0.2641602 0.0868024 0.0000000
v 0.2641602 0.0961518 0.0000000
v 0.2641602 0.1054980 0.0000000
v 0.2641602 0.1148473 0.0000000
v 0.2641602 0.1241936 0.0000000
v 0.2641602 0.1335429 0.0000000
v 0.2641602 0.1428922 0.0000000
v 0.2641602 0.1522385 0.0000000
v 0.2641602 0.1615878 0.0000000
v 0.2641602 0.1709341 0.0000000
v 0.2641602 0.1802834 0.0000000
v 0.2641602 0.1896327 0.0000000
v 0.2641602 0.1989790 0.0000000
v 0.2642059 0.0279192 0.9999847
v 0.2654572 0.0376947 0.9999847
v 0.2655334 0.0123636 0.0000000
v 0.2669220 0.0307096 0.9999847
v 0.2676086 0.0411628 0.9999847
v 0.2694702 0.0152643 0.0000000
v 0.2694855 0.0337575 0.9999847
v 0.2695313 0.0448117 0.9999847
v 0.2712097 0.0486263 0.9999847
v 0.2718201 0.0370232 0.9999847
v 0.2722626 0.1989790 0.0000000
v 0.2726746 0.0526003 0.9999847
v 0.2731476 0.0184717 0.0000000
v 0.2739563 0.0405587 0.9999847
v 0.2739563 0.0568840 0.9999847
v 0.2757568 0.0653870 0.9999847
v 0.2758942 0.0443732 0.9999847
v 0.2765656 0.0219827 0.0000000
v 0.2768250 0.0747057 0.9999847
v 0.2770081 0.0808537 0.9999847
v 0.2771606 0.1859807 0.9999847
v 0.2771606 0.1859807 0.9999847
v 0.2771606 0.1859807 0.9999847
v 0.2771606 0.0866215 0.9999847
v 0.2771606 0.0961518 0.9999847
v 0.2771606 0.1054980 0.9999847
v 0.2771606 0.1148473 0.9999847
v 0.2771606 0.1241936 0.9999847
v 0.2771606 0.1335429 0.9999847
v 0.2771606 0.1428922 0.9999847
v 0.2771606 0.1522385 0.9999847
v 0.2771606 0.1615878 0.9999847
v 0.2771606 0.1709341 0.9999847
v 0.2771606 0.1802834 0.9999847
v 0.2776337 0.0484883 0.9999847
v 0.2791595 0.0529131 0.9999847
v 0.2797699 0.0257881 0.0000000
v 0.2803802 0.1989790 0.0000000
v 0.2803802 0.1859807 0.9999847
v 0.2804871 0.0576536 0.9999847
v 0.2815857 0.0627193 0.9999847
v 0.2824402 0.0681130 0.9999847
v 0.2826843 0.0298724 0.0000000
v 0.2830658 0.0738317 0.9999847
v 0.2834473 0.0798755 0.9999847
v 0.2835846 0.1859807 0.9999847
v 0.2835846 0.1859807 0.9999847
v 0.2835846 0.1859807 0.9999847
v 0.2835846 0.1801883 0.9999847
v 0.2835846 0.1707961 0.9999847
v 0.2835846 0.1614008 0.9999847
v 0.2835846 0.1520054 0.9999847
v 0.2835846 0.1426101 0.9999847
v 0.2835846 0.1332148 0.9999847
v 0.2835846 0.1238226 0.9999847
v 0.2835846 0.1144272 0.9999847
v 0.2835846 0.1050319 0.9999847
v 0.2835846 0.0956366 0.9999847
v 0.2835846 0.0863731 0.9999847
v 0.2853241 0.0342420 0.0000000
v 0.2876892 0.0388937 0.0000000
v 0.2884827 0.1989790 0.0000000
v 0.2897644 0.0438244 0.0000000
v 0.2915802 0.0490402 0.0000000
v 0.2931061 0.0545352 0.0000000
v 0.2943573 0.0603122 0.0000000
v 0.2953339 0.0663713 0.0000000
v 0.2960205 0.0727125 0.0000000
v 0.2964478 0.0793359 0.0000000
v 0.2965851 0.1989790 0.0000000
v 0.2965851 0.1895836 0.0000000
v 0.2965851 0.1801883 0.0000000
v 0.2965851 0.1707961 0.0000000
v 0.2965851 0.1614008 0.0000000
v 0.2965851 0.1520054 0.0000000
v 0.2965851 0.1426101 0.0000000
v 0.2965851 0.1332148 0.0000000
v 0.2965851 0.1238226 0.0000000
v 0.2965851 0.1144272 0.0000000
v 0.2965851 0.1050319 0.0000000
v 0.2965851 0.0956366 0.0000000
v 0.2965851 0.0862413 0.0000000
v 0.3382721 0.0665123 0.0000000
v 0.3386230 0.0601497 0.0000000
v 0.3395233 0.0540169 0.0000000
v 0.3409424 0.0481234 0.0000000
v 0.3425598 0.1398872 0.0000000
v 0.3425598 0.1456857 0.0000000
v 0.3429108 0.0424629 0.0000000
v 0.3430176 0.1341746 0.0000000
v 0.3430481 0.1511193 0.0000000
v 0.3439636 0.1288483 0.0000000
v 0.3440094 0.1563474 0.0000000
v 0.3453674 0.1239176 0.0000000
v 0.3453979 0.0370385 0.0000000
v 0.3454742 0.1613762 0.0000000
v 0.3462372 0.0663713 0.0000000
v 0.3472595 0.1193763 0.0000000
v 0.3474121 0.1661965 0.0000000
v 0.3484192 0.0318472 0.0000000
v 0.3496094 0.1152276 0.0000000
v 0.3498383 0.1708175 0.0000000
v 0.3520050 0.0270483 0.0000000
v 0.3524475 0.1114590 0.0000000
v 0.3527832 0.1752178 0.0000000
v 0.3530884 0.0532504 0.9999847
v 0.3530884 0.0532504 0.9999847
v 0.3530884 0.0532504 0.9999847
v 0.3530884 0.0532504 0.9999847
v 0.3534393 0.0517846 0.9999847
v 0.3539581 0.0532350 0.9999847
v 0.3542023 0.0662302 0.0000000
v 0.3549805 0.0473108 0.9999847
v 0.3555603 0.1404207 0.9999847
v 0.3555603 0.1451031 0.9999847
v 0.3556213 0.1080155 0.0000000
v 0.3559265 0.1358396 0.9999847
v 0.3559418 0.1493500 0.9999847
v 0.3560333 0.0226082 0.0000000
v 0.3561707 0.1793021 0.0000000
v 0.3566437 0.1317736 0.9999847
v 0.3566742 0.1533454 0.9999847
v 0.3569489 0.0430333 0.9999847
v 0.3576660 0.1282013 0.9999847
v 0.3577728 0.1571263 0.9999847
v 0.3589630 0.1250859 0.9999847
v 0.3590698 0.1048817 0.0000000
v 0.3592224 0.1607323 0.9999847
v 0.3592682 0.0390378 0.9999847
v 0.3593750 0.0531369 0.9999847
v 0.3593750 0.0531369 0.9999847
v 0.3593750 0.0531369 0.9999847
v 0.3599243 0.1830615 0.0000000
v 0.3599854 0.0508494 0.9999847
v 0.3604736 0.0185300 0.0000000
v 0.3604889 0.1223722 0.9999847
v 0.3610229 0.1641574 0.9999847
v 0.3618774 0.1450417 0.9999847
v 0.3620605 0.0353244 0.9999847
v 0.3621521 0.0660892 0.0000000
v 0.3622894 0.1512634 0.9999847
v 0.3624268 0.1383387 0.9999847
v 0.3624420 0.1198026 0.9999847
v 0.3627014 0.0443334 0.9999847
v 0.3627777 0.1020637 0.0000000
v 0.3632202 0.1674353 0.9999847
v 0.3635406 0.1571907 0.9999847
v 0.3640594 0.1864897 0.0000000
v 0.3642273 0.1317828 0.9999847
v 0.3647919 0.1172514 0.9999847
v 0.3652649 0.0317767 0.9999847
v 0.3653259 0.0148105 0.0000000
v 0.3657227 0.1628419 0.9999847
v 0.3657990 0.1705416 0.9999847
v 0.3662720 0.0382712 0.9999847
v 0.3667603 0.0995585 0.0000000
v 0.3673859 0.1257084 0.9999847
v 0.3673859 0.1148903 0.9999847
v 0.3685760 0.1895898 0.0000000
v 0.3686981 0.1734393 0.9999847
v 0.3688354 0.0284987 0.9999847
v 0.3688354 0.1680486 0.9999847
v 0.3701172 0.0659481 0.0000000
v 0.3701935 0.1127622 0.9999847
v 0.3706207 0.0114528 0.0000000
v 0.3706665 0.0327487 0.9999847
v 0.3709106 0.0603122 0.0000000
v 0.3718414 0.1204220 0.9999847
v 0.3719025 0.1761101 0.9999847
v 0.3723145 0.0550503 0.0000000
v 0.3727722 0.1726482 0.9999847
v 0.3727722 0.0254814 0.9999847
v 0.3731079 0.1109285 0.9999847
v 0.3732300 0.0963879 0.0000000
v 0.3734589 0.1923618 0.0000000
v 0.3743439 0.0501656 0.0000000
v 0.3749084 0.1451460 0.0000000
v 0.3751984 0.1494849 0.0000000
v 0.3752899 0.1406017 0.0000000
v 0.3754730 0.1785601 0.9999847
v 0.3759308 0.0276984 0.9999847
v 0.3760376 0.1534773 0.0000000
v 0.3763275 0.0084539 0.0000000
v 0.3763885 0.1365510 0.0000000
v 0.3770142 0.0456581 0.0000000
v 0.3771362 0.0227125 0.9999847
v 0.3773499 0.1765087 0.9999847
v 0.3774567 0.1571263 0.0000000
v 0.3779755 0.0946584 0.0000000
v 0.3782501 0.1329940 0.0000000
v 0.3783264 0.1083651 0.9999847
v 0.3784637 0.1154391 0.9999847
v 0.3787537 0.1947934 0.0000000
v 0.3793945 0.1807801 0.9999847
v 0.3794250 0.1604287 0.0000000
v 0.3803101 0.0415246 0.0000000
v 0.3808289 0.1299277 0.0000000
v 0.3818970 0.0202104 0.9999847
v 0.3819580 0.0234638 0.9999847
v 0.3819580 0.1633878 0.0000000
v 0.3820190 0.1070189 0.9999847
v 0.3824005 0.0058690 0.0000000
v 0.3824463 0.1797437 0.9999847
v 0.3836975 0.1827579 0.9999847
v 0.3842163 0.0377653 0.0000000
v 0.3843536 0.1968294 0.0000000
v 0.3845673 0.0927358 0.0000000
v 0.3850708 0.1660034 0.0000000
v 0.3854065 0.1264842 0.0000000
v 0.3858032 0.1116430 0.9999847
v 0.3869934 0.0180424 0.9999847
v 0.3879242 0.1823164 0.9999847
v 0.3882141 0.1052159 0.9999847
v 0.3883209 0.1844383 0.9999847
v 0.3883667 0.0200908 0.9999847
v 0.3887329 0.1683277 0.0000000
v 0.3887482 0.0345793 0.0000000
v 0.3887939 0.0037563 0.0000000
v 0.3902130 0.1984577 0.0000000
v 0.3908539 0.1236662 0.0000000
v 0.3911591 0.0908132 0.0000000
v 0.3923798 0.0162609 0.9999847
v 0.3927765 0.1702319 0.0000000
v 0.3932343 0.1858059 0.9999847
v 0.3937073 0.0319729 0.0000000
v 0.3937073 0.1842574 0.9999847
v 0.3943176 0.1034343 0.9999847
v 0.3952026 0.0175150 0.9999847
v 0.3954926 0.0021127 0.0000000
v 0.3955536 0.1084294 0.9999847
v 0.3963165 0.1996812 0.0000000
v 0.3971863 0.1717099 0.0000000
v 0.3981171 0.0148534 0.9999847
v 0.3984222 0.1868423 0.9999847
v 0.3989410 0.1209984 0.0000000
v 0.3990936 0.0299430 0.0000000
v 0.3997803 0.1855943 0.9999847
v 0.4008179 0.0887925 0.0000000
v 0.4019775 0.1727677 0.0000000
v 0.4024048 0.0157151 0.9999847
v 0.4025116 0.0009383 0.0000000
v 0.4026794 0.2004937 0.0000000
v 0.4034729 0.1015179 0.9999847
v 0.4038086 0.1875323 0.9999847
v 0.4042053 0.0138354 0.9999847
v 0.4047241 0.1064915 0.9999847
v 0.4048920 0.0284957 0.0000000
v 0.4060974 0.1863701 0.9999847
v 0.4071503 0.1734025 0.0000000
v 0.4074097 0.1192108 0.0000000
v 0.4076843 0.2007237 0.0000000
v 0.4082794 0.1877377 0.9999847
v 0.4098358 0.0002330 0.0000000
v 0.4099274 0.0146664 0.9999847
v 0.4104767 0.0867748 0.0000000
v 0.4106598 0.0132129 0.9999847
v 0.4111176 0.0276279 0.0000000
v 0.4126892 0.2009537 0.0000000
v 0.4126892 0.1736141 0.0000000
v 0.4127350 0.1866246 0.9999847
v 0.4127808 0.1879431 0.9999847
v 0.4131317 0.0995002 0.9999847
v 0.4131775 0.1047038 0.9999847
v 0.4158630 0.1174231 0.0000000
v 0.4174805 0.0000000 0.0000000
v 0.4174805 0.0130044 0.9999847
v 0.4177246 0.0143260 0.9999847
v 0.4177704 0.0273366 0.0000000
v 0.4184418 0.1733565 0.0000000
v 0.4187622 0.1877530 0.9999847
v 0.4196167 0.2007329 0.0000000
v 0.4196625 0.1863118 0.9999847
v 0.4201202 0.0847572 0.0000000
v 0.4216461 0.1029161 0.9999847
v 0.4227905 0.0974795 0.9999847
v 0.4235840 0.0275481 0.0000000
v 0.4235840 0.0131915 0.9999847
v 0.4238434 0.1725807 0.0000000
v 0.4243317 0.1156354 0.0000000
v 0.4244080 0.0002085 0.0000000
v 0.4245453 0.1871827 0.9999847
v 0.4245758 0.0145775 0.9999847
v 0.4262848 0.2000767 0.0000000
v 0.4263763 0.1853490 0.9999847
v 0.4288940 0.1712898 0.0000000
v 0.4290161 0.0281829 0.0000000
v 0.4293976 0.0137434 0.9999847
v 0.4297791 0.0827364 0.0000000
v 0.4300385 0.1862474 0.9999847
v 0.4301147 0.1011315 0.9999847
v 0.4310760 0.0008432 0.0000000
v 0.4311066 0.0153379 0.9999847
v 0.4327087 0.1989790 0.0000000
v 0.4328003 0.1138508 0.0000000
v 0.4328461 0.1836962 0.9999847
v 0.4330292 0.0953361 0.9999847
v 0.4336090 0.1694806 0.0000000
v 0.4340515 0.0292408 0.0000000
v 0.4349213 0.0146511 0.9999847
v 0.4351196 0.0810898 0.0000000
v 0.4352417 0.1849504 0.9999847
v 0.4373627 0.0166534 0.9999847
v 0.4375000 0.0019011 0.0000000
v 0.4379883 0.1671532 0.0000000
v 0.4380951 0.0994450 0.9999847
v 0.4386902 0.0307188 0.0000000
v 0.4388733 0.1974458 0.0000000
v 0.4389496 0.0935116 0.9999847
v 0.4390106 0.1813321 0.9999847
v 0.4401550 0.0159083 0.9999847
v 0.4401855 0.1833037 0.9999847
v 0.4404602 0.0794432 0.0000000
v 0.4412689 0.1120631 0.0000000
v 0.4420013 0.1643138 0.0000000
v 0.4429321 0.0326230 0.0000000
v 0.4429626 0.0980192 0.9999847
v 0.4433289 0.0185545 0.9999847
v 0.4436646 0.0033791 0.0000000
v 0.4447937 0.1954710 0.0000000
v 0.4448090 0.1782473 0.9999847
v 0.4449005 0.1813014 0.9999847
v 0.4451294 0.0175028 0.9999847
v 0.4453125 0.0915491 0.9999847
v 0.4455872 0.1610481 0.0000000
v 0.4461517 0.0765945 0.0000000
v 0.4466095 0.1104962 0.0000000
v 0.4468079 0.0349473 0.0000000
v 0.4477997 0.0966056 0.9999847
v 0.4486237 0.1574544 0.0000000
v 0.4489746 0.0210781 0.9999847
v 0.4493256 0.1789863 0.9999847
v 0.4495850 0.0052833 0.0000000
v 0.4497681 0.0194070 0.9999847
v 0.4497833 0.0740433 0.0000000
v 0.4501648 0.1744634 0.9999847
v 0.4502411 0.0377407 0.0000000
v 0.4504700 0.1930609 0.0000000
v 0.4510956 0.1535325 0.0000000
v 0.4519653 0.1089293 0.0000000
v 0.4520569 0.0949681 0.9999847
v 0.4528503 0.0877837 0.9999847
v 0.4530334 0.1492825 0.0000000
v 0.4530640 0.0408653 0.0000000
v 0.4533691 0.1764382 0.9999847
v 0.4537659 0.0701552 0.0000000
v 0.4541016 0.0216730 0.9999847
v 0.4542847 0.0242794 0.9999847
v 0.4544220 0.1447014 0.0000000
v 0.4549713 0.1700785 0.9999847
v 0.4552612 0.0076076 0.0000000
v 0.4552612 0.0443181 0.0000000
v 0.4553223 0.0679229 0.0000000
v 0.4554596 0.1397921 0.0000000
v 0.4558105 0.1902644 0.0000000
v 0.4560852 0.0934227 0.9999847
v 0.4565277 0.0654575 0.0000000
v 0.4567108 0.1071048 0.0000000
v 0.4568176 0.0480989 0.0000000
v 0.4570313 0.1736693 0.9999847
v 0.4576874 0.0613179 0.0000000
v 0.4577637 0.0522109 0.0000000
v 0.4580688 0.0566479 0.0000000
v 0.4580994 0.0242058 0.9999847
v 0.4581146 0.0840764 0.9999847
v 0.4591217 0.1651570 0.9999847
v 0.4592133 0.0282810 0.9999847
v 0.4603424 0.1706704 0.9999847
v 0.4606018 0.0104041 0.0000000
v 0.4607697 0.1871428 0.0000000
v 0.4611664 0.0907304 0.9999847
v 0.4614716 0.1052772 0.0000000
v 0.4617004 0.0269563 0.9999847
v 0.4625549 0.1597296 0.9999847
v 0.4633179 0.1674323 0.9999847
v 0.4634247 0.1397921 0.0000000
v 0.4634552 0.0329695 0.9999847
v 0.4637299 0.0785938 0.9999847
v 0.4640198 0.0888078 0.9999847
v 0.4649353 0.0299246 0.9999847
v 0.4652252 0.1538759 0.9999847
v 0.4653320 0.1836901 0.0000000
v 0.4655304 0.0135257 0.0000000
v 0.4655457 0.1527935 0.9999847
v 0.4655457 0.1527935 0.9999847
v 0.4655457 0.1527935 0.9999847
v 0.4659882 0.1639458 0.9999847
v 0.4665680 0.0745247 0.9999847
v 0.4667511 0.0866031 0.9999847
v 0.4668427 0.0383019 0.9999847
v 0.4678345 0.0331259 0.9999847
v 0.4678497 0.1019012 0.0000000
v 0.4682922 0.1602723 0.9999847
v 0.4687195 0.0701061 0.9999847
v 0.4692535 0.0441371 0.9999847
v 0.4692688 0.0841807 0.9999847
v 0.4695129 0.1799093 0.0000000
v 0.4700623 0.0169784 0.0000000
v 0.4701996 0.1564609 0.9999847
v 0.4703827 0.0365694 0.9999847
v 0.4705353 0.0636330 0.9999847
v 0.4706573 0.0502913 0.9999847
v 0.4711151 0.0567307 0.9999847
v 0.4713135 0.1397921 0.0000000
v 0.4713135 0.1527935 0.9999847
v 0.4714661 0.0816387 0.9999847
v 0.4716034 0.1527935 0.9999847
v 0.4716034 0.1527935 0.9999847
v 0.4716034 0.1527935 0.9999847
v 0.4716034 0.1527935 0.9999847
v 0.4716034 0.1527935 0.9999847
v 0.4717560 0.0992764 0.0000000
v 0.4725647 0.0401754 0.9999847
v 0.4732513 0.0790660 0.9999847
v 0.4732971 0.1757973 0.0000000
v 0.4741821 0.0207623 0.0000000
v 0.4743347 0.0438888 0.9999847
v 0.4746857 0.0762879 0.9999847
v 0.4753723 0.0963572 0.0000000
v 0.4756927 0.0477493 0.9999847
v 0.4758453 0.0731019 0.9999847
v 0.4766846 0.0517969 0.9999847
v 0.4766846 0.1713572 0.0000000
v 0.4767303 0.0694438 0.9999847
v 0.4772797 0.0560714 0.9999847
v 0.4772949 0.0652735 0.9999847
v 0.4774780 0.0606157 0.9999847
v 0.4778900 0.0248712 0.0000000
v 0.4786987 0.0931406 0.0000000
v 0.4790039 0.1397921 0.0000000
v 0.4796295 0.1666442 0.0000000
v 0.4811859 0.0293113 0.0000000
v 0.4817505 0.0896235 0.0000000
v 0.4821014 0.1617135 0.0000000
v 0.4840393 0.0340151 0.0000000
v 0.4840851 0.1565620 0.0000000
v 0.4844208 0.0857660 0.0000000
v 0.4855804 0.1511898 0.0000000
v 0.4863586 0.0389243 0.0000000
v 0.4865875 0.1456029 0.0000000
v 0.4866180 0.0815130 0.0000000
v 0.4871063 0.1397921 0.0000000
v 0.4881744 0.0440360 0.0000000
v 0.4883118 0.0768705 0.0000000
v 0.4894562 0.0493530 0.0000000
v 0.4895172 0.0718355 0.0000000
v 0.4902344 0.0548725 0.0000000
v 0.4902496 0.0664112 0.0000000
v 0.4904938 0.0605943 0.0000000
v 0.5331268 0.0016896 0.0000000
v 0.5331268 0.0115540 0.0000000
v 0.5331268 0.0214185 0.0000000
v 0.5331268 0.0312830 0.0000000
v 0.5331268 0.0411474 0.0000000
v 0.5331268 0.0510119 0.0000000
v 0.5331268 0.0608764 0.0000000
v 0.5331268 0.0707409 0.0000000
v 0.5331268 0.0806053 0.0000000
v 0.5331268 0.0904698 0.0000000
v 0.5331268 0.1003343 0.0000000
v 0.5331268 0.1101987 0.0000000
v 0.5331268 0.1200632 0.0000000
v 0.5331268 0.1299277 0.0000000
v 0.5331268 0.1397921 0.0000000
v 0.5331268 0.1496566 0.0000000
v 0.5331268 0.1595211 0.0000000
v 0.5331268 0.1693856 0.0000000
v 0.5331268 0.1792500 0.0000000
v 0.5331268 0.1891145 0.0000000
v 0.5331268 0.1989790 0.0000000
v 0.5412292 0.1989790 0.0000000
v 0.5412292 0.0016896 0.0000000
v 0.5461273 0.0146878 0.9999847
v 0.5461273 0.0146878 0.9999847
v 0.5461273 0.0214185 0.9999847
v 0.5461273 0.0312830 0.9999847
v 0.5461273 0.0411474 0.9999847
v 0.5461273 0.0510119 0.9999847
v 0.5461273 0.0608764 0.9999847
v 0.5461273 0.0707409 0.9999847
v 0.5461273 0.0806053 0.9999847
v 0.5461273 0.0904698 0.9999847
v 0.5461273 0.1003343 0.9999847
v 0.5461273 0.1101987 0.9999847
v 0.5461273 0.1200632 0.9999847
v 0.5461273 0.1299277 0.9999847
v 0.5461273 0.1397921 0.9999847
v 0.5461273 0.1496566 0.9999847
v 0.5461273 0.1595211 0.9999847
v 0.5461273 0.1693856 0.9999847
v 0.5461273 0.1792500 0.9999847
v 0.5461273 0.1859807 0.9999847
v 0.5461273 0.1859807 0.9999847
v 0.5461273 0.1859807 0.9999847
v 0.5461273 0.0146878 0.9999847
v 0.5493317 0.1989790 0.0000000
v 0.5493317 0.0016896 0.0000000
v 0.5493317 0.1859807 0.9999847
v 0.5493317 0.0146878 0.9999847
v 0.5525513 0.1859807 0.9999847
v 0.5525513 0.1859807 0.9999847
v 0.5525513 0.1859807 0.9999847
v 0.5525513 0.1792500 0.9999847
v 0.5525513 0.1693856 0.9999847
v 0.5525513 0.1595211 0.9999847
v 0.5525513 0.1496566 0.9999847
v 0.5525513 0.1397921 0.9999847
v 0.5525513 0.1299277 0.9999847
v 0.5525513 0.1200632 0.9999847
v 0.5525513 0.1101987 0.9999847
v 0.5525513 0.1003343 0.9999847
v 0.5525513 0.0904698 0.9999847
v 0.5525513 0.0806053 0.9999847
v 0.5525513 0.0707409 0.9999847
v 0.5525513 0.0608764 0.9999847
v 0.5525513 0.0510119 0.9999847
v 0.5525513 0.0411474 0.9999847
v 0.5525513 0.0312830 0.9999847
v 0.5525513 0.0214185 0.9999847
v 0.5525513 0.0146878 0.9999847
v 0.5525513 0.0146878 0.9999847
v 0.5525513 0.0146878 0.9999847
v 0.5574341 0.1989790 0.0000000
v 0.5574341 0.0016896 0.0000000
v 0.5655518 0.1989790 0.0000000
v 0.5655518 0.1891145 0.0000000
v 0.5655518 0.1792500 0.0000000
v 0.5655518 0.1693856 0.0000000
v 0.5655518 0.1595211 0.0000000
v 0.5655518 0.1496566 0.0000000
v 0.5655518 0.1397921 0.0000000
v 0.5655518 0.1299277 0.0000000
v 0.5655518 0.1200632 0.0000000
v 0.5655518 0.1101987 0.0000000
v 0.5655518 0.1003343 0.0000000
v 0.5655518 0.0904698 0.0000000
v 0.5655518 0.0806053 0.0000000
v 0.5655518 0.0707409 0.0000000
v 0.5655518 0.0608764 0.0000000
v 0.5655518 0.0510119 0.0000000
v 0.5655518 0.0411474 0.0000000
v 0.5655518 0.0312830 0.0000000
v 0.5655518 0.0214185 0.0000000
v 0.5655518 0.0115540 0.0000000
v 0.5655518 0.0016896 0.0000000
v 0.6081543 0.1003343 0.0000000
v 0.6084900 0.0909175 0.0000000
v 0.6084900 0.1097541 0.0000000
v 0.6095123 0.0818257 0.0000000
v 0.6095123 0.1188428 0.0000000
v 0.6111908 0.0730652 0.0000000
v 0.6111908 0.1276034 0.0000000
v 0.6135406 0.0646357 0.0000000
v 0.6135406 0.1360359 0.0000000
v 0.6165771 0.0565314 0.0000000
v 0.6165771 0.1441372 0.0000000
v 0.6202850 0.0487581 0.0000000
v 0.6202850 0.1519104 0.0000000
v 0.6211700 0.1003343 0.9999847
v 0.6214752 0.0918681 0.9999847
v 0.6214752 0.1088005 0.9999847
v 0.6223755 0.0837759 0.9999847
v 0.6223755 0.1168957 0.9999847
v 0.6238556 0.0760487 0.9999847
v 0.6238556 0.1246198 0.9999847
v 0.6245880 0.0414203 0.0000000
v 0.6245880 0.1592482 0.0000000
v 0.6259155 0.0686680 0.9999847
v 0.6259155 0.1320005 0.9999847
v 0.6284790 0.0965044 0.9999847
v 0.6284790 0.1041641 0.9999847
v 0.6285553 0.0616123 0.9999847
v 0.6285553 0.1390562 0.9999847
v 0.6289825 0.0889826 0.9999847
v 0.6289825 0.1116736 0.9999847
v 0.6294250 0.0346345 0.0000000
v 0.6294250 0.1660340 0.0000000
v 0.6299744 0.0816418 0.9999847
v 0.6299744 0.1189930 0.9999847
v 0.6315002 0.0744910 0.9999847
v 0.6315002 0.1261101 0.9999847
v 0.6317749 0.0548541 0.9999847
v 0.6317749 0.1458145 0.9999847
v 0.6335297 0.0675457 0.9999847
v 0.6335449 0.1330124 0.9999847
v 0.6347961 0.0283945 0.0000000
v 0.6347961 0.1722741 0.0000000
v 0.6355133 0.0485006 0.9999847
v 0.6355133 0.1521680 0.9999847
v 0.6360931 0.0608028 0.9999847
v 0.6361084 0.1396542 0.9999847
v 0.6391754 0.1460567 0.9999847
v 0.6391907 0.0543420 0.9999847
v 0.6396637 0.0426653 0.9999847
v 0.6396637 0.1580032 0.9999847
v 0.6407013 0.0227033 0.0000000
v 0.6407013 0.1779652 0.0000000
v 0.6414795 0.0969337 0.0000000
v 0.6414795 0.1037349 0.0000000
v 0.6419220 0.0902950 0.0000000
v 0.6419220 0.1103582 0.0000000
v 0.6427002 0.1521250 0.9999847
v 0.6427307 0.0483197 0.9999847
v 0.6427917 0.0838741 0.0000000
v 0.6427917 0.1167454 0.0000000
v 0.6441040 0.0776739 0.0000000
v 0.6441040 0.1228996 0.0000000
v 0.6442566 0.0373329 0.9999847
v 0.6442566 0.1633356 0.9999847
v 0.6458588 0.0716914 0.0000000
v 0.6458588 0.1288177 0.0000000
v 0.6467133 0.1577917 0.9999847
v 0.6467133 0.0427174 0.9999847
v 0.6471405 0.0175580 0.0000000
v 0.6471405 0.1831106 0.0000000
v 0.6480560 0.0659297 0.0000000
v 0.6480560 0.1345027 0.0000000
v 0.6492920 0.0324819 0.9999847
v 0.6492920 0.1681866 0.9999847
v 0.6506805 0.1399731 0.0000000
v 0.6506805 0.0604563 0.0000000
v 0.6511536 0.0375383 0.9999847
v 0.6511688 0.1630045 0.9999847
v 0.6536560 0.1450939 0.0000000
v 0.6536560 0.0553968 0.0000000
v 0.6541138 0.0129646 0.0000000
v 0.6541138 0.1877070 0.0000000
v 0.6547852 0.0280848 0.9999847
v 0.6547852 0.1725838 0.9999847
v 0.6560364 0.0328131 0.9999847
v 0.6560974 0.1677359 0.9999847
v 0.6569672 0.1497915 0.0000000
v 0.6569672 0.0507329 0.0000000
v 0.6606293 0.1540660 0.0000000
v 0.6606293 0.0464584 0.0000000
v 0.6607361 0.0241629 0.9999847
v 0.6607361 0.1765056 0.9999847
v 0.6613922 0.0285141 0.9999847
v 0.6614380 0.1719460 0.9999847
v 0.6616058 0.0090028 0.0000000
v 0.6616058 0.1916657 0.0000000
v 0.6646423 0.1579174 0.0000000
v 0.6646423 0.0425733 0.0000000
v 0.6671448 0.0207776 0.9999847
v 0.6671448 0.1798909 0.9999847
v 0.6672211 0.1756593 0.9999847
v 0.6672974 0.0247271 0.9999847
v 0.6690063 0.1613486 0.0000000
v 0.6690063 0.0390838 0.0000000
v 0.6694336 0.0057617 0.0000000
v 0.6694336 0.1949068 0.0000000
v 0.6733551 0.1788238 0.9999847
v 0.6734924 0.0216270 0.9999847
v 0.6737366 0.0360420 0.0000000
v 0.6737366 0.1643905 0.0000000
v 0.6738434 0.0180026 0.9999847
v 0.6738434 0.1826659 0.9999847
v 0.6775818 0.0032411 0.0000000
v 0.6775818 0.1974305 0.0000000
v 0.6787415 0.1669723 0.0000000
v 0.6787415 0.0335367 0.0000000
v 0.6797943 0.1813658 0.9999847
v 0.6799011 0.0191678 0.9999847
v 0.6808624 0.0158347 0.9999847
v 0.6808624 0.1848339 0.9999847
v 0.6839752 0.1690391 0.0000000
v 0.6839752 0.0315344 0.0000000
v 0.6860657 0.0014381 0.0000000
v 0.6860657 0.1992304 0.0000000
v 0.6864777 0.1832669 0.9999847
v 0.6865540 0.0173341 0.9999847
v 0.6882019 0.0142739 0.9999847
v 0.6882019 0.1863946 0.9999847
v 0.6894226 0.1705906 0.0000000
v 0.6894226 0.0300288 0.0000000
v 0.6933594 0.1845211 0.9999847
v 0.6934052 0.0161260 0.9999847
v 0.6948700 0.0003588 0.0000000
v 0.6948700 0.2003098 0.0000000
v 0.6950836 0.1716240 0.0000000
v 0.6950836 0.0290292 0.0000000
v 0.6959229 0.0133264 0.9999847
v 0.6959229 0.1873421 0.9999847
v 0.7002869 0.0155403 0.9999847
v 0.7004089 0.1851405 0.9999847
v 0.7009735 0.1721391 0.0000000
v 0.7009735 0.0285263 0.0000000
v 0.7040100 0.1876610 0.9999847
v 0.7040100 0.0130075 0.9999847
v 0.7040100 0.2006716 0.0000000
v 0.7040100 0.0000000 0.0000000
v 0.7040100 0.0284650 0.0000000
v 0.7041473 0.0154606 0.9999847
v 0.7070313 0.1721391 0.0000000
v 0.7075958 0.1851405 0.9999847
v 0.7099915 0.0287164 0.0000000
v 0.7111053 0.0157519 0.9999847
v 0.7120819 0.0133264 0.9999847
v 0.7120819 0.1873421 0.9999847
v 0.7129059 0.1716240 0.0000000
v 0.7131348 0.0003588 0.0000000
v 0.7131348 0.2003098 0.0000000
v 0.7146454 0.1845180 0.9999847
v 0.7157593 0.0294677 0.0000000
v 0.7180328 0.0166534 0.9999847
v 0.7185364 0.1705906 0.0000000
v 0.7197723 0.0142708 0.9999847
v 0.7197723 0.1863977 0.9999847
v 0.7212677 0.0307188 0.0000000
v 0.7215118 0.1832608 0.9999847
v 0.7219238 0.0014381 0.0000000
v 0.7219238 0.1992304 0.0000000
v 0.7239380 0.1690391 0.0000000
v 0.7247620 0.0181804 0.9999847
v 0.7265625 0.0324727 0.0000000
v 0.7270660 0.0158285 0.9999847
v 0.7270660 0.1848400 0.9999847
v 0.7281647 0.1813535 0.9999847
v 0.7291107 0.1669723 0.0000000
v 0.7303619 0.0032411 0.0000000
v 0.7303619 0.1974305 0.0000000
v 0.7312622 0.0203391 0.9999847
v 0.7316132 0.0347265 0.0000000
v 0.7340088 0.0179903 0.9999847
v 0.7340088 0.1826782 0.9999847
v 0.7340393 0.1643905 0.0000000
v 0.7345581 0.1787962 0.9999847
v 0.7364197 0.0374831 0.0000000
v 0.7375031 0.0231234 0.9999847
v 0.7384644 0.0057617 0.0000000
v 0.7384644 0.1949068 0.0000000
v 0.7406311 0.0207562 0.9999847
v 0.7406311 0.1799124 0.9999847
v 0.7407074 0.1755735 0.9999847
v 0.7410431 0.1596867 0.0000000
v 0.7410431 0.0407795 0.0000000
v 0.7434540 0.0265271 0.9999847
v 0.7452850 0.1560438 0.0000000
v 0.7452850 0.0444683 0.0000000
v 0.7462158 0.0090028 0.0000000
v 0.7462158 0.1916657 0.0000000
v 0.7469940 0.1765056 0.9999847
v 0.7469940 0.0241629 0.9999847
v 0.7489166 0.1700510 0.9999847
v 0.7490997 0.0305593 0.9999847
v 0.7491760 0.1519809 0.0000000
v 0.7491760 0.0485466 0.0000000
v 0.7527161 0.1474948 0.0000000
v 0.7527161 0.0530173 0.0000000
v 0.7530823 0.1725408 0.9999847
v 0.7530823 0.0281277 0.9999847
v 0.7536163 0.1877070 0.0000000
v 0.7536163 0.0129646 0.0000000
v 0.7542267 0.1655005 0.9999847
v 0.7542725 0.0350485 0.9999847
v 0.7558899 0.0578775 0.0000000
v 0.7558899 0.1425887 0.0000000
v 0.7586517 0.1681437 0.9999847
v 0.7586517 0.0325248 0.9999847
v 0.7586975 0.0631302 0.0000000
v 0.7586975 0.1372563 0.0000000
v 0.7590027 0.1605176 0.9999847
v 0.7590027 0.0400098 0.9999847
v 0.7606812 0.1831106 0.0000000
v 0.7606812 0.0175580 0.0000000
v 0.7611084 0.0687845 0.0000000
v 0.7611084 0.1316908 0.0000000
v 0.7630768 0.0746566 0.0000000
v 0.7630768 0.1258893 0.0000000
v 0.7632751 0.0454189 0.9999847
v 0.7633057 0.1550595 0.9999847
v 0.7637177 0.1632958 0.9999847
v 0.7637177 0.0373728 0.9999847
v 0.7646179 0.0807464 0.0000000
v 0.7646179 0.1198516 0.0000000
v 0.7657166 0.0870569 0.0000000
v 0.7657166 0.1135809 0.0000000
v 0.7663727 0.0935852 0.0000000
v 0.7663727 0.1070741 0.0000000
v 0.7665863 0.1003343 0.0000000
v 0.7670746 0.0512480 0.9999847
v 0.7671204 0.1491599 0.9999847
v 0.7671814 0.1779652 0.0000000
v 0.7671814 0.0227033 0.0000000
v 0.7683411 0.1579726 0.9999847
v 0.7683411 0.0426960 0.9999847
v 0.7704315 0.1428800 0.9999847
v 0.7704315 0.0575034 0.9999847
v 0.7725067 0.1521526 0.9999847
v 0.7725067 0.0485159 0.9999847
v 0.7731476 0.1722741 0.0000000
v 0.7731476 0.0283945 0.0000000
v 0.7732391 0.1363732 0.9999847
v 0.7732697 0.0641543 0.9999847
v 0.7755585 0.1295873 0.9999847
v 0.7755585 0.0709923 0.9999847
v 0.7762451 0.1458083 0.9999847
v 0.7762451 0.0548602 0.9999847
v 0.7773285 0.1225776 0.9999847
v 0.7773438 0.0780418 0.9999847
v 0.7785492 0.1660340 0.0000000
v 0.7785492 0.0346345 0.0000000
v 0.7785950 0.1153563 0.9999847
v 0.7785950 0.0852907 0.9999847
v 0.7793427 0.0927236 0.9999847
v 0.7793427 0.1079419 0.9999847
v 0.7794495 0.1390562 0.9999847
v 0.7794495 0.0616123 0.9999847
v 0.7796021 0.1003343 0.9999847
v 0.7820892 0.1320005 0.9999847
v 0.7820892 0.0686680 0.9999847
v 0.7834167 0.1592482 0.0000000
v 0.7834167 0.0414203 0.0000000
v 0.7841644 0.1246198 0.9999847
v 0.7841644 0.0760487 0.9999847
v 0.7856445 0.1168957 0.9999847
v 0.7856445 0.0837729 0.9999847
v 0.7865448 0.1088005 0.9999847
v 0.7865448 0.0918681 0.9999847
v 0.7868500 0.1003343 0.9999847
v 0.7877350 0.1519104 0.0000000
v 0.7877350 0.0487581 0.0000000
v 0.7914276 0.1441372 0.0000000
v 0.7914276 0.0565314 0.0000000
v 0.7944641 0.1360359 0.0000000
v 0.7944641 0.0646357 0.0000000
v 0.7968292 0.1276034 0.0000000
v 0.7968292 0.0730652 0.0000000
v 0.7985077 0.1188428 0.0000000
v 0.7985077 0.0818257 0.0000000
v 0.7995148 0.1097541 0.0000000
v 0.7995148 0.0909175 0.0000000
v 0.7998505 0.1003343 0.0000000
v 0.8423920 0.0016896 0.0000000
v 0.8423920 0.0115540 0.0000000
v 0.8423920 0.0214185 0.0000000
v 0.8423920 0.0312830 0.0000000
v 0.8423920 0.0411474 0.0000000
v 0.8423920 0.0510119 0.0000000
v 0.8423920 0.0608764 0.0000000
v 0.8423920 0.0707409 0.0000000
v 0.8423920 0.0806053 0.0000000
v 0.8423920 0.0904698 0.0000000
v 0.8423920 0.1003343 0.0000000
v 0.8423920 0.1101987 0.0000000
v 0.8423920 0.1200632 0.0000000
v 0.8423920 0.1299277 0.0000000
v 0.8423920 0.1397921 0.0000000
v 0.8423920 0.1496566 0.0000000
v 0.8423920 0.1595211 0.0000000
v 0.8423920 0.1693856 0.0000000
v 0.8423920 0.1792500 0.0000000
v 0.8423920 0.1891145 0.0000000
v 0.8423920 0.1989790 0.0000000
v 0.8503571 0.0016896 0.0000000
v 0.8522644 0.1989790 0.0000000
v 0.8553925 0.0146878 0.9999847
v 0.8553925 0.0146878 0.9999847
v 0.8553925 0.0214185 0.9999847
v 0.8553925 0.0312830 0.9999847
v 0.8553925 0.0411474 0.9999847
v 0.8553925 0.0510119 0.9999847
v 0.8553925 0.0608764 0.9999847
v 0.8553925 0.0707409 0.9999847
v 0.8553925 0.0806053 0.9999847
v 0.8553925 0.0904698 0.9999847
v 0.8553925 0.1003343 0.9999847
v 0.8553925 0.1101987 0.9999847
v 0.8553925 0.1200632 0.9999847
v 0.8553925 0.1299277 0.9999847
v 0.8553925 0.1397921 0.9999847
v 0.8553925 0.1496566 0.9999847
v 0.8553925 0.1595211 0.9999847
v 0.8553925 0.1693856 0.9999847
v 0.8553925 0.1792500 0.9999847
v 0.8553925 0.1859807 0.9999847
v 0.8553925 0.1859807 0.9999847
v 0.8553925 0.1859807 0.9999847
v 0.8553925 0.0146878 0.9999847
v 0.8583221 0.0016896 0.0000000
v 0.8583221 0.0146878 0.9999847
v 0.8612518 0.1833313 0.9999847
v 0.8612518 0.1314976 0.9999847
v 0.8612518 0.1215136 0.9999847
v 0.8612518 0.1115265 0.9999847
v 0.8612518 0.1015424 0.9999847
v 0.8612518 0.0915583 0.9999847
v 0.8612518 0.0815712 0.9999847
v 0.8612518 0.0715872 0.9999847
v 0.8612518 0.0616000 0.9999847
v 0.8612518 0.0516160 0.9999847
v 0.8612518 0.0416319 0.9999847
v 0.8612518 0.0316448 0.9999847
v 0.8612518 0.0216607 0.9999847
v 0.8612518 0.0146878 0.9999847
v 0.8612518 0.0146878 0.9999847
v 0.8612518 0.0146878 0.9999847
v 0.8621216 0.1989790 0.0000000
v 0.8621216 0.1859807 0.9999847
v 0.8651581 0.1859807 0.9999847
v 0.8662872 0.0016896 0.0000000
v 0.8669434 0.1833896 0.9999847
v 0.8719940 0.1989790 0.0000000
v 0.8725891 0.1751656 0.9999847
v 0.8742523 0.1414848 0.0000000
v 0.8742523 0.1314976 0.0000000
v 0.8742523 0.1215136 0.0000000
v 0.8742523 0.1115265 0.0000000
v 0.8742523 0.1015424 0.0000000
v 0.8742523 0.0915583 0.0000000
v 0.8742523 0.0815712 0.0000000
v 0.8742523 0.0715872 0.0000000
v 0.8742523 0.0616000 0.0000000
v 0.8742523 0.0516160 0.0000000
v 0.8742523 0.0416319 0.0000000
v 0.8742523 0.0316448 0.0000000
v 0.8742523 0.0216607 0.0000000
v 0.8742523 0.0116736 0.0000000
v 0.8742523 0.0016896 0.0000000
v 0.8776550 0.1907550 0.0000000
v 0.8782501 0.1669447 0.9999847
v 0.8798981 0.1332608 0.0000000
v 0.8833008 0.1825341 0.0000000
v 0.8838959 0.1587208 0.9999847
v 0.8855591 0.1250368 0.0000000
v 0.8889618 0.1743101 0.0000000
v 0.8895569 0.1504968 0.9999847
v 0.8906097 0.1406262 0.9999847
v 0.8912201 0.1168129 0.0000000
v 0.8946075 0.1660862 0.0000000
v 0.8952026 0.1422759 0.9999847
v 0.8962708 0.1324022 0.9999847
v 0.8968658 0.1085920 0.0000000
v 0.9002686 0.1578622 0.0000000
v 0.9008636 0.1340519 0.9999847
v 0.9019318 0.1241783 0.9999847
v 0.9025269 0.1003680 0.0000000
v 0.9059143 0.1496413 0.0000000
v 0.9065247 0.1258280 0.9999847
v 0.9075775 0.1159574 0.9999847
v 0.9081726 0.0921440 0.0000000
v 0.9115753 0.1414173 0.0000000
v 0.9121704 0.1176040 0.9999847
v 0.9132385 0.1077334 0.9999847
v 0.9138336 0.0839201 0.0000000
v 0.9172363 0.1331933 0.0000000
v 0.9178314 0.1093831 0.9999847
v 0.9188843 0.0995094 0.9999847
v 0.9194794 0.0756992 0.0000000
v 0.9228821 0.1249694 0.0000000
v 0.9234772 0.1011591 0.9999847
v 0.9245453 0.0912885 0.9999847
v 0.9251404 0.0674752 0.0000000
v 0.9285431 0.1167485 0.0000000
v 0.9291382 0.0929351 0.9999847
v 0.9301910 0.0830645 0.9999847
v 0.9308014 0.0592512 0.0000000
v 0.9341888 0.1085245 0.0000000
v 0.9347992 0.0847112 0.9999847
v 0.9358521 0.0748406 0.9999847
v 0.9364471 0.0510272 0.0000000
v 0.9398499 0.1003005 0.0000000
v 0.9404449 0.0764903 0.9999847
v 0.9415131 0.0666166 0.9999847
v 0.9421082 0.0428063 0.0000000
v 0.9455109 0.0920766 0.0000000
v 0.9461060 0.0682663 0.9999847
v 0.9471588 0.0583957 0.9999847
v 0.9477539 0.0345824 0.0000000
v 0.9511566 0.0838557 0.0000000
v 0.9517517 0.0600423 0.9999847
v 0.9528198 0.0501717 0.9999847
v 0.9534149 0.0263584 0.0000000
v 0.9568176 0.0756317 0.0000000
v 0.9584656 0.0419478 0.9999847
v 0.9590607 0.0181344 0.0000000
v 0.9624634 0.0674077 0.0000000
v 0.9641266 0.0337238 0.9999847
v 0.9647217 0.0099135 0.0000000
v 0.9681244 0.0591868 0.0000000
v 0.9681244 0.0691709 0.0000000
v 0.9681244 0.0791549 0.0000000
v 0.9681244 0.0891421 0.0000000
v 0.9681244 0.0991261 0.0000000
v 0.9681244 0.1091132 0.0000000
v 0.9681244 0.1190973 0.0000000
v 0.9681244 0.1290814 0.0000000
v 0.9681244 0.1390685 0.0000000
v 0.9681244 0.1490525 0.0000000
v 0.9681244 0.1590397 0.0000000
v 0.9681244 0.1690237 0.0000000
v 0.9681244 0.1790078 0.0000000
v 0.9681244 0.1889949 0.0000000
v 0.9681244 0.1989790 0.0000000
v 0.9697723 0.0255029 0.9999847
v 0.9703827 0.0016896 0.0000000
v 0.9754333 0.0172789 0.9999847
v 0.9760895 0.1989790 0.0000000
v 0.9772186 0.0146878 0.9999847
v 0.9802399 0.0016896 0.0000000
v 0.9802399 0.0146878 0.9999847
v 0.9811249 0.0173372 0.9999847
v 0.9811249 0.0691709 0.9999847
v 0.9811249 0.0791549 0.9999847
v 0.9811249 0.0891421 0.9999847
v 0.9811249 0.0991261 0.9999847
v 0.9811249 0.1091132 0.9999847
v 0.9811249 0.1190973 0.9999847
v 0.9811249 0.1290814 0.9999847
v 0.9811249 0.1390685 0.9999847
v 0.9811249 0.1490525 0.9999847
v 0.9811249 0.1590397 0.9999847
v 0.9811249 0.1690237 0.9999847
v 0.9811249 0.1790078 0.9999847
v 0.9811249 0.1859807 0.9999847
v 0.9811249 0.1859807 0.9999847
v 0.9811249 0.1859807 0.9999847
v 0.9840546 0.1989790 0.0000000
v 0.9840546 0.1859807 0.9999847
v 0.9869843 0.1859807 0.9999847
v 0.9869843 0.1859807 0.9999847
v 0.9869843 0.1859807 0.9999847
v 0.9869843 0.1792500 0.9999847
v 0.9869843 0.1693856 0.9999847
v 0.9869843 0.1595211 0.9999847
v 0.9869843 0.1496566 0.9999847
v 0.9869843 0.1397921 0.9999847
v 0.9869843 0.1299277 0.9999847
v 0.9869843 0.1200632 0.9999847
v 0.9869843 0.1101987 0.9999847
v 0.9869843 0.1003343 0.9999847
v 0.9869843 0.0904698 0.9999847
v 0.9869843 0.0806053 0.9999847
v 0.9869843 0.0707409 0.9999847
v 0.9869843 0.0608764 0.9999847
v 0.9869843 0.0510119 0.9999847
v 0.9869843 0.0411474 0.9999847
v 0.9869843 0.0312830 0.9999847
v 0.9869843 0.0214185 0.9999847
v 0.9869843 0.0146878 0.9999847
v 0.9869843 0.0146878 0.9999847
v 0.9869843 0.0146878 0.9999847
v 0.9901123 0.0016896 0.0000000
v 0.9920197 0.1989790 0.0000000
v 0.9999847 0.1989790 0.0000000
v 0.9999847 0.1891145 0.0000000
v 0.9999847 0.1792500 0.0000000
v 0.9999847 0.1693856 0.0000000
v 0.9999847 0.1595211 0.0000000
v 0.9999847 0.1496566 0.0000000
v 0.9999847 0.1397921 0.0000000
v 0.9999847 0.1299277 0.0000000
v 0.9999847 0.1200632 0.0000000
v 0.9999847 0.1101987 0.0000000
v 0.9999847 0.1003343 0.0000000
v 0.9999847 0.0904698 0.0000000
v 0.9999847 0.0806053 0.0000000
v 0.9999847 0.0707409 0.0000000
v 0.9999847 0.0608764 0.0000000
v 0.9999847 0.0510119 0.0000000
v 0.9999847 0.0411474 0.0000000
v 0.9999847 0.0312830 0.0000000
v 0.9999847 0.0214185 0.0000000
v 0.9999847 0.0115540 0.0000000
v 0.9999847 0.0016896 0.0000000
f 1 25 2
f 3 25 26
f 23 24 1
f 3 26 4
f 2 25 3
f 25 1 24
f 4 26 28
f 5 28 29
f 6 29 30
f 7 30 31
f 8 31 32
f 9 32 33
f 10 33 34
f 11 34 35
f 12 35 36
f 13 36 37
f 14 37 38
f 15 38 39
f 16 39 40
f 17 40 41
f 18 41 42
f 19 42 43
f 19 43 44
f 20 45 21
f 21 46 22
f 46 21 45
f 45 20 44
f 19 44 20
f 18 42 19
f 17 41 18
f 16 40 17
f 15 39 16
f 14 38 15
f 13 37 14
f 12 36 13
f 11 35 12
f 10 34 11
f 9 33 10
f 8 32 9
f 7 31 8
f 6 30 7
f 5 29 6
f 4 28 5
f 24 23 27
f 22 46 47
f 24 26 25
f 44 46 45
f 47 46 48
f 44 48 46
f 43 48 44
f 68 27 23
f 24 67 26
f 26 67 28
f 28 66 29
f 29 65 30
f 30 64 31
f 31 63 32
f 32 62 33
f 33 61 34
f 34 60 35
f 35 59 36
f 36 58 37
f 37 57 38
f 38 56 39
f 39 55 40
f 40 54 41
f 41 53 42
f 42 52 43
f 43 52 48
f 28 67 66
f 29 66 65
f 30 65 64
f 31 64 63
f 32 63 62
f 33 62 61
f 34 61 60
f 35 60 59
f 36 59 58
f 37 58 57
f 38 57 56
f 39 56 55
f 40 55 54
f 41 54 53
f 42 53 52
f 68 69 27
f 69 24 27
f 24 69 67
f 48 52 49
f 47 48 49
f 49 51 50
f 49 52 51
f 47 49 70
f 50 70 49
f 67 69 72
f 68 72 69
f 71 72 68
f 70 50 73
f 73 51 74
f 75 51 52
f 76 52 53
f 77 53 54
f 78 54 55
f 79 55 56
f 80 56 57
f 81 57 58
f 82 58 59
f 83 59 60
f 84 60 61
f 85 61 62
f 86 62 63
f 87 63 64
f 88 64 65
f 89 65 66
f 90 66 67
f 89 66 90
f 88 65 89
f 87 64 88
f 86 63 87
f 85 62 86
f 84 61 85
f 83 60 84
f 82 59 83
f 81 58 82
f 80 57 81
f 79 56 80
f 78 55 79
f 77 54 78
f 76 53 77
f 75 52 76
f 74 51 75
f 51 73 50
f 90 67 94
f 67 72 94
f 71 92 72
f 91 92 71
f 94 72 92
f 90 94 93
f 91 96 92
f 95 96 91
f 94 92 96
f 97 94 98
f 93 94 97
f 94 96 98
f 95 100 96
f 99 100 95
f 98 96 100
f 101 98 102
f 97 98 101
f 98 100 102
f 99 104 100
f 103 104 99
f 102 100 104
f 105 102 106
f 101 102 105
f 102 104 106
f 103 108 104
f 107 108 103
f 106 104 108
f 109 106 110
f 105 106 109
f 106 108 110
f 107 112 108
f 111 112 107
f 110 108 112
f 113 110 114
f 109 110 113
f 110 112 114
f 111 116 112
f 115 116 111
f 114 112 116
f 117 114 118
f 113 114 117
f 114 116 118
f 115 124 116
f 122 116 124
f 118 116 122
f 117 118 119
f 118 122 119
f 125 124 115
f 117 119 126
f 119 121 120
f 119 122 121
f 122 124 123
f 120 126 119
f 126 120 127
f 127 121 128
f 129 121 122
f 129 123 130
f 130 124 125
f 124 130 123
f 123 129 122
f 128 121 129
f 121 127 120
f 131 154 150
f 132 153 131
f 154 131 153
f 153 132 155
f 133 155 132
f 133 156 155
f 133 157 156
f 134 157 133
f 134 158 157
f 135 158 134
f 135 159 158
f 136 159 135
f 137 159 136
f 137 160 159
f 137 161 160
f 138 161 137
f 138 162 161
f 139 162 138
f 139 163 162
f 140 163 139
f 141 163 140
f 141 164 163
f 141 165 164
f 142 165 141
f 142 166 165
f 143 166 142
f 144 166 143
f 144 167 166
f 144 169 167
f 145 169 144
f 145 170 169
f 146 170 145
f 146 171 170
f 147 171 146
f 147 175 171
f 148 175 147
f 148 176 175
f 149 176 148
f 150 154 172
f 156 153 155
f 149 193 176
f 151 193 149
f 172 154 173
f 153 173 154
f 153 156 173
f 151 195 193
f 152 195 151
f 156 180 173
f 181 180 156
f 181 156 157
f 181 157 182
f 157 158 182
f 158 183 182
f 159 183 158
f 184 183 159
f 184 159 160
f 161 185 160
f 184 160 185
f 185 161 186
f 161 162 186
f 186 162 187
f 187 162 163
f 164 188 163
f 188 187 163
f 189 188 164
f 165 189 164
f 165 190 189
f 165 166 190
f 167 190 166
f 190 167 192
f 167 169 192
f 192 169 170
f 172 173 177
f 173 180 177
f 152 199 195
f 168 199 152
f 170 171 194
f 194 192 170
f 177 179 178
f 177 180 179
f 197 194 171
f 197 171 175
f 172 177 198
f 168 203 199
f 174 203 168
f 176 197 175
f 178 198 177
f 176 200 197
f 193 200 176
f 174 205 203
f 191 205 174
f 193 202 200
f 195 202 193
f 196 205 191
f 195 204 202
f 199 204 195
f 198 178 209
f 179 209 178
f 209 179 210
f 211 179 180
f 210 179 211
f 212 180 181
f 211 180 212
f 213 181 182
f 212 181 213
f 214 182 183
f 213 182 214
f 215 183 184
f 214 183 215
f 216 184 185
f 215 184 216
f 217 185 186
f 216 185 217
f 218 186 187
f 217 186 218
f 219 187 188
f 218 187 219
f 220 188 189
f 219 188 220
f 221 189 190
f 220 189 221
f 222 190 192
f 221 190 222
f 224 192 194
f 222 192 224
f 196 208 205
f 199 207 204
f 199 203 207
f 224 194 197
f 196 226 208
f 201 226 196
f 228 197 200
f 224 197 228
f 203 223 207
f 203 205 223
f 229 200 202
f 228 200 229
f 201 230 226
f 206 230 201
f 205 227 223
f 205 208 227
f 229 202 231
f 234 202 204
f 231 202 234
f 208 226 227
f 225 230 206
f 236 204 207
f 234 204 236
f 227 226 232
f 226 230 232
f 238 207 223
f 236 207 238
f 225 235 230
f 233 235 225
f 238 223 227
f 232 230 237
f 230 235 237
f 238 227 242
f 243 227 232
f 242 227 243
f 233 240 235
f 239 240 233
f 237 235 241
f 235 240 241
f 247 232 237
f 243 232 247
f 239 244 240
f 246 244 239
f 241 240 245
f 240 244 245
f 248 237 241
f 247 237 248
f 248 241 245
f 245 244 249
f 246 250 244
f 244 250 249
f 251 250 246
f 252 245 249
f 248 245 252
f 249 250 253
f 251 254 250
f 253 250 254
f 255 249 253
f 252 249 255
f 256 254 251
f 255 253 257
f 253 254 258
f 256 259 254
f 258 254 259
f 260 253 258
f 257 253 260
f 260 258 261
f 258 259 261
f 262 259 256
f 262 263 259
f 261 259 263
f 260 261 264
f 264 261 265
f 261 263 265
f 267 263 262
f 264 265 266
f 267 268 263
f 265 263 268
f 265 268 269
f 270 265 269
f 266 265 270
f 271 268 267
f 271 272 268
f 269 268 272
f 270 269 273
f 273 269 274
f 269 272 274
f 271 275 272
f 274 272 275
f 276 275 271
f 273 274 278
f 273 278 277
f 274 275 278
f 276 279 275
f 278 275 279
f 277 278 280
f 281 279 276
f 280 278 282
f 278 279 282
f 280 282 283
f 281 284 279
f 282 279 284
f 287 284 281
f 283 282 285
f 282 284 285
f 283 285 286
f 287 289 284
f 285 284 289
f 286 285 290
f 285 289 290
f 286 290 288
f 292 289 287
f 288 290 294
f 288 294 291
f 290 289 293
f 290 293 294
f 297 293 289
f 297 289 292
f 291 294 298
f 291 298 295
f 297 299 293
f 294 293 299
f 294 299 298
f 295 298 301
f 295 301 296
f 298 303 301
f 298 299 303
f 304 299 297
f 296 301 306
f 296 306 300
f 310 303 299
f 310 299 304
f 301 308 306
f 301 303 308
f 300 306 311
f 300 311 302
f 310 308 303
f 302 311 316
f 306 313 311
f 306 308 313
f 302 316 321
f 302 321 305
f 305 321 307
f 319 308 310
f 311 317 316
f 311 313 317
f 307 321 338
f 339 313 308
f 339 308 319
f 307 338 341
f 307 341 309
f 316 317 337
f 309 341 344
f 309 344 312
f 316 340 321
f 316 337 340
f 342 317 313
f 342 313 339
f 312 344 345
f 312 345 314
f 342 337 317
f 314 345 348
f 314 348 315
f 321 343 338
f 321 340 343
f 315 348 318
f 318 348 351
f 318 351 320
f 338 346 341
f 338 343 346
f 349 337 342
f 320 351 352
f 320 352 355
f 320 355 322
f 354 340 337
f 354 337 349
f 322 355 356
f 322 356 323
f 323 356 324
f 324 356 360
f 324 360 361
f 326 361 362
f 327 362 363
f 328 363 364
f 329 364 365
f 330 365 366
f 331 366 367
f 332 367 368
f 333 368 369
f 334 369 370
f 334 370 357
f 335 358 336
f 336 359 347
f 359 336 358
f 358 335 357
f 334 357 335
f 333 369 334
f 332 368 333
f 331 367 332
f 330 366 331
f 329 365 330
f 328 364 329
f 327 363 328
f 326 362 327
f 325 361 326
f 324 361 325
f 341 350 344
f 341 346 350
f 354 343 340
f 344 353 345
f 344 350 353
f 345 371 348
f 345 353 371
f 373 343 354
f 348 372 351
f 348 371 372
f 379 346 343
f 379 343 373
f 347 359 374
f 357 359 358
f 351 376 352
f 351 372 376
f 396 350 346
f 396 346 379
f 377 352 376
f 370 375 357
f 374 359 375
f 357 375 359
f 352 378 355
f 377 378 352
f 355 378 380
f 355 381 356
f 380 381 355
f 356 395 360
f 381 395 356
f 360 394 361
f 361 393 362
f 362 392 363
f 363 391 364
f 364 390 365
f 365 389 366
f 366 388 367
f 367 387 368
f 368 386 369
f 385 375 370
f 369 385 370
f 369 386 385
f 387 386 368
f 388 387 367
f 389 388 366
f 390 389 365
f 391 390 364
f 392 391 363
f 393 392 362
f 394 393 361
f 395 394 360
f 397 353 350
f 397 350 396
f 374 375 382
f 382 375 385
f 399 371 353
f 399 353 397
f 382 384 383
f 382 385 384
f 374 382 398
f 400 372 371
f 400 371 399
f 400 376 372
f 383 398 382
f 401 376 400
f 402 377 376
f 402 376 401
f 403 378 377
f 403 377 402
f 404 380 378
f 404 378 403
f 405 381 380
f 405 380 404
f 418 395 381
f 418 381 405
f 398 383 406
f 406 384 407
f 408 384 385
f 409 385 386
f 410 386 387
f 411 387 388
f 412 388 389
f 413 389 390
f 414 390 391
f 415 391 392
f 416 392 393
f 417 393 394
f 417 394 395
f 417 395 418
f 416 393 417
f 415 392 416
f 414 391 415
f 413 390 414
f 412 389 413
f 411 388 412
f 410 387 411
f 409 386 410
f 408 385 409
f 407 384 408
f 384 406 383
f 420 444 419
f 419 445 433
f 445 419 444
f 421 443 420
f 444 420 443
f 443 421 442
f 422 442 421
f 422 446 442
f 425 446 422
f 425 449 446
f 431 449 425
f 423 450 451
f 423 451 424
f 423 453 450
f 426 453 423
f 424 451 454
f 424 454 427
f 426 457 453
f 428 457 426
f 427 454 458
f 427 458 429
f 433 445 448
f 428 460 457
f 430 460 428
f 429 458 461
f 429 461 432
f 431 459 449
f 432 461 435
f 430 462 460
f 434 462 430
f 431 465 459
f 436 465 431
f 442 444 443
f 442 445 444
f 435 461 464
f 446 447 442
f 442 447 445
f 448 445 447
f 439 465 436
f 434 472 462
f 437 472 434
f 435 464 473
f 435 473 438
f 440 472 437
f 438 473 441
f 466 447 446
f 448 447 466
f 470 446 449
f 470 466 446
f 439 475 465
f 440 479 472
f 452 479 440
f 441 473 482
f 441 482 456
f 448 466 476
f 439 487 475
f 455 487 439
f 474 451 450
f 474 454 451
f 449 459 480
f 470 449 480
f 474 450 478
f 478 450 453
f 477 454 474
f 477 458 454
f 478 453 457
f 466 468 467
f 461 458 477
f 466 470 468
f 480 459 465
f 452 486 479
f 463 486 452
f 457 485 478
f 485 457 460
f 471 487 455
f 483 461 477
f 483 464 461
f 467 476 466
f 485 460 462
f 456 482 490
f 456 490 469
f 489 464 483
f 489 473 464
f 491 465 475
f 491 480 465
f 493 485 462
f 472 493 462
f 463 494 486
f 489 482 473
f 472 479 493
f 487 491 475
f 469 490 496
f 469 496 484
f 463 500 494
f 481 500 463
f 471 497 487
f 476 467 499
f 468 499 467
f 479 486 493
f 499 468 503
f 506 468 470
f 503 468 506
f 498 482 489
f 498 490 482
f 471 508 497
f 488 508 471
f 512 470 480
f 506 470 512
f 498 496 490
f 481 509 500
f 492 509 481
f 497 502 487
f 502 491 487
f 484 496 505
f 484 505 495
f 493 486 504
f 486 494 504
f 513 477 474
f 515 474 478
f 513 474 515
f 514 477 513
f 501 508 488
f 518 483 477
f 518 477 514
f 520 478 485
f 515 478 520
f 504 494 500
f 521 480 491
f 512 480 521
f 510 509 492
f 524 489 483
f 524 483 518
f 507 496 498
f 507 505 496
f 526 485 493
f 520 485 526
f 524 498 489
f 521 491 502
f 495 505 516
f 495 516 511
f 508 517 497
f 517 502 497
f 526 493 504
f 501 522 508
f 531 507 498
f 531 498 524
f 504 500 528
f 500 509 528
f 523 505 507
f 523 516 505
f 522 517 508
f 521 502 532
f 510 527 509
f 525 527 510
f 528 509 527
f 501 534 522
f 519 534 501
f 533 504 528
f 526 504 533
f 511 516 530
f 511 530 529
f 536 523 507
f 536 507 531
f 523 530 516
f 541 502 517
f 532 502 541
f 522 535 517
f 538 534 519
f 534 535 522
f 539 530 523
f 525 537 527
f 541 517 535
f 544 539 523
f 544 523 536
f 529 530 540
f 543 537 525
f 539 540 530
f 529 540 542
f 533 528 545
f 528 527 546
f 527 537 546
f 545 528 546
f 538 547 534
f 543 549 537
f 546 537 549
f 547 551 534
f 551 535 534
f 548 540 539
f 553 535 551
f 541 535 553
f 552 548 539
f 552 539 544
f 554 547 538
f 542 540 550
f 548 550 540
f 542 550 555
f 545 546 556
f 543 563 549
f 557 563 543
f 554 558 547
f 558 551 547
f 559 548 552
f 556 546 566
f 546 549 566
f 555 550 560
f 559 562 548
f 562 550 548
f 562 560 550
f 553 551 561
f 561 551 564
f 558 564 551
f 566 549 563
f 565 558 554
f 555 560 567
f 556 566 571
f 568 562 559
f 565 569 558
f 569 564 558
f 567 560 570
f 562 570 560
f 574 563 557
f 561 564 572
f 568 573 562
f 573 570 562
f 572 564 576
f 569 576 564
f 574 579 563
f 566 563 579
f 577 569 565
f 575 573 568
f 567 570 580
f 567 580 578
f 571 566 582
f 566 579 582
f 573 580 570
f 577 581 569
f 581 576 569
f 572 576 583
f 575 584 573
f 584 580 573
f 571 582 586
f 585 584 575
f 578 580 587
f 587 580 588
f 584 588 580
f 583 576 590
f 581 590 576
f 589 581 577
f 574 598 579
f 591 598 574
f 589 592 581
f 592 590 581
f 583 590 593
f 582 579 599
f 579 598 599
f 586 582 599
f 595 584 585
f 595 596 584
f 596 588 584
f 587 588 597
f 587 597 594
f 597 588 596
f 586 599 600
f 601 592 589
f 593 590 603
f 592 603 590
f 601 602 592
f 602 603 592
f 593 603 604
f 605 596 595
f 597 596 606
f 594 597 607
f 605 608 596
f 596 608 606
f 607 597 606
f 591 611 598
f 609 611 591
f 599 598 610
f 598 611 610
f 615 599 610
f 600 599 615
f 601 613 602
f 613 603 602
f 604 603 612
f 616 613 601
f 614 608 605
f 612 603 618
f 613 618 603
f 607 606 617
f 606 608 617
f 607 617 619
f 614 620 608
f 617 608 620
f 624 611 609
f 610 611 626
f 612 618 622
f 621 620 614
f 616 623 613
f 623 618 613
f 630 610 626
f 615 610 630
f 619 617 625
f 617 620 625
f 627 623 616
f 622 618 628
f 623 628 618
f 624 632 611
f 626 611 632
f 619 625 629
f 621 631 620
f 625 620 631
f 633 631 621
f 622 628 634
f 627 635 623
f 635 628 623
f 629 625 637
f 625 631 637
f 630 626 641
f 626 632 641
f 634 628 638
f 635 638 628
f 639 635 627
f 624 644 632
f 636 644 624
f 629 637 643
f 633 645 631
f 637 631 645
f 641 632 644
f 640 645 633
f 634 638 642
f 630 641 649
f 639 646 635
f 646 638 635
f 643 637 647
f 637 645 647
f 648 644 636
f 642 638 653
f 646 653 638
f 641 644 652
f 654 646 639
f 642 653 651
f 640 656 645
f 643 647 655
f 647 645 657
f 645 656 657
f 648 659 644
f 652 644 659
f 662 641 652
f 649 641 662
f 654 658 646
f 658 653 646
f 640 671 656
f 650 671 640
f 673 647 657
f 655 647 673
f 662 652 664
f 652 659 664
f 651 653 666
f 651 666 663
f 660 671 650
f 658 666 653
f 668 658 654
f 648 677 659
f 661 677 648
f 657 656 667
f 668 669 658
f 669 666 658
f 656 671 667
f 673 657 667
f 664 659 676
f 659 677 676
f 662 664 675
f 670 677 661
f 660 685 671
f 665 685 660
f 663 666 683
f 663 683 672
f 667 671 680
f 682 666 669
f 682 683 666
f 693 664 676
f 675 664 693
f 686 669 668
f 690 667 680
f 673 667 690
f 680 671 685
f 665 701 685
f 670 700 677
f 681 700 670
f 676 677 691
f 693 676 691
f 672 683 702
f 672 702 679
f 704 682 669
f 704 669 686
f 680 685 695
f 665 709 701
f 674 709 665
f 699 683 682
f 699 702 683
f 691 677 706
f 677 700 706
f 705 680 695
f 690 680 705
f 704 699 682
f 695 685 703
f 685 701 703
f 674 716 709
f 678 716 674
f 679 702 712
f 681 713 700
f 693 691 707
f 678 721 716
f 684 721 678
f 708 702 699
f 679 712 725
f 679 725 687
f 689 721 684
f 681 723 713
f 688 723 681
f 711 720 689
f 721 689 720
f 692 723 688
f 706 700 714
f 717 695 703
f 705 695 717
f 703 701 710
f 718 708 699
f 718 699 704
f 727 691 706
f 707 691 727
f 715 702 708
f 715 712 702
f 687 725 730
f 687 730 694
f 700 724 714
f 700 713 724
f 701 722 710
f 701 709 722
f 692 729 723
f 696 729 692
f 694 730 737
f 694 737 697
f 696 736 729
f 697 737 698
f 696 738 736
f 698 738 696
f 720 711 719
f 698 737 738
f 717 703 732
f 719 716 721
f 709 728 722
f 709 716 728
f 719 721 720
f 726 712 715
f 726 725 712
f 733 715 708
f 733 708 718
f 747 706 714
f 727 706 747
f 713 731 724
f 750 703 710
f 732 703 750
f 739 719 711
f 713 741 731
f 723 741 713
f 716 719 734
f 716 734 728
f 750 710 722
f 739 740 719
f 719 740 734
f 735 725 726
f 751 726 715
f 751 715 733
f 754 714 724
f 747 714 754
f 748 725 735
f 748 730 725
f 723 749 741
f 753 749 723
f 729 753 723
f 734 740 742
f 754 724 731
f 758 722 728
f 750 722 758
f 739 746 740
f 742 740 746
f 742 744 743
f 742 745 744
f 742 746 745
f 730 748 752
f 752 737 730
f 729 756 753
f 736 759 729
f 729 759 756
f 763 735 726
f 763 726 751
f 737 752 755
f 755 757 737
f 757 738 737
f 736 761 759
f 758 728 766
f 764 731 741
f 754 731 764
f 738 762 736
f 736 762 761
f 738 757 760
f 738 760 762
f 765 746 739
f 769 728 734
f 766 728 769
f 767 748 735
f 767 735 763
f 769 734 742
f 768 741 749
f 764 741 768
f 743 771 742
f 769 742 771
f 770 752 748
f 770 748 767
f 771 743 773
f 744 773 743
f 768 749 772
f 773 744 775
f 745 775 744
f 775 745 777
f 777 746 765
f 746 777 745
f 776 749 753
f 772 749 776
f 774 755 752
f 774 752 770
f 779 753 756
f 776 753 779
f 778 755 774
f 780 757 755
f 780 755 778
f 781 756 759
f 779 756 781
f 782 760 757
f 782 757 780
f 783 759 761
f 781 759 783
f 784 762 760
f 784 760 782
f 784 761 762
f 783 761 784
f 785 809 786
f 787 809 810
f 788 810 811
f 789 811 812
f 790 812 813
f 791 813 814
f 792 814 815
f 793 815 816
f 794 816 817
f 795 817 818
f 796 818 819
f 797 819 820
f 798 820 821
f 799 821 822
f 800 822 823
f 801 823 824
f 802 824 825
f 803 825 826
f 803 826 827
f 804 828 805
f 805 829 806
f 807 808 785
f 829 805 828
f 828 804 827
f 803 827 804
f 802 825 803
f 801 824 802
f 800 823 801
f 799 822 800
f 798 821 799
f 797 820 798
f 796 819 797
f 795 818 796
f 794 817 795
f 793 816 794
f 792 815 793
f 791 814 792
f 790 813 791
f 789 812 790
f 788 811 789
f 787 810 788
f 786 809 787
f 809 785 808
f 808 807 830
f 832 830 807
f 806 829 831
f 808 810 809
f 827 829 828
f 831 829 833
f 832 834 830
f 827 833 829
f 834 808 830
f 808 834 810
f 826 833 827
f 810 853 811
f 810 834 854
f 811 853 812
f 812 851 813
f 810 854 853
f 813 850 814
f 812 853 852
f 814 849 815
f 812 852 851
f 815 848 816
f 813 851 850
f 816 848 817
f 814 850 849
f 817 847 818
f 815 849 848
f 818 845 819
f 817 848 847
f 819 844 820
f 818 847 846
f 820 844 821
f 818 846 845
f 821 843 822
f 819 845 844
f 822 842 823
f 821 844 843
f 823 840 824
f 822 843 842
f 824 839 825
f 823 842 841
f 825 839 826
f 823 841 840
f 824 840 839
f 826 838 833
f 826 839 838
f 833 838 835
f 831 833 835
f 832 857 834
f 855 834 857
f 834 855 854
f 835 837 836
f 835 838 837
f 855 857 856
f 859 857 832
f 831 835 858
f 836 858 835
f 858 836 860
f 860 837 861
f 862 837 838
f 863 838 839
f 864 839 840
f 865 840 841
f 866 841 842
f 867 842 843
f 868 843 844
f 869 844 845
f 870 845 846
f 871 846 847
f 872 847 848
f 873 848 849
f 874 849 850
f 875 850 851
f 876 851 852
f 877 852 853
f 878 853 854
f 878 854 855
f 879 856 880
f 880 857 859
f 857 880 856
f 856 879 855
f 878 855 879
f 877 853 878
f 876 852 877
f 875 851 876
f 874 850 875
f 873 849 874
f 872 848 873
f 871 847 872
f 870 846 871
f 869 845 870
f 868 844 869
f 867 843 868
f 866 842 867
f 865 841 866
f 864 840 865
f 863 839 864
f 862 838 863
f 861 837 862
f 837 860 836
f 881 895 894
f 881 894 896
f 881 896 883
f 882 895 881
f 882 897 895
f 883 896 898
f 883 898 885
f 884 897 882
f 884 899 897
f 885 898 900
f 885 900 887
f 886 899 884
f 886 903 899
f 887 900 904
f 887 904 889
f 888 903 886
f 888 907 903
f 889 904 908
f 889 908 891
f 890 907 888
f 891 908 893
f 892 907 890
f 905 894 895
f 906 896 894
f 906 894 905
f 905 895 909
f 909 895 897
f 910 896 906
f 910 898 896
f 892 917 907
f 893 908 918
f 897 913 909
f 913 897 899
f 914 898 910
f 914 900 898
f 915 913 899
f 903 915 899
f 916 900 914
f 916 904 900
f 892 923 917
f 901 923 892
f 893 918 924
f 893 924 902
f 919 915 903
f 907 919 903
f 920 904 916
f 920 908 904
f 901 929 923
f 911 929 901
f 902 924 930
f 902 930 912
f 907 925 919
f 907 917 925
f 926 908 920
f 926 918 908
f 921 929 911
f 912 930 922
f 933 906 905
f 934 906 933
f 935 905 909
f 933 905 935
f 936 910 906
f 936 906 934
f 927 918 926
f 927 924 918
f 917 928 925
f 917 923 928
f 939 909 913
f 935 909 939
f 940 914 910
f 940 910 936
f 940 916 914
f 941 913 915
f 939 913 941
f 942 920 916
f 942 916 940
f 945 915 919
f 941 915 945
f 937 924 927
f 937 930 924
f 923 938 928
f 923 929 938
f 921 943 929
f 931 943 921
f 922 930 944
f 922 944 932
f 946 920 942
f 951 919 925
f 945 919 951
f 952 926 920
f 952 920 946
f 952 927 926
f 947 930 937
f 947 944 930
f 938 929 948
f 929 943 948
f 956 925 928
f 951 925 956
f 955 927 952
f 931 953 943
f 932 944 954
f 959 937 927
f 959 927 955
f 960 928 938
f 956 928 960
f 948 943 957
f 943 953 957
f 958 944 947
f 958 954 944
f 931 963 953
f 949 963 931
f 932 954 964
f 932 964 950
f 959 947 937
f 968 938 948
f 960 938 968
f 967 947 959
f 957 953 965
f 953 963 965
f 966 954 958
f 966 964 954
f 969 958 947
f 969 947 967
f 970 948 957
f 968 948 970
f 949 971 963
f 961 971 949
f 950 964 972
f 950 972 962
f 962 972 976
f 975 971 961
f 978 957 965
f 970 957 978
f 977 966 958
f 977 958 969
f 965 963 973
f 963 971 973
f 974 964 966
f 974 972 964
f 977 974 966
f 984 965 973
f 978 965 984
f 975 979 971
f 976 972 980
f 981 972 974
f 981 980 972
f 973 971 982
f 971 979 982
f 983 974 977
f 989 973 982
f 984 973 989
f 990 981 974
f 990 974 983
f 975 991 979
f 976 980 992
f 976 992 986
f 985 991 975
f 987 980 981
f 982 979 988
f 987 992 980
f 979 991 988
f 989 982 988
f 995 987 981
f 995 981 990
f 985 999 991
f 986 992 1000
f 986 1000 994
f 993 999 985
f 989 988 996
f 995 997 987
f 997 992 987
f 996 988 998
f 988 991 998
f 997 1000 992
f 998 991 999
f 1001 997 995
f 996 998 1002
f 994 1000 1004
f 1003 999 993
f 1001 1005 997
f 1005 1000 997
f 1002 998 1006
f 998 999 1006
f 1003 1007 999
f 1004 1000 1008
f 1005 1008 1000
f 1006 999 1007
f 1009 1005 1001
f 1002 1006 1010
f 1011 1008 1005
f 1010 1006 1012
f 1006 1007 1012
f 1004 1008 1014
f 1013 1007 1003
f 1015 1011 1005
f 1015 1005 1009
f 1013 1017 1007
f 1014 1008 1018
f 1011 1018 1008
f 1012 1007 1017
f 1010 1012 1016
f 1016 1012 1019
f 1012 1017 1019
f 1015 1020 1011
f 1020 1018 1011
f 1021 1020 1015
f 1016 1019 1022
f 1014 1018 1025
f 1026 1017 1013
f 1023 1018 1020
f 1019 1017 1024
f 1026 1024 1017
f 1025 1018 1023
f 1022 1019 1028
f 1019 1024 1028
f 1022 1028 1027
f 1021 1030 1020
f 1023 1020 1030
f 1029 1030 1021
f 1027 1028 1031
f 1032 1028 1024
f 1031 1028 1032
f 1025 1023 1034
f 1026 1033 1024
f 1023 1030 1034
f 1033 1032 1024
f 1036 1033 1026
f 1025 1034 1037
f 1035 1030 1029
f 1035 1038 1030
f 1034 1030 1038
f 1031 1032 1039
f 1039 1032 1040
f 1033 1040 1032
f 1041 1038 1035
f 1036 1042 1033
f 1042 1040 1033
f 1037 1034 1043
f 1034 1038 1043
f 1046 1042 1036
f 1037 1043 1047
f 1041 1045 1038
f 1043 1038 1045
f 1039 1040 1044
f 1048 1045 1041
f 1044 1040 1049
f 1042 1049 1040
f 1046 1051 1042
f 1051 1049 1042
f 1047 1043 1052
f 1043 1045 1052
f 1044 1049 1050
f 1048 1053 1045
f 1052 1045 1053
f 1055 1051 1046
f 1047 1052 1056
f 1050 1049 1057
f 1051 1057 1049
f 1048 1062 1053
f 1054 1062 1048
f 1055 1059 1051
f 1059 1057 1051
f 1056 1052 1060
f 1052 1053 1060
f 1060 1053 1062
f 1061 1062 1054
f 1050 1057 1064
f 1050 1064 1058
f 1059 1064 1057
f 1065 1059 1055
f 1056 1060 1066
f 1058 1064 1063
f 1065 1067 1059
f 1067 1064 1059
f 1060 1062 1068
f 1061 1069 1062
f 1070 1069 1061
f 1068 1062 1069
f 1063 1064 1072
f 1076 1060 1068
f 1066 1060 1076
f 1067 1072 1064
f 1075 1067 1065
f 1063 1072 1080
f 1063 1080 1071
f 1078 1072 1067
f 1068 1069 1077
f 1070 1079 1069
f 1077 1069 1079
f 1071 1080 1074
f 1078 1080 1072
f 1088 1078 1067
f 1088 1067 1075
f 1087 1068 1077
f 1076 1068 1087
f 1070 1089 1079
f 1073 1089 1070
f 1074 1080 1090
f 1077 1079 1085
f 1086 1080 1078
f 1087 1077 1085
f 1088 1086 1078
f 1085 1079 1089
f 1086 1090 1080
f 1073 1097 1089
f 1081 1097 1073
f 1074 1090 1098
f 1074 1098 1082
f 1085 1089 1093
f 1094 1090 1086
f 1082 1098 1105
f 1082 1105 1084
f 1081 1106 1097
f 1083 1106 1081
f 1093 1089 1097
f 1094 1098 1090
f 1099 1085 1093
f 1100 1094 1086
f 1100 1086 1088
f 1087 1085 1099
f 1084 1105 1116
f 1084 1116 1091
f 1083 1117 1106
f 1092 1117 1083
f 1093 1097 1107
f 1108 1098 1094
f 1107 1097 1106
f 1108 1105 1098
f 1091 1116 1095
f 1119 1094 1100
f 1099 1093 1118
f 1092 1122 1117
f 1096 1122 1092
f 1102 1122 1096
f 1095 1116 1123
f 1121 1105 1108
f 1121 1116 1105
f 1107 1106 1120
f 1106 1117 1120
f 1126 1093 1107
f 1127 1108 1094
f 1127 1094 1119
f 1118 1093 1126
f 1095 1123 1129
f 1095 1129 1101
f 1102 1128 1122
f 1104 1128 1102
f 1101 1129 1131
f 1101 1131 1103
f 1104 1130 1128
f 1125 1116 1121
f 1125 1123 1116
f 1120 1117 1124
f 1117 1122 1124
f 1104 1134 1130
f 1110 1134 1104
f 1103 1131 1135
f 1103 1135 1109
f 1136 1107 1120
f 1137 1121 1108
f 1137 1108 1127
f 1126 1107 1136
f 1110 1138 1134
f 1112 1138 1110
f 1109 1135 1139
f 1109 1139 1111
f 1111 1139 1140
f 1111 1140 1113
f 1112 1141 1138
f 1114 1141 1112
f 1113 1140 1144
f 1113 1144 1115
f 1114 1144 1141
f 1115 1144 1114
f 1124 1122 1132
f 1133 1123 1125
f 1133 1129 1123
f 1122 1142 1132
f 1122 1128 1142
f 1147 1120 1124
f 1148 1125 1121
f 1148 1121 1137
f 1136 1120 1147
f 1143 1129 1133
f 1128 1145 1142
f 1130 1145 1128
f 1146 1129 1143
f 1146 1131 1129
f 1130 1149 1145
f 1134 1149 1130
f 1131 1146 1150
f 1150 1135 1131
f 1156 1124 1132
f 1157 1133 1125
f 1157 1125 1148
f 1147 1124 1156
f 1138 1151 1134
f 1134 1151 1149
f 1135 1150 1152
f 1152 1139 1135
f 1156 1132 1142
f 1157 1143 1133
f 1141 1153 1138
f 1138 1153 1151
f 1139 1152 1154
f 1154 1140 1139
f 1140 1154 1155
f 1155 1144 1140
f 1141 1144 1155
f 1141 1155 1153
f 1159 1143 1157
f 1156 1142 1158
f 1160 1142 1145
f 1161 1146 1143
f 1161 1143 1159
f 1158 1142 1160
f 1162 1145 1149
f 1163 1150 1146
f 1163 1146 1161
f 1160 1145 1162
f 1164 1149 1151
f 1165 1152 1150
f 1165 1150 1163
f 1162 1149 1164
f 1166 1151 1153
f 1167 1154 1152
f 1167 1152 1165
f 1164 1151 1166
f 1168 1153 1155
f 1168 1155 1154
f 1168 1154 1167
f 1166 1153 1168
f 1169 1193 1170
f 1171 1193 1194
f 1172 1194 1195
f 1173 1195 1196
f 1174 1196 1197
f 1175 1197 1198
f 1176 1198 1199
f 1177 1199 1200
f 1178 1200 1201
f 1179 1201 1202
f 1180 1202 1203
f 1181 1203 1204
f 1182 1204 1205
f 1183 1205 1206
f 1184 1206 1207
f 1185 1207 1208
f 1186 1208 1209
f 1187 1209 1210
f 1187 1210 1211
f 1188 1212 1189
f 1189 1213 1191
f 1190 1192 1169
f 1213 1189 1212
f 1212 1188 1211
f 1187 1211 1188
f 1186 1209 1187
f 1185 1208 1186
f 1184 1207 1185
f 1183 1206 1184
f 1182 1205 1183
f 1181 1204 1182
f 1180 1203 1181
f 1179 1202 1180
f 1178 1201 1179
f 1177 1200 1178
f 1176 1199 1177
f 1175 1198 1176
f 1174 1197 1175
f 1173 1196 1174
f 1172 1195 1173
f 1171 1194 1172
f 1170 1193 1171
f 1193 1169 1192
f 1192 1190 1214
f 1215 1214 1190
f 1192 1194 1193
f 1211 1213 1212
f 1215 1216 1214
f 1216 1192 1214
f 1192 1216 1194
f 1191 1213 1233
f 1194 1229 1195
f 1195 1228 1196
f 1196 1227 1197
f 1197 1226 1198
f 1198 1225 1199
f 1199 1224 1200
f 1200 1223 1201
f 1201 1222 1202
f 1202 1221 1203
f 1203 1220 1204
f 1204 1219 1205
f 1205 1218 1206
f 1206 1218 1207
f 1207 1218 1208
f 1208 1217 1209
f 1209 1217 1210
f 1210 1217 1211
f 1208 1218 1217
f 1205 1219 1218
f 1204 1220 1219
f 1203 1221 1220
f 1202 1222 1221
f 1201 1223 1222
f 1200 1224 1223
f 1199 1225 1224
f 1198 1226 1225
f 1197 1227 1226
f 1196 1228 1227
f 1195 1229 1228
f 1194 1216 1229
f 1233 1213 1234
f 1211 1234 1213
f 1211 1217 1234
f 1215 1232 1216
f 1230 1216 1232
f 1229 1216 1230
f 1230 1232 1231
f 1236 1232 1215
f 1234 1217 1235
f 1233 1234 1235
f 1217 1237 1235
f 1217 1239 1237
f 1233 1235 1238
f 1240 1217 1218
f 1242 1218 1219
f 1243 1219 1220
f 1244 1220 1221
f 1245 1221 1222
f 1246 1222 1223
f 1247 1223 1224
f 1248 1224 1225
f 1249 1225 1226
f 1250 1226 1227
f 1251 1227 1228
f 1252 1228 1229
f 1252 1229 1230
f 1253 1231 1254
f 1254 1232 1236
f 1232 1254 1231
f 1231 1253 1230
f 1252 1230 1253
f 1251 1228 1252
f 1250 1227 1251
f 1249 1226 1250
f 1248 1225 1249
f 1247 1224 1248
f 1246 1223 1247
f 1245 1222 1246
f 1244 1221 1245
f 1243 1220 1244
f 1242 1219 1243
f 1241 1218 1242
f 1240 1218 1241
f 1217 1256 1239
f 1255 1235 1237
f 1238 1235 1255
f 1258 1237 1239
f 1255 1237 1258
f 1240 1263 1217
f 1217 1263 1256
f 1261 1239 1256
f 1258 1239 1261
f 1257 1263 1240
f 1256 1263 1259
f 1265 1256 1259
f 1261 1256 1265
f 1259 1263 1262
f 1257 1267 1263
f 1260 1267 1257
f 1265 1259 1262
f 1262 1263 1266
f 1266 1263 1267
f 1260 1271 1267
f 1264 1271 1260
f 1265 1262 1269
f 1268 1271 1264
f 1273 1262 1266
f 1269 1262 1273
f 1266 1267 1270
f 1270 1267 1271
f 1268 1275 1271
f 1277 1266 1270
f 1273 1266 1277
f 1270 1271 1274
f 1274 1271 1275
f 1268 1279 1275
f 1272 1279 1268
f 1281 1270 1274
f 1277 1270 1281
f 1274 1275 1278
f 1278 1275 1279
f 1272 1283 1279
f 1276 1283 1272
f 1285 1274 1278
f 1281 1274 1285
f 1278 1279 1282
f 1282 1279 1283
f 1276 1287 1283
f 1280 1287 1276
f 1289 1278 1282
f 1285 1278 1289
f 1282 1283 1286
f 1286 1283 1287
f 1280 1291 1287
f 1284 1291 1280
f 1293 1282 1286
f 1289 1282 1293
f 1286 1287 1290
f 1290 1287 1291
f 1284 1295 1291
f 1288 1295 1284
f 1293 1286 1290
f 1290 1291 1294
f 1294 1291 1295
f 1288 1299 1295
f 1292 1299 1288
f 1293 1290 1297
f 1301 1290 1294
f 1297 1290 1301
f 1294 1295 1298
f 1298 1295 1299
f 1292 1303 1299
f 1296 1303 1292
f 1305 1294 1298
f 1301 1294 1305
f 1298 1299 1302
f 1302 1299 1303
f 1296 1307 1303
f 1300 1307 1296
f 1309 1298 1302
f 1305 1298 1309
f 1302 1303 1306
f 1306 1303 1307
f 1300 1310 1307
f 1304 1310 1300
f 1308 1310 1304
f 1312 1302 1306
f 1309 1302 1312
f 1306 1307 1310
f 1306 1310 1313
f 1308 1313 1310
f 1312 1306 1315
f 1308 1330 1313
f 1311 1330 1308
f 1315 1306 1337
f 1306 1313 1337
f 1311 1332 1330
f 1314 1332 1311
f 1314 1334 1332
f 1331 1334 1314
f 1337 1313 1330
f 1315 1337 1338
f 1317 1338 1339
f 1318 1339 1340
f 1319 1340 1341
f 1320 1341 1342
f 1321 1342 1343
f 1322 1343 1344
f 1323 1344 1345
f 1324 1345 1346
f 1325 1346 1347
f 1326 1347 1348
f 1327 1348 1349
f 1327 1349 1350
f 1328 1351 1329
f 1329 1352 1333
f 1352 1329 1351
f 1351 1328 1350
f 1327 1350 1328
f 1326 1348 1327
f 1325 1347 1326
f 1324 1346 1325
f 1323 1345 1324
f 1322 1344 1323
f 1321 1343 1322
f 1320 1342 1321
f 1319 1341 1320
f 1318 1340 1319
f 1317 1339 1318
f 1316 1338 1317
f 1315 1338 1316
f 1335 1334 1331
f 1337 1330 1332
f 1337 1332 1334
f 1335 1336 1334
f 1337 1334 1336
f 1333 1352 1353
f 1350 1352 1351
f 1353 1352 1354
f 1350 1354 1352
f 1349 1354 1350
f 1335 1377 1336
f 1375 1336 1377
f 1337 1336 1375
f 1337 1372 1338
f 1338 1369 1339
f 1339 1368 1340
f 1340 1367 1341
f 1341 1366 1342
f 1342 1365 1343
f 1343 1364 1344
f 1344 1363 1345
f 1345 1362 1346
f 1346 1361 1347
f 1347 1360 1348
f 1348 1359 1349
f 1349 1358 1354
f 1337 1375 1374
f 1337 1374 1373
f 1337 1373 1372
f 1338 1372 1371
f 1338 1371 1370
f 1338 1370 1369
f 1339 1369 1368
f 1340 1368 1367
f 1341 1367 1366
f 1342 1366 1365
f 1343 1365 1364
f 1344 1364 1363
f 1345 1363 1362
f 1346 1362 1361
f 1347 1361 1360
f 1348 1360 1359
f 1349 1359 1358
f 1378 1377 1335
f 1354 1358 1355
f 1353 1354 1355
f 1355 1357 1356
f 1355 1358 1357
f 1375 1377 1376
f 1353 1355 1379
f 1356 1379 1355
f 1379 1356 1380
f 1380 1357 1381
f 1382 1357 1358
f 1383 1358 1359
f 1384 1359 1360
f 1385 1360 1361
f 1386 1361 1362
f 1387 1362 1363
f 1388 1363 1364
f 1389 1364 1365
f 1390 1365 1366
f 1391 1366 1367
f 1392 1367 1368
f 1393 1368 1369
f 1394 1369 1370
f 1395 1370 1371
f 1396 1371 1372
f 1397 1372 1373
f 1398 1373 1374
f 1398 1374 1375
f 1399 1376 1400
f 1400 1377 1378
f 1377 1400 1376
f 1376 1399 1375
f 1398 1375 1399
f 1397 1373 1398
f 1396 1372 1397
f 1395 1371 1396
f 1394 1370 1395
f 1393 1369 1394
f 1392 1368 1393
f 1391 1367 1392
f 1390 1366 1391
f 1389 1365 1390
f 1388 1364 1389
f 1387 1363 1388
f 1386 1362 1387
f 1385 1361 1386
f 1384 1360 1385
f 1383 1359 1384
f 1382 1358 1383
f 1381 1357 1382
f 1357 1380 1356
