# Decoded from sources/assets/lusion.dev/assets/models/about/sphere_m.buf
# Position/index data decoded from public .buf header and payload.
v -0.0000153 -0.0000153 -0.5000000
v -0.3933868 -0.0000153 -0.3086395
v -0.5000000 -0.0000153 -0.0000076
v -0.3634338 0.1505280 -0.3086395
v -0.4619446 0.1913300 -0.0000076
v -0.2781677 0.2781372 -0.3086395
v -0.3535614 0.3535309 -0.0000076
v -0.1505585 0.3634033 -0.3086395
v -0.1913605 0.4619141 -0.0000153
v -0.0000153 0.3933563 -0.3086395
v -0.0000153 0.4999847 -0.0000076
v 0.1505280 0.3634033 -0.3086395
v 0.1913300 0.4619141 -0.0000076
v 0.2781372 0.2781372 -0.3086395
v 0.3535309 0.3535309 -0.0000153
v 0.3634033 0.1505280 -0.3086395
v 0.4619141 0.1913300 -0.0000076
v 0.3933563 -0.0000153 -0.3086395
v 0.4999847 -0.0000153 -0.0000076
v 0.3634033 -0.1505585 -0.3086395
v 0.4619141 -0.1913605 -0.0000076
v 0.2781372 -0.2781677 -0.3086395
v 0.3535309 -0.3535614 -0.0000076
v 0.1505280 -0.3634338 -0.3086395
v 0.1913300 -0.4619446 -0.0000076
v -0.0000153 -0.3933868 -0.3086395
v -0.0000153 -0.5000000 -0.0000076
v -0.1505585 -0.3634338 -0.3086395
v -0.1913605 -0.4619446 -0.0000153
v -0.2781677 -0.2781677 -0.3086395
v -0.3535614 -0.3535614 -0.0000076
v -0.3634338 -0.1505585 -0.3086395
v -0.4619446 -0.1913605 -0.0000076
f 1 2 4
f 4 3 5
f 1 4 6
f 4 5 7
f 1 6 8
f 8 7 9
f 1 8 10
f 8 9 11
f 1 10 12
f 12 11 13
f 1 12 14
f 12 13 15
f 1 14 16
f 16 15 17
f 1 16 18
f 18 17 19
f 1 18 20
f 20 19 21
f 1 20 22
f 22 21 23
f 1 22 24
f 22 23 25
f 1 24 26
f 24 25 27
f 1 26 28
f 28 27 29
f 1 28 30
f 28 29 31
f 1 30 32
f 32 31 33
f 1 32 2
f 2 33 3
f 32 33 2
f 30 31 32
f 28 31 30
f 26 27 28
f 24 27 26
f 22 25 24
f 20 21 22
f 18 19 20
f 16 17 18
f 14 15 16
f 12 15 14
f 10 11 12
f 8 11 10
f 6 7 8
f 4 7 6
f 2 3 4
