# Decoded from sources/assets/lusion.dev/assets/models/about/rock_0.buf
# Position/index data decoded from public .buf header and payload.
v -0.0346109 -0.1734638 -0.0534354
v -0.0010684 -0.1665509 0.0880527
v -0.0196546 -0.1908056 0.0572753
v 0.0115291 -0.1544956 0.1069159
v -0.0261530 -0.1922007 0.0497571
v -0.0322206 -0.1909870 0.0438845
v 0.0254347 -0.1388492 0.1287942
v 0.1398365 0.1212265 -0.0399601
v 0.1394635 0.1158714 -0.0395768
v 0.1214498 0.0155497 -0.0150552
v 0.1325291 0.0592668 -0.0307793
v 0.1347302 0.1957359 -0.0293647
v 0.1392639 0.1228719 -0.0390132
v 0.1383130 0.1254118 -0.0374408
v 0.1394320 0.1224465 -0.0392894
v 0.1311632 0.1750284 -0.0245347
v 0.0620557 -0.1349580 0.0721708
v 0.0864574 -0.1060614 0.0351658
v 0.0971164 -0.0722412 0.0197518
v 0.1089942 -0.0365756 0.0025061
v 0.0257289 -0.1387178 0.1286702
v 0.0572961 -0.1357713 0.0795651
v 0.0192410 0.2177884 -0.0515417
v 0.0328471 0.2166310 -0.0502680
v 0.0768753 0.2125521 -0.0457763
v 0.1348195 0.1970184 -0.0294492
v -0.0230956 0.0205983 0.1502161
v -0.0004327 -0.0170818 0.1570129
v 0.0137093 0.0002474 0.1523352
v 0.0177701 0.0241642 0.1468515
v -0.0885573 0.0939377 -0.0514572
v -0.0831727 0.0982231 -0.0424229
v -0.0266888 0.1813720 -0.0493099
v -0.0567484 0.1361972 -0.0431725
v -0.0780507 0.1050860 -0.0412338
v -0.0155045 0.1932835 -0.0385567
v -0.0063269 0.2072845 -0.0409633
v -0.1175872 0.0674372 -0.0911787
v -0.0719988 0.0553443 0.1142706
v -0.0920665 -0.0724289 -0.0648085
v -0.0825423 -0.0883568 -0.0642111
v -0.0708851 -0.1107972 -0.0588796
v -0.0330454 -0.1855130 -0.0387089
v -0.1282935 -0.0000654 -0.0854245
v -0.0410725 -0.1883845 -0.0139337
v -0.0336127 -0.1856631 -0.0370351
v -0.0502185 -0.1885534 0.0094551
v -0.0543686 -0.1893354 0.0211664
v -0.1445421 0.0273986 -0.0869405
v -0.1519755 -0.0148734 -0.0025493
v 0.0254347 -0.1388492 0.1287942
v 0.0257289 -0.1387178 0.1286702
v 0.1348195 0.1970184 -0.0294492
v -0.0230956 0.0205983 0.1502161
v -0.0230956 0.0205983 0.1502161
v -0.0004327 -0.0170818 0.1570129
v -0.0004327 -0.0170818 0.1570129
v 0.0137093 0.0002474 0.1523352
v 0.0137093 0.0002474 0.1523352
v 0.0177701 0.0241642 0.1468515
v 0.0177701 0.0241642 0.1468515
v -0.0063269 0.2072845 -0.0409633
v -0.0719988 0.0553443 0.1142706
v -0.0719988 0.0553443 0.1142706
v -0.0543686 -0.1893354 0.0211664
v -0.1445421 0.0273986 -0.0869405
v -0.1519755 -0.0148734 -0.0025493
v -0.1519755 -0.0148734 -0.0025493
v -0.0111075 0.0682880 -0.1065758
v 0.0527835 -0.1517992 -0.0550134
v 0.0351271 0.1231221 -0.0676941
v -0.0662937 0.0563515 -0.0923622
v -0.0551251 0.0962149 -0.0405180
v -0.0006744 -0.1896294 0.0009449
v 0.0988815 0.0828958 -0.0758492
v -0.0346109 -0.1734638 -0.0534354
v 0.0434484 0.1453373 -0.0485998
v 0.0651972 -0.1482082 -0.0284235
v 0.0823020 -0.1117418 -0.0073454
v 0.0079043 0.1737960 -0.0521786
v 0.0431804 0.0025559 -0.0725522
v -0.0297831 -0.1853628 -0.0389963
v 0.0595498 -0.1380422 0.0685357
v 0.1126452 0.1525505 -0.0247884
v 0.1029318 -0.0283489 -0.0559715
v 0.0978151 -0.0657350 -0.0090869
v -0.0058804 -0.1863200 -0.0258648
v -0.0077506 -0.0606551 -0.0737921
v -0.0010684 -0.1665509 0.0880527
v -0.0196546 -0.1908056 0.0572753
v 0.0115291 -0.1544956 0.1069159
v -0.0261530 -0.1922007 0.0497571
v -0.0322206 -0.1909870 0.0438845
v 0.0254347 -0.1388492 0.1287942
v 0.1398365 0.1212265 -0.0399601
v 0.1394635 0.1158714 -0.0395768
v 0.1214498 0.0155497 -0.0150552
v 0.1325291 0.0592668 -0.0307793
v 0.1347302 0.1957359 -0.0293647
v 0.1392639 0.1228719 -0.0390132
v 0.1383130 0.1254118 -0.0374408
v 0.1394320 0.1224465 -0.0392894
v 0.1311632 0.1750284 -0.0245347
v 0.0620557 -0.1349580 0.0721708
v 0.0864574 -0.1060614 0.0351658
v 0.0971164 -0.0722412 0.0197518
v 0.1089942 -0.0365756 0.0025061
v 0.0257289 -0.1387178 0.1286702
v 0.0572961 -0.1357713 0.0795651
v 0.0192410 0.2177884 -0.0515417
v 0.0328471 0.2166310 -0.0502680
v 0.0768753 0.2125521 -0.0457763
v 0.1348195 0.1970184 -0.0294492
v -0.0885573 0.0939377 -0.0514572
v -0.0831727 0.0982231 -0.0424229
v -0.0266888 0.1813720 -0.0493099
v -0.0567484 0.1361972 -0.0431725
v -0.0780507 0.1050860 -0.0412338
v -0.0155045 0.1932835 -0.0385567
v -0.0063269 0.2072845 -0.0409633
v -0.1175872 0.0674372 -0.0911787
v -0.0920665 -0.0724289 -0.0648085
v -0.0825423 -0.0883568 -0.0642111
v -0.0708851 -0.1107972 -0.0588796
v -0.0330454 -0.1855130 -0.0387089
v -0.1282935 -0.0000654 -0.0854245
v -0.0410725 -0.1883845 -0.0139337
v -0.0336127 -0.1856631 -0.0370351
v -0.0502185 -0.1885534 0.0094551
v -0.0543686 -0.1893354 0.0211664
v -0.1445421 0.0273986 -0.0869405
v -0.0006744 -0.1896294 0.0009449
v 0.0651972 -0.1482082 -0.0284235
v 0.0823020 -0.1117418 -0.0073454
v -0.0297831 -0.1853628 -0.0389963
v 0.0978151 -0.0657350 -0.0090869
v -0.0058804 -0.1863200 -0.0258648
v -0.0058804 -0.1863200 -0.0258648
v -0.0261530 -0.1922007 0.0497571
v 0.1089942 -0.0365756 0.0025061
v -0.0330454 -0.1855130 -0.0387089
v 0.1753280 0.0871875 -0.0943066
v 0.1800034 0.0632957 -0.0908236
v -0.0340698 0.0734680 0.1380878
v 0.0353477 0.0915104 0.0562045
v 0.1680521 0.1051423 -0.0928413
v 0.0433118 0.0932371 0.0469335
v 0.0521584 0.0951827 0.0366199
v 0.1487409 0.1065812 -0.0723775
v 0.1030159 0.1102284 -0.0240162
v 0.0579318 -0.0930175 0.0978309
v -0.0457374 0.0696956 -0.1206711
v -0.0443978 0.0641340 -0.1210712
v -0.0193710 0.0509776 -0.1575352
v -0.0359084 0.0589477 -0.1332052
v -0.0927285 0.0728987 -0.0453423
v -0.0855209 0.0767149 -0.0582766
v -0.1205974 0.0378149 0.0111458
v -0.0624798 0.0736181 -0.0947236
v 0.0697781 0.0411243 -0.1671838
v 0.0121438 0.0463544 -0.1729549
v -0.0134242 0.0358567 -0.1623764
v 0.0257499 0.0452032 -0.1716756
v -0.0948035 0.0516094 0.1009982
v -0.0665091 0.0553318 0.1774711
v -0.1074798 0.0474867 0.0689528
v -0.0658629 0.0556571 0.1790097
v -0.0677594 0.0419939 0.1859699
v -0.0968261 -0.0539799 0.1905181
v -0.0790961 -0.1160835 -0.0071369
v -0.0301876 -0.1508233 0.0288086
v -0.1262132 0.0372956 0.0252862
v -0.1236023 0.0373019 0.0161899
v 0.1521345 0.0457413 -0.1443755
v 0.1640386 0.0486628 -0.1224351
v 0.1477795 0.0427446 -0.1471596
v 0.1277223 0.0255906 -0.1508624
v 0.1801190 0.0501956 -0.0862473
v 0.0795230 -0.1030209 0.0779589
v 0.0106728 -0.1472636 0.0254440
v -0.1319603 -0.0894141 0.0702377
v -0.1066130 -0.1222395 0.0395393
v -0.1337412 -0.1002307 0.1280728
v -0.1396932 -0.0832519 0.0959710
v -0.1028779 -0.1349830 0.0685470
v 0.0579318 -0.0930175 0.0978309
v 0.0579318 -0.0930175 0.0978309
v -0.0134242 0.0358567 -0.1623764
v -0.0658629 0.0556571 0.1790097
v -0.0677594 0.0419939 0.1859699
v -0.0677594 0.0419939 0.1859699
v -0.0968261 -0.0539799 0.1905181
v -0.0968261 -0.0539799 0.1905181
v -0.0790961 -0.1160835 -0.0071369
v -0.0790961 -0.1160835 -0.0071369
v -0.0301876 -0.1508233 0.0288086
v -0.0301876 -0.1508233 0.0288086
v -0.1262132 0.0372956 0.0252862
v -0.1236023 0.0373019 0.0161899
v 0.1277223 0.0255906 -0.1508624
v 0.1801190 0.0501956 -0.0862473
v 0.0795230 -0.1030209 0.0779589
v 0.0795230 -0.1030209 0.0779589
v 0.0106728 -0.1472636 0.0254440
v 0.0106728 -0.1472636 0.0254440
v -0.1319603 -0.0894141 0.0702377
v -0.1319603 -0.0894141 0.0702377
v -0.1066130 -0.1222395 0.0395393
v -0.1066130 -0.1222395 0.0395393
v -0.1337412 -0.1002307 0.1280728
v -0.1337412 -0.1002307 0.1280728
v -0.1396932 -0.0832519 0.0959710
v -0.1396932 -0.0832519 0.0959710
v -0.1028779 -0.1349830 0.0685470
v -0.1028779 -0.1349830 0.0685470
v 0.0969640 0.0957770 -0.1648900
v 0.1506163 0.0971033 -0.1365586
v -0.0202850 0.0909411 -0.0876732
v 0.0419302 0.0928179 0.0407453
v -0.0667612 0.0575151 0.0337456
v -0.0333238 0.0732615 -0.1226775
v 0.0206647 0.0793987 -0.1724758
v 0.1753280 0.0871875 -0.0943066
v 0.1800034 0.0632957 -0.0908236
v -0.0340698 0.0734680 0.1380878
v 0.0353477 0.0915104 0.0562045
v 0.1680521 0.1051423 -0.0928413
v 0.0433118 0.0932371 0.0469335
v 0.0521584 0.0951827 0.0366199
v 0.1487409 0.1065812 -0.0723775
v 0.1030159 0.1102284 -0.0240162
v -0.0457374 0.0696956 -0.1206711
v -0.0443978 0.0641340 -0.1210712
v -0.0193710 0.0509776 -0.1575352
v -0.0359084 0.0589477 -0.1332052
v -0.0927285 0.0728987 -0.0453423
v -0.0855209 0.0767149 -0.0582766
v -0.1205974 0.0378149 0.0111458
v -0.0624798 0.0736181 -0.0947236
v 0.0697781 0.0411243 -0.1671838
v 0.0121438 0.0463544 -0.1729549
v -0.0134242 0.0358567 -0.1623764
v 0.0257499 0.0452032 -0.1716756
v -0.0948035 0.0516094 0.1009982
v -0.0665091 0.0553318 0.1774711
v -0.1074798 0.0474867 0.0689528
v -0.0658629 0.0556571 0.1790097
v -0.1262132 0.0372956 0.0252862
v -0.1236023 0.0373019 0.0161899
v 0.1521345 0.0457413 -0.1443755
v 0.1640386 0.0486628 -0.1224351
v 0.1477795 0.0427446 -0.1471596
v 0.1277223 0.0255906 -0.1508624
v 0.1801190 0.0501956 -0.0862473
v 0.0748843 0.0800869 -0.0394754
v 0.1031787 0.0838092 0.0369918
v 0.0622080 0.0759642 -0.0715208
v -0.0945461 -0.0107757 -0.0213054
v -0.0450492 -0.0520218 0.0489455
v -0.0456271 -0.0437888 0.0496049
v -0.0615132 0.0290814 0.0384515
v -0.0410252 -0.0694385 0.0519607
v -0.0899284 0.0239640 -0.0073736
v -0.0653691 0.0433327 0.0350926
v -0.0174955 -0.1100777 0.0617558
v -0.0309335 -0.1091393 0.0603074
v -0.0249132 0.0454222 -0.0936810
v 0.0434746 0.0657731 -0.1151874
v -0.0615132 0.0330728 -0.0813441
v -0.0974617 -0.0149986 -0.0487295
v -0.1027150 -0.0320150 -0.0382693
v -0.0896553 0.0247773 -0.0725409
v -0.0890616 0.0131411 -0.0659921
v 0.0299998 -0.0547744 -0.0445026
v -0.0879742 -0.0653909 -0.0213730
v 0.0341920 -0.0733298 0.0668619
v 0.0256711 -0.0838775 0.0690937
v 0.0615461 -0.0394221 0.0650302
v 0.0202549 -0.0906152 0.0665970
v 0.0025617 -0.1125676 0.0659770
v 0.0359519 -0.0717533 -0.0124008
v 0.0859741 0.0304140 0.0649569
v 0.0674823 -0.0320525 0.0659545
v 0.0728618 -0.0255024 0.0500388
v 0.1024222 0.0834151 0.0542037
v 0.1031945 0.0836778 0.0454738
v 0.1038301 0.0841345 0.0385304
v 0.1019284 0.0704714 0.0454907
v 0.1017130 0.0772779 0.0556183
v -0.0309335 -0.1091393 0.0603074
v 0.0434746 0.0657731 -0.1151874
v -0.1027150 -0.0320150 -0.0382693
v 0.0299998 -0.0547744 -0.0445026
v 0.0299998 -0.0547744 -0.0445026
v -0.0879742 -0.0653909 -0.0213730
v -0.0879742 -0.0653909 -0.0213730
v 0.0025617 -0.1125676 0.0659770
v 0.0359519 -0.0717533 -0.0124008
v 0.0359519 -0.0717533 -0.0124008
v 0.0674823 -0.0320525 0.0659545
v 0.0728618 -0.0255024 0.0500388
v 0.0728618 -0.0255024 0.0500388
v 0.1038301 0.0841345 0.0385304
v 0.1019284 0.0704714 0.0454907
v 0.1017130 0.0772779 0.0556183
v 0.1019284 0.0704714 0.0454907
v -0.0030961 -0.0300506 0.0651373
v 0.0385470 0.0724358 0.0476662
v -0.0829415 0.0281118 -0.0528493
v -0.0630524 0.0451031 0.0367608
v 0.0748843 0.0800869 -0.0394754
v 0.1031787 0.0838092 0.0369918
v 0.0622080 0.0759642 -0.0715208
v -0.0945461 -0.0107757 -0.0213054
v -0.0450492 -0.0520218 0.0489455
v -0.0456271 -0.0437888 0.0496049
v -0.0615132 0.0290814 0.0384515
v -0.0410252 -0.0694385 0.0519607
v -0.0899284 0.0239640 -0.0073736
v -0.0653691 0.0433327 0.0350926
v -0.0174955 -0.1100777 0.0617558
v -0.0309335 -0.1091393 0.0603074
v -0.0249132 0.0454222 -0.0936810
v 0.0434746 0.0657731 -0.1151874
v -0.0615132 0.0330728 -0.0813441
v -0.0974617 -0.0149986 -0.0487295
v -0.1027150 -0.0320150 -0.0382693
v -0.0896553 0.0247773 -0.0725409
v -0.0890616 0.0131411 -0.0659921
v 0.0341920 -0.0733298 0.0668619
v 0.0256711 -0.0838775 0.0690937
v 0.0615461 -0.0394221 0.0650302
v 0.0202549 -0.0906152 0.0665970
v 0.0025617 -0.1125676 0.0659770
v 0.0859741 0.0304140 0.0649569
v 0.0674823 -0.0320525 0.0659545
v 0.1024222 0.0834151 0.0542037
v 0.1031945 0.0836778 0.0454738
v 0.1038301 0.0841345 0.0385304
v 0.1017130 0.0772779 0.0556183
v -0.1068914 -0.1146571 0.0032782
v -0.1142093 -0.0875310 0.0330580
v 0.1279167 0.1401448 -0.0260057
v 0.1292563 0.1345769 -0.0264058
v 0.1542831 0.1214205 -0.0628698
v 0.1377456 0.1293907 -0.0385455
v 0.0809309 0.1433479 0.0493118
v 0.0881384 0.1471641 0.0363832
v 0.0530567 0.1082578 0.1058112
v 0.1111743 0.1440611 -0.0000582
v 0.0063599 0.0945133 0.0770346
v 0.0003343 0.0899714 0.0736925
v -0.1142356 0.0193596 0.0025286
v -0.1139467 0.0353688 -0.0050009
v -0.0797475 0.0559761 0.0164604
v -0.0076455 0.0846225 0.0689471
v -0.1003721 0.0504583 0.0001503
v 0.0296741 0.0997058 0.0959936
v -0.1174244 -0.0540925 0.0353800
v -0.1177816 -0.0759073 0.0456767
v 0.0500518 0.1077448 0.1108497
v 0.0416990 -0.0189649 0.1648975
v 0.0670411 -0.0517903 0.1341990
v 0.0833894 -0.0027492 -0.0691707
v 0.0885114 0.0041074 -0.0679759
v 0.0780048 -0.0070409 -0.0782050
v 0.1098137 0.0352124 -0.0699203
v 0.1510523 0.0923049 -0.0652989
v 0.1398680 0.0803872 -0.0760577
v 0.0489749 -0.0335414 -0.1179264
v 0.1602351 0.1062997 -0.0677110
v 0.0945580 -0.0456343 0.0875229
v -0.1060141 -0.1125551 -0.0029156
v -0.1036449 -0.1115542 -0.0055194
v -0.1229404 -0.0896268 -0.0429865
v -0.1317660 -0.0809496 -0.0574932
v -0.1331318 -0.0797923 -0.0593699
v -0.1292128 -0.0796546 -0.0607113
v -0.0061904 -0.0700767 -0.1128316
v 0.0220200 -0.0735800 -0.1136883
v -0.1054520 -0.0682874 -0.0893189
v -0.0789280 -0.0656224 -0.1017234
v -0.1060404 -0.1079444 -0.0118992
v -0.1068179 -0.1152640 0.0025793
v -0.0256119 -0.1307164 0.0105879
v 0.0145813 -0.1158583 -0.0292970
v -0.1177816 -0.0759073 0.0456767
v 0.0500518 0.1077448 0.1108497
v 0.0416990 -0.0189649 0.1648975
v 0.0416990 -0.0189649 0.1648975
v 0.0670411 -0.0517903 0.1341990
v 0.0670411 -0.0517903 0.1341990
v 0.1602351 0.1062997 -0.0677110
v 0.0945580 -0.0456343 0.0875229
v 0.0945580 -0.0456343 0.0875229
v 0.0220200 -0.0735800 -0.1136883
v -0.1068179 -0.1152640 0.0025793
v -0.0256119 -0.1307164 0.0105879
v -0.0256119 -0.1307164 0.0105879
v 0.0145813 -0.1158583 -0.0292970
v 0.0145813 -0.1158583 -0.0292970
v 0.0589404 0.0766210 -0.0162162
v -0.1025312 0.0105949 -0.0818175
v -0.1127699 0.0320030 -0.0208376
v 0.0403857 0.1150018 -0.0118823
v -0.1050318 -0.0981037 -0.0069283
v -0.0247504 0.0479309 -0.0715096
v 0.1336585 0.1067814 -0.0551769
v -0.0393336 0.0619632 -0.0328814
v -0.0894556 0.0506460 -0.0373619
v -0.1440482 0.0000722 -0.0276739
v -0.1539560 -0.0203537 -0.0603055
v 0.0781571 0.1449870 0.0408806
v -0.0373058 -0.0148922 -0.1159426
v 0.1076913 0.0874315 -0.0733919
v -0.1068914 -0.1146571 0.0032782
v -0.1142093 -0.0875310 0.0330580
v 0.1279167 0.1401448 -0.0260057
v 0.1292563 0.1345769 -0.0264058
v 0.1542831 0.1214205 -0.0628698
v 0.1377456 0.1293907 -0.0385455
v 0.0809309 0.1433479 0.0493118
v 0.0881384 0.1471641 0.0363832
v 0.0530567 0.1082578 0.1058112
v 0.1111743 0.1440611 -0.0000582
v 0.0063599 0.0945133 0.0770346
v 0.0003343 0.0899714 0.0736925
v -0.1142356 0.0193596 0.0025286
v -0.1139467 0.0353688 -0.0050009
v -0.0797475 0.0559761 0.0164604
v -0.0076455 0.0846225 0.0689471
v -0.1003721 0.0504583 0.0001503
v 0.0296741 0.0997058 0.0959936
v -0.1174244 -0.0540925 0.0353800
v -0.1177816 -0.0759073 0.0456767
v 0.0500518 0.1077448 0.1108497
v 0.0833894 -0.0027492 -0.0691707
v 0.0885114 0.0041074 -0.0679759
v 0.0780048 -0.0070409 -0.0782050
v 0.1098137 0.0352124 -0.0699203
v 0.1510523 0.0923049 -0.0652989
v 0.1398680 0.0803872 -0.0760577
v 0.0489749 -0.0335414 -0.1179264
v 0.1602351 0.1062997 -0.0677110
v -0.1060141 -0.1125551 -0.0029156
v -0.1036449 -0.1115542 -0.0055194
v -0.1229404 -0.0896268 -0.0429865
v -0.1317660 -0.0809496 -0.0574932
v -0.1331318 -0.0797923 -0.0593699
v -0.1292128 -0.0796546 -0.0607113
v -0.0061904 -0.0700767 -0.1128316
v 0.0220200 -0.0735800 -0.1136883
v -0.1054520 -0.0682874 -0.0893189
v -0.0789280 -0.0656224 -0.1017234
v -0.1060404 -0.1079444 -0.0118992
v -0.1068179 -0.1152640 0.0025793
v 0.0362513 0.0739497 -0.1365980
v 0.0358836 0.0685945 -0.1362091
v 0.0178699 -0.0317209 -0.1116932
v 0.0289492 0.0119962 -0.1274116
v 0.0311503 0.1484591 -0.1259970
v 0.0356839 0.0755950 -0.1356512
v 0.0347278 0.0781413 -0.1340732
v -0.0462838 -0.1830481 -0.0170616
v -0.0415190 -0.1822348 -0.0244558
v 0.0358520 0.0751696 -0.1359273
v 0.0275833 0.1277578 -0.1211727
v -0.0171225 -0.1533319 -0.0614608
v -0.0064583 -0.1195181 -0.0768805
v 0.0054195 -0.0838524 -0.0941262
v 0.0556466 0.1698922 -0.1196003
v 0.0675559 0.1728200 -0.0976656
v 0.0512916 0.1668956 -0.1223844
v 0.0312344 0.1497478 -0.1260872
v 0.0085242 -0.0604361 0.1021141
v 0.0016266 -0.0800112 0.0944719
v -0.0346319 -0.1467568 0.0620601
v -0.0005378 -0.0892264 0.0914229
v -0.0589443 -0.1703045 0.0448482
v -0.0778510 -0.1859884 0.0320323
v -0.0858046 -0.0231064 0.0502192
v -0.0898654 -0.0470232 0.0556972
v 0.0876762 0.1634235 -0.0465315
v 0.0861842 0.1573426 -0.0392838
v 0.0626335 0.0812630 0.0498529
v 0.0413050 0.0294443 0.1090518
v 0.0836679 0.1484528 -0.0288067
v 0.0867936 0.1675775 -0.0520208
v 0.0836311 0.1743465 -0.0614721
v -0.0169544 0.0211238 0.1027341
v 0.0319173 0.0113581 0.1291606
v -0.0130985 0.0178331 0.1080036
v 0.0312344 0.1497478 -0.1260872
v -0.0778510 -0.1859884 0.0320323
v -0.0858046 -0.0231064 0.0502192
v -0.0858046 -0.0231064 0.0502192
v -0.0898654 -0.0470232 0.0556972
v -0.0898654 -0.0470232 0.0556972
v 0.0836311 0.1743465 -0.0614721
v -0.0169544 0.0211238 0.1027341
v -0.0169544 0.0211238 0.1027341
v 0.0319173 0.0113581 0.1291606
v -0.0130985 0.0178331 0.1080036
v -0.0130985 0.0178331 0.1080036
v 0.0558777 0.1621097 -0.1207895
v 0.0306775 -0.0179764 -0.0679252
v -0.0088748 -0.1420523 0.0229360
v 0.0406588 0.0466546 -0.1174474
v 0.0375436 0.0751634 -0.1354652
v 0.0559250 0.0638149 -0.0808313
v 0.0362513 0.0739497 -0.1365980
v 0.0358836 0.0685945 -0.1362091
v 0.0178699 -0.0317209 -0.1116932
v 0.0289492 0.0119962 -0.1274116
v 0.0311503 0.1484591 -0.1259970
v 0.0356839 0.0755950 -0.1356512
v 0.0347278 0.0781413 -0.1340732
v -0.0462838 -0.1830481 -0.0170616
v -0.0415190 -0.1822348 -0.0244558
v 0.0358520 0.0751696 -0.1359273
v 0.0275833 0.1277578 -0.1211727
v -0.0171225 -0.1533319 -0.0614608
v -0.0064583 -0.1195181 -0.0768805
v 0.0054195 -0.0838524 -0.0941262
v 0.0556466 0.1698922 -0.1196003
v 0.0675559 0.1728200 -0.0976656
v 0.0512916 0.1668956 -0.1223844
v 0.0312344 0.1497478 -0.1260872
v 0.0085242 -0.0604361 0.1021141
v 0.0016266 -0.0800112 0.0944719
v -0.0346319 -0.1467568 0.0620601
v -0.0005378 -0.0892264 0.0914229
v -0.0589443 -0.1703045 0.0448482
v -0.0778510 -0.1859884 0.0320323
v 0.0876762 0.1634235 -0.0465315
v 0.0861842 0.1573426 -0.0392838
v 0.0626335 0.0812630 0.0498529
v 0.0413050 0.0294443 0.1090518
v 0.0836679 0.1484528 -0.0288067
v 0.0867936 0.1675775 -0.0520208
v 0.0836311 0.1743465 -0.0614721
v 0.0319173 0.0113581 0.1291606
v 0.0306775 -0.0179764 -0.0679252
v 0.0559250 0.0638149 -0.0808313
v 0.0054195 -0.0838524 -0.0941262
v 0.0876762 0.1634235 -0.0465315
v -0.0540692 0.0792611 0.0321112
v -0.0644340 0.0615002 -0.0253069
v -0.0586501 0.0380776 -0.1110394
v -0.0619860 0.0503958 -0.0657948
v -0.0592437 0.0416310 -0.0981784
v -0.0102774 -0.0118017 0.1406859
v -0.0372375 -0.0263157 0.1400998
v -0.0901648 -0.0561132 0.1362561
v -0.0799261 -0.0502325 0.1372480
v -0.0056335 -0.0087801 0.1418581
v -0.0832777 -0.1284079 -0.0202290
v -0.0854684 -0.1132996 0.0132875
v -0.0594696 -0.1305099 -0.0504653
v -0.0911945 -0.0658226 0.1173760
v -0.0893978 -0.0914598 0.0625730
v 0.0581052 0.0247648 0.1416665
v -0.0477862 -0.0086737 -0.1524235
v -0.0598846 -0.0898770 -0.0889807
v -0.0625166 -0.1022076 -0.0793039
v -0.0589706 -0.1328247 -0.0557799
v 0.0094803 -0.1077317 -0.0785318
v -0.0578726 0.0372268 -0.1144322
v -0.0543003 0.0256094 -0.1270509
v -0.0469825 -0.0015168 -0.1568364
v -0.0469089 -0.0021236 -0.1575352
v 0.0342918 -0.0175760 -0.1495210
v 0.1016080 0.0941692 0.0047886
v 0.1269500 0.0613438 -0.0259099
v 0.0463745 0.0450281 0.1367859
v 0.0938698 0.1003314 0.0305163
v 0.0667049 0.0298009 0.1426922
v 0.0664317 0.0425382 0.1410015
v 0.1186550 0.0056464 0.0363775
v 0.1306852 0.0486003 0.0030978
v 0.0998271 0.0833525 0.0626181
v -0.0517420 0.0837592 0.0468095
v -0.0545157 0.0740248 0.0571457
v -0.0557293 0.0630830 0.0697192
v -0.0717729 0.0120463 0.1231358
v -0.0240990 0.0897149 0.0536458
v -0.0214092 0.0301950 0.1267935
v -0.0002593 0.0325473 0.1346781
v 0.0329365 0.0459665 0.1353318
v -0.0589706 -0.1328247 -0.0557799
v 0.0094803 -0.1077317 -0.0785318
v 0.0094803 -0.1077317 -0.0785318
v -0.0578726 0.0372268 -0.1144322
v -0.0469089 -0.0021236 -0.1575352
v 0.0342918 -0.0175760 -0.1495210
v 0.0342918 -0.0175760 -0.1495210
v 0.1016080 0.0941692 0.0047886
v 0.1016080 0.0941692 0.0047886
v 0.1269500 0.0613438 -0.0259099
v 0.1269500 0.0613438 -0.0259099
v 0.0938698 0.1003314 0.0305163
v 0.0938698 0.1003314 0.0305163
v 0.0667049 0.0298009 0.1426922
v 0.0664317 0.0425382 0.1410015
v 0.1186550 0.0056464 0.0363775
v 0.1186550 0.0056464 0.0363775
v 0.1306852 0.0486003 0.0030978
v 0.1306852 0.0486003 0.0030978
v 0.0998271 0.0833525 0.0626181
v 0.0998271 0.0833525 0.0626181
v -0.0517420 0.0837592 0.0468095
v -0.0240990 0.0897149 0.0536458
v -0.0240990 0.0897149 0.0536458
v 0.0329365 0.0459665 0.1353318
v -0.0710952 0.0286936 0.0369468
v -0.0590283 0.0310521 -0.1064518
v -0.0882999 -0.0327344 0.1329817
v -0.0685789 -0.0623567 -0.0654172
v -0.0540692 0.0792611 0.0321112
v -0.0644340 0.0615002 -0.0253069
v -0.0586501 0.0380776 -0.1110394
v -0.0619860 0.0503958 -0.0657948
v -0.0592437 0.0416310 -0.0981784
v -0.0102774 -0.0118017 0.1406859
v -0.0372375 -0.0263157 0.1400998
v -0.0901648 -0.0561132 0.1362561
v -0.0799261 -0.0502325 0.1372480
v -0.0056335 -0.0087801 0.1418581
v -0.0832777 -0.1284079 -0.0202290
v -0.0854684 -0.1132996 0.0132875
v -0.0594696 -0.1305099 -0.0504653
v -0.0911945 -0.0658226 0.1173760
v -0.0893978 -0.0914598 0.0625730
v 0.0581052 0.0247648 0.1416665
v -0.0477862 -0.0086737 -0.1524235
v -0.0598846 -0.0898770 -0.0889807
v -0.0625166 -0.1022076 -0.0793039
v -0.0589706 -0.1328247 -0.0557799
v -0.0578726 0.0372268 -0.1144322
v -0.0543003 0.0256094 -0.1270509
v -0.0469825 -0.0015168 -0.1568364
v -0.0469089 -0.0021236 -0.1575352
v 0.0463745 0.0450281 0.1367859
v 0.0667049 0.0298009 0.1426922
v 0.0664317 0.0425382 0.1410015
v -0.0517420 0.0837592 0.0468095
v -0.0545157 0.0740248 0.0571457
v -0.0557293 0.0630830 0.0697192
v -0.0717729 0.0120463 0.1231358
v -0.0214092 0.0301950 0.1267935
v -0.0002593 0.0325473 0.1346781
v 0.0329365 0.0459665 0.1353318
v 0.0530725 0.0583972 0.0477338
v 0.0485178 0.0591417 0.0494358
v 0.0268741 0.0641715 0.0973180
v 0.0265431 0.0642967 0.0993525
v -0.0206160 0.0706090 0.0819434
v -0.0392128 0.0732741 0.0797285
v 0.0053197 0.0670618 0.0894954
v -0.0607514 0.0417124 0.0773558
v -0.0787809 -0.0260092 0.0733882
v -0.0295204 -0.0689130 -0.0895894
v -0.0618546 -0.0688505 -0.0040315
v -0.0854946 -0.0465540 0.0754847
v -0.0854841 -0.0476363 0.0746337
v -0.0718150 -0.0674992 0.0233362
v -0.0706855 -0.0684376 0.0196278
v -0.0557713 0.0580469 0.0766513
v -0.0851794 -0.0572455 0.0665068
v -0.0509330 0.0748881 0.0767021
v -0.0821745 -0.0368446 0.0741039
v 0.0329365 -0.0455780 -0.1379732
v 0.0049099 -0.0703457 -0.1404529
v 0.0432067 -0.0388278 -0.1385311
v 0.0518432 -0.0290996 -0.1364458
v -0.0084598 -0.0724540 -0.1355272
v -0.0141386 -0.0717470 -0.1324275
v -0.0058909 0.0633395 -0.0512261
v 0.0738704 0.0117522 -0.0479179
v 0.0728670 0.0076233 -0.0637434
v 0.0743957 0.0307330 0.0120363
v 0.0768333 0.0342489 0.0304430
v 0.0585307 0.0574776 0.0447411
v 0.0730719 -0.0169942 -0.1387565
v 0.0215262 0.0586850 -0.0669896
v -0.0509330 0.0748881 0.0767021
v -0.0141386 -0.0717470 -0.1324275
v -0.0058909 0.0633395 -0.0512261
v -0.0058909 0.0633395 -0.0512261
v 0.0585307 0.0574776 0.0447411
v 0.0730719 -0.0169942 -0.1387565
v 0.0215262 0.0586850 -0.0669896
v 0.0215262 0.0586850 -0.0669896
v -0.0736273 -0.0471170 0.0751015
v 0.0091441 -0.0524034 0.0468659
v -0.0055757 -0.0025365 0.0932996
v -0.0170122 -0.0392282 0.0579459
v -0.0471873 0.0204982 0.0813685
v -0.0098362 -0.0712590 -0.0966849
v 0.0083929 -0.0548933 -0.0267496
v -0.0132193 -0.0710589 0.0238096
v -0.0396068 -0.0598918 0.0643877
v 0.0530725 0.0583972 0.0477338
v 0.0485178 0.0591417 0.0494358
v 0.0268741 0.0641715 0.0973180
v 0.0265431 0.0642967 0.0993525
v -0.0206160 0.0706090 0.0819434
v -0.0392128 0.0732741 0.0797285
v 0.0053197 0.0670618 0.0894954
v -0.0607514 0.0417124 0.0773558
v -0.0787809 -0.0260092 0.0733882
v -0.0295204 -0.0689130 -0.0895894
v -0.0618546 -0.0688505 -0.0040315
v -0.0854946 -0.0465540 0.0754847
v -0.0854841 -0.0476363 0.0746337
v -0.0718150 -0.0674992 0.0233362
v -0.0706855 -0.0684376 0.0196278
v -0.0557713 0.0580469 0.0766513
v -0.0851794 -0.0572455 0.0665068
v -0.0509330 0.0748881 0.0767021
v -0.0821745 -0.0368446 0.0741039
v 0.0329365 -0.0455780 -0.1379732
v 0.0049099 -0.0703457 -0.1404529
v 0.0432067 -0.0388278 -0.1385311
v 0.0518432 -0.0290996 -0.1364458
v -0.0084598 -0.0724540 -0.1355272
v -0.0141386 -0.0717470 -0.1324275
v 0.0738704 0.0117522 -0.0479179
v 0.0728670 0.0076233 -0.0637434
v 0.0743957 0.0307330 0.0120363
v 0.0768333 0.0342489 0.0304430
v 0.0585307 0.0574776 0.0447411
v 0.0730719 -0.0169942 -0.1387565
v 0.0091441 -0.0524034 0.0468659
v -0.0098362 -0.0712590 -0.0966849
v 0.0083929 -0.0548933 -0.0267496
v -0.0396068 -0.0598918 0.0643877
v -0.0851794 -0.0572455 0.0665068
v -0.0084598 -0.0724540 -0.1355272
v -0.0560339 -0.0483995 0.0737545
v -0.0663988 -0.0661604 0.0163365
v -0.0606149 -0.0895830 -0.0693905
v -0.0639507 -0.0772648 -0.0241515
v -0.0612085 -0.0860295 -0.0565351
v 0.0642988 0.0799930 -0.0414310
v 0.0582733 0.0754512 -0.0447731
v -0.0562914 0.0048393 -0.1159370
v -0.0560024 0.0208423 -0.1234721
v -0.0218032 0.0414496 -0.1019995
v 0.0502935 0.0700960 -0.0495185
v -0.0424278 0.0359381 -0.1183209
v 0.0876184 0.0851793 -0.0224720
v -0.0594801 -0.0686127 -0.0830856
v -0.0598374 -0.0904338 -0.0727889
v 0.1079960 0.0932245 -0.0076103
v 0.0996432 -0.0334914 0.0464263
v -0.0277448 0.0522225 0.0441212
v 0.0003973 0.0605180 0.0353236
v -0.0271511 0.0405863 0.0506701
v 0.0369920 0.0728674 0.0229811
v 0.1053851 0.0932183 0.0014860
v -0.0355512 0.0124467 0.0679383
v 0.0919051 -0.0273292 0.0721596
v -0.0408045 -0.0045697 0.0783984
v -0.0537067 -0.0439014 0.0884528
v -0.0260637 -0.0379457 0.0952891
v -0.0598374 -0.0904338 -0.0727889
v 0.1079960 0.0932245 -0.0076103
v 0.0996432 -0.0334914 0.0464263
v 0.0996432 -0.0334914 0.0464263
v 0.1053851 0.0932183 0.0014860
v 0.0919051 -0.0273292 0.0721596
v 0.0919051 -0.0273292 0.0721596
v -0.0408045 -0.0045697 0.0783984
v -0.0537067 -0.0439014 0.0884528
v -0.0260637 -0.0379457 0.0952891
v -0.0260637 -0.0379457 0.0952891
v 0.0543648 0.0730113 -0.0364264
v -0.0611665 0.0356190 -0.0539313
v -0.0620490 -0.0447585 -0.0242642
v -0.0560339 -0.0483995 0.0737545
v -0.0663988 -0.0661604 0.0163365
v -0.0606149 -0.0895830 -0.0693905
v -0.0639507 -0.0772648 -0.0241515
v -0.0612085 -0.0860295 -0.0565351
v 0.0642988 0.0799930 -0.0414310
v 0.0582733 0.0754512 -0.0447731
v -0.0562914 0.0048393 -0.1159370
v -0.0560024 0.0208423 -0.1234721
v -0.0218032 0.0414496 -0.1019995
v 0.0502935 0.0700960 -0.0495185
v -0.0424278 0.0359381 -0.1183209
v 0.0876184 0.0851793 -0.0224720
v -0.0594801 -0.0686127 -0.0830856
v -0.0598374 -0.0904338 -0.0727889
v 0.1079960 0.0932245 -0.0076103
v -0.0277448 0.0522225 0.0441212
v 0.0003973 0.0605180 0.0353236
v -0.0271511 0.0405863 0.0506701
v 0.0369920 0.0728674 0.0229811
v 0.1053851 0.0932183 0.0014860
v -0.0355512 0.0124467 0.0679383
v -0.0408045 -0.0045697 0.0783984
v -0.0537067 -0.0439014 0.0884528
v -0.0195391 0.0013109 0.0860914
v -0.0290161 -0.0103190 0.0892700
v 0.0607003 0.0260911 -0.0224946
v 0.0537974 0.0065222 -0.0301368
v 0.0175442 -0.0602297 -0.0625486
v 0.0516383 -0.0026929 -0.0331858
v -0.0067682 -0.0837774 -0.0797605
v 0.0473516 0.0540555 0.0909157
v 0.0260546 0.0461291 0.1003783
v 0.0777368 0.0800931 0.0486693
v 0.0659589 0.0684945 0.0679834
v 0.0758404 0.0735493 0.0609048
v -0.0261057 -0.0709400 -0.0001540
v -0.0271091 -0.0750752 -0.0159852
v -0.0255804 -0.0519529 0.0597945
v -0.0231428 -0.0484433 0.0782068
v -0.0414454 -0.0252084 0.0924993
v -0.0256697 -0.0994612 -0.0925764
v -0.0376893 0.0394977 -0.0689114
v 0.0823703 0.0960210 0.0124872
v 0.0816296 0.0932496 0.0240914
v 0.0840934 0.0978790 0.0045519
v 0.0407797 0.1008632 -0.0022844
v 0.0390776 0.1043665 -0.0166051
v -0.0259639 -0.0995926 -0.0924524
v -0.0269095 -0.0996865 -0.0909983
v -0.0784499 -0.0240072 -0.0192258
v -0.0518365 0.0221685 -0.0642337
v 0.0260546 0.0461291 0.1003783
v -0.0414454 -0.0252084 0.0924993
v -0.0256697 -0.0994612 -0.0925764
v -0.0376893 0.0394977 -0.0689114
v -0.0376893 0.0394977 -0.0689114
v 0.0816296 0.0932496 0.0240914
v 0.0840934 0.0978790 0.0045519
v 0.0407797 0.1008632 -0.0022844
v 0.0407797 0.1008632 -0.0022844
v 0.0390776 0.1043665 -0.0166051
v 0.0390776 0.1043665 -0.0166051
v -0.0259639 -0.0995926 -0.0924524
v -0.0269095 -0.0996865 -0.0909983
v -0.0784499 -0.0240072 -0.0192258
v -0.0784499 -0.0240072 -0.0192258
v -0.0518365 0.0221685 -0.0642337
v -0.0518365 0.0221685 -0.0642337
v -0.0228329 -0.0676118 -0.0012136
v -0.0026969 -0.0222681 0.0732473
v 0.0504300 0.0254342 0.0525975
v 0.0527363 0.0042513 -0.0241853
v 0.0737496 0.0674935 0.0505404
v -0.0195391 0.0013109 0.0860914
v -0.0290161 -0.0103190 0.0892700
v 0.0607003 0.0260911 -0.0224946
v 0.0537974 0.0065222 -0.0301368
v 0.0175442 -0.0602297 -0.0625486
v 0.0516383 -0.0026929 -0.0331858
v -0.0067682 -0.0837774 -0.0797605
v 0.0473516 0.0540555 0.0909157
v 0.0260546 0.0461291 0.1003783
v 0.0777368 0.0800931 0.0486693
v 0.0659589 0.0684945 0.0679834
v 0.0758404 0.0735493 0.0609048
v -0.0261057 -0.0709400 -0.0001540
v -0.0271091 -0.0750752 -0.0159852
v -0.0255804 -0.0519529 0.0597945
v -0.0231428 -0.0484433 0.0782068
v -0.0414454 -0.0252084 0.0924993
v -0.0256697 -0.0994612 -0.0925764
v 0.0823703 0.0960210 0.0124872
v 0.0816296 0.0932496 0.0240914
v 0.0840934 0.0978790 0.0045519
v -0.0259639 -0.0995926 -0.0924524
v -0.0269095 -0.0996865 -0.0909983
v 0.0069115 -0.1115354 0.0140765
v -0.0199015 -0.1152953 -0.0003344
v -0.0585030 -0.1139752 -0.0172363
v -0.1272376 -0.0397161 -0.0061111
v 0.0886743 -0.0863799 -0.0263833
v 0.0700880 -0.1106283 -0.0571551
v 0.1012770 -0.0743182 -0.0075201
v 0.0635896 -0.1120234 -0.0646789
v 0.0575220 -0.1108097 -0.0705515
v 0.0353740 -0.1091643 -0.0932696
v -0.1024261 0.0504333 -0.0771003
v -0.0622276 0.0652976 -0.1169909
v 0.0741068 -0.0873496 0.0165901
v 0.0460750 -0.1121172 0.0141103
v 0.0327053 -0.1142317 0.0190360
v 0.0270265 -0.1135248 0.0221357
v 0.0930135 -0.0708712 0.0181174
v 0.0843771 -0.0806056 0.0160321
v 0.1142370 -0.0587720 0.0158067
v 0.1151826 -0.0586782 0.0143526
v -0.0097679 0.1293594 0.0465052
v 0.0177438 0.1355153 -0.0001653
v -0.0060328 0.1166159 0.0755129
v -0.0180629 0.0736557 0.1087982
v 0.0352742 0.0215680 0.1033371
v 0.0893099 0.0630892 0.0425713
v 0.0666523 0.1007756 0.0357801
v 0.0626966 0.0169072 0.0875736
v -0.0585030 -0.1139752 -0.0172363
v -0.1272376 -0.0397161 -0.0061111
v -0.1272376 -0.0397161 -0.0061111
v 0.0353740 -0.1091643 -0.0932696
v -0.1024261 0.0504333 -0.0771003
v -0.1024261 0.0504333 -0.0771003
v -0.0622276 0.0652976 -0.1169909
v -0.0622276 0.0652976 -0.1169909
v 0.0270265 -0.1135248 0.0221357
v 0.1142370 -0.0587720 0.0158067
v 0.1151826 -0.0586782 0.0143526
v -0.0097679 0.1293594 0.0465052
v -0.0097679 0.1293594 0.0465052
v 0.0177438 0.1355153 -0.0001653
v 0.0177438 0.1355153 -0.0001653
v -0.0060328 0.1166159 0.0755129
v -0.0060328 0.1166159 0.0755129
v -0.0180629 0.0736557 0.1087982
v -0.0180629 0.0736557 0.1087982
v 0.0352742 0.0215680 0.1033371
v 0.0352742 0.0215680 0.1033371
v 0.0893099 0.0630892 0.0425713
v 0.0893099 0.0630892 0.0425713
v 0.0666523 0.1007756 0.0357801
v 0.0666523 0.1007756 0.0357801
v 0.0626966 0.0169072 0.0875736
v 0.0626966 0.0169072 0.0875736
v 0.0336404 -0.1150450 -0.0073059
v 0.0885429 -0.0786850 0.0026582
v 0.0069115 -0.1115354 0.0140765
v -0.0199015 -0.1152953 -0.0003344
v -0.0585030 -0.1139752 -0.0172363
v 0.0886743 -0.0863799 -0.0263833
v 0.0700880 -0.1106283 -0.0571551
v 0.1012770 -0.0743182 -0.0075201
v 0.0635896 -0.1120234 -0.0646789
v 0.0575220 -0.1108097 -0.0705515
v 0.0353740 -0.1091643 -0.0932696
v 0.0741068 -0.0873496 0.0165901
v 0.0460750 -0.1121172 0.0141103
v 0.0327053 -0.1142317 0.0190360
v 0.0270265 -0.1135248 0.0221357
v 0.0930135 -0.0708712 0.0181174
v 0.0843771 -0.0806056 0.0160321
v 0.1142370 -0.0587720 0.0158067
v 0.1151826 -0.0586782 0.0143526
v 0.0336404 -0.1150450 -0.0073059
v 0.0635896 -0.1120234 -0.0646789
v 0.0327053 -0.1142317 0.0190360
v 0.0336351 -0.1241038 0.0603355
v 0.0394979 -0.1071812 0.0914567
v 0.0102158 -0.0785348 0.1077218
v -0.1171354 0.0064471 0.1184074
v -0.0763801 -0.0128652 0.1269569
v -0.0516001 -0.0276608 0.1275149
v -0.0151210 -0.0631825 0.1074907
v -0.0452489 -0.0346425 0.1228202
v -0.1592251 0.0285247 0.1128391
v 0.0791447 0.0690950 -0.1788274
v 0.0838202 0.0452095 -0.1753389
v -0.1302530 0.0553818 0.0535669
v -0.0608302 0.0734179 -0.0283108
v 0.0718689 0.0870561 -0.1773565
v -0.0528662 0.0751509 -0.0375817
v -0.0440143 0.0770965 -0.0478897
v 0.0525576 0.0884950 -0.1568984
v 0.0068379 0.0921360 -0.1085315
v -0.0382462 -0.1111037 0.0133100
v -0.1641580 0.0307143 0.1115823
v -0.1634488 0.0368452 0.1101621
v -0.1620409 0.0375709 0.0944888
v -0.1626765 0.0371142 0.1014322
v -0.1639426 0.0239077 0.1014547
v 0.0304937 -0.1327496 0.0278110
v 0.0297529 -0.1355210 0.0394096
v -0.0110917 -0.1279074 0.0130338
v 0.0839358 0.0321031 -0.1707625
v 0.0870983 0.0253341 -0.1613112
v 0.0879808 0.0211801 -0.1558219
v 0.0864889 0.0150930 -0.1485742
v 0.0839673 0.0062157 -0.1380972
v 0.0629382 -0.0609741 -0.0594319
v 0.0416097 -0.1127928 -0.0002386
v -0.0166550 -0.1211134 -0.0065507
v 0.0322220 -0.1308915 0.0198701
v -0.0127938 -0.1244040 -0.0012869
v -0.0382462 -0.1111037 0.0133100
v -0.0382462 -0.1111037 0.0133100
v -0.1641580 0.0307143 0.1115823
v -0.1620409 0.0375709 0.0944888
v -0.1639426 0.0239077 0.1014547
v -0.1639426 0.0239077 0.1014547
v 0.0297529 -0.1355210 0.0394096
v -0.0110917 -0.1279074 0.0130338
v -0.0110917 -0.1279074 0.0130338
v 0.0839358 0.0321031 -0.1707625
v -0.0166550 -0.1211134 -0.0065507
v -0.0166550 -0.1211134 -0.0065507
v 0.0322220 -0.1308915 0.0198701
v -0.0127938 -0.1244040 -0.0012869
v -0.0127938 -0.1244040 -0.0012869
v 0.0504878 0.0989676 -0.0859937
v 0.0503985 -0.0710964 0.0524454
v 0.0699934 0.0856610 -0.0310160
v 0.0812776 -0.0040192 0.0081532
v -0.0593173 0.0098504 0.1205546
v -0.0205004 -0.0051703 0.0942408
v -0.1156067 0.0625262 0.1003106
v 0.0569652 0.0462980 0.0151022
v 0.1005205 0.0605180 -0.1422733
v -0.1626608 0.0369828 0.1102466
v -0.0374687 0.0798179 0.0313447
v 0.0936334 0.0970908 -0.1227676
v 0.1059262 0.0751696 -0.1218884
v 0.0336351 -0.1241038 0.0603355
v 0.0394979 -0.1071812 0.0914567
v 0.0102158 -0.0785348 0.1077218
v -0.1171354 0.0064471 0.1184074
v -0.0763801 -0.0128652 0.1269569
v -0.0516001 -0.0276608 0.1275149
v -0.0151210 -0.0631825 0.1074907
v -0.0452489 -0.0346425 0.1228202
v -0.1592251 0.0285247 0.1128391
v 0.0791447 0.0690950 -0.1788274
v 0.0838202 0.0452095 -0.1753389
v -0.1302530 0.0553818 0.0535669
v -0.0608302 0.0734179 -0.0283108
v 0.0718689 0.0870561 -0.1773565
v -0.0528662 0.0751509 -0.0375817
v -0.0440143 0.0770965 -0.0478897
v 0.0525576 0.0884950 -0.1568984
v 0.0068379 0.0921360 -0.1085315
v -0.1641580 0.0307143 0.1115823
v -0.1634488 0.0368452 0.1101621
v -0.1620409 0.0375709 0.0944888
v -0.1626765 0.0371142 0.1014322
v 0.0304937 -0.1327496 0.0278110
v 0.0297529 -0.1355210 0.0394096
v 0.0839358 0.0321031 -0.1707625
v 0.0870983 0.0253341 -0.1613112
v 0.0879808 0.0211801 -0.1558219
v 0.0864889 0.0150930 -0.1485742
v 0.0839673 0.0062157 -0.1380972
v 0.0629382 -0.0609741 -0.0594319
v 0.0416097 -0.1127928 -0.0002386
v 0.0322220 -0.1308915 0.0198701
v 0.1005205 0.0605180 -0.1422733
v 0.1059262 0.0751696 -0.1218884
v 0.0879808 0.0211801 -0.1558219
v -0.0744574 -0.0484120 0.0675438
v -0.1208653 0.0012233 0.0558889
v 0.0365665 -0.0767581 0.0440198
v 0.0149228 -0.0717283 0.0919019
v 0.0145918 -0.0716031 0.0939365
v -0.0325673 -0.0652908 0.0765273
v -0.0511641 -0.0626257 0.0743125
v -0.0066316 -0.0688380 0.0840794
v 0.0411211 -0.0774963 0.0423177
v -0.0628843 -0.0610054 0.0712860
v -0.0178422 -0.0725540 -0.0566422
v 0.0684910 -0.0518966 0.0329171
v 0.0590087 -0.0635266 0.0360957
v 0.0465793 -0.0784159 0.0393251
v 0.0095749 -0.0772148 -0.0724057
v 0.0797751 -0.0103879 0.0869762
v 0.0194301 0.0295069 0.0834876
v 0.0920101 -0.0068157 0.0689528
v 0.1061469 -0.0068032 0.0547391
v 0.0101790 0.0385781 0.0782068
v 0.1140899 -0.0070722 0.0472040
v -0.1231347 0.0037007 0.0551280
v -0.0711846 -0.0204663 -0.0511810
v 0.0361883 -0.0310328 -0.1174079
v 0.0503407 -0.0137036 -0.1220857
v 0.0135306 0.0066536 -0.1241991
v -0.0591492 0.0224876 -0.0844664
v 0.0543963 0.0102133 -0.1275637
v -0.0917724 0.0556633 0.0543221
v -0.1002933 0.0451157 0.0565539
v -0.0644130 0.0895773 0.0524904
v -0.0584820 0.0969406 0.0534147
v -0.0531026 0.1034907 0.0374991
v -0.1057094 0.0383779 0.0540572
v -0.1234079 0.0164318 0.0534373
v -0.0900125 0.0572461 -0.0249405
v 0.1016553 0.0644531 -0.0551825
v 0.1288097 0.0476556 -0.0554587
v 0.1271076 0.0511527 -0.0697850
v 0.1232464 0.0544497 -0.0750489
v -0.0628843 -0.0610054 0.0712860
v -0.0178422 -0.0725540 -0.0566422
v -0.0178422 -0.0725540 -0.0566422
v 0.0465793 -0.0784159 0.0393251
v 0.0095749 -0.0772148 -0.0724057
v 0.0095749 -0.0772148 -0.0724057
v 0.1140899 -0.0070722 0.0472040
v -0.1231347 0.0037007 0.0551280
v -0.0711846 -0.0204663 -0.0511810
v -0.0711846 -0.0204663 -0.0511810
v 0.0361883 -0.0310328 -0.1174079
v 0.0361883 -0.0310328 -0.1174079
v 0.0503407 -0.0137036 -0.1220857
v 0.0503407 -0.0137036 -0.1220857
v 0.0135306 0.0066536 -0.1241991
v 0.0135306 0.0066536 -0.1241991
v -0.0591492 0.0224876 -0.0844664
v -0.0591492 0.0224876 -0.0844664
v 0.0543963 0.0102133 -0.1275637
v 0.0543963 0.0102133 -0.1275637
v -0.0584820 0.0969406 0.0534147
v -0.0531026 0.1034907 0.0374991
v -0.0531026 0.1034907 0.0374991
v -0.1234079 0.0164318 0.0534373
v -0.0900125 0.0572461 -0.0249405
v -0.0900125 0.0572461 -0.0249405
v 0.1016553 0.0644531 -0.0551825
v 0.1016553 0.0644531 -0.0551825
v 0.1288097 0.0476556 -0.0554587
v 0.1288097 0.0476556 -0.0554587
v 0.1271076 0.0511527 -0.0697850
v 0.1271076 0.0511527 -0.0697850
v 0.1232464 0.0544497 -0.0750489
v 0.1232464 0.0544497 -0.0750489
v 0.0485441 -0.0587783 0.0424643
v 0.0178857 -0.0647465 0.0945564
v -0.0925183 0.0305829 0.0576247
v -0.0744574 -0.0484120 0.0675438
v -0.1208653 0.0012233 0.0558889
v 0.0365665 -0.0767581 0.0440198
v 0.0149228 -0.0717283 0.0919019
v 0.0145918 -0.0716031 0.0939365
v -0.0325673 -0.0652908 0.0765273
v -0.0511641 -0.0626257 0.0743125
v -0.0066316 -0.0688380 0.0840794
v 0.0411211 -0.0774963 0.0423177
v -0.0628843 -0.0610054 0.0712860
v 0.0684910 -0.0518966 0.0329171
v 0.0590087 -0.0635266 0.0360957
v 0.0465793 -0.0784159 0.0393251
v 0.0797751 -0.0103879 0.0869762
v 0.0194301 0.0295069 0.0834876
v 0.0920101 -0.0068157 0.0689528
v 0.1061469 -0.0068032 0.0547391
v 0.0101790 0.0385781 0.0782068
v 0.1140899 -0.0070722 0.0472040
v -0.1231347 0.0037007 0.0551280
v -0.0917724 0.0556633 0.0543221
v -0.1002933 0.0451157 0.0565539
v -0.0644130 0.0895773 0.0524904
v -0.0584820 0.0969406 0.0534147
v -0.1057094 0.0383779 0.0540572
v -0.1234079 0.0164318 0.0534373
v -0.0038789 0.0538553 -0.0426822
v 0.0456127 0.0126093 0.0275631
v 0.0450349 0.0208360 0.0282281
v 0.0291435 0.0937125 0.0170747
v 0.0496315 -0.0048012 0.0305839
v 0.0007388 0.0885951 -0.0287560
v 0.0252929 0.1079638 0.0137158
v -0.0449809 -0.0784285 0.0267346
v 0.0053775 -0.0602797 0.0303866
v 0.0265221 -0.0579212 0.0382712
v -0.0277290 -0.0164500 -0.0392556
v -0.0289425 -0.0273855 -0.0266764
v 0.0597232 -0.0445020 0.0389306
v -0.0120531 0.0326099 -0.0596461
v -0.0249552 -0.0067093 -0.0495917
v 0.0026930 -0.0007536 -0.0427498
v 0.0597232 -0.0445020 0.0389306
v -0.0120531 0.0326099 -0.0596461
v -0.0249552 -0.0067093 -0.0495917
v 0.0026930 -0.0007536 -0.0427498
v 0.0026930 -0.0007536 -0.0427498
v -0.0121319 0.0261912 -0.0202459
v 0.0363984 0.0180458 0.0250720
v -0.0026969 0.0865556 -0.0063817
v -0.0128726 0.0085929 0.0076009
v -0.0038789 0.0538553 -0.0426822
v 0.0456127 0.0126093 0.0275631
v 0.0450349 0.0208360 0.0282281
v 0.0291435 0.0937125 0.0170747
v 0.0496315 -0.0048012 0.0305839
v 0.0007388 0.0885951 -0.0287560
v 0.0252929 0.1079638 0.0137158
v -0.0449809 -0.0784285 0.0267346
v 0.0053775 -0.0602797 0.0303866
v 0.0265221 -0.0579212 0.0382712
v -0.0277290 -0.0164500 -0.0392556
v -0.0289425 -0.0273855 -0.0266764
v 0.0597232 -0.0445020 0.0389306
v -0.0120531 0.0326099 -0.0596461
v -0.0249552 -0.0067093 -0.0495917
v -0.0474395 0.0937501 0.0816616
v -0.0743996 0.0792361 0.0810698
v -0.1273216 0.0494386 0.0772318
v -0.1170881 0.0553192 0.0782237
v -0.0427956 0.0967717 0.0828282
v -0.1204398 -0.0228499 -0.0792532
v -0.1226252 -0.0077416 -0.0457312
v -0.0966264 -0.0249519 -0.1094896
v -0.1283565 0.0397292 0.0583517
v -0.1265599 0.0140857 0.0035487
v 0.0209431 0.1303228 0.0826422
v 0.1064726 -0.0739929 -0.1173629
v 0.0796543 -0.0777528 -0.1317850
v 0.0799800 0.0374770 0.1004797
v 0.0619506 -0.0302445 0.0965121
v 0.1112111 -0.0731421 -0.0664655
v 0.0788768 -0.0730858 0.0190811
v 0.0552316 -0.0507893 0.0986086
v 0.0552421 -0.0518653 0.0977576
v 0.0689113 -0.0717345 0.0464601
v 0.0700407 -0.0726729 0.0427517
v 0.0849549 0.0538115 0.0997752
v 0.0555468 -0.0614809 0.0896307
v 0.0585569 -0.0410737 0.0972278
v 0.1265876 -0.0759824 -0.1093036
v 0.0006390 -0.0780093 -0.1368065
v 0.0219780 -0.0767331 -0.1431300
v -0.0926129 -0.0527224 -0.1128204
v -0.0913311 -0.0691320 -0.1112592
v -0.0961326 -0.0272666 -0.1148042
v -0.0189559 -0.0769708 -0.1312609
v -0.0888042 -0.0699077 -0.1118961
v 0.0410528 -0.0764328 -0.1486813
v -0.0276765 -0.0021737 -0.1375561
v 0.0318122 0.1328815 0.0844288
v 0.0295481 0.1353589 0.0836680
v 0.0782254 0.0832524 0.0960838
v 0.0897932 0.0706590 0.0998260
v 0.1348405 0.0591041 -0.0281022
v 0.0814930 0.1111981 -0.0226467
v 0.1265876 -0.0759824 -0.1093036
v -0.0961326 -0.0272666 -0.1148042
v 0.0410528 -0.0764328 -0.1486813
v -0.0276765 -0.0021737 -0.1375561
v -0.0276765 -0.0021737 -0.1375561
v 0.0295481 0.1353589 0.0836680
v 0.0897932 0.0706590 0.0998260
v 0.1348405 0.0591041 -0.0281022
v 0.1348405 0.0591041 -0.0281022
v 0.0814930 0.1111981 -0.0226467
v 0.0814930 0.1111981 -0.0226467
v -0.0131878 -0.0583028 -0.0216210
v -0.0063059 -0.0781595 -0.1205922
v -0.0445869 0.0829834 0.0852235
v -0.0906534 -0.0696450 -0.0996888
v -0.1331318 -0.0233816 0.0874384
v -0.0691515 -0.0448648 0.1026608
v -0.0392128 -0.0559756 0.0940436
v -0.1289922 -0.0612744 -0.0529676
v 0.0240898 0.1248863 0.0839554
v -0.1132217 -0.0687504 0.0296032
v -0.1360527 -0.0482431 0.0168380
v 0.0657593 -0.0724790 0.0424417
v -0.1147767 -0.0692258 -0.0164755
v -0.0595694 -0.0584217 0.0683779
v -0.0474395 0.0937501 0.0816616
v -0.0743996 0.0792361 0.0810698
v -0.1273216 0.0494386 0.0772318
v -0.1170881 0.0553192 0.0782237
v -0.0427956 0.0967717 0.0828282
v -0.1204398 -0.0228499 -0.0792532
v -0.1226252 -0.0077416 -0.0457312
v -0.0966264 -0.0249519 -0.1094896
v -0.1283565 0.0397292 0.0583517
v -0.1265599 0.0140857 0.0035487
v 0.0209431 0.1303228 0.0826422
v 0.1064726 -0.0739929 -0.1173629
v 0.0796543 -0.0777528 -0.1317850
v 0.0799800 0.0374770 0.1004797
v 0.0619506 -0.0302445 0.0965121
v 0.1112111 -0.0731421 -0.0664655
v 0.0788768 -0.0730858 0.0190811
v 0.0552316 -0.0507893 0.0986086
v 0.0552421 -0.0518653 0.0977576
v 0.0689113 -0.0717345 0.0464601
v 0.0700407 -0.0726729 0.0427517
v 0.0849549 0.0538115 0.0997752
v 0.0555468 -0.0614809 0.0896307
v 0.0585569 -0.0410737 0.0972278
v 0.1265876 -0.0759824 -0.1093036
v 0.0006390 -0.0780093 -0.1368065
v 0.0219780 -0.0767331 -0.1431300
v -0.0926129 -0.0527224 -0.1128204
v -0.0913311 -0.0691320 -0.1112592
v -0.0961326 -0.0272666 -0.1148042
v -0.0189559 -0.0769708 -0.1312609
v -0.0888042 -0.0699077 -0.1118961
v 0.0410528 -0.0764328 -0.1486813
v 0.0318122 0.1328815 0.0844288
v 0.0295481 0.1353589 0.0836680
v 0.0782254 0.0832524 0.0960838
v 0.0897932 0.0706590 0.0998260
v -0.0906534 -0.0696450 -0.0996888
v -0.0392128 -0.0559756 0.0940436
v -0.1132217 -0.0687504 0.0296032
v -0.1147767 -0.0692258 -0.0164755
v -0.0595694 -0.0584217 0.0683779
v 0.0555468 -0.0614809 0.0896307
v -0.0888042 -0.0699077 -0.1118961
v 0.1639755 -0.0695386 -0.0518968
v 0.1483679 -0.0846282 0.0109937
v 0.1575139 -0.0844593 -0.0123951
v 0.1065198 0.0314900 -0.0632700
v 0.1160441 0.0155622 -0.0626726
v 0.1655410 -0.0815878 -0.0371647
v 0.1277013 -0.0068720 -0.0573410
v 0.0702929 0.1038535 -0.0838859
v 0.1649736 -0.0817379 -0.0354965
v 0.1442177 -0.0854102 0.0227050
v -0.0739898 0.0923424 0.0253594
v -0.0716153 0.0933497 0.0227613
v 0.0258287 0.1348272 -0.0845509
v -0.0469037 0.1392815 -0.0734370
v -0.0909161 0.1152771 -0.0147058
v -0.0997364 0.1239542 -0.0292069
v -0.1011075 0.1251115 -0.0310836
v -0.0971885 0.1252492 -0.0324249
v 0.0540443 0.1313238 -0.0854019
v -0.0734277 0.1366164 -0.0610325
v -0.0740108 0.0969594 0.0163815
v 0.0466109 0.0890455 -0.0010107
v -0.0756656 0.0830835 0.0359718
v -0.0747936 0.0896336 0.0308600
v -0.0877641 0.0018865 0.0994145
v -0.0904012 -0.0104442 0.1090913
v 0.0064176 0.0741812 0.0388742
v 0.0099111 -0.0917976 0.1106130
v 0.0312554 -0.0905276 0.1042952
v -0.0833355 -0.0665107 0.1345992
v -0.0820537 -0.0829203 0.1361603
v -0.0868500 -0.0410612 0.1326153
v -0.0096733 -0.0907654 0.1161587
v -0.0795268 -0.0836960 0.1355234
v 0.0503355 -0.0902273 0.0987382
v -0.0183938 -0.0159682 0.1098634
v 0.1442177 -0.0854102 0.0227050
v 0.0540443 0.1313238 -0.0854019
v 0.0466109 0.0890455 -0.0010107
v 0.0466109 0.0890455 -0.0010107
v -0.0747936 0.0896336 0.0308600
v 0.0064176 0.0741812 0.0388742
v 0.0064176 0.0741812 0.0388742
v -0.0868500 -0.0410612 0.1326153
v 0.0503355 -0.0902273 0.0987382
v -0.0183938 -0.0159682 0.1098634
v -0.0183938 -0.0159682 0.1098634
v -0.0990009 0.1191058 -0.0309878
v -0.0830518 0.0087681 -0.0281304
v -0.0879637 -0.0264533 0.1035118
v -0.0392338 -0.0839463 -0.0343749
v -0.0690097 -0.0851850 0.0660954
v -0.0355775 -0.0022362 -0.0722591
v -0.0411828 0.0585536 -0.0907391
v -0.0820589 0.0501956 -0.0573072
v -0.0326356 -0.0773712 -0.0552220
v 0.1639755 -0.0695386 -0.0518968
v 0.0933865 -0.0341232 -0.0492367
v -0.0745782 0.1055489 -0.0639857
v -0.0857415 -0.0801364 0.0732360
v 0.0464690 -0.0909843 0.0252411
v 0.0750892 -0.0856667 -0.0290660
v -0.0543319 -0.0741744 0.0403565
v 0.0524526 0.0876129 -0.0818908
v -0.0679905 -0.0745247 -0.0212998
v 0.1483679 -0.0846282 0.0109937
v 0.1575139 -0.0844593 -0.0123951
v 0.1065198 0.0314900 -0.0632700
v 0.1160441 0.0155622 -0.0626726
v 0.1655410 -0.0815878 -0.0371647
v 0.1277013 -0.0068720 -0.0573410
v 0.0702929 0.1038535 -0.0838859
v 0.1649736 -0.0817379 -0.0354965
v 0.1442177 -0.0854102 0.0227050
v -0.0739898 0.0923424 0.0253594
v -0.0716153 0.0933497 0.0227613
v 0.0258287 0.1348272 -0.0845509
v -0.0469037 0.1392815 -0.0734370
v -0.0909161 0.1152771 -0.0147058
v -0.0997364 0.1239542 -0.0292069
v -0.1011075 0.1251115 -0.0310836
v -0.0971885 0.1252492 -0.0324249
v 0.0540443 0.1313238 -0.0854019
v -0.0734277 0.1366164 -0.0610325
v -0.0740108 0.0969594 0.0163815
v -0.0756656 0.0830835 0.0359718
v -0.0747936 0.0896336 0.0308600
v -0.0877641 0.0018865 0.0994145
v -0.0904012 -0.0104442 0.1090913
v 0.0099111 -0.0917976 0.1106130
v 0.0312554 -0.0905276 0.1042952
v -0.0833355 -0.0665107 0.1345992
v -0.0820537 -0.0829203 0.1361603
v -0.0868500 -0.0410612 0.1326153
v -0.0096733 -0.0907654 0.1161587
v -0.0795268 -0.0836960 0.1355234
v 0.0503355 -0.0902273 0.0987382
v -0.0392338 -0.0839463 -0.0343749
v -0.0690097 -0.0851850 0.0660954
v 0.0750892 -0.0856667 -0.0290660
v -0.0543319 -0.0741744 0.0403565
v 0.1655410 -0.0815878 -0.0371647
v -0.0795268 -0.0836960 0.1355234
v 0.0058660 -0.0892889 0.0538318
v -0.0544790 -0.0493880 0.0503432
v 0.0322325 -0.0856980 0.0216003
v 0.0180905 -0.0857105 0.0358083
v -0.0637301 -0.0403167 0.0450624
v 0.1054902 -0.0105067 -0.0101746
v 0.0762029 0.0181271 0.0060848
v -0.0511484 0.1031091 0.0167704
v -0.0103878 0.0838030 0.0253200
v 0.0143869 0.0690012 0.0258723
v 0.0508661 0.0334794 0.0058538
v 0.0207330 0.0620257 0.0211776
v 0.0996222 -0.0274355 -0.0413014
v -0.0932380 0.1251929 0.0112022
v 0.0277409 -0.0144355 -0.0883213
v -0.1139046 0.0805185 0.0192784
v -0.1323964 0.0180458 0.0202759
v -0.0981657 0.1273825 0.0099454
v -0.1270169 0.0245959 0.0043659
v -0.0979503 0.1205759 -0.0001822
v 0.0918525 -0.0520030 -0.0376437
v 0.0899508 -0.0585530 -0.0254027
v 0.0800746 -0.0636079 -0.0183240
v 0.0614673 -0.0780406 0.0046026
v 0.0401703 -0.0859732 0.0140652
v 0.0957400 -0.0388465 -0.0622217
v 0.0548901 -0.0312392 -0.0886031
v 0.0277409 -0.0144355 -0.0883213
v 0.0277409 -0.0144355 -0.0883213
v -0.1323964 0.0180458 0.0202759
v -0.0981657 0.1273825 0.0099454
v -0.1270169 0.0245959 0.0043659
v -0.1270169 0.0245959 0.0043659
v -0.0979503 0.1205759 -0.0001822
v -0.0979503 0.1205759 -0.0001822
v 0.0401703 -0.0859732 0.0140652
v 0.0957400 -0.0388465 -0.0622217
v 0.0548901 -0.0312392 -0.0886031
v 0.0548901 -0.0312392 -0.0886031
v 0.0406694 -0.0587157 0.0495654
v -0.0532287 0.0267605 0.0413991
v 0.0596286 -0.0609804 0.0274391
v 0.0982406 -0.0344923 0.0157560
v 0.0058660 -0.0892889 0.0538318
v -0.0544790 -0.0493880 0.0503432
v 0.0322325 -0.0856980 0.0216003
v 0.0180905 -0.0857105 0.0358083
v -0.0637301 -0.0403167 0.0450624
v 0.1054902 -0.0105067 -0.0101746
v 0.0762029 0.0181271 0.0060848
v -0.0511484 0.1031091 0.0167704
v -0.0103878 0.0838030 0.0253200
v 0.0143869 0.0690012 0.0258723
v 0.0508661 0.0334794 0.0058538
v 0.0207330 0.0620257 0.0211776
v 0.0996222 -0.0274355 -0.0413014
v -0.0932380 0.1251929 0.0112022
v -0.1139046 0.0805185 0.0192784
v -0.1323964 0.0180458 0.0202759
v -0.0981657 0.1273825 0.0099454
v 0.0918525 -0.0520030 -0.0376437
v 0.0899508 -0.0585530 -0.0254027
v 0.0800746 -0.0636079 -0.0183240
v 0.0614673 -0.0780406 0.0046026
v 0.0401703 -0.0859732 0.0140652
v 0.0957400 -0.0388465 -0.0622217
f 22 29 21
f 28 7 52
f 27 57 58
f 4 51 56
f 25 60 53
f 31 49 68
f 42 47 65
f 75 95 96
f 73 114 115
f 80 73 117
f 72 73 71
f 83 89 132
f 71 73 80
f 133 83 132
f 75 70 81
f 123 88 124
f 81 69 75
f 73 118 117
f 82 125 76
f 100 84 101
f 79 78 85
f 83 133 134
f 80 119 120
f 98 85 96
f 81 88 69
f 71 69 72
f 71 75 69
f 75 71 102
f 77 71 80
f 84 77 99
f 101 84 103
f 83 134 105
f 77 111 112
f 86 79 85
f 111 80 110
f 74 92 93
f 85 78 70
f 85 70 75
f 81 70 88
f 139 132 90
f 82 70 87
f 76 70 82
f 87 70 78
f 132 138 133
f 88 70 76
f 109 83 104
f 89 90 132
f 85 97 86
f 71 100 102
f 106 105 134
f 86 97 107
f 91 108 94
f 140 106 136
f 112 99 77
f 80 116 119
f 72 121 114
f 115 118 73
f 69 122 72
f 76 124 88
f 126 72 122
f 137 128 135
f 93 129 137
f 129 127 137
f 128 141 135
f 126 131 121
f 181 170 182
f 168 169 151
f 193 184 183
f 171 209 195
f 149 143 142
f 180 197 194
f 200 201 203
f 186 196 204
f 198 207 213
f 206 208 214
f 251 223 224
f 221 234 235
f 221 217 216
f 252 217 250
f 218 217 221
f 218 221 232
f 233 221 235
f 226 220 225
f 221 216 222
f 217 227 223
f 237 218 239
f 228 219 226
f 230 218 231
f 218 220 219
f 244 220 246
f 218 219 229
f 251 224 254
f 228 229 219
f 217 230 227
f 232 221 233
f 237 236 220
f 220 236 238
f 241 242 234
f 240 243 222
f 243 241 222
f 244 245 220
f 225 245 247
f 220 248 246
f 216 253 240
f 978 963 974
f 977 976 997
f 971 968 964
f 992 991 1000
f 999 979 998
f 1002 986 987
f 1009 1014 1010
f 1007 1017 1009
f 1012 1008 1014
f 1017 1012 1014
f 1008 1010 1014
f 1011 1023 1024
f 1012 1011 1027
f 1011 1012 1013
f 1017 1013 1012
f 1027 1011 1025
f 1030 1015 1045
f 1009 1017 1014
f 1053 1009 1010
f 1018 1019 1015
f 1017 1007 1035
f 1045 1015 1046
f 1009 1053 1018
f 1007 1009 1018
f 1028 1023 1013
f 1018 1036 1007
f 1022 1021 1008
f 1024 1025 1011
f 1008 1021 1020
f 1012 1026 1022
f 1038 1016 1039
f 1029 1015 1030
f 1013 1040 1041
f 1032 1031 1013
f 1015 1033 1018
f 1017 1034 1032
f 1036 1037 1007
f 1037 1035 1007
f 1041 1039 1016
f 1020 1042 1008
f 1008 1051 1050
f 1047 1053 1048
f 1047 1054 1052
f 1049 1010 1050
f 1010 1049 1048
f 1077 1056 1076
f 1097 1061 1095
f 1096 1104 1081
f 1074 1087 1086
f 1099 1067 1098
f 1082 1094 1126
f 1107 1110 1114
f 1090 1112 1103
f 1113 1122 1128
f 1088 1119 1118
f 1121 1123 1125
f 1130 1145 1146
f 1145 1129 1147
f 1134 1130 1135
f 1135 1130 1136
f 1131 1152 1153
f 1129 1143 1142
f 1140 1129 1134
f 1132 1131 1133
f 1138 1132 1141
f 1129 1144 1143
f 1146 1149 1139
f 1142 1150 1148
f 1148 1147 1129
f 1149 1155 1154
f 1157 1133 1131
f 1154 1152 1131
f 1153 1156 1131
f 1173 1170 1167
f 1178 1162 1174
f 1176 1175 1177
f 1182 1190 1191
f 1180 1182 1191
f 1179 1196 1197
f 1182 1181 1179
f 1180 1184 1185
f 1181 1188 1183
f 1188 1181 1189
f 1180 1181 1182
f 1181 1180 1186
f 1180 1185 1186
f 1187 1184 1180
f 1182 1193 1194
f 1192 1187 1180
f 1194 1190 1182
f 1236 1213 1222
f 1209 1246 1238
f 1199 1207 1206
f 1241 1225 1239
f 1247 1244 1245
f 1250 1288 1289
f 1249 1260 1304
f 1300 1290 1291
f 1249 1278 1279
f 1258 1262 1254
f 1264 1266 1254
f 1270 1290 1300
f 1254 1253 1258
f 1256 1261 1259
f 1250 1303 1252
f 1293 1252 1294
f 1268 1270 1300
f 1301 1254 1262
f 1281 1301 1285
f 1258 1259 1261
f 1249 1304 1302
f 1260 1305 1255
f 1260 1255 1304
f 1269 1259 1272
f 1253 1259 1258
f 1253 1271 1259
f 1249 1250 1275
f 1256 1300 1261
f 1251 1277 1257
f 1250 1302 1303
f 1250 1249 1302
f 1306 1300 1291
f 1254 1286 1251
f 1263 1264 1251
f 1266 1265 1253
f 1267 1263 1251
f 1269 1268 1256
f 1271 1272 1259
f 1273 1296 1297
f 1257 1273 1267
f 1274 1287 1278
f 1276 1257 1277
f 1301 1280 1254
f 1282 1260 1283
f 1276 1284 1298
f 1260 1279 1283
f 1293 1288 1250
f 1275 1289 1295
f 1299 1298 1284
f 1341 1333 1342
f 1313 1346 1343
f 1322 1324 1323
f 1353 1331 1332
f 1336 1352 1350
f 1359 1360 1370
f 1407 1355 1371
f 1364 1374 1375
f 1381 1392 1393
f 1362 1359 1364
f 1357 1368 1369
f 1370 1365 1384
f 1365 1370 1360
f 1362 1355 1359
f 1354 1365 1361
f 1354 1361 1355
f 1359 1355 1361
f 1359 1370 1364
f 1363 1364 1377
f 1356 1394 1392
f 1360 1361 1365
f 1360 1359 1361
f 1379 1368 1376
f 1362 1371 1355
f 1371 1404 1407
f 1404 1371 1362
f 1365 1354 1388
f 1355 1391 1385
f 1362 1364 1406
f 1369 1368 1405
f 1363 1406 1364
f 1407 1358 1366
f 1368 1367 1405
f 1362 1406 1404
f 1363 1408 1406
f 1367 1379 1373
f 1403 1372 1380
f 1375 1377 1364
f 1370 1378 1374
f 1407 1381 1382
f 1385 1386 1354
f 1387 1388 1354
f 1386 1387 1354
f 1370 1383 1389
f 1365 1390 1384
f 1355 1382 1391
f 1356 1395 1394
f 1397 1396 1367
f 1366 1398 1356
f 1356 1398 1400
f 1401 1402 1405
f 1366 1409 1399
f 1405 1396 1401
f 1428 1414 1426
f 1423 1429 1427
f 1444 1437 1442
f 1443 1425 1440
f 1432 1433 1445
f 1452 1458 1459
f 1450 1449 1462
f 1455 1449 1456
f 1471 1458 1452
f 1452 1451 1472
f 1459 1463 1451
f 1450 1467 1468
f 1467 1466 1469
f 1454 1453 1449
f 1453 1456 1449
f 1450 1457 1454
f 1460 1450 1461
f 1463 1464 1451
f 1449 1464 1462
f 1450 1460 1466
f 1474 1473 1451
f 1470 1475 1465
f 1473 1472 1451
f 274 284 281
f 263 261 264
f 270 296 292
f 299 290 295
f 298 279 297
f 304 289 282
f 286 305 306
f 308 337 338
f 323 313 324
f 308 310 307
f 317 316 307
f 310 311 313
f 314 326 327
f 307 315 333
f 319 309 314
f 321 318 322
f 309 319 320
f 320 317 310
f 321 334 333
f 323 325 309
f 325 328 309
f 328 329 309
f 329 326 309
f 307 330 308
f 308 330 332
f 336 308 332
f 308 340 337
f 312 338 339
f 372 362 363
f 358 390 388
f 364 395 386
f 392 389 387
f 399 394 391
f 378 376 377
f 437 407 438
f 410 407 403
f 405 418 419
f 413 422 423
f 404 428 429
f 410 409 407
f 410 432 430
f 426 422 413
f 404 411 406
f 409 402 407
f 402 415 407
f 440 438 407
f 405 409 431
f 405 402 409
f 432 404 429
f 411 404 412
f 447 411 448
f 412 403 450
f 448 412 449
f 434 406 417
f 402 408 415
f 410 403 404
f 443 414 439
f 454 453 403
f 404 403 412
f 446 406 455
f 416 406 445
f 416 417 406
f 420 408 421
f 425 418 405
f 408 419 421
f 444 441 408
f 405 423 425
f 405 426 413
f 430 431 409
f 433 436 424
f 404 434 428
f 437 439 414
f 408 442 415
f 442 440 415
f 445 406 446
f 443 451 414
f 453 450 403
f 447 455 406
f 451 454 414
f 482 464 480
f 475 492 498
f 504 490 496
f 472 471 473
f 486 500 503
f 510 535 536
f 508 513 514
f 543 537 538
f 507 543 530
f 505 515 528
f 506 508 544
f 508 509 505
f 537 543 539
f 516 509 520
f 543 507 523
f 506 513 508
f 511 509 512
f 516 517 509
f 508 514 512
f 511 520 509
f 521 515 505
f 509 517 521
f 519 522 507
f 507 522 523
f 525 526 505
f 527 525 505
f 540 526 541
f 531 507 532
f 507 533 518
f 533 534 518
f 510 536 539
f 544 540 546
f 529 538 542
f 573 586 576
f 555 554 560
f 606 574 580
f 591 590 565
f 593 598 600
f 602 581 608
f 610 603 605
f 575 604 609
f 587 584 585
f 615 619 620
f 617 626 627
f 618 629 630
f 619 615 647
f 632 615 633
f 616 639 640
f 634 644 645
f 616 622 623
f 618 615 620
f 615 617 649
f 621 616 623
f 617 627 625
f 618 631 629
f 615 630 633
f 617 632 626
f 635 641 642
f 635 636 616
f 636 637 618
f 637 638 631
f 634 643 652
f 625 649 617
f 628 650 624
f 648 647 615
f 662 678 677
f 683 654 653
f 673 676 687
f 692 680 691
f 698 710 711
f 734 703 704
f 698 694 697
f 698 697 696
f 694 714 715
f 701 716 717
f 698 718 710
f 729 724 725
f 708 720 718
f 701 699 700
f 734 697 702
f 737 701 695
f 694 702 697
f 736 735 722
f 709 696 706
f 701 700 695
f 694 721 714
f 701 713 699
f 704 705 697
f 696 705 706
f 707 708 696
f 709 707 696
f 712 699 713
f 727 726 699
f 694 715 719
f 737 738 716
f 694 711 721
f 722 735 723
f 739 723 735
f 729 725 733
f 728 730 736
f 734 730 731
f 703 731 732
f 766 740 741
f 751 747 748
f 769 761 773
f 777 762 764
f 774 775 776
f 779 797 798
f 778 786 787
f 779 778 791
f 779 780 799
f 782 781 802
f 803 781 804
f 784 780 785
f 784 782 780
f 785 794 783
f 779 788 780
f 792 779 790
f 793 786 778
f 787 791 778
f 792 789 779
f 794 795 783
f 793 801 796
f 778 798 800
f 814 815 816
f 818 831 830
f 828 826 807
f 806 847 834
f 840 839 842
f 835 829 849
f 848 845 846
f 850 853 852
f 852 862 863
f 854 873 874
f 850 852 851
f 873 857 875
f 852 854 865
f 850 859 860
f 853 854 852
f 850 861 859
f 850 869 867
f 869 851 870
f 870 851 856
f 855 856 851
f 858 857 853
f 860 858 853
f 864 866 854
f 866 865 854
f 867 868 850
f 872 877 876
f 888 881 901
f 911 889 887
f 886 909 882
f 905 902 893
f 910 920 912
f 926 924 907
f 928 932 915
f 917 922 930
f 927 925 931
f 938 944 945
f 935 946 947
f 936 937 943
f 935 936 933
f 934 938 940
f 941 933 942
f 952 953 939
f 948 934 940
f 948 949 934
f 949 944 934
f 948 951 950
f 948 940 951
f 952 945 954
f 952 939 945
f 943 942 933
f 936 943 933
f 933 946 935
f 934 944 938
f 938 945 939
f 921 925 929
f 929 925 927
f 921 923 925
f 917 930 919
f 928 915 916
f 907 879 878
f 926 878 914
f 926 907 878
f 879 907 906
f 918 920 910
f 891 890 893
f 905 890 894
f 894 890 895
f 905 894 896
f 890 905 893
f 891 893 892
f 897 884 903
f 913 899 903
f 899 904 903
f 903 884 882
f 903 882 913
f 882 883 886
f 883 885 886
f 882 909 913
f 911 880 908
f 911 887 880
f 888 901 898
f 898 901 900
f 850 868 861
f 861 877 872
f 861 868 877
f 855 851 852
f 870 856 871
f 851 869 850
f 850 860 853
f 852 865 862
f 853 857 873
f 853 873 854
f 854 874 864
f 852 863 855
f 844 845 848
f 835 849 836
f 838 824 840
f 840 824 839
f 841 805 833
f 841 843 837
f 841 837 805
f 837 832 805
f 805 847 806
f 805 832 847
f 822 823 811
f 823 809 811
f 823 810 809
f 823 808 810
f 823 807 808
f 823 828 807
f 817 819 831
f 831 819 821
f 819 820 821
f 817 831 818
f 813 815 827
f 827 814 825
f 813 812 815
f 827 815 814
f 800 793 778
f 800 801 793
f 789 788 779
f 788 794 780
f 780 794 785
f 802 781 803
f 802 799 780
f 782 802 780
f 779 799 797
f 779 791 790
f 779 798 778
f 758 757 759
f 758 762 772
f 762 777 772
f 758 772 760
f 760 772 771
f 758 759 762
f 768 761 769
f 755 770 752
f 752 746 745
f 752 770 746
f 746 770 750
f 750 770 753
f 770 767 753
f 750 753 749
f 749 753 747
f 749 747 751
f 756 763 766
f 756 766 741
f 766 765 740
f 744 742 754
f 756 744 754
f 756 743 744
f 756 741 743
f 734 731 703
f 736 730 734
f 694 719 702
f 727 699 712
f 697 705 696
f 717 713 701
f 736 722 724
f 708 698 696
f 708 718 698
f 736 729 728
f 736 724 729
f 737 716 701
f 734 704 697
f 698 711 694
f 679 680 692
f 679 692 681
f 681 690 682
f 681 692 690
f 693 684 675
f 693 675 672
f 672 675 674
f 693 687 688
f 672 687 693
f 672 673 687
f 689 686 658
f 689 658 657
f 689 657 654
f 689 683 685
f 657 659 654
f 659 656 655
f 659 655 654
f 689 654 683
f 661 660 663
f 678 660 668
f 678 668 670
f 661 666 671
f 671 665 664
f 671 669 665
f 671 666 669
f 661 663 666
f 666 663 667
f 660 678 663
f 663 678 662
f 651 650 628
f 650 625 624
f 650 649 625
f 634 651 628
f 634 652 651
f 637 631 618
f 636 618 616
f 635 640 641
f 635 616 640
f 618 630 615
f 615 649 648
f 618 620 622
f 618 622 616
f 634 645 643
f 621 639 616
f 617 615 632
f 619 647 646
f 611 583 612
f 584 587 612
f 612 588 614
f 612 587 588
f 612 583 584
f 613 609 601
f 613 589 609
f 589 575 609
f 578 603 610
f 610 605 607
f 602 608 597
f 597 608 599
f 569 593 595
f 569 595 570
f 570 595 594
f 593 600 595
f 571 596 563
f 596 564 563
f 596 591 564
f 591 565 564
f 572 606 592
f 572 574 606
f 561 567 579
f 552 579 556
f 556 579 562
f 558 567 561
f 562 579 577
f 567 559 566
f 558 557 559
f 567 558 559
f 561 579 552
f 553 561 552
f 553 560 561
f 553 555 560
f 548 573 550
f 550 573 551
f 551 568 549
f 551 573 568
f 548 586 573
f 548 547 586
f 547 582 586
f 508 540 544
f 510 539 543
f 531 533 507
f 507 518 519
f 505 526 508
f 508 526 540
f 509 521 505
f 508 512 509
f 545 513 506
f 543 523 524
f 505 528 527
f 507 530 532
f 543 529 530
f 543 538 529
f 484 499 487
f 487 500 485
f 484 483 488
f 485 500 486
f 484 488 499
f 486 503 502
f 487 499 500
f 493 495 501
f 489 493 501
f 489 472 493
f 472 473 493
f 504 496 497
f 476 475 498
f 475 491 492
f 476 498 478
f 478 498 477
f 477 498 479
f 479 498 494
f 482 481 469
f 459 481 460
f 460 481 463
f 460 463 458
f 481 467 463
f 458 466 457
f 458 463 462
f 458 462 466
f 467 481 474
f 467 474 461
f 481 459 470
f 481 470 469
f 482 469 468
f 482 468 464
f 468 465 464
f 452 451 443
f 441 442 408
f 437 414 403
f 427 426 405
f 413 423 405
f 444 408 420
f 402 419 408
f 416 445 456
f 454 403 414
f 404 406 434
f 434 417 435
f 411 412 448
f 412 450 449
f 406 411 447
f 410 404 432
f 405 431 427
f 440 407 415
f 424 422 433
f 433 422 426
f 410 430 409
f 405 419 402
f 403 407 437
f 375 376 378
f 375 378 381
f 375 382 383
f 383 398 374
f 375 381 382
f 383 400 398
f 383 382 400
f 382 379 400
f 400 379 396
f 374 397 373
f 374 398 397
f 401 394 399
f 384 385 341
f 387 385 392
f 385 342 341
f 385 387 342
f 364 365 395
f 395 367 368
f 395 365 367
f 368 367 369
f 395 368 393
f 364 386 366
f 380 370 366
f 366 386 380
f 354 353 357
f 357 353 355
f 355 353 359
f 355 359 356
f 356 359 390
f 359 360 390
f 356 390 352
f 352 358 351
f 352 390 358
f 344 350 372
f 344 343 350
f 347 350 348
f 344 372 346
f 346 371 345
f 350 347 372
f 346 372 371
f 349 372 347
f 349 361 362
f 349 362 372
f 335 340 308
f 335 308 336
f 331 330 307
f 323 309 310
f 321 333 318
f 318 333 315
f 309 320 310
f 316 315 307
f 307 333 331
f 309 326 314
f 308 311 310
f 317 307 310
f 310 313 323
f 308 312 311
f 308 338 312
f 286 285 305
f 286 306 303
f 304 282 301
f 301 282 300
f 302 283 278
f 302 278 298
f 298 278 276
f 298 276 279
f 276 277 279
f 293 299 295
f 299 280 265
f 299 265 290
f 267 291 294
f 267 294 269
f 269 270 273
f 294 270 269
f 269 273 272
f 294 296 270
f 275 266 262
f 275 262 259
f 275 258 271
f 275 259 260
f 275 260 258
f 260 261 258
f 258 261 263
f 255 288 284
f 274 255 284
f 274 268 257
f 288 255 256
f 274 257 255
f 288 256 287
f 1474 1451 1455
f 1451 1464 1449
f 1454 1449 1450
f 1450 1466 1467
f 1450 1468 1457
f 1459 1451 1452
f 1452 1472 1471
f 1465 1471 1470
f 1465 1458 1471
f 1451 1449 1455
f 1450 1462 1461
f 1430 1431 1432
f 1430 1447 1446
f 1430 1432 1447
f 1432 1445 1447
f 1439 1425 1441
f 1441 1425 1443
f 1416 1415 1422
f 1416 1422 1438
f 1422 1435 1448
f 1416 1438 1420
f 1422 1448 1438
f 1420 1438 1421
f 1421 1418 1419
f 1421 1438 1418
f 1418 1438 1417
f 1417 1429 1423
f 1417 1438 1429
f 1424 1434 1412
f 1424 1436 1434
f 1424 1412 1414
f 1412 1411 1414
f 1413 1410 1411
f 1413 1411 1412
f 1424 1414 1428
f 1367 1396 1405
f 1358 1409 1366
f 1356 1400 1395
f 1399 1398 1366
f 1367 1373 1372
f 1397 1367 1372
f 1407 1382 1355
f 1370 1389 1378
f 1366 1381 1407
f 1370 1374 1364
f 1397 1372 1403
f 1355 1385 1354
f 1365 1388 1390
f 1367 1368 1379
f 1370 1384 1383
f 1356 1392 1366
f 1366 1392 1381
f 1335 1352 1334
f 1352 1339 1334
f 1335 1351 1352
f 1339 1336 1340
f 1340 1336 1337
f 1339 1352 1336
f 1347 1329 1348
f 1331 1353 1348
f 1353 1332 1338
f 1348 1329 1331
f 1317 1330 1318
f 1330 1349 1318
f 1349 1345 1327
f 1320 1345 1319
f 1318 1349 1327
f 1319 1345 1344
f 1345 1320 1327
f 1320 1321 1327
f 1320 1326 1321
f 1321 1326 1324
f 1321 1324 1322
f 1325 1346 1314
f 1314 1346 1310
f 1310 1346 1311
f 1311 1346 1313
f 1315 1312 1307
f 1309 1315 1307
f 1313 1309 1307
f 1313 1308 1309
f 1313 1343 1308
f 1328 1333 1316
f 1316 1333 1341
f 1250 1289 1275
f 1276 1298 1257
f 1257 1298 1296
f 1281 1280 1301
f 1274 1278 1249
f 1257 1267 1251
f 1257 1296 1273
f 1269 1256 1259
f 1266 1253 1254
f 1280 1286 1254
f 1286 1277 1251
f 1249 1275 1274
f 1265 1271 1253
f 1282 1305 1260
f 1268 1300 1256
f 1250 1252 1293
f 1292 1290 1270
f 1264 1254 1251
f 1249 1279 1260
f 1243 1232 1247
f 1247 1232 1234
f 1247 1234 1244
f 1224 1223 1241
f 1224 1241 1240
f 1223 1228 1241
f 1241 1228 1225
f 1228 1229 1225
f 1229 1226 1225
f 1248 1202 1208
f 1248 1208 1233
f 1248 1198 1202
f 1248 1207 1198
f 1198 1207 1199
f 1248 1242 1207
f 1242 1227 1205
f 1199 1206 1201
f 1242 1205 1204
f 1205 1203 1204
f 1242 1204 1207
f 1201 1206 1200
f 1230 1231 1210
f 1231 1209 1210
f 1231 1246 1209
f 1231 1237 1246
f 1214 1213 1236
f 1214 1217 1218
f 1214 1212 1217
f 1221 1216 1220
f 1221 1215 1216
f 1217 1221 1220
f 1217 1212 1221
f 1214 1211 1212
f 1214 1236 1211
f 1211 1236 1219
f 1219 1236 1235
f 1195 1187 1192
f 1179 1193 1182
f 1181 1186 1189
f 1181 1183 1179
f 1183 1196 1179
f 1179 1197 1193
f 1180 1191 1192
f 1178 1160 1159
f 1178 1158 1160
f 1160 1158 1161
f 1178 1171 1158
f 1161 1158 1163
f 1161 1163 1164
f 1178 1159 1162
f 1166 1165 1169
f 1166 1169 1173
f 1169 1168 1173
f 1168 1172 1173
f 1166 1173 1167
f 1154 1131 1137
f 1137 1131 1138
f 1151 1133 1157
f 1157 1131 1156
f 1149 1137 1139
f 1149 1154 1137
f 1142 1148 1129
f 1146 1139 1130
f 1130 1139 1136
f 1140 1144 1129
f 1131 1132 1138
f 1129 1130 1134
f 1130 1129 1145
f 1121 1125 1127
f 1084 1083 1088
f 1119 1083 1085
f 1119 1085 1116
f 1116 1085 1115
f 1083 1119 1088
f 1120 1117 1111
f 1111 1122 1109
f 1111 1117 1122
f 1109 1122 1113
f 1090 1102 1089
f 1090 1103 1102
f 1105 1110 1107
f 1082 1126 1108
f 1079 1124 1066
f 1079 1093 1124
f 1079 1066 1106
f 1124 1101 1066
f 1106 1066 1099
f 1066 1067 1099
f 1071 1073 1074
f 1071 1070 1072
f 1071 1072 1073
f 1091 1075 1092
f 1091 1073 1075
f 1073 1091 1074
f 1074 1091 1087
f 1100 1096 1078
f 1078 1096 1080
f 1080 1096 1081
f 1069 1068 1097
f 1057 1068 1063
f 1068 1057 1097
f 1057 1060 1097
f 1058 1059 1062
f 1058 1062 1057
f 1057 1062 1060
f 1097 1060 1061
f 1065 1064 1077
f 1077 1064 1055
f 1077 1055 1056
f 1010 1048 1053
f 1047 1052 1053
f 1042 1051 1008
f 1008 1050 1010
f 1043 1042 1020
f 1017 1032 1013
f 1029 1033 1015
f 1031 1040 1013
f 1013 1041 1016
f 1028 1016 1038
f 1022 1008 1012
f 1033 1036 1018
f 1028 1013 1016
f 1017 1035 1034
f 1030 1045 1044
f 1012 1027 1026
f 1013 1023 1011
f 1001 986 1002
f 1002 988 1005
f 1001 983 985
f 1005 988 1004
f 983 984 985
f 1002 987 988
f 1001 985 986
f 1006 990 999
f 999 990 979
f 1003 991 992
f 965 982 971
f 971 982 972
f 982 989 972
f 972 989 970
f 970 989 969
f 969 993 967
f 967 993 966
f 969 989 993
f 966 993 996
f 966 996 995
f 965 971 964
f 994 975 977
f 994 977 997
f 973 957 961
f 973 955 957
f 973 981 955
f 981 980 955
f 957 955 956
f 973 961 962
f 973 962 959
f 962 960 959
f 973 959 958
f 973 958 978
f 958 963 978
f 252 253 216
f 249 248 238
f 238 248 220
f 220 245 225
f 240 222 216
f 241 234 222
f 237 220 218
f 218 229 231
f 217 218 230
f 219 220 226
f 218 232 239
f 216 217 252
f 222 234 221
f 217 251 250
f 217 223 251
f 214 210 212
f 206 214 212
f 199 207 198
f 211 215 192
f 192 215 186
f 186 215 196
f 186 204 202
f 174 175 176
f 176 175 200
f 200 175 201
f 200 203 205
f 160 188 163
f 163 188 161
f 160 177 180
f 160 180 188
f 188 180 194
f 178 143 149
f 178 150 179
f 178 149 150
f 179 150 148
f 179 148 147
f 179 147 187
f 147 145 187
f 145 144 187
f 187 144 190
f 190 144 189
f 149 142 146
f 185 209 171
f 164 191 165
f 164 193 191
f 165 191 167
f 164 184 193
f 166 184 164
f 166 172 184
f 170 159 153
f 156 159 170
f 153 159 152
f 158 156 170
f 159 156 157
f 155 170 153
f 158 181 173
f 155 154 162
f 158 170 181
f 155 162 170
f 126 121 72
f 130 129 93
f 127 128 137
f 123 122 69
f 72 114 73
f 113 99 112
f 109 91 83
f 109 108 91
f 106 134 136
f 77 100 71
f 98 97 85
f 74 93 137
f 77 80 111
f 83 105 104
f 84 99 103
f 75 102 95
f 80 120 110
f 77 84 100
f 69 88 123
f 91 89 83
f 80 117 116
f 75 96 85
f 41 42 67
f 41 67 40
f 40 67 44
f 44 67 66
f 67 42 65
f 42 1 45
f 1 43 46
f 1 46 45
f 42 45 47
f 32 68 63
f 31 68 32
f 32 63 35
f 35 63 34
f 63 36 34
f 34 36 33
f 36 63 62
f 31 38 49
f 37 24 23
f 37 25 24
f 37 64 60
f 37 60 25
f 64 54 60
f 39 56 55
f 50 48 2
f 48 6 2
f 6 5 3
f 6 3 2
f 50 56 39
f 2 56 50
f 4 56 2
f 27 58 61
f 28 52 59
f 9 13 14
f 9 15 13
f 9 8 15
f 9 14 11
f 14 30 11
f 14 16 30
f 30 16 26
f 26 16 12
f 11 30 10
f 10 30 20
f 30 19 20
f 30 29 19
f 19 29 18
f 18 22 17
f 18 29 22
