# Decoded from sources/assets/lusion.dev/assets/models/lines/line_reel.buf
# Position/index data decoded from public .buf header and payload.
v -0.1506347 -0.9886165 0.0000000
v 0.1505737 0.9885554 0.0000000
v -0.1532287 -0.9882197 0.0031281
v 0.1531677 0.9881587 0.0031281
v -0.1607666 -0.9869990 0.0062561
v 0.1607055 0.9869380 0.0062561
v -0.1726074 -0.9850154 0.0093994
v 0.1725464 0.9849544 0.0093994
v -0.1875000 -0.9822688 0.0125275
v 0.1874389 0.9822078 0.0125275
v -0.2033996 -0.9791255 0.0156708
v 0.2033386 0.9790645 0.0156708
v -0.2188720 -0.9757686 0.0187988
v 0.2188110 0.9757075 0.0187988
v -0.2337951 -0.9723201 0.0219421
v 0.2337341 0.9722591 0.0219421
v -0.2482605 -0.9687190 0.0250702
v 0.2481994 0.9686580 0.0250702
v -0.2623901 -0.9649959 0.0282135
v 0.2623291 0.9649348 0.0282135
v -0.2762146 -0.9611201 0.0313416
v 0.2761535 0.9610591 0.0313416
v -0.2898559 -0.9570918 0.0344696
v 0.2897949 0.9570308 0.0344696
v -0.3032837 -0.9529109 0.0376129
v 0.3032226 0.9528499 0.0376129
v -0.3166198 -0.9485774 0.0407410
v 0.3165588 0.9485164 0.0407410
v -0.3298339 -0.9440608 0.0438843
v 0.3297729 0.9439998 0.0438843
v -0.3430175 -0.9393611 0.0470123
v 0.3429565 0.9393001 0.0470123
v -0.3561706 -0.9344478 0.0501556
v 0.3561096 0.9343868 0.0501556
v -0.3693237 -0.9293208 0.0532837
v 0.3692627 0.9292598 0.0532837
v -0.3824768 -0.9239803 0.0564270
v 0.3824157 0.9239192 0.0564270
v -0.3956298 -0.9184261 0.0595551
v 0.3955688 0.9183650 0.0595551
v -0.4088745 -0.9126277 0.0626984
v 0.4088134 0.9125667 0.0626984
v -0.4221801 -0.9065547 0.0658264
v 0.4221191 0.9064937 0.0658264
v -0.4355468 -0.9001766 0.0689545
v 0.4354858 0.9001155 0.0689545
v -0.4490051 -0.8935543 0.0720978
v 0.4489440 0.8934932 0.0720978
v -0.4625549 -0.8866268 0.0752258
v 0.4624938 0.8865657 0.0752258
v -0.4761962 -0.8793636 0.0783691
v 0.4761352 0.8793026 0.0783691
v -0.4899291 -0.8717952 0.0814972
v 0.4898681 0.8717342 0.0814972
v -0.5037536 -0.8638607 0.0846405
v 0.5036926 0.8637996 0.0846405
v -0.5177001 -0.8555904 0.0877686
v 0.5176391 0.8555294 0.0877686
v -0.5317687 -0.8469234 0.0909119
v 0.5317077 0.8468624 0.0909119
v -0.5459289 -0.8378597 0.0940399
v 0.5458679 0.8377987 0.0940399
v -0.5601806 -0.8283993 0.0971832
v 0.5601196 0.8283382 0.0971832
v -0.5745239 -0.8185116 0.1003113
v 0.5744628 0.8184505 0.1003113
v -0.5889892 -0.8081661 0.1034393
v 0.5889282 0.8081051 0.1034393
v -0.6035156 -0.7973934 0.1065826
v 0.6034545 0.7973324 0.1065826
v -0.6181335 -0.7861324 0.1097107
v 0.6180724 0.7860714 0.1097107
v -0.6327819 -0.7743527 0.1128540
v 0.6327209 0.7742916 0.1128540
v -0.6475219 -0.7620846 0.1159821
v 0.6474609 0.7620236 0.1159821
v -0.6622314 -0.7493283 0.1191254
v 0.6621703 0.7492672 0.1191254
v -0.6770019 -0.7360226 0.1222534
v 0.6769408 0.7359616 0.1222534
v -0.6917419 -0.7221981 0.1253967
v 0.6916808 0.7221371 0.1253967
v -0.7064513 -0.7078244 0.1285248
v 0.7063903 0.7077633 0.1285248
v -0.7210693 -0.6929013 0.1316528
v 0.7210082 0.6928402 0.1316528
v -0.7356261 -0.6774289 0.1347961
v 0.7355651 0.6773678 0.1347961
v -0.7500915 -0.6613766 0.1379242
v 0.7500304 0.6613156 0.1379242
v -0.7644042 -0.6447751 0.1410675
v 0.7643432 0.6447140 0.1410675
v -0.7785338 -0.6276547 0.1441956
v 0.7784728 0.6275937 0.1441956
v -0.7924499 -0.6099545 0.1473389
v 0.7923888 0.6098935 0.1473389
v -0.8061522 -0.5917661 0.1504669
v 0.8060912 0.5917050 0.1504669
v -0.8195800 -0.5730283 0.1536102
v 0.8195189 0.5729673 0.1536102
v -0.8326720 -0.5538327 0.1567383
v 0.8326110 0.5537717 0.1567383
v -0.8454284 -0.5341489 0.1598816
v 0.8453673 0.5340879 0.1598816
v -0.8578185 -0.5140378 0.1630096
v 0.8577575 0.5139768 0.1630096
v -0.8697814 -0.4934995 0.1661377
v 0.8697204 0.4934385 0.1661377
v -0.8813170 -0.4725950 0.1692810
v 0.8812560 0.4725340 0.1692810
v -0.8923644 -0.4513548 0.1724091
v 0.8923034 0.4512937 0.1724091
v -0.9029235 -0.4298399 0.1755524
v 0.9028624 0.4297788 0.1755524
v -0.9129943 -0.4080198 0.1786804
v 0.9129332 0.4079588 0.1786804
v -0.9225158 -0.3860167 0.1818237
v 0.9224547 0.3859556 0.1818237
v -0.9314879 -0.3638609 0.1849518
v 0.9314269 0.3637999 0.1849518
v -0.9398803 -0.3416136 0.1880951
v 0.9398192 0.3415526 0.1880951
v -0.9472960 -0.3204649 0.1912231
v 0.9472350 0.3204039 0.1912231
v -0.9532775 -0.3021544 0.1943665
v 0.9532164 0.3020934 0.1943665
v -0.9579772 -0.2869261 0.1974945
v 0.9579161 0.2868651 0.1974945
v -0.9617308 -0.2740782 0.2006226
v 0.9616698 0.2740172 0.2006226
v -0.9647521 -0.2632445 0.2037659
v 0.9646910 0.2631835 0.2037659
v -0.9669493 -0.2550048 0.2069092
v 0.9668883 0.2549437 0.2069092
v -0.9727782 -0.2318114 0.2100372
v 0.9727172 0.2317504 0.2100372
v -0.9823607 -0.1870421 0.2131653
v 0.9822997 0.1869811 0.2131653
v -0.9880980 -0.1540527 0.2163086
v 0.9880370 0.1539916 0.2163086
v -0.9905700 -0.1371459 0.2194366
v 0.9905089 0.1370849 0.2194366
v -0.9960021 -0.0893859 0.2225647
v 0.9959410 0.0893249 0.2225647
v -0.9988097 -0.0490417 0.2257080
v 0.9987487 0.0489807 0.2257080
v -0.9990233 -0.0448608 0.2288361
v 0.9989623 0.0447998 0.2288361
v -0.9993285 -0.0372314 0.2319641
v 0.9992675 0.0371704 0.2319641
v -0.9996642 -0.0270080 0.2351074
v 0.9996032 0.0269470 0.2351074
v -0.9999083 -0.0146789 0.2382355
v 0.9998473 0.0146179 0.2382355
v -0.9999999 0.0003052 0.2413788
v 0.9999694 -0.0003662 0.2413788
v -0.9998473 0.0188599 0.2445221
v 0.9997863 -0.0189209 0.2445221
v -0.9991759 0.0408020 0.2476501
v 0.9991149 -0.0408630 0.2476501
v -0.9979247 0.0645752 0.2507935
v 0.9978637 -0.0646362 0.2507935
v -0.9960326 0.0892639 0.2539215
v 0.9959716 -0.0893249 0.2539215
v -0.9934081 0.1148376 0.2570496
v 0.9933470 -0.1148986 0.2570496
v -0.9899901 0.1412963 0.2601929
v 0.9899291 -0.1413574 0.2601929
v -0.9856871 0.1686401 0.2633209
v 0.9856261 -0.1687011 0.2633209
v -0.9804381 0.1968688 0.2664642
v 0.9803771 -0.1969298 0.2664642
v -0.9741515 0.2259826 0.2695923
v 0.9740905 -0.2260436 0.2695923
v -0.9667052 0.2559203 0.2727356
v 0.9666442 -0.2559813 0.2727356
v -0.9580382 0.2866820 0.2758636
v 0.9579772 -0.2867430 0.2758636
v -0.9480285 0.3181761 0.2790070
v 0.9479674 -0.3182372 0.2790070
v -0.9366149 0.3503721 0.2821350
v 0.9365538 -0.3504332 0.2821350
v -0.9236754 0.3831785 0.2852783
v 0.9236144 -0.3832396 0.2852783
v -0.9091185 0.4165342 0.2884064
v 0.9090575 -0.4165953 0.2884064
v -0.8928527 0.4503172 0.2915344
v 0.8927916 -0.4503782 0.2915344
v -0.8748473 0.4844053 0.2946777
v 0.8747863 -0.4844663 0.2946777
v -0.8549804 0.5186765 0.2978058
v 0.8549193 -0.5187375 0.2978058
v -0.8331908 0.5529783 0.3009491
v 0.8331298 -0.5530393 0.3009491
v -0.8094787 0.5871274 0.3040771
v 0.8094176 -0.5871884 0.3040771
v -0.7838134 0.6209714 0.3072205
v 0.7837523 -0.6210324 0.3072205
v -0.7561645 0.6543576 0.3103485
v 0.7561034 -0.6544186 0.3103485
v -0.7265319 0.6871029 0.3134766
v 0.7264709 -0.6871640 0.3134766
v -0.6949767 0.7189938 0.3166199
v 0.6949157 -0.7190548 0.3166199
v -0.6614989 0.7499081 0.3197479
v 0.6614379 -0.7499691 0.3197479
v -0.6261291 0.7796932 0.3228912
v 0.6260680 -0.7797543 0.3228912
v -0.5889282 0.8081661 0.3260193
v 0.5888671 -0.8082272 0.3260193
v -0.5499572 0.8351742 0.3291626
v 0.5498962 -0.8352352 0.3291626
v -0.5092773 0.8605648 0.3322906
v 0.5092162 -0.8606258 0.3322906
v -0.4669494 0.8842464 0.3354340
v 0.4668884 -0.8843074 0.3354340
v -0.4230346 0.9060665 0.3385620
v 0.4229736 -0.9061275 0.3385620
v -0.3775939 0.9259334 0.3416901
v 0.3775329 -0.9259944 0.3416901
v -0.3306579 0.9437251 0.3448334
v 0.3305969 -0.9437862 0.3448334
v -0.2822265 0.9593196 0.3479614
v 0.2821655 -0.9593806 0.3479614
v -0.2323303 0.9725948 0.3511047
v 0.2322693 -0.9726558 0.3511047
v -0.1809692 0.9834590 0.3542328
v 0.1809082 -0.9835200 0.3542328
v -0.1281433 0.9916987 0.3573761
v 0.1280823 -0.9917598 0.3573761
v -0.0738220 0.9972224 0.3605042
v 0.0737610 -0.9972835 0.3605042
v -0.0180054 0.9997859 0.3636322
v 0.0179443 -0.9998469 0.3636322
v 0.0393372 0.9991755 0.3667755
v -0.0393982 -0.9992366 0.3667755
v 0.0981750 0.9951167 0.3699036
v -0.0982361 -0.9951777 0.3699036
v 0.1585083 0.9873042 0.3730469
v -0.1585693 -0.9873653 0.3730469
v 0.2203064 0.9753718 0.3761749
v -0.2203674 -0.9754329 0.3761749
v 0.2833557 0.9589534 0.3793182
v -0.2834167 -0.9590144 0.3793182
v 0.3474426 0.9376521 0.3824463
v -0.3475036 -0.9377132 0.3824463
v 0.4122009 0.9110408 0.3855743
v -0.4122619 -0.9111019 0.3855743
v 0.4770812 0.8787838 0.3887177
v -0.4771423 -0.8788448 0.3887177
v 0.5413818 0.8406978 0.3918457
v -0.5414428 -0.8407589 0.3918457
v 0.6038207 0.7970577 0.3949890
v -0.6038818 -0.7971188 0.3949890
v 0.6632384 0.7483212 0.3981171
v -0.6632995 -0.7483822 0.3981171
v 0.7188720 0.6950680 0.4012451
v -0.7189330 -0.6951291 0.4012451
v 0.7698669 0.6381223 0.4043884
v -0.7699279 -0.6381833 0.4043884
v 0.8158263 0.5781858 0.4075165
v -0.8158874 -0.5782468 0.4075165
v 0.8574828 0.5143735 0.4106598
v -0.8575438 -0.5144346 0.4106598
v 0.8955687 0.4448240 0.4137878
v -0.8956298 -0.4448850 0.4137878
v 0.9293517 0.3690489 0.4169159
v -0.9294127 -0.3691099 0.4169159
v 0.9574279 0.2884825 0.4200592
v -0.9574889 -0.2885436 0.4200592
v 0.9787291 0.2048339 0.4231873
v -0.9787902 -0.2048949 0.4231873
v 0.9927672 0.1197814 0.4263306
v -0.9928283 -0.1198425 0.4263306
v 0.9993285 0.0350342 0.4294586
v -0.9993895 -0.0350952 0.4294586
v 0.9988097 -0.0477295 0.4325867
v -0.9988707 0.0476684 0.4325867
v 0.9918212 -0.1272582 0.4357300
v -0.9918822 0.1271972 0.4357300
v 0.9792479 -0.2025451 0.4388580
v -0.9793090 0.2024840 0.4388580
v 0.9619750 -0.2729796 0.4420013
v -0.9620360 0.2729186 0.4420013
v 0.9410094 -0.3383177 0.4451294
v -0.9410704 0.3382567 0.4451294
v 0.9171447 -0.3984983 0.4482574
v -0.9172057 0.3984373 0.4482574
v 0.8911132 -0.4537046 0.4514008
v -0.8911742 0.4536436 0.4514008
v 0.8635558 -0.5041807 0.4545288
v -0.8636168 0.5041196 0.4545288
v 0.8349608 -0.5502622 0.4576721
v -0.8350219 0.5502012 0.4576721
v 0.8057250 -0.5922544 0.4608002
v -0.8057860 0.5921933 0.4608002
v 0.7761230 -0.6305539 0.4639435
v -0.7761840 0.6304929 0.4639435
v 0.7463988 -0.6654660 0.4670715
v -0.7464599 0.6654050 0.4670715
v 0.7167663 -0.6972958 0.4701996
v -0.7168273 0.6972348 0.4701996
v 0.6872558 -0.7264096 0.4733429
v -0.6873168 0.7263485 0.4733429
v 0.6580199 -0.7529904 0.4764709
v -0.6580810 0.7529293 0.4764709
v 0.6290893 -0.7773129 0.4796143
v -0.6291503 0.7772518 0.4796143
v 0.6004943 -0.7996212 0.4827423
v -0.6005553 0.7995602 0.4827423
v 0.5722961 -0.8200375 0.4858856
v -0.5723571 0.8199764 0.4858856
v 0.5445251 -0.8387447 0.4890137
v -0.5445861 0.8386837 0.4890137
v 0.5171508 -0.8558956 0.4921570
v -0.5172119 0.8558346 0.4921570
v 0.4902343 -0.8715816 0.4952850
v -0.4902954 0.8715206 0.4952850
v 0.4637451 -0.8859859 0.4984131
v -0.4638061 0.8859249 0.4984131
v 0.4376831 -0.8991390 0.5015564
v -0.4377441 0.8990779 0.5015564
v 0.4120483 -0.9111629 0.5046844
v -0.4121093 0.9111019 0.5046844
v 0.3868103 -0.9221492 0.5078278
v -0.3868713 0.9220882 0.5078278
v 0.3619995 -0.9321895 0.5109558
v -0.3620605 0.9321285 0.5109558
v 0.3376159 -0.9412837 0.5140991
v -0.3376770 0.9412227 0.5140991
v 0.3135986 -0.9495540 0.5172272
v -0.3136596 0.9494930 0.5172272
v 0.2900085 -0.9570308 0.5203705
v -0.2900695 0.9569698 0.5203705
v 0.2668152 -0.9637447 0.5234985
v -0.2668762 0.9636836 0.5234985
v 0.2439880 -0.9697871 0.5266418
v -0.2440490 0.9697261 0.5266418
v 0.2215881 -0.9751582 0.5297699
v -0.2216491 0.9750972 0.5297699
v 0.1995239 -0.9798884 0.5328979
v -0.1995849 0.9798274 0.5328979
v 0.1778564 -0.9840694 0.5360413
v -0.1779175 0.9840083 0.5360413
v 0.1565857 -0.9876704 0.5391693
v -0.1566467 0.9876094 0.5391693
v 0.1356506 -0.9907527 0.5423126
v -0.1357117 0.9906917 0.5423126
v 0.1150818 -0.9933772 0.5454407
v -0.1151428 0.9933162 0.5454407
v 0.0949097 -0.9955134 0.5485840
v -0.0949707 0.9954524 0.5485840
v 0.0751038 -0.9971919 0.5517120
v -0.0751648 0.9971309 0.5517120
v 0.0564880 -0.9984126 0.5548553
v -0.0565491 0.9983516 0.5548553
v 0.0399780 -0.9992061 0.5579834
v -0.0400391 0.9991450 0.5579834
v 0.0255737 -0.9996943 0.5611267
v -0.0256348 0.9996333 0.5611267
v 0.0127258 -0.9999385 0.5642548
v -0.0127869 0.9998775 0.5642548
v 0.0009155 -0.9999995 0.5673981
v -0.0009766 0.9999690 0.5673981
v -0.0102234 -0.9999690 0.5705261
v 0.0101624 0.9999080 0.5705261
v -0.0214844 -0.9997859 0.5736694
v 0.0214233 0.9997249 0.5736694
v -0.0334778 -0.9994502 0.5767975
v 0.0334167 0.9993892 0.5767975
v -0.0455017 -0.9989924 0.5799255
v 0.0454407 0.9989314 0.5799255
v -0.0556030 -0.9984736 0.5830688
v 0.0555420 0.9984126 0.5830688
v -0.0621643 -0.9980769 0.5861969
v 0.0621033 0.9980159 0.5861969
v -0.0667419 -0.9978023 0.5893402
v 0.0666809 0.9977412 0.5893402
v -0.0717468 -0.9974360 0.5924683
v 0.0716858 0.9973750 0.5924683
v -0.0776367 -0.9970088 0.5955963
v 0.0775757 0.9969478 0.5955963
v -0.0843811 -0.9964595 0.5987396
v 0.0843201 0.9963985 0.5987396
v -0.0919495 -0.9957881 0.6018677
v 0.0918884 0.9957271 0.6018677
v -0.1002807 -0.9949641 0.6050110
v 0.1002197 0.9949031 0.6050110
v -0.1094055 -0.9940181 0.6081390
v 0.1093445 0.9939570 0.6081390
v -0.1192932 -0.9928889 0.6112823
v 0.1192322 0.9928279 0.6112823
v -0.1299133 -0.9915462 0.6144104
v 0.1298523 0.9914851 0.6144104
v -0.1412353 -0.9899898 0.6175537
v 0.1411743 0.9899287 0.6175537
v -0.1532593 -0.9882197 0.6206818
v 0.1531982 0.9881587 0.6206818
v -0.1659546 -0.9861445 0.6238251
v 0.1658935 0.9860835 0.6238251
v -0.1793518 -0.9837947 0.6269531
v 0.1792908 0.9837337 0.6269531
v -0.1933594 -0.9811397 0.6300812
v 0.1932983 0.9810786 0.6300812
v -0.2080383 -0.9781489 0.6332245
v 0.2079773 0.9780879 0.6332245
v -0.2233581 -0.9747615 0.6363525
v 0.2232971 0.9747005 0.6363525
v -0.2392578 -0.9709773 0.6394958
v 0.2391967 0.9709163 0.6394958
v -0.2557678 -0.9667659 0.6426239
v 0.2557068 0.9667049 0.6426239
v -0.2727966 -0.9620967 0.6457672
v 0.2727356 0.9620357 0.6457672
v -0.2903442 -0.9569392 0.6488953
v 0.2902832 0.9568782 0.6488953
v -0.3083801 -0.9512935 0.6520386
v 0.3083191 0.9512325 0.6520386
v -0.3268432 -0.9450984 0.6551666
v 0.3267822 0.9450374 0.6551666
v -0.3457336 -0.9383540 0.6583099
v 0.3456726 0.9382930 0.6583099
v -0.3649597 -0.9310298 0.6614380
v 0.3648986 0.9309688 0.6614380
v -0.3845214 -0.9231258 0.6645660
v 0.3844604 0.9230647 0.6645660
v -0.4043273 -0.9146419 0.6677094
v 0.4042663 0.9145809 0.6677094
v -0.4243469 -0.9055171 0.6708374
v 0.4242858 0.9054561 0.6708374
v -0.4444885 -0.8958126 0.6739807
v 0.4444274 0.8957515 0.6739807
v -0.4646911 -0.8854976 0.6771088
v 0.4646301 0.8854366 0.6771088
v -0.4849548 -0.8745723 0.6802521
v 0.4848937 0.8745113 0.6802521
v -0.5051574 -0.8630672 0.6833801
v 0.5050964 0.8630062 0.6833801
v -0.5252380 -0.8509823 0.6865234
v 0.5251769 0.8509212 0.6865234
v -0.5451965 -0.8383480 0.6896515
v 0.5451354 0.8382870 0.6896515
v -0.5649108 -0.8251949 0.6927795
v 0.5648498 0.8251339 0.6927795
v -0.5843505 -0.8115536 0.6959229
v 0.5842895 0.8114925 0.6959229
v -0.6034545 -0.7974239 0.6990509
v 0.6033935 0.7973629 0.6990509
v -0.6221618 -0.7829281 0.7021942
v 0.6221008 0.7828671 0.7021942
v -0.6404418 -0.7680355 0.7053223
v 0.6403808 0.7679745 0.7053223
v -0.6582336 -0.7528378 0.7084656
v 0.6581725 0.7527767 0.7084656
v -0.6755370 -0.7373654 0.7115936
v 0.6754760 0.7373043 0.7115936
v -0.6922607 -0.7216793 0.7147369
v 0.6921996 0.7216183 0.7147369
v -0.7084350 -0.7058102 0.7178650
v 0.7083739 0.7057492 0.7178650
v -0.7240295 -0.6897885 0.7209930
v 0.7239684 0.6897275 0.7209930
v -0.7390136 -0.6737363 0.7241364
v 0.7389525 0.6736752 0.7241364
v -0.7534179 -0.6575925 0.7272644
v 0.7533568 0.6575314 0.7272644
v -0.7667846 -0.6419369 0.7304077
v 0.7667235 0.6418759 0.7304077
v -0.7779540 -0.6283872 0.7335358
v 0.7778930 0.6283261 0.7335358
v -0.7862548 -0.6179501 0.7366791
v 0.7861938 0.6178891 0.7366791
v -0.7919616 -0.6106259 0.7398071
v 0.7919005 0.6105649 0.7398071
v -0.7951049 -0.6065366 0.7429504
v 0.7950439 0.6064755 0.7429504
v -0.7953185 -0.6062314 0.7460785
v 0.7952575 0.6061704 0.7460785
v -0.7918700 -0.6107480 0.7492218
v 0.7918090 0.6106870 0.7492218
v -0.7833861 -0.6215817 0.7523499
v 0.7833251 0.6215207 0.7523499
v -0.7672729 -0.6413876 0.7554932
v 0.7672118 0.6413266 0.7554932
v -0.7399291 -0.6727292 0.7586212
v 0.7398681 0.6726681 0.7586212
v -0.6996764 -0.7145077 0.7617493
v 0.6996154 0.7144467 0.7617493
v -0.6466064 -0.7628781 0.7648926
v 0.6465453 0.7628170 0.7648926
v -0.5790405 -0.8153377 0.7680206
v 0.5789794 0.8152767 0.7680206
v -0.4942016 -0.8693844 0.7711639
v 0.4941406 0.8693233 0.7711639
v -0.3910827 -0.9203792 0.7742920
v 0.3910217 0.9203182 0.7742920
v -0.2725830 -0.9621577 0.7774200
v 0.2725219 0.9620967 0.7774200
v -0.1466369 -0.9891963 0.7805634
v 0.1465759 0.9891353 0.7805634
v -0.0241699 -0.9997249 0.7836914
v 0.0241089 0.9996638 0.7836914
v 0.0848999 -0.9963985 0.7868195
v -0.0849609 0.9963374 0.7868195
v 0.1749573 -0.9845882 0.7899628
v -0.1750183 0.9845271 0.7899628
v 0.2448120 -0.9695735 0.7930908
v -0.2448730 0.9695125 0.7930908
v 0.2960510 -0.9551692 0.7962189
v -0.2961120 0.9551082 0.7962189
v 0.3311767 -0.9435725 0.7993622
v -0.3312378 0.9435115 0.7993622
v 0.3526916 -0.9357601 0.8024902
v -0.3527526 0.9356990 0.8024902
v 0.3624877 -0.9320064 0.8056335
v -0.3625488 0.9319454 0.8056335
v 0.3619384 -0.9321895 0.8087616
v -0.3619995 0.9321285 0.8087616
v 0.3519592 -0.9360042 0.8119049
v -0.3520202 0.9359432 0.8119049
v 0.3330383 -0.9429317 0.8150330
v -0.3330993 0.9428706 0.8150330
v 0.3054809 -0.9522090 0.8181763
v -0.3055420 0.9521480 0.8181763
v 0.2695007 -0.9630122 0.8213043
v -0.2695617 0.9629512 0.8213043
v 0.2253113 -0.9743037 0.8244324
v -0.2253723 0.9742427 0.8244324
v 0.1734619 -0.9848628 0.8275757
v -0.1735229 0.9848018 0.8275757
v 0.1146850 -0.9934077 0.8307037
v -0.1147461 0.9933467 0.8307037
v 0.0502624 -0.9987483 0.8338470
v -0.0503235 0.9986873 0.8338470
v -0.0180664 -0.9998469 0.8369751
v 0.0180054 0.9997859 0.8369751
v -0.0886841 -0.9960628 0.8401184
v 0.0886230 0.9960017 0.8401184
v -0.1615295 -0.9868770 0.8432465
v 0.1614685 0.9868159 0.8432465
v -0.2358703 -0.9718013 0.8463745
v 0.2358093 0.9717403 0.8463745
v -0.3086547 -0.9512019 0.8495178
v 0.3085937 0.9511409 0.8495178
v -0.3774414 -0.9260555 0.8526459
v 0.3773803 0.9259944 0.8526459
v -0.4443969 -0.8958736 0.8557892
v 0.4443359 0.8958126 0.8557892
v -0.5157470 -0.8567806 0.8589172
v 0.5156860 0.8567196 0.8589172
v -0.5954894 -0.8034054 0.8620453
v 0.5954284 0.8033443 0.8620453
v -0.6785583 -0.7345883 0.8651886
v 0.6784972 0.7345272 0.8651886
v -0.7562865 -0.6542660 0.8683167
v 0.7562255 0.6542050 0.8683167
v -0.8233642 -0.5675351 0.8714447
v 0.8233031 0.5674741 0.8714447
v -0.8770141 -0.4804990 0.8745880
v 0.8769530 0.4804380 0.8745880
v -0.9170836 -0.3987120 0.8777161
v 0.9170226 0.3986509 0.8777161
v -0.9454039 -0.3259581 0.8808594
v 0.9453429 0.3258971 0.8808594
v -0.9645995 -0.2638243 0.8839874
v 0.9645385 0.2637633 0.8839874
v -0.9771422 -0.2126464 0.8871155
v 0.9770812 0.2125853 0.8871155
v -0.9851683 -0.1716918 0.8902588
v 0.9851073 0.1716308 0.8902588
v -0.9901732 -0.1400451 0.8933868
v 0.9901122 0.1399841 0.8933868
v -0.9931945 -0.1165771 0.8965302
v 0.9931334 0.1165161 0.8965302
v -0.9949645 -0.1004028 0.8996582
v 0.9949034 0.1003417 0.8996582
v -0.9958800 -0.0907287 0.9028015
v 0.9958190 0.0906677 0.9028015
v -0.9962462 -0.0869140 0.9059296
v 0.9961852 0.0868530 0.9059296
v -0.9960936 -0.0884704 0.9090729
v 0.9960326 0.0884094 0.9090729
v -0.9954833 -0.0950317 0.9122009
v 0.9954222 0.0949707 0.9122009
v -0.9943541 -0.1063537 0.9153442
v 0.9942931 0.1062927 0.9153442
v -0.9925231 -0.1222228 0.9184723
v 0.9924620 0.1221618 0.9184723
v -0.9898070 -0.1424865 0.9216003
v 0.9897460 0.1424255 0.9216003
v -0.9859618 -0.1670531 0.9247437
v 0.9859008 0.1669921 0.9247437
v -0.9806823 -0.1957091 0.9278717
v 0.9806212 0.1956481 0.9278717
v -0.9736022 -0.2283629 0.9310150
v 0.9735411 0.2283019 0.9310150
v -0.9643554 -0.2646788 0.9341431
v 0.9642943 0.2646178 0.9341431
v -0.9526061 -0.3043211 0.9372864
v 0.9525451 0.3042601 0.9372864
v -0.9379577 -0.3468626 0.9404144
v 0.9378966 0.3468016 0.9404144
v -0.9201659 -0.3916319 0.9435577
v 0.9201049 0.3915709 0.9435577
v -0.8990477 -0.4378965 0.9466858
v 0.8989867 0.4378355 0.9466858
v -0.8746337 -0.4848325 0.9498138
v 0.8745726 0.4847715 0.9498138
v -0.8470458 -0.5315549 0.9529572
v 0.8469848 0.5314939 0.9529572
v -0.8165893 -0.5772702 0.9560852
v 0.8165282 0.5772092 0.9560852
v -0.7837218 -0.6211850 0.9592285
v 0.7836608 0.6211240 0.9592285
v -0.7489928 -0.6625973 0.9623566
v 0.7489318 0.6625363 0.9623566
v -0.7131042 -0.7011105 0.9654999
v 0.7130431 0.7010190 0.9654999
v -0.6766357 -0.7363583 0.9686279
v 0.6765746 0.7362973 0.9686279
v -0.6401977 -0.7682491 0.9717560
v 0.6401366 0.7681881 0.9717560
v -0.6042175 -0.7968441 0.9748993
v 0.6041564 0.7967831 0.9748993
v -0.5691833 -0.8222347 0.9780273
v 0.5691222 0.8221737 0.9780273
v -0.5357360 -0.8444210 0.9811707
v 0.5356750 0.8443599 0.9811707
v -0.5064697 -0.8623043 0.9842987
v 0.5064086 0.8622432 0.9842987
v -0.4836120 -0.8753048 0.9874420
v 0.4835510 0.8752437 0.9874420
v -0.4669494 -0.8843074 0.9905701
v 0.4668884 0.8842464 0.9905701
v -0.4555358 -0.8902278 0.9937134
v 0.4554748 0.8901668 0.9937134
v -0.4489135 -0.8936153 0.9968414
v 0.4488525 0.8935543 0.9968414
v -0.4467468 -0.8946834 0.9999847
v 0.4466857 0.8946224 0.9999847
f 1 4 2
f 4 1 3
f 3 6 4
f 6 3 5
f 5 8 6
f 8 5 7
f 7 10 8
f 10 7 9
f 9 12 10
f 12 9 11
f 11 14 12
f 14 11 13
f 13 16 14
f 16 13 15
f 15 18 16
f 18 15 17
f 17 20 18
f 20 17 19
f 19 22 20
f 22 19 21
f 21 24 22
f 24 21 23
f 23 26 24
f 26 23 25
f 25 28 26
f 28 25 27
f 27 30 28
f 30 27 29
f 29 32 30
f 32 29 31
f 31 34 32
f 34 31 33
f 33 36 34
f 36 33 35
f 35 38 36
f 38 35 37
f 37 40 38
f 40 37 39
f 39 42 40
f 42 39 41
f 41 44 42
f 44 41 43
f 43 46 44
f 46 43 45
f 45 48 46
f 48 45 47
f 47 50 48
f 50 47 49
f 49 52 50
f 52 49 51
f 51 54 52
f 54 51 53
f 53 56 54
f 56 53 55
f 55 58 56
f 58 55 57
f 57 60 58
f 60 57 59
f 59 62 60
f 62 59 61
f 61 64 62
f 64 61 63
f 63 66 64
f 66 63 65
f 65 68 66
f 68 65 67
f 67 70 68
f 70 67 69
f 69 72 70
f 72 69 71
f 71 74 72
f 74 71 73
f 73 76 74
f 76 73 75
f 75 78 76
f 78 75 77
f 77 80 78
f 80 77 79
f 79 82 80
f 82 79 81
f 81 84 82
f 84 81 83
f 83 86 84
f 86 83 85
f 85 88 86
f 88 85 87
f 87 90 88
f 90 87 89
f 89 92 90
f 92 89 91
f 91 94 92
f 94 91 93
f 93 96 94
f 96 93 95
f 95 98 96
f 98 95 97
f 97 100 98
f 100 97 99
f 99 102 100
f 102 99 101
f 101 104 102
f 104 101 103
f 103 106 104
f 106 103 105
f 105 108 106
f 108 105 107
f 107 110 108
f 110 107 109
f 109 112 110
f 112 109 111
f 111 114 112
f 114 111 113
f 113 116 114
f 116 113 115
f 115 118 116
f 118 115 117
f 117 120 118
f 120 117 119
f 119 122 120
f 122 119 121
f 121 124 122
f 124 121 123
f 123 126 124
f 126 123 125
f 125 128 126
f 128 125 127
f 127 130 128
f 130 127 129
f 129 132 130
f 132 129 131
f 131 134 132
f 134 131 133
f 133 136 134
f 136 133 135
f 135 138 136
f 138 135 137
f 137 140 138
f 140 137 139
f 139 142 140
f 142 139 141
f 141 144 142
f 144 141 143
f 143 146 144
f 146 143 145
f 145 148 146
f 148 145 147
f 147 150 148
f 150 147 149
f 149 152 150
f 152 149 151
f 151 154 152
f 154 151 153
f 153 156 154
f 156 153 155
f 155 158 156
f 158 155 157
f 157 160 158
f 160 157 159
f 159 162 160
f 162 159 161
f 161 164 162
f 164 161 163
f 163 166 164
f 166 163 165
f 165 168 166
f 168 165 167
f 167 170 168
f 170 167 169
f 169 172 170
f 172 169 171
f 171 174 172
f 174 171 173
f 173 176 174
f 176 173 175
f 175 178 176
f 178 175 177
f 177 180 178
f 180 177 179
f 179 182 180
f 182 179 181
f 181 184 182
f 184 181 183
f 183 186 184
f 186 183 185
f 185 188 186
f 188 185 187
f 187 190 188
f 190 187 189
f 189 192 190
f 192 189 191
f 191 194 192
f 194 191 193
f 193 196 194
f 196 193 195
f 195 198 196
f 198 195 197
f 197 200 198
f 200 197 199
f 199 202 200
f 202 199 201
f 201 204 202
f 204 201 203
f 203 206 204
f 206 203 205
f 205 208 206
f 208 205 207
f 207 210 208
f 210 207 209
f 209 212 210
f 212 209 211
f 211 214 212
f 214 211 213
f 213 216 214
f 216 213 215
f 215 218 216
f 218 215 217
f 217 220 218
f 220 217 219
f 219 222 220
f 222 219 221
f 221 224 222
f 224 221 223
f 223 226 224
f 226 223 225
f 225 228 226
f 228 225 227
f 227 230 228
f 230 227 229
f 229 232 230
f 232 229 231
f 231 234 232
f 234 231 233
f 233 236 234
f 236 233 235
f 235 238 236
f 238 235 237
f 237 240 238
f 240 237 239
f 239 242 240
f 242 239 241
f 241 244 242
f 244 241 243
f 243 246 244
f 246 243 245
f 245 248 246
f 248 245 247
f 247 250 248
f 250 247 249
f 249 252 250
f 252 249 251
f 251 254 252
f 254 251 253
f 253 256 254
f 256 253 255
f 255 258 256
f 258 255 257
f 257 260 258
f 260 257 259
f 259 262 260
f 262 259 261
f 261 264 262
f 264 261 263
f 263 266 264
f 266 263 265
f 265 268 266
f 268 265 267
f 267 270 268
f 270 267 269
f 269 272 270
f 272 269 271
f 271 274 272
f 274 271 273
f 273 276 274
f 276 273 275
f 275 278 276
f 278 275 277
f 277 280 278
f 280 277 279
f 279 282 280
f 282 279 281
f 281 284 282
f 284 281 283
f 283 286 284
f 286 283 285
f 285 288 286
f 288 285 287
f 287 290 288
f 290 287 289
f 289 292 290
f 292 289 291
f 291 294 292
f 294 291 293
f 293 296 294
f 296 293 295
f 295 298 296
f 298 295 297
f 297 300 298
f 300 297 299
f 299 302 300
f 302 299 301
f 301 304 302
f 304 301 303
f 303 306 304
f 306 303 305
f 305 308 306
f 308 305 307
f 307 310 308
f 310 307 309
f 309 312 310
f 312 309 311
f 311 314 312
f 314 311 313
f 313 316 314
f 316 313 315
f 315 318 316
f 318 315 317
f 317 320 318
f 320 317 319
f 319 322 320
f 322 319 321
f 321 324 322
f 324 321 323
f 323 326 324
f 326 323 325
f 325 328 326
f 328 325 327
f 327 330 328
f 330 327 329
f 329 332 330
f 332 329 331
f 331 334 332
f 334 331 333
f 333 336 334
f 336 333 335
f 335 338 336
f 338 335 337
f 337 340 338
f 340 337 339
f 339 342 340
f 342 339 341
f 341 344 342
f 344 341 343
f 343 346 344
f 346 343 345
f 345 348 346
f 348 345 347
f 347 350 348
f 350 347 349
f 349 352 350
f 352 349 351
f 351 354 352
f 354 351 353
f 353 356 354
f 356 353 355
f 355 358 356
f 358 355 357
f 357 360 358
f 360 357 359
f 359 362 360
f 362 359 361
f 361 364 362
f 364 361 363
f 363 366 364
f 366 363 365
f 365 368 366
f 368 365 367
f 367 370 368
f 370 367 369
f 369 372 370
f 372 369 371
f 371 374 372
f 374 371 373
f 373 376 374
f 376 373 375
f 375 378 376
f 378 375 377
f 377 380 378
f 380 377 379
f 379 382 380
f 382 379 381
f 381 384 382
f 384 381 383
f 383 386 384
f 386 383 385
f 385 388 386
f 388 385 387
f 387 390 388
f 390 387 389
f 389 392 390
f 392 389 391
f 391 394 392
f 394 391 393
f 393 396 394
f 396 393 395
f 395 398 396
f 398 395 397
f 397 400 398
f 400 397 399
f 399 402 400
f 402 399 401
f 401 404 402
f 404 401 403
f 403 406 404
f 406 403 405
f 405 408 406
f 408 405 407
f 407 410 408
f 410 407 409
f 409 412 410
f 412 409 411
f 411 414 412
f 414 411 413
f 413 416 414
f 416 413 415
f 415 418 416
f 418 415 417
f 417 420 418
f 420 417 419
f 419 422 420
f 422 419 421
f 421 424 422
f 424 421 423
f 423 426 424
f 426 423 425
f 425 428 426
f 428 425 427
f 427 430 428
f 430 427 429
f 429 432 430
f 432 429 431
f 431 434 432
f 434 431 433
f 433 436 434
f 436 433 435
f 435 438 436
f 438 435 437
f 437 440 438
f 440 437 439
f 439 442 440
f 442 439 441
f 441 444 442
f 444 441 443
f 443 446 444
f 446 443 445
f 445 448 446
f 448 445 447
f 447 450 448
f 450 447 449
f 449 452 450
f 452 449 451
f 451 454 452
f 454 451 453
f 453 456 454
f 456 453 455
f 455 458 456
f 458 455 457
f 457 460 458
f 460 457 459
f 459 462 460
f 462 459 461
f 461 464 462
f 464 461 463
f 463 466 464
f 466 463 465
f 465 468 466
f 468 465 467
f 467 470 468
f 470 467 469
f 469 472 470
f 472 469 471
f 471 474 472
f 474 471 473
f 473 476 474
f 476 473 475
f 475 478 476
f 478 475 477
f 477 480 478
f 480 477 479
f 479 482 480
f 482 479 481
f 481 484 482
f 484 481 483
f 483 486 484
f 486 483 485
f 485 488 486
f 488 485 487
f 487 490 488
f 490 487 489
f 489 492 490
f 492 489 491
f 491 494 492
f 494 491 493
f 493 496 494
f 496 493 495
f 495 498 496
f 498 495 497
f 497 500 498
f 500 497 499
f 499 502 500
f 502 499 501
f 501 504 502
f 504 501 503
f 503 506 504
f 506 503 505
f 505 508 506
f 508 505 507
f 507 510 508
f 510 507 509
f 509 512 510
f 512 509 511
f 511 514 512
f 514 511 513
f 513 516 514
f 516 513 515
f 515 518 516
f 518 515 517
f 517 520 518
f 520 517 519
f 519 522 520
f 522 519 521
f 521 524 522
f 524 521 523
f 523 526 524
f 526 523 525
f 525 528 526
f 528 525 527
f 527 530 528
f 530 527 529
f 529 532 530
f 532 529 531
f 531 534 532
f 534 531 533
f 533 536 534
f 536 533 535
f 535 538 536
f 538 535 537
f 537 540 538
f 540 537 539
f 539 542 540
f 542 539 541
f 541 544 542
f 544 541 543
f 543 546 544
f 546 543 545
f 545 548 546
f 548 545 547
f 547 550 548
f 550 547 549
f 549 552 550
f 552 549 551
f 551 554 552
f 554 551 553
f 553 556 554
f 556 553 555
f 555 558 556
f 558 555 557
f 557 560 558
f 560 557 559
f 559 562 560
f 562 559 561
f 561 564 562
f 564 561 563
f 563 566 564
f 566 563 565
f 565 568 566
f 568 565 567
f 567 570 568
f 570 567 569
f 569 572 570
f 572 569 571
f 571 574 572
f 574 571 573
f 573 576 574
f 576 573 575
f 575 578 576
f 578 575 577
f 577 580 578
f 580 577 579
f 579 582 580
f 582 579 581
f 581 584 582
f 584 581 583
f 583 586 584
f 586 583 585
f 585 588 586
f 588 585 587
f 587 590 588
f 590 587 589
f 589 592 590
f 592 589 591
f 591 594 592
f 594 591 593
f 593 596 594
f 596 593 595
f 595 598 596
f 598 595 597
f 597 600 598
f 600 597 599
f 599 602 600
f 602 599 601
f 601 604 602
f 604 601 603
f 603 606 604
f 606 603 605
f 605 608 606
f 608 605 607
f 607 610 608
f 610 607 609
f 609 612 610
f 612 609 611
f 611 614 612
f 614 611 613
f 613 616 614
f 616 613 615
f 615 618 616
f 618 615 617
f 617 620 618
f 620 617 619
f 619 622 620
f 622 619 621
f 621 624 622
f 624 621 623
f 623 626 624
f 626 623 625
f 625 628 626
f 628 625 627
f 627 630 628
f 630 627 629
f 629 632 630
f 632 629 631
f 631 634 632
f 634 631 633
f 633 636 634
f 636 633 635
f 635 638 636
f 638 635 637
f 637 640 638
f 640 637 639
