# Decoded from sources/assets/lusion.dev/assets/models/lines/line_capability.buf
# Position/index data decoded from public .buf header and payload.
v -0.6486423 -0.7611386 0.0000000
v 0.6485812 0.7610776 0.0000000
v -0.6598421 -0.7514341 0.0031281
v 0.6597810 0.7513730 0.0031281
v -0.6885892 -0.7251889 0.0062561
v 0.6885282 0.7251279 0.0062561
v -0.7220971 -0.6918332 0.0093994
v 0.7220360 0.6917722 0.0093994
v -0.7516377 -0.6596372 0.0125275
v 0.7515767 0.6595762 0.0125275
v -0.7769059 -0.6296690 0.0156708
v 0.7768449 0.6296079 0.0156708
v -0.7991224 -0.6011961 0.0187988
v 0.7990614 0.6011350 0.0187988
v -0.8190501 -0.5737608 0.0219421
v 0.8189891 0.5736997 0.0219421
v -0.8371773 -0.5469664 0.0250702
v 0.8371163 0.5469053 0.0250702
v -0.8538702 -0.5205076 0.0281982
v 0.8538091 0.5204466 0.0281982
v -0.8693729 -0.4942015 0.0313416
v 0.8693119 0.4941404 0.0313416
v -0.8838991 -0.4677428 0.0344696
v 0.8838380 0.4676817 0.0344696
v -0.8975097 -0.4410399 0.0376129
v 0.8974487 0.4409788 0.0376129
v -0.9103574 -0.4138792 0.0407410
v 0.9102964 0.4138182 0.0407410
v -0.9224422 -0.3861998 0.0438843
v 0.9223812 0.3861388 0.0438843
v -0.9337946 -0.3578490 0.0470123
v 0.9337336 0.3577880 0.0470123
v -0.9444451 -0.3287658 0.0501556
v 0.9443841 0.3287047 0.0501556
v -0.9543327 -0.2988280 0.0532837
v 0.9542716 0.2987670 0.0532837
v -0.9634573 -0.2679442 0.0564117
v 0.9633963 0.2678832 0.0564117
v -0.9717580 -0.2361144 0.0595551
v 0.9716969 0.2360534 0.0595551
v -0.9791431 -0.2032470 0.0626831
v 0.9790821 0.2031860 0.0626831
v -0.9855823 -0.1692809 0.0658264
v 0.9855212 0.1692199 0.0658264
v -0.9909533 -0.1343078 0.0689545
v 0.9908922 0.1342468 0.0689545
v -0.9951952 -0.0982360 0.0720978
v 0.9951341 0.0981750 0.0720978
v -0.9981553 -0.0611572 0.0752258
v 0.9980943 0.0610962 0.0752258
v -0.9997422 -0.0230408 0.0783539
v 0.9996812 0.0229797 0.0783539
v -0.9998948 0.0159302 0.0814972
v 0.9998338 -0.0159912 0.0814972
v -0.9984605 0.0557251 0.0846252
v 0.9983995 -0.0557861 0.0846252
v -0.9953783 0.0961609 0.0877686
v 0.9953172 -0.0962219 0.0877686
v -0.9905871 0.1370544 0.0908966
v 0.9905260 -0.1371154 0.0908966
v -0.9839954 0.1781921 0.0940399
v 0.9839343 -0.1782531 0.0940399
v -0.9756337 0.2194213 0.0971680
v 0.9755726 -0.2194823 0.0971680
v -0.9655020 0.2604369 0.1002960
v 0.9654409 -0.2604980 0.1002960
v -0.9535697 0.3011779 0.1034393
v 0.9535087 -0.3012389 0.1034393
v -0.9391656 0.3434752 0.1065674
v 0.9391046 -0.3435363 0.1065674
v -0.9209469 0.3897093 0.1097107
v 0.9208859 -0.3897704 0.1097107
v -0.8989745 0.4380186 0.1128387
v 0.8989135 -0.4380797 0.1128387
v -0.8749270 0.4842528 0.1159668
v 0.8748660 -0.4843138 0.1159668
v -0.8504523 0.5260313 0.1191101
v 0.8503912 -0.5260923 0.1191101
v -0.8262216 0.5633238 0.1222382
v 0.8261606 -0.5633848 0.1222382
v -0.8018079 0.5975645 0.1253815
v 0.8017469 -0.5976255 0.1253815
v -0.7766007 0.6299741 0.1285095
v 0.7765397 -0.6300352 0.1285095
v -0.7501118 0.6613157 0.1316528
v 0.7500508 -0.6613767 0.1316528
v -0.7224328 0.6914365 0.1347809
v 0.7223717 -0.6914976 0.1347809
v -0.6948147 0.7191770 0.1379242
v 0.6947537 -0.7192380 0.1379242
v -0.6681427 0.7440183 0.1410522
v 0.6680817 -0.7440793 0.1410522
v -0.6424778 0.7662961 0.1441803
v 0.6424168 -0.7663571 0.1441803
v -0.6178505 0.7862851 0.1473236
v 0.6177894 -0.7863462 0.1473236
v -0.5941997 0.8042905 0.1504517
v 0.5941386 -0.8043515 0.1504517
v -0.5715254 0.8205563 0.1535950
v 0.5714644 -0.8206174 0.1535950
v -0.5497361 0.8352963 0.1567230
v 0.5496751 -0.8353574 0.1567230
v -0.5288014 0.8487241 0.1598663
v 0.5287403 -0.8487851 0.1598663
v -0.5086295 0.8609616 0.1629944
v 0.5085685 -0.8610226 0.1629944
v -0.4891901 0.8721616 0.1661377
v 0.4891291 -0.8722226 0.1661377
v -0.4704220 0.8824155 0.1692657
v 0.4703610 -0.8824765 0.1692657
v -0.4522643 0.8918454 0.1723938
v 0.4522033 -0.8919064 0.1723938
v -0.4346559 0.9005734 0.1755371
v 0.4345949 -0.9006344 0.1755371
v -0.4175663 0.9085995 0.1786652
v 0.4175053 -0.9086606 0.1786652
v -0.4009650 0.9160458 0.1818085
v 0.4009040 -0.9161068 0.1818085
v -0.3847909 0.9229733 0.1849365
v 0.3847299 -0.9230343 0.1849365
v -0.3690135 0.9293820 0.1880798
v 0.3689525 -0.9294430 0.1880798
v -0.3536024 0.9353634 0.1912079
v 0.3535413 -0.9354245 0.1912079
v -0.3384964 0.9409481 0.1943512
v 0.3384353 -0.9410092 0.1943512
v -0.3236650 0.9461361 0.1974792
v 0.3236040 -0.9461972 0.1974792
v -0.3091083 0.9509884 0.2006226
v 0.3090473 -0.9510495 0.2006226
v -0.2947653 0.9555355 0.2037506
v 0.2947042 -0.9555966 0.2037506
v -0.2806358 0.9597775 0.2068787
v 0.2805748 -0.9598385 0.2068787
v -0.2666895 0.9637448 0.2100220
v 0.2666284 -0.9638058 0.2100220
v -0.2528652 0.9674679 0.2131500
v 0.2528042 -0.9675290 0.2131500
v -0.2391935 0.9709469 0.2162933
v 0.2391325 -0.9710080 0.2162933
v -0.2256134 0.9741818 0.2194214
v 0.2255523 -0.9742428 0.2194214
v -0.2120943 0.9772030 0.2225647
v 0.2120332 -0.9772641 0.2225647
v -0.1986972 0.9800106 0.2256927
v 0.1986362 -0.9800717 0.2256927
v -0.1853002 0.9826351 0.2288361
v 0.1852392 -0.9826962 0.2288361
v -0.1719032 0.9850766 0.2319641
v 0.1718421 -0.9851376 0.2319641
v -0.1585367 0.9873043 0.2350922
v 0.1584756 -0.9873654 0.2350922
v -0.1451701 0.9893490 0.2382355
v 0.1451091 -0.9894100 0.2382355
v -0.1317731 0.9912411 0.2413635
v 0.1317121 -0.9913021 0.2413635
v -0.1182845 0.9929501 0.2445068
v 0.1182235 -0.9930111 0.2445068
v -0.1047654 0.9944454 0.2476349
v 0.1047044 -0.9945065 0.2476349
v -0.0911242 0.9957882 0.2507782
v 0.0910632 -0.9958493 0.2507782
v -0.0773915 0.9969479 0.2539063
v 0.0773305 -0.9970089 0.2539063
v -0.0635367 0.9979244 0.2570496
v 0.0634757 -0.9979855 0.2570496
v -0.0495294 0.9987179 0.2601776
v 0.0494683 -0.9987789 0.2601776
v -0.0353694 0.9993283 0.2633057
v 0.0353084 -0.9993893 0.2633057
v -0.0210263 0.9997250 0.2664490
v 0.0209653 -0.9997860 0.2664490
v -0.0064696 0.9999386 0.2695770
v 0.0064086 -0.9999996 0.2695770
v 0.0082702 0.9999081 0.2727203
v -0.0083312 -0.9999691 0.2727203
v 0.0232541 0.9996945 0.2758484
v -0.0233151 -0.9997555 0.2758484
v 0.0385127 0.9992062 0.2789917
v -0.0385737 -0.9992672 0.2789917
v 0.0540154 0.9985043 0.2821198
v -0.0540764 -0.9985653 0.2821198
v 0.0698233 0.9974972 0.2852631
v -0.0698843 -0.9975582 0.2852631
v 0.0859363 0.9962460 0.2883911
v -0.0859974 -0.9963070 0.2883911
v 0.1023851 0.9946896 0.2915192
v -0.1024461 -0.9947506 0.2915192
v 0.1192000 0.9928280 0.2946625
v -0.1192611 -0.9928890 0.2946625
v 0.1363812 0.9906002 0.2977905
v -0.1364422 -0.9906613 0.2977905
v 0.1539591 0.9880368 0.3009338
v -0.1540201 -0.9880978 0.3009338
v 0.1719642 0.9850460 0.3040619
v -0.1720252 -0.9851071 0.3040619
v 0.1903966 0.9816586 0.3072052
v -0.1904576 -0.9817196 0.3072052
v 0.2092867 0.9778134 0.3103333
v -0.2093477 -0.9778744 0.3103333
v 0.2286651 0.9734494 0.3134766
v -0.2287261 -0.9735104 0.3134766
v 0.2485623 0.9685665 0.3166046
v -0.2486233 -0.9686276 0.3166046
v 0.2689172 0.9631039 0.3197327
v -0.2689783 -0.9631649 0.3197327
v 0.2898215 0.9570309 0.3228760
v -0.2898825 -0.9570919 0.3228760
v 0.3112445 0.9502560 0.3260040
v -0.3113056 -0.9503170 0.3260040
v 0.3332169 0.9427792 0.3291473
v -0.3332779 -0.9428402 0.3291473
v 0.3557386 0.9345395 0.3322754
v -0.3557996 -0.9346005 0.3322754
v 0.3787790 0.9254452 0.3354187
v -0.3788400 -0.9255063 0.3354187
v 0.4023383 0.9154355 0.3385468
v -0.4023993 -0.9154965 0.3385468
v 0.4264468 0.9044491 0.3416901
v -0.4265079 -0.9045102 0.3416901
v 0.4510436 0.8924557 0.3448181
v -0.4511047 -0.8925168 0.3448181
v 0.4760982 0.8793332 0.3479462
v -0.4761593 -0.8793942 0.3479462
v 0.5015801 0.8650510 0.3510895
v -0.5016411 -0.8651120 0.3510895
v 0.5274281 0.8495480 0.3542175
v -0.5274891 -0.8496091 0.3542175
v 0.5533067 0.8329160 0.3573608
v -0.5533677 -0.8329770 0.3573608
v 0.5785749 0.8155515 0.3604889
v -0.5786359 -0.8156125 0.3604889
v 0.6030191 0.7976377 0.3636322
v -0.6030801 -0.7976987 0.3636322
v 0.6270361 0.7789304 0.3667603
v -0.6270972 -0.7789914 0.3667603
v 0.6510531 0.7589719 0.3699036
v -0.6511142 -0.7590329 0.3699036
v 0.6755889 0.7372129 0.3730316
v -0.6756500 -0.7372739 0.3730316
v 0.7012233 0.7128599 0.3761749
v -0.7012844 -0.7129209 0.3761749
v 0.7282921 0.6851804 0.3793030
v -0.7283531 -0.6852415 0.3793030
v 0.7564594 0.6539609 0.3824310
v -0.7565204 -0.6540220 0.3824310
v 0.7851150 0.6192625 0.3855743
v -0.7851761 -0.6193235 0.3855743
v 0.8134960 0.5814817 0.3887024
v -0.8135570 -0.5815428 0.3887024
v 0.8407478 0.5413511 0.3918457
v -0.8408088 -0.5414122 0.3918457
v 0.8663212 0.4993895 0.3949738
v -0.8663822 -0.4994505 0.3949738
v 0.8903077 0.4552305 0.3981171
v -0.8903687 -0.4552916 0.3981171
v 0.9127683 0.4083556 0.4012451
v -0.9128293 -0.4084166 0.4012451
v 0.9333674 0.3587950 0.4043732
v -0.9334284 -0.3588561 0.4043732
v 0.9517998 0.3065795 0.4075165
v -0.9518608 -0.3066405 0.4075165
v 0.9676992 0.2518920 0.4106445
v -0.9677602 -0.2519530 0.4106445
v 0.9807605 0.1949157 0.4137878
v -0.9808216 -0.1949767 0.4137878
v 0.9906786 0.1358642 0.4169159
v -0.9907397 -0.1359252 0.4169159
v 0.9971177 0.0750427 0.4200439
v -0.9971788 -0.0751037 0.4200439
v 0.9998643 0.0127563 0.4231873
v -0.9999253 -0.0128174 0.4231873
v 0.9986741 -0.0506592 0.4263153
v -0.9987351 0.0505981 0.4263153
v 0.9933336 -0.1148071 0.4294586
v -0.9933946 0.1147461 0.4294586
v 0.9837512 -0.1793517 0.4325867
v -0.9838123 0.1792907 0.4325867
v 0.9697744 -0.2438354 0.4357147
v -0.9698354 0.2437743 0.4357147
v 0.9514030 -0.3078612 0.4388580
v -0.9514641 0.3078002 0.4388580
v 0.9285762 -0.3710326 0.4419861
v -0.9286372 0.3709715 0.4419861
v 0.9014159 -0.4328917 0.4451294
v -0.9014770 0.4328307 0.4451294
v 0.8699527 -0.4930723 0.4482574
v -0.8700138 0.4930113 0.4482574
v 0.8344002 -0.5511167 0.4514008
v -0.8344613 0.5510557 0.4514008
v 0.7949110 -0.6066892 0.4545288
v -0.7949721 0.6066282 0.4545288
v 0.7517598 -0.6594236 0.4576569
v -0.7518208 0.6593626 0.4576569
v 0.7052821 -0.7088926 0.4608002
v -0.7053432 0.7088315 0.4608002
v 0.6558443 -0.7548825 0.4639282
v -0.6559054 0.7548215 0.4639282
v 0.6038736 -0.7970883 0.4670715
v -0.6039346 0.7970273 0.4670715
v 0.5497972 -0.8352658 0.4701996
v -0.5498582 0.8352048 0.4701996
v 0.4941949 -0.8693539 0.4733276
v -0.4942559 0.8692929 0.4733276
v 0.4374940 -0.8992001 0.4764709
v -0.4375551 0.8991391 0.4764709
v 0.3802744 -0.9248654 0.4795990
v -0.3803354 0.9248044 0.4795990
v 0.3229936 -0.9464108 0.4827423
v -0.3230547 0.9463498 0.4827423
v 0.2661402 -0.9639584 0.4858704
v -0.2662012 0.9638974 0.4858704
v 0.2100801 -0.9776913 0.4890137
v -0.2101412 0.9776303 0.4890137
v 0.1552408 -0.9878842 0.4921417
v -0.1553018 0.9878231 0.4921417
v 0.1019273 -0.9948117 0.4952698
v -0.1019884 0.9947506 0.4952698
v 0.0503838 -0.9987484 0.4984131
v -0.0504449 0.9986874 0.4984131
v 0.0007934 -0.9999996 0.5015411
v -0.0008545 0.9999691 0.5015411
v -0.0467218 -0.9989315 0.5046844
v 0.0466607 0.9988705 0.5046844
v -0.0920398 -0.9957882 0.5078125
v 0.0919787 0.9957272 0.5078125
v -0.1351300 -0.9908444 0.5109406
v 0.1350690 0.9907833 0.5109406
v -0.1760230 -0.9844052 0.5140839
v 0.1759620 0.9843441 0.5140839
v -0.2147187 -0.9766842 0.5172119
v 0.2146577 0.9766232 0.5172119
v -0.2512783 -0.9679257 0.5203552
v 0.2512173 0.9678646 0.5203552
v -0.2857932 -0.9583126 0.5234833
v 0.2857322 0.9582516 0.5234833
v -0.3183245 -0.9479977 0.5266266
v 0.3182635 0.9479367 0.5266266
v -0.3489637 -0.9371640 0.5297546
v 0.3489027 0.9371029 0.5297546
v -0.3778025 -0.9259030 0.5328979
v 0.3777414 0.9258420 0.5328979
v -0.4049627 -0.9143673 0.5360260
v 0.4049017 0.9143063 0.5360260
v -0.4301394 -0.9028012 0.5391541
v 0.4300784 0.9027402 0.5391541
v -0.4529662 -0.8915707 0.5422974
v 0.4529052 0.8915097 0.5422974
v -0.4737179 -0.8807065 0.5454254
v 0.4736569 0.8806454 0.5454254
v -0.4931573 -0.8699643 0.5485687
v 0.4930963 0.8699033 0.5485687
v -0.5118644 -0.8591000 0.5516968
v 0.5118033 0.8590390 0.5516968
v -0.5304188 -0.8477475 0.5548401
v 0.5303578 0.8476865 0.5548401
v -0.5494920 -0.8355405 0.5579681
v 0.5494310 0.8354794 0.5579681
v -0.5694197 -0.8220822 0.5611115
v 0.5693587 0.8220212 0.5611115
v -0.5901104 -0.8073728 0.5642395
v 0.5900493 0.8073117 0.5642395
v -0.6111367 -0.7915647 0.5673828
v 0.6110756 0.7915036 0.5673828
v -0.6319799 -0.7750241 0.5705109
v 0.6319189 0.7749631 0.5705109
v -0.6520602 -0.7582090 0.5736389
v 0.6519992 0.7581479 0.5736389
v -0.6708893 -0.7416074 0.5767822
v 0.6708282 0.7415464 0.5767822
v -0.6883146 -0.7254331 0.5799103
v 0.6882535 0.7253721 0.5799103
v -0.7048244 -0.7094419 0.5830536
v 0.7047633 0.7093808 0.5830536
v -0.7206017 -0.6933896 0.5861816
v 0.7205407 0.6933286 0.5861816
v -0.7357077 -0.6773374 0.5893250
v 0.7356467 0.6772764 0.5893250
v -0.7501729 -0.6612852 0.5924530
v 0.7501118 0.6612241 0.5924530
v -0.7639971 -0.6452634 0.5955811
v 0.7639361 0.6452024 0.5955811
v -0.7772721 -0.6292112 0.5987244
v 0.7772111 0.6291502 0.5987244
v -0.7899672 -0.6131895 0.6018524
v 0.7899062 0.6131284 0.6018524
v -0.8021436 -0.5971983 0.6049957
v 0.8020826 0.5971372 0.6049957
v -0.8138011 -0.5812071 0.6081238
v 0.8137401 0.5811460 0.6081238
v -0.8250009 -0.5651853 0.6112671
v 0.8249399 0.5651243 0.6112671
v -0.8357430 -0.5491941 0.6143951
v 0.8356820 0.5491331 0.6143951
v -0.8460273 -0.5331724 0.6175385
v 0.8459662 0.5331114 0.6175385
v -0.8559453 -0.5171202 0.6206665
v 0.8558843 0.5170591 0.6206665
v -0.8654972 -0.5010069 0.6237946
v 0.8654362 0.5009459 0.6237946
v -0.8746524 -0.4848326 0.6269379
v 0.8745913 0.4847716 0.6269379
v -0.8834413 -0.4685667 0.6300659
v 0.8833803 0.4685057 0.6300659
v -0.8919251 -0.4522398 0.6332092
v 0.8918640 0.4521788 0.6332092
v -0.9000732 -0.4357909 0.6363373
v 0.9000121 0.4357298 0.6363373
v -0.9079161 -0.4191893 0.6394806
v 0.9078550 0.4191283 0.6394806
v -0.9154538 -0.4024657 0.6426086
v 0.9153928 0.4024046 0.6426086
v -0.9227169 -0.3855284 0.6457520
v 0.9226559 0.3854674 0.6457520
v -0.9297053 -0.3684081 0.6488800
v 0.9296443 0.3683470 0.6488800
v -0.9363886 -0.3510436 0.6520081
v 0.9363276 0.3509825 0.6520081
v -0.9427972 -0.3334044 0.6551514
v 0.9427362 0.3333434 0.6551514
v -0.9489617 -0.3154601 0.6582794
v 0.9489006 0.3153991 0.6582794
v -0.9548515 -0.2971801 0.6614227
v 0.9547904 0.2971190 0.6614227
v -0.9604361 -0.2785338 0.6645508
v 0.9603751 0.2784728 0.6645508
v -0.9657766 -0.2594604 0.6676941
v 0.9657156 0.2593993 0.6676941
v -0.9708119 -0.2399291 0.6708221
v 0.9707509 0.2398681 0.6708221
v -0.9755421 -0.2198791 0.6739655
v 0.9754811 0.2198180 0.6739655
v -0.9799671 -0.1992187 0.6770935
v 0.9799061 0.1991576 0.6770935
v -0.9840564 -0.1779479 0.6802216
v 0.9839954 0.1778869 0.6802216
v -0.9877795 -0.1559753 0.6833649
v 0.9877185 0.1559143 0.6833649
v -0.9911059 -0.1332702 0.6864929
v 0.9910448 0.1332092 0.6864929
v -0.9939745 -0.1096801 0.6896362
v 0.9939134 0.1096191 0.6896362
v -0.9963853 -0.0851745 0.6927643
v 0.9963243 0.0851135 0.6927643
v -0.9982469 -0.0596618 0.6959076
v 0.9981858 0.0596008 0.6959076
v -0.9994676 -0.0330810 0.6990356
v 0.9994065 0.0330200 0.6990356
v -0.9999864 -0.0052490 0.7021790
v 0.9999558 0.0051880 0.7021790
v -0.9997422 0.0238953 0.7053070
v 0.9996812 -0.0239563 0.7053070
v -0.9985215 0.0544433 0.7084351
v 0.9984605 -0.0545044 0.7084351
v -0.9962633 0.0865783 0.7115784
v 0.9962022 -0.0866394 0.7115784
v -0.9927538 0.1203918 0.7147064
v 0.9926927 -0.1204528 0.7147064
v -0.9877795 0.1559753 0.7178497
v 0.9877185 -0.1560363 0.7178497
v -0.9811267 0.1934814 0.7209778
v 0.9810657 -0.1935424 0.7209778
v -0.9724904 0.2330016 0.7241211
v 0.9724294 -0.2330627 0.7241211
v -0.9615652 0.2745360 0.7272491
v 0.9615042 -0.2745971 0.7272491
v -0.9480461 0.3181762 0.7303925
v 0.9479851 -0.3182372 0.7303925
v -0.9314753 0.3638304 0.7335205
v 0.9314143 -0.3638915 0.7335205
v -0.9114561 0.4114073 0.7366486
v 0.9113950 -0.4114684 0.7366486
v -0.8875916 0.4606627 0.7397919
v 0.8875306 -0.4607237 0.7397919
v -0.8594853 0.5111693 0.7429199
v 0.8594243 -0.5112303 0.7429199
v -0.8265573 0.5628660 0.7460632
v 0.8264963 -0.5629270 0.7460632
v -0.7874038 0.6164243 0.7491913
v 0.7873428 -0.6164854 0.7491913
v -0.7437032 0.6684873 0.7523193
v 0.7436422 -0.6685483 0.7523193
v -0.7018032 0.7123411 0.7554626
v 0.7017421 -0.7124021 0.7554626
v -0.6665558 0.7454221 0.7585907
v 0.6664948 -0.7454831 0.7585907
v -0.6390294 0.7691342 0.7617340
v 0.6389683 -0.7691953 0.7617340
v -0.6180336 0.7861325 0.7648621
v 0.6179725 -0.7861936 0.7648621
v -0.6012796 0.7990109 0.7679901
v 0.6012186 -0.7990720 0.7679901
v -0.5868145 0.8096921 0.7711334
v 0.5867535 -0.8097531 0.7711334
v -0.5735090 0.8191831 0.7742615
v 0.5734480 -0.8192441 0.7742615
v -0.5605392 0.8280942 0.7774048
v 0.5604782 -0.8281552 0.7774048
v -0.5473558 0.8368527 0.7805328
v 0.5472948 -0.8369138 0.7805328
v -0.5334095 0.8458249 0.7836761
v 0.5333484 -0.8458859 0.7836761
v -0.5184866 0.8550412 0.7868042
v 0.5184255 -0.8551022 0.7868042
v -0.5029533 0.8642880 0.7899475
v 0.5028923 -0.8643491 0.7899475
v -0.4870234 0.8733517 0.7930756
v 0.4869623 -0.8734128 0.7930756
v -0.4707272 0.8822324 0.7962189
v 0.4706662 -0.8822934 0.7962189
v -0.4541564 0.8908993 0.7993469
v 0.4540954 -0.8909604 0.7993469
v -0.4372804 0.8992917 0.8024902
v 0.4372194 -0.8993527 0.8024902
v -0.4202213 0.9073788 0.8056183
v 0.4201603 -0.9074399 0.8056183
v -0.4029791 0.9151608 0.8087463
v 0.4029181 -0.9152218 0.8087463
v -0.3857064 0.9225766 0.8118896
v 0.3856454 -0.9226376 0.8118896
v -0.3684337 0.9296261 0.8150177
v 0.3683727 -0.9296872 0.8150177
v -0.3512830 0.9362484 0.8181610
v 0.3512220 -0.9363095 0.8181610
v -0.3342850 0.9424435 0.8212891
v 0.3342240 -0.9425045 0.8212891
v -0.3176226 0.9481808 0.8244324
v 0.3175616 -0.9482418 0.8244324
v -0.3013265 0.9534909 0.8275604
v 0.3012654 -0.9535519 0.8275604
v -0.2855186 0.9583432 0.8307037
v 0.2854575 -0.9584042 0.8307037
v -0.2703210 0.9627377 0.8338318
v 0.2702600 -0.9627987 0.8338318
v -0.2558254 0.9666745 0.8369598
v 0.2557643 -0.9667355 0.8369598
v -0.2421232 0.9702145 0.8401031
v 0.2420621 -0.9702755 0.8401031
v -0.2293670 0.9732968 0.8432312
v 0.2293060 -0.9733578 0.8432312
v -0.2176179 0.9759823 0.8463745
v 0.2175568 -0.9760434 0.8463745
v -0.2069979 0.9783017 0.8495026
v 0.2069369 -0.9783627 0.8495026
v -0.1975986 0.9802548 0.8526459
v 0.1975376 -0.9803158 0.8526459
v -0.1895116 0.9818417 0.8557739
v 0.1894505 -0.9819027 0.8557739
v -0.1828588 0.9830929 0.8589172
v 0.1827978 -0.9831539 0.8589172
v -0.1776709 0.9840390 0.8620453
v 0.1776099 -0.9841000 0.8620453
v -0.1741004 0.9846798 0.8651733
v 0.1740394 -0.9847409 0.8651733
v -0.1721778 0.9850155 0.8683167
v 0.1721168 -0.9850766 0.8683167
v -0.1719642 0.9850766 0.8714447
v 0.1719032 -0.9851376 0.8714447
v -0.1735511 0.9847714 0.8745880
v 0.1734901 -0.9848324 0.8745880
v -0.1769995 0.9841610 0.8777161
v 0.1769385 -0.9842221 0.8777161
v -0.1823706 0.9831845 0.8808594
v 0.1823095 -0.9832455 0.8808594
v -0.1896947 0.9818112 0.8839874
v 0.1896336 -0.9818722 0.8839874
v -0.1990024 0.9799496 0.8871307
v 0.1989414 -0.9800106 0.8871307
v -0.2102938 0.9775997 0.8902588
v 0.2102327 -0.9776608 0.8902588
v -0.2235992 0.9746395 0.8933868
v 0.2235382 -0.9747006 0.8933868
v -0.2388883 0.9710080 0.8965302
v 0.2388273 -0.9710690 0.8965302
v -0.2560695 0.9666134 0.8996582
v 0.2560085 -0.9666745 0.8996582
v -0.2751122 0.9613644 0.9028015
v 0.2750512 -0.9614254 0.9028015
v -0.2958639 0.9551999 0.9059296
v 0.2958028 -0.9552609 0.9059296
v -0.3182024 0.9479977 0.9090729
v 0.3181414 -0.9480587 0.9090729
v -0.3419448 0.9396664 0.9122009
v 0.3418838 -0.9397274 0.9122009
v -0.3669078 0.9302365 0.9153290
v 0.3668468 -0.9302975 0.9153290
v -0.3927864 0.9195859 0.9184723
v 0.3927254 -0.9196469 0.9184723
v -0.4193668 0.9077756 0.9216003
v 0.4193058 -0.9078366 0.9216003
v -0.4463745 0.8948056 0.9247437
v 0.4463135 -0.8948666 0.9247437
v -0.4735348 0.8807370 0.9278717
v 0.4734738 -0.8807980 0.9278717
v -0.5005730 0.8656613 0.9310150
v 0.5005120 -0.8657223 0.9310150
v -0.5272450 0.8497006 0.9341431
v 0.5271840 -0.8497617 0.9341431
v -0.5533372 0.8329465 0.9372864
v 0.5532761 -0.8330075 0.9372864
v -0.5786359 0.8155515 0.9404144
v 0.5785749 -0.8156125 0.9404144
v -0.6030191 0.7976987 0.9435425
v 0.6029581 -0.7977597 0.9435425
v -0.6263037 0.7795407 0.9466858
v 0.6262427 -0.7796018 0.9466858
v -0.6484897 0.7611997 0.9498138
v 0.6484286 -0.7612607 0.9498138
v -0.6694245 0.7428586 0.9529572
v 0.6693634 -0.7429197 0.9529572
v -0.6891691 0.7245786 0.9560852
v 0.6891080 -0.7246396 0.9560852
v -0.7076930 0.7065122 0.9592285
v 0.7076319 -0.7065732 0.9592285
v -0.7249962 0.6887205 0.9623566
v 0.7249352 -0.6887815 0.9623566
v -0.7411398 0.6713254 0.9654846
v 0.7410788 -0.6713865 0.9654846
v -0.7561847 0.6543577 0.9686279
v 0.7561237 -0.6544187 0.9686279
v -0.7701616 0.6378477 0.9717560
v 0.7701006 -0.6379087 0.9717560
v -0.7829483 0.6220701 0.9748993
v 0.7828873 -0.6221311 0.9748993
v -0.7939345 0.6080015 0.9780273
v 0.7938734 -0.6080625 0.9780273
v -0.8027539 0.5962827 0.9811707
v 0.8026929 -0.5963438 0.9811707
v -0.8097118 0.5867918 0.9842987
v 0.8096508 -0.5868528 0.9842987
v -0.8150829 0.5793150 0.9874420
v 0.8150218 -0.5793760 0.9874420
v -0.8190806 0.5736692 0.9905701
v 0.8190196 -0.5737303 0.9905701
v -0.8218272 0.5697325 0.9937134
v 0.8217661 -0.5697935 0.9937134
v -0.8234446 0.5673826 0.9968414
v 0.8233835 -0.5674436 0.9968414
v -0.8239634 0.5666197 0.9999847
v 0.8239023 -0.5666807 0.9999847
f 1 4 2
f 4 1 3
f 3 6 4
f 6 3 5
f 5 8 6
f 8 5 7
f 7 10 8
f 10 7 9
f 9 12 10
f 12 9 11
f 11 14 12
f 14 11 13
f 13 16 14
f 16 13 15
f 15 18 16
f 18 15 17
f 17 20 18
f 20 17 19
f 19 22 20
f 22 19 21
f 21 24 22
f 24 21 23
f 23 26 24
f 26 23 25
f 25 28 26
f 28 25 27
f 27 30 28
f 30 27 29
f 29 32 30
f 32 29 31
f 31 34 32
f 34 31 33
f 33 36 34
f 36 33 35
f 35 38 36
f 38 35 37
f 37 40 38
f 40 37 39
f 39 42 40
f 42 39 41
f 41 44 42
f 44 41 43
f 43 46 44
f 46 43 45
f 45 48 46
f 48 45 47
f 47 50 48
f 50 47 49
f 49 52 50
f 52 49 51
f 51 54 52
f 54 51 53
f 53 56 54
f 56 53 55
f 55 58 56
f 58 55 57
f 57 60 58
f 60 57 59
f 59 62 60
f 62 59 61
f 61 64 62
f 64 61 63
f 63 66 64
f 66 63 65
f 65 68 66
f 68 65 67
f 67 70 68
f 70 67 69
f 69 72 70
f 72 69 71
f 71 74 72
f 74 71 73
f 73 76 74
f 76 73 75
f 75 78 76
f 78 75 77
f 77 80 78
f 80 77 79
f 79 82 80
f 82 79 81
f 81 84 82
f 84 81 83
f 83 86 84
f 86 83 85
f 85 88 86
f 88 85 87
f 87 90 88
f 90 87 89
f 89 92 90
f 92 89 91
f 91 94 92
f 94 91 93
f 93 96 94
f 96 93 95
f 95 98 96
f 98 95 97
f 97 100 98
f 100 97 99
f 99 102 100
f 102 99 101
f 101 104 102
f 104 101 103
f 103 106 104
f 106 103 105
f 105 108 106
f 108 105 107
f 107 110 108
f 110 107 109
f 109 112 110
f 112 109 111
f 111 114 112
f 114 111 113
f 113 116 114
f 116 113 115
f 115 118 116
f 118 115 117
f 117 120 118
f 120 117 119
f 119 122 120
f 122 119 121
f 121 124 122
f 124 121 123
f 123 126 124
f 126 123 125
f 125 128 126
f 128 125 127
f 127 130 128
f 130 127 129
f 129 132 130
f 132 129 131
f 131 134 132
f 134 131 133
f 133 136 134
f 136 133 135
f 135 138 136
f 138 135 137
f 137 140 138
f 140 137 139
f 139 142 140
f 142 139 141
f 141 144 142
f 144 141 143
f 143 146 144
f 146 143 145
f 145 148 146
f 148 145 147
f 147 150 148
f 150 147 149
f 149 152 150
f 152 149 151
f 151 154 152
f 154 151 153
f 153 156 154
f 156 153 155
f 155 158 156
f 158 155 157
f 157 160 158
f 160 157 159
f 159 162 160
f 162 159 161
f 161 164 162
f 164 161 163
f 163 166 164
f 166 163 165
f 165 168 166
f 168 165 167
f 167 170 168
f 170 167 169
f 169 172 170
f 172 169 171
f 171 174 172
f 174 171 173
f 173 176 174
f 176 173 175
f 175 178 176
f 178 175 177
f 177 180 178
f 180 177 179
f 179 182 180
f 182 179 181
f 181 184 182
f 184 181 183
f 183 186 184
f 186 183 185
f 185 188 186
f 188 185 187
f 187 190 188
f 190 187 189
f 189 192 190
f 192 189 191
f 191 194 192
f 194 191 193
f 193 196 194
f 196 193 195
f 195 198 196
f 198 195 197
f 197 200 198
f 200 197 199
f 199 202 200
f 202 199 201
f 201 204 202
f 204 201 203
f 203 206 204
f 206 203 205
f 205 208 206
f 208 205 207
f 207 210 208
f 210 207 209
f 209 212 210
f 212 209 211
f 211 214 212
f 214 211 213
f 213 216 214
f 216 213 215
f 215 218 216
f 218 215 217
f 217 220 218
f 220 217 219
f 219 222 220
f 222 219 221
f 221 224 222
f 224 221 223
f 223 226 224
f 226 223 225
f 225 228 226
f 228 225 227
f 227 230 228
f 230 227 229
f 229 232 230
f 232 229 231
f 231 234 232
f 234 231 233
f 233 236 234
f 236 233 235
f 235 238 236
f 238 235 237
f 237 240 238
f 240 237 239
f 239 242 240
f 242 239 241
f 241 244 242
f 244 241 243
f 243 246 244
f 246 243 245
f 245 248 246
f 248 245 247
f 247 250 248
f 250 247 249
f 249 252 250
f 252 249 251
f 251 254 252
f 254 251 253
f 253 256 254
f 256 253 255
f 255 258 256
f 258 255 257
f 257 260 258
f 260 257 259
f 259 262 260
f 262 259 261
f 261 264 262
f 264 261 263
f 263 266 264
f 266 263 265
f 265 268 266
f 268 265 267
f 267 270 268
f 270 267 269
f 269 272 270
f 272 269 271
f 271 274 272
f 274 271 273
f 273 276 274
f 276 273 275
f 275 278 276
f 278 275 277
f 277 280 278
f 280 277 279
f 279 282 280
f 282 279 281
f 281 284 282
f 284 281 283
f 283 286 284
f 286 283 285
f 285 288 286
f 288 285 287
f 287 290 288
f 290 287 289
f 289 292 290
f 292 289 291
f 291 294 292
f 294 291 293
f 293 296 294
f 296 293 295
f 295 298 296
f 298 295 297
f 297 300 298
f 300 297 299
f 299 302 300
f 302 299 301
f 301 304 302
f 304 301 303
f 303 306 304
f 306 303 305
f 305 308 306
f 308 305 307
f 307 310 308
f 310 307 309
f 309 312 310
f 312 309 311
f 311 314 312
f 314 311 313
f 313 316 314
f 316 313 315
f 315 318 316
f 318 315 317
f 317 320 318
f 320 317 319
f 319 322 320
f 322 319 321
f 321 324 322
f 324 321 323
f 323 326 324
f 326 323 325
f 325 328 326
f 328 325 327
f 327 330 328
f 330 327 329
f 329 332 330
f 332 329 331
f 331 334 332
f 334 331 333
f 333 336 334
f 336 333 335
f 335 338 336
f 338 335 337
f 337 340 338
f 340 337 339
f 339 342 340
f 342 339 341
f 341 344 342
f 344 341 343
f 343 346 344
f 346 343 345
f 345 348 346
f 348 345 347
f 347 350 348
f 350 347 349
f 349 352 350
f 352 349 351
f 351 354 352
f 354 351 353
f 353 356 354
f 356 353 355
f 355 358 356
f 358 355 357
f 357 360 358
f 360 357 359
f 359 362 360
f 362 359 361
f 361 364 362
f 364 361 363
f 363 366 364
f 366 363 365
f 365 368 366
f 368 365 367
f 367 370 368
f 370 367 369
f 369 372 370
f 372 369 371
f 371 374 372
f 374 371 373
f 373 376 374
f 376 373 375
f 375 378 376
f 378 375 377
f 377 380 378
f 380 377 379
f 379 382 380
f 382 379 381
f 381 384 382
f 384 381 383
f 383 386 384
f 386 383 385
f 385 388 386
f 388 385 387
f 387 390 388
f 390 387 389
f 389 392 390
f 392 389 391
f 391 394 392
f 394 391 393
f 393 396 394
f 396 393 395
f 395 398 396
f 398 395 397
f 397 400 398
f 400 397 399
f 399 402 400
f 402 399 401
f 401 404 402
f 404 401 403
f 403 406 404
f 406 403 405
f 405 408 406
f 408 405 407
f 407 410 408
f 410 407 409
f 409 412 410
f 412 409 411
f 411 414 412
f 414 411 413
f 413 416 414
f 416 413 415
f 415 418 416
f 418 415 417
f 417 420 418
f 420 417 419
f 419 422 420
f 422 419 421
f 421 424 422
f 424 421 423
f 423 426 424
f 426 423 425
f 425 428 426
f 428 425 427
f 427 430 428
f 430 427 429
f 429 432 430
f 432 429 431
f 431 434 432
f 434 431 433
f 433 436 434
f 436 433 435
f 435 438 436
f 438 435 437
f 437 440 438
f 440 437 439
f 439 442 440
f 442 439 441
f 441 444 442
f 444 441 443
f 443 446 444
f 446 443 445
f 445 448 446
f 448 445 447
f 447 450 448
f 450 447 449
f 449 452 450
f 452 449 451
f 451 454 452
f 454 451 453
f 453 456 454
f 456 453 455
f 455 458 456
f 458 455 457
f 457 460 458
f 460 457 459
f 459 462 460
f 462 459 461
f 461 464 462
f 464 461 463
f 463 466 464
f 466 463 465
f 465 468 466
f 468 465 467
f 467 470 468
f 470 467 469
f 469 472 470
f 472 469 471
f 471 474 472
f 474 471 473
f 473 476 474
f 476 473 475
f 475 478 476
f 478 475 477
f 477 480 478
f 480 477 479
f 479 482 480
f 482 479 481
f 481 484 482
f 484 481 483
f 483 486 484
f 486 483 485
f 485 488 486
f 488 485 487
f 487 490 488
f 490 487 489
f 489 492 490
f 492 489 491
f 491 494 492
f 494 491 493
f 493 496 494
f 496 493 495
f 495 498 496
f 498 495 497
f 497 500 498
f 500 497 499
f 499 502 500
f 502 499 501
f 501 504 502
f 504 501 503
f 503 506 504
f 506 503 505
f 505 508 506
f 508 505 507
f 507 510 508
f 510 507 509
f 509 512 510
f 512 509 511
f 511 514 512
f 514 511 513
f 513 516 514
f 516 513 515
f 515 518 516
f 518 515 517
f 517 520 518
f 520 517 519
f 519 522 520
f 522 519 521
f 521 524 522
f 524 521 523
f 523 526 524
f 526 523 525
f 525 528 526
f 528 525 527
f 527 530 528
f 530 527 529
f 529 532 530
f 532 529 531
f 531 534 532
f 534 531 533
f 533 536 534
f 536 533 535
f 535 538 536
f 538 535 537
f 537 540 538
f 540 537 539
f 539 542 540
f 542 539 541
f 541 544 542
f 544 541 543
f 543 546 544
f 546 543 545
f 545 548 546
f 548 545 547
f 547 550 548
f 550 547 549
f 549 552 550
f 552 549 551
f 551 554 552
f 554 551 553
f 553 556 554
f 556 553 555
f 555 558 556
f 558 555 557
f 557 560 558
f 560 557 559
f 559 562 560
f 562 559 561
f 561 564 562
f 564 561 563
f 563 566 564
f 566 563 565
f 565 568 566
f 568 565 567
f 567 570 568
f 570 567 569
f 569 572 570
f 572 569 571
f 571 574 572
f 574 571 573
f 573 576 574
f 576 573 575
f 575 578 576
f 578 575 577
f 577 580 578
f 580 577 579
f 579 582 580
f 582 579 581
f 581 584 582
f 584 581 583
f 583 586 584
f 586 583 585
f 585 588 586
f 588 585 587
f 587 590 588
f 590 587 589
f 589 592 590
f 592 589 591
f 591 594 592
f 594 591 593
f 593 596 594
f 596 593 595
f 595 598 596
f 598 595 597
f 597 600 598
f 600 597 599
f 599 602 600
f 602 599 601
f 601 604 602
f 604 601 603
f 603 606 604
f 606 603 605
f 605 608 606
f 608 605 607
f 607 610 608
f 610 607 609
f 609 612 610
f 612 609 611
f 611 614 612
f 614 611 613
f 613 616 614
f 616 613 615
f 615 618 616
f 618 615 617
f 617 620 618
f 620 617 619
f 619 622 620
f 622 619 621
f 621 624 622
f 624 621 623
f 623 626 624
f 626 623 625
f 625 628 626
f 628 625 627
f 627 630 628
f 630 627 629
f 629 632 630
f 632 629 631
f 631 634 632
f 634 631 633
f 633 636 634
f 636 633 635
f 635 638 636
f 638 635 637
f 637 640 638
f 640 637 639
