# Decoded from sources/assets/lusion.dev/assets/models/about/rock_1.buf
# Position/index data decoded from public .buf header and payload.
v 0.0116914 -0.0673478 0.1806564
v -0.1648036 -0.0992953 0.0315524
v -0.1185657 -0.0983782 0.0831303
v -0.0643526 -0.0840446 0.1442821
v -0.0932025 -0.0981502 0.1114131
v -0.0608334 -0.0801579 0.1483974
v -0.0532225 -0.0794737 0.1569117
v -0.0285814 -0.0748883 0.1846112
v 0.0632699 0.1083634 0.0296579
v 0.0750896 0.1111777 0.0268323
v -0.0107575 0.1351820 -0.0000377
v 0.0034690 0.1317563 0.0038261
v -0.0859234 0.1522136 -0.0193192
v 0.1575215 0.1075967 0.0318788
v 0.1641697 0.1065875 0.0330508
v 0.1660041 0.1060197 0.0336823
v -0.0743574 0.1521553 -0.0190837
v 0.0380498 0.1188346 0.0181147
v 0.0094341 0.1309363 0.0047894
v -0.0346246 -0.0338864 0.1799393
v 0.1859356 0.0377043 0.0466276
v 0.2051189 0.0217645 0.0402593
v 0.2092757 0.0017876 0.0446422
v 0.1705511 0.0612331 0.0479815
v 0.1677084 0.1009394 0.0359085
v 0.1668628 0.1046708 0.0351325
v 0.0158936 -0.0290778 0.1755617
v -0.1578887 0.0842621 -0.0923032
v -0.1164320 0.1454640 -0.0535047
v -0.1081121 0.1551298 -0.0227602
v -0.1391607 0.1164085 -0.1142230
v -0.1511365 0.0967373 -0.1079136
v -0.1280565 0.1336972 -0.1116757
v -0.1244918 0.1384379 -0.1037341
v -0.1194113 0.1424411 -0.0684087
v -0.1500046 0.0797009 0.0570684
v 0.0254105 -0.0646548 0.1763110
v 0.0152757 -0.0666539 0.1802978
v 0.0266985 -0.0554791 0.1780502
v -0.1582790 -0.0821910 -0.0391038
v -0.1563340 -0.0745292 -0.0554045
v -0.1578952 -0.0934386 -0.0276515
v -0.1630017 -0.0471914 -0.0611306
v -0.1730064 -0.0092222 -0.0661932
v -0.1823412 0.0265683 -0.0713467
v -0.1703524 -0.0978008 0.0254409
v -0.1626504 -0.0951903 -0.0072783
v -0.1853985 0.0385583 -0.0733374
v -0.1968409 0.0119144 0.0014608
v 0.1890905 -0.0664404 0.0372517
v 0.1889799 -0.0670373 0.0370216
v 0.0399103 -0.0682455 0.1628251
v 0.0271018 -0.0648198 0.1755189
v 0.1889019 -0.0673963 0.0368985
v 0.1734914 -0.0737431 0.0465741
v 0.1882839 -0.0678816 0.0371661
v 0.0846390 -0.0745729 0.1214953
v 0.1231098 -0.0720594 0.0902104
v 0.1093451 -0.0656204 0.1053338
v 0.2062768 -0.0125557 0.0515082
v 0.1899297 -0.0644122 0.0376263
v 0.0324490 -0.0571823 0.1750694
v -0.0285814 -0.0748883 0.1846112
v -0.0346246 -0.0338864 0.1799393
v -0.0346246 -0.0338864 0.1799393
v 0.1668628 0.1046708 0.0351325
v 0.0158936 -0.0290778 0.1755617
v 0.0158936 -0.0290778 0.1755617
v -0.1081121 0.1551298 -0.0227602
v -0.1500046 0.0797009 0.0570684
v -0.1500046 0.0797009 0.0570684
v 0.0152757 -0.0666539 0.1802978
v 0.0266985 -0.0554791 0.1780502
v 0.0266985 -0.0554791 0.1780502
v -0.1703524 -0.0978008 0.0254409
v -0.1853985 0.0385583 -0.0733374
v -0.1968409 0.0119144 0.0014608
v -0.1968409 0.0119144 0.0014608
v 0.0271018 -0.0648198 0.1755189
v 0.2062768 -0.0125557 0.0515082
v 0.0324490 -0.0571823 0.1750694
v 0.0324490 -0.0571823 0.1750694
v -0.0129823 0.0989694 -0.1066774
v 0.1424623 0.0529454 0.0176223
v -0.0766081 -0.0967430 0.0799783
v -0.1318750 -0.0970535 -0.0297118
v 0.0814905 0.0737132 0.0289248
v -0.0098859 0.0635816 -0.0976440
v 0.0046334 0.1307810 0.0018354
v 0.1374665 -0.0099500 -0.0819427
v 0.0024932 -0.0825015 -0.1217473
v -0.0043761 -0.0054956 -0.1128263
v -0.0482201 -0.0785275 0.1449136
v 0.0570120 -0.1140802 -0.1157803
v 0.1618994 -0.0898673 0.0318788
v 0.0762214 -0.0999892 -0.0788602
v 0.1832750 0.0221915 -0.0091513
v 0.1862998 0.0097406 0.0290318
v -0.1117744 0.0656535 -0.1012403
v -0.0750534 0.1215083 -0.1193123
v 0.1035752 -0.0708124 -0.0764734
v -0.0153241 0.0440317 -0.1142819
v -0.1033113 0.1426934 -0.0543342
v 0.0996851 -0.0796047 0.0980236
v 0.1652365 0.1058159 0.0320019
v 0.1542755 -0.1017215 -0.0339556
v 0.0735023 -0.0998097 -0.0264100
v -0.1272304 -0.0215470 -0.0772119
v 0.0779128 0.0453952 -0.0969965
v -0.0287440 0.1301842 -0.0965791
v 0.0093300 0.0883962 -0.0092209
v 0.0506046 0.0247778 -0.1314978
v -0.0495862 -0.1053849 -0.0742418
v -0.0269746 -0.1186899 -0.0558005
v -0.0673775 -0.1129788 -0.0481746
v 0.0236346 -0.0945595 0.0835852
v 0.0651499 -0.1027162 0.0142348
v 0.1309874 0.0226234 -0.0835588
v 0.0116914 -0.0673478 0.1806564
v -0.1648036 -0.0992953 0.0315524
v -0.1185657 -0.0983782 0.0831303
v -0.0643526 -0.0840446 0.1442821
v -0.0932025 -0.0981502 0.1114131
v -0.0608334 -0.0801579 0.1483974
v -0.0532225 -0.0794737 0.1569117
v -0.0285814 -0.0748883 0.1846112
v 0.0632699 0.1083634 0.0296579
v 0.0750896 0.1111777 0.0268323
v -0.0107575 0.1351820 -0.0000377
v 0.0034690 0.1317563 0.0038261
v -0.0859234 0.1522136 -0.0193192
v 0.1575215 0.1075967 0.0318788
v 0.1641697 0.1065875 0.0330508
v 0.1660041 0.1060197 0.0336823
v -0.0743574 0.1521553 -0.0190837
v 0.0380498 0.1188346 0.0181147
v 0.0094341 0.1309363 0.0047894
v 0.1859356 0.0377043 0.0466276
v 0.2051189 0.0217645 0.0402593
v 0.2092757 0.0017876 0.0446422
v 0.1705511 0.0612331 0.0479815
v 0.1677084 0.1009394 0.0359085
v 0.1668628 0.1046708 0.0351325
v -0.1578887 0.0842621 -0.0923032
v -0.1164320 0.1454640 -0.0535047
v -0.1081121 0.1551298 -0.0227602
v -0.1391607 0.1164085 -0.1142230
v -0.1511365 0.0967373 -0.1079136
v -0.1280565 0.1336972 -0.1116757
v -0.1244918 0.1384379 -0.1037341
v -0.1194113 0.1424411 -0.0684087
v 0.0254105 -0.0646548 0.1763110
v 0.0152757 -0.0666539 0.1802978
v -0.1582790 -0.0821910 -0.0391038
v -0.1563340 -0.0745292 -0.0554045
v -0.1578952 -0.0934386 -0.0276515
v -0.1630017 -0.0471914 -0.0611306
v -0.1730064 -0.0092222 -0.0661932
v -0.1823412 0.0265683 -0.0713467
v -0.1703524 -0.0978008 0.0254409
v -0.1626504 -0.0951903 -0.0072783
v -0.1853985 0.0385583 -0.0733374
v 0.1890905 -0.0664404 0.0372517
v 0.1889799 -0.0670373 0.0370216
v 0.0399103 -0.0682455 0.1628251
v 0.0271018 -0.0648198 0.1755189
v 0.1889019 -0.0673963 0.0368985
v 0.1734914 -0.0737431 0.0465741
v 0.1882839 -0.0678816 0.0371661
v 0.0846390 -0.0745729 0.1214953
v 0.1231098 -0.0720594 0.0902104
v 0.1093451 -0.0656204 0.1053338
v 0.2062768 -0.0125557 0.0515082
v 0.1899297 -0.0644122 0.0376263
v -0.1318750 -0.0970535 -0.0297118
v 0.0762214 -0.0999892 -0.0788602
v 0.1542755 -0.1017215 -0.0339556
v -0.0269746 -0.1186899 -0.0558005
v -0.0673775 -0.1129788 -0.0481746
v -0.1578952 -0.0934386 -0.0276515
v 0.1889019 -0.0673963 0.0368985
v -0.0964876 0.0528871 -0.0464407
v -0.0593763 0.0409165 -0.1555207
v -0.0679954 0.0459241 -0.1291110
v -0.0875952 0.0492673 -0.0729521
v 0.1145427 -0.0095667 -0.1119915
v 0.1263623 -0.0067524 -0.1148171
v 0.0405087 0.0172471 -0.1416924
v 0.0547418 0.0138213 -0.1378286
v 0.2088008 -0.0103334 -0.1097706
v 0.2154425 -0.0113427 -0.1085986
v 0.2172834 -0.0119104 -0.1079618
v -0.0230846 0.0342204 -0.1607385
v -0.0346506 0.0342786 -0.1609739
v 0.0893291 0.0009045 -0.1235347
v 0.0607134 0.0130013 -0.1368600
v -0.0568393 0.0371948 -0.1644096
v 0.1846736 0.0118610 -0.0626719
v 0.1453571 0.0274999 -0.0143797
v 0.0486010 0.0715782 0.1057458
v 0.1274617 0.0431146 0.0095683
v 0.1205143 0.0576036 0.0208172
v 0.0743025 0.0724322 0.0767459
v 0.1918096 0.0060431 -0.0721280
v 0.2181225 -0.0116872 -0.1061316
v 0.2181421 -0.0132593 -0.1065169
v 0.1987830 0.0043836 -0.0804389
v 0.0189055 0.0612137 0.1364100
v 0.0195885 0.0610778 0.1362602
v -0.0934432 0.0437454 0.1430245
v 0.0177671 0.0612185 0.1365599
v -0.0459043 0.0470110 0.1383205
v 0.0671664 -0.1470128 0.0339070
v -0.1342559 -0.0010364 0.0323818
v -0.0987318 -0.0382292 -0.0845810
v 0.0166482 -0.1518214 0.0382846
v -0.1220003 -0.0120268 0.1209870
v -0.1110393 0.0603597 0.0581226
v -0.1184616 0.0582538 0.0173120
v -0.1037277 0.0652653 0.0874329
v -0.1056076 0.0646442 0.0774202
v -0.0948353 0.0749311 0.1088283
v -0.1361423 0.0200274 0.0478852
v -0.1253504 0.0160243 0.1343872
v -0.1102717 0.0395433 0.1432814
v -0.0568393 0.0371948 -0.1644096
v 0.2181421 -0.0132593 -0.1065169
v 0.0195885 0.0610778 0.1362602
v 0.0671664 -0.1470128 0.0339070
v 0.0671664 -0.1470128 0.0339070
v -0.1342559 -0.0010364 0.0323818
v -0.1342559 -0.0010364 0.0323818
v -0.0987318 -0.0382292 -0.0845810
v -0.0987318 -0.0382292 -0.0845810
v 0.0166482 -0.1518214 0.0382846
v 0.0166482 -0.1518214 0.0382846
v -0.1220003 -0.0120268 0.1209870
v -0.1220003 -0.0120268 0.1209870
v -0.1184616 0.0582538 0.0173120
v -0.1361423 0.0200274 0.0478852
v -0.1361423 0.0200274 0.0478852
v -0.1253504 0.0160243 0.1343872
v -0.1253504 0.0160243 0.1343872
v -0.1102717 0.0395433 0.1432814
v -0.0428599 0.0732813 0.1238928
v 0.0329629 0.0803948 0.1009027
v 0.0190616 0.0438522 -0.0766821
v 0.1906062 0.0066351 -0.0841475
v 0.0904610 0.0548135 -0.0034840
v -0.0292969 0.0372094 -0.1501853
v 0.1019814 0.0143163 -0.1114831
v -0.0964876 0.0528871 -0.0464407
v -0.0593763 0.0409165 -0.1555207
v -0.0679954 0.0459241 -0.1291110
v -0.0875952 0.0492673 -0.0729521
v 0.1145427 -0.0095667 -0.1119915
v 0.1263623 -0.0067524 -0.1148171
v 0.0405087 0.0172471 -0.1416924
v 0.0547418 0.0138213 -0.1378286
v 0.2088008 -0.0103334 -0.1097706
v 0.2154425 -0.0113427 -0.1085986
v 0.2172834 -0.0119104 -0.1079618
v -0.0230846 0.0342204 -0.1607385
v -0.0346506 0.0342786 -0.1609739
v 0.0893291 0.0009045 -0.1235347
v 0.0607134 0.0130013 -0.1368600
v -0.0568393 0.0371948 -0.1644096
v 0.1846736 0.0118610 -0.0626719
v 0.1453571 0.0274999 -0.0143797
v 0.0486010 0.0715782 0.1057458
v 0.1274617 0.0431146 0.0095683
v 0.1205143 0.0576036 0.0208172
v 0.0743025 0.0724322 0.0767459
v 0.1918096 0.0060431 -0.0721280
v 0.2181225 -0.0116872 -0.1061316
v 0.2181421 -0.0132593 -0.1065169
v 0.1987830 0.0043836 -0.0804389
v 0.0189055 0.0612137 0.1364100
v 0.0195885 0.0610778 0.1362602
v -0.0934432 0.0437454 0.1430245
v 0.0177671 0.0612185 0.1365599
v -0.0459043 0.0470110 0.1383205
v -0.1110393 0.0603597 0.0581226
v -0.1184616 0.0582538 0.0173120
v -0.1037277 0.0652653 0.0874329
v -0.1056076 0.0646442 0.0774202
v -0.0948353 0.0749311 0.1088283
v -0.1102717 0.0395433 0.1432814
v 0.0760783 0.0007978 -0.0131328
v 0.0922824 0.0153595 0.0375621
v 0.0833900 0.0057034 0.0161667
v 0.0815100 0.0050824 0.0061647
v -0.0972747 0.0172325 -0.0371023
v -0.1055491 0.0183000 -0.0350634
v -0.1231127 -0.0248757 0.0242208
v 0.0177801 0.0110652 -0.0759971
v -0.1220849 -0.0152002 0.0121049
v -0.1243096 0.0048689 -0.0112598
v -0.0236505 0.0355062 -0.0888568
v -0.0734597 0.0521302 -0.0888943
v -0.0841930 0.0481513 -0.0797593
v -0.1013728 0.0366417 -0.0589204
v -0.0572166 0.0497186 -0.0925226
v 0.0685715 -0.0013081 -0.0539703
v 0.0686561 -0.0013130 -0.0539435
v 0.0390191 0.0054608 -0.0672099
v 0.0202780 0.0103859 -0.0761844
v 0.0574804 -0.0369579 0.0854475
v 0.0768459 -0.0200186 0.0720152
v 0.0522569 -0.0420868 0.0880162
v 0.0539937 -0.0402332 0.0874383
v -0.1014314 -0.0399760 0.0429404
v -0.1130169 -0.0395636 0.0379100
v -0.0116292 -0.0414851 0.0438180
v 0.0301332 -0.0431300 0.0655292
v -0.0312354 -0.0411697 0.0439732
v 0.0509754 -0.0395393 -0.0233703
v 0.0617672 -0.0435425 0.0631210
v 0.0433970 -0.0393258 -0.0253825
v 0.0504745 -0.0444450 0.0877487
v 0.0686561 -0.0013130 -0.0539435
v 0.0202780 0.0103859 -0.0761844
v 0.0768459 -0.0200186 0.0720152
v -0.1130169 -0.0395636 0.0379100
v 0.0509754 -0.0395393 -0.0233703
v 0.0509754 -0.0395393 -0.0233703
v 0.0617672 -0.0435425 0.0631210
v 0.0617672 -0.0435425 0.0631210
v 0.0433970 -0.0393258 -0.0253825
v 0.0433970 -0.0393258 -0.0253825
v 0.0504745 -0.0444450 0.0877487
v 0.0238948 0.0175285 0.0177454
v 0.0530570 -0.0395393 0.0871225
v -0.0915502 0.0331383 -0.0201808
v -0.0577110 0.0387184 0.0097824
v 0.0608370 0.0027290 0.0026595
v -0.0493585 0.0493983 -0.0587652
v 0.0105010 0.0138068 -0.0318096
v 0.0760783 0.0007978 -0.0131328
v 0.0922824 0.0153595 0.0375621
v 0.0833900 0.0057034 0.0161667
v 0.0815100 0.0050824 0.0061647
v -0.0972747 0.0172325 -0.0371023
v -0.1055491 0.0183000 -0.0350634
v -0.1231127 -0.0248757 0.0242208
v 0.0177801 0.0110652 -0.0759971
v -0.1220849 -0.0152002 0.0121049
v -0.1243096 0.0048689 -0.0112598
v -0.0236505 0.0355062 -0.0888568
v -0.0734597 0.0521302 -0.0888943
v -0.0841930 0.0481513 -0.0797593
v -0.1013728 0.0366417 -0.0589204
v -0.0572166 0.0497186 -0.0925226
v 0.0685715 -0.0013081 -0.0539703
v 0.0686561 -0.0013130 -0.0539435
v 0.0390191 0.0054608 -0.0672099
v 0.0202780 0.0103859 -0.0761844
v 0.0574804 -0.0369579 0.0854475
v 0.0768459 -0.0200186 0.0720152
v 0.0522569 -0.0420868 0.0880162
v 0.0539937 -0.0402332 0.0874383
v -0.1014314 -0.0399760 0.0429404
v -0.1130169 -0.0395636 0.0379100
v -0.0116292 -0.0414851 0.0438180
v 0.0301332 -0.0431300 0.0655292
v -0.0312354 -0.0411697 0.0439732
v 0.0504745 -0.0444450 0.0877487
v -0.1185722 0.1005706 -0.0300543
v -0.1302618 0.0635040 -0.0151450
v -0.1458348 -0.0448720 0.0432133
v -0.1111044 0.1109982 -0.0309320
v -0.1029991 0.1122889 -0.0253343
v -0.0816951 0.1123908 -0.0084824
v 0.0282597 0.0684436 0.1075065
v -0.1267230 0.0468024 -0.0014344
v -0.1433759 -0.0079655 0.0210794
v -0.0745395 0.1089214 -0.0005407
v -0.0674815 0.1080577 0.0056242
v 0.0031242 0.0840146 0.0773774
v 0.1378503 0.0388640 -0.0410464
v 0.1292376 0.0438667 -0.0146313
v 0.1096379 0.0472100 0.0415222
v 0.1007455 0.0508346 0.0680337
v -0.1432914 -0.0763682 0.0319858
v -0.1474481 -0.0539603 0.0478638
v 0.0629707 -0.0030938 0.1468615
v 0.0234070 -0.0778045 -0.0898469
v -0.1373067 -0.0816039 0.0012039
v -0.1453144 -0.0882175 0.0223852
v -0.0668310 -0.0678379 -0.0700570
v -0.0291863 -0.0731075 -0.0754299
v -0.0736874 -0.0675953 -0.0672260
v -0.0067179 -0.0751697 -0.0814450
v -0.0837702 -0.0698856 -0.0561965
v -0.0085328 -0.1205241 0.0369467
v 0.1320738 0.0254717 -0.0806851
v 0.1403937 0.0351375 -0.0499352
v 0.1204493 0.0137097 -0.1388507
v 0.1093451 -0.0035741 -0.1413981
v 0.1240140 0.0184456 -0.1309144
v 0.1290945 0.0224536 -0.0955891
v 0.0906171 -0.0357254 -0.1194782
v 0.0973759 -0.0232502 -0.1350886
v 0.0985012 -0.0402817 0.0298934
v 0.0516714 -0.1080731 -0.0257143
v 0.0631138 -0.0814292 -0.1005125
v 0.0491344 0.0629702 0.1185306
v 0.0786804 0.0562013 0.1317649
v 0.0303934 0.0679001 0.1095561
v 0.0787714 0.0561964 0.1317917
v 0.0610907 0.0179700 0.1623649
v 0.0535058 0.0181835 0.1603581
v -0.1474481 -0.0539603 0.0478638
v 0.0629707 -0.0030938 0.1468615
v 0.0629707 -0.0030938 0.1468615
v -0.1453144 -0.0882175 0.0223852
v -0.0085328 -0.1205241 0.0369467
v -0.0085328 -0.1205241 0.0369467
v 0.1403937 0.0351375 -0.0499352
v 0.0985012 -0.0402817 0.0298934
v 0.0985012 -0.0402817 0.0298934
v 0.0516714 -0.1080731 -0.0257143
v 0.0516714 -0.1080731 -0.0257143
v 0.0631138 -0.0814292 -0.1005125
v 0.0303934 0.0679001 0.1095561
v 0.0787714 0.0561964 0.1317917
v 0.0610907 0.0179700 0.1623649
v 0.0610907 0.0179700 0.1623649
v 0.0535058 0.0181835 0.1603581
v 0.0535058 0.0181835 0.1603581
v -0.0866259 0.0440754 -0.0618263
v -0.0285553 0.0593698 -0.0705653
v -0.1356089 -0.0736073 0.0063949
v -0.1023876 0.1085381 -0.0482228
v 0.0853806 0.0217742 -0.1337989
v 0.0404047 0.0638727 0.0337411
v 0.0190681 -0.0068543 -0.1056178
v -0.0693745 -0.0613358 -0.0666534
v 0.0758376 -0.0062380 -0.1387384
v -0.0754697 0.1083828 -0.0286844
v 0.0868897 0.0519167 0.0716566
v -0.0461775 0.0526203 -0.0831307
v -0.1185722 0.1005706 -0.0300543
v -0.1302618 0.0635040 -0.0151450
v -0.1458348 -0.0448720 0.0432133
v -0.1111044 0.1109982 -0.0309320
v -0.1029991 0.1122889 -0.0253343
v -0.0816951 0.1123908 -0.0084824
v 0.0282597 0.0684436 0.1075065
v -0.1267230 0.0468024 -0.0014344
v -0.1433759 -0.0079655 0.0210794
v -0.0745395 0.1089214 -0.0005407
v -0.0674815 0.1080577 0.0056242
v 0.0031242 0.0840146 0.0773774
v 0.1378503 0.0388640 -0.0410464
v 0.1292376 0.0438667 -0.0146313
v 0.1096379 0.0472100 0.0415222
v 0.1007455 0.0508346 0.0680337
v -0.1432914 -0.0763682 0.0319858
v -0.1474481 -0.0539603 0.0478638
v 0.0234070 -0.0778045 -0.0898469
v -0.1373067 -0.0816039 0.0012039
v -0.1453144 -0.0882175 0.0223852
v -0.0668310 -0.0678379 -0.0700570
v -0.0291863 -0.0731075 -0.0754299
v -0.0736874 -0.0675953 -0.0672260
v -0.0067179 -0.0751697 -0.0814450
v -0.0837702 -0.0698856 -0.0561965
v 0.1320738 0.0254717 -0.0806851
v 0.1403937 0.0351375 -0.0499352
v 0.1204493 0.0137097 -0.1388507
v 0.1093451 -0.0035741 -0.1413981
v 0.1240140 0.0184456 -0.1309144
v 0.1290945 0.0224536 -0.0955891
v 0.0906171 -0.0357254 -0.1194782
v 0.0973759 -0.0232502 -0.1350886
v 0.0631138 -0.0814292 -0.1005125
v 0.0491344 0.0629702 0.1185306
v 0.0786804 0.0562013 0.1317649
v 0.0303934 0.0679001 0.1095561
v 0.0787714 0.0561964 0.1317917
v -0.1201204 -0.0124684 -0.0114792
v -0.0962143 -0.0088922 0.0144703
v -0.0702722 -0.0296746 0.0651813
v -0.0970470 -0.0079121 0.0125545
v -0.0970275 -0.0087758 0.0133679
v -0.0573402 -0.0403108 0.0906973
v -0.0466199 -0.0436541 0.1068589
v -0.1010931 -0.0090136 0.0086211
v -0.0096582 -0.0265206 0.1363726
v -0.0173016 -0.0360214 0.1357143
v -0.0408434 -0.0435716 0.1138427
v -0.0230456 -0.0373946 0.1299507
v 0.0387133 -0.0151663 -0.1525988
v 0.0386093 -0.0157631 -0.1528289
v -0.0410255 -0.0143462 -0.0845168
v -0.0657252 -0.0232987 -0.0683552
v -0.1104604 -0.0169713 -0.0270254
v -0.1232623 -0.0135456 -0.0143316
v 0.0395525 -0.0131380 -0.1522242
v 0.0385312 -0.0161222 -0.1529520
v 0.0231207 -0.0224690 -0.1432764
v 0.0379067 -0.0166074 -0.1526844
v -0.0272608 -0.0207852 -0.0996402
v -0.0332975 0.0168831 -0.0526164
v -0.0165405 0.0211143 -0.0659737
v -0.0143613 0.0218858 -0.0631374
v -0.0291538 0.0181593 -0.0511340
v -0.0047404 0.0245400 -0.0661022
v 0.0610842 0.0464190 -0.0090175
v 0.0858099 0.0506454 -0.0708490
v -0.0117463 0.0224196 -0.0678040
v 0.0580854 0.0410136 -0.1035842
v 0.0862652 0.0506211 -0.0741188
v 0.0856993 0.0503639 -0.0760239
v 0.0359617 0.0359769 -0.0744613
v 0.0664964 0.0505920 0.0452469
v 0.0633870 0.0479572 0.0090439
v 0.0604662 0.0413387 -0.1113279
v 0.0590026 0.0491363 0.0602526
v 0.0610712 0.0495633 0.0566884
v 0.0389931 0.0441627 0.0779821
v 0.0111450 0.0371366 0.1003515
v 0.0098700 0.0368600 0.1023048
v 0.0558997 0.0387136 -0.1383423
v -0.1179217 -0.0059081 -0.0147811
v -0.1232623 -0.0135456 -0.0143316
v 0.0098700 0.0368600 0.1023048
v 0.0558997 0.0387136 -0.1383423
v -0.1179217 -0.0059081 -0.0147811
v -0.1179217 -0.0059081 -0.0147811
v 0.0398843 0.0008366 -0.1220363
v 0.0373538 -0.0186259 0.0161935
v -0.0226227 -0.0424313 0.0898251
v 0.0387394 -0.0159135 -0.1525185
v 0.0271734 0.0272670 -0.0707848
v 0.0595490 0.0130838 -0.0145242
v 0.0564656 -0.0111389 0.0449526
v 0.0193803 -0.0323482 0.0926560
v 0.0515998 -0.0103382 -0.0335756
v -0.0065162 -0.0129148 -0.0341643
v 0.0664183 0.0336332 0.0556931
v -0.1060370 -0.0098142 -0.0054695
v 0.0870523 0.0482678 -0.0746914
v -0.1201204 -0.0124684 -0.0114792
v -0.0962143 -0.0088922 0.0144703
v -0.0702722 -0.0296746 0.0651813
v -0.0970470 -0.0079121 0.0125545
v -0.0970275 -0.0087758 0.0133679
v -0.0573402 -0.0403108 0.0906973
v -0.0466199 -0.0436541 0.1068589
v -0.1010931 -0.0090136 0.0086211
v -0.0096582 -0.0265206 0.1363726
v -0.0173016 -0.0360214 0.1357143
v -0.0408434 -0.0435716 0.1138427
v -0.0230456 -0.0373946 0.1299507
v 0.0387133 -0.0151663 -0.1525988
v 0.0386093 -0.0157631 -0.1528289
v -0.0410255 -0.0143462 -0.0845168
v -0.0657252 -0.0232987 -0.0683552
v -0.1104604 -0.0169713 -0.0270254
v -0.1232623 -0.0135456 -0.0143316
v 0.0395525 -0.0131380 -0.1522242
v 0.0385312 -0.0161222 -0.1529520
v 0.0231207 -0.0224690 -0.1432764
v 0.0379067 -0.0166074 -0.1526844
v -0.0272608 -0.0207852 -0.0996402
v -0.0332975 0.0168831 -0.0526164
v -0.0165405 0.0211143 -0.0659737
v -0.0143613 0.0218858 -0.0631374
v -0.0291538 0.0181593 -0.0511340
v -0.0047404 0.0245400 -0.0661022
v 0.0610842 0.0464190 -0.0090175
v 0.0858099 0.0506454 -0.0708490
v -0.0117463 0.0224196 -0.0678040
v 0.0580854 0.0410136 -0.1035842
v 0.0862652 0.0506211 -0.0741188
v 0.0856993 0.0503639 -0.0760239
v 0.0359617 0.0359769 -0.0744613
v 0.0664964 0.0505920 0.0452469
v 0.0633870 0.0479572 0.0090439
v 0.0604662 0.0413387 -0.1113279
v 0.0590026 0.0491363 0.0602526
v 0.0610712 0.0495633 0.0566884
v 0.0389931 0.0441627 0.0779821
v 0.0111450 0.0371366 0.1003515
v 0.0098700 0.0368600 0.1023048
v 0.0558997 0.0387136 -0.1383423
v 0.0398843 0.0008366 -0.1220363
v 0.0373538 -0.0186259 0.0161935
v -0.0226227 -0.0424313 0.0898251
v 0.0387394 -0.0159135 -0.1525185
v 0.0515998 -0.0103382 -0.0335756
v 0.0870523 0.0482678 -0.0746914
v -0.0466199 -0.0436541 0.1068589
v 0.0385312 -0.0161222 -0.1529520
v 0.0580854 0.0410136 -0.1035842
v 0.0862652 0.0506211 -0.0741188
v -0.0631427 0.0651537 -0.0750713
v -0.0068480 0.1204699 0.0511389
v -0.0712805 0.0759016 -0.0427535
v -0.0294921 0.1147878 0.0450703
v -0.0311118 0.1140940 0.0438555
v -0.0725880 0.0817728 -0.0263725
v -0.0710788 0.0855043 -0.0169324
v -0.0325429 -0.1181271 0.0434755
v -0.0996295 -0.1212277 0.0805937
v -0.0254524 -0.1174574 0.0398044
v 0.0283378 -0.1220429 0.0046984
v -0.0197280 -0.1161570 0.0374230
v -0.0213803 -0.0131186 0.1162723
v -0.0541787 -0.0259384 0.1258836
v -0.0646323 -0.0336098 0.1262314
v -0.1013403 -0.1187481 0.0834781
v -0.1091138 -0.0998970 0.1022994
v 0.1413695 0.0916473 0.0997200
v -0.1100311 -0.0861553 0.1132219
v 0.0196145 0.0111768 0.1105247
v -0.0860209 -0.0493895 0.1268843
v -0.1001824 -0.1209899 0.0810967
v 0.0476968 0.0346231 0.1117235
v 0.0596661 0.0466083 0.1137410
v 0.0942730 0.0625383 0.1054247
v 0.1218088 0.0775125 0.1005441
v -0.0448310 0.0267430 -0.1399157
v -0.0489877 0.0491509 -0.1240431
v 0.0669257 -0.1177534 -0.0300276
v 0.0673486 -0.1220332 -0.0182382
v 0.0773338 0.1194509 0.0578016
v 0.0071378 0.1206446 0.0567741
v 0.0969400 0.1191355 0.0576464
v -0.0044411 0.1210570 0.0517436
v 0.1387089 0.1174906 0.0793628
v 0.1519727 0.1212948 -0.0115488
v -0.1070648 -0.0644995 -0.0898469
v -0.0967347 -0.0481861 -0.1019841
v -0.1516048 -0.0857623 -0.0721548
v -0.1648491 -0.0952825 -0.0646412
v -0.1660135 -0.1012168 -0.0603814
v -0.0828530 -0.0987082 -0.0671564
v -0.1406048 -0.1106545 -0.0552439
v -0.1610436 -0.1027162 -0.0596215
v -0.0047729 -0.1043902 -0.0678468
v -0.0736874 -0.0984122 -0.0679217
v -0.0794899 -0.0984122 -0.0675685
v -0.0468540 0.0148888 -0.1495217
v -0.0519930 0.0059072 -0.1428697
v -0.0846809 -0.0287333 -0.1164493
v 0.0604597 -0.1186705 -0.0616979
v 0.0899211 -0.0174080 -0.1349548
v 0.1595511 0.1210813 -0.0095420
v 0.1614376 0.1000126 -0.0250453
v 0.1572938 0.1098045 0.1040761
v 0.1590502 0.1161756 0.1015823
v 0.1703430 0.1170830 0.0769546
v 0.1690224 0.0749068 0.0708057
v 0.1736931 0.0890270 0.0635544
v -0.0489877 0.0491509 -0.1240431
v 0.0673486 -0.1220332 -0.0182382
v -0.0044411 0.1210570 0.0517436
v 0.1519727 0.1212948 -0.0115488
v 0.1519727 0.1212948 -0.0115488
v -0.0468540 0.0148888 -0.1495217
v 0.0604597 -0.1186705 -0.0616979
v 0.0899211 -0.0174080 -0.1349548
v 0.0899211 -0.0174080 -0.1349548
v 0.1595511 0.1210813 -0.0095420
v 0.1595511 0.1210813 -0.0095420
v 0.1614376 0.1000126 -0.0250453
v 0.1614376 0.1000126 -0.0250453
v 0.1572938 0.1098045 0.1040761
v 0.1590502 0.1161756 0.1015823
v 0.1703430 0.1170830 0.0769546
v 0.1703430 0.1170830 0.0769546
v 0.1690224 0.0749068 0.0708057
v 0.1690224 0.0749068 0.0708057
v 0.1736931 0.0890270 0.0635544
v 0.1736931 0.0890270 0.0635544
v -0.0665578 0.0189356 -0.0675203
v -0.0555643 -0.0045300 0.1052535
v -0.0196499 -0.0984607 -0.0335061
v -0.1296828 -0.0899013 0.0834781
v -0.0617961 0.0343029 0.0700084
v -0.1407804 -0.0450079 -0.0042279
v -0.1110654 -0.0462792 -0.0718658
v -0.1559892 -0.0989945 0.0031465
v -0.0940351 -0.0131865 0.0881768
v -0.1397201 -0.1060982 -0.0202022
v -0.0976975 -0.0223768 0.0318360
v -0.0790735 -0.0976989 -0.0661075
v 0.0067671 0.0244284 0.1008866
v 0.0843593 0.0982415 0.0668777
v -0.0713976 0.0311925 0.0020441
v 0.0061881 0.1189268 0.0574965
v 0.0432409 0.0535519 0.1029470
v -0.0631427 0.0651537 -0.0750713
v -0.0068480 0.1204699 0.0511389
v -0.0712805 0.0759016 -0.0427535
v -0.0294921 0.1147878 0.0450703
v -0.0311118 0.1140940 0.0438555
v -0.0725880 0.0817728 -0.0263725
v -0.0710788 0.0855043 -0.0169324
v -0.0325429 -0.1181271 0.0434755
v -0.0996295 -0.1212277 0.0805937
v -0.0254524 -0.1174574 0.0398044
v 0.0283378 -0.1220429 0.0046984
v -0.0197280 -0.1161570 0.0374230
v -0.0213803 -0.0131186 0.1162723
v -0.0541787 -0.0259384 0.1258836
v -0.0646323 -0.0336098 0.1262314
v -0.1013403 -0.1187481 0.0834781
v -0.1091138 -0.0998970 0.1022994
v 0.1413695 0.0916473 0.0997200
v -0.1100311 -0.0861553 0.1132219
v 0.0196145 0.0111768 0.1105247
v -0.0860209 -0.0493895 0.1268843
v -0.1001824 -0.1209899 0.0810967
v 0.0476968 0.0346231 0.1117235
v 0.0596661 0.0466083 0.1137410
v 0.0942730 0.0625383 0.1054247
v 0.1218088 0.0775125 0.1005441
v -0.0448310 0.0267430 -0.1399157
v -0.0489877 0.0491509 -0.1240431
v 0.0669257 -0.1177534 -0.0300276
v 0.0673486 -0.1220332 -0.0182382
v 0.0773338 0.1194509 0.0578016
v 0.0071378 0.1206446 0.0567741
v 0.0969400 0.1191355 0.0576464
v -0.0044411 0.1210570 0.0517436
v 0.1387089 0.1174906 0.0793628
v -0.1070648 -0.0644995 -0.0898469
v -0.0967347 -0.0481861 -0.1019841
v -0.1516048 -0.0857623 -0.0721548
v -0.1648491 -0.0952825 -0.0646412
v -0.1660135 -0.1012168 -0.0603814
v -0.0828530 -0.0987082 -0.0671564
v -0.1406048 -0.1106545 -0.0552439
v -0.1610436 -0.1027162 -0.0596215
v -0.0047729 -0.1043902 -0.0678468
v -0.0736874 -0.0984122 -0.0679217
v -0.0794899 -0.0984122 -0.0675685
v -0.0468540 0.0148888 -0.1495217
v -0.0519930 0.0059072 -0.1428697
v -0.0846809 -0.0287333 -0.1164493
v 0.0604597 -0.1186705 -0.0616979
v 0.1572938 0.1098045 0.1040761
v 0.1590502 0.1161756 0.1015823
v -0.1397201 -0.1060982 -0.0202022
v -0.0996295 -0.1212277 0.0805937
v -0.1406048 -0.1106545 -0.0552439
v 0.0782250 0.0320854 0.0265968
v 0.0783681 0.0318816 0.0264149
v 0.0778867 0.0323862 0.0267039
v 0.0793178 0.0310858 0.0262008
v -0.0561042 -0.0378847 -0.0321735
v -0.0605472 0.0534549 0.0171514
v -0.1173622 -0.0194460 0.0529317
v -0.1189885 -0.0227892 0.0533544
v -0.0795094 -0.0366716 -0.0024512
v -0.1127372 -0.0256327 0.0442140
v -0.0075961 -0.0316349 -0.0819855
v -0.0127286 -0.0314845 -0.0831093
v -0.0154477 0.0680506 0.0145559
v -0.0468345 0.0686619 0.0073688
v 0.0341013 0.0568321 0.0157868
v 0.0964912 0.0021467 0.0169641
v 0.0955479 -0.0388649 0.0017390
v 0.0471309 -0.0343231 -0.0564373
v 0.0663923 -0.0362980 -0.0333509
v 0.0775290 -0.0391172 -0.0205822
v 0.0939867 0.0163930 0.0187729
v 0.0336134 -0.0323240 -0.0724277
v 0.0650653 0.0157186 -0.0171358
v -0.0127286 -0.0314845 -0.0831093
v -0.0468345 0.0686619 0.0073688
v 0.0341013 0.0568321 0.0157868
v 0.0939867 0.0163930 0.0187729
v 0.0336134 -0.0323240 -0.0724277
v 0.0650653 0.0157186 -0.0171358
v 0.0650653 0.0157186 -0.0171358
v 0.0520877 -0.0404176 -0.0025261
v -0.0519475 -0.0345463 0.0478959
v -0.0319510 0.0326628 0.0406178
v 0.0063182 -0.0342989 0.0213577
v 0.0241225 -0.0378604 -0.0333937
v 0.0782250 0.0320854 0.0265968
v 0.0783681 0.0318816 0.0264149
v 0.0778867 0.0323862 0.0267039
v 0.0793178 0.0310858 0.0262008
v -0.0561042 -0.0378847 -0.0321735
v -0.0605472 0.0534549 0.0171514
v -0.1173622 -0.0194460 0.0529317
v -0.1189885 -0.0227892 0.0533544
v -0.0795094 -0.0366716 -0.0024512
v -0.1127372 -0.0256327 0.0442140
v -0.0075961 -0.0316349 -0.0819855
v -0.0127286 -0.0314845 -0.0831093
v -0.0154477 0.0680506 0.0145559
v -0.0468345 0.0686619 0.0073688
v 0.0341013 0.0568321 0.0157868
v 0.0964912 0.0021467 0.0169641
v 0.0955479 -0.0388649 0.0017390
v 0.0471309 -0.0343231 -0.0564373
v 0.0663923 -0.0362980 -0.0333509
v 0.0775290 -0.0391172 -0.0205822
v 0.0939867 0.0163930 0.0187729
v 0.0336134 -0.0323240 -0.0724277
v 0.0520877 -0.0404176 -0.0025261
v -0.0519475 -0.0345463 0.0478959
v 0.0063182 -0.0342989 0.0213577
v -0.1127372 -0.0256327 0.0442140
v 0.0775290 -0.0391172 -0.0205822
v -0.0659008 -0.0773775 -0.0054374
v -0.0095996 -0.0220662 0.1207675
v -0.0740321 -0.0666297 0.0268751
v -0.0322502 -0.0277434 0.1146989
v -0.0338700 -0.0284421 0.1134895
v -0.0753461 -0.0607584 0.0432561
v -0.0738305 -0.0570318 0.0526909
v -0.0228634 0.0611457 -0.1323326
v -0.0345530 0.0240791 -0.1174286
v -0.0501261 -0.0842920 -0.0590596
v -0.0517393 -0.0933804 -0.0544091
v -0.0153956 0.0715733 -0.1332102
v -0.0072903 0.0728640 -0.1276126
v 0.0140072 0.0729659 -0.1107606
v 0.1239685 0.0290187 0.0052336
v -0.0310143 0.0073823 -0.1037127
v -0.0476672 -0.0473903 -0.0811935
v 0.0211627 0.0695014 -0.1028190
v 0.0282142 0.0686377 -0.0966540
v 0.0988265 0.0445946 -0.0248955
v 0.0085364 0.0353218 0.0463547
v 0.0002750 0.0363893 0.0483936
v -0.0184920 0.0229533 0.0721971
v -0.0172951 -0.0067864 0.1076831
v -0.0071928 -0.0214742 0.1213723
v -0.0162673 0.0028891 0.0955672
v 0.0323514 0.0702195 -0.0054320
v 0.0216181 0.0662406 0.0037030
v 0.0044513 0.0547310 0.0245365
v 0.0486010 0.0678079 -0.0090603
v 0.0821671 0.0535956 -0.0053945
v 0.1261021 0.0284753 0.0072779
v 0.1235977 0.0291594 0.0074652
v 0.1492146 -0.0212365 0.0580745
v -0.0545495 0.0136661 -0.0371184
v -0.0254980 0.0507230 -0.0302898
v -0.0244572 0.0603645 -0.1305452
v -0.0466524 0.0294651 -0.1044886
v -0.0158185 0.0716946 -0.1323701
v -0.0148817 0.0635428 -0.0190837
v -0.0064837 0.0744653 -0.0196082
v -0.0081880 0.0783956 -0.0938659
v -0.0565531 0.0138504 -0.0707205
v -0.0001413 0.0834032 -0.0284542
v -0.0021058 0.0833401 -0.0584335
v -0.0517393 -0.0933804 -0.0544091
v -0.0071928 -0.0214742 0.1213723
v 0.1261021 0.0284753 0.0072779
v 0.1492146 -0.0212365 0.0580745
v 0.1492146 -0.0212365 0.0580745
v -0.0636110 -0.0463956 -0.0104999
v 0.0240315 0.0711657 -0.0158407
v -0.0023335 0.0571523 -0.0022211
v -0.0304678 -0.0196013 0.1105889
v -0.0756714 -0.0468808 0.0354590
v -0.0425412 -0.0089941 0.0028789
v -0.0474265 -0.0020117 0.0800746
v -0.0543414 0.0089690 -0.0685853
v 0.0038268 0.0222255 0.0324193
v -0.0659008 -0.0773775 -0.0054374
v -0.0095996 -0.0220662 0.1207675
v -0.0740321 -0.0666297 0.0268751
v -0.0322502 -0.0277434 0.1146989
v -0.0338700 -0.0284421 0.1134895
v -0.0753461 -0.0607584 0.0432561
v -0.0738305 -0.0570318 0.0526909
v -0.0228634 0.0611457 -0.1323326
v -0.0345530 0.0240791 -0.1174286
v -0.0501261 -0.0842920 -0.0590596
v -0.0517393 -0.0933804 -0.0544091
v -0.0153956 0.0715733 -0.1332102
v -0.0072903 0.0728640 -0.1276126
v 0.0140072 0.0729659 -0.1107606
v 0.1239685 0.0290187 0.0052336
v -0.0310143 0.0073823 -0.1037127
v -0.0476672 -0.0473903 -0.0811935
v 0.0211627 0.0695014 -0.1028190
v 0.0282142 0.0686377 -0.0966540
v 0.0988265 0.0445946 -0.0248955
v 0.0085364 0.0353218 0.0463547
v 0.0002750 0.0363893 0.0483936
v -0.0184920 0.0229533 0.0721971
v -0.0172951 -0.0067864 0.1076831
v -0.0071928 -0.0214742 0.1213723
v -0.0162673 0.0028891 0.0955672
v 0.0323514 0.0702195 -0.0054320
v 0.0216181 0.0662406 0.0037030
v 0.0044513 0.0547310 0.0245365
v 0.0486010 0.0678079 -0.0090603
v 0.0821671 0.0535956 -0.0053945
v 0.1261021 0.0284753 0.0072779
v 0.1235977 0.0291594 0.0074652
v -0.0545495 0.0136661 -0.0371184
v -0.0254980 0.0507230 -0.0302898
v -0.0244572 0.0603645 -0.1305452
v -0.0466524 0.0294651 -0.1044886
v -0.0158185 0.0716946 -0.1323701
v -0.0148817 0.0635428 -0.0190837
v -0.0064837 0.0744653 -0.0196082
v -0.0081880 0.0783956 -0.0938659
v -0.0565531 0.0138504 -0.0707205
v -0.0001413 0.0834032 -0.0284542
v -0.0021058 0.0833401 -0.0584335
v -0.0928642 -0.0298056 -0.0358447
v -0.0609830 -0.0115319 -0.0881558
v -0.0444407 -0.0083925 -0.1378982
v -0.0335903 -0.0062283 -0.1439507
v -0.0437186 -0.0082275 -0.1399639
v -0.0048444 -0.0017448 -0.1159355
v 0.0210912 -0.0225272 -0.0652299
v 0.0340232 -0.0331634 -0.0397085
v 0.0447435 -0.0365066 -0.0235522
v -0.0056576 -0.0016284 -0.1170379
v -0.0097232 -0.0018661 -0.1217901
v -0.0287505 -0.0053161 -0.1418904
v -0.0056771 -0.0007647 -0.1178514
v 0.0817052 -0.0193732 0.0059667
v 0.0740618 -0.0288740 0.0053085
v 0.0505200 -0.0364242 -0.0165632
v 0.0683178 -0.0302472 -0.0004551
v -0.0318924 -0.0063982 -0.1447428
v -0.0010520 0.0288974 0.0726520
v -0.0033288 0.0280822 0.0740167
v -0.0054169 0.0275048 0.0743538
v 0.0399233 0.0454098 0.0378778
v -0.0456376 -0.0008326 0.0915964
v -0.0465808 -0.0418442 0.0763606
v -0.0757365 -0.0392773 0.0412707
v -0.0645998 -0.0420965 0.0540448
v -0.0949979 -0.0373073 0.0181896
v -0.1085154 -0.0353033 0.0022046
v -0.0481420 0.0134137 0.0933999
v -0.0770635 0.0127393 0.0574858
v 0.0924515 0.0502960 -0.0151932
v 0.1012399 0.0440123 -0.0281064
v -0.0323023 0.0029473 -0.1422115
v -0.0179391 0.0456766 -0.0429087
v -0.0265518 0.0012393 -0.1451923
v 0.0705751 0.0594960 0.0022902
v -0.0437186 -0.0082275 -0.1399639
v -0.0318924 -0.0063982 -0.1447428
v -0.1085154 -0.0353033 0.0022046
v -0.0481420 0.0134137 0.0933999
v -0.0770635 0.0127393 0.0574858
v -0.0770635 0.0127393 0.0574858
v 0.1012399 0.0440123 -0.0281064
v -0.0323023 0.0029473 -0.1422115
v -0.0323023 0.0029473 -0.1422115
v -0.0179391 0.0456766 -0.0429087
v -0.0179391 0.0456766 -0.0429087
v -0.0265518 0.0012393 -0.1451923
v -0.0265518 0.0012393 -0.1451923
v 0.0705751 0.0594960 0.0022902
v -0.0076872 -0.0015362 -0.1159730
v 0.0525171 -0.0135165 0.0498920
v -0.0218291 -0.0409610 0.0787849
v -0.0390090 -0.0286993 -0.0378729
v 0.0166482 -0.0346191 0.0726788
v -0.0928642 -0.0298056 -0.0358447
v -0.0609830 -0.0115319 -0.0881558
v -0.0444407 -0.0083925 -0.1378982
v -0.0335903 -0.0062283 -0.1439507
v -0.0437186 -0.0082275 -0.1399639
v -0.0048444 -0.0017448 -0.1159355
v 0.0210912 -0.0225272 -0.0652299
v 0.0340232 -0.0331634 -0.0397085
v 0.0447435 -0.0365066 -0.0235522
v -0.0056576 -0.0016284 -0.1170379
v -0.0097232 -0.0018661 -0.1217901
v -0.0287505 -0.0053161 -0.1418904
v -0.0056771 -0.0007647 -0.1178514
v 0.0817052 -0.0193732 0.0059667
v 0.0740618 -0.0288740 0.0053085
v 0.0505200 -0.0364242 -0.0165632
v 0.0683178 -0.0302472 -0.0004551
v -0.0318924 -0.0063982 -0.1447428
v -0.0010520 0.0288974 0.0726520
v -0.0033288 0.0280822 0.0740167
v -0.0054169 0.0275048 0.0743538
v 0.0399233 0.0454098 0.0378778
v -0.0456376 -0.0008326 0.0915964
v -0.0465808 -0.0418442 0.0763606
v -0.0757365 -0.0392773 0.0412707
v -0.0645998 -0.0420965 0.0540448
v -0.0949979 -0.0373073 0.0181896
v -0.1085154 -0.0353033 0.0022046
v -0.0481420 0.0134137 0.0933999
v 0.0924515 0.0502960 -0.0151932
v 0.1012399 0.0440123 -0.0281064
v 0.0705751 0.0594960 0.0022902
v 0.0447435 -0.0365066 -0.0235522
v -0.0645998 -0.0420965 0.0540448
v 0.0029291 -0.0794155 -0.1184775
v 0.0491604 -0.0784984 -0.0668996
v 0.1033735 -0.0641647 -0.0057531
v 0.0745236 -0.0782703 -0.0386221
v 0.1068927 -0.0602780 -0.0016378
v 0.1145036 -0.0595939 0.0068818
v -0.0613148 -0.0850878 0.0495388
v -0.0418647 -0.0763294 0.0590110
v -0.0822740 -0.0944867 0.0393388
v 0.0160628 -0.0736509 0.0811128
v -0.1123078 -0.0809973 0.0190191
v -0.1118915 -0.0852770 0.0308085
v -0.0536843 -0.0759995 -0.0770246
v -0.0026197 -0.0779210 -0.1245943
v -0.1178371 -0.0821813 -0.0134165
v -0.0745786 -0.0774115 -0.0565765
v -0.1187738 -0.0819144 -0.0126512
v -0.0893125 0.0193432 -0.0859082
v -0.0178025 0.1367736 0.0239960
v -0.0291018 0.0317942 -0.1485798
v 0.0177216 0.0995808 -0.0929668
v 0.0642391 -0.0683328 0.1003033
v 0.0820174 -0.0657369 0.0848374
v -0.0055405 0.1257831 0.1126011
v -0.0102176 0.1116630 0.1198524
v 0.1391448 -0.0550084 0.0345706
v 0.1331016 -0.0140066 0.0299041
v -0.1118915 -0.0852770 0.0308085
v -0.0026197 -0.0779210 -0.1245943
v -0.1187738 -0.0819144 -0.0126512
v -0.0893125 0.0193432 -0.0859082
v -0.0893125 0.0193432 -0.0859082
v -0.0178025 0.1367736 0.0239960
v -0.0178025 0.1367736 0.0239960
v -0.0291018 0.0317942 -0.1485798
v -0.0291018 0.0317942 -0.1485798
v 0.0177216 0.0995808 -0.0929668
v 0.0177216 0.0995808 -0.0929668
v 0.0642391 -0.0683328 0.1003033
v -0.0055405 0.1257831 0.1126011
v -0.0055405 0.1257831 0.1126011
v -0.0102176 0.1116630 0.1198524
v -0.0102176 0.1116630 0.1198524
v 0.1391448 -0.0550084 0.0345706
v 0.1331016 -0.0140066 0.0299041
v 0.1331016 -0.0140066 0.0299041
v -0.0278918 -0.0815117 -0.0611146
v -0.0602609 -0.0925991 0.0211062
v -0.0212502 -0.0768535 0.0337465
v 0.0581114 -0.0796581 -0.0075298
v 0.0029291 -0.0794155 -0.1184775
v 0.0491604 -0.0784984 -0.0668996
v 0.1033735 -0.0641647 -0.0057531
v 0.0745236 -0.0782703 -0.0386221
v 0.1068927 -0.0602780 -0.0016378
v 0.1145036 -0.0595939 0.0068818
v -0.0613148 -0.0850878 0.0495388
v -0.0418647 -0.0763294 0.0590110
v -0.0822740 -0.0944867 0.0393388
v 0.0160628 -0.0736509 0.0811128
v -0.1123078 -0.0809973 0.0190191
v -0.1118915 -0.0852770 0.0308085
v -0.0536843 -0.0759995 -0.0770246
v -0.0026197 -0.0779210 -0.1245943
v -0.1178371 -0.0821813 -0.0134165
v -0.0745786 -0.0774115 -0.0565765
v -0.1187738 -0.0819144 -0.0126512
v 0.0642391 -0.0683328 0.1003033
v 0.0820174 -0.0657369 0.0848374
v 0.1391448 -0.0550084 0.0345706
v -0.1450217 0.1139144 0.0771741
v 0.0377896 -0.0727630 0.1038300
v 0.0722664 -0.0269331 -0.1546056
v 0.0914498 -0.0428729 -0.1609686
v 0.0956065 -0.0628546 -0.1565857
v 0.0568819 -0.0034043 -0.1532517
v 0.0540392 0.0362972 -0.1653194
v -0.0869642 -0.1201213 -0.0231830
v -0.0627719 0.0391600 0.1173105
v -0.0336813 0.0308917 0.1281312
v -0.0954402 0.0395579 0.1023637
v -0.0034459 -0.0091543 0.1294905
v -0.0261810 0.0200226 0.1281794
v 0.0103253 -0.0525289 0.1222071
v 0.0159132 -0.0635630 0.1213134
v -0.1171151 0.0573804 0.0979647
v -0.0726010 -0.0773824 0.0761198
v 0.0197316 0.0651537 -0.1222557
v -0.0195849 0.0807927 -0.0739636
v -0.0374803 0.0964074 -0.0500102
v -0.0444212 0.1108963 -0.0387613
v -0.0906330 0.1257249 0.0171621
v -0.1163410 0.1248709 0.0461674
v 0.0268677 0.0593310 -0.1317118
v 0.0531936 0.0400286 -0.1661007
v 0.0531741 0.0416007 -0.1657154
v 0.0338411 0.0576715 -0.1400174
v -0.1453470 0.1143705 0.0766764
v -0.0977690 -0.0937200 -0.0256714
v 0.0034039 -0.0990333 -0.0639990
v 0.0201610 -0.0947972 -0.0773564
v 0.0223401 -0.0940257 -0.0745201
v 0.0075412 -0.0977571 -0.0625167
v 0.0957106 -0.0667752 0.0488699
v 0.0977792 -0.0663482 0.0453058
v 0.0926077 -0.0771980 -0.1497250
v 0.0971742 -0.0745777 -0.1227106
v 0.0319611 -0.0913715 -0.0774849
v 0.0977857 -0.0694925 -0.0204002
v 0.1225179 -0.0652662 -0.0822370
v 0.0249552 -0.0934920 -0.0791866
v 0.0947934 -0.0748980 -0.1149669
v 0.0757010 -0.0717488 0.0665995
v 0.0478464 -0.0787750 0.0889688
v 0.1229667 -0.0652904 -0.0855014
v 0.1224073 -0.0655476 -0.0874066
v 0.0726697 -0.0799347 -0.0858439
v 0.1031979 -0.0653196 0.0338642
v 0.1000950 -0.0679544 -0.0023388
v 0.0465779 -0.0790515 0.0909221
v -0.0812137 -0.1218245 -0.0261638
v -0.0869642 -0.1201213 -0.0231830
v -0.0869642 -0.1201213 -0.0231830
v 0.0159132 -0.0635630 0.1213134
v -0.1171151 0.0573804 0.0979647
v -0.0726010 -0.0773824 0.0761198
v -0.0726010 -0.0773824 0.0761198
v 0.0531936 0.0400286 -0.1661007
v -0.1453470 0.1143705 0.0766764
v -0.0977690 -0.0937200 -0.0256714
v -0.0977690 -0.0937200 -0.0256714
v 0.0926077 -0.0771980 -0.1497250
v 0.0465779 -0.0790515 0.0909221
v -0.0812137 -0.1218245 -0.0261638
v -0.0812137 -0.1218245 -0.0261638
v 0.0999649 -0.0221002 -0.0125709
v -0.0035369 0.0856741 -0.0380335
v 0.1033215 -0.0386659 0.0174564
v -0.0211071 0.0711609 0.0756756
v 0.1086751 -0.0442558 -0.1008978
v 0.0376725 0.0540274 -0.0235844
v 0.0330865 0.0642318 0.0874222
v 0.1037443 -0.0350170 -0.1536370
v 0.1148159 -0.0409465 -0.0796094
v 0.0722534 0.0048931 -0.0999720
v 0.0445874 0.0266605 -0.0416297
v -0.0236505 0.1128275 -0.0219628
v -0.0280089 0.0461716 0.1193333
v 0.0456477 -0.0602052 0.0910291
v 0.0538831 0.0645326 0.0535257
v 0.0730730 0.0468703 -0.1222129
v 0.0719086 0.0010258 -0.1370152
v 0.0219368 -0.0922255 -0.0760132
v 0.0056287 0.0667162 0.0217216
v -0.1450217 0.1139144 0.0771741
v 0.0377896 -0.0727630 0.1038300
v 0.0722664 -0.0269331 -0.1546056
v 0.0914498 -0.0428729 -0.1609686
v 0.0956065 -0.0628546 -0.1565857
v 0.0568819 -0.0034043 -0.1532517
v 0.0540392 0.0362972 -0.1653194
v -0.0627719 0.0391600 0.1173105
v -0.0336813 0.0308917 0.1281312
v -0.0954402 0.0395579 0.1023637
v -0.0034459 -0.0091543 0.1294905
v -0.0261810 0.0200226 0.1281794
v 0.0103253 -0.0525289 0.1222071
v 0.0159132 -0.0635630 0.1213134
v -0.1171151 0.0573804 0.0979647
v 0.0197316 0.0651537 -0.1222557
v -0.0195849 0.0807927 -0.0739636
v -0.0374803 0.0964074 -0.0500102
v -0.0444212 0.1108963 -0.0387613
v -0.0906330 0.1257249 0.0171621
v -0.1163410 0.1248709 0.0461674
v 0.0268677 0.0593310 -0.1317118
v 0.0531936 0.0400286 -0.1661007
v 0.0531741 0.0416007 -0.1657154
v 0.0338411 0.0576715 -0.1400174
v -0.1453470 0.1143705 0.0766764
v 0.0034039 -0.0990333 -0.0639990
v 0.0201610 -0.0947972 -0.0773564
v 0.0223401 -0.0940257 -0.0745201
v 0.0075412 -0.0977571 -0.0625167
v 0.0957106 -0.0667752 0.0488699
v 0.0977792 -0.0663482 0.0453058
v 0.0926077 -0.0771980 -0.1497250
v 0.0971742 -0.0745777 -0.1227106
v 0.0319611 -0.0913715 -0.0774849
v 0.0977857 -0.0694925 -0.0204002
v 0.1225179 -0.0652662 -0.0822370
v 0.0249552 -0.0934920 -0.0791866
v 0.0947934 -0.0748980 -0.1149669
v 0.0757010 -0.0717488 0.0665995
v 0.0478464 -0.0787750 0.0889688
v 0.1229667 -0.0652904 -0.0855014
v 0.1224073 -0.0655476 -0.0874066
v 0.0726697 -0.0799347 -0.0858439
v 0.1031979 -0.0653196 0.0338642
v 0.1000950 -0.0679544 -0.0023388
v 0.0465779 -0.0790515 0.0909221
v 0.1086751 -0.0442558 -0.1008978
v 0.1148159 -0.0409465 -0.0796094
v 0.0947934 -0.0748980 -0.1149669
v 0.1229667 -0.0652904 -0.0855014
v 0.0577341 0.0738296 0.0249432
v 0.0565112 0.0671189 0.0290532
v 0.0592433 0.0757511 0.0220213
v 0.0248706 0.0035539 0.0982590
v 0.0170060 -0.0188589 0.1176851
v -0.0256541 -0.1112659 0.0226956
v -0.0335122 -0.0115756 0.1192424
v 0.0160368 -0.0227941 0.1204732
v -0.0344749 -0.1078062 -0.0033182
v -0.0352946 -0.1066271 -0.0067485
v -0.1241015 0.1075191 0.0141117
v -0.0696347 -0.0016769 0.1032734
v -0.0648925 -0.0109642 0.1120446
v -0.0780978 0.0145734 0.0861700
v -0.0362443 -0.1067970 -0.0178850
v -0.1036626 0.0631352 0.0319056
v -0.0961883 0.0477971 0.0424587
v -0.0307866 -0.1111106 0.0215664
v -0.0320551 -0.1100092 0.0128916
v 0.0326962 0.1609234 -0.0121428
v -0.0796460 0.1434503 -0.0055337
v 0.0315643 0.1609283 -0.0119930
v -0.0321071 0.1467159 -0.0102323
v 0.0337110 0.1603315 -0.0118003
v 0.0333857 0.1607827 -0.0122980
v 0.0616176 0.1037974 0.0089957
v -0.1246024 0.1084507 0.0129505
v -0.0206387 -0.1038419 -0.0553349
v -0.0384170 -0.1064427 -0.0398690
v -0.1128803 0.0735579 -0.0203199
v -0.1082031 0.0876732 -0.0275659
v 0.0312000 -0.1064573 -0.0057906
v 0.0630878 -0.0881787 -0.0581017
v 0.0155489 -0.1119549 0.0322534
v 0.0796301 -0.0850393 -0.1078440
v 0.0470073 -0.0639075 0.0875400
v 0.1061317 -0.0309702 -0.0128492
v -0.1158401 0.1223137 0.0081555
v -0.0964745 0.1392531 -0.0052715
v -0.1193268 0.1190384 0.0101409
v -0.1210636 0.1171849 0.0107189
v -0.1228460 0.1148267 0.0104567
v -0.1115597 0.1157340 -0.0141657
v 0.0304389 -0.0521116 -0.1102683
v 0.0809636 -0.0473030 -0.1146458
v 0.0917685 -0.0737043 -0.1121574
v 0.0767614 -0.0855779 -0.1095512
v 0.0803456 -0.0848791 -0.1099097
v 0.0364821 -0.0931135 -0.1056017
v 0.0160368 -0.0227941 0.1204732
v -0.0648925 -0.0109642 0.1120446
v -0.0307866 -0.1111106 0.0215664
v 0.0333857 0.1607827 -0.0122980
v 0.0616176 0.1037974 0.0089957
v -0.1246024 0.1084507 0.0129505
v -0.0384170 -0.1064427 -0.0398690
v -0.1128803 0.0735579 -0.0203199
v -0.1128803 0.0735579 -0.0203199
v -0.1082031 0.0876732 -0.0275659
v -0.1082031 0.0876732 -0.0275659
v 0.0155489 -0.1119549 0.0322534
v 0.0470073 -0.0639075 0.0875400
v 0.0470073 -0.0639075 0.0875400
v 0.1061317 -0.0309702 -0.0128492
v 0.1061317 -0.0309702 -0.0128492
v -0.0964745 0.1392531 -0.0052715
v -0.1228460 0.1148267 0.0104567
v -0.1115597 0.1157340 -0.0141657
v -0.1115597 0.1157340 -0.0141657
v 0.0304389 -0.0521116 -0.1102683
v 0.0304389 -0.0521116 -0.1102683
v 0.0809636 -0.0473030 -0.1146458
v 0.0809636 -0.0473030 -0.1146458
v 0.0917685 -0.0737043 -0.1121574
v 0.0917685 -0.0737043 -0.1121574
v 0.0803456 -0.0848791 -0.1099097
v 0.0364821 -0.0931135 -0.1056017
v 0.0325596 0.1607293 -0.0117843
v 0.0520227 0.0726796 0.0246114
v -0.0243206 0.0081199 0.1047397
v -0.0419362 0.0618736 0.0363527
v 0.0577341 0.0738296 0.0249432
v 0.0565112 0.0671189 0.0290532
v 0.0592433 0.0757511 0.0220213
v 0.0248706 0.0035539 0.0982590
v 0.0170060 -0.0188589 0.1176851
v -0.0256541 -0.1112659 0.0226956
v -0.0335122 -0.0115756 0.1192424
v 0.0160368 -0.0227941 0.1204732
v -0.0344749 -0.1078062 -0.0033182
v -0.0352946 -0.1066271 -0.0067485
v -0.1241015 0.1075191 0.0141117
v -0.0696347 -0.0016769 0.1032734
v -0.0648925 -0.0109642 0.1120446
v -0.0780978 0.0145734 0.0861700
v -0.0362443 -0.1067970 -0.0178850
v -0.1036626 0.0631352 0.0319056
v -0.0961883 0.0477971 0.0424587
v -0.0307866 -0.1111106 0.0215664
v -0.0320551 -0.1100092 0.0128916
v 0.0326962 0.1609234 -0.0121428
v -0.0796460 0.1434503 -0.0055337
v 0.0315643 0.1609283 -0.0119930
v -0.0321071 0.1467159 -0.0102323
v 0.0337110 0.1603315 -0.0118003
v 0.0333857 0.1607827 -0.0122980
v 0.0616176 0.1037974 0.0089957
v -0.1246024 0.1084507 0.0129505
v -0.0206387 -0.1038419 -0.0553349
v -0.0384170 -0.1064427 -0.0398690
v 0.0312000 -0.1064573 -0.0057906
v 0.0630878 -0.0881787 -0.0581017
v 0.0155489 -0.1119549 0.0322534
v 0.0796301 -0.0850393 -0.1078440
v -0.1158401 0.1223137 0.0081555
v -0.0964745 0.1392531 -0.0052715
v -0.1193268 0.1190384 0.0101409
v -0.1210636 0.1171849 0.0107189
v -0.1228460 0.1148267 0.0104567
v 0.0767614 -0.0855779 -0.1095512
v 0.0803456 -0.0848791 -0.1099097
v 0.0364821 -0.0931135 -0.1056017
v -0.0146020 -0.0434842 0.0337465
v 0.0144430 -0.0064273 0.0405750
v 0.0154903 0.0032142 -0.0596750
v -0.0067049 -0.0276852 -0.0336185
v 0.0241225 0.0145346 -0.0614999
v 0.0250593 0.0063925 0.0517811
v 0.0334638 0.0173101 0.0512566
v 0.0317529 0.0212405 -0.0229903
v 0.0378352 0.0261850 0.0124314
v -0.0166056 -0.0432999 0.0001496
v 0.0397997 0.0262481 0.0424106
v -0.0095346 0.0240209 0.0052817
v -0.0279894 -0.0182086 -0.0108424
v 0.0301527 0.0311295 0.0373748
v -0.0146020 -0.0434842 0.0337465
v 0.0144430 -0.0064273 0.0405750
v 0.0154903 0.0032142 -0.0596750
v -0.0067049 -0.0276852 -0.0336185
v 0.0241225 0.0145346 -0.0614999
v 0.0250593 0.0063925 0.0517811
v 0.0334638 0.0173101 0.0512566
v 0.0317529 0.0212405 -0.0229903
v 0.0378352 0.0261850 0.0124314
v -0.0166056 -0.0432999 0.0001496
v 0.0397997 0.0262481 0.0424106
v 0.1492861 -0.0500882 -0.0310711
v 0.1484730 -0.0489091 -0.0345015
v 0.1517125 -0.0522912 -0.0148560
v 0.0596661 0.1652371 -0.0136359
v 0.1141264 0.0560363 0.0755204
v 0.1056698 0.0722915 0.0584170
v 0.1475233 -0.0490789 -0.0456380
v 0.0801050 0.1208532 0.0041579
v 0.0875728 0.1055151 0.0147058
v 0.0197902 -0.0654748 -0.1183865
v 0.0392403 -0.0567164 -0.1089090
v -0.0011626 -0.0748737 -0.1285812
v 0.0971742 -0.0540380 -0.0868072
v 0.1453506 -0.0487247 -0.0676220
v 0.1051559 0.0315419 0.0940795
v 0.0483408 -0.0413541 0.1298651
v 0.0467146 -0.0447022 0.1302879
v 0.0862002 -0.0585797 0.0744715
v 0.0529659 -0.0475456 0.1211421
v 0.1529810 -0.0533926 -0.0061812
v 0.1095988 -0.0597976 0.0447546
v 0.1188685 0.0467490 0.0842916
v -0.1306716 -0.0617580 -0.0753978
v -0.1977581 -0.0648586 -0.0382796
v -0.1235811 -0.0610884 -0.0790689
v -0.0697843 -0.0656738 -0.1141802
v -0.1178566 -0.0597879 -0.0814503
v -0.1195154 0.0432456 -0.0026010
v -0.1523139 0.0304259 0.0070049
v -0.1627610 0.0227544 0.0073581
v -0.1994755 -0.0623791 -0.0353952
v -0.2072490 -0.0435279 -0.0165792
v 0.0432344 0.1480163 -0.0191533
v 0.0591652 0.1661736 -0.0147972
v -0.2081662 -0.0297862 -0.0056514
v -0.0307801 -0.0656641 -0.1371168
v -0.0785076 0.0675459 -0.0083486
v -0.1841561 0.0069747 0.0080110
v -0.1983111 -0.0646208 -0.0377766
v -0.0504318 0.0909922 -0.0071498
v -0.0384560 0.1029774 -0.0051323
v -0.0038492 0.1189074 -0.0134486
v 0.0236802 0.1338816 -0.0183292
v 0.0708873 0.1312759 -0.0480729
v 0.1453506 -0.0487247 -0.0676220
v 0.1529810 -0.0533926 -0.0061812
v 0.1188685 0.0467490 0.0842916
v 0.0591652 0.1661736 -0.0147972
v -0.0307801 -0.0656641 -0.1371168
v 0.0708873 0.1312759 -0.0480729
v 0.0708873 0.1312759 -0.0480729
v -0.0129172 -0.0553918 -0.0449797
v -0.0182644 -0.0432077 0.0859880
v -0.0436536 -0.0785129 -0.0933789
v 0.0812498 0.0489228 0.0744608
v -0.1510129 0.0103665 0.0263346
v -0.0395098 0.0019284 0.1256749
v 0.0459600 0.1215471 0.0016962
v 0.0437222 -0.0441781 0.1305341
v -0.1773193 -0.0239052 0.0410245
v -0.0756389 -0.0484045 0.0725236
v -0.0778376 0.0001476 0.0485113
v -0.0453644 0.0346231 0.0937852
v -0.1178761 -0.0631943 -0.0677933
v -0.0341432 0.0217936 0.0249165
v 0.0702563 -0.0598122 0.0453539
v 0.0057588 0.0842863 0.0239211
v 0.0185672 0.0680554 0.0532581
v -0.0087475 -0.0384961 0.1174014
v -0.1966132 -0.0652904 -0.0353952
v -0.1290258 -0.0592882 0.0287321
v -0.0810576 -0.0676778 0.0324407
v -0.0520256 -0.0367784 0.0826112
v 0.0022200 -0.0597297 -0.0022800
v -0.1823412 -0.0556247 0.0062022
v 0.1413240 -0.0502483 -0.0307714
v 0.1492861 -0.0500882 -0.0310711
v 0.1484730 -0.0489091 -0.0345015
v 0.1517125 -0.0522912 -0.0148560
v 0.0596661 0.1652371 -0.0136359
v 0.1141264 0.0560363 0.0755204
v 0.1056698 0.0722915 0.0584170
v 0.1475233 -0.0490789 -0.0456380
v 0.0801050 0.1208532 0.0041579
v 0.0875728 0.1055151 0.0147058
v 0.0197902 -0.0654748 -0.1183865
v 0.0392403 -0.0567164 -0.1089090
v -0.0011626 -0.0748737 -0.1285812
v 0.0971742 -0.0540380 -0.0868072
v 0.1453506 -0.0487247 -0.0676220
v 0.1051559 0.0315419 0.0940795
v 0.0483408 -0.0413541 0.1298651
v 0.0467146 -0.0447022 0.1302879
v 0.0862002 -0.0585797 0.0744715
v 0.0529659 -0.0475456 0.1211421
v 0.1529810 -0.0533926 -0.0061812
v 0.1095988 -0.0597976 0.0447546
v 0.1188685 0.0467490 0.0842916
v -0.1306716 -0.0617580 -0.0753978
v -0.1977581 -0.0648586 -0.0382796
v -0.1235811 -0.0610884 -0.0790689
v -0.0697843 -0.0656738 -0.1141802
v -0.1178566 -0.0597879 -0.0814503
v -0.1195154 0.0432456 -0.0026010
v -0.1523139 0.0304259 0.0070049
v -0.1627610 0.0227544 0.0073581
v -0.1994755 -0.0623791 -0.0353952
v -0.2072490 -0.0435279 -0.0165792
v 0.0432344 0.1480163 -0.0191533
v 0.0591652 0.1661736 -0.0147972
v -0.2081662 -0.0297862 -0.0056514
v -0.0307801 -0.0656641 -0.1371168
v -0.0785076 0.0675459 -0.0083486
v -0.1841561 0.0069747 0.0080110
v -0.1983111 -0.0646208 -0.0377766
v -0.0504318 0.0909922 -0.0071498
v -0.0384560 0.1029774 -0.0051323
v -0.0038492 0.1189074 -0.0134486
v 0.0236802 0.1338816 -0.0183292
v -0.0182644 -0.0432077 0.0859880
v -0.0756389 -0.0484045 0.0725236
v -0.0087475 -0.0384961 0.1174014
v -0.1966132 -0.0652904 -0.0353952
v -0.1290258 -0.0592882 0.0287321
v -0.0520256 -0.0367784 0.0826112
v -0.1823412 -0.0556247 0.0062022
v 0.0529659 -0.0475456 0.1211421
v -0.1977581 -0.0648586 -0.0382796
v -0.0902037 0.0613884 0.0317718
v -0.1228915 0.0267527 0.0581922
v -0.1349454 0.0072950 0.0726520
v -0.1452754 -0.0090136 0.0847893
v -0.1898155 -0.0302763 0.1024814
v -0.2030597 -0.0397916 0.1099949
v -0.2042241 -0.0457260 0.1142601
v -0.1210636 -0.0432222 0.1074797
v -0.1788154 -0.0551686 0.1193922
v -0.1992543 -0.0472302 0.1150200
v -0.0429835 -0.0489043 0.1067894
v -0.1118980 -0.0429262 0.1067198
v -0.1177005 -0.0429214 0.1070676
v 0.1264209 0.0651828 -0.0957924
v 0.1461052 -0.0565757 -0.0317240
v 0.1504766 -0.0435764 -0.0635495
v 0.1524216 -0.0359195 -0.0798502
v 0.1508604 -0.0548240 -0.0520973
v 0.1457539 -0.0085768 -0.0855764
v 0.1357556 0.0293826 -0.0906389
v 0.0836567 0.0807927 -0.0871122
v 0.1233635 0.0771680 -0.0977832
v -0.0770570 0.0769933 0.0039332
v -0.0850647 0.0703748 0.0251145
v -0.0065813 0.0907593 -0.0673277
v 0.0310569 0.0854897 -0.0727006
v -0.0134311 0.0910019 -0.0644914
v 0.0535253 0.0834275 -0.0787104
v -0.0235139 0.0887116 -0.0534619
v 0.0873451 -0.0572696 0.0485648
v 0.1384032 -0.0591911 0.0010005
v 0.0664444 -0.0586816 0.0690130
v 0.0231858 -0.0634514 0.1121730
v 0.0222491 -0.0631797 0.1129383
v 0.0517104 0.0380731 0.0396813
v 0.1119211 0.0505241 -0.0229850
v 0.1233635 0.0771680 -0.0977832
v -0.0850647 0.0703748 0.0251145
v 0.1384032 -0.0591911 0.0010005
v 0.0222491 -0.0631797 0.1129383
v 0.0517104 0.0380731 0.0396813
v 0.0517104 0.0380731 0.0396813
v 0.1119211 0.0505241 -0.0229850
v 0.1119211 0.0505241 -0.0229850
v -0.0346115 0.0602238 -0.0672902
v 0.0468642 0.0437648 -0.1068165
v 0.0859790 0.0427847 -0.0786622
v -0.1408780 -0.0290244 0.0650368
v 0.1440626 -0.0538779 -0.0515568
v -0.0311899 -0.0536061 0.0795555
v -0.1059914 -0.0559207 0.0235251
v 0.0595100 -0.0513255 0.0313918
v 0.0098765 0.0486705 -0.0893438
v 0.0555029 -0.0341970 -0.0945241
v -0.1795310 -0.0588320 0.0912271
v 0.0519901 0.0793564 -0.0772708
v -0.0819358 0.0539886 -0.0110029
v 0.1204883 -0.0266905 -0.0742151
v -0.0202874 -0.0554888 -0.0080328
v -0.1306586 -0.0650964 0.0615102
v -0.0141532 -0.0451098 -0.0375893
v -0.2061041 -0.0461433 0.1023637
v -0.0998637 0.0026319 -0.0010812
v -0.0902037 0.0613884 0.0317718
v -0.1228915 0.0267527 0.0581922
v -0.1349454 0.0072950 0.0726520
v -0.1452754 -0.0090136 0.0847893
v -0.1898155 -0.0302763 0.1024814
v -0.2030597 -0.0397916 0.1099949
v -0.2042241 -0.0457260 0.1142601
v -0.1210636 -0.0432222 0.1074797
v -0.1788154 -0.0551686 0.1193922
v -0.1992543 -0.0472302 0.1150200
v -0.0429835 -0.0489043 0.1067894
v -0.1118980 -0.0429262 0.1067198
v -0.1177005 -0.0429214 0.1070676
v 0.1264209 0.0651828 -0.0957924
v 0.1461052 -0.0565757 -0.0317240
v 0.1504766 -0.0435764 -0.0635495
v 0.1524216 -0.0359195 -0.0798502
v 0.1508604 -0.0548240 -0.0520973
v 0.1457539 -0.0085768 -0.0855764
v 0.1357556 0.0293826 -0.0906389
v 0.0836567 0.0807927 -0.0871122
v 0.1233635 0.0771680 -0.0977832
v -0.0770570 0.0769933 0.0039332
v -0.0850647 0.0703748 0.0251145
v -0.0065813 0.0907593 -0.0673277
v 0.0310569 0.0854897 -0.0727006
v -0.0134311 0.0910019 -0.0644914
v 0.0535253 0.0834275 -0.0787104
v -0.0235139 0.0887116 -0.0534619
v 0.0873451 -0.0572696 0.0485648
v 0.1384032 -0.0591911 0.0010005
v 0.0664444 -0.0586816 0.0690130
v 0.0231858 -0.0634514 0.1121730
v 0.0222491 -0.0631797 0.1129383
v 0.1440626 -0.0538779 -0.0515568
v -0.1059914 -0.0559207 0.0235251
v 0.0555029 -0.0341970 -0.0945241
v -0.1795310 -0.0588320 0.0912271
v -0.1306586 -0.0650964 0.0615102
v -0.0141532 -0.0451098 -0.0375893
v -0.1788154 -0.0551686 0.1193922
v 0.1508604 -0.0548240 -0.0520973
v -0.0445382 0.0713598 -0.0294015
v -0.0457612 0.0646491 -0.0252968
v -0.0430291 0.0732813 -0.0323287
v -0.0774082 0.0010841 0.0439037
v -0.0852729 -0.0213287 0.0633297
v 0.0207334 -0.0502192 0.0483561
v 0.0184631 -0.0510296 0.0497208
v 0.0163685 -0.0516118 0.0500579
v 0.0617152 -0.0337069 0.0135819
v 0.0136754 0.0831024 -0.0260139
v 0.0427725 0.0748341 -0.0151878
v -0.0189799 0.0835051 -0.0409607
v 0.0730080 0.0347832 -0.0138339
v 0.0502728 0.0639649 -0.0151450
v 0.0867791 -0.0085817 -0.0211173
v 0.0923670 -0.0196158 -0.0220110
v -0.0406547 0.1013276 -0.0453597
v 0.0038528 -0.0334400 -0.0672046
v -0.0421119 -0.0500106 0.0769279
v -0.0419688 -0.0502144 0.0767459
v -0.0424501 -0.0497049 0.0770349
v -0.0862356 -0.0252639 0.0661178
v -0.0552716 -0.0663774 0.0331899
v -0.0410190 -0.0510101 0.0765319
v -0.0263501 -0.0656980 0.0691040
v 0.0923670 -0.0196158 -0.0220110
v -0.0406547 0.1013276 -0.0453597
v 0.0038528 -0.0334400 -0.0672046
v 0.0038528 -0.0334400 -0.0672046
v -0.0862356 -0.0252639 0.0661178
v -0.0552716 -0.0663774 0.0331899
v -0.0552716 -0.0663774 0.0331899
v -0.0263501 -0.0656980 0.0691040
v 0.0122963 -0.0072522 0.0320929
v -0.0417866 -0.0497097 0.0769493
v 0.0548654 -0.0016478 0.0070477
v 0.0173443 -0.0475359 0.0497957
v -0.0445382 0.0713598 -0.0294015
v -0.0457612 0.0646491 -0.0252968
v -0.0430291 0.0732813 -0.0323287
v -0.0774082 0.0010841 0.0439037
v -0.0852729 -0.0213287 0.0633297
v 0.0207334 -0.0502192 0.0483561
v 0.0184631 -0.0510296 0.0497208
v 0.0163685 -0.0516118 0.0500579
v 0.0617152 -0.0337069 0.0135819
v 0.0136754 0.0831024 -0.0260139
v 0.0427725 0.0748341 -0.0151878
v -0.0189799 0.0835051 -0.0409607
v 0.0730080 0.0347832 -0.0138339
v 0.0502728 0.0639649 -0.0151450
v 0.0867791 -0.0085817 -0.0211173
v 0.0923670 -0.0196158 -0.0220110
v -0.0406547 0.1013276 -0.0453597
v -0.0421119 -0.0500106 0.0769279
v -0.0419688 -0.0502144 0.0767459
v -0.0424501 -0.0497049 0.0770349
v -0.0862356 -0.0252639 0.0661178
v -0.0410190 -0.0510101 0.0765319
v -0.0263501 -0.0656980 0.0691040
f 39 1 38
f 13 30 36
f 24 66 67
f 64 7 63
f 70 48 78
f 77 47 75
f 37 73 72
f 52 81 79
f 92 91 113
f 93 85 116
f 90 163 164
f 111 88 83
f 98 138 139
f 88 111 87
f 87 127 128
f 152 165 166
f 107 114 96
f 83 102 100
f 103 145 146
f 107 96 106
f 92 102 112
f 102 99 100
f 85 175 115
f 87 84 109
f 109 84 97
f 90 97 98
f 85 122 123
f 121 85 123
f 147 99 148
f 90 101 109
f 101 112 109
f 132 84 128
f 84 105 142
f 110 89 83
f 83 100 110
f 88 87 109
f 105 133 134
f 122 93 124
f 101 176 94
f 110 129 89
f 135 103 131
f 138 84 141
f 98 97 84
f 111 83 89
f 117 116 114
f 94 91 112
f 109 97 118
f 114 107 117
f 94 178 179
f 103 151 145
f 93 125 124
f 101 94 112
f 90 109 118
f 92 112 91
f 116 85 114
f 85 115 114
f 107 95 117
f 137 89 130
f 116 104 170
f 167 169 95
f 106 95 107
f 177 176 101
f 117 95 104
f 86 154 155
f 86 113 179
f 86 156 154
f 108 113 155
f 108 92 113
f 109 112 88
f 112 102 88
f 101 90 177
f 83 88 102
f 118 97 90
f 108 102 92
f 176 178 94
f 117 104 116
f 171 95 168
f 108 99 102
f 91 94 113
f 94 179 113
f 119 93 152
f 93 126 125
f 121 120 175
f 120 160 161
f 129 130 89
f 105 134 143
f 105 132 133
f 137 136 111
f 111 136 127
f 140 173 174
f 98 139 140
f 100 147 149
f 100 149 150
f 103 150 151
f 99 144 148
f 108 159 99
f 108 157 158
f 175 161 180
f 99 162 144
f 177 164 181
f 168 95 169
f 172 170 104
f 171 172 104
f 183 197 215
f 204 213 206
f 195 216 234
f 210 225 224
f 232 233 235
f 237 241 231
f 218 240 221
f 268 251 269
f 249 271 269
f 258 247 259
f 247 249 251
f 249 272 271
f 249 273 272
f 273 246 270
f 246 281 278
f 262 275 276
f 248 260 251
f 245 246 286
f 247 246 249
f 283 286 246
f 247 250 255
f 251 265 266
f 265 251 256
f 254 255 250
f 250 253 254
f 256 251 257
f 260 257 251
f 277 261 248
f 250 258 263
f 263 264 250
f 247 266 259
f 264 267 253
f 274 248 268
f 248 274 277
f 246 279 270
f 282 245 280
f 245 282 281
f 287 280 245
f 284 247 252
f 285 287 245
f 1091 1125 1124
f 1102 1090 1075
f 1130 1085 1129
f 1139 1126 1135
f 1101 1100 1132
f 1114 1120 1119
f 1145 1158 1154
f 1152 1166 1167
f 1157 1185 1186
f 1157 1187 1188
f 1154 1189 1190
f 1156 1149 1147
f 1147 1206 1192
f 1143 1146 1154
f 1166 1143 1168
f 1145 1154 1150
f 1157 1193 1187
f 1149 1148 1206
f 1146 1143 1152
f 1146 1152 1170
f 1158 1151 1143
f 1158 1143 1154
f 1145 1180 1174
f 1206 1147 1149
f 1165 1181 1182
f 1156 1155 1149
f 1144 1196 1197
f 1149 1140 1148
f 1189 1153 1198
f 1198 1153 1199
f 1148 1140 1195
f 1145 1141 1158
f 1151 1158 1141
f 1144 1201 1202
f 1204 1194 1140
f 1155 1180 1145
f 1149 1145 1150
f 1149 1155 1145
f 1142 1140 1154
f 1142 1154 1190
f 1162 1147 1163
f 1140 1149 1150
f 1150 1154 1140
f 1196 1157 1186
f 1143 1159 1173
f 1153 1160 1205
f 1147 1161 1156
f 1164 1165 1156
f 1161 1164 1156
f 1153 1169 1171
f 1153 1171 1172
f 1152 1167 1170
f 1174 1175 1141
f 1176 1141 1175
f 1176 1177 1151
f 1178 1151 1177
f 1143 1178 1179
f 1179 1159 1143
f 1182 1183 1155
f 1194 1195 1140
f 1203 1204 1142
f 1144 1202 1193
f 1207 1209 1201
f 1157 1188 1185
f 1208 1192 1206
f 1215 1243 1245
f 1223 1228 1261
f 1214 1259 1272
f 1230 1240 1252
f 1282 1263 1274
f 1244 1284 1242
f 1264 1278 1269
f 1247 1275 1277
f 1237 1265 1266
f 1256 1283 1285
f 1287 1314 1315
f 1288 1290 1289
f 1287 1316 1314
f 1289 1302 1303
f 1302 1289 1304
f 1288 1287 1290
f 1290 1313 1311
f 1312 1313 1290
f 1294 1292 1288
f 1290 1307 1304
f 1291 1288 1292
f 1291 1293 1288
f 1294 1289 1295
f 1296 1308 1309
f 1297 1298 1295
f 1290 1306 1307
f 1312 1287 1310
f 1318 1305 1319
f 1328 1301 1327
f 1323 1329 1330
f 1320 1299 1300
f 1320 1322 1296
f 1318 1300 1305
f 1324 1311 1325
f 1326 1327 1301
f 1333 1339 1340
f 1344 1346 1347
f 1344 1348 1349
f 1348 1343 1350
f 1343 1353 1350
f 1354 1345 1356
f 1356 1345 1352
f 1347 1351 1343
f 1351 1352 1345
f 1354 1353 1345
f 1355 1344 1349
f 1355 1346 1344
f 1366 1368 1392
f 1371 1374 1377
f 1361 1403 1402
f 1394 1388 1391
f 1427 1408 1428
f 1478 1413 1409
f 1408 1426 1420
f 1408 1442 1443
f 1481 1413 1418
f 1415 1424 1413
f 1448 1415 1449
f 1422 1425 1476
f 1413 1481 1409
f 1428 1408 1430
f 1476 1417 1428
f 1408 1420 1410
f 1458 1420 1459
f 1421 1412 1418
f 1418 1419 1421
f 1442 1410 1444
f 1423 1424 1411
f 1415 1413 1478
f 1408 1427 1426
f 1431 1426 1427
f 1427 1428 1417
f 1417 1476 1429
f 1412 1460 1461
f 1430 1422 1476
f 1476 1428 1430
f 1424 1419 1413
f 1465 1436 1466
f 1482 1416 1467
f 1432 1430 1408
f 1415 1411 1424
f 1477 1416 1482
f 1432 1422 1430
f 1436 1414 1440
f 1412 1477 1418
f 1456 1479 1471
f 1469 1421 1472
f 1421 1419 1424
f 1421 1424 1423
f 1416 1477 1412
f 1419 1418 1413
f 1434 1432 1439
f 1414 1475 1474
f 1441 1440 1414
f 1480 1477 1482
f 1418 1477 1481
f 1422 1450 1451
f 1483 1449 1415
f 1433 1432 1434
f 1432 1452 1453
f 1411 1437 1438
f 1433 1435 1432
f 1441 1423 1438
f 1408 1443 1445
f 1445 1439 1432
f 1448 1447 1411
f 1453 1450 1422
f 1447 1437 1411
f 1426 1455 1420
f 1455 1457 1420
f 1412 1461 1462
f 1464 1463 1479
f 1410 1468 1444
f 1469 1460 1421
f 1470 1467 1416
f 1416 1462 1470
f 1463 1471 1479
f 1473 1423 1474
f 1423 1473 1472
f 1465 1475 1414
f 1420 1457 1459
f 1494 1490 1491
f 1499 1520 1515
f 1526 1507 1522
f 1514 1523 1527
f 1561 1568 1569
f 1548 1541 1549
f 1547 1549 1541
f 1537 1572 1573
f 1532 1551 1550
f 1532 1552 1551
f 1552 1546 1553
f 1585 1555 1556
f 1572 1529 1574
f 1529 1583 1547
f 1584 1537 1530
f 1544 1539 1532
f 1531 1530 1540
f 1529 1537 1587
f 1541 1529 1547
f 1535 1545 1543
f 1586 1535 1543
f 1537 1584 1587
f 1539 1557 1546
f 1543 1545 1538
f 1546 1532 1539
f 1583 1532 1547
f 1540 1530 1537
f 1533 1536 1534
f 1529 1576 1574
f 1586 1555 1585
f 1584 1542 1582
f 1533 1543 1538
f 1544 1532 1583
f 1533 1562 1536
f 1533 1534 1543
f 1534 1586 1543
f 1540 1568 1531
f 1531 1542 1530
f 1530 1542 1584
f 1529 1587 1583
f 1567 1566 1542
f 1576 1541 1570
f 1554 1553 1546
f 1557 1554 1546
f 1558 1559 1534
f 1586 1559 1560
f 1563 1542 1564
f 1563 1589 1582
f 1566 1564 1542
f 1531 1561 1567
f 1571 1541 1548
f 1575 1540 1573
f 1578 1536 1562
f 1579 1580 1534
f 1577 1579 1536
f 1534 1581 1558
f 1593 1607 1612
f 1601 1618 1616
f 1617 1615 1598
f 1620 1610 1619
f 1624 1644 1645
f 1624 1646 1644
f 1624 1630 1631
f 1623 1624 1626
f 1640 1637 1623
f 1639 1625 1641
f 1631 1646 1624
f 1633 1626 1634
f 1623 1626 1625
f 1635 1641 1625
f 1623 1628 1630
f 1632 1626 1633
f 1626 1635 1625
f 1628 1636 1627
f 1627 1638 1629
f 1639 1640 1625
f 1638 1643 1629
f 1648 1624 1645
f 1626 1648 1649
f 291 309 318
f 293 297 298
f 306 330 322
f 320 311 310
f 315 325 327
f 354 339 355
f 334 343 344
f 332 358 359
f 362 345 363
f 338 332 336
f 335 337 334
f 332 338 337
f 337 350 351
f 335 334 347
f 332 364 365
f 343 334 352
f 332 337 335
f 341 342 336
f 336 342 339
f 332 340 341
f 347 334 348
f 338 349 337
f 351 352 334
f 349 353 337
f 334 344 348
f 353 350 337
f 354 356 338
f 338 357 346
f 333 360 361
f 361 358 333
f 335 362 366
f 332 366 364
f 333 367 360
f 372 368 373
f 386 430 413
f 405 387 406
f 404 415 417
f 424 421 422
f 383 414 420
f 429 407 425
f 433 462 463
f 441 478 479
f 436 441 457
f 434 440 432
f 440 434 447
f 432 442 434
f 441 436 449
f 434 442 431
f 442 432 435
f 471 435 473
f 431 433 451
f 440 452 453
f 436 454 449
f 437 467 465
f 439 442 435
f 439 437 442
f 431 438 433
f 437 431 442
f 456 455 432
f 437 438 431
f 440 436 432
f 431 443 434
f 445 433 459
f 443 446 434
f 447 434 446
f 450 444 431
f 445 451 433
f 440 448 452
f 436 453 454
f 458 457 441
f 464 438 465
f 464 466 438
f 468 438 466
f 437 461 467
f 433 468 462
f 469 432 455
f 435 472 439
f 469 474 435
f 474 473 435
f 439 475 437
f 472 476 439
f 477 461 437
f 441 481 458
f 526 498 499
f 524 487 488
f 529 513 519
f 591 533 539
f 540 536 594
f 537 544 574
f 539 538 542
f 590 541 540
f 558 592 564
f 533 593 537
f 533 537 538
f 535 565 566
f 541 536 540
f 538 537 542
f 542 537 581
f 533 538 539
f 556 555 591
f 532 592 582
f 579 536 572
f 544 537 593
f 577 594 578
f 546 590 547
f 550 534 551
f 541 546 549
f 534 550 547
f 552 545 543
f 568 571 548
f 553 554 539
f 555 595 591
f 539 554 556
f 557 592 558
f 561 543 545
f 563 588 582
f 561 560 543
f 535 566 596
f 557 563 592
f 567 565 589
f 560 568 543
f 571 570 541
f 541 572 536
f 575 589 597
f 598 574 544
f 579 578 594
f 537 573 581
f 567 575 569
f 583 542 584
f 583 585 542
f 539 585 586
f 580 584 542
f 539 587 553
f 600 605 603
f 650 625 658
f 629 661 660
f 643 666 649
f 627 656 628
f 678 667 674
f 615 619 617
f 677 671 675
f 694 695 692
f 688 703 704
f 703 690 705
f 694 691 695
f 696 679 698
f 686 682 684
f 686 684 734
f 689 685 684
f 709 680 710
f 748 686 735
f 680 683 687
f 683 689 687
f 682 711 712
f 681 705 690
f 681 690 740
f 706 724 725
f 691 680 708
f 682 687 689
f 684 682 689
f 687 682 714
f 687 710 680
f 683 693 689
f 682 686 717
f 689 679 685
f 693 679 689
f 695 719 720
f 694 680 691
f 740 690 741
f 693 698 679
f 719 695 718
f 693 683 702
f 726 692 728
f 679 723 722
f 694 699 680
f 699 700 683
f 700 702 683
f 706 707 681
f 708 680 709
f 730 746 747
f 712 714 682
f 686 749 717
f 691 715 718
f 721 692 720
f 722 742 743
f 726 727 694
f 694 729 697
f 730 728 692
f 731 685 732
f 733 685 731
f 684 733 734
f 688 736 690
f 748 738 750
f 690 736 741
f 679 743 744
f 685 744 732
f 739 724 681
f 757 760 758
f 774 775 763
f 780 752 754
f 779 768 778
f 796 790 797
f 783 791 792
f 790 782 794
f 809 810 783
f 785 803 804
f 802 781 805
f 784 782 785
f 784 785 808
f 794 782 795
f 787 786 810
f 810 788 783
f 783 788 800
f 809 792 793
f 809 793 811
f 807 803 785
f 783 799 791
f 781 801 789
f 789 801 806
f 804 812 808
f 814 817 819
f 822 862 858
f 859 838 836
f 848 855 847
f 872 881 882
f 867 869 868
f 865 910 906
f 894 893 868
f 865 911 910
f 869 897 894
f 866 869 867
f 887 913 908
f 870 868 905
f 863 870 888
f 889 885 915
f 871 865 868
f 870 863 868
f 867 868 863
f 866 875 873
f 866 876 875
f 899 865 900
f 891 901 902
f 866 867 878
f 863 872 874
f 867 874 877
f 877 878 867
f 885 884 912
f 887 888 870
f 890 889 864
f 886 891 902
f 893 892 871
f 895 866 873
f 898 864 899
f 895 897 866
f 871 892 900
f 903 886 904
f 906 905 868
f 880 907 879
f 879 909 883
f 909 884 883
f 864 914 911
f 932 931 929
f 936 949 945
f 942 957 943
f 956 916 954
f 960 919 952
f 963 959 961
f 969 971 972
f 966 976 977
f 968 993 994
f 970 989 990
f 969 978 979
f 976 966 980
f 978 969 977
f 973 975 974
f 967 992 989
f 967 970 985
f 987 985 970
f 991 993 968
f 966 972 973
f 981 983 966
f 968 986 987
f 988 982 974
f 983 980 966
f 970 990 991
f 997 969 995
f 971 997 998
f 968 994 1004
f 1000 967 984
f 967 1002 992
f 1029 1015 1016
f 1017 1036 1024
f 1035 1038 1025
f 1031 1042 1037
f 1012 1047 1032
f 1005 1033 1039
f 1027 1048 1049
f 1051 1055 1056
f 1055 1067 1068
f 1051 1054 1052
f 1062 1053 1064
f 1054 1053 1052
f 1052 1069 1070
f 1057 1054 1058
f 1054 1056 1058
f 1054 1057 1059
f 1064 1073 1072
f 1061 1053 1062
f 1052 1061 1063
f 1063 1065 1052
f 1069 1065 1071
f 1051 1070 1067
f 1074 1073 1060
f 1052 1070 1051
f 1052 1065 1069
f 1066 1065 1063
f 1053 1061 1052
f 1059 1064 1053
f 1059 1073 1064
f 1059 1060 1073
f 1054 1059 1053
f 1051 1056 1054
f 1051 1067 1055
f 1043 1027 1046
f 1046 1049 1044
f 1046 1027 1049
f 1041 1008 1006
f 1009 1007 1008
f 1041 1009 1008
f 1041 1050 1009
f 1009 1050 1010
f 1010 1050 1030
f 1041 1006 1039
f 1006 1005 1039
f 1026 1047 1014
f 1014 1047 1012
f 1012 1032 1011
f 1011 1032 1013
f 1031 1037 1045
f 1035 1025 1040
f 1018 1017 1024
f 1036 1017 1020
f 1036 1019 1034
f 1036 1020 1019
f 1021 1015 1022
f 1022 1015 1023
f 1015 1029 1023
f 1023 1029 1028
f 1000 1002 967
f 1000 984 1001
f 968 1003 986
f 968 1004 1003
f 969 997 971
f 970 991 968
f 999 993 991
f 987 970 968
f 967 985 984
f 966 973 981
f 981 973 982
f 982 973 974
f 969 996 995
f 969 979 996
f 967 989 970
f 966 977 969
f 969 972 966
f 961 965 946
f 958 961 946
f 958 963 961
f 960 964 953
f 960 953 919
f 948 917 962
f 916 956 962
f 948 920 918
f 948 918 917
f 962 917 916
f 939 938 941
f 938 955 957
f 938 957 941
f 941 957 940
f 940 957 942
f 944 936 945
f 949 937 951
f 949 936 934
f 949 934 937
f 935 934 936
f 922 947 923
f 922 921 947
f 947 921 928
f 921 925 928
f 947 928 950
f 950 928 926
f 950 926 927
f 950 927 933
f 947 924 923
f 929 930 932
f 929 931 947
f 947 931 924
f 864 911 865
f 912 884 909
f 907 909 879
f 908 907 880
f 906 868 865
f 871 900 865
f 895 873 896
f 893 871 868
f 886 902 904
f 864 898 901
f 890 864 901
f 885 912 915
f 863 874 867
f 866 878 876
f 890 901 891
f 864 865 899
f 915 914 864
f 889 915 864
f 863 888 881
f 870 905 913
f 870 913 887
f 887 908 880
f 866 897 869
f 894 868 869
f 863 881 872
f 854 851 849
f 848 854 850
f 848 852 857
f 848 857 854
f 852 856 857
f 853 856 852
f 854 849 850
f 848 850 855
f 834 835 833
f 835 838 833
f 838 859 833
f 859 861 833
f 842 839 840
f 833 842 840
f 833 843 842
f 833 845 843
f 833 861 845
f 845 861 860
f 833 840 841
f 844 862 827
f 827 822 832
f 832 828 831
f 831 828 830
f 820 825 826
f 820 824 825
f 821 820 826
f 830 821 826
f 832 829 828
f 830 828 821
f 832 822 829
f 827 862 822
f 846 813 823
f 846 837 813
f 813 837 815
f 837 814 815
f 815 819 818
f 814 819 815
f 814 816 817
f 802 801 781
f 781 789 787
f 798 799 783
f 807 785 796
f 783 792 809
f 783 800 798
f 786 788 810
f 787 810 781
f 785 804 808
f 785 782 790
f 785 790 796
f 769 768 779
f 769 779 770
f 770 766 767
f 770 779 766
f 779 777 766
f 780 776 753
f 780 753 752
f 752 753 751
f 780 754 771
f 761 773 772
f 761 763 773
f 761 774 763
f 773 763 765
f 762 755 764
f 764 755 756
f 756 755 759
f 756 760 757
f 756 759 760
f 745 724 739
f 679 744 685
f 737 736 688
f 685 733 684
f 730 721 713
f 730 692 721
f 727 729 694
f 726 694 692
f 722 743 679
f 691 718 695
f 748 749 686
f 713 746 730
f 699 683 680
f 697 699 694
f 696 723 679
f 693 702 701
f 701 698 693
f 695 720 692
f 682 717 711
f 716 710 687
f 687 714 716
f 691 708 715
f 681 724 706
f 681 740 739
f 707 705 681
f 748 735 738
f 686 734 735
f 688 690 703
f 672 671 673
f 673 671 677
f 676 653 616
f 676 616 624
f 676 624 623
f 676 623 659
f 659 623 621
f 623 622 621
f 659 618 609
f 659 621 618
f 609 618 610
f 610 618 611
f 610 606 608
f 610 611 606
f 606 611 612
f 606 612 613
f 606 613 619
f 606 614 607
f 607 614 620
f 606 615 614
f 606 619 615
f 669 667 678
f 670 657 656
f 670 627 665
f 670 656 627
f 665 627 664
f 639 638 642
f 642 638 637
f 642 637 641
f 641 637 635
f 641 635 640
f 640 635 645
f 635 644 645
f 636 644 635
f 648 644 636
f 648 643 644
f 648 647 643
f 643 647 666
f 647 663 666
f 629 631 661
f 661 631 633
f 661 633 668
f 633 655 668
f 633 654 655
f 629 660 630
f 662 651 652
f 662 652 658
f 652 650 658
f 625 650 646
f 626 599 634
f 634 599 632
f 632 599 601
f 632 601 600
f 600 601 605
f 600 603 602
f 601 604 605
f 586 587 539
f 542 585 539
f 589 575 567
f 567 569 559
f 579 594 536
f 570 572 541
f 541 549 548
f 571 541 548
f 569 568 559
f 559 568 560
f 563 582 592
f 561 545 562
f 548 552 543
f 568 548 543
f 534 547 590
f 590 546 541
f 532 582 576
f 556 591 539
f 542 581 580
f 589 565 535
f 537 574 573
f 510 511 516
f 515 511 514
f 511 515 516
f 508 523 522
f 508 522 518
f 522 520 521
f 522 521 518
f 521 517 518
f 510 508 518
f 523 530 528
f 510 516 509
f 510 509 508
f 509 507 508
f 523 508 530
f 508 505 530
f 530 506 529
f 530 505 506
f 529 506 512
f 529 512 513
f 531 527 482
f 531 482 489
f 531 489 485
f 531 485 524
f 524 485 483
f 485 486 483
f 524 492 490
f 524 483 484
f 490 493 491
f 490 492 493
f 524 484 487
f 524 488 492
f 496 526 525
f 496 525 504
f 504 525 502
f 500 494 503
f 502 500 503
f 502 525 500
f 503 495 501
f 503 494 495
f 496 497 526
f 497 498 526
f 479 481 441
f 477 437 475
f 476 475 439
f 469 435 432
f 471 472 435
f 469 455 470
f 438 468 433
f 440 453 436
f 445 459 460
f 444 443 431
f 456 432 436
f 437 465 438
f 431 451 450
f 441 480 478
f 441 449 480
f 440 447 448
f 436 457 456
f 433 463 459
f 408 407 429
f 408 429 427
f 408 427 426
f 410 414 383
f 420 419 380
f 420 381 382
f 420 382 383
f 420 380 381
f 410 428 414
f 398 400 399
f 400 401 399
f 399 401 403
f 401 402 403
f 396 402 401
f 396 421 402
f 396 397 421
f 402 421 424
f 404 417 423
f 416 388 418
f 418 388 394
f 418 394 391
f 394 392 390
f 394 390 391
f 418 391 405
f 391 393 405
f 405 393 387
f 384 389 395
f 384 395 413
f 413 395 386
f 430 386 411
f 385 412 370
f 370 379 376
f 376 379 375
f 372 371 368
f 373 368 369
f 377 373 369
f 375 377 369
f 375 378 377
f 375 379 378
f 370 374 379
f 370 412 374
f 374 412 409
f 365 333 332
f 365 367 333
f 335 366 332
f 356 357 338
f 354 338 336
f 346 349 338
f 332 341 336
f 335 347 345
f 337 351 334
f 335 345 362
f 333 358 332
f 332 359 340
f 336 339 354
f 312 324 316
f 324 329 316
f 316 329 314
f 314 329 315
f 315 327 331
f 315 329 325
f 323 308 328
f 328 311 320
f 328 308 311
f 304 321 326
f 304 326 330
f 304 330 306
f 294 293 298
f 319 293 296
f 293 303 299
f 301 303 293
f 300 303 301
f 293 299 296
f 319 296 307
f 301 293 302
f 293 319 313
f 293 313 297
f 297 313 295
f 305 289 317
f 317 292 291
f 317 289 292
f 309 291 290
f 291 318 317
f 1624 1648 1626
f 1626 1649 1634
f 1636 1638 1627
f 1637 1636 1623
f 1623 1636 1628
f 1632 1635 1626
f 1642 1641 1635
f 1647 1646 1631
f 1640 1623 1625
f 1623 1630 1624
f 1609 1608 1610
f 1609 1610 1620
f 1609 1620 1613
f 1620 1622 1613
f 1614 1621 1597
f 1621 1617 1597
f 1597 1595 1596
f 1617 1595 1597
f 1617 1598 1595
f 1600 1603 1599
f 1599 1603 1618
f 1602 1618 1603
f 1604 1618 1602
f 1604 1605 1618
f 1599 1618 1601
f 1591 1590 1592
f 1591 1592 1607
f 1607 1592 1606
f 1591 1607 1593
f 1612 1611 1594
f 1612 1594 1593
f 1580 1581 1534
f 1579 1534 1536
f 1577 1536 1578
f 1570 1541 1571
f 1563 1582 1542
f 1534 1559 1586
f 1567 1542 1531
f 1575 1568 1540
f 1565 1562 1533
f 1560 1555 1586
f 1541 1576 1529
f 1588 1557 1539
f 1537 1529 1572
f 1546 1552 1532
f 1532 1550 1547
f 1537 1573 1540
f 1550 1549 1547
f 1531 1568 1561
f 1525 1517 1516
f 1525 1524 1517
f 1525 1516 1514
f 1525 1514 1527
f 1521 1505 1528
f 1528 1505 1512
f 1528 1510 1526
f 1528 1512 1510
f 1526 1510 1513
f 1510 1509 1513
f 1509 1511 1513
f 1526 1513 1507
f 1498 1506 1520
f 1498 1520 1504
f 1504 1520 1503
f 1503 1500 1501
f 1503 1520 1500
f 1500 1499 1502
f 1500 1520 1499
f 1508 1485 1519
f 1485 1495 1519
f 1519 1495 1518
f 1495 1486 1496
f 1496 1488 1497
f 1497 1488 1492
f 1495 1485 1486
f 1496 1486 1487
f 1496 1487 1488
f 1492 1488 1493
f 1493 1488 1489
f 1493 1489 1494
f 1494 1489 1490
f 1423 1472 1421
f 1458 1468 1410
f 1464 1479 1482
f 1412 1462 1416
f 1484 1455 1426
f 1454 1437 1447
f 1448 1411 1415
f 1446 1439 1445
f 1408 1445 1432
f 1411 1438 1423
f 1435 1452 1432
f 1432 1453 1422
f 1483 1415 1478
f 1422 1451 1425
f 1441 1414 1423
f 1414 1474 1423
f 1482 1467 1464
f 1414 1436 1465
f 1421 1460 1412
f 1410 1420 1458
f 1410 1442 1408
f 1382 1383 1393
f 1382 1393 1405
f 1393 1396 1405
f 1405 1396 1398
f 1396 1397 1398
f 1405 1398 1406
f 1406 1398 1399
f 1406 1399 1389
f 1406 1389 1404
f 1393 1383 1384
f 1384 1383 1379
f 1383 1381 1379
f 1384 1379 1385
f 1385 1379 1386
f 1386 1379 1394
f 1394 1379 1388
f 1379 1380 1387
f 1380 1395 1387
f 1379 1387 1388
f 1407 1390 1360
f 1407 1360 1364
f 1407 1364 1365
f 1407 1365 1401
f 1365 1363 1401
f 1358 1363 1365
f 1358 1365 1362
f 1359 1358 1362
f 1357 1358 1359
f 1402 1359 1362
f 1361 1402 1362
f 1372 1375 1371
f 1371 1377 1378
f 1372 1373 1375
f 1378 1377 1376
f 1371 1375 1374
f 1367 1392 1400
f 1367 1400 1369
f 1369 1400 1370
f 1367 1366 1392
f 1351 1345 1343
f 1347 1343 1344
f 1345 1353 1343
f 1344 1343 1348
f 1333 1332 1341
f 1333 1341 1335
f 1333 1335 1339
f 1333 1340 1337
f 1335 1334 1339
f 1337 1342 1338
f 1334 1336 1339
f 1337 1340 1342
f 1326 1306 1290
f 1326 1301 1306
f 1323 1321 1329
f 1329 1321 1331
f 1331 1321 1318
f 1321 1300 1318
f 1320 1309 1299
f 1320 1296 1309
f 1320 1300 1321
f 1317 1301 1328
f 1297 1295 1289
f 1290 1304 1289
f 1294 1288 1289
f 1312 1290 1287
f 1290 1324 1326
f 1290 1311 1324
f 1289 1303 1297
f 1293 1316 1288
f 1288 1316 1287
f 1287 1315 1310
f 1279 1256 1286
f 1279 1281 1256
f 1256 1281 1283
f 1258 1237 1280
f 1280 1266 1268
f 1280 1237 1266
f 1249 1276 1250
f 1249 1277 1276
f 1249 1247 1277
f 1251 1278 1264
f 1264 1269 1267
f 1271 1270 1241
f 1271 1241 1273
f 1241 1242 1273
f 1242 1284 1273
f 1244 1257 1284
f 1262 1263 1282
f 1282 1274 1255
f 1262 1233 1263
f 1229 1234 1231
f 1234 1232 1231
f 1234 1254 1253
f 1234 1253 1232
f 1232 1240 1230
f 1230 1252 1248
f 1232 1253 1240
f 1235 1212 1246
f 1246 1212 1211
f 1211 1212 1210
f 1246 1213 1272
f 1272 1213 1214
f 1246 1211 1213
f 1219 1228 1223
f 1219 1226 1224
f 1238 1226 1239
f 1261 1260 1221
f 1261 1221 1223
f 1219 1223 1226
f 1239 1226 1225
f 1239 1225 1220
f 1239 1220 1236
f 1226 1238 1224
f 1219 1218 1228
f 1227 1216 1222
f 1227 1215 1216
f 1216 1245 1217
f 1215 1245 1216
f 1207 1201 1144
f 1144 1193 1157
f 1184 1159 1179
f 1151 1178 1143
f 1176 1151 1141
f 1153 1172 1160
f 1146 1169 1153
f 1162 1161 1147
f 1153 1205 1199
f 1143 1173 1168
f 1142 1190 1203
f 1183 1180 1155
f 1204 1140 1142
f 1148 1195 1200
f 1146 1153 1189
f 1157 1196 1144
f 1165 1155 1156
f 1165 1182 1155
f 1145 1174 1141
f 1146 1170 1169
f 1152 1143 1166
f 1147 1192 1163
f 1163 1192 1191
f 1146 1189 1154
f 1105 1138 1136
f 1105 1136 1115
f 1115 1136 1116
f 1116 1136 1111
f 1105 1104 1138
f 1138 1118 1137
f 1138 1104 1107
f 1138 1107 1118
f 1107 1106 1112
f 1107 1117 1118
f 1123 1117 1107
f 1113 1123 1107
f 1112 1121 1113
f 1117 1109 1108
f 1123 1122 1109
f 1117 1123 1109
f 1112 1113 1107
f 1113 1121 1114
f 1121 1120 1114
f 1092 1098 1134
f 1092 1134 1093
f 1093 1134 1094
f 1094 1096 1095
f 1094 1134 1096
f 1096 1134 1097
f 1134 1133 1097
f 1134 1098 1132
f 1098 1101 1132
f 1099 1081 1080
f 1099 1080 1135
f 1139 1077 1110
f 1139 1080 1077
f 1110 1077 1079
f 1077 1078 1079
f 1080 1139 1135
f 1084 1083 1087
f 1130 1128 1088
f 1130 1086 1087
f 1130 1088 1086
f 1087 1083 1130
f 1130 1083 1085
f 1127 1131 1103
f 1103 1090 1102
f 1103 1131 1090
f 1091 1076 1089
f 1091 1124 1076
f 1091 1082 1125
f 283 247 284
f 288 280 287
f 278 279 246
f 264 253 250
f 251 266 247
f 262 261 275
f 275 261 277
f 247 255 252
f 283 246 247
f 245 286 285
f 261 260 248
f 245 281 246
f 246 273 249
f 250 247 258
f 249 269 251
f 248 251 268
f 220 242 244
f 240 242 220
f 221 240 220
f 220 244 222
f 218 239 240
f 243 241 237
f 232 235 238
f 208 211 228
f 236 229 228
f 228 212 236
f 228 211 212
f 236 212 217
f 212 210 217
f 210 224 217
f 230 216 195
f 234 188 189
f 234 189 195
f 189 196 195
f 230 195 186
f 230 190 227
f 230 186 190
f 186 187 190
f 227 190 191
f 227 191 192
f 234 194 193
f 188 234 193
f 194 234 226
f 198 199 213
f 213 199 201
f 213 201 203
f 201 202 203
f 213 200 209
f 213 203 200
f 198 213 204
f 206 205 207
f 204 206 207
f 219 182 214
f 182 185 215
f 215 185 184
f 184 183 215
f 219 214 223
f 182 215 214
f 90 164 177
f 159 162 99
f 158 159 108
f 110 150 103
f 100 150 110
f 98 174 163
f 98 140 174
f 111 127 87
f 137 111 89
f 105 143 142
f 120 161 175
f 121 175 85
f 119 126 93
f 119 152 153
f 104 95 171
f 108 155 157
f 86 155 113
f 167 95 106
f 116 170 165
f 98 84 138
f 110 103 135
f 135 129 110
f 84 142 141
f 105 84 132
f 100 99 147
f 93 122 85
f 103 146 131
f 116 165 93
f 93 165 152
f 87 128 84
f 98 163 90
f 51 56 54
f 51 50 56
f 56 61 55
f 56 50 61
f 61 80 55
f 55 80 58
f 58 80 59
f 81 52 57
f 59 81 57
f 59 80 81
f 37 53 73
f 73 53 82
f 41 40 43
f 40 77 43
f 43 77 44
f 44 77 45
f 45 77 76
f 77 40 47
f 40 42 47
f 69 29 70
f 28 29 35
f 31 34 33
f 31 35 34
f 35 31 32
f 35 32 28
f 29 28 70
f 70 28 48
f 71 49 3
f 49 46 2
f 49 2 3
f 71 6 64
f 71 3 5
f 71 5 6
f 5 4 6
f 64 6 7
f 22 21 23
f 21 60 23
f 60 21 62
f 21 24 62
f 62 67 74
f 66 24 25
f 24 67 62
f 10 9 14
f 68 26 14
f 14 26 15
f 15 26 16
f 14 9 68
f 68 9 18
f 68 18 65
f 18 19 12
f 18 36 65
f 12 36 18
f 12 11 36
f 11 17 36
f 17 13 36
f 20 1 27
f 27 1 39
f 20 8 1
