# Decoded from sources/assets/lusion.dev/assets/models/tunnels/grid_base_hd.buf
# Position/index data decoded from public .buf header and payload.
v 0.9918264 1.0000000 0.4381585
v 0.9750000 1.0000000 0.4381585
v 0.9750000 1.0000000 0.4218450
v 0.9918264 1.0000000 0.4218450
v 0.9750000 0.0000000 0.4381585
v 0.9918264 0.0000000 0.4381585
v 0.9918264 1.0000000 0.4381585
v 0.9750000 1.0000000 0.4381585
v 0.9750000 0.0000000 0.4218450
v 0.9750000 1.0000000 0.4381585
v 0.9750000 1.0000000 0.4218450
v 0.9750000 0.0000000 0.4381585
v 0.9918264 0.0000000 0.4218450
v 0.9750000 0.0000000 0.4218450
v 0.9750000 1.0000000 0.4218450
v 0.9918264 1.0000000 0.4218450
v 0.9918264 1.0000000 0.4381585
v 0.9918264 1.0000000 0.4218450
v 0.9918264 0.0000000 0.4218450
v 0.9918264 0.0000000 0.4381585
v 3.0092275 1.0000000 0.4763075
v 3.0250001 1.0000000 0.4763075
v 3.0250001 1.0000000 0.5000000
v 3.0092275 1.0000000 0.5000000
v 3.0250001 0.0000000 0.4763075
v 3.0092275 0.0000000 0.4763075
v 3.0092275 1.0000000 0.4763075
v 3.0250001 1.0000000 0.4763075
v 3.0250001 0.0000000 0.5000000
v 3.0250001 0.0000000 0.4763075
v 3.0250001 1.0000000 0.4763075
v 3.0250001 1.0000000 0.5000000
v 3.0092275 0.0000000 0.5000000
v 3.0250001 0.0000000 0.5000000
v 3.0250001 1.0000000 0.5000000
v 3.0092275 1.0000000 0.5000000
v 3.0092275 1.0000000 0.4763075
v 3.0092275 1.0000000 0.5000000
v 3.0092275 0.0000000 0.5000000
v 3.0092275 0.0000000 0.4763075
v 1.9918340 1.0000001 0.2484957
v 1.9750000 1.0000001 0.2484957
v 1.9750000 1.0000001 0.2235697
v 1.9918340 1.0000001 0.2235697
v 1.9750000 0.0000000 0.2484957
v 1.9918340 0.0000000 0.2484957
v 1.9918340 1.0000001 0.2484957
v 1.9750000 1.0000001 0.2484957
v 1.9750000 0.0000000 0.2235697
v 1.9750000 0.0000000 0.2484957
v 1.9750000 1.0000001 0.2484957
v 1.9750000 1.0000001 0.2235697
v 1.9918340 0.0000000 0.2235697
v 1.9750000 0.0000000 0.2235697
v 1.9750000 1.0000001 0.2235697
v 1.9918340 1.0000001 0.2235697
v 1.9918340 1.0000001 0.2484957
v 1.9918340 1.0000001 0.2235697
v 1.9918340 0.0000000 0.2235697
v 1.9918340 0.0000000 0.2484957
v 0.0119705 1.0000000 -0.5000000
v 0.0250000 1.0000000 -0.5000000
v 0.0250000 1.0000000 -0.4667227
v 0.0119705 1.0000000 -0.4667227
v 0.0250000 0.0000000 -0.5000000
v 0.0119705 0.0000000 -0.5000000
v 0.0119705 1.0000000 -0.5000000
v 0.0250000 1.0000000 -0.5000000
v 0.0250000 0.0000000 -0.4667227
v 0.0250000 0.0000000 -0.5000000
v 0.0250000 1.0000000 -0.5000000
v 0.0250000 1.0000000 -0.4667227
v 0.0119705 0.0000000 -0.4667227
v 0.0250000 0.0000000 -0.4667227
v 0.0250000 1.0000000 -0.4667227
v 0.0119705 1.0000000 -0.4667227
v 0.0119705 0.0000000 -0.5000000
v 0.0119705 0.0000000 -0.4667227
v 0.0119705 1.0000000 -0.5000000
v 0.0119705 1.0000000 -0.4667227
v 0.9918264 1.0000000 0.4218450
v 1.0250000 1.0000000 0.4218450
v 1.0250000 1.0000000 0.4381585
v 0.9918264 1.0000000 0.4381585
v 1.0250000 0.0000000 0.4218450
v 0.9918264 0.0000000 0.4218450
v 0.9918264 1.0000000 0.4218450
v 1.0250000 1.0000000 0.4218450
v 1.0250000 0.0000000 0.4381585
v 1.0250000 0.0000000 0.4218450
v 1.0250000 1.0000000 0.4218450
v 1.0250000 1.0000000 0.4381585
v 0.9918264 0.0000000 0.4381585
v 1.0250000 1.0000000 0.4381585
v 0.9918264 1.0000000 0.4381585
v 1.0250000 0.0000000 0.4381585
v 0.9918264 0.0000000 0.4218450
v 0.9918264 0.0000000 0.4381585
v 0.9918264 1.0000000 0.4218450
v 0.9918264 1.0000000 0.4381585
v -0.0115573 1.0000000 -0.4215564
v -0.0250000 1.0000000 -0.4215564
v -0.0250000 1.0000000 -0.4667227
v -0.0115573 1.0000000 -0.4667227
v -0.0250000 0.0000000 -0.4215564
v -0.0115573 0.0000000 -0.4215564
v -0.0115573 1.0000000 -0.4215564
v -0.0250000 1.0000000 -0.4215564
v -0.0250000 0.0000000 -0.4667227
v -0.0250000 0.0000000 -0.4215564
v -0.0250000 1.0000000 -0.4215564
v -0.0250000 1.0000000 -0.4667227
v -0.0115573 0.0000000 -0.4667227
v -0.0250000 1.0000000 -0.4667227
v -0.0115573 1.0000000 -0.4667227
v -0.0250000 0.0000000 -0.4667227
v -0.0115573 0.0000000 -0.4215564
v -0.0115573 0.0000000 -0.4667227
v -0.0115573 1.0000000 -0.4215564
v -0.0115573 1.0000000 -0.4667227
v 0.0250000 1.0000000 0.4845263
v 0.0250000 1.0000000 0.5000000
v -0.0250000 1.0000000 0.5000000
v -0.0250000 1.0000000 0.4845263
v 0.0250000 0.0000000 0.5000000
v 0.0250000 0.0000000 0.4845263
v 0.0250000 1.0000000 0.4845263
v 0.0250000 1.0000000 0.5000000
v -0.0250000 0.0000000 0.5000000
v 0.0250000 0.0000000 0.5000000
v 0.0250000 1.0000000 0.5000000
v -0.0250000 1.0000000 0.5000000
v -0.0250000 0.0000000 0.4845263
v -0.0250000 0.0000000 0.5000000
v -0.0250000 1.0000000 0.5000000
v -0.0250000 1.0000000 0.4845263
v 0.0250000 0.0000000 0.4845263
v -0.0250000 0.0000000 0.4845263
v 0.0250000 1.0000000 0.4845263
v -0.0250000 1.0000000 0.4845263
v 3.0250001 1.0000000 -0.4516644
v 3.0250001 1.0000000 -0.4357504
v 2.9749999 1.0000000 -0.4357504
v 2.9749999 1.0000000 -0.4516644
v 3.0250001 0.0000000 -0.4357504
v 3.0250001 0.0000000 -0.4516644
v 3.0250001 1.0000000 -0.4516644
v 3.0250001 1.0000000 -0.4357504
v 2.9749999 0.0000000 -0.4357504
v 3.0250001 0.0000000 -0.4357504
v 3.0250001 1.0000000 -0.4357504
v 2.9749999 1.0000000 -0.4357504
v 2.9749999 0.0000000 -0.4516644
v 2.9749999 0.0000000 -0.4357504
v 2.9749999 1.0000000 -0.4357504
v 2.9749999 1.0000000 -0.4516644
v 3.0250001 1.0000000 -0.4516644
v 2.9749999 1.0000000 -0.4516644
v 2.9749999 0.0000000 -0.4516644
v 3.0250001 0.0000000 -0.4516644
v 3.0092275 1.0000000 0.5000000
v 2.9749999 1.0000000 0.5000000
v 2.9749999 1.0000000 0.4763075
v 3.0092275 1.0000000 0.4763075
v 2.9749999 0.0000000 0.5000000
v 3.0092275 0.0000000 0.5000000
v 3.0092275 1.0000000 0.5000000
v 2.9749999 1.0000000 0.5000000
v 2.9749999 0.0000000 0.4763075
v 2.9749999 0.0000000 0.5000000
v 2.9749999 1.0000000 0.5000000
v 2.9749999 1.0000000 0.4763075
v 3.0092275 0.0000000 0.4763075
v 2.9749999 0.0000000 0.4763075
v 2.9749999 1.0000000 0.4763075
v 3.0092275 1.0000000 0.4763075
v 3.0092275 0.0000000 0.5000000
v 3.0092275 0.0000000 0.4763075
v 3.0092275 1.0000000 0.5000000
v 3.0092275 1.0000000 0.4763075
v 1.9918340 1.0000000 0.2235697
v 2.0250001 1.0000000 0.2235697
v 2.0250001 1.0000000 0.2484957
v 1.9918340 1.0000000 0.2484957
v 2.0250001 0.0000000 0.2235697
v 1.9918340 0.0000000 0.2235697
v 1.9918340 1.0000000 0.2235697
v 2.0250001 1.0000000 0.2235697
v 2.0250001 0.0000000 0.2484957
v 2.0250001 0.0000000 0.2235697
v 2.0250001 1.0000000 0.2235697
v 2.0250001 1.0000000 0.2484957
v 1.9918340 0.0000000 0.2484957
v 2.0250001 0.0000000 0.2484957
v 2.0250001 1.0000000 0.2484957
v 1.9918340 1.0000000 0.2484957
v 1.9918340 0.0000000 0.2235697
v 1.9918340 0.0000000 0.2484957
v 1.9918340 1.0000000 0.2235697
v 1.9918340 1.0000000 0.2484957
v 1.0250000 1.0000000 0.4833727
v 1.0250000 1.0000000 0.5000000
v 0.9750000 1.0000000 0.5000000
v 0.9750000 1.0000000 0.4833727
v 1.0250000 0.0000000 0.5000000
v 1.0250000 0.0000000 0.4833727
v 1.0250000 1.0000000 0.4833727
v 1.0250000 1.0000000 0.5000000
v 0.9750000 0.0000000 0.5000000
v 1.0250000 0.0000000 0.5000000
v 1.0250000 1.0000000 0.5000000
v 0.9750000 1.0000000 0.5000000
v 0.9750000 0.0000000 0.4833727
v 0.9750000 0.0000000 0.5000000
v 0.9750000 1.0000000 0.5000000
v 0.9750000 1.0000000 0.4833727
v 1.0250000 0.0000000 0.4833727
v 0.9750000 0.0000000 0.4833727
v 1.0250000 1.0000000 0.4833727
v 0.9750000 1.0000000 0.4833727
v 3.0066438 1.0000001 0.4267733
v 3.0250001 1.0000001 0.4267733
v 3.0250001 1.0000001 0.4763075
v 3.0066438 1.0000001 0.4763075
v 3.0250001 0.0000000 0.4267733
v 3.0066438 0.0000000 0.4267733
v 3.0066438 1.0000001 0.4267733
v 3.0250001 1.0000001 0.4267733
v 3.0250001 0.0000000 0.4763075
v 3.0250001 0.0000000 0.4267733
v 3.0250001 1.0000001 0.4267733
v 3.0250001 1.0000001 0.4763075
v 3.0066438 0.0000000 0.4763075
v 3.0250001 1.0000001 0.4763075
v 3.0066438 1.0000001 0.4763075
v 3.0250001 0.0000000 0.4763075
v 3.0066438 0.0000000 0.4267733
v 3.0066438 0.0000000 0.4763075
v 3.0066438 1.0000001 0.4267733
v 3.0066438 1.0000001 0.4763075
v 1.9750000 1.0000000 0.1679780
v 1.9750000 1.0000000 0.1494040
v 2.0250001 1.0000000 0.1494040
v 2.0250001 1.0000000 0.1679780
v 1.9750000 0.0000000 0.1494040
v 1.9750000 0.0000000 0.1679780
v 1.9750000 1.0000000 0.1679780
v 1.9750000 1.0000000 0.1494040
v 2.0250001 0.0000000 0.1494040
v 1.9750000 0.0000000 0.1494040
v 1.9750000 1.0000000 0.1494040
v 2.0250001 1.0000000 0.1494040
v 2.0250001 0.0000000 0.1679780
v 2.0250001 0.0000000 0.1494040
v 2.0250001 1.0000000 0.1494040
v 2.0250001 1.0000000 0.1679780
v 1.9750000 1.0000000 0.1679780
v 2.0250001 1.0000000 0.1679780
v 2.0250001 0.0000000 0.1679780
v 1.9750000 0.0000000 0.1679780
v 0.0119705 1.0000000 -0.4667227
v -0.0250000 1.0000000 -0.4667227
v -0.0250000 1.0000000 -0.5000000
v 0.0119705 1.0000000 -0.5000000
v -0.0250000 0.0000000 -0.4667227
v 0.0119705 0.0000000 -0.4667227
v 0.0119705 1.0000000 -0.4667227
v -0.0250000 1.0000000 -0.4667227
v -0.0250000 0.0000000 -0.5000000
v -0.0250000 0.0000000 -0.4667227
v -0.0250000 1.0000000 -0.4667227
v -0.0250000 1.0000000 -0.5000000
v 0.0119705 0.0000000 -0.5000000
v -0.0250000 0.0000000 -0.5000000
v -0.0250000 1.0000000 -0.5000000
v 0.0119705 1.0000000 -0.5000000
v 0.0119705 1.0000000 -0.4667227
v 0.0119705 1.0000000 -0.5000000
v 0.0119705 0.0000000 -0.5000000
v 0.0119705 0.0000000 -0.4667227
v -0.0250000 1.0000001 -0.3961762
v -0.0250000 1.0000001 -0.4215564
v 0.0250000 1.0000001 -0.4215564
v 0.0250000 1.0000001 -0.3961762
v -0.0250000 0.0000000 -0.3961762
v -0.0250000 0.0000000 -0.4215564
v -0.0250000 1.0000001 -0.3961762
v -0.0250000 1.0000001 -0.4215564
v 0.0250000 0.0000000 -0.4215564
v -0.0250000 1.0000001 -0.4215564
v 0.0250000 1.0000001 -0.4215564
v -0.0250000 0.0000000 -0.4215564
v 0.0250000 0.0000000 -0.3961762
v 0.0250000 1.0000001 -0.4215564
v 0.0250000 1.0000001 -0.3961762
v 0.0250000 0.0000000 -0.4215564
v -0.0250000 0.0000000 -0.3961762
v 0.0250000 0.0000000 -0.3961762
v -0.0250000 1.0000001 -0.3961762
v 0.0250000 1.0000001 -0.3961762
v 0.9750000 1.0000000 0.2474611
v 0.9750000 1.0000000 0.2218714
v 1.0250000 1.0000000 0.2218714
v 1.0250000 1.0000000 0.2474611
v 0.9750000 0.0000000 0.2218714
v 0.9750000 0.0000000 0.2474611
v 0.9750000 1.0000000 0.2474611
v 0.9750000 1.0000000 0.2218714
v 1.0250000 0.0000000 0.2218714
v 0.9750000 0.0000000 0.2218714
v 0.9750000 1.0000000 0.2218714
v 1.0250000 1.0000000 0.2218714
v 1.0250000 0.0000000 0.2474611
v 1.0250000 0.0000000 0.2218714
v 1.0250000 1.0000000 0.2218714
v 1.0250000 1.0000000 0.2474611
v 0.9750000 0.0000000 0.2474611
v 1.0250000 0.0000000 0.2474611
v 0.9750000 1.0000000 0.2474611
v 1.0250000 1.0000000 0.2474611
v 2.9749999 1.0000000 0.3661638
v 2.9749999 1.0000000 0.3400007
v 3.0250001 1.0000000 0.3400007
v 3.0250001 1.0000000 0.3661638
v 2.9749999 0.0000000 0.3400007
v 2.9749999 0.0000000 0.3661638
v 2.9749999 1.0000000 0.3661638
v 2.9749999 1.0000000 0.3400007
v 3.0250001 0.0000000 0.3400007
v 2.9749999 1.0000000 0.3400007
v 3.0250001 1.0000000 0.3400007
v 2.9749999 0.0000000 0.3400007
v 3.0250001 0.0000000 0.3661638
v 3.0250001 1.0000000 0.3400007
v 3.0250001 1.0000000 0.3661638
v 3.0250001 0.0000000 0.3400007
v 2.9749999 1.0000000 0.3661638
v 3.0250001 1.0000000 0.3661638
v 3.0250001 0.0000000 0.3661638
v 2.9749999 0.0000000 0.3661638
v 1.0250000 1.0000000 0.2474611
v 1.0250000 1.0000000 0.2739826
v 0.9750000 1.0000000 0.2739826
v 0.9750000 1.0000000 0.2474611
v 1.0250000 0.0000000 0.2739826
v 1.0250000 0.0000000 0.2474611
v 1.0250000 1.0000000 0.2474611
v 1.0250000 1.0000000 0.2739826
v 0.9750000 0.0000000 0.2739826
v 1.0250000 0.0000000 0.2739826
v 1.0250000 1.0000000 0.2739826
v 0.9750000 1.0000000 0.2739826
v 0.9750000 0.0000000 0.2474611
v 0.9750000 0.0000000 0.2739826
v 0.9750000 1.0000000 0.2739826
v 0.9750000 1.0000000 0.2474611
v 1.0250000 1.0000000 0.2474611
v 0.9750000 1.0000000 0.2474611
v 0.9750000 0.0000000 0.2474611
v 1.0250000 0.0000000 0.2474611
v 1.9750000 1.0000000 0.2758743
v 1.9750000 1.0000000 0.2484957
v 2.0250001 1.0000000 0.2484957
v 2.0250001 1.0000000 0.2758743
v 1.9750000 0.0000000 0.2484957
v 1.9750000 0.0000000 0.2758743
v 1.9750000 1.0000000 0.2758743
v 1.9750000 1.0000000 0.2484957
v 2.0250001 0.0000000 0.2484957
v 1.9750000 1.0000000 0.2484957
v 2.0250001 1.0000000 0.2484957
v 1.9750000 0.0000000 0.2484957
v 2.0250001 0.0000000 0.2758743
v 2.0250001 1.0000000 0.2484957
v 2.0250001 1.0000000 0.2758743
v 2.0250001 0.0000000 0.2484957
v 1.9750000 1.0000000 0.2758743
v 2.0250001 1.0000000 0.2758743
v 2.0250001 0.0000000 0.2758743
v 1.9750000 0.0000000 0.2758743
v 2.0250001 1.0000001 0.4725794
v 2.0250001 1.0000001 0.5000000
v 1.9750000 1.0000001 0.5000000
v 1.9750000 1.0000001 0.4725794
v 2.0250001 0.0000000 0.5000000
v 2.0250001 0.0000000 0.4725794
v 2.0250001 1.0000001 0.4725794
v 2.0250001 1.0000001 0.5000000
v 1.9750000 0.0000000 0.5000000
v 2.0250001 0.0000000 0.5000000
v 2.0250001 1.0000001 0.5000000
v 1.9750000 1.0000001 0.5000000
v 1.9750000 0.0000000 0.4725794
v 1.9750000 0.0000000 0.5000000
v 1.9750000 1.0000001 0.5000000
v 1.9750000 1.0000001 0.4725794
v 2.0250001 0.0000000 0.4725794
v 1.9750000 0.0000000 0.4725794
v 2.0250001 1.0000001 0.4725794
v 1.9750000 1.0000001 0.4725794
v 3.0066438 1.0000000 0.4763075
v 2.9749999 1.0000000 0.4763075
v 2.9749999 1.0000000 0.4267733
v 3.0066438 1.0000000 0.4267733
v 2.9749999 0.0000000 0.4763075
v 3.0066438 0.0000000 0.4763075
v 3.0066438 1.0000000 0.4763075
v 2.9749999 1.0000000 0.4763075
v 2.9749999 0.0000000 0.4267733
v 2.9749999 1.0000000 0.4763075
v 2.9749999 1.0000000 0.4267733
v 2.9749999 0.0000000 0.4763075
v 3.0066438 0.0000000 0.4267733
v 2.9749999 0.0000000 0.4267733
v 2.9749999 1.0000000 0.4267733
v 3.0066438 1.0000000 0.4267733
v 3.0066438 1.0000000 0.4763075
v 3.0066438 1.0000000 0.4267733
v 3.0066438 0.0000000 0.4267733
v 3.0066438 0.0000000 0.4763075
v -0.0115573 1.0000000 -0.4667227
v 0.0250000 1.0000000 -0.4667227
v 0.0250000 1.0000000 -0.4215564
v -0.0115573 1.0000000 -0.4215564
v 0.0250000 0.0000000 -0.4667227
v -0.0115573 0.0000000 -0.4667227
v -0.0115573 1.0000000 -0.4667227
v 0.0250000 1.0000000 -0.4667227
v 0.0250000 0.0000000 -0.4215564
v 0.0250000 1.0000000 -0.4667227
v 0.0250000 1.0000000 -0.4215564
v 0.0250000 0.0000000 -0.4667227
v -0.0115573 0.0000000 -0.4215564
v 0.0250000 0.0000000 -0.4215564
v 0.0250000 1.0000000 -0.4215564
v -0.0115573 1.0000000 -0.4215564
v -0.0115573 1.0000000 -0.4667227
v -0.0115573 1.0000000 -0.4215564
v -0.0115573 0.0000000 -0.4215564
v -0.0115573 0.0000000 -0.4667227
v 1.0250000 1.0000000 -0.4520519
v 1.0250000 1.0000000 -0.4176681
v 0.9750000 1.0000000 -0.4176681
v 0.9750000 1.0000000 -0.4520519
v 1.0250000 0.0000000 -0.4176681
v 1.0250000 0.0000000 -0.4520519
v 1.0250000 1.0000000 -0.4520519
v 1.0250000 1.0000000 -0.4176681
v 0.9750000 0.0000000 -0.4176681
v 1.0250000 0.0000000 -0.4176681
v 1.0250000 1.0000000 -0.4176681
v 0.9750000 1.0000000 -0.4176681
v 0.9750000 0.0000000 -0.4520519
v 0.9750000 0.0000000 -0.4176681
v 0.9750000 1.0000000 -0.4176681
v 0.9750000 1.0000000 -0.4520519
v 1.0250000 1.0000000 -0.4520519
v 0.9750000 1.0000000 -0.4520519
v 0.9750000 0.0000000 -0.4520519
v 1.0250000 0.0000000 -0.4520519
v 2.0250001 1.0000000 0.1124120
v 2.0250001 1.0000000 0.1494040
v 1.9750000 1.0000000 0.1494040
v 1.9750000 1.0000000 0.1124120
v 2.0250001 0.0000000 0.1494040
v 2.0250001 0.0000000 0.1124120
v 2.0250001 1.0000000 0.1124120
v 2.0250001 1.0000000 0.1494040
v 1.9750000 0.0000000 0.1494040
v 2.0250001 1.0000000 0.1494040
v 1.9750000 1.0000000 0.1494040
v 2.0250001 0.0000000 0.1494040
v 1.9750000 0.0000000 0.1124120
v 1.9750000 1.0000000 0.1494040
v 1.9750000 1.0000000 0.1124120
v 1.9750000 0.0000000 0.1494040
v 2.0250001 1.0000000 0.1124120
v 1.9750000 1.0000000 0.1124120
v 1.9750000 0.0000000 0.1124120
v 2.0250001 0.0000000 0.1124120
v -0.0250000 1.0000000 0.4845263
v -0.0250000 1.0000000 0.4449342
v 0.0250000 1.0000000 0.4449342
v 0.0250000 1.0000000 0.4845263
v -0.0250000 0.0000000 0.4449342
v -0.0250000 0.0000000 0.4845263
v -0.0250000 1.0000000 0.4845263
v -0.0250000 1.0000000 0.4449342
v 0.0250000 0.0000000 0.4449342
v -0.0250000 0.0000000 0.4449342
v -0.0250000 1.0000000 0.4449342
v 0.0250000 1.0000000 0.4449342
v 0.0250000 0.0000000 0.4845263
v 0.0250000 0.0000000 0.4449342
v 0.0250000 1.0000000 0.4449342
v 0.0250000 1.0000000 0.4845263
v -0.0250000 1.0000000 0.4845263
v 0.0250000 1.0000000 0.4845263
v 0.0250000 0.0000000 0.4845263
v -0.0250000 0.0000000 0.4845263
v 1.9750000 1.0000000 0.1124120
v 1.9750000 1.0000000 0.0725377
v 2.0250001 1.0000000 0.0725377
v 2.0250001 1.0000000 0.1124120
v 1.9750000 0.0000000 0.1124120
v 1.9750000 0.0000000 0.0725377
v 1.9750000 1.0000000 0.1124120
v 1.9750000 1.0000000 0.0725377
v 2.0250001 0.0000000 0.0725377
v 1.9750000 1.0000000 0.0725377
v 2.0250001 1.0000000 0.0725377
v 1.9750000 0.0000000 0.0725377
v 2.0250001 0.0000000 0.1124120
v 2.0250001 1.0000000 0.0725377
v 2.0250001 1.0000000 0.1124120
v 2.0250001 0.0000000 0.0725377
v 1.9750000 0.0000000 0.1124120
v 2.0250001 0.0000000 0.1124120
v 1.9750000 1.0000000 0.1124120
v 2.0250001 1.0000000 0.1124120
v 1.9750000 1.0000000 0.4725794
v 1.9750000 1.0000000 0.4322852
v 2.0250001 1.0000000 0.4322852
v 2.0250001 1.0000000 0.4725794
v 1.9750000 0.0000000 0.4322852
v 1.9750000 0.0000000 0.4725794
v 1.9750000 1.0000000 0.4725794
v 1.9750000 1.0000000 0.4322852
v 2.0250001 0.0000000 0.4322852
v 1.9750000 0.0000000 0.4322852
v 1.9750000 1.0000000 0.4322852
v 2.0250001 1.0000000 0.4322852
v 2.0250001 0.0000000 0.4725794
v 2.0250001 0.0000000 0.4322852
v 2.0250001 1.0000000 0.4322852
v 2.0250001 1.0000000 0.4725794
v 1.9750000 1.0000000 0.4725794
v 2.0250001 1.0000000 0.4725794
v 2.0250001 0.0000000 0.4725794
v 1.9750000 0.0000000 0.4725794
v 2.0250001 1.0000000 0.2758743
v 2.0250001 1.0000000 0.3162763
v 1.9750000 1.0000000 0.3162763
v 1.9750000 1.0000000 0.2758743
v 2.0250001 0.0000000 0.2758743
v 2.0250001 0.0000000 0.3162763
v 2.0250001 1.0000000 0.2758743
v 2.0250001 1.0000000 0.3162763
v 1.9750000 0.0000000 0.3162763
v 2.0250001 1.0000000 0.3162763
v 1.9750000 1.0000000 0.3162763
v 2.0250001 0.0000000 0.3162763
v 1.9750000 0.0000000 0.2758743
v 1.9750000 1.0000000 0.3162763
v 1.9750000 1.0000000 0.2758743
v 1.9750000 0.0000000 0.3162763
v 2.0250001 0.0000000 0.2758743
v 1.9750000 0.0000000 0.2758743
v 2.0250001 1.0000000 0.2758743
v 1.9750000 1.0000000 0.2758743
v 0.0250000 1.0000000 -0.3961762
v 0.0250000 1.0000000 -0.3526948
v -0.0250000 1.0000000 -0.3526948
v -0.0250000 1.0000000 -0.3961762
v 0.0250000 0.0000000 -0.3526948
v 0.0250000 0.0000000 -0.3961762
v 0.0250000 1.0000000 -0.3961762
v 0.0250000 1.0000000 -0.3526948
v -0.0250000 0.0000000 -0.3526948
v 0.0250000 1.0000000 -0.3526948
v -0.0250000 1.0000000 -0.3526948
v 0.0250000 0.0000000 -0.3526948
v -0.0250000 0.0000000 -0.3961762
v -0.0250000 1.0000000 -0.3526948
v -0.0250000 1.0000000 -0.3961762
v -0.0250000 0.0000000 -0.3526948
v 0.0250000 1.0000000 -0.3961762
v -0.0250000 1.0000000 -0.3961762
v -0.0250000 0.0000000 -0.3961762
v 0.0250000 0.0000000 -0.3961762
v 0.9750000 1.0000000 0.4833727
v 0.9750000 1.0000000 0.4381585
v 1.0250000 1.0000000 0.4381585
v 1.0250000 1.0000000 0.4833727
v 0.9750000 0.0000000 0.4381585
v 0.9750000 0.0000000 0.4833727
v 0.9750000 1.0000000 0.4833727
v 0.9750000 1.0000000 0.4381585
v 1.0250000 0.0000000 0.4381585
v 0.9750000 0.0000000 0.4381585
v 0.9750000 1.0000000 0.4381585
v 1.0250000 1.0000000 0.4381585
v 1.0250000 0.0000000 0.4833727
v 1.0250000 0.0000000 0.4381585
v 1.0250000 1.0000000 0.4381585
v 1.0250000 1.0000000 0.4833727
v 0.9750000 1.0000000 0.4833727
v 1.0250000 1.0000000 0.4833727
v 1.0250000 0.0000000 0.4833727
v 0.9750000 0.0000000 0.4833727
v 2.0250001 1.0000000 0.0262977
v 2.0250001 1.0000000 0.0725377
v 1.9750000 1.0000000 0.0725377
v 1.9750000 1.0000000 0.0262977
v 2.0250001 0.0000000 0.0725377
v 2.0250001 0.0000000 0.0262977
v 2.0250001 1.0000000 0.0262977
v 2.0250001 1.0000000 0.0725377
v 1.9750000 0.0000000 0.0725377
v 2.0250001 0.0000000 0.0725377
v 2.0250001 1.0000000 0.0725377
v 1.9750000 1.0000000 0.0725377
v 1.9750000 0.0000000 0.0262977
v 1.9750000 0.0000000 0.0725377
v 1.9750000 1.0000000 0.0725377
v 1.9750000 1.0000000 0.0262977
v 2.0250001 0.0000000 0.0262977
v 1.9750000 0.0000000 0.0262977
v 2.0250001 1.0000000 0.0262977
v 1.9750000 1.0000000 0.0262977
v 1.0250000 1.0000000 0.3740041
v 1.0250000 1.0000000 0.4218450
v 0.9750000 1.0000000 0.4218450
v 0.9750000 1.0000000 0.3740041
v 1.0250000 0.0000000 0.3740041
v 1.0250000 0.0000000 0.4218450
v 1.0250000 1.0000000 0.3740041
v 1.0250000 1.0000000 0.4218450
v 0.9750000 0.0000000 0.4218450
v 1.0250000 1.0000000 0.4218450
v 0.9750000 1.0000000 0.4218450
v 1.0250000 0.0000000 0.4218450
v 0.9750000 0.0000000 0.3740041
v 0.9750000 1.0000000 0.4218450
v 0.9750000 1.0000000 0.3740041
v 0.9750000 0.0000000 0.4218450
v 1.0250000 0.0000000 0.3740041
v 0.9750000 0.0000000 0.3740041
v 1.0250000 1.0000000 0.3740041
v 0.9750000 1.0000000 0.3740041
v 0.9750000 1.0000000 -0.4520519
v 0.9750000 1.0000000 -0.5000000
v 1.0250000 1.0000000 -0.5000000
v 1.0250000 1.0000000 -0.4520519
v 0.9750000 0.0000000 -0.5000000
v 0.9750000 0.0000000 -0.4520519
v 0.9750000 1.0000000 -0.4520519
v 0.9750000 1.0000000 -0.5000000
v 1.0250000 0.0000000 -0.5000000
v 0.9750000 0.0000000 -0.5000000
v 0.9750000 1.0000000 -0.5000000
v 1.0250000 1.0000000 -0.5000000
v 1.0250000 0.0000000 -0.4520519
v 1.0250000 0.0000000 -0.5000000
v 1.0250000 1.0000000 -0.5000000
v 1.0250000 1.0000000 -0.4520519
v 0.9750000 0.0000000 -0.4520519
v 1.0250000 0.0000000 -0.4520519
v 0.9750000 1.0000000 -0.4520519
v 1.0250000 1.0000000 -0.4520519
v 2.9749999 1.0000000 -0.4516644
v 2.9749999 1.0000000 -0.5000000
v 3.0250001 1.0000000 -0.5000000
v 3.0250001 1.0000000 -0.4516644
v 2.9749999 0.0000000 -0.5000000
v 2.9749999 0.0000000 -0.4516644
v 2.9749999 1.0000000 -0.4516644
v 2.9749999 1.0000000 -0.5000000
v 3.0250001 0.0000000 -0.5000000
v 2.9749999 0.0000000 -0.5000000
v 2.9749999 1.0000000 -0.5000000
v 3.0250001 1.0000000 -0.5000000
v 3.0250001 0.0000000 -0.4516644
v 3.0250001 0.0000000 -0.5000000
v 3.0250001 1.0000000 -0.5000000
v 3.0250001 1.0000000 -0.4516644
v 2.9749999 0.0000000 -0.4516644
v 3.0250001 0.0000000 -0.4516644
v 2.9749999 1.0000000 -0.4516644
v 3.0250001 1.0000000 -0.4516644
v 0.0250000 1.0000000 -0.1196658
v 0.0250000 1.0000000 -0.0709415
v -0.0250000 1.0000000 -0.0709415
v -0.0250000 1.0000000 -0.1196658
v 0.0250000 0.0000000 -0.0709415
v 0.0250000 0.0000000 -0.1196658
v 0.0250000 1.0000000 -0.1196658
v 0.0250000 1.0000000 -0.0709415
v -0.0250000 0.0000000 -0.0709415
v 0.0250000 0.0000000 -0.0709415
v 0.0250000 1.0000000 -0.0709415
v -0.0250000 1.0000000 -0.0709415
v -0.0250000 0.0000000 -0.1196658
v -0.0250000 0.0000000 -0.0709415
v -0.0250000 1.0000000 -0.0709415
v -0.0250000 1.0000000 -0.1196658
v 0.0250000 1.0000000 -0.1196658
v -0.0250000 1.0000000 -0.1196658
v -0.0250000 0.0000000 -0.1196658
v 0.0250000 0.0000000 -0.1196658
v -0.0250000 1.0000000 -0.3036231
v -0.0250000 1.0000000 -0.3526948
v 0.0250000 1.0000000 -0.3526948
v 0.0250000 1.0000000 -0.3036231
v -0.0250000 0.0000000 -0.3526948
v -0.0250000 0.0000000 -0.3036231
v -0.0250000 1.0000000 -0.3036231
v -0.0250000 1.0000000 -0.3526948
v 0.0250000 0.0000000 -0.3526948
v -0.0250000 0.0000000 -0.3526948
v -0.0250000 1.0000000 -0.3526948
v 0.0250000 1.0000000 -0.3526948
v 0.0250000 0.0000000 -0.3036231
v 0.0250000 0.0000000 -0.3526948
v 0.0250000 1.0000000 -0.3526948
v 0.0250000 1.0000000 -0.3036231
v -0.0250000 1.0000000 -0.3036231
v 0.0250000 1.0000000 -0.3036231
v 0.0250000 0.0000000 -0.3036231
v -0.0250000 0.0000000 -0.3036231
v 2.0250001 1.0000000 0.3812816
v 2.0250001 1.0000000 0.4322852
v 1.9750000 1.0000000 0.4322852
v 1.9750000 1.0000000 0.3812816
v 2.0250001 0.0000000 0.4322852
v 2.0250001 0.0000000 0.3812816
v 2.0250001 1.0000000 0.3812816
v 2.0250001 1.0000000 0.4322852
v 1.9750000 0.0000000 0.4322852
v 2.0250001 1.0000000 0.4322852
v 1.9750000 1.0000000 0.4322852
v 2.0250001 0.0000000 0.4322852
v 1.9750000 0.0000000 0.3812816
v 1.9750000 1.0000000 0.4322852
v 1.9750000 1.0000000 0.3812816
v 1.9750000 0.0000000 0.4322852
v 2.0250001 1.0000000 0.3812816
v 1.9750000 1.0000000 0.3812816
v 1.9750000 0.0000000 0.3812816
v 2.0250001 0.0000000 0.3812816
v 3.0250001 1.0000000 0.1665119
v 3.0250001 1.0000000 0.2189970
v 2.9749999 1.0000000 0.2189970
v 2.9749999 1.0000000 0.1665119
v 3.0250001 0.0000000 0.1665119
v 3.0250001 0.0000000 0.2189970
v 3.0250001 1.0000000 0.1665119
v 3.0250001 1.0000000 0.2189970
v 2.9749999 0.0000000 0.2189970
v 3.0250001 1.0000000 0.2189970
v 2.9749999 1.0000000 0.2189970
v 3.0250001 0.0000000 0.2189970
v 2.9749999 0.0000000 0.1665119
v 2.9749999 1.0000000 0.2189970
v 2.9749999 1.0000000 0.1665119
v 2.9749999 0.0000000 0.2189970
v 3.0250001 0.0000000 0.1665119
v 2.9749999 0.0000000 0.1665119
v 3.0250001 1.0000000 0.1665119
v 2.9749999 1.0000000 0.1665119
v 2.0250001 1.0000000 0.1679780
v 2.0250001 1.0000000 0.2235697
v 1.9750000 1.0000000 0.2235697
v 1.9750000 1.0000000 0.1679780
v 2.0250001 0.0000000 0.1679780
v 2.0250001 0.0000000 0.2235697
v 2.0250001 1.0000000 0.1679780
v 2.0250001 1.0000000 0.2235697
v 1.9750000 0.0000000 0.2235697
v 2.0250001 1.0000000 0.2235697
v 1.9750000 1.0000000 0.2235697
v 2.0250001 0.0000000 0.2235697
v 1.9750000 0.0000000 0.1679780
v 1.9750000 1.0000000 0.2235697
v 1.9750000 1.0000000 0.1679780
v 1.9750000 0.0000000 0.2235697
v 2.0250001 0.0000000 0.1679780
v 1.9750000 0.0000000 0.1679780
v 2.0250001 1.0000000 0.1679780
v 1.9750000 1.0000000 0.1679780
v 2.9749999 1.0000000 0.2748301
v 2.9749999 1.0000000 0.2189970
v 3.0250001 1.0000000 0.2189970
v 3.0250001 1.0000000 0.2748301
v 2.9749999 0.0000000 0.2189970
v 2.9749999 0.0000000 0.2748301
v 2.9749999 1.0000000 0.2748301
v 2.9749999 1.0000000 0.2189970
v 3.0250001 0.0000000 0.2189970
v 2.9749999 0.0000000 0.2189970
v 2.9749999 1.0000000 0.2189970
v 3.0250001 1.0000000 0.2189970
v 3.0250001 0.0000000 0.2748301
v 3.0250001 0.0000000 0.2189970
v 3.0250001 1.0000000 0.2189970
v 3.0250001 1.0000000 0.2748301
v 2.9749999 0.0000000 0.2748301
v 3.0250001 0.0000000 0.2748301
v 2.9749999 1.0000000 0.2748301
v 3.0250001 1.0000000 0.2748301
v 1.0250000 1.0000000 0.1638218
v 1.0250000 1.0000000 0.2218714
v 0.9750000 1.0000000 0.2218714
v 0.9750000 1.0000000 0.1638218
v 1.0250000 0.0000000 0.1638218
v 1.0250000 0.0000000 0.2218714
v 1.0250000 1.0000000 0.1638218
v 1.0250000 1.0000000 0.2218714
v 0.9750000 0.0000000 0.2218714
v 1.0250000 1.0000000 0.2218714
v 0.9750000 1.0000000 0.2218714
v 1.0250000 0.0000000 0.2218714
v 0.9750000 0.0000000 0.1638218
v 0.9750000 1.0000000 0.2218714
v 0.9750000 1.0000000 0.1638218
v 0.9750000 0.0000000 0.2218714
v 1.0250000 0.0000000 0.1638218
v 0.9750000 0.0000000 0.1638218
v 1.0250000 1.0000000 0.1638218
v 0.9750000 1.0000000 0.1638218
v 3.0250001 1.0000001 0.3661638
v 3.0250001 1.0000001 0.4267733
v 2.9749999 1.0000001 0.4267733
v 2.9749999 1.0000001 0.3661638
v 3.0250001 0.0000000 0.3661638
v 3.0250001 0.0000000 0.4267733
v 3.0250001 1.0000001 0.3661638
v 3.0250001 1.0000001 0.4267733
v 2.9749999 0.0000000 0.4267733
v 3.0250001 1.0000001 0.4267733
v 2.9749999 1.0000001 0.4267733
v 3.0250001 0.0000000 0.4267733
v 2.9749999 0.0000000 0.3661638
v 2.9749999 1.0000001 0.4267733
v 2.9749999 1.0000001 0.3661638
v 2.9749999 0.0000000 0.4267733
v 3.0250001 0.0000000 0.3661638
v 2.9749999 0.0000000 0.3661638
v 3.0250001 1.0000001 0.3661638
v 2.9749999 1.0000001 0.3661638
v -0.0250000 1.0000000 0.3619428
v -0.0250000 1.0000000 0.3007969
v 0.0250000 1.0000000 0.3007969
v 0.0250000 1.0000000 0.3619428
v -0.0250000 0.0000000 0.3007969
v -0.0250000 0.0000000 0.3619428
v -0.0250000 1.0000000 0.3619428
v -0.0250000 1.0000000 0.3007969
v 0.0250000 0.0000000 0.3007969
v -0.0250000 0.0000000 0.3007969
v -0.0250000 1.0000000 0.3007969
v 0.0250000 1.0000000 0.3007969
v 0.0250000 0.0000000 0.3619428
v 0.0250000 0.0000000 0.3007969
v 0.0250000 1.0000000 0.3007969
v 0.0250000 1.0000000 0.3619428
v -0.0250000 0.0000000 0.3619428
v 0.0250000 0.0000000 0.3619428
v -0.0250000 1.0000000 0.3619428
v 0.0250000 1.0000000 0.3619428
v 2.9749999 1.0000000 0.1665119
v 2.9749999 1.0000000 0.1043532
v 3.0250001 1.0000000 0.1043532
v 3.0250001 1.0000000 0.1665119
v 2.9749999 0.0000000 0.1043532
v 2.9749999 0.0000000 0.1665119
v 2.9749999 1.0000000 0.1665119
v 2.9749999 1.0000000 0.1043532
v 3.0250001 0.0000000 0.1043532
v 2.9749999 0.0000000 0.1043532
v 2.9749999 1.0000000 0.1043532
v 3.0250001 1.0000000 0.1043532
v 3.0250001 0.0000000 0.1665119
v 3.0250001 0.0000000 0.1043532
v 3.0250001 1.0000000 0.1043532
v 3.0250001 1.0000000 0.1665119
v 2.9749999 1.0000000 0.1665119
v 3.0250001 1.0000000 0.1665119
v 3.0250001 0.0000000 0.1665119
v 2.9749999 0.0000000 0.1665119
v 2.9749999 1.0000000 -0.3730032
v 2.9749999 1.0000000 -0.4357504
v 3.0250001 1.0000000 -0.4357504
v 3.0250001 1.0000000 -0.3730032
v 2.9749999 0.0000000 -0.4357504
v 2.9749999 0.0000000 -0.3730032
v 2.9749999 1.0000000 -0.3730032
v 2.9749999 1.0000000 -0.4357504
v 3.0250001 0.0000000 -0.4357504
v 2.9749999 1.0000000 -0.4357504
v 3.0250001 1.0000000 -0.4357504
v 2.9749999 0.0000000 -0.4357504
v 3.0250001 0.0000000 -0.3730032
v 3.0250001 1.0000000 -0.4357504
v 3.0250001 1.0000000 -0.3730032
v 3.0250001 0.0000000 -0.4357504
v 2.9749999 1.0000000 -0.3730032
v 3.0250001 1.0000000 -0.3730032
v 3.0250001 0.0000000 -0.3730032
v 2.9749999 0.0000000 -0.3730032
v 1.0250000 1.0000000 -0.1073873
v 1.0250000 1.0000000 -0.0443108
v 0.9750000 1.0000000 -0.0443108
v 0.9750000 1.0000000 -0.1073873
v 1.0250000 0.0000000 -0.0443108
v 1.0250000 0.0000000 -0.1073873
v 1.0250000 1.0000000 -0.1073873
v 1.0250000 1.0000000 -0.0443108
v 0.9750000 0.0000000 -0.0443108
v 1.0250000 1.0000000 -0.0443108
v 0.9750000 1.0000000 -0.0443108
v 1.0250000 0.0000000 -0.0443108
v 0.9750000 0.0000000 -0.1073873
v 0.9750000 1.0000000 -0.0443108
v 0.9750000 1.0000000 -0.1073873
v 0.9750000 0.0000000 -0.0443108
v 1.0250000 1.0000000 -0.1073873
v 0.9750000 1.0000000 -0.1073873
v 0.9750000 0.0000000 -0.1073873
v 1.0250000 0.0000000 -0.1073873
v 1.9750000 1.0000000 0.3812816
v 1.9750000 1.0000000 0.3162763
v 2.0250001 1.0000000 0.3162763
v 2.0250001 1.0000000 0.3812816
v 1.9750000 0.0000000 0.3162763
v 1.9750000 0.0000000 0.3812816
v 1.9750000 1.0000000 0.3812816
v 1.9750000 1.0000000 0.3162763
v 2.0250001 0.0000000 0.3162763
v 1.9750000 0.0000000 0.3162763
v 1.9750000 1.0000000 0.3162763
v 2.0250001 1.0000000 0.3162763
v 2.0250001 0.0000000 0.3812816
v 2.0250001 0.0000000 0.3162763
v 2.0250001 1.0000000 0.3162763
v 2.0250001 1.0000000 0.3812816
v 1.9750000 0.0000000 0.3812816
v 2.0250001 0.0000000 0.3812816
v 1.9750000 1.0000000 0.3812816
v 2.0250001 1.0000000 0.3812816
v 3.0250001 1.0000000 0.2748301
v 3.0250001 1.0000000 0.3400007
v 2.9749999 1.0000000 0.3400007
v 2.9749999 1.0000000 0.2748301
v 3.0250001 0.0000000 0.3400007
v 3.0250001 0.0000000 0.2748301
v 3.0250001 1.0000000 0.2748301
v 3.0250001 1.0000000 0.3400007
v 2.9749999 0.0000000 0.3400007
v 3.0250001 0.0000000 0.3400007
v 3.0250001 1.0000000 0.3400007
v 2.9749999 1.0000000 0.3400007
v 2.9749999 0.0000000 0.2748301
v 2.9749999 0.0000000 0.3400007
v 2.9749999 1.0000000 0.3400007
v 2.9749999 1.0000000 0.2748301
v 3.0250001 1.0000000 0.2748301
v 2.9749999 1.0000000 0.2748301
v 2.9749999 0.0000000 0.2748301
v 3.0250001 0.0000000 0.2748301
v 3.0250001 1.0000000 -0.3730032
v 3.0250001 1.0000000 -0.3066944
v 2.9749999 1.0000000 -0.3066944
v 2.9749999 1.0000000 -0.3730032
v 3.0250001 0.0000000 -0.3066944
v 3.0250001 0.0000000 -0.3730032
v 3.0250001 1.0000000 -0.3730032
v 3.0250001 1.0000000 -0.3066944
v 2.9749999 0.0000000 -0.3066944
v 3.0250001 0.0000000 -0.3066944
v 3.0250001 1.0000000 -0.3066944
v 2.9749999 1.0000000 -0.3066944
v 2.9749999 0.0000000 -0.3730032
v 2.9749999 0.0000000 -0.3066944
v 2.9749999 1.0000000 -0.3066944
v 2.9749999 1.0000000 -0.3730032
v 3.0250001 0.0000000 -0.3730032
v 2.9749999 0.0000000 -0.3730032
v 3.0250001 1.0000000 -0.3730032
v 2.9749999 1.0000000 -0.3730032
v 1.0250000 1.0000000 -0.2681862
v 1.0250000 1.0000000 -0.1937678
v 0.9750000 1.0000000 -0.1937678
v 0.9750000 1.0000000 -0.2681862
v 1.0250000 0.0000000 -0.1937678
v 1.0250000 0.0000000 -0.2681862
v 1.0250000 1.0000000 -0.2681862
v 1.0250000 1.0000000 -0.1937678
v 0.9750000 0.0000000 -0.1937678
v 1.0250000 0.0000000 -0.1937678
v 1.0250000 1.0000000 -0.1937678
v 0.9750000 1.0000000 -0.1937678
v 0.9750000 0.0000000 -0.2681862
v 0.9750000 0.0000000 -0.1937678
v 0.9750000 1.0000000 -0.1937678
v 0.9750000 1.0000000 -0.2681862
v 1.0250000 0.0000000 -0.2681862
v 0.9750000 0.0000000 -0.2681862
v 1.0250000 1.0000000 -0.2681862
v 0.9750000 1.0000000 -0.2681862
v -0.0250000 1.0000000 0.0066522
v -0.0250000 1.0000000 -0.0709415
v 0.0250000 1.0000000 -0.0709415
v 0.0250000 1.0000000 0.0066522
v -0.0250000 0.0000000 -0.0709415
v -0.0250000 0.0000000 0.0066522
v -0.0250000 1.0000000 0.0066522
v -0.0250000 1.0000000 -0.0709415
v 0.0250000 0.0000000 -0.0709415
v -0.0250000 1.0000000 -0.0709415
v 0.0250000 1.0000000 -0.0709415
v -0.0250000 0.0000000 -0.0709415
v 0.0250000 0.0000000 0.0066522
v 0.0250000 1.0000000 -0.0709415
v 0.0250000 1.0000000 0.0066522
v 0.0250000 0.0000000 -0.0709415
v -0.0250000 1.0000000 0.0066522
v 0.0250000 1.0000000 0.0066522
v 0.0250000 0.0000000 0.0066522
v -0.0250000 0.0000000 0.0066522
v 2.0250001 1.0000000 -0.2008539
v 2.0250001 1.0000000 -0.1201367
v 1.9750000 1.0000000 -0.1201367
v 1.9750000 1.0000000 -0.2008539
v 2.0250001 0.0000000 -0.1201367
v 2.0250001 0.0000000 -0.2008539
v 2.0250001 1.0000000 -0.2008539
v 2.0250001 1.0000000 -0.1201367
v 1.9750000 0.0000000 -0.1201367
v 2.0250001 0.0000000 -0.1201367
v 2.0250001 1.0000000 -0.1201367
v 1.9750000 1.0000000 -0.1201367
v 1.9750000 0.0000000 -0.2008539
v 1.9750000 0.0000000 -0.1201367
v 1.9750000 1.0000000 -0.1201367
v 1.9750000 1.0000000 -0.2008539
v 2.0250001 1.0000000 -0.2008539
v 1.9750000 1.0000000 -0.2008539
v 1.9750000 0.0000000 -0.2008539
v 2.0250001 0.0000000 -0.2008539
v 0.0250000 1.0000000 0.3619428
v 0.0250000 1.0000000 0.4449342
v -0.0250000 1.0000000 0.4449342
v -0.0250000 1.0000000 0.3619428
v 0.0250000 0.0000000 0.4449342
v 0.0250000 0.0000000 0.3619428
v 0.0250000 1.0000000 0.3619428
v 0.0250000 1.0000000 0.4449342
v -0.0250000 0.0000000 0.4449342
v 0.0250000 1.0000000 0.4449342
v -0.0250000 1.0000000 0.4449342
v 0.0250000 0.0000000 0.4449342
v -0.0250000 0.0000000 0.3619428
v -0.0250000 1.0000000 0.4449342
v -0.0250000 1.0000000 0.3619428
v -0.0250000 0.0000000 0.4449342
v 0.0250000 1.0000000 0.3619428
v -0.0250000 1.0000000 0.3619428
v -0.0250000 0.0000000 0.3619428
v 0.0250000 0.0000000 0.3619428
v 0.9750000 1.0000000 -0.1073873
v 0.9750000 1.0000000 -0.1937678
v 1.0250000 1.0000000 -0.1937678
v 1.0250000 1.0000000 -0.1073873
v 0.9750000 0.0000000 -0.1073873
v 0.9750000 0.0000000 -0.1937678
v 0.9750000 1.0000000 -0.1073873
v 0.9750000 1.0000000 -0.1937678
v 1.0250000 0.0000000 -0.1937678
v 0.9750000 1.0000000 -0.1937678
v 1.0250000 1.0000000 -0.1937678
v 0.9750000 0.0000000 -0.1937678
v 1.0250000 0.0000000 -0.1073873
v 1.0250000 1.0000000 -0.1937678
v 1.0250000 1.0000000 -0.1073873
v 1.0250000 0.0000000 -0.1937678
v 0.9750000 0.0000000 -0.1073873
v 1.0250000 0.0000000 -0.1073873
v 0.9750000 1.0000000 -0.1073873
v 1.0250000 1.0000000 -0.1073873
v 0.0250000 1.0000000 -0.3036231
v 0.0250000 1.0000000 -0.2162266
v -0.0250000 1.0000000 -0.2162266
v -0.0250000 1.0000000 -0.3036231
v 0.0250000 0.0000000 -0.3036231
v 0.0250000 0.0000000 -0.2162266
v 0.0250000 1.0000000 -0.3036231
v 0.0250000 1.0000000 -0.2162266
v -0.0250000 0.0000000 -0.2162266
v 0.0250000 1.0000000 -0.2162266
v -0.0250000 1.0000000 -0.2162266
v 0.0250000 0.0000000 -0.2162266
v -0.0250000 0.0000000 -0.3036231
v -0.0250000 1.0000000 -0.2162266
v -0.0250000 1.0000000 -0.3036231
v -0.0250000 0.0000000 -0.2162266
v 0.0250000 0.0000000 -0.3036231
v -0.0250000 0.0000000 -0.3036231
v 0.0250000 1.0000000 -0.3036231
v -0.0250000 1.0000000 -0.3036231
v -0.0250000 1.0000000 -0.1196658
v -0.0250000 1.0000000 -0.2162266
v 0.0250000 1.0000000 -0.2162266
v 0.0250000 1.0000000 -0.1196658
v -0.0250000 0.0000000 -0.2162266
v -0.0250000 0.0000000 -0.1196658
v -0.0250000 1.0000000 -0.1196658
v -0.0250000 1.0000000 -0.2162266
v 0.0250000 0.0000000 -0.2162266
v -0.0250000 0.0000000 -0.2162266
v -0.0250000 1.0000000 -0.2162266
v 0.0250000 1.0000000 -0.2162266
v 0.0250000 0.0000000 -0.1196658
v 0.0250000 0.0000000 -0.2162266
v 0.0250000 1.0000000 -0.2162266
v 0.0250000 1.0000000 -0.1196658
v -0.0250000 0.0000000 -0.1196658
v 0.0250000 0.0000000 -0.1196658
v -0.0250000 1.0000000 -0.1196658
v 0.0250000 1.0000000 -0.1196658
v 0.9750000 1.0000000 0.3740041
v 0.9750000 1.0000000 0.2739826
v 1.0250000 1.0000000 0.2739826
v 1.0250000 1.0000000 0.3740041
v 0.9750000 0.0000000 0.2739826
v 0.9750000 0.0000000 0.3740041
v 0.9750000 1.0000000 0.3740041
v 0.9750000 1.0000000 0.2739826
v 1.0250000 0.0000000 0.2739826
v 0.9750000 1.0000000 0.2739826
v 1.0250000 1.0000000 0.2739826
v 0.9750000 0.0000000 0.2739826
v 1.0250000 0.0000000 0.3740041
v 1.0250000 1.0000000 0.2739826
v 1.0250000 1.0000000 0.3740041
v 1.0250000 0.0000000 0.2739826
v 0.9750000 1.0000000 0.3740041
v 1.0250000 1.0000000 0.3740041
v 1.0250000 0.0000000 0.3740041
v 0.9750000 0.0000000 0.3740041
v 3.0250001 1.0000000 -0.0310698
v 3.0250001 1.0000000 0.1043532
v 2.9749999 1.0000000 0.1043532
v 2.9749999 1.0000000 -0.0310698
v 3.0250001 0.0000000 0.1043532
v 3.0250001 0.0000000 -0.0310698
v 3.0250001 1.0000000 -0.0310698
v 3.0250001 1.0000000 0.1043532
v 2.9749999 0.0000000 0.1043532
v 3.0250001 1.0000000 0.1043532
v 2.9749999 1.0000000 0.1043532
v 3.0250001 0.0000000 0.1043532
v 2.9749999 0.0000000 -0.0310698
v 2.9749999 1.0000000 0.1043532
v 2.9749999 1.0000000 -0.0310698
v 2.9749999 0.0000000 0.1043532
v 3.0250001 1.0000000 -0.0310698
v 2.9749999 1.0000000 -0.0310698
v 2.9749999 0.0000000 -0.0310698
v 3.0250001 0.0000000 -0.0310698
v 1.9750000 1.0000000 0.0262977
v 1.9750000 1.0000000 -0.1201367
v 2.0250001 1.0000000 -0.1201367
v 2.0250001 1.0000000 0.0262977
v 1.9750000 0.0000000 -0.1201367
v 1.9750000 0.0000000 0.0262977
v 1.9750000 1.0000000 0.0262977
v 1.9750000 1.0000000 -0.1201367
v 2.0250001 0.0000000 -0.1201367
v 1.9750000 1.0000000 -0.1201367
v 2.0250001 1.0000000 -0.1201367
v 1.9750000 0.0000000 -0.1201367
v 2.0250001 0.0000000 0.0262977
v 2.0250001 1.0000000 -0.1201367
v 2.0250001 1.0000000 0.0262977
v 2.0250001 0.0000000 -0.1201367
v 1.9750000 1.0000000 0.0262977
v 2.0250001 1.0000000 0.0262977
v 2.0250001 0.0000000 0.0262977
v 1.9750000 0.0000000 0.0262977
v 0.9750000 1.0000000 -0.2681862
v 0.9750000 1.0000000 -0.4176681
v 1.0250000 1.0000000 -0.4176681
v 1.0250000 1.0000000 -0.2681862
v 0.9750000 0.0000000 -0.4176681
v 0.9750000 0.0000000 -0.2681862
v 0.9750000 1.0000000 -0.2681862
v 0.9750000 1.0000000 -0.4176681
v 1.0250000 0.0000000 -0.4176681
v 0.9750000 1.0000000 -0.4176681
v 1.0250000 1.0000000 -0.4176681
v 0.9750000 0.0000000 -0.4176681
v 1.0250000 0.0000000 -0.2681862
v 1.0250000 1.0000000 -0.4176681
v 1.0250000 1.0000000 -0.2681862
v 1.0250000 0.0000000 -0.4176681
v 0.9750000 1.0000000 -0.2681862
v 1.0250000 1.0000000 -0.2681862
v 1.0250000 0.0000000 -0.2681862
v 0.9750000 0.0000000 -0.2681862
v 0.9750000 1.0000000 0.1638218
v 0.9750000 1.0000000 -0.0443108
v 1.0250000 1.0000000 -0.0443108
v 1.0250000 1.0000000 0.1638218
v 0.9750000 0.0000000 -0.0443108
v 0.9750000 0.0000000 0.1638218
v 0.9750000 1.0000000 0.1638218
v 0.9750000 1.0000000 -0.0443108
v 1.0250000 0.0000000 -0.0443108
v 0.9750000 0.0000000 -0.0443108
v 0.9750000 1.0000000 -0.0443108
v 1.0250000 1.0000000 -0.0443108
v 1.0250000 0.0000000 0.1638218
v 1.0250000 0.0000000 -0.0443108
v 1.0250000 1.0000000 -0.0443108
v 1.0250000 1.0000000 0.1638218
v 0.9750000 1.0000000 0.1638218
v 1.0250000 1.0000000 0.1638218
v 1.0250000 0.0000000 0.1638218
v 0.9750000 0.0000000 0.1638218
v 2.9749999 1.0000000 -0.0310698
v 2.9749999 1.0000000 -0.3066944
v 3.0250001 1.0000000 -0.3066944
v 3.0250001 1.0000000 -0.0310698
v 2.9749999 0.0000000 -0.0310698
v 2.9749999 0.0000000 -0.3066944
v 2.9749999 1.0000000 -0.0310698
v 2.9749999 1.0000000 -0.3066944
v 3.0250001 0.0000000 -0.3066944
v 2.9749999 1.0000000 -0.3066944
v 3.0250001 1.0000000 -0.3066944
v 2.9749999 0.0000000 -0.3066944
v 3.0250001 0.0000000 -0.0310698
v 3.0250001 1.0000000 -0.3066944
v 3.0250001 1.0000000 -0.0310698
v 3.0250001 0.0000000 -0.3066944
v 2.9749999 0.0000000 -0.0310698
v 3.0250001 0.0000000 -0.0310698
v 2.9749999 1.0000000 -0.0310698
v 3.0250001 1.0000000 -0.0310698
v 0.0250000 1.0000001 0.0066522
v 0.0250000 1.0000001 0.3007969
v -0.0250000 1.0000001 0.3007969
v -0.0250000 1.0000001 0.0066522
v 0.0250000 0.0000000 0.0066522
v 0.0250000 0.0000000 0.3007969
v 0.0250000 1.0000001 0.0066522
v 0.0250000 1.0000001 0.3007969
v -0.0250000 0.0000000 0.3007969
v 0.0250000 1.0000001 0.3007969
v -0.0250000 1.0000001 0.3007969
v 0.0250000 0.0000000 0.3007969
v -0.0250000 0.0000000 0.0066522
v -0.0250000 1.0000001 0.3007969
v -0.0250000 1.0000001 0.0066522
v -0.0250000 0.0000000 0.3007969
v 0.0250000 0.0000000 0.0066522
v -0.0250000 0.0000000 0.0066522
v 0.0250000 1.0000001 0.0066522
v -0.0250000 1.0000001 0.0066522
v 1.9750000 1.0000000 -0.2008539
v 1.9750000 1.0000000 -0.5000000
v 2.0250001 1.0000000 -0.5000000
v 2.0250001 1.0000000 -0.2008539
v 1.9750000 0.0000000 -0.5000000
v 1.9750000 0.0000000 -0.2008539
v 1.9750000 1.0000000 -0.2008539
v 1.9750000 1.0000000 -0.5000000
v 2.0250001 0.0000000 -0.5000000
v 1.9750000 0.0000000 -0.5000000
v 1.9750000 1.0000000 -0.5000000
v 2.0250001 1.0000000 -0.5000000
v 2.0250001 0.0000000 -0.2008539
v 2.0250001 0.0000000 -0.5000000
v 2.0250001 1.0000000 -0.5000000
v 2.0250001 1.0000000 -0.2008539
v 1.9750000 0.0000000 -0.2008539
v 2.0250001 0.0000000 -0.2008539
v 1.9750000 1.0000000 -0.2008539
v 2.0250001 1.0000000 -0.2008539
f 1 3 2
f 6 8 5
f 12 11 9
f 14 16 13
f 19 17 20
f 21 23 22
f 26 28 25
f 30 32 29
f 34 36 33
f 39 37 40
f 41 43 42
f 46 48 45
f 50 52 49
f 54 56 53
f 59 57 60
f 61 63 62
f 66 68 65
f 70 72 69
f 74 76 73
f 78 79 77
f 81 83 82
f 86 88 85
f 90 92 89
f 96 95 93
f 98 99 97
f 101 103 102
f 106 108 105
f 110 112 109
f 116 115 113
f 118 119 117
f 121 123 122
f 126 128 125
f 130 132 129
f 134 136 133
f 138 139 137
f 141 143 142
f 146 148 145
f 150 152 149
f 154 156 153
f 159 157 160
f 161 163 162
f 166 168 165
f 170 172 169
f 174 176 173
f 178 179 177
f 181 183 182
f 186 188 185
f 190 192 189
f 194 196 193
f 198 199 197
f 201 203 202
f 206 208 205
f 210 212 209
f 214 216 213
f 218 219 217
f 221 223 222
f 226 228 225
f 230 232 229
f 236 235 233
f 238 239 237
f 241 243 242
f 246 248 245
f 250 252 249
f 254 256 253
f 259 257 260
f 261 263 262
f 266 268 265
f 270 272 269
f 274 276 273
f 279 277 280
f 281 283 282
f 285 288 286
f 292 291 289
f 296 295 293
f 298 299 297
f 301 303 302
f 306 308 305
f 310 312 309
f 314 316 313
f 318 319 317
f 321 323 322
f 326 328 325
f 332 331 329
f 336 335 333
f 339 337 340
f 341 343 342
f 346 348 345
f 350 352 349
f 354 356 353
f 359 357 360
f 361 363 362
f 366 368 365
f 372 371 369
f 376 375 373
f 379 377 380
f 381 383 382
f 386 388 385
f 390 392 389
f 394 396 393
f 398 399 397
f 401 403 402
f 406 408 405
f 412 411 409
f 414 416 413
f 419 417 420
f 421 423 422
f 426 428 425
f 432 431 429
f 434 436 433
f 439 437 440
f 441 443 442
f 446 448 445
f 450 452 449
f 454 456 453
f 459 457 460
f 461 463 462
f 466 468 465
f 472 471 469
f 476 475 473
f 479 477 480
f 481 483 482
f 486 488 485
f 490 492 489
f 494 496 493
f 499 497 500
f 501 503 502
f 505 508 506
f 512 511 509
f 516 515 513
f 518 519 517
f 521 523 522
f 526 528 525
f 530 532 529
f 534 536 533
f 539 537 540
f 541 543 542
f 545 548 546
f 552 551 549
f 556 555 553
f 558 559 557
f 561 563 562
f 566 568 565
f 572 571 569
f 576 575 573
f 579 577 580
f 581 583 582
f 586 588 585
f 590 592 589
f 594 596 593
f 599 597 600
f 601 603 602
f 606 608 605
f 610 612 609
f 614 616 613
f 618 619 617
f 621 623 622
f 625 628 626
f 632 631 629
f 636 635 633
f 638 639 637
f 641 643 642
f 646 648 645
f 650 652 649
f 654 656 653
f 658 659 657
f 661 663 662
f 666 668 665
f 670 672 669
f 674 676 673
f 678 679 677
f 681 683 682
f 686 688 685
f 690 692 689
f 694 696 693
f 699 697 700
f 701 703 702
f 706 708 705
f 710 712 709
f 714 716 713
f 719 717 720
f 721 723 722
f 726 728 725
f 732 731 729
f 736 735 733
f 739 737 740
f 741 743 742
f 745 748 746
f 752 751 749
f 756 755 753
f 758 759 757
f 761 763 762
f 765 768 766
f 772 771 769
f 776 775 773
f 778 779 777
f 781 783 782
f 786 788 785
f 790 792 789
f 794 796 793
f 798 799 797
f 801 803 802
f 805 808 806
f 812 811 809
f 816 815 813
f 818 819 817
f 821 823 822
f 825 828 826
f 832 831 829
f 836 835 833
f 838 839 837
f 841 843 842
f 846 848 845
f 850 852 849
f 854 856 853
f 858 859 857
f 861 863 862
f 866 868 865
f 870 872 869
f 874 876 873
f 879 877 880
f 881 883 882
f 886 888 885
f 892 891 889
f 896 895 893
f 899 897 900
f 901 903 902
f 906 908 905
f 912 911 909
f 916 915 913
f 919 917 920
f 921 923 922
f 926 928 925
f 930 932 929
f 934 936 933
f 938 939 937
f 941 943 942
f 946 948 945
f 950 952 949
f 954 956 953
f 959 957 960
f 961 963 962
f 966 968 965
f 970 972 969
f 974 976 973
f 978 979 977
f 981 983 982
f 986 988 985
f 990 992 989
f 994 996 993
f 998 999 997
f 1001 1003 1002
f 1006 1008 1005
f 1012 1011 1009
f 1016 1015 1013
f 1019 1017 1020
f 1021 1023 1022
f 1026 1028 1025
f 1030 1032 1029
f 1034 1036 1033
f 1039 1037 1040
f 1041 1043 1042
f 1046 1048 1045
f 1052 1051 1049
f 1056 1055 1053
f 1059 1057 1060
f 1061 1063 1062
f 1065 1068 1066
f 1072 1071 1069
f 1076 1075 1073
f 1078 1079 1077
f 1081 1083 1082
f 1085 1088 1086
f 1092 1091 1089
f 1096 1095 1093
f 1098 1099 1097
f 1101 1103 1102
f 1106 1108 1105
f 1110 1112 1109
f 1114 1116 1113
f 1118 1119 1117
f 1121 1123 1122
f 1126 1128 1125
f 1132 1131 1129
f 1136 1135 1133
f 1139 1137 1140
f 1141 1143 1142
f 1146 1148 1145
f 1152 1151 1149
f 1156 1155 1153
f 1159 1157 1160
f 1161 1163 1162
f 1166 1168 1165
f 1172 1171 1169
f 1176 1175 1173
f 1179 1177 1180
f 1181 1183 1182
f 1186 1188 1185
f 1192 1191 1189
f 1196 1195 1193
f 1199 1197 1200
f 1201 1203 1202
f 1206 1208 1205
f 1210 1212 1209
f 1214 1216 1213
f 1219 1217 1220
f 1221 1223 1222
f 1225 1228 1226
f 1232 1231 1229
f 1236 1235 1233
f 1238 1239 1237
f 1241 1243 1242
f 1245 1248 1246
f 1252 1251 1249
f 1256 1255 1253
f 1258 1259 1257
f 1261 1263 1262
f 1266 1268 1265
f 1270 1272 1269
f 1274 1276 1273
f 1278 1279 1277
f 1279 1278 1280
f 1276 1274 1275
f 1272 1270 1271
f 1268 1266 1267
f 1263 1261 1264
f 1259 1258 1260
f 1255 1256 1254
f 1251 1252 1250
f 1248 1245 1247
f 1243 1241 1244
f 1239 1238 1240
f 1235 1236 1234
f 1231 1232 1230
f 1228 1225 1227
f 1223 1221 1224
f 1217 1219 1218
f 1216 1214 1215
f 1212 1210 1211
f 1208 1206 1207
f 1203 1201 1204
f 1197 1199 1198
f 1195 1196 1194
f 1191 1192 1190
f 1188 1186 1187
f 1183 1181 1184
f 1177 1179 1178
f 1175 1176 1174
f 1171 1172 1170
f 1168 1166 1167
f 1163 1161 1164
f 1157 1159 1158
f 1155 1156 1154
f 1151 1152 1150
f 1148 1146 1147
f 1143 1141 1144
f 1137 1139 1138
f 1135 1136 1134
f 1131 1132 1130
f 1128 1126 1127
f 1123 1121 1124
f 1119 1118 1120
f 1116 1114 1115
f 1112 1110 1111
f 1108 1106 1107
f 1103 1101 1104
f 1099 1098 1100
f 1095 1096 1094
f 1091 1092 1090
f 1088 1085 1087
f 1083 1081 1084
f 1079 1078 1080
f 1075 1076 1074
f 1071 1072 1070
f 1068 1065 1067
f 1063 1061 1064
f 1057 1059 1058
f 1055 1056 1054
f 1051 1052 1050
f 1048 1046 1047
f 1043 1041 1044
f 1037 1039 1038
f 1036 1034 1035
f 1032 1030 1031
f 1028 1026 1027
f 1023 1021 1024
f 1017 1019 1018
f 1015 1016 1014
f 1011 1012 1010
f 1008 1006 1007
f 1003 1001 1004
f 999 998 1000
f 996 994 995
f 992 990 991
f 988 986 987
f 983 981 984
f 979 978 980
f 976 974 975
f 972 970 971
f 968 966 967
f 963 961 964
f 957 959 958
f 956 954 955
f 952 950 951
f 948 946 947
f 943 941 944
f 939 938 940
f 936 934 935
f 932 930 931
f 928 926 927
f 923 921 924
f 917 919 918
f 915 916 914
f 911 912 910
f 908 906 907
f 903 901 904
f 897 899 898
f 895 896 894
f 891 892 890
f 888 886 887
f 883 881 884
f 877 879 878
f 876 874 875
f 872 870 871
f 868 866 867
f 863 861 864
f 859 858 860
f 856 854 855
f 852 850 851
f 848 846 847
f 843 841 844
f 839 838 840
f 835 836 834
f 831 832 830
f 828 825 827
f 823 821 824
f 819 818 820
f 815 816 814
f 811 812 810
f 808 805 807
f 803 801 804
f 799 798 800
f 796 794 795
f 792 790 791
f 788 786 787
f 783 781 784
f 779 778 780
f 775 776 774
f 771 772 770
f 768 765 767
f 763 761 764
f 759 758 760
f 755 756 754
f 751 752 750
f 748 745 747
f 743 741 744
f 737 739 738
f 735 736 734
f 731 732 730
f 728 726 727
f 723 721 724
f 717 719 718
f 716 714 715
f 712 710 711
f 708 706 707
f 703 701 704
f 697 699 698
f 696 694 695
f 692 690 691
f 688 686 687
f 683 681 684
f 679 678 680
f 676 674 675
f 672 670 671
f 668 666 667
f 663 661 664
f 659 658 660
f 656 654 655
f 652 650 651
f 648 646 647
f 643 641 644
f 639 638 640
f 635 636 634
f 631 632 630
f 628 625 627
f 623 621 624
f 619 618 620
f 616 614 615
f 612 610 611
f 608 606 607
f 603 601 604
f 597 599 598
f 596 594 595
f 592 590 591
f 588 586 587
f 583 581 584
f 577 579 578
f 575 576 574
f 571 572 570
f 568 566 567
f 563 561 564
f 559 558 560
f 555 556 554
f 551 552 550
f 548 545 547
f 543 541 544
f 537 539 538
f 536 534 535
f 532 530 531
f 528 526 527
f 523 521 524
f 519 518 520
f 515 516 514
f 511 512 510
f 508 505 507
f 503 501 504
f 497 499 498
f 496 494 495
f 492 490 491
f 488 486 487
f 483 481 484
f 477 479 478
f 475 476 474
f 471 472 470
f 468 466 467
f 463 461 464
f 457 459 458
f 456 454 455
f 452 450 451
f 448 446 447
f 443 441 444
f 437 439 438
f 436 434 435
f 431 432 430
f 428 426 427
f 423 421 424
f 417 419 418
f 416 414 415
f 411 412 410
f 408 406 407
f 403 401 404
f 399 398 400
f 396 394 395
f 392 390 391
f 388 386 387
f 383 381 384
f 377 379 378
f 375 376 374
f 371 372 370
f 368 366 367
f 363 361 364
f 357 359 358
f 356 354 355
f 352 350 351
f 348 346 347
f 343 341 344
f 337 339 338
f 335 336 334
f 331 332 330
f 328 326 327
f 323 321 324
f 319 318 320
f 316 314 315
f 312 310 311
f 308 306 307
f 303 301 304
f 299 298 300
f 295 296 294
f 291 292 290
f 288 285 287
f 283 281 284
f 277 279 278
f 276 274 275
f 272 270 271
f 268 266 267
f 263 261 264
f 257 259 258
f 256 254 255
f 252 250 251
f 248 246 247
f 243 241 244
f 239 238 240
f 235 236 234
f 232 230 231
f 228 226 227
f 223 221 224
f 219 218 220
f 216 214 215
f 212 210 211
f 208 206 207
f 203 201 204
f 199 198 200
f 196 194 195
f 192 190 191
f 188 186 187
f 183 181 184
f 179 178 180
f 176 174 175
f 172 170 171
f 168 166 167
f 163 161 164
f 157 159 158
f 156 154 155
f 152 150 151
f 148 146 147
f 143 141 144
f 139 138 140
f 136 134 135
f 132 130 131
f 128 126 127
f 123 121 124
f 119 118 120
f 115 116 114
f 112 110 111
f 108 106 107
f 103 101 104
f 99 98 100
f 95 96 94
f 92 90 91
f 88 86 87
f 83 81 84
f 79 78 80
f 76 74 75
f 72 70 71
f 68 66 67
f 63 61 64
f 57 59 58
f 56 54 55
f 52 50 51
f 48 46 47
f 43 41 44
f 37 39 38
f 36 34 35
f 32 30 31
f 28 26 27
f 23 21 24
f 17 19 18
f 16 14 15
f 11 12 10
f 8 6 7
f 3 1 4
