# Decoded from sources/assets/lusion.dev/assets/models/tunnels/grid_base_ld.buf
# Position/index data decoded from public .buf header and payload.
v 0.0250000 -0.0250000 0.5000000
v -0.0250000 -0.0250000 0.5000000
v 0.0250000 0.0250000 0.5000000
v -0.0250000 0.0250000 0.5000000
v -0.0250000 -0.0250000 -0.5000000
v 0.0250000 -0.0250000 -0.5000000
v -0.0250000 0.0250000 -0.5000000
v 0.0250000 0.0250000 -0.5000000
v 0.0250000 0.0250000 -0.5000000
v -0.0250000 0.0250000 -0.5000000
v 0.0250000 -0.0250000 -0.5000000
v -0.0250000 -0.0250000 -0.5000000
v -0.0250000 0.0250000 0.5000000
v 0.0250000 0.0250000 0.5000000
v -0.0250000 -0.0250000 0.5000000
v 0.0250000 -0.0250000 0.5000000
f 7 3 8
f 6 2 5
f 11 14 16
f 15 10 12
f 10 15 13
f 14 11 9
f 2 6 1
f 3 7 4
