# Decoded from sources/assets/lusion.dev/assets/models/about/rock_3.buf
# Position/index data decoded from public .buf header and payload.
v 0.0932602 0.0489730 0.1567781
v 0.0883525 0.0575585 0.1549807
v -0.0294692 -0.1352542 0.0886930
v -0.0149685 -0.1364807 0.0954036
v 0.0090035 -0.1369775 0.1065861
v 0.0534322 0.0882828 0.1404349
v -0.0758568 -0.1386284 0.0668070
v 0.0863089 0.0626197 0.1543188
v 0.0133924 0.1619241 0.0521159
v 0.0297090 0.1407425 0.0937784
v -0.1263896 0.1434646 -0.0982018
v -0.0034961 0.1808389 0.0120893
v -0.0054496 0.1850463 0.0053679
v -0.0114532 0.1840423 -0.0008637
v -0.0653955 0.1665920 -0.0481928
v -0.0773127 0.1604336 -0.0562648
v -0.1253467 0.1446186 -0.0981319
v 0.0402444 0.1211342 0.1268200
v 0.0431509 0.1145411 0.1371522
v 0.1289588 -0.0347751 0.1270837
v 0.1366830 -0.0660067 0.1001822
v 0.0724647 -0.1252922 0.0949031
v 0.0607222 -0.1362116 0.0938807
v 0.1105245 -0.0967103 0.0933264
v 0.0975749 -0.1036242 0.0958825
v 0.1317488 -0.0776713 0.0946771
v 0.1249723 0.0054662 0.1582902
v 0.0760647 -0.1188131 0.0974646
v 0.0498745 -0.1390010 0.0981804
v 0.0244678 -0.1378263 0.1137702
v -0.0463947 0.0276207 -0.1482916
v -0.0623937 0.0518607 -0.1467687
v -0.0143226 -0.0137643 -0.1564336
v -0.0853704 0.0638151 -0.1283752
v 0.0246901 -0.1122045 -0.1322067
v 0.0294284 -0.1114800 -0.1382607
v 0.0323243 -0.1084370 -0.1438089
v 0.0048052 -0.1178298 -0.1049393
v -0.0533248 -0.1243556 -0.0323016
v 0.0034552 -0.0370004 -0.1607387
v -0.0041366 -0.0257964 -0.1598077
v 0.0338173 -0.0997895 -0.1516926
v 0.0287878 -0.0824582 -0.1581126
v 0.0241872 -0.0709592 -0.1608948
v -0.1152719 0.0925730 -0.1138078
v -0.1218631 0.0986071 -0.1103799
v -0.0663484 -0.1311349 -0.0122507
v -0.0740832 -0.1322889 -0.0023866
v -0.1063141 -0.1351870 0.0373763
v -0.1153301 -0.1360046 0.0485050
v -0.1455545 0.1220709 -0.0993158
v -0.1659688 -0.0280165 0.0310963
v 0.1255864 0.0200030 0.1683695
v 0.1243105 0.0241172 0.1698548
v 0.1226005 0.0180520 0.1687032
v 0.0431509 0.1145411 0.1371522
v 0.0244678 -0.1378263 0.1137702
v -0.1153301 -0.1360046 0.0485050
v -0.1455545 0.1220709 -0.0993158
v -0.1659688 -0.0280165 0.0310963
v -0.1659688 -0.0280165 0.0310963
v 0.1255864 0.0200030 0.1683695
v 0.1243105 0.0241172 0.1698548
v 0.1226005 0.0180520 0.1687032
v 0.1226005 0.0180520 0.1687032
v 0.0666517 0.0511258 0.1058488
v 0.1047327 -0.0186496 0.1234297
v 0.0854036 -0.0751510 0.0396634
v 0.0890884 -0.0821270 -0.0723767
v -0.0079802 0.0570461 -0.0838228
v -0.0638178 0.0807842 -0.1258190
v -0.0763015 0.1431800 -0.1087655
v 0.0952137 -0.1299550 0.0073106
v 0.0370202 -0.1130584 -0.1346983
v 0.0005752 -0.1392856 0.0024781
v 0.0392438 0.0431873 0.0025804
v 0.0299313 0.1206995 -0.0030593
v 0.0655187 -0.0161552 -0.0794854
v 0.1238658 -0.0747422 0.0796631
v 0.0556875 -0.1391459 0.0800290
v -0.1140277 0.0966095 -0.1126024
v 0.0907084 -0.1178505 -0.0816972
v 0.0681394 -0.0124085 0.0644392
v -0.0509689 -0.1344055 0.0146777
v -0.0323069 0.1690450 -0.0696160
v 0.0738306 -0.1225132 0.0834785
v 0.0808665 -0.1412315 0.0190635
v 0.0102688 -0.0299313 -0.1480387
v 0.0862666 -0.0994376 0.0641701
v 0.0002946 0.1771750 -0.0247839
v 0.0552375 0.0291318 0.0670868
v 0.0905549 -0.1316628 -0.0451954
v 0.0743071 -0.1304207 -0.0930573
v 0.0358767 -0.0737486 -0.1495455
v 0.0683829 -0.0052565 -0.0551079
v 0.0932602 0.0489730 0.1567781
v 0.0883525 0.0575585 0.1549807
v -0.0294692 -0.1352542 0.0886930
v -0.0149685 -0.1364807 0.0954036
v 0.0090035 -0.1369775 0.1065861
v 0.0534322 0.0882828 0.1404349
v -0.0758568 -0.1386284 0.0668070
v 0.0863089 0.0626197 0.1543188
v 0.0133924 0.1619241 0.0521159
v 0.0297090 0.1407425 0.0937784
v -0.1263896 0.1434646 -0.0982018
v -0.0034961 0.1808389 0.0120893
v -0.0054496 0.1850463 0.0053679
v -0.0114532 0.1840423 -0.0008637
v -0.0653955 0.1665920 -0.0481928
v -0.0773127 0.1604336 -0.0562648
v -0.1253467 0.1446186 -0.0981319
v 0.0402444 0.1211342 0.1268200
v 0.0431509 0.1145411 0.1371522
v 0.1289588 -0.0347751 0.1270837
v 0.1366830 -0.0660067 0.1001822
v 0.0724647 -0.1252922 0.0949031
v 0.0607222 -0.1362116 0.0938807
v 0.1105245 -0.0967103 0.0933264
v 0.0975749 -0.1036242 0.0958825
v 0.1317488 -0.0776713 0.0946771
v 0.1249723 0.0054662 0.1582902
v 0.0760647 -0.1188131 0.0974646
v 0.0498745 -0.1390010 0.0981804
v 0.0244678 -0.1378263 0.1137702
v -0.0463947 0.0276207 -0.1482916
v -0.0623937 0.0518607 -0.1467687
v -0.0143226 -0.0137643 -0.1564336
v -0.0853704 0.0638151 -0.1283752
v 0.0246901 -0.1122045 -0.1322067
v 0.0294284 -0.1114800 -0.1382607
v 0.0323243 -0.1084370 -0.1438089
v 0.0048052 -0.1178298 -0.1049393
v -0.0533248 -0.1243556 -0.0323016
v 0.0034552 -0.0370004 -0.1607387
v -0.0041366 -0.0257964 -0.1598077
v 0.0338173 -0.0997895 -0.1516926
v 0.0287878 -0.0824582 -0.1581126
v 0.0241872 -0.0709592 -0.1608948
v -0.1152719 0.0925730 -0.1138078
v -0.1218631 0.0986071 -0.1103799
v -0.0663484 -0.1311349 -0.0122507
v -0.0740832 -0.1322889 -0.0023866
v -0.1063141 -0.1351870 0.0373763
v -0.1153301 -0.1360046 0.0485050
v -0.1455545 0.1220709 -0.0993158
v 0.1255864 0.0200030 0.1683695
v 0.1243105 0.0241172 0.1698548
v 0.0370202 -0.1130584 -0.1346983
v 0.0556875 -0.1391459 0.0800290
v 0.0808665 -0.1412315 0.0190635
v 0.0905549 -0.1316628 -0.0451954
v 0.0743071 -0.1304207 -0.0930573
v 0.0607222 -0.1362116 0.0938807
v 0.0323243 -0.1084370 -0.1438089
v 0.0675782 -0.0607850 -0.1121934
v 0.0667523 -0.0596931 -0.1127746
v 0.0264742 -0.0249994 -0.1258513
v 0.0662229 -0.0588444 -0.1132697
v 0.0145147 0.1052778 0.1060210
v 0.0291002 0.1088279 0.0972548
v 0.1240087 -0.0625549 0.0488978
v 0.1207263 -0.0417097 0.0499041
v 0.0969449 0.1119122 0.0570775
v 0.0969873 0.1129420 0.0570075
v -0.0084514 0.0991867 0.1198511
v 0.0966167 0.1141013 0.0571744
v -0.0437794 0.0906996 0.1410806
v 0.0645129 0.1116534 0.0762298
v 0.0972096 0.1105822 0.0569806
v -0.0713514 0.0803650 0.0751374
v -0.0674496 0.0781552 0.0885585
v -0.0663961 0.0077536 0.1581342
v -0.0618802 0.0818606 0.1012262
v -0.0451929 0.0900424 0.1419470
v -0.0281881 0.0838116 -0.1071457
v -0.0115432 0.0897888 -0.1195497
v 0.0077541 0.0384935 -0.1307322
v 0.0149965 0.0039137 -0.1340848
v 0.0197242 -0.0085427 -0.1368293
v 0.0111264 0.0280657 -0.1326049
v -0.0797692 0.0672255 -0.0460133
v -0.0677249 0.0701442 -0.0777150
v -0.0847563 0.0662112 -0.0328129
v -0.0993152 0.0665475 0.0070093
v 0.1255546 -0.0745403 0.0036082
v 0.1256287 -0.0761912 -0.0373117
v 0.1097039 -0.0850871 -0.0883055
v 0.0998408 -0.0898068 -0.1006934
v 0.1215575 -0.0795446 -0.0765580
v -0.0165991 -0.1359167 -0.0126327
v 0.1255864 -0.0731690 0.0366122
v -0.0136609 -0.1349437 -0.0195047
v -0.1334679 -0.0908522 0.0565770
v -0.1330285 -0.0755495 0.0433927
v -0.0764656 -0.0992668 -0.0246870
v -0.1186654 -0.1014041 0.0423110
v -0.0760844 -0.0506212 -0.0650150
v -0.0910351 -0.0345164 -0.0550540
v 0.1240087 -0.0625549 0.0488978
v -0.0663961 0.0077536 0.1581342
v -0.0663961 0.0077536 0.1581342
v -0.0451929 0.0900424 0.1419470
v 0.0197242 -0.0085427 -0.1368293
v -0.0677249 0.0701442 -0.0777150
v -0.0993152 0.0665475 0.0070093
v 0.0998408 -0.0898068 -0.1006934
v -0.0165991 -0.1359167 -0.0126327
v -0.0165991 -0.1359167 -0.0126327
v 0.1255864 -0.0731690 0.0366122
v -0.0136609 -0.1349437 -0.0195047
v -0.0136609 -0.1349437 -0.0195047
v -0.1334679 -0.0908522 0.0565770
v -0.1334679 -0.0908522 0.0565770
v -0.1330285 -0.0755495 0.0433927
v -0.1330285 -0.0755495 0.0433927
v -0.0764656 -0.0992668 -0.0246870
v -0.0764656 -0.0992668 -0.0246870
v -0.1186654 -0.1014041 0.0423110
v -0.1186654 -0.1014041 0.0423110
v -0.0760844 -0.0506212 -0.0650150
v -0.0760844 -0.0506212 -0.0650150
v -0.0910351 -0.0345164 -0.0550540
v -0.0910351 -0.0345164 -0.0550540
v 0.0154571 0.1026281 -0.0812129
v 0.1074380 0.0383279 -0.0196070
v -0.0532718 0.0857574 0.0837637
v 0.0264478 -0.0249270 -0.1257813
v 0.0043340 0.1084863 -0.0179172
v 0.0286078 0.1073788 0.0542684
v -0.0199027 0.0931629 0.0050666
v 0.0961932 0.1138684 0.0517661
v 0.1186087 -0.0335331 -0.0596982
v 0.0671599 -0.0582958 -0.1109664
v 0.0460944 0.0432856 -0.0765472
v 0.0621940 0.1189710 -0.0123314
v 0.0675782 -0.0607850 -0.1121934
v 0.0667523 -0.0596931 -0.1127746
v 0.0264742 -0.0249994 -0.1258513
v 0.0662229 -0.0588444 -0.1132697
v 0.0145147 0.1052778 0.1060210
v 0.0291002 0.1088279 0.0972548
v 0.1240087 -0.0625549 0.0488978
v 0.1207263 -0.0417097 0.0499041
v 0.0969449 0.1119122 0.0570775
v 0.0969873 0.1129420 0.0570075
v -0.0084514 0.0991867 0.1198511
v 0.0966167 0.1141013 0.0571744
v -0.0437794 0.0906996 0.1410806
v 0.0645129 0.1116534 0.0762298
v 0.0972096 0.1105822 0.0569806
v -0.0713514 0.0803650 0.0751374
v -0.0674496 0.0781552 0.0885585
v -0.0618802 0.0818606 0.1012262
v -0.0451929 0.0900424 0.1419470
v -0.0281881 0.0838116 -0.1071457
v -0.0115432 0.0897888 -0.1195497
v 0.0077541 0.0384935 -0.1307322
v 0.0149965 0.0039137 -0.1340848
v 0.0197242 -0.0085427 -0.1368293
v 0.0111264 0.0280657 -0.1326049
v -0.0797692 0.0672255 -0.0460133
v -0.0677249 0.0701442 -0.0777150
v -0.0847563 0.0662112 -0.0328129
v -0.0993152 0.0665475 0.0070093
v 0.1255546 -0.0745403 0.0036082
v 0.1256287 -0.0761912 -0.0373117
v 0.1097039 -0.0850871 -0.0883055
v 0.0998408 -0.0898068 -0.1006934
v 0.1215575 -0.0795446 -0.0765580
v 0.1255864 -0.0731690 0.0366122
v 0.1000050 0.0968217 -0.0021929
v 0.0944355 0.0931163 -0.0148552
v 0.0905337 0.0953261 -0.0282764
v -0.0876733 -0.0427602 0.0184662
v -0.0869216 -0.0457100 0.0191604
v -0.0134914 0.0630130 0.0470628
v -0.0366428 0.0592662 0.0352076
v 0.0574716 0.0772444 0.0831287
v 0.0586046 0.0775239 0.0837045
v 0.0551210 0.0773324 0.0818802
v -0.0627325 -0.1083956 0.0382212
v 0.0571645 0.0772444 0.0829726
v -0.0883934 -0.0399709 0.0178097
v -0.0912310 -0.0322342 0.0155333
v 0.0600605 0.0790039 0.0843233
v -0.1112006 0.0277087 -0.0010197
v -0.0759150 0.0449830 0.0158885
v 0.0147900 0.0720021 -0.0880364
v 0.0296084 0.0738547 -0.0903827
v -0.0548230 0.0480829 -0.0735713
v -0.0193521 0.0610671 -0.0811214
v -0.0963505 0.0000376 -0.0573411
v -0.1025447 0.0163804 -0.0602094
v 0.0625699 0.0815087 -0.0964045
v -0.1034023 0.0279674 -0.0627063
v -0.0788903 -0.0670572 -0.0445119
v -0.0446582 -0.1473743 0.0516746
v -0.0486818 -0.1499773 0.0498073
v -0.0486818 -0.1501947 0.0492261
v -0.0455794 -0.1490458 0.0484189
v -0.0679684 -0.1126703 -0.0138435
v -0.0616366 -0.1265239 -0.0020045
v -0.0615096 -0.1268396 -0.0017355
v -0.0756238 -0.0797465 -0.0420796
v 0.0288619 -0.0605884 -0.0600210
v 0.0284172 -0.0758910 -0.0468367
v 0.0100888 -0.0951733 -0.0299823
v 0.1166922 0.1050035 0.0385279
v 0.0928949 0.0942445 0.0887737
v 0.0887972 0.0938874 0.0980135
v 0.0954890 0.0227095 0.0547151
v 0.0797177 0.0420125 0.0984118
v 0.0574610 -0.0167918 0.0925461
v 0.0889560 0.0169911 0.0674259
v 0.0625699 0.0815087 -0.0964045
v -0.0446582 -0.1473743 0.0516746
v -0.0446582 -0.1473743 0.0516746
v -0.0486818 -0.1499773 0.0498073
v -0.0486818 -0.1501947 0.0492261
v -0.0455794 -0.1490458 0.0484189
v -0.0455794 -0.1490458 0.0484189
v -0.0615096 -0.1268396 -0.0017355
v -0.0756238 -0.0797465 -0.0420796
v 0.0288619 -0.0605884 -0.0600210
v 0.0288619 -0.0605884 -0.0600210
v 0.0284172 -0.0758910 -0.0468367
v 0.0284172 -0.0758910 -0.0468367
v 0.0100888 -0.0951733 -0.0299823
v 0.0100888 -0.0951733 -0.0299823
v 0.1166922 0.1050035 0.0385279
v 0.0887972 0.0938874 0.0980135
v 0.0954890 0.0227095 0.0547151
v 0.0954890 0.0227095 0.0547151
v 0.0797177 0.0420125 0.0984118
v 0.0574610 -0.0167918 0.0925461
v 0.0574610 -0.0167918 0.0925461
v 0.0889560 0.0169911 0.0674259
v 0.0797177 0.0420125 0.0984118
v 0.0889560 0.0169911 0.0674259
v 0.0582551 0.0779172 0.0824937
v 0.0536333 0.0712310 -0.0010736
v -0.0360975 0.0568857 -0.0415307
v -0.1108089 0.0261199 -0.0187621
v 0.0141229 0.0725455 -0.0647513
v 0.1000050 0.0968217 -0.0021929
v 0.0944355 0.0931163 -0.0148552
v 0.0905337 0.0953261 -0.0282764
v -0.0876733 -0.0427602 0.0184662
v -0.0869216 -0.0457100 0.0191604
v -0.0134914 0.0630130 0.0470628
v -0.0366428 0.0592662 0.0352076
v 0.0574716 0.0772444 0.0831287
v 0.0586046 0.0775239 0.0837045
v 0.0551210 0.0773324 0.0818802
v -0.0627325 -0.1083956 0.0382212
v 0.0571645 0.0772444 0.0829726
v -0.0883934 -0.0399709 0.0178097
v -0.0912310 -0.0322342 0.0155333
v 0.0600605 0.0790039 0.0843233
v -0.1112006 0.0277087 -0.0010197
v -0.0759150 0.0449830 0.0158885
v 0.0147900 0.0720021 -0.0880364
v 0.0296084 0.0738547 -0.0903827
v -0.0548230 0.0480829 -0.0735713
v -0.0193521 0.0610671 -0.0811214
v -0.0963505 0.0000376 -0.0573411
v -0.1025447 0.0163804 -0.0602094
v 0.0625699 0.0815087 -0.0964045
v -0.1034023 0.0279674 -0.0627063
v -0.0788903 -0.0670572 -0.0445119
v -0.0486818 -0.1499773 0.0498073
v -0.0486818 -0.1501947 0.0492261
v -0.0679684 -0.1126703 -0.0138435
v -0.0616366 -0.1265239 -0.0020045
v -0.0615096 -0.1268396 -0.0017355
v -0.0756238 -0.0797465 -0.0420796
v 0.1166922 0.1050035 0.0385279
v 0.0928949 0.0942445 0.0887737
v 0.0887972 0.0938874 0.0980135
v -0.0969276 -0.1026617 0.0235623
v -0.0950217 -0.1288579 0.0017194
v -0.0945293 -0.1526528 -0.0191119
v -0.0944499 -0.1524355 -0.0182240
v -0.1148483 -0.0197571 -0.1388365
v -0.1073306 -0.0536641 -0.1107889
v -0.0749938 0.0148797 -0.1730136
v -0.0829562 0.0135031 -0.1709202
v -0.0892139 0.0126130 -0.1694296
v -0.1085059 -0.0627257 -0.1029213
v -0.0815480 0.0144657 -0.1718997
v -0.1039900 -0.0746542 -0.0932671
v -0.1027564 -0.1060410 -0.0666347
v -0.1160183 -0.0051634 -0.1511545
v -0.0945346 -0.1541018 -0.0265920
v 0.1606126 0.0186419 0.0433227
v 0.1500772 0.0382503 0.0102865
v 0.1337606 0.0594267 -0.0313760
v -0.0251863 0.0195786 -0.1828131
v -0.0060214 0.0409672 -0.1816991
v 0.1635191 0.0120541 0.0536549
v 0.1168669 0.0783467 -0.0714026
v 0.1149081 0.0825489 -0.0781186
v 0.1089098 0.0815449 -0.0843556
v 0.0549675 0.0640997 -0.1316901
v 0.0430503 0.0579362 -0.1397621
v -0.0049784 0.0421264 -0.1816292
v -0.0456006 -0.1305087 -0.0523956
v -0.1160236 -0.0131485 0.0903451
v -0.1199360 -0.0016650 0.0860723
v -0.1149277 -0.0172782 0.0917981
v 0.0681394 0.0879206 0.1131675
v 0.0134400 0.0759092 0.1013823
v -0.0020666 0.0729025 0.0979274
v -0.0680743 0.0462406 0.0870894
v -0.1180460 0.0227406 0.0798030
v -0.1178925 0.0268030 0.0787160
v 0.0543322 0.0816225 0.1111010
v -0.1200948 0.0040172 0.0844471
v -0.1171725 0.0282158 0.0785222
v 0.1514908 0.0593904 0.0614633
v 0.1321882 0.1106805 0.0726404
v 0.1587279 0.0248003 0.0581107
v 0.1634609 0.0123491 0.0553608
v 0.1548579 0.0489575 0.0595906
v 0.0676470 -0.0297294 0.1271806
v 0.1155434 0.1047033 0.0850445
v 0.0760065 0.0910360 0.1144751
v 0.0526963 -0.0136194 0.1371415
v -0.0944499 -0.1524355 -0.0182240
v -0.0945346 -0.1541018 -0.0265920
v -0.0251863 0.0195786 -0.1828131
v 0.1635191 0.0120541 0.0536549
v -0.0456006 -0.1305087 -0.0523956
v -0.0456006 -0.1305087 -0.0523956
v -0.1149277 -0.0172782 0.0917981
v 0.1634609 0.0123491 0.0553608
v 0.0676470 -0.0297294 0.1271806
v 0.0676470 -0.0297294 0.1271806
v 0.0760065 0.0910360 0.1144751
v 0.0526963 -0.0136194 0.1371415
v 0.0526963 -0.0136194 0.1371415
v 0.1133251 0.0847224 -0.0697990
v -0.1061871 -0.0761136 -0.0335393
v 0.0427432 0.0631889 -0.1237741
v 0.1223464 0.0878740 0.0066971
v -0.0059578 0.0602340 -0.0227820
v -0.0063390 0.0421678 -0.1813332
v -0.0833215 0.0170014 -0.1706512
v -0.1260031 0.0097201 -0.0471596
v 0.1499819 0.0468357 0.0517661
v -0.0692708 0.0345656 -0.1012046
v 0.0598857 0.0753089 0.0150975
v -0.1269561 -0.0210871 -0.0796146
v -0.1179560 0.0273464 0.0704609
v -0.1175801 -0.0000194 -0.1144643
v 0.1125680 0.1013499 0.0447811
v -0.0969276 -0.1026617 0.0235623
v -0.0950217 -0.1288579 0.0017194
v -0.0945293 -0.1526528 -0.0191119
v -0.0944499 -0.1524355 -0.0182240
v -0.1148483 -0.0197571 -0.1388365
v -0.1073306 -0.0536641 -0.1107889
v -0.0749938 0.0148797 -0.1730136
v -0.0829562 0.0135031 -0.1709202
v -0.0892139 0.0126130 -0.1694296
v -0.1085059 -0.0627257 -0.1029213
v -0.0815480 0.0144657 -0.1718997
v -0.1039900 -0.0746542 -0.0932671
v -0.1027564 -0.1060410 -0.0666347
v -0.1160183 -0.0051634 -0.1511545
v -0.0945346 -0.1541018 -0.0265920
v 0.1606126 0.0186419 0.0433227
v 0.1500772 0.0382503 0.0102865
v 0.1337606 0.0594267 -0.0313760
v -0.0251863 0.0195786 -0.1828131
v -0.0060214 0.0409672 -0.1816991
v 0.1635191 0.0120541 0.0536549
v 0.1168669 0.0783467 -0.0714026
v 0.1149081 0.0825489 -0.0781186
v 0.1089098 0.0815449 -0.0843556
v 0.0549675 0.0640997 -0.1316901
v 0.0430503 0.0579362 -0.1397621
v -0.0049784 0.0421264 -0.1816292
v -0.1160236 -0.0131485 0.0903451
v -0.1199360 -0.0016650 0.0860723
v -0.1149277 -0.0172782 0.0917981
v 0.0681394 0.0879206 0.1131675
v 0.0134400 0.0759092 0.1013823
v -0.0020666 0.0729025 0.0979274
v -0.0680743 0.0462406 0.0870894
v -0.1180460 0.0227406 0.0798030
v -0.1178925 0.0268030 0.0787160
v 0.0543322 0.0816225 0.1111010
v -0.1200948 0.0040172 0.0844471
v -0.1171725 0.0282158 0.0785222
v 0.1514908 0.0593904 0.0614633
v 0.1321882 0.1106805 0.0726404
v 0.1587279 0.0248003 0.0581107
v 0.1634609 0.0123491 0.0553608
v 0.1548579 0.0489575 0.0595906
v 0.1155434 0.1047033 0.0850445
v 0.0760065 0.0910360 0.1144751
v 0.0126459 -0.0328655 0.0918680
v 0.0190201 -0.0321358 0.0938645
v 0.0470844 -0.0029174 0.0821600
v 0.0546922 0.0462354 0.0464816
v -0.0713514 -0.0519822 0.0730332
v -0.0425194 -0.0432829 0.0778119
v 0.0464227 0.0820107 0.0149360
v 0.0308313 0.0939185 -0.0007399
v 0.0474392 -0.0215683 0.0970072
v 0.0477145 -0.0247148 0.0996010
v 0.0201477 -0.0318409 0.0940905
v -0.0261022 -0.0384339 0.0806156
v 0.0442150 0.0913724 0.0066648
v -0.0969223 -0.0619080 0.0705363
v -0.1081459 -0.0617424 0.0262530
v -0.1072194 -0.0623117 0.0445066
v -0.1065841 -0.0633674 0.0615817
v -0.1061553 -0.0633156 0.0679156
v 0.0253889 0.0424369 -0.0481820
v 0.0331184 0.0112157 -0.0750835
v -0.0428423 -0.0589893 -0.0813851
v -0.0536901 -0.0617786 -0.0770854
v -0.0310999 -0.0480699 -0.0803626
v 0.0069652 -0.0194880 -0.0819393
v -0.0059843 -0.0264070 -0.0793832
v 0.0281790 -0.0004489 -0.0805886
v 0.0214024 0.0826834 -0.0169755
v -0.0274945 -0.0415907 -0.0778011
v 0.0220166 0.0972202 -0.0068962
v -0.1042388 -0.0598276 -0.0005516
v -0.0790968 -0.0606091 -0.0614955
v -0.1088553 -0.0607695 0.0086344
v -0.0882239 -0.0176870 0.0391844
v 0.0190306 0.0952692 -0.0065625
v -0.1061553 -0.0633156 0.0679156
v 0.0220166 0.0972202 -0.0068962
v -0.0790968 -0.0606091 -0.0614955
v -0.1088553 -0.0607695 0.0086344
v -0.0882239 -0.0176870 0.0391844
v -0.0882239 -0.0176870 0.0391844
v 0.0190306 0.0952692 -0.0065625
v 0.0190306 0.0952692 -0.0065625
v 0.0174318 -0.0322859 0.0894087
v 0.0625540 -0.0132313 -0.0151082
v -0.0339163 -0.0537883 -0.0568407
v -0.0903840 -0.0608471 0.0374893
v 0.0524792 0.0244018 -0.0440976
v 0.0425473 -0.0244974 0.0734638
v 0.0525639 0.0446984 0.0091510
v 0.0516586 -0.0228466 0.0051796
v 0.0177124 -0.0351788 -0.0129179
v 0.0126459 -0.0328655 0.0918680
v 0.0190201 -0.0321358 0.0938645
v 0.0470844 -0.0029174 0.0821600
v 0.0546922 0.0462354 0.0464816
v -0.0713514 -0.0519822 0.0730332
v -0.0425194 -0.0432829 0.0778119
v 0.0464227 0.0820107 0.0149360
v 0.0308313 0.0939185 -0.0007399
v 0.0474392 -0.0215683 0.0970072
v 0.0477145 -0.0247148 0.0996010
v 0.0201477 -0.0318409 0.0940905
v -0.0261022 -0.0384339 0.0806156
v 0.0442150 0.0913724 0.0066648
v -0.0969223 -0.0619080 0.0705363
v -0.1081459 -0.0617424 0.0262530
v -0.1072194 -0.0623117 0.0445066
v -0.1065841 -0.0633674 0.0615817
v -0.1061553 -0.0633156 0.0679156
v 0.0253889 0.0424369 -0.0481820
v 0.0331184 0.0112157 -0.0750835
v -0.0428423 -0.0589893 -0.0813851
v -0.0536901 -0.0617786 -0.0770854
v -0.0310999 -0.0480699 -0.0803626
v 0.0069652 -0.0194880 -0.0819393
v -0.0059843 -0.0264070 -0.0793832
v 0.0281790 -0.0004489 -0.0805886
v 0.0214024 0.0826834 -0.0169755
v -0.0274945 -0.0415907 -0.0778011
v 0.0220166 0.0972202 -0.0068962
v -0.1042388 -0.0598276 -0.0005516
v -0.0790968 -0.0606091 -0.0614955
v -0.1088553 -0.0607695 0.0086344
v -0.0339163 -0.0537883 -0.0568407
v 0.0425473 -0.0244974 0.0734638
v 0.0516586 -0.0228466 0.0051796
v 0.0177124 -0.0351788 -0.0129179
v 0.0477145 -0.0247148 0.0996010
v -0.0428423 -0.0589893 -0.0813851
v -0.0483271 -0.0177854 0.1351396
v -0.0419953 -0.0316442 0.1469786
v -0.0416882 -0.0407575 0.1201202
v -0.0421488 -0.0396242 0.1243715
v -0.0407247 -0.1012799 -0.0659621
v -0.0422705 -0.0887407 -0.0250583
v -0.0380617 -0.0540626 0.0732646
v -0.0419053 -0.0331967 0.1435345
v -0.0419476 -0.1120544 -0.0966628
v -0.0382152 -0.0753528 0.0086667
v -0.0418682 -0.0319599 0.1472477
v -0.0591325 -0.0137126 -0.1230638
v -0.0572213 -0.0399088 -0.1449067
v -0.0422494 -0.1135448 -0.1006719
v -0.0566495 -0.0634864 -0.1648554
v -0.0664967 0.0501322 0.0076120
v -0.0735114 0.0621901 -0.0277006
v -0.0570360 0.0216901 0.0885854
v -0.0559824 0.0151332 0.1068982
v -0.0592225 0.0348813 0.0517607
v -0.0771327 0.0716657 -0.0548280
v 0.0297249 -0.0002936 0.1189955
v 0.1050662 0.0105740 0.0208717
v 0.0628611 0.0084367 0.0878804
v 0.1054421 0.0592145 -0.0194509
v 0.0904913 0.0753193 -0.0094846
v 0.0484980 0.0342862 0.0889621
v 0.0480586 0.0189835 0.1021411
v -0.0418682 -0.0319599 0.1472477
v -0.0422494 -0.1135448 -0.1006719
v -0.0566495 -0.0634864 -0.1648554
v -0.0559824 0.0151332 0.1068982
v -0.0771327 0.0716657 -0.0548280
v 0.0297249 -0.0002936 0.1189955
v 0.0297249 -0.0002936 0.1189955
v 0.1050662 0.0105740 0.0208717
v 0.1050662 0.0105740 0.0208717
v 0.0628611 0.0084367 0.0878804
v 0.0628611 0.0084367 0.0878804
v 0.1054421 0.0592145 -0.0194509
v 0.1054421 0.0592145 -0.0194509
v 0.0904913 0.0753193 -0.0094846
v 0.0904913 0.0753193 -0.0094846
v 0.0484980 0.0342862 0.0889621
v 0.0484980 0.0342862 0.0889621
v 0.0480586 0.0189835 0.1021411
v 0.0480586 0.0189835 0.1021411
v -0.0508630 0.0046175 0.0443021
v -0.0450182 -0.0541868 -0.0359986
v -0.0483271 -0.0177854 0.1351396
v -0.0419953 -0.0316442 0.1469786
v -0.0416882 -0.0407575 0.1201202
v -0.0421488 -0.0396242 0.1243715
v -0.0407247 -0.1012799 -0.0659621
v -0.0422705 -0.0887407 -0.0250583
v -0.0380617 -0.0540626 0.0732646
v -0.0419053 -0.0331967 0.1435345
v -0.0419476 -0.1120544 -0.0966628
v -0.0382152 -0.0753528 0.0086667
v -0.0418682 -0.0319599 0.1472477
v -0.0591325 -0.0137126 -0.1230638
v -0.0572213 -0.0399088 -0.1449067
v -0.0422494 -0.1135448 -0.1006719
v -0.0566495 -0.0634864 -0.1648554
v -0.0664967 0.0501322 0.0076120
v -0.0735114 0.0621901 -0.0277006
v -0.0570360 0.0216901 0.0885854
v -0.0559824 0.0151332 0.1068982
v -0.0592225 0.0348813 0.0517607
v -0.0771327 0.0716657 -0.0548280
v 0.0712841 -0.0392981 -0.0511149
v 0.1112868 -0.0347182 -0.0254673
v 0.1315370 -0.0332795 -0.0127619
v 0.1290805 -0.0336004 -0.0143440
v 0.1472607 -0.0311474 -0.0025803
v 0.1549532 0.0061648 0.0135261
v 0.0441409 -0.0510921 -0.0711766
v 0.0287560 -0.0519149 -0.0807554
v -0.0501747 0.0759403 0.0715426
v -0.0536742 0.0771978 0.0713865
v 0.0255054 0.0470117 0.0881979
v 0.0352732 0.0435392 0.0882948
v 0.0592028 0.0378673 0.0663065
v -0.0595031 0.0795370 0.0692824
v -0.0563636 0.0782173 0.0708915
v 0.1253852 0.0191853 0.0290083
v 0.0913649 0.0294320 0.0431613
v 0.1310341 0.0204532 0.0034091
v 0.1544184 0.0107448 0.0146024
v -0.1243884 0.0119299 -0.0317796
v -0.1360726 0.0180520 -0.0254511
v -0.1054671 -0.0258171 -0.0508028
v -0.1010094 -0.0357894 -0.0556298
v -0.0979070 -0.0388531 -0.0577609
v -0.0755391 -0.0449183 -0.0680823
v -0.0137826 -0.0613957 -0.0965013
v -0.0005948 -0.0600553 -0.1010378
v -0.0372199 -0.0557911 -0.0859216
v -0.1422351 0.0332098 -0.0183477
v -0.0001607 -0.0127500 -0.0862660
v -0.1444904 0.0418469 -0.0147745
v -0.1413880 0.0430010 -0.0155763
v -0.1183001 0.0595353 0.0291859
v -0.1039953 0.0688505 0.0399271
v -0.1379415 0.0467012 0.0120085
v -0.1404721 0.0446674 -0.0123260
v -0.1427698 0.0435030 0.0052872
v -0.1444957 0.0420695 -0.0141879
v -0.0595031 0.0795370 0.0692824
v 0.1310341 0.0204532 0.0034091
v 0.1310341 0.0204532 0.0034091
v 0.1544184 0.0107448 0.0146024
v -0.0005948 -0.0600553 -0.1010378
v -0.0001607 -0.0127500 -0.0862660
v -0.0001607 -0.0127500 -0.0862660
v -0.1444904 0.0418469 -0.0147745
v -0.1413880 0.0430010 -0.0155763
v -0.1413880 0.0430010 -0.0155763
v -0.1039953 0.0688505 0.0399271
v -0.1404721 0.0446674 -0.0123260
v -0.1404721 0.0446674 -0.0123260
v -0.1444957 0.0420695 -0.0141879
v 0.1294511 -0.0330622 0.0175944
v -0.0348958 -0.0163364 0.0412078
v 0.0137153 -0.0357894 0.0284540
v 0.0569528 -0.0421237 -0.0051903
v -0.0963240 -0.0371764 -0.0493390
v -0.0950322 0.0144398 0.0332757
v -0.0691279 -0.0276905 0.0166850
v -0.1371050 0.0256335 0.0069178
v 0.0078599 0.0040327 0.0558828
v 0.0383279 -0.0265882 0.0410356
v -0.0763544 -0.0339885 -0.0151028
v 0.0519445 -0.0264743 0.0466484
v 0.0712841 -0.0392981 -0.0511149
v 0.1112868 -0.0347182 -0.0254673
v 0.1315370 -0.0332795 -0.0127619
v 0.1290805 -0.0336004 -0.0143440
v 0.1472607 -0.0311474 -0.0025803
v 0.1549532 0.0061648 0.0135261
v 0.0441409 -0.0510921 -0.0711766
v 0.0287560 -0.0519149 -0.0807554
v -0.0501747 0.0759403 0.0715426
v -0.0536742 0.0771978 0.0713865
v 0.0255054 0.0470117 0.0881979
v 0.0352732 0.0435392 0.0882948
v 0.0592028 0.0378673 0.0663065
v -0.0595031 0.0795370 0.0692824
v -0.0563636 0.0782173 0.0708915
v 0.1253852 0.0191853 0.0290083
v 0.0913649 0.0294320 0.0431613
v 0.1544184 0.0107448 0.0146024
v -0.1243884 0.0119299 -0.0317796
v -0.1360726 0.0180520 -0.0254511
v -0.1054671 -0.0258171 -0.0508028
v -0.1010094 -0.0357894 -0.0556298
v -0.0979070 -0.0388531 -0.0577609
v -0.0755391 -0.0449183 -0.0680823
v -0.0137826 -0.0613957 -0.0965013
v -0.0005948 -0.0600553 -0.1010378
v -0.0372199 -0.0557911 -0.0859216
v -0.1422351 0.0332098 -0.0183477
v -0.1444904 0.0418469 -0.0147745
v -0.1183001 0.0595353 0.0291859
v -0.1039953 0.0688505 0.0399271
v -0.1379415 0.0467012 0.0120085
v -0.1427698 0.0435030 0.0052872
v -0.1444957 0.0420695 -0.0141879
v 0.1294511 -0.0330622 0.0175944
v 0.0137153 -0.0357894 0.0284540
v -0.0963240 -0.0371764 -0.0493390
v -0.0691279 -0.0276905 0.0166850
v 0.0383279 -0.0265882 0.0410356
v -0.0763544 -0.0339885 -0.0151028
v 0.0519445 -0.0264743 0.0466484
v 0.1472607 -0.0311474 -0.0025803
v -0.0979070 -0.0388531 -0.0577609
v 0.0327796 0.0616830 0.0394051
v 0.0475980 0.0635408 0.0370534
v -0.0609060 -0.0773763 0.0829242
v -0.0368334 0.0377638 0.0538648
v -0.0013625 0.0507481 0.0463148
v -0.0783609 -0.0102815 0.0701004
v -0.0845551 0.0060665 0.0672267
v -0.0854127 0.0176483 0.0647298
v -0.0681484 -0.0550614 -0.0139243
v -0.0751632 -0.0430035 -0.0492422
v -0.0586878 -0.0835036 0.0670438
v -0.0576342 -0.0900656 0.0853566
v -0.0608743 -0.0703123 0.0302191
v -0.0810239 0.0119661 -0.0896455
v -0.0817492 0.0105585 -0.0894517
v 0.1042827 0.0716709 -0.0550002
v -0.0839515 -0.0122377 -0.0837206
v -0.0837874 -0.0179147 -0.0820954
v 0.0495833 0.0596595 -0.0667854
v 0.0340714 0.0566476 -0.0702403
v -0.0319257 0.0299857 -0.0810783
v -0.0819027 0.0064961 -0.0883647
v 0.0904755 0.0653676 -0.0570667
v -0.0798750 -0.0294034 -0.0778226
v -0.0787844 -0.0335279 -0.0763696
v 0.1001056 0.0718623 -0.0219909
v 0.1121551 0.0747811 -0.0536926
v 0.0951184 0.0708532 -0.0087904
v 0.0805595 0.0711896 0.0310317
v 0.0468462 -0.0709074 0.0674205
v 0.0888396 -0.0298743 -0.0310262
v -0.0576342 -0.0900656 0.0853566
v -0.0787844 -0.0335279 -0.0763696
v 0.1121551 0.0747811 -0.0536926
v 0.0805595 0.0711896 0.0310317
v 0.0468462 -0.0709074 0.0674205
v 0.0468462 -0.0709074 0.0674205
v 0.0888396 -0.0298743 -0.0310262
v 0.0888396 -0.0298743 -0.0310262
v -0.0731144 0.0207120 -0.0082200
v -0.0823104 -0.0138213 -0.0471596
v 0.0889984 0.0670495 -0.0314729
v -0.0807115 0.0015280 0.0479184
v 0.0350561 0.0598458 -0.0397925
v 0.0327796 0.0616830 0.0394051
v 0.0475980 0.0635408 0.0370534
v -0.0609060 -0.0773763 0.0829242
v -0.0368334 0.0377638 0.0538648
v -0.0013625 0.0507481 0.0463148
v -0.0783609 -0.0102815 0.0701004
v -0.0845551 0.0060665 0.0672267
v -0.0854127 0.0176483 0.0647298
v -0.0681484 -0.0550614 -0.0139243
v -0.0751632 -0.0430035 -0.0492422
v -0.0586878 -0.0835036 0.0670438
v -0.0576342 -0.0900656 0.0853566
v -0.0608743 -0.0703123 0.0302191
v -0.0810239 0.0119661 -0.0896455
v -0.0817492 0.0105585 -0.0894517
v 0.1042827 0.0716709 -0.0550002
v -0.0839515 -0.0122377 -0.0837206
v -0.0837874 -0.0179147 -0.0820954
v 0.0495833 0.0596595 -0.0667854
v 0.0340714 0.0566476 -0.0702403
v -0.0319257 0.0299857 -0.0810783
v -0.0819027 0.0064961 -0.0883647
v 0.0904755 0.0653676 -0.0570667
v -0.0798750 -0.0294034 -0.0778226
v -0.0787844 -0.0335279 -0.0763696
v 0.1001056 0.0718623 -0.0219909
v 0.1121551 0.0747811 -0.0536926
v 0.0951184 0.0708532 -0.0087904
v 0.0805595 0.0711896 0.0310317
v 0.0292484 -0.0510145 -0.0484511
v 0.0356226 -0.0502848 -0.0464546
v 0.0636923 -0.0210715 -0.0581537
v 0.0713000 0.0280813 -0.0938376
v -0.0547489 -0.0701364 -0.0672859
v -0.0259116 -0.0614319 -0.0625072
v 0.0630252 0.0638565 -0.1253777
v 0.0474339 0.0757643 -0.1410590
v 0.0640417 -0.0397225 -0.0433119
v 0.0643223 -0.0428689 -0.0407181
v 0.0367502 -0.0499950 -0.0462286
v -0.0094943 -0.0565880 -0.0597035
v 0.0608228 0.0732234 -0.1336489
v -0.0803145 -0.0800621 -0.0697828
v 0.0631099 0.1028196 0.0095493
v -0.0583860 -0.0638538 0.0764020
v -0.0183833 -0.0592739 0.1020442
v 0.0018616 -0.0578352 0.1147550
v -0.0005896 -0.0581561 0.1131729
v 0.0175853 -0.0557031 0.1249365
v 0.0252778 -0.0183909 0.1410430
v -0.0855292 -0.0756478 0.0563349
v -0.1009141 -0.0764706 0.0467614
v -0.0895475 -0.0814646 -0.0724036
v -0.1226784 -0.0866759 0.0071546
v -0.1302702 -0.0846110 0.0264790
v -0.1298414 -0.0373057 0.0412455
v -0.0716214 -0.0358412 -0.1011347
v 0.0619611 0.1079067 -0.0362892
v 0.0620352 0.1062558 -0.0772145
v 0.0619928 0.1092781 -0.0032907
v 0.0461050 0.0973599 -0.1282083
v 0.0362473 0.0926402 -0.1405962
v 0.0579640 0.1029076 -0.1164608
v -0.0801927 0.0465304 -0.0525302
v -0.0772597 0.0475033 -0.0594076
v 0.0247430 -0.0138109 0.1421246
v 0.0274431 -0.0123360 0.1411990
v 0.0806177 -0.0096450 0.1454772
v 0.0321390 -0.0126103 0.1420116
v 0.0816554 0.0064029 0.1318892
v 0.0813271 0.0167686 0.1229831
v 0.0282796 -0.0125430 0.1414788
v 0.0013640 -0.0040973 0.1309314
v 0.0373432 0.0831854 -0.1457354
v 0.0386244 0.0790660 -0.1472207
v 0.0356385 0.0771150 -0.1468871
v 0.0674035 0.0908548 0.0349063
v 0.0647723 0.0783778 0.0525840
v 0.0670170 0.0921848 0.0330497
v 0.0655823 0.0735235 0.0593807
v 0.0735394 0.0473480 0.0958879
v 0.0542845 0.0531234 0.0885692
v -0.0895475 -0.0814646 -0.0724036
v -0.1302702 -0.0846110 0.0264790
v -0.1298414 -0.0373057 0.0412455
v -0.1298414 -0.0373057 0.0412455
v -0.0716214 -0.0358412 -0.1011347
v -0.0716214 -0.0358412 -0.1011347
v 0.0619928 0.1092781 -0.0032907
v 0.0362473 0.0926402 -0.1405962
v -0.0801927 0.0465304 -0.0525302
v -0.0801927 0.0465304 -0.0525302
v -0.0772597 0.0475033 -0.0594076
v -0.0772597 0.0475033 -0.0594076
v 0.0247430 -0.0138109 0.1421246
v 0.0013640 -0.0040973 0.1309314
v 0.0013640 -0.0040973 0.1309314
v 0.0373432 0.0831854 -0.1457354
v 0.0386244 0.0790660 -0.1472207
v 0.0356385 0.0771150 -0.1468871
v 0.0356385 0.0771150 -0.1468871
v 0.0670170 0.0921848 0.0330497
v 0.0735394 0.0473480 0.0958879
v 0.0542845 0.0531234 0.0885692
v 0.0542845 0.0531234 0.0885692
v 0.0669588 0.0784036 0.0092587
v -0.0953022 -0.0824893 0.0059976
v 0.0820736 0.0087938 0.1167730
v -0.0287122 -0.0580112 -0.0186706
v 0.0642323 0.0690885 0.0376723
v 0.0282954 -0.0137540 0.1405640
v 0.0392385 -0.0533691 0.1004190
v 0.0588322 0.0893437 -0.1214278
v 0.0796542 -0.0541868 0.0879988
v 0.0828995 -0.0284253 0.0474072
v 0.0758953 -0.0464294 0.0668393
v 0.0745188 0.0304049 -0.0374085
v 0.0769489 -0.0433968 0.0231372
v 0.0019940 -0.0578507 0.1128446
v 0.0292484 -0.0510145 -0.0484511
v 0.0356226 -0.0502848 -0.0464546
v 0.0636923 -0.0210715 -0.0581537
v 0.0713000 0.0280813 -0.0938376
v -0.0547489 -0.0701364 -0.0672859
v -0.0259116 -0.0614319 -0.0625072
v 0.0630252 0.0638565 -0.1253777
v 0.0474339 0.0757643 -0.1410590
v 0.0640417 -0.0397225 -0.0433119
v 0.0643223 -0.0428689 -0.0407181
v 0.0367502 -0.0499950 -0.0462286
v -0.0094943 -0.0565880 -0.0597035
v 0.0608228 0.0732234 -0.1336489
v -0.0803145 -0.0800621 -0.0697828
v 0.0631099 0.1028196 0.0095493
v -0.0583860 -0.0638538 0.0764020
v -0.0183833 -0.0592739 0.1020442
v 0.0018616 -0.0578352 0.1147550
v -0.0005896 -0.0581561 0.1131729
v 0.0175853 -0.0557031 0.1249365
v 0.0252778 -0.0183909 0.1410430
v -0.0855292 -0.0756478 0.0563349
v -0.1009141 -0.0764706 0.0467614
v -0.0895475 -0.0814646 -0.0724036
v -0.1226784 -0.0866759 0.0071546
v -0.1302702 -0.0846110 0.0264790
v 0.0619611 0.1079067 -0.0362892
v 0.0620352 0.1062558 -0.0772145
v 0.0619928 0.1092781 -0.0032907
v 0.0461050 0.0973599 -0.1282083
v 0.0362473 0.0926402 -0.1405962
v 0.0579640 0.1029076 -0.1164608
v 0.0247430 -0.0138109 0.1421246
v 0.0274431 -0.0123360 0.1411990
v 0.0806177 -0.0096450 0.1454772
v 0.0321390 -0.0126103 0.1420116
v 0.0816554 0.0064029 0.1318892
v 0.0813271 0.0167686 0.1229831
v 0.0282796 -0.0125430 0.1414788
v 0.0373432 0.0831854 -0.1457354
v 0.0386244 0.0790660 -0.1472207
v 0.0674035 0.0908548 0.0349063
v 0.0647723 0.0783778 0.0525840
v 0.0670170 0.0921848 0.0330497
v 0.0655823 0.0735235 0.0593807
v 0.0735394 0.0473480 0.0958879
v 0.0392385 -0.0533691 0.1004190
v 0.0796542 -0.0541868 0.0879988
v 0.0758953 -0.0464294 0.0668393
v 0.0769489 -0.0433968 0.0231372
v 0.0643223 -0.0428689 -0.0407181
v 0.0175853 -0.0557031 0.1249365
v -0.1431827 -0.0651942 -0.0165073
v -0.1421080 -0.0756323 -0.0215927
v -0.1403450 -0.0813766 -0.0239444
v -0.1334361 -0.0926376 -0.0272324
v -0.0551407 -0.1011402 -0.0018431
v -0.0677990 -0.0992151 -0.0056585
v -0.0521177 -0.1012178 -0.0007291
v -0.0273833 -0.0997792 0.0094632
v -0.1437439 -0.0568106 -0.0123098
v 0.1499343 0.0921590 0.0150113
v 0.1450266 0.1007392 0.0132140
v 0.0271943 -0.0920735 -0.0530683
v 0.0417003 -0.0932948 -0.0463578
v 0.0656776 -0.0937916 -0.0351753
v 0.1101062 0.1314688 -0.0013319
v -0.0191827 -0.0954476 -0.0749543
v 0.1429830 0.1058056 0.0125521
v 0.0513833 -0.0948059 0.0421388
v 0.0559998 -0.0938589 0.0329528
v 0.0811418 -0.0946455 -0.0279912
v 0.0998250 0.1577271 -0.0046145
v -0.1582234 -0.0069747 -0.0773813
v -0.1581440 -0.0067521 -0.0764934
v 0.1476207 0.1057849 0.0217273
v 0.1467948 0.1068769 0.0211461
v 0.1065168 0.1415705 0.0080694
v 0.1462654 0.1077256 0.0206510
v 0.0035770 0.0673031 0.1092337
v 0.0997667 0.1580221 -0.0029086
v 0.0039581 0.1159436 0.0689057
v -0.1528022 -0.0453892 -0.0745346
v -0.1464863 -0.0791410 -0.0656069
v -0.1525640 -0.0435003 -0.0752503
v -0.1414409 -0.0922960 -0.0630723
v -0.1407792 -0.0932430 -0.0629969
v -0.1535540 -0.0386098 -0.0765149
v -0.0586560 -0.0928187 -0.0932564
v -0.1376027 -0.0936467 -0.0640302
v -0.1582287 -0.0084185 -0.0848614
v -0.1092947 0.0151695 -0.1106651
v 0.0663764 0.0316210 0.1144160
v 0.0720094 -0.0517235 0.0726888
v 0.1798834 0.0767580 0.0332273
v 0.1809846 0.0673031 0.0280827
v 0.1792746 0.0612328 0.0269311
v -0.1437439 -0.0568106 -0.0123098
v 0.0513833 -0.0948059 0.0421388
v 0.0811418 -0.0946455 -0.0279912
v 0.0998250 0.1577271 -0.0046145
v -0.1581440 -0.0067521 -0.0764934
v 0.0035770 0.0673031 0.1092337
v 0.0035770 0.0673031 0.1092337
v 0.0997667 0.1580221 -0.0029086
v 0.0039581 0.1159436 0.0689057
v 0.0039581 0.1159436 0.0689057
v -0.0586560 -0.0928187 -0.0932564
v -0.1582287 -0.0084185 -0.0848614
v -0.1092947 0.0151695 -0.1106651
v -0.1092947 0.0151695 -0.1106651
v 0.0663764 0.0316210 0.1144160
v 0.0663764 0.0316210 0.1144160
v 0.0720094 -0.0517235 0.0726888
v 0.0720094 -0.0517235 0.0726888
v 0.1798834 0.0767580 0.0332273
v 0.1809846 0.0673031 0.0280827
v 0.1792746 0.0612328 0.0269311
v 0.1792746 0.0612328 0.0269311
v -0.0520436 -0.1010212 -0.0061428
v 0.0371102 -0.0924668 -0.0189235
v -0.1527493 -0.0429259 -0.0706008
v -0.1431827 -0.0651942 -0.0165073
v -0.1421080 -0.0756323 -0.0215927
v -0.1403450 -0.0813766 -0.0239444
v -0.1334361 -0.0926376 -0.0272324
v -0.0551407 -0.1011402 -0.0018431
v -0.0677990 -0.0992151 -0.0056585
v -0.0521177 -0.1012178 -0.0007291
v -0.0273833 -0.0997792 0.0094632
v -0.1437439 -0.0568106 -0.0123098
v 0.1499343 0.0921590 0.0150113
v 0.1450266 0.1007392 0.0132140
v 0.0271943 -0.0920735 -0.0530683
v 0.0417003 -0.0932948 -0.0463578
v 0.0656776 -0.0937916 -0.0351753
v 0.1101062 0.1314688 -0.0013319
v -0.0191827 -0.0954476 -0.0749543
v 0.1429830 0.1058056 0.0125521
v 0.0513833 -0.0948059 0.0421388
v 0.0559998 -0.0938589 0.0329528
v 0.0811418 -0.0946455 -0.0279912
v 0.0998250 0.1577271 -0.0046145
v -0.1582234 -0.0069747 -0.0773813
v -0.1581440 -0.0067521 -0.0764934
v 0.1476207 0.1057849 0.0217273
v 0.1467948 0.1068769 0.0211461
v 0.1065168 0.1415705 0.0080694
v 0.1462654 0.1077256 0.0206510
v 0.0997667 0.1580221 -0.0029086
v -0.1528022 -0.0453892 -0.0745346
v -0.1464863 -0.0791410 -0.0656069
v -0.1525640 -0.0435003 -0.0752503
v -0.1414409 -0.0922960 -0.0630723
v -0.1407792 -0.0932430 -0.0629969
v -0.1535540 -0.0386098 -0.0765149
v -0.0586560 -0.0928187 -0.0932564
v -0.1376027 -0.0936467 -0.0640302
v -0.1582287 -0.0084185 -0.0848614
v 0.1798834 0.0767580 0.0332273
v 0.1809846 0.0673031 0.0280827
v -0.1334361 -0.0926376 -0.0272324
v -0.1407792 -0.0932430 -0.0629969
v -0.0171974 -0.0158033 0.0929174
v -0.0384640 0.0001980 0.0997463
v 0.0879448 -0.1043280 0.0445389
v 0.0886225 -0.0926738 0.0631800
v 0.0559892 -0.0625031 0.0823807
v 0.0741324 -0.0792186 0.0718009
v 0.0230701 -0.0629430 0.0538648
v 0.0500968 -0.0581768 0.0841081
v -0.0452829 0.0068738 0.1043313
v -0.0514824 0.0143829 0.1107405
v -0.1136254 0.0332098 0.0874015
v -0.0912522 0.0333805 0.1065807
v -0.0955881 0.0339964 0.1038739
v 0.0198142 -0.0631604 0.0507759
v 0.0178500 -0.0610075 0.0524549
v -0.0056825 -0.0306506 0.0796254
v -0.0125491 -0.0225723 0.0863467
v -0.0336569 0.0871133 -0.0602578
v -0.0190715 0.0906634 -0.0690241
v 0.0725441 -0.0598742 -0.1163747
v 0.0487627 0.0937529 -0.1092014
v 0.0488103 0.0947827 -0.1092767
v 0.0490274 0.0924229 -0.1092982
v -0.0566283 0.0810274 -0.0464277
v 0.0484345 0.0959419 -0.1091099
v -0.0919616 0.0725403 -0.0251982
v 0.0163359 0.0934890 -0.0900544
v -0.1171672 0.0611241 0.0259086
v -0.0933699 0.0718830 -0.0243372
v 0.0759588 -0.0815112 -0.1166330
v 0.0758265 -0.0807194 -0.1173810
v -0.1211113 -0.0161242 0.0045554
v -0.1145783 -0.0104057 -0.0081447
v -0.1215243 0.0580967 0.0573573
v -0.1256325 0.0335203 0.0777258
v -0.1206190 0.0635978 0.0512441
v -0.1212649 0.0607670 0.0351484
v -0.1303496 0.0088973 0.0355466
v 0.0801889 -0.1222338 -0.0737973
v 0.0809989 -0.1270880 -0.0670007
v 0.0889560 -0.1532635 -0.0304935
v 0.0828201 -0.1097515 -0.0914751
v 0.0824336 -0.1084215 -0.0933317
v 0.0697011 -0.1474829 -0.0378121
v -0.0933699 0.0718830 -0.0243372
v 0.0758265 -0.0807194 -0.1173810
v -0.1211113 -0.0161242 0.0045554
v -0.1211113 -0.0161242 0.0045554
v -0.1145783 -0.0104057 -0.0081447
v -0.1145783 -0.0104057 -0.0081447
v -0.1256325 0.0335203 0.0777258
v -0.1212649 0.0607670 0.0351484
v -0.1303496 0.0088973 0.0355466
v -0.1303496 0.0088973 0.0355466
v 0.0889560 -0.1532635 -0.0304935
v 0.0824336 -0.1084215 -0.0933317
v 0.0697011 -0.1474829 -0.0378121
v 0.0697011 -0.1474829 -0.0378121
v 0.0599493 0.0817881 -0.0357188
v 0.0658735 0.0491438 0.0120462
v -0.0078902 -0.0093707 0.0862176
v 0.0857795 -0.0266710 0.0796416
v 0.0515951 0.0976859 -0.0684859
v -0.0184627 0.0924591 -0.0157001
v 0.0508592 -0.0451615 0.0885423
v -0.0416564 0.0176224 0.0966198
v -0.1187184 0.0647414 0.0531652
v -0.0939363 0.0398338 0.0964260
v -0.0354993 0.0592559 0.0358749
v 0.0188877 -0.0070678 0.0791841
v 0.0439450 0.0590540 0.0157486
v -0.0824586 0.0774876 0.0321994
v -0.0171974 -0.0158033 0.0929174
v -0.0384640 0.0001980 0.0997463
v 0.0879448 -0.1043280 0.0445389
v 0.0886225 -0.0926738 0.0631800
v 0.0559892 -0.0625031 0.0823807
v 0.0741324 -0.0792186 0.0718009
v 0.0230701 -0.0629430 0.0538648
v 0.0500968 -0.0581768 0.0841081
v -0.0452829 0.0068738 0.1043313
v -0.0514824 0.0143829 0.1107405
v -0.1136254 0.0332098 0.0874015
v -0.0912522 0.0333805 0.1065807
v -0.0955881 0.0339964 0.1038739
v 0.0198142 -0.0631604 0.0507759
v 0.0178500 -0.0610075 0.0524549
v -0.0056825 -0.0306506 0.0796254
v -0.0125491 -0.0225723 0.0863467
v -0.0336569 0.0871133 -0.0602578
v -0.0190715 0.0906634 -0.0690241
v 0.0725441 -0.0598742 -0.1163747
v 0.0487627 0.0937529 -0.1092014
v 0.0488103 0.0947827 -0.1092767
v 0.0490274 0.0924229 -0.1092982
v -0.0566283 0.0810274 -0.0464277
v 0.0484345 0.0959419 -0.1091099
v -0.0919616 0.0725403 -0.0251982
v 0.0163359 0.0934890 -0.0900544
v -0.1171672 0.0611241 0.0259086
v -0.0933699 0.0718830 -0.0243372
v 0.0759588 -0.0815112 -0.1166330
v 0.0758265 -0.0807194 -0.1173810
v -0.1215243 0.0580967 0.0573573
v -0.1256325 0.0335203 0.0777258
v -0.1206190 0.0635978 0.0512441
v -0.1212649 0.0607670 0.0351484
v 0.0801889 -0.1222338 -0.0737973
v 0.0809989 -0.1270880 -0.0670007
v 0.0889560 -0.1532635 -0.0304935
v 0.0828201 -0.1097515 -0.0914751
v 0.0824336 -0.1084215 -0.0933317
v -0.0828027 -0.0084392 0.1165362
v 0.1712539 0.0360095 -0.0703909
v 0.1701368 0.0424628 -0.0832309
v 0.0279460 -0.0202798 -0.1324811
v -0.0218509 0.1233905 0.0382858
v 0.1685539 0.0530768 -0.0709452
v -0.0283839 0.1176720 0.0509965
v 0.1624285 -0.0136867 0.0086237
v 0.1686862 0.0522851 -0.0701972
v 0.1751610 0.0253747 -0.0468959
v -0.0940899 0.0080900 0.1161757
v -0.1062241 -0.0028139 0.1035779
v -0.0598790 0.0838840 0.0761168
v -0.0810398 -0.0118289 0.1168537
v 0.1095027 -0.0709126 0.0509858
v -0.0216974 -0.1041210 -0.0386947
v -0.1629194 -0.0483648 0.0319896
v -0.1255320 -0.0225154 0.0874984
v -0.1620035 -0.0466985 0.0352453
v -0.0889175 0.0247796 -0.0632660
v -0.0741203 0.0142328 -0.0775320
v -0.1072512 0.0055024 -0.0464116
v 0.1701368 0.0424628 -0.0832309
v 0.0279460 -0.0202798 -0.1324811
v 0.0279460 -0.0202798 -0.1324811
v -0.0218509 0.1233905 0.0382858
v -0.0218509 0.1233905 0.0382858
v 0.1685539 0.0530768 -0.0709452
v -0.0283839 0.1176720 0.0509965
v -0.0283839 0.1176720 0.0509965
v 0.1624285 -0.0136867 0.0086237
v 0.1624285 -0.0136867 0.0086237
v 0.1751610 0.0253747 -0.0468959
v -0.0940899 0.0080900 0.1161757
v -0.0598790 0.0838840 0.0761168
v -0.0598790 0.0838840 0.0761168
v -0.0810398 -0.0118289 0.1168537
v 0.1095027 -0.0709126 0.0509858
v 0.1095027 -0.0709126 0.0509858
v -0.0216974 -0.1041210 -0.0386947
v -0.0216974 -0.1041210 -0.0386947
v -0.1629194 -0.0483648 0.0319896
v -0.1629194 -0.0483648 0.0319896
v -0.1255320 -0.0225154 0.0874984
v -0.1620035 -0.0466985 0.0352453
v -0.1620035 -0.0466985 0.0352453
v -0.0889175 0.0247796 -0.0632660
v -0.0889175 0.0247796 -0.0632660
v -0.0741203 0.0142328 -0.0775320
v -0.0741203 0.0142328 -0.0775320
v -0.1072512 0.0055024 -0.0464116
v -0.1072512 0.0055024 -0.0464116
v -0.0828027 -0.0084392 0.1165362
v 0.1712539 0.0360095 -0.0703909
v 0.1701368 0.0424628 -0.0832309
v 0.1685539 0.0530768 -0.0709452
v 0.1686862 0.0522851 -0.0701972
v 0.1751610 0.0253747 -0.0468959
v -0.0940899 0.0080900 0.1161757
v -0.1062241 -0.0028139 0.1035779
v -0.0810398 -0.0118289 0.1168537
v -0.1255320 -0.0225154 0.0874984
v -0.0712561 -0.0351322 -0.0708107
v -0.0705044 -0.0380768 -0.0701165
v 0.0029258 0.0706410 -0.0422141
v -0.0202256 0.0668995 -0.0540693
v 0.0738888 0.0848725 -0.0061536
v 0.0750218 0.0851519 -0.0055778
v 0.0715329 0.0849604 -0.0073967
v -0.0463153 -0.1007676 -0.0510557
v 0.0735818 0.0848725 -0.0063096
v -0.0719761 -0.0323428 -0.0714672
v -0.0748138 -0.0246009 -0.0737435
v 0.0764777 0.0866320 -0.0049589
v -0.0947834 0.0353367 -0.0902966
v -0.0594978 0.0526163 -0.0733884
v 0.0275278 -0.0958616 0.0307303
v 0.0609658 -0.0205023 0.0764558
v 0.0576781 -0.0291498 0.0757078
v 0.0543904 -0.0389824 0.0710152
v 0.0984855 0.0691299 0.0543976
v 0.0690605 -0.0009095 0.0725489
v 0.0918255 0.0533563 0.0587726
v 0.0959814 0.0642343 0.0595422
v 0.0475503 -0.0600657 0.0590901
v 0.0396673 -0.0849578 0.0433281
v 0.0738782 -0.0091637 0.0032638
v -0.0060690 -0.1248782 0.0039042
v 0.0082252 -0.1155631 0.0146454
v -0.0257104 -0.1377176 -0.0132624
v -0.0305387 -0.1409158 -0.0199891
v -0.0322646 -0.1423493 -0.0394696
v -0.0282410 -0.1397462 -0.0376023
v 0.1049603 0.0988451 0.0309402
v 0.1008467 0.0742687 0.0513140
v 0.1058656 0.1043462 0.0248270
v 0.1052144 0.1015207 0.0087313
v 0.0961349 0.0496406 0.0091295
v 0.0396673 -0.0849578 0.0433281
v 0.0738782 -0.0091637 0.0032638
v 0.0738782 -0.0091637 0.0032638
v 0.0082252 -0.1155631 0.0146454
v -0.0322646 -0.1423493 -0.0394696
v -0.0282410 -0.1397462 -0.0376023
v -0.0282410 -0.1397462 -0.0376023
v 0.1052144 0.1015207 0.0087313
v 0.0961349 0.0496406 0.0091295
v 0.1008467 0.0742687 0.0513140
v 0.0961349 0.0496406 0.0091295
v 0.0340502 0.0508050 0.0259517
v -0.0716267 -0.0341075 -0.0681577
v -0.0279075 -0.0825410 0.0000619
v -0.0335034 -0.0157257 0.0373225
v -0.0963399 0.0416037 -0.0202581
v 0.0405938 -0.0306506 0.0670545
v 0.0914231 0.0667494 0.0511634
v -0.0788586 0.0409465 -0.0004439
v -0.0204321 0.0677844 -0.0254619
v 0.0292802 0.0045295 0.0417836
v -0.0470353 -0.0889012 -0.0247354
v 0.0026399 0.0411587 0.0245364
v -0.0712561 -0.0351322 -0.0708107
v -0.0705044 -0.0380768 -0.0701165
v 0.0029258 0.0706410 -0.0422141
v -0.0202256 0.0668995 -0.0540693
v 0.0738888 0.0848725 -0.0061536
v 0.0750218 0.0851519 -0.0055778
v 0.0715329 0.0849604 -0.0073967
v -0.0463153 -0.1007676 -0.0510557
v 0.0735818 0.0848725 -0.0063096
v -0.0719761 -0.0323428 -0.0714672
v -0.0748138 -0.0246009 -0.0737435
v 0.0764777 0.0866320 -0.0049589
v -0.0947834 0.0353367 -0.0902966
v -0.0594978 0.0526163 -0.0733884
v 0.0275278 -0.0958616 0.0307303
v 0.0609658 -0.0205023 0.0764558
v 0.0576781 -0.0291498 0.0757078
v 0.0543904 -0.0389824 0.0710152
v 0.0984855 0.0691299 0.0543976
v 0.0690605 -0.0009095 0.0725489
v 0.0918255 0.0533563 0.0587726
v 0.0959814 0.0642343 0.0595422
v 0.0475503 -0.0600657 0.0590901
v 0.0396673 -0.0849578 0.0433281
v -0.0060690 -0.1248782 0.0039042
v 0.0082252 -0.1155631 0.0146454
v -0.0257104 -0.1377176 -0.0132624
v -0.0305387 -0.1409158 -0.0199891
v -0.0322646 -0.1423493 -0.0394696
v 0.1049603 0.0988451 0.0309402
v 0.1008467 0.0742687 0.0513140
v 0.1058656 0.1043462 0.0248270
v 0.1052144 0.1015207 0.0087313
v -0.0946299 0.0509861 0.0772953
v -0.0950905 0.0521195 0.0815466
v -0.0948469 0.0585469 0.1007096
v -0.0936663 -0.0095311 -0.1087870
v -0.0952122 0.0030081 -0.0678832
v -0.0910034 0.0376810 0.0304397
v -0.0948893 -0.0203056 -0.1394877
v -0.0911569 0.0163908 -0.0341528
v -0.0917975 -0.0463569 -0.1551313
v -0.0848833 -0.0576179 -0.1584193
v -0.0065878 -0.0661205 -0.1330193
v -0.0192515 -0.0642006 -0.1368400
v -0.0035649 -0.0661981 -0.1319107
v 0.0211642 -0.0647646 -0.1217130
v -0.0946299 -0.0301745 -0.1476889
v -0.0951911 -0.0217960 -0.1434968
v -0.0935605 -0.0406178 -0.1527797
v 0.0695000 -0.0675385 0.0498019
v 0.0099194 0.1001803 0.0450555
v 0.0521245 0.1023176 -0.0219479
v 0.1149239 0.0666407 -0.0167656
v 0.1119910 0.0656678 -0.0098882
v -0.0429588 -0.0312354 0.1193560
v -0.0618749 0.0065064 0.1383792
v -0.0385011 -0.0412077 0.1145290
v -0.0353987 -0.0442714 0.1123979
v -0.0130308 -0.0503366 0.1020711
v 0.0252831 -0.0612094 0.0842372
v 0.0487203 -0.0668140 0.0736575
v -0.0735644 0.0126389 0.1447077
v -0.0797268 0.0277915 0.1518111
v 0.0619081 -0.0654736 0.0691210
v 0.0623422 -0.0181683 0.0838875
v 0.1015667 -0.0613284 -0.0531706
v 0.1022020 -0.0623841 -0.0360955
v 0.1006403 -0.0607591 -0.0714242
v 0.0999308 -0.0597862 -0.0890428
v 0.1205622 -0.0167038 -0.0584927
v 0.1026309 -0.0623324 -0.0297616
v -0.0948099 0.0597837 0.1044228
v -0.0819821 0.0364286 0.1553843
v -0.0232115 0.0914500 0.0761706
v -0.0788797 0.0375827 0.1545825
v -0.0951911 -0.0217960 -0.1434968
v 0.0099194 0.1001803 0.0450555
v 0.0099194 0.1001803 0.0450555
v 0.0521245 0.1023176 -0.0219479
v 0.0521245 0.1023176 -0.0219479
v 0.1149239 0.0666407 -0.0167656
v 0.1149239 0.0666407 -0.0167656
v 0.1119910 0.0656678 -0.0098882
v 0.1119910 0.0656678 -0.0098882
v 0.0619081 -0.0654736 0.0691210
v 0.0623422 -0.0181683 0.0838875
v 0.0623422 -0.0181683 0.0838875
v 0.0999308 -0.0597862 -0.0890428
v 0.1205622 -0.0167038 -0.0584927
v 0.1205622 -0.0167038 -0.0584927
v 0.1026309 -0.0623324 -0.0297616
v -0.0948099 0.0597837 0.1044228
v -0.0819821 0.0364286 0.1553843
v -0.0232115 0.0914500 0.0761706
v -0.0232115 0.0914500 0.0761706
v -0.0788797 0.0375827 0.1545825
v -0.0788797 0.0375827 0.1545825
v -0.0427788 -0.0521064 0.0730924
v -0.0726061 0.0055904 0.1145989
v -0.0750468 -0.0686925 -0.0379467
v -0.0942858 0.0492783 0.0801474
v -0.0910193 -0.0385840 -0.1272720
v -0.0762274 -0.0300555 0.0638742
v -0.0800709 -0.0572194 -0.1349781
v 0.0437121 -0.0714767 0.0508889
v -0.0052114 -0.0706073 -0.0086774
v -0.0656655 -0.0576851 0.0213936
v -0.0900610 -0.0617165 -0.0473910
v -0.0946299 0.0509861 0.0772953
v -0.0950905 0.0521195 0.0815466
v -0.0948469 0.0585469 0.1007096
v -0.0936663 -0.0095311 -0.1087870
v -0.0952122 0.0030081 -0.0678832
v -0.0910034 0.0376810 0.0304397
v -0.0948893 -0.0203056 -0.1394877
v -0.0911569 0.0163908 -0.0341528
v -0.0917975 -0.0463569 -0.1551313
v -0.0848833 -0.0576179 -0.1584193
v -0.0065878 -0.0661205 -0.1330193
v -0.0192515 -0.0642006 -0.1368400
v -0.0035649 -0.0661981 -0.1319107
v 0.0211642 -0.0647646 -0.1217130
v -0.0946299 -0.0301745 -0.1476889
v -0.0951911 -0.0217960 -0.1434968
v -0.0935605 -0.0406178 -0.1527797
v 0.0695000 -0.0675385 0.0498019
v -0.0429588 -0.0312354 0.1193560
v -0.0618749 0.0065064 0.1383792
v -0.0385011 -0.0412077 0.1145290
v -0.0353987 -0.0442714 0.1123979
v -0.0130308 -0.0503366 0.1020711
v 0.0252831 -0.0612094 0.0842372
v 0.0487203 -0.0668140 0.0736575
v -0.0735644 0.0126389 0.1447077
v -0.0797268 0.0277915 0.1518111
v 0.0619081 -0.0654736 0.0691210
v 0.1015667 -0.0613284 -0.0531706
v 0.1022020 -0.0623841 -0.0360955
v 0.1006403 -0.0607591 -0.0714242
v 0.0999308 -0.0597862 -0.0890428
v 0.1026309 -0.0623324 -0.0297616
v -0.0948099 0.0597837 0.1044228
v -0.0819821 0.0364286 0.1553843
v -0.0427788 -0.0521064 0.0730924
v -0.0750468 -0.0686925 -0.0379467
v -0.0800709 -0.0572194 -0.1349781
v -0.0656655 -0.0576851 0.0213936
v -0.0848833 -0.0576179 -0.1584193
v -0.0353987 -0.0442714 0.1123979
v -0.0756873 -0.0510766 0.1568588
v -0.0693767 -0.0848232 0.1657919
v -0.0754544 -0.0491877 0.1561484
v -0.0643261 -0.0979834 0.1683211
v -0.0636696 -0.0989304 0.1683964
v -0.0604931 -0.0993289 0.1673632
v -0.0764391 -0.0442972 0.1548784
v 0.0873890 0.0651244 -0.0586542
v 0.0713847 0.0893592 -0.0571366
v 0.1194610 0.0237290 -0.0667962
v 0.0484080 0.1013137 -0.0387377
v 0.0119206 0.1361108 -0.0207478
v 0.1584738 -0.0747059 -0.0425693
v 0.1632121 -0.0739814 -0.0486287
v 0.1661080 -0.0709385 -0.0541769
v 0.1385836 -0.0803312 -0.0153073
v 0.0804536 -0.0868570 0.0573304
v 0.1372389 0.0005033 -0.0711067
v 0.1296470 0.0117022 -0.0701757
v 0.1676009 -0.0622910 -0.0620606
v 0.1625715 -0.0449597 -0.0684806
v 0.1579708 -0.0334607 -0.0712627
v 0.0185118 0.1300767 -0.0241758
v 0.0674299 -0.0936363 0.0773760
v 0.0596952 -0.0947904 0.0872454
v 0.0274643 -0.0976884 0.1270083
v 0.0184483 -0.0985009 0.1381370
v -0.1014329 0.1202285 0.0342874
v -0.0939152 0.0863267 0.0623351
v -0.0615784 0.1548704 0.0001103
v -0.0117708 0.1595746 -0.0096784
v -0.0695355 0.1534939 0.0022091
v -0.0757932 0.1526038 0.0036943
v -0.0950905 0.0772651 0.0702026
v -0.0681273 0.1544564 0.0012243
v -0.1025976 0.1348274 0.0219695
v -0.0905693 0.0653366 0.0798568
v -0.0893410 0.0339498 0.1064892
v -0.0811192 -0.0141059 0.1465373
v -0.0321799 0.0094872 0.1207283
v 0.0184483 -0.0985009 0.1381370
v -0.0117708 0.1595746 -0.0096784
v -0.0811192 -0.0141059 0.1465373
v -0.0321799 0.0094872 0.1207283
v -0.0321799 0.0094872 0.1207283
v -0.0644266 -0.0989925 0.1647048
v -0.1020523 0.1330265 0.0091295
v -0.0570095 -0.0172265 -0.0663334
v -0.0888698 0.0545569 -0.0268234
v -0.0765291 -0.0905520 0.0939291
v 0.1523855 -0.0574626 -0.0807770
v -0.0593178 -0.0418805 0.0064227
v -0.0636537 0.0976445 -0.0020476
v -0.0027602 0.0610206 -0.0447972
v 0.0430979 0.0087265 -0.1247589
v 0.0076746 -0.0675230 -0.0651495
v -0.0974146 0.0912067 -0.0015417
v -0.0899763 0.0657299 0.0637504
v -0.0454682 -0.0851803 0.0096031
v 0.0731159 0.0541895 -0.0826066
v -0.0866145 0.0101704 0.0801905
v 0.0762712 -0.0690392 -0.0259624
v 0.0152083 -0.0374765 -0.1060909
v 0.0891784 0.0233098 -0.1032227
v -0.0586772 -0.0997481 0.0983902
v -0.0420641 -0.0537780 -0.0826766
v 0.0487998 -0.0502537 -0.1023186
v -0.0423764 0.0589505 -0.0439953
v 0.0301643 -0.0857133 0.0121216
v 0.0770759 -0.0178578 -0.1354355
v 0.1144739 -0.0230795 -0.1134903
v -0.0365899 -0.0670727 -0.0636858
v -0.0709755 -0.0634398 0.0413424
v -0.0636537 -0.0723875 -0.0238690
v -0.0065773 -0.0122532 -0.1003382
v 0.1035044 -0.0369176 -0.1206852
v -0.0756873 -0.0510766 0.1568588
v -0.0693767 -0.0848232 0.1657919
v -0.0754544 -0.0491877 0.1561484
v -0.0643261 -0.0979834 0.1683211
v -0.0636696 -0.0989304 0.1683964
v -0.0604931 -0.0993289 0.1673632
v -0.0764391 -0.0442972 0.1548784
v 0.0873890 0.0651244 -0.0586542
v 0.0713847 0.0893592 -0.0571366
v 0.1194610 0.0237290 -0.0667962
v 0.0484080 0.1013137 -0.0387377
v 0.0119206 0.1361108 -0.0207478
v 0.1584738 -0.0747059 -0.0425693
v 0.1632121 -0.0739814 -0.0486287
v 0.1661080 -0.0709385 -0.0541769
v 0.1385836 -0.0803312 -0.0153073
v 0.0804536 -0.0868570 0.0573304
v 0.1372389 0.0005033 -0.0711067
v 0.1296470 0.0117022 -0.0701757
v 0.1676009 -0.0622910 -0.0620606
v 0.1625715 -0.0449597 -0.0684806
v 0.1579708 -0.0334607 -0.0712627
v 0.0185118 0.1300767 -0.0241758
v 0.0674299 -0.0936363 0.0773760
v 0.0596952 -0.0947904 0.0872454
v 0.0274643 -0.0976884 0.1270083
v 0.0184483 -0.0985009 0.1381370
v -0.1014329 0.1202285 0.0342874
v -0.0939152 0.0863267 0.0623351
v -0.0615784 0.1548704 0.0001103
v -0.0117708 0.1595746 -0.0096784
v -0.0695355 0.1534939 0.0022091
v -0.0757932 0.1526038 0.0036943
v -0.0950905 0.0772651 0.0702026
v -0.0681273 0.1544564 0.0012243
v -0.1025976 0.1348274 0.0219695
v -0.0905693 0.0653366 0.0798568
v -0.0893410 0.0339498 0.1064892
v -0.0811192 -0.0141059 0.1465373
v -0.0644266 -0.0989925 0.1647048
v 0.1523855 -0.0574626 -0.0807770
v -0.0454682 -0.0851803 0.0096031
v 0.0152083 -0.0374765 -0.1060909
v -0.0586772 -0.0997481 0.0983902
v 0.0770759 -0.0178578 -0.1354355
v 0.1144739 -0.0230795 -0.1134903
v -0.0365899 -0.0670727 -0.0636858
v 0.1035044 -0.0369176 -0.1206852
v -0.0636696 -0.0989304 0.1683964
v 0.1661080 -0.0709385 -0.0541769
v -0.1242190 -0.0484321 0.0067725
v 0.0341137 0.0780000 0.0295895
v 0.0128418 0.0940013 0.0364238
v 0.1392612 -0.0105144 -0.0187783
v 0.1399389 0.0011347 -0.0001426
v 0.1073056 0.0313002 0.0190528
v 0.1254487 0.0145899 0.0084730
v 0.0743865 0.0308603 -0.0094577
v 0.1014079 0.0356317 0.0207856
v 0.0060282 0.1006771 0.0410087
v -0.0001660 0.1081913 0.0474179
v -0.0623143 0.1270234 0.0240790
v -0.0399358 0.1271890 0.0432581
v -0.0442717 0.1278100 0.0405513
v 0.0711306 0.0306429 -0.0125466
v 0.0691664 0.0328009 -0.0108623
v 0.0456233 0.0631579 0.0163029
v 0.0387620 0.0712310 0.0230188
v -0.0697949 0.0776791 -0.0587618
v 0.0624375 -0.1121683 -0.0331788
v -0.1166219 -0.0541558 0.0091995
v -0.1193113 -0.0531363 0.0087044
v -0.0276692 -0.0878144 0.0261023
v -0.0037343 -0.0934863 0.0041141
v 0.0284172 -0.1019216 -0.0190258
v -0.1224507 -0.0518218 0.0070900
v -0.1131171 -0.0554133 0.0093555
v -0.0374370 -0.0843419 0.0260055
v 0.1480548 -0.0900293 -0.0667208
v 0.1402671 -0.0594498 -0.0938160
v 0.0950126 -0.1193461 -0.0482251
v 0.0988720 -0.1194134 -0.0476923
v 0.0941761 -0.1191391 -0.0485049
v 0.1483831 -0.1004002 -0.0578147
v 0.1210175 -0.0536745 -0.1011347
v 0.0680864 -0.1109004 -0.0587726
v 0.0914761 -0.1206140 -0.0475793
v 0.1473454 -0.1164481 -0.0442321
v -0.1142024 0.0325577 0.0395504
v -0.1174901 0.0239050 0.0387970
v -0.1207831 0.0140775 0.0341044
v -0.1276231 -0.0070057 0.0221793
v -0.1355009 -0.0318978 0.0064173
v -0.0833427 0.1064163 0.0218618
v -0.0791868 0.1172943 0.0226314
v -0.0743215 0.1273287 0.0144033
v -0.0766827 0.1221899 0.0174922
v -0.0790333 0.1027006 -0.0277759
v -0.1061076 0.0521453 0.0356381
v -0.1012952 0.0438963 -0.0336416
v -0.0697949 0.0776791 -0.0587618
v -0.0697949 0.0776791 -0.0587618
v -0.1224507 -0.0518218 0.0070900
v 0.1402671 -0.0594498 -0.0938160
v 0.1210175 -0.0536745 -0.1011347
v 0.1210175 -0.0536745 -0.1011347
v 0.0680864 -0.1109004 -0.0587726
v 0.0680864 -0.1109004 -0.0587726
v 0.0914761 -0.1206140 -0.0475793
v -0.1355009 -0.0318978 0.0064173
v -0.0743215 0.1273287 0.0144033
v -0.0790333 0.1027006 -0.0277759
v -0.0790333 0.1027006 -0.0277759
v -0.1012952 0.0438963 -0.0336416
v -0.1012952 0.0438963 -0.0336416
v -0.0168850 0.0327129 0.0897370
v -0.0317775 -0.0705607 0.0363700
v 0.0583398 -0.0594861 -0.0216734
v -0.1174425 -0.0500571 0.0105179
v -0.0515565 0.1020382 0.0734368
v 0.1402936 -0.0071351 -0.0022036
v 0.0178395 0.0667442 0.0413101
v 0.0945996 -0.0801398 -0.0186383
v -0.0283892 -0.0417408 0.0606184
v -0.0281881 0.0989435 0.0876975
v -0.0816009 0.0487971 0.0545913
v 0.0036034 -0.0284253 0.0239928
v 0.0711623 0.0288006 -0.0134776
v 0.1475995 -0.1048973 -0.0293311
v -0.1242190 -0.0484321 0.0067725
v 0.0341137 0.0780000 0.0295895
v 0.0128418 0.0940013 0.0364238
v 0.1392612 -0.0105144 -0.0187783
v 0.1399389 0.0011347 -0.0001426
v 0.1073056 0.0313002 0.0190528
v 0.1254487 0.0145899 0.0084730
v 0.0743865 0.0308603 -0.0094577
v 0.1014079 0.0356317 0.0207856
v 0.0060282 0.1006771 0.0410087
v -0.0001660 0.1081913 0.0474179
v -0.0623143 0.1270234 0.0240790
v -0.0399358 0.1271890 0.0432581
v -0.0442717 0.1278100 0.0405513
v 0.0711306 0.0306429 -0.0125466
v 0.0691664 0.0328009 -0.0108623
v 0.0456233 0.0631579 0.0163029
v 0.0387620 0.0712310 0.0230188
v 0.0624375 -0.1121683 -0.0331788
v -0.1166219 -0.0541558 0.0091995
v -0.1193113 -0.0531363 0.0087044
v -0.0276692 -0.0878144 0.0261023
v -0.0037343 -0.0934863 0.0041141
v 0.0284172 -0.1019216 -0.0190258
v -0.1224507 -0.0518218 0.0070900
v -0.1131171 -0.0554133 0.0093555
v -0.0374370 -0.0843419 0.0260055
v 0.1480548 -0.0900293 -0.0667208
v 0.1402671 -0.0594498 -0.0938160
v 0.0950126 -0.1193461 -0.0482251
v 0.0988720 -0.1194134 -0.0476923
v 0.0941761 -0.1191391 -0.0485049
v 0.1483831 -0.1004002 -0.0578147
v 0.0914761 -0.1206140 -0.0475793
v 0.1473454 -0.1164481 -0.0442321
v -0.1142024 0.0325577 0.0395504
v -0.1174901 0.0239050 0.0387970
v -0.1207831 0.0140775 0.0341044
v -0.1276231 -0.0070057 0.0221793
v -0.1355009 -0.0318978 0.0064173
v -0.0833427 0.1064163 0.0218618
v -0.0791868 0.1172943 0.0226314
v -0.0743215 0.1273287 0.0144033
v -0.0766827 0.1221899 0.0174922
v -0.1061076 0.0521453 0.0356381
f 6 2 8
f 27 65 57
f 14 12 13
f 60 49 58
f 63 64 62
f 70 126 127
f 82 69 73
f 68 95 83
f 88 70 78
f 70 76 95
f 90 70 85
f 72 71 81
f 82 94 69
f 150 75 151
f 153 151 75
f 94 88 78
f 76 77 66
f 91 66 83
f 67 115 116
f 68 73 69
f 79 89 68
f 94 95 69
f 69 95 68
f 98 75 99
f 150 99 75
f 70 128 126
f 93 74 82
f 83 95 76
f 91 76 66
f 79 68 83
f 87 86 80
f 73 87 152
f 87 73 86
f 88 135 136
f 94 137 138
f 86 117 118
f 79 119 89
f 134 84 142
f 91 83 76
f 73 152 82
f 115 67 122
f 90 85 109
f 90 77 70
f 111 72 112
f 137 74 132
f 68 89 73
f 86 73 89
f 66 97 83
f 86 123 117
f 121 79 116
f 153 92 151
f 82 152 93
f 70 95 78
f 94 78 95
f 75 84 153
f 76 70 77
f 71 85 70
f 72 85 71
f 79 83 67
f 143 84 144
f 81 112 72
f 83 96 67
f 102 84 98
f 144 102 145
f 101 103 66
f 104 105 77
f 90 107 77
f 107 104 77
f 111 110 85
f 85 110 109
f 105 113 66
f 113 114 101
f 119 120 89
f 154 124 150
f 124 125 100
f 89 120 123
f 71 127 129
f 130 131 149
f 131 155 149
f 134 133 153
f 94 138 139
f 140 141 81
f 142 84 143
f 149 133 130
f 136 128 88
f 88 139 135
f 81 129 140
f 141 146 106
f 148 147 122
f 168 175 173
f 202 195 194
f 196 191 197
f 198 212 218
f 183 222 199
f 224 182 205
f 220 201 214
f 186 210 208
f 217 223 221
f 233 266 267
f 230 241 242
f 234 237 238
f 232 226 236
f 230 236 229
f 236 225 229
f 256 225 257
f 229 231 230
f 230 232 236
f 241 227 247
f 235 236 226
f 232 248 246
f 247 227 249
f 227 252 253
f 235 225 236
f 233 234 226
f 229 225 231
f 239 234 240
f 232 233 226
f 232 230 250
f 235 258 225
f 233 268 234
f 234 228 235
f 234 235 226
f 234 238 240
f 244 271 266
f 245 232 246
f 242 250 230
f 251 244 232
f 245 251 232
f 253 254 227
f 249 254 255
f 258 257 225
f 260 228 239
f 235 259 261
f 263 231 256
f 231 264 227
f 227 265 252
f 234 269 237
f 233 267 270
f 1115 1126 1128
f 1133 1145 1127
f 1106 1130 1149
f 1147 1129 1131
f 1144 1153 1142
f 1134 1151 1137
f 1161 1165 1166
f 1163 1166 1164
f 1157 1155 1165
f 1157 1171 1170
f 1158 1159 1164
f 1178 1199 1200
f 1161 1163 1179
f 1154 1188 1189
f 1163 1164 1162
f 1163 1180 1179
f 1180 1163 1178
f 1174 1165 1181
f 1164 1159 1167
f 1166 1154 1158
f 1202 1167 1195
f 1172 1160 1175
f 1161 1156 1165
f 1182 1181 1165
f 1155 1157 1190
f 1155 1166 1165
f 1167 1196 1195
f 1155 1154 1166
f 1186 1158 1194
f 1184 1156 1168
f 1167 1162 1164
f 1161 1166 1163
f 1160 1157 1165
f 1173 1171 1157
f 1166 1158 1164
f 1169 1168 1156
f 1170 1205 1204
f 1172 1173 1160
f 1174 1175 1160
f 1176 1161 1177
f 1183 1156 1184
f 1183 1182 1156
f 1176 1169 1161
f 1185 1159 1186
f 1185 1191 1159
f 1189 1192 1158
f 1159 1191 1193
f 1192 1194 1158
f 1197 1198 1187
f 1201 1199 1162
f 1157 1203 1206
f 1187 1207 1197
f 1208 1220 1218
f 1213 1210 1211
f 1234 1239 1217
f 1225 1243 1226
f 1232 1209 1240
f 1248 1229 1257
f 1233 1242 1236
f 1247 1251 1252
f 1254 1256 1258
f 1260 1266 1267
f 1264 1262 1263
f 1265 1261 1264
f 1267 1269 1268
f 1294 1292 1293
f 1283 1280 1282
f 1307 1296 1312
f 1311 1297 1298
f 1301 1316 1313
f 1319 1353 1354
f 1324 1328 1325
f 1327 1320 1321
f 1322 1346 1345
f 1326 1348 1349
f 1326 1323 1317
f 1325 1321 1324
f 1331 1325 1335
f 1319 1355 1353
f 1356 1336 1357
f 1328 1335 1325
f 1328 1324 1320
f 1346 1322 1351
f 1348 1322 1344
f 1326 1328 1320
f 1320 1319 1322
f 1321 1341 1339
f 1318 1327 1321
f 1321 1320 1324
f 1326 1317 1328
f 1321 1342 1341
f 1327 1319 1320
f 1320 1322 1326
f 1329 1330 1318
f 1331 1332 1325
f 1334 1333 1317
f 1338 1318 1339
f 1327 1330 1336
f 1317 1333 1337
f 1338 1329 1318
f 1325 1332 1342
f 1322 1352 1351
f 1344 1322 1345
f 1350 1347 1323
f 1349 1350 1323
f 1327 1356 1355
f 1359 1323 1347
f 1360 1361 1340
f 1340 1358 1360
f 1373 1376 1377
f 1394 1380 1403
f 1409 1407 1413
f 1392 1426 1402
f 1419 1410 1412
f 1418 1397 1417
f 1408 1365 1366
f 1425 1423 1421
f 1435 1466 1467
f 1435 1434 1473
f 1437 1436 1432
f 1456 1432 1458
f 1475 1437 1431
f 1427 1458 1432
f 1475 1446 1447
f 1439 1430 1440
f 1474 1433 1449
f 1430 1432 1428
f 1436 1427 1432
f 1473 1476 1435
f 1449 1433 1477
f 1435 1450 1451
f 1452 1444 1453
f 1437 1429 1436
f 1476 1474 1435
f 1475 1429 1437
f 1461 1434 1462
f 1445 1442 1437
f 1438 1430 1439
f 1437 1441 1431
f 1430 1438 1443
f 1441 1444 1431
f 1443 1445 1432
f 1474 1448 1450
f 1452 1454 1431
f 1431 1454 1446
f 1434 1465 1462
f 1456 1457 1428
f 1460 1478 1473
f 1461 1460 1434
f 1457 1463 1428
f 1428 1464 1430
f 1469 1468 1451
f 1434 1470 1455
f 1464 1440 1430
f 1485 1518 1517
f 1504 1523 1519
f 1506 1511 1514
f 1536 1535 1527
f 1536 1527 1530
f 1539 1530 1551
f 1526 1527 1546
f 1526 1552 1530
f 1530 1527 1526
f 1531 1527 1535
f 1535 1536 1583
f 1547 1596 1534
f 1532 1538 1533
f 1533 1542 1599
f 1553 1533 1541
f 1545 1534 1597
f 1542 1533 1538
f 1532 1563 1538
f 1545 1540 1534
f 1597 1534 1550
f 1531 1525 1587
f 1524 1556 1528
f 1543 1524 1528
f 1528 1537 1543
f 1526 1553 1544
f 1567 1545 1568
f 1568 1529 1569
f 1534 1596 1550
f 1540 1570 1571
f 1546 1532 1553
f 1552 1551 1530
f 1558 1524 1559
f 1599 1541 1533
f 1602 1597 1548
f 1600 1554 1599
f 1576 1575 1595
f 1544 1601 1552
f 1547 1578 1579
f 1570 1540 1567
f 1602 1549 1529
f 1529 1545 1602
f 1535 1525 1531
f 1553 1532 1533
f 1601 1544 1541
f 1552 1526 1544
f 1542 1538 1564
f 1589 1531 1586
f 1539 1536 1530
f 1531 1546 1527
f 1546 1531 1532
f 1576 1600 1572
f 1525 1535 1582
f 1601 1537 1552
f 1546 1553 1526
f 1565 1532 1577
f 1544 1553 1541
f 1545 1597 1602
f 1547 1534 1540
f 1594 1598 1596
f 1599 1542 1600
f 1552 1537 1551
f 1551 1537 1528
f 1555 1528 1556
f 1528 1557 1551
f 1560 1603 1594
f 1551 1561 1539
f 1539 1593 1592
f 1562 1538 1563
f 1564 1538 1562
f 1573 1572 1600
f 1574 1595 1575
f 1532 1584 1566
f 1547 1571 1578
f 1574 1604 1595
f 1596 1579 1580
f 1594 1581 1560
f 1584 1585 1566
f 1588 1583 1536
f 1590 1587 1525
f 1591 1588 1536
f 1539 1591 1536
f 1607 1623 1652
f 1625 1626 1630
f 1654 1605 1647
f 1637 1663 1661
f 1669 1667 1655
f 1646 1668 1664
f 1681 1678 1671
f 1680 1679 1674
f 1676 1685 1686
f 1687 1711 1712
f 1683 1675 1690
f 1691 1677 1692
f 1677 1713 1714
f 1680 1719 1720
f 1679 1693 1694
f 1673 1722 1723
f 1673 1671 1678
f 1670 1678 1681
f 1680 1670 1679
f 1715 1713 1677
f 1671 1705 1706
f 1681 1700 1701
f 1702 1672 1707
f 1672 1682 1699
f 1683 1711 1675
f 1724 1674 1725
f 1670 1681 1676
f 1693 1676 1686
f 1682 1672 1677
f 1673 1708 1704
f 1688 1675 1687
f 1694 1696 1679
f 1696 1697 1674
f 1725 1697 1695
f 1691 1698 1682
f 1677 1689 1692
f 1682 1698 1699
f 1676 1701 1685
f 1675 1688 1690
f 1702 1717 1715
f 1703 1673 1704
f 1706 1707 1672
f 1709 1673 1703
f 1709 1710 1671
f 1710 1705 1671
f 1714 1718 1683
f 1683 1718 1716
f 1720 1721 1678
f 1678 1721 1722
f 1726 1727 1695
f 1724 1728 1680
f 1728 1719 1680
f 285 288 287
f 291 294 296
f 301 319 300
f 304 322 320
f 330 302 324
f 312 273 272
f 329 337 317
f 333 335 338
f 339 336 340
f 351 343 352
f 342 346 347
f 342 345 343
f 341 353 354
f 369 364 345
f 353 341 357
f 352 343 362
f 342 348 345
f 342 351 355
f 341 355 357
f 360 380 379
f 354 360 341
f 361 344 359
f 344 362 343
f 356 374 375
f 363 345 364
f 365 343 366
f 345 363 366
f 359 367 358
f 370 368 344
f 343 365 370
f 350 377 374
f 358 371 349
f 356 375 376
f 378 346 341
f 389 385 394
f 396 401 435
f 415 416 419
f 434 426 384
f 381 442 436
f 438 440 441
f 451 473 474
f 447 443 445
f 444 485 486
f 446 451 474
f 452 445 448
f 453 446 443
f 485 458 487
f 476 448 477
f 457 446 453
f 497 457 498
f 451 446 457
f 452 456 450
f 454 456 463
f 452 449 456
f 478 499 500
f 449 452 448
f 443 479 480
f 453 443 447
f 447 491 490
f 444 469 470
f 447 445 452
f 443 446 475
f 445 482 483
f 455 492 493
f 488 453 494
f 456 449 466
f 458 444 459
f 455 450 495
f 452 450 455
f 469 454 467
f 454 450 456
f 452 455 447
f 481 482 445
f 459 444 460
f 462 463 456
f 465 466 449
f 449 464 468
f 468 465 449
f 471 462 456
f 470 460 444
f 480 481 443
f 448 483 484
f 448 484 477
f 488 503 502
f 490 489 453
f 489 494 453
f 496 455 493
f 486 495 450
f 455 496 491
f 501 499 451
f 451 497 501
f 502 498 457
f 504 506 515
f 531 525 534
f 543 519 520
f 542 533 541
f 588 553 552
f 590 589 546
f 558 552 561
f 548 549 576
f 546 565 556
f 566 546 555
f 552 547 550
f 578 554 579
f 554 547 553
f 553 547 552
f 552 550 567
f 549 584 585
f 587 579 554
f 560 590 566
f 551 565 546
f 546 589 551
f 549 569 586
f 555 546 556
f 558 557 588
f 560 559 549
f 563 591 588
f 557 563 588
f 559 568 549
f 571 568 572
f 570 549 571
f 570 569 549
f 573 550 574
f 577 587 592
f 547 578 580
f 550 573 581
f 582 587 577
f 547 580 574
f 562 581 583
f 615 602 598
f 618 604 613
f 622 623 633
f 609 635 625
f 627 637 624
f 626 631 639
f 628 632 634
f 641 657 658
f 644 645 642
f 641 646 647
f 644 640 648
f 657 640 661
f 661 640 659
f 640 641 651
f 642 645 649
f 641 647 651
f 643 649 652
f 646 653 654
f 655 650 654
f 658 653 641
f 692 670 689
f 698 707 694
f 671 702 701
f 710 691 693
f 700 713 709
f 712 714 699
f 745 722 746
f 716 735 736
f 718 727 728
f 766 762 721
f 747 720 745
f 716 717 723
f 718 726 724
f 718 724 762
f 719 749 750
f 718 733 727
f 718 762 734
f 723 717 765
f 720 764 716
f 716 764 717
f 723 737 735
f 765 767 723
f 725 720 763
f 720 725 764
f 726 718 715
f 731 715 729
f 734 751 752
f 766 719 750
f 723 767 738
f 761 742 743
f 730 729 715
f 768 732 761
f 742 732 744
f 718 728 730
f 738 767 739
f 720 736 741
f 767 743 739
f 747 748 763
f 763 748 769
f 722 754 746
f 762 753 751
f 757 756 720
f 756 758 722
f 759 722 758
f 754 760 755
f 800 779 794
f 793 787 786
f 776 773 777
f 807 804 805
f 813 814 815
f 809 817 818
f 814 813 818
f 809 827 828
f 829 839 840
f 810 830 831
f 812 819 820
f 821 812 820
f 813 832 833
f 817 809 821
f 832 811 836
f 827 809 834
f 841 815 842
f 822 810 823
f 824 825 816
f 812 822 826
f 819 826 824
f 813 834 809
f 828 835 810
f 829 836 811
f 835 830 810
f 837 810 831
f 810 838 823
f 811 841 839
f 877 895 892
f 910 862 863
f 870 856 866
f 905 901 896
f 871 907 904
f 880 918 909
f 903 887 914
f 911 912 913
f 893 917 916
f 922 933 934
f 930 935 936
f 932 950 951
f 925 924 953
f 922 937 938
f 965 924 966
f 981 927 979
f 940 973 972
f 976 974 919
f 941 931 942
f 928 919 923
f 930 928 941
f 980 929 921
f 919 928 930
f 980 967 968
f 921 967 980
f 926 960 930
f 937 920 946
f 980 924 925
f 928 929 931
f 932 949 981
f 932 981 979
f 923 921 928
f 928 921 929
f 926 936 939
f 934 943 982
f 944 933 922
f 939 945 926
f 945 940 926
f 938 944 922
f 982 943 983
f 949 948 922
f 922 954 920
f 932 984 950
f 954 955 920
f 920 958 957
f 956 946 920
f 930 959 919
f 919 959 961
f 926 962 964
f 968 971 924
f 921 970 969
f 924 971 966
f 974 975 923
f 921 978 970
f 975 977 923
f 990 1012 993
f 1014 1030 1036
f 1039 1005 1024
f 995 999 1001
f 1042 1020 1041
f 1003 1047 1031
f 1010 1009 1011
f 1044 1046 1050
f 1054 1083 1084
f 1054 1085 1083
f 1057 1056 1084
f 1054 1088 1085
f 1052 1070 1066
f 1059 1052 1061
f 1088 1076 1091
f 1059 1060 1052
f 1090 1060 1058
f 1061 1052 1062
f 1054 1063 1077
f 1066 1067 1053
f 1053 1067 1068
f 1081 1079 1065
f 1053 1072 1062
f 1074 1073 1053
f 1065 1078 1064
f 1069 1081 1071
f 1075 1080 1069
f 1094 1086 1095
f 1089 1070 1052
f 1092 1093 1064
f 1092 1064 1078
f 1089 1052 1090
f 1057 1086 1094
f 1082 1080 1075
f 1080 1081 1069
f 1079 1078 1065
f 1074 1053 1068
f 1073 1072 1053
f 1053 1062 1052
f 1081 1065 1071
f 1055 1063 1054
f 1054 1077 1076
f 1052 1060 1090
f 1090 1058 1087
f 1054 1076 1088
f 1052 1066 1053
f 1057 1084 1086
f 1084 1056 1055
f 1054 1084 1055
f 1050 1049 1048
f 1044 1050 1048
f 1035 1045 1038
f 1038 1010 1037
f 1038 1045 1010
f 1010 1045 1009
f 1045 1027 1008
f 1045 1008 1009
f 1051 1047 1032
f 1047 1003 1032
f 1016 1015 1040
f 1015 1017 1040
f 1022 1019 1018
f 1016 1022 1018
f 1016 1040 1022
f 1017 1042 1040
f 1042 1017 1020
f 1043 1000 1021
f 1043 996 1000
f 1043 999 996
f 996 999 997
f 997 999 998
f 998 994 1004
f 1043 1033 999
f 1004 994 1029
f 998 999 994
f 1029 994 1028
f 994 999 995
f 1039 1024 1034
f 1034 1024 1006
f 1039 1013 1005
f 1006 1024 1023
f 1007 1030 1014
f 985 990 993
f 985 988 990
f 986 988 985
f 987 988 986
f 1012 990 992
f 990 989 991
f 990 991 992
f 1012 992 1026
f 1012 1026 1025
f 992 1002 1026
f 977 978 923
f 923 978 921
f 974 923 919
f 919 961 947
f 960 959 930
f 956 920 957
f 955 958 920
f 979 984 932
f 948 954 922
f 949 922 981
f 934 982 981
f 930 936 926
f 951 949 932
f 922 920 937
f 964 960 926
f 969 967 921
f 980 968 924
f 930 941 935
f 928 931 941
f 976 919 947
f 926 940 962
f 962 940 963
f 963 940 972
f 953 924 965
f 925 953 952
f 922 934 981
f 890 915 891
f 891 915 917
f 891 917 893
f 903 914 906
f 906 914 900
f 908 880 909
f 918 880 882
f 880 885 882
f 918 884 894
f 882 884 918
f 882 883 884
f 882 881 883
f 874 907 872
f 874 872 876
f 904 902 871
f 907 871 872
f 874 875 907
f 867 897 898
f 896 867 898
f 905 878 901
f 905 896 898
f 870 848 847
f 870 854 848
f 870 846 854
f 854 845 843
f 843 853 844
f 845 851 853
f 853 851 852
f 845 853 843
f 889 888 850
f 889 846 870
f 854 846 845
f 849 846 889
f 850 855 849
f 850 849 889
f 870 847 856
f 899 868 865
f 899 858 910
f 899 865 864
f 899 864 858
f 910 858 859
f 910 859 861
f 910 861 860
f 910 863 879
f 910 860 862
f 869 886 877
f 877 857 873
f 877 886 895
f 877 892 857
f 837 838 810
f 828 810 812
f 833 834 813
f 812 826 819
f 819 824 816
f 810 822 812
f 811 815 841
f 813 811 832
f 809 812 821
f 811 839 829
f 809 828 812
f 809 818 813
f 813 815 811
f 803 795 807
f 807 795 797
f 807 797 804
f 806 798 771
f 806 771 770
f 806 770 774
f 806 774 773
f 806 772 801
f 806 775 772
f 806 773 775
f 775 773 776
f 784 783 791
f 791 783 790
f 793 790 802
f 802 790 808
f 808 790 789
f 808 789 788
f 808 788 792
f 808 785 796
f 808 792 785
f 790 786 791
f 790 793 786
f 800 799 778
f 799 781 780
f 799 780 782
f 799 782 778
f 800 778 779
f 759 760 722
f 722 760 754
f 756 722 720
f 720 741 740
f 757 720 740
f 766 753 762
f 716 736 720
f 761 732 742
f 730 715 718
f 761 743 767
f 723 738 737
f 766 750 753
f 762 751 734
f 718 734 733
f 763 720 747
f 723 735 716
f 720 722 745
f 711 712 695
f 695 712 697
f 697 712 699
f 700 709 708
f 682 710 706
f 682 706 684
f 684 686 685
f 684 687 686
f 684 706 687
f 687 706 690
f 690 706 688
f 688 706 705
f 682 691 710
f 682 683 691
f 672 701 677
f 702 671 679
f 671 673 675
f 671 675 679
f 702 679 678
f 702 678 704
f 675 673 674
f 671 701 672
f 676 707 696
f 696 707 698
f 676 703 707
f 664 663 680
f 664 680 666
f 666 680 665
f 665 680 667
f 680 668 667
f 680 681 668
f 680 663 692
f 663 669 692
f 669 670 692
f 662 653 658
f 655 654 656
f 641 653 646
f 646 654 650
f 642 649 643
f 640 651 648
f 640 644 659
f 659 644 660
f 660 644 642
f 640 657 641
f 630 636 638
f 630 628 636
f 636 628 634
f 627 620 637
f 627 594 621
f 627 593 594
f 627 624 593
f 609 608 635
f 635 608 619
f 608 612 619
f 612 610 619
f 610 611 619
f 622 633 629
f 607 605 617
f 604 618 617
f 617 605 604
f 606 615 601
f 601 615 597
f 597 615 598
f 602 616 599
f 599 616 614
f 602 615 616
f 599 614 595
f 595 614 596
f 614 603 600
f 614 600 596
f 547 574 550
f 550 581 567
f 567 581 562
f 549 568 571
f 560 549 548
f 558 588 552
f 549 586 584
f 564 565 551
f 548 590 560
f 582 579 587
f 549 585 576
f 552 567 561
f 547 554 578
f 590 546 566
f 548 576 575
f 540 542 544
f 540 533 542
f 543 535 518
f 543 518 519
f 543 520 538
f 524 525 526
f 525 531 526
f 534 522 531
f 531 522 528
f 523 529 527
f 522 523 527
f 534 545 530
f 534 530 522
f 528 522 527
f 530 545 539
f 521 517 536
f 536 517 508
f 536 507 537
f 536 508 509
f 536 509 515
f 536 515 507
f 515 506 507
f 504 505 514
f 537 511 532
f 504 514 506
f 537 510 511
f 514 513 512
f 511 510 516
f 514 512 506
f 537 507 510
f 455 491 447
f 486 450 454
f 490 453 447
f 488 502 457
f 445 483 448
f 472 460 470
f 459 460 461
f 481 445 443
f 444 454 469
f 455 495 492
f 456 466 471
f 457 453 488
f 443 475 479
f 451 499 473
f 473 499 478
f 454 463 467
f 451 457 497
f 449 448 464
f 464 448 476
f 444 458 485
f 446 474 475
f 444 486 454
f 421 440 425
f 438 423 425
f 421 422 427
f 423 438 437
f 421 427 440
f 425 440 438
f 439 382 430
f 439 381 382
f 439 442 381
f 433 426 434
f 434 383 431
f 433 424 426
f 434 384 383
f 410 409 419
f 416 420 417
f 416 415 420
f 419 409 415
f 415 409 411
f 415 411 429
f 415 429 414
f 414 429 413
f 413 429 418
f 418 429 412
f 429 428 412
f 397 435 398
f 435 405 398
f 432 406 435
f 432 400 406
f 400 407 406
f 435 406 405
f 398 405 402
f 402 405 404
f 402 404 403
f 397 396 435
f 408 386 399
f 385 389 388
f 385 388 387
f 388 391 387
f 386 387 399
f 408 395 393
f 408 393 392
f 408 392 386
f 386 392 390
f 387 386 385
f 378 341 379
f 356 373 372
f 356 376 373
f 367 371 358
f 371 350 349
f 371 377 350
f 343 370 344
f 368 367 344
f 344 367 359
f 345 366 343
f 350 374 356
f 361 362 344
f 360 379 341
f 342 355 341
f 347 348 342
f 369 345 348
f 341 346 342
f 342 343 351
f 310 332 335
f 310 333 331
f 310 335 333
f 334 337 327
f 327 337 329
f 334 315 337
f 329 317 321
f 312 328 325
f 312 325 273
f 325 274 273
f 325 316 274
f 312 272 309
f 303 302 330
f 303 330 323
f 324 326 330
f 330 326 307
f 308 322 304
f 318 319 301
f 290 295 306
f 290 306 289
f 289 306 292
f 292 306 291
f 291 306 293
f 306 305 297
f 306 297 293
f 291 293 294
f 275 278 284
f 275 277 278
f 276 277 275
f 276 282 314
f 282 299 298
f 282 298 314
f 276 314 277
f 277 314 281
f 281 313 283
f 283 313 279
f 281 314 313
f 279 313 280
f 280 313 286
f 286 313 311
f 278 285 284
f 278 288 285
f 1678 1722 1673
f 1720 1678 1670
f 1709 1671 1673
f 1706 1672 1681
f 1702 1715 1672
f 1681 1701 1676
f 1683 1689 1677
f 1674 1697 1725
f 1725 1695 1727
f 1696 1674 1679
f 1684 1708 1673
f 1670 1676 1693
f 1680 1674 1724
f 1716 1711 1683
f 1672 1699 1700
f 1672 1700 1681
f 1671 1706 1681
f 1715 1677 1672
f 1673 1723 1684
f 1670 1693 1679
f 1680 1720 1670
f 1677 1714 1683
f 1682 1677 1691
f 1683 1690 1689
f 1675 1711 1687
f 1644 1643 1645
f 1668 1643 1653
f 1668 1648 1666
f 1668 1653 1648
f 1666 1651 1665
f 1666 1648 1651
f 1651 1648 1649
f 1643 1668 1645
f 1645 1668 1646
f 1658 1633 1659
f 1659 1633 1636
f 1638 1636 1633
f 1638 1642 1636
f 1659 1636 1637
f 1636 1635 1637
f 1659 1637 1661
f 1660 1662 1656
f 1656 1662 1654
f 1654 1662 1657
f 1654 1657 1605
f 1628 1627 1632
f 1628 1631 1629
f 1631 1640 1629
f 1629 1640 1624
f 1624 1640 1641
f 1628 1632 1631
f 1640 1631 1630
f 1631 1625 1630
f 1607 1622 1623
f 1607 1606 1622
f 1623 1621 1620
f 1622 1621 1623
f 1623 1620 1619
f 1639 1619 1608
f 1619 1612 1608
f 1612 1613 1610
f 1612 1610 1611
f 1639 1608 1634
f 1612 1611 1608
f 1608 1611 1609
f 1607 1652 1614
f 1614 1617 1615
f 1614 1618 1617
f 1614 1616 1618
f 1614 1652 1616
f 1619 1639 1623
f 1616 1652 1650
f 1592 1591 1539
f 1580 1581 1594
f 1596 1580 1594
f 1540 1571 1547
f 1589 1584 1532
f 1532 1566 1577
f 1573 1600 1542
f 1561 1593 1539
f 1557 1561 1551
f 1555 1557 1528
f 1525 1582 1590
f 1532 1531 1589
f 1542 1564 1573
f 1547 1579 1596
f 1576 1595 1600
f 1545 1529 1568
f 1540 1545 1567
f 1558 1556 1524
f 1531 1587 1586
f 1565 1563 1532
f 1535 1583 1582
f 1506 1510 1511
f 1506 1508 1510
f 1507 1508 1506
f 1520 1508 1507
f 1516 1521 1522
f 1520 1507 1522
f 1510 1508 1513
f 1516 1522 1515
f 1515 1522 1507
f 1515 1507 1512
f 1487 1489 1486
f 1486 1495 1488
f 1486 1489 1495
f 1523 1489 1501
f 1488 1494 1497
f 1490 1523 1501
f 1490 1509 1523
f 1497 1494 1496
f 1498 1491 1493
f 1493 1491 1492
f 1498 1499 1491
f 1491 1499 1500
f 1494 1491 1500
f 1496 1494 1500
f 1488 1495 1494
f 1489 1523 1495
f 1495 1523 1502
f 1502 1523 1503
f 1503 1523 1504
f 1505 1480 1484
f 1484 1482 1483
f 1484 1480 1482
f 1505 1479 1480
f 1505 1518 1481
f 1505 1481 1479
f 1481 1518 1485
f 1471 1464 1472
f 1471 1440 1464
f 1467 1470 1434
f 1463 1464 1428
f 1460 1473 1434
f 1455 1465 1434
f 1474 1450 1435
f 1430 1443 1432
f 1442 1441 1437
f 1445 1437 1432
f 1431 1444 1452
f 1451 1468 1466
f 1435 1451 1466
f 1474 1449 1448
f 1431 1446 1475
f 1459 1458 1427
f 1428 1432 1456
f 1435 1467 1434
f 1425 1421 1422
f 1401 1424 1364
f 1362 1424 1367
f 1367 1406 1369
f 1367 1424 1406
f 1406 1408 1369
f 1369 1408 1366
f 1424 1363 1364
f 1365 1408 1368
f 1424 1362 1363
f 1368 1408 1405
f 1396 1418 1420
f 1396 1395 1418
f 1418 1395 1397
f 1400 1415 1379
f 1379 1415 1414
f 1400 1419 1412
f 1400 1412 1415
f 1384 1388 1416
f 1384 1386 1387
f 1384 1387 1388
f 1416 1388 1389
f 1416 1389 1390
f 1416 1390 1393
f 1384 1416 1385
f 1385 1392 1391
f 1385 1416 1426
f 1385 1426 1392
f 1409 1413 1411
f 1383 1380 1394
f 1394 1403 1404
f 1371 1376 1373
f 1377 1381 1373
f 1373 1374 1372
f 1373 1375 1374
f 1373 1381 1375
f 1375 1399 1398
f 1375 1381 1399
f 1381 1382 1399
f 1371 1370 1378
f 1371 1378 1376
f 1323 1340 1334
f 1323 1358 1340
f 1358 1323 1359
f 1327 1355 1319
f 1343 1352 1319
f 1319 1352 1322
f 1325 1342 1321
f 1317 1337 1328
f 1318 1330 1327
f 1334 1317 1323
f 1321 1339 1318
f 1326 1322 1348
f 1337 1335 1328
f 1327 1336 1356
f 1326 1349 1323
f 1319 1354 1343
f 1315 1316 1301
f 1301 1313 1303
f 1309 1295 1311
f 1311 1298 1310
f 1311 1295 1297
f 1284 1296 1307
f 1284 1307 1306
f 1300 1277 1308
f 1271 1272 1308
f 1270 1273 1272
f 1308 1272 1276
f 1308 1276 1305
f 1276 1278 1305
f 1278 1274 1305
f 1305 1274 1275
f 1305 1275 1281
f 1305 1281 1304
f 1300 1299 1277
f 1273 1280 1283
f 1308 1277 1271
f 1272 1271 1270
f 1273 1270 1279
f 1273 1279 1280
f 1286 1287 1285
f 1287 1294 1285
f 1285 1294 1289
f 1289 1294 1290
f 1294 1314 1290
f 1290 1314 1288
f 1314 1302 1288
f 1290 1288 1291
f 1294 1287 1292
f 1267 1268 1260
f 1261 1262 1264
f 1245 1244 1247
f 1247 1252 1249
f 1247 1244 1251
f 1250 1253 1259
f 1259 1242 1255
f 1259 1253 1242
f 1255 1242 1233
f 1224 1229 1248
f 1248 1257 1231
f 1246 1223 1232
f 1246 1232 1238
f 1232 1240 1238
f 1232 1230 1209
f 1219 1241 1243
f 1219 1243 1225
f 1237 1239 1234
f 1234 1216 1235
f 1234 1217 1216
f 1212 1228 1227
f 1212 1211 1228
f 1212 1213 1211
f 1208 1221 1220
f 1220 1221 1222
f 1220 1222 1214
f 1214 1222 1215
f 1157 1187 1190
f 1157 1206 1187
f 1187 1206 1207
f 1159 1193 1167
f 1189 1158 1154
f 1169 1156 1161
f 1173 1157 1160
f 1159 1158 1186
f 1193 1196 1167
f 1155 1190 1188
f 1182 1165 1156
f 1162 1202 1201
f 1162 1167 1202
f 1160 1165 1174
f 1155 1188 1154
f 1161 1179 1177
f 1162 1199 1163
f 1163 1199 1178
f 1157 1170 1203
f 1203 1170 1204
f 1134 1135 1152
f 1152 1135 1150
f 1134 1152 1151
f 1138 1144 1125
f 1125 1144 1141
f 1138 1153 1144
f 1146 1129 1148
f 1148 1129 1147
f 1108 1104 1107
f 1108 1106 1104
f 1104 1106 1149
f 1097 1104 1149
f 1143 1097 1149
f 1112 1096 1097
f 1143 1112 1097
f 1143 1111 1112
f 1143 1110 1111
f 1143 1109 1110
f 1143 1139 1109
f 1098 1101 1102
f 1102 1100 1103
f 1102 1101 1100
f 1109 1098 1102
f 1109 1139 1098
f 1139 1136 1098
f 1101 1098 1099
f 1104 1105 1107
f 1132 1123 1133
f 1133 1123 1145
f 1123 1140 1145
f 1124 1121 1128
f 1128 1121 1119
f 1128 1119 1113
f 1128 1113 1115
f 1113 1114 1115
f 1114 1122 1115
f 1115 1122 1118
f 1122 1116 1118
f 1116 1122 1120
f 1116 1120 1117
f 268 269 234
f 264 265 227
f 262 264 231
f 262 231 263
f 228 259 235
f 259 228 260
f 227 254 249
f 244 233 232
f 244 266 233
f 244 243 271
f 270 268 233
f 261 258 235
f 232 250 248
f 228 234 239
f 231 227 241
f 231 225 256
f 231 241 230
f 213 215 219
f 219 215 217
f 217 215 223
f 187 188 190
f 211 207 188
f 211 188 187
f 186 211 187
f 186 208 211
f 192 200 209
f 209 201 220
f 209 200 201
f 216 206 224
f 224 206 184
f 224 184 182
f 178 181 183
f 176 177 178
f 176 178 183
f 181 222 183
f 179 222 181
f 179 204 222
f 180 158 198
f 212 156 189
f 212 157 156
f 212 158 157
f 157 158 159
f 158 212 198
f 193 191 196
f 172 195 202
f 171 195 172
f 172 202 174
f 202 203 174
f 171 185 195
f 161 160 163
f 161 163 169
f 173 162 163
f 169 170 164
f 169 163 170
f 169 164 167
f 167 164 165
f 163 160 173
f 160 166 173
f 166 168 173
f 148 122 96
f 96 122 67
f 141 106 81
f 71 129 81
f 94 139 88
f 153 133 149
f 134 153 84
f 124 100 150
f 113 101 66
f 105 66 77
f 111 85 72
f 108 107 90
f 84 102 144
f 97 96 83
f 106 112 81
f 89 123 86
f 103 97 66
f 82 74 137
f 90 109 108
f 121 119 79
f 86 118 80
f 82 137 94
f 88 128 70
f 100 99 150
f 84 75 98
f 67 116 79
f 70 127 71
f 32 31 34
f 34 39 60
f 34 60 45
f 60 46 45
f 46 60 59
f 31 39 34
f 33 39 31
f 33 41 38
f 33 38 39
f 40 44 38
f 44 43 35
f 43 42 35
f 44 35 38
f 37 36 35
f 37 35 42
f 40 38 41
f 60 39 47
f 60 47 48
f 60 48 49
f 61 16 51
f 61 56 18
f 61 18 10
f 51 16 11
f 61 10 9
f 11 16 17
f 61 15 16
f 61 9 15
f 15 9 12
f 15 12 14
f 21 24 26
f 21 20 24
f 20 27 57
f 65 27 53
f 20 25 24
f 20 28 25
f 20 57 28
f 29 23 22
f 28 29 22
f 28 57 29
f 19 52 6
f 52 50 7
f 52 7 3
f 52 3 6
f 3 4 6
f 4 5 6
f 5 1 6
f 5 30 1
f 30 55 1
f 1 55 54
f 6 1 2
