# Decoded from sources/assets/lusion.dev/assets/models/about/rock_0_low.buf
# Position/index data decoded from public .buf header and payload.
v -0.0279965 -0.1394950 -0.0412102
v 0.0205139 -0.1117713 0.1028442
v -0.0336018 -0.1626541 0.0218500
v 0.1168917 0.0758583 -0.0450240
v 0.1060613 0.1532204 -0.0205492
v 0.0617436 -0.1023056 0.0388270
v -0.0023649 0.1715754 -0.0388776
v 0.0015064 0.0026578 0.1334220
v -0.0636933 0.0798873 -0.0287107
v -0.1135530 0.0303866 -0.0766983
v -0.0575989 0.0442739 0.0914172
v -0.1215807 -0.0118977 -0.0020428
v -0.0200638 0.0497258 -0.0823157
v 0.0528421 -0.1162032 -0.0437880
v 0.0233302 0.1107730 -0.0450336
v 0.1535801 0.0774393 -0.0931655
v -0.0525596 0.0462425 0.1441277
v 0.0714828 0.0868131 -0.0068089
v 0.0636000 -0.0822932 0.0637058
v -0.0548778 0.0646893 -0.0692198
v -0.0006805 0.0499298 -0.1484201
v -0.1008526 0.0318248 0.0171657
v 0.1075509 0.0263167 -0.1250275
v -0.0774622 -0.0431812 0.1524142
v -0.0674966 -0.0986897 0.0017421
v 0.0041868 -0.1194519 0.0202148
v -0.1133401 -0.0903971 0.0862760
v 0.0351884 0.0544484 -0.0929972
v 0.0864833 0.0694272 0.0429101
v -0.0782455 -0.0430078 -0.0231463
v -0.0097451 -0.0942425 0.0570689
v -0.0544884 0.0348542 0.0272557
v -0.0677185 0.0203140 -0.0588124
v 0.0253903 -0.0480823 -0.0307450
v 0.0616984 -0.0162990 0.0519180
v -0.0815462 -0.0926666 0.0006071
v -0.0942375 -0.0607303 0.0365377
v 0.0882355 0.1241146 -0.0024372
v 0.1280436 0.0853239 -0.0573263
v 0.0397976 0.0945498 0.0842513
v -0.1055298 0.0250468 -0.0180339
v 0.0333591 -0.0151719 0.1319167
v 0.0627307 -0.0468124 0.0945481
v 0.0673173 -0.0015752 -0.0547629
v 0.0219130 -0.0507751 -0.0971381
v -0.1089935 -0.0594706 -0.0557055
v -0.0027588 -0.1043508 0.0039544
v 0.0029100 0.0632970 -0.0102716
v -0.0830223 0.0128578 -0.0669065
v 0.0375473 0.1337996 -0.1165486
v -0.0189908 -0.1396684 -0.0414747
v 0.0724790 0.1369973 -0.0406571
v -0.0073952 -0.0969557 0.0633691
v -0.0621720 -0.1498939 0.0254426
v -0.0722870 -0.0246222 0.0457092
v 0.0271063 0.0201865 0.1054894
v -0.0491275 0.0658266 0.0362780
v -0.0446269 0.0112360 -0.1231422
v -0.0743788 -0.0425233 0.1144973
v -0.0593784 -0.1097466 -0.0393249
v 0.0515245 0.0290503 0.1201338
v 0.0075826 -0.0861845 -0.0628234
v 0.0274323 -0.0140601 -0.1196169
v 0.0854238 0.0816417 0.0180458
v 0.1059708 0.0519749 -0.0139700
v 0.0949230 0.0045091 0.0290977
v 0.0609015 0.0342320 0.0279050
v 0.0124635 0.0486548 0.0777587
v -0.0409187 0.0599462 0.0618397
v -0.0704306 -0.0483526 0.0575161
v -0.0102975 -0.0576244 -0.1070597
v 0.0552373 -0.0134634 -0.1098203
v 0.0033175 0.0520820 -0.0475970
v -0.0092742 -0.0530803 0.0389569
v -0.0416250 -0.0324456 0.0792159
v -0.0488468 -0.0715322 -0.0594424
v 0.0898882 0.0756441 -0.0026873
v -0.0493811 0.0213544 -0.0944448
v 0.0851884 -0.0224598 0.0478445
v -0.0206842 0.0417443 0.0352440
v -0.0284357 -0.0241428 0.0787590
v 0.0548886 0.0919896 0.0010351
v -0.0133265 -0.0869750 -0.0735290
v 0.0450543 0.0475583 0.0710929
v -0.0544612 -0.0009071 -0.0524111
v 0.0230042 -0.0928553 0.0168098
v -0.0465739 -0.0914222 -0.0138017
v -0.1017898 -0.0317724 -0.0048900
v 0.0343688 -0.0945332 -0.0719323
v 0.0920615 -0.0448999 0.0127315
v -0.0621991 0.0582224 -0.0870817
v -0.0041624 0.1040971 0.0474261
v 0.0141932 0.1084117 -0.0001383
v -0.0144494 0.0589262 0.0870359
v 0.0343960 0.0138931 0.0819091
v 0.0645010 0.0664539 0.0333636
v 0.0252137 -0.1120773 0.0256061
v 0.0278443 -0.0842771 0.0698425
v -0.0413986 -0.0192213 0.1034694
v -0.1431464 0.0335588 0.0891280
v 0.0790487 0.0593444 -0.1627664
v -0.0175147 -0.1022036 0.0013814
v 0.0842058 0.0795915 -0.0977969
v 0.0755171 0.0513374 -0.0214870
v -0.0927841 0.0506744 0.0762485
v -0.0223458 -0.0608425 0.0639606
v -0.1010292 0.0065185 0.0449926
v 0.0343009 -0.0622297 0.0235285
v 0.0031001 -0.0650500 -0.0547340
v 0.0913869 -0.0052626 0.0368888
v 0.0551965 -0.0086796 0.0779029
v -0.0636028 0.0206251 -0.0560999
v 0.0410292 -0.0006419 -0.1122202
v -0.0470674 0.0827943 0.0390098
v 0.1043544 0.0453857 -0.0580333
v -0.0131364 0.0107872 -0.0537577
v 0.0494463 -0.0373468 0.0350661
v 0.0069714 0.0856656 -0.0042888
v -0.0263982 -0.0488575 0.0146793
v 0.0233030 0.1080700 0.0664759
v -0.1021294 0.0394442 0.0618590
v -0.0941379 -0.0318234 -0.0863266
v 0.1011396 -0.0590728 -0.0866248
v 0.0715553 0.0565139 0.0805769
v 0.0402187 -0.0543757 0.0787157
v 0.0324174 -0.0635251 -0.1197901
v -0.0221376 -0.0017435 -0.1100463
v 0.1078679 0.0472829 -0.0224826
v 0.0651938 0.0889551 -0.0181157
v -0.0925759 -0.0388207 0.0774172
v -0.1069968 -0.0569716 -0.0104400
v 0.1302260 -0.0687169 -0.0265224
v 0.1153206 -0.0681151 0.0180218
v 0.0488939 0.0985789 -0.0686812
v -0.0577846 0.0751494 0.0193010
v -0.0807086 0.1055302 -0.0412342
v 0.0247519 0.0706869 0.0112742
v -0.0719248 -0.0514330 0.1147185
v 0.0058032 -0.0692269 0.1010696
v -0.0405746 -0.0671869 -0.0382139
v -0.0506353 -0.0634129 0.0353354
v -0.0351186 0.0460946 -0.0707299
v 0.0066409 -0.0751124 0.0489266
v 0.0856547 -0.0054513 0.0008524
v -0.0825650 0.1029904 0.0055463
v 0.0097741 0.0566516 0.0211526
v 0.0825034 -0.0331545 -0.0437158
v 0.0310817 -0.0173700 -0.0742071
v -0.1108544 0.0195184 0.0134481
f 4 5 8
f 2 12 3
f 5 11 8
f 9 10 12
f 1 3 12
f 15 9 7
f 13 9 15
f 2 3 6
f 14 6 3
f 15 5 4
f 4 1 13
f 15 4 13
f 15 7 5
f 4 6 14
f 4 14 1
f 1 14 3
f 13 10 9
f 10 13 1
f 20 21 25
f 17 24 19
f 22 27 24
f 27 25 26
f 19 18 17
f 21 26 25
f 23 16 19
f 24 26 19
f 20 16 21
f 21 16 23
f 18 22 17
f 16 20 18
f 20 22 18
f 102 97 98
f 101 102 100
f 101 97 102
f 103 105 104
f 99 98 104
f 105 99 104
f 105 103 100
f 100 99 105
f 101 100 103
f 97 104 98
f 104 97 101
f 112 106 107
f 109 108 106
f 109 112 113
f 114 110 115
f 109 115 110
f 112 114 115
f 114 112 107
f 106 108 111
f 110 111 108
f 111 114 106
f 114 107 106
f 117 119 116
f 116 118 117
f 118 116 119
f 117 118 119
f 125 123 128
f 128 127 129
f 121 127 122
f 126 122 127
f 129 124 128
f 130 123 125
f 120 121 130
f 126 131 122
f 121 131 130
f 130 126 123
f 126 130 131
f 125 120 130
f 121 122 131
f 124 120 125
f 137 139 133
f 132 137 133
f 136 137 134
f 135 138 139
f 141 136 140
f 138 135 141
f 140 142 132
f 140 132 141
f 136 134 142
f 140 136 142
f 142 134 132
f 141 135 136
f 139 132 133
f 139 138 141
f 132 139 141
f 148 143 149
f 144 147 148
f 145 148 149
f 147 143 148
f 144 143 147
f 143 145 149
f 145 143 146
f 144 146 143
f 34 28 29
f 30 31 32
f 33 34 30
f 34 31 30
f 35 31 34
f 29 32 31
f 29 28 32
f 32 33 30
f 28 33 32
f 29 31 35
f 43 40 42
f 40 37 42
f 44 43 47
f 37 47 43
f 46 45 47
f 41 48 49
f 48 39 49
f 39 44 49
f 36 41 46
f 41 49 46
f 41 36 37
f 45 49 44
f 48 38 39
f 40 38 48
f 41 40 48
f 45 46 49
f 55 50 51
f 53 56 55
f 52 50 55
f 52 56 53
f 52 53 51
f 51 50 52
f 53 54 51
f 57 64 58
f 59 60 62
f 63 65 66
f 58 63 62
f 58 64 65
f 64 66 65
f 57 61 64
f 57 59 61
f 60 57 58
f 60 59 57
f 70 69 73
f 67 69 68
f 73 72 71
f 67 72 73
f 68 69 70
f 68 70 74
f 74 72 67
f 74 71 72
f 70 71 74
f 67 68 74
f 79 75 76
f 78 79 76
f 80 75 79
f 78 80 77
f 75 80 78
f 76 75 78
f 81 85 83
f 83 85 82
f 84 85 81
f 81 83 84
f 83 82 84
f 92 88 94
f 91 89 87
f 90 89 91
f 86 90 95
f 92 93 91
f 95 94 88
f 96 95 90
f 92 96 93
f 96 94 95
f 90 86 89
f 87 89 86
f 92 94 96
f 95 87 86
f 95 88 87
f 90 91 96
f 96 91 93
f 91 87 88
f 91 88 92
f 82 85 84
f 80 79 77
f 77 79 78
f 73 69 67
f 70 73 71
f 61 66 64
f 58 65 63
f 58 62 60
f 63 66 62
f 59 66 61
f 59 62 66
f 52 55 56
f 53 55 54
f 55 51 54
f 46 47 36
f 36 47 37
f 37 43 42
f 44 39 43
f 44 47 45
f 41 37 40
f 38 43 39
f 38 40 43
f 28 34 33
f 34 29 35
f 144 148 146
f 146 148 145
f 135 139 137
f 135 137 136
f 134 137 132
f 120 124 129
f 129 121 120
f 129 127 121
f 126 127 123
f 123 127 128
f 125 128 124
f 112 115 113
f 113 115 109
f 109 110 108
f 111 110 114
f 109 106 112
f 104 101 103
f 102 99 100
f 102 98 99
f 27 26 24
f 23 19 26
f 23 26 21
f 16 18 19
f 22 24 17
f 25 27 22
f 20 25 22
f 1 12 10
f 9 12 11
f 9 11 7
f 7 11 5
f 11 2 8
f 11 12 2
f 8 2 6
f 4 8 6
