<svg xmlns="http://www.w3.org/2000/svg" width="200" height="40" fill="none" viewBox="0 0 200 40" class="UserLogo variant--Flat CarouselNavItem__logo" preserveAspectRatio="xMidYMid meet"><path fill="var(--userLogoColor, #041A55)" d="M46.174 5.071a1.391 1.391 0 001.06.25c.782-.135 1.296-.886 1.172-1.667a1.437 1.437 0 00-.576-.938 1.416 1.416 0 00-2.005.27 1.46 1.46 0 00.267 2.033c.03.02.051.031.082.052zm10.513.114a1.34 1.34 0 001.09.073 1.465 1.465 0 00.905-1.855 1.436 1.436 0 00-.72-.834 1.431 1.431 0 00-1.934.657c-.35.719-.051 1.594.659 1.96zm9.442 3.46a1.442 1.442 0 00-1.81.959c-.237.77.184 1.594.945 1.834a1.478 1.478 0 001.1-.104c.71-.375.978-1.251.618-1.97a1.465 1.465 0 00-.853-.72zm3.919 10.454a1.43 1.43 0 00-2.026-.292 1.467 1.467 0 00-.289 2.053 1.43 1.43 0 002.027.292c.308-.23.504-.573.566-.96a1.533 1.533 0 00-.278-1.093zm-4.362 9.346h-.02c-.823.042-1.46.74-1.42 1.574.031.782.659 1.417 1.44 1.438h.031a1.497 1.497 0 001.42-1.573 1.492 1.492 0 00-1.44-1.439h-.01zm-7.519 6.474a1.436 1.436 0 00-2.016.344 1.48 1.48 0 00.34 2.043 1.437 1.437 0 002.016-.344c.226-.313.308-.709.247-1.094a1.472 1.472 0 00-.587-.949zm-11.634-.167a1.44 1.44 0 00-.884 1.823c.195.584.73.97 1.337.97.154 0 .298-.032.453-.073a1.439 1.439 0 00.977-1.772c-.216-.761-.998-1.21-1.749-.99-.04.01-.092.031-.134.041zm-7.467-6.191a1.442 1.442 0 00-1.81.959c-.237.77.185 1.594.946 1.834a1.45 1.45 0 001.872-1.407c0-.636-.411-1.199-1.008-1.386zm-4.485-9.766a1.475 1.475 0 00-.298 2.042 1.431 1.431 0 002.016.303c.638-.48.772-1.397.299-2.043a1.431 1.431 0 00-2.017-.302zm4.053-7.293h.02c.793-.031 1.41-.719 1.38-1.521a1.448 1.448 0 00-1.4-1.397h-.01c-.802.031-1.42.72-1.379 1.532.031.75.638 1.365 1.39 1.386zm4.65-1.46a1.422 1.422 0 001.08.25 1.469 1.469 0 001.183-1.688c-.134-.792-.885-1.334-1.666-1.198a1.45 1.45 0 00-.937.594 1.48 1.48 0 00.34 2.042zm8.208-2.617a1.344 1.344 0 001.09.073c.761-.25 1.162-1.084.915-1.844a1.436 1.436 0 00-1.82-.928c-.761.25-1.163 1.084-.916 1.845v.01c.124.365.391.667.73.844zm8.136 2.752c.144.041.288.062.432.062.803 0 1.44-.656 1.45-1.459 0-.813-.647-1.459-1.44-1.47-.802 0-1.44.657-1.45 1.46-.01.646.402 1.219 1.008 1.407zm5.206 6.93c.072.01.144.02.216.02.802 0 1.44-.656 1.44-1.459 0-.813-.648-1.459-1.44-1.459-.803 0-1.44.657-1.44 1.46 0 .708.524 1.323 1.224 1.437zm.236 8.64a1.447 1.447 0 001.378-1.532 1.447 1.447 0 00-1.399-1.397h-.02c-.803.032-1.42.72-1.379 1.532.031.761.638 1.376 1.4 1.397h.02zm-4.176 4.274a1.436 1.436 0 00-2.016.344 1.48 1.48 0 00.34 2.042c.647.47 1.552.313 2.015-.343.463-.667.309-1.585-.34-2.043zm-9.186 2.407a1.475 1.475 0 00-.905 1.876c.195.594.75.99 1.368 1 .154 0 .309-.031.463-.073a1.482 1.482 0 00.823-1.917 1.45 1.45 0 00-1.76-.876l.011-.01zm-6.192-1.834a1.446 1.446 0 00-.844-.719 1.442 1.442 0 00-1.81.959c-.237.771.185 1.595.946 1.834a1.447 1.447 0 001.81-.97 1.48 1.48 0 00-.102-1.104zm-6.018-7.735a1.44 1.44 0 00-1.656 1.168 1.456 1.456 0 001.152 1.678c.031 0 .052.01.082.01.072.01.144.01.206.02.309 0 .607-.103.844-.291.627-.48.76-1.386.288-2.022a1.342 1.342 0 00-.916-.563zm-.226-8.67h-.02c-.803.032-1.42.72-1.38 1.533.032.76.638 1.375 1.4 1.396h.02a1.447 1.447 0 001.379-1.532 1.47 1.47 0 00-1.4-1.396zm8.558-5.075a1.482 1.482 0 00.35 2.042c.648.47 1.553.303 2.016-.354a1.482 1.482 0 00-.35-2.043 1.45 1.45 0 00-1.07-.25c-.39.073-.73.282-.946.605zm6.038 1.27a1.497 1.497 0 001.42 1.033c.164 0 .319-.032.473-.084a1.514 1.514 0 00.946-1.907c-.319-.771-1.193-1.147-1.954-.823a1.522 1.522 0 00-.885 1.782zm7.89 3.9c.236-.772-.186-1.595-.947-1.835a1.442 1.442 0 00-1.81.96c-.237.77.185 1.594.946 1.833.144.042.288.073.432.073a1.483 1.483 0 001.379-1.031zm-.196 4.544a1.451 1.451 0 00.648 2.595c.072.01.144.021.216.021.308 0 .607-.104.843-.281a1.454 1.454 0 00.36-2.012 1.412 1.412 0 00-1.985-.364c-.03 0-.051.02-.082.041zm-2.201 6.284a1.527 1.527 0 00.02 2.137c.278.281.659.427 1.04.427h.02a1.501 1.501 0 001.378-1.615 1.502 1.502 0 00-1.388-1.397h-.02c-.392 0-.772.167-1.05.448zm-2.89 5.743a1.48 1.48 0 00-.34-2.043 1.436 1.436 0 00-2.016.344 1.473 1.473 0 00.35 2.043 1.422 1.422 0 001.08.25c.37-.063.71-.271.926-.594zm-6.09-1.367a1.433 1.433 0 00-1.83-.917 1.46 1.46 0 00-.906 1.855c.196.594.751 1 1.368 1 .155 0 .309-.02.453-.072a1.499 1.499 0 00.915-1.866zm-6.017-4.732a1.402 1.402 0 00-1.101.105 1.474 1.474 0 00.236 2.699 1.46 1.46 0 001.882-1.386c0-.657-.41-1.22-1.017-1.418zm-1.009-4.574a1.458 1.458 0 00-1.224-1.657 1.445 1.445 0 00-1.635 1.24 1.5 1.5 0 00.267 1.084 1.431 1.431 0 002.016.302c.32-.23.525-.584.576-.97zm.607-7.9h-.02c-.803 0-1.44.666-1.44 1.469 0 .802.658 1.459 1.45 1.459h.02c.792-.031 1.41-.72 1.379-1.522a1.44 1.44 0 00-1.389-1.407z"></path><path fill="var(--userLogoColor, #000)" d="M84.573 19.91c0-4.169 3.137-7.347 7.241-7.347a7.234 7.234 0 016.275 3.554l-2.397 1.532a4.168 4.168 0 00-3.857-2.377c-2.592 0-4.495 2.054-4.495 4.638 0 2.522 1.882 4.617 4.454 4.617a4.268 4.268 0 004.011-2.647l2.5 1.355a7.124 7.124 0 01-6.48 4.023c-4.27-.01-7.252-3.293-7.252-7.348zm18.783-7.148V27.05h9.268v-2.678h-6.522v-11.61h-2.746zm14.638 0V27.05h9.504v-2.616h-6.768v-3.251h5.513v-2.606h-5.513v-3.21h6.768v-2.605h-9.504zm19.863 0l-5.339 14.299h2.808l.926-2.606h5.904l.926 2.606h2.808l-5.339-14.3h-2.694zm1.357 3.501l2.037 5.691h-4.084l2.047-5.69zm14.513-.958v4.72h2.788c1.8 0 2.633-1.135 2.633-2.407 0-1.396-.895-2.313-2.633-2.313h-2.788zm-2.736-2.543h5.73c3.25 0 5.184 2.115 5.184 4.836a4.67 4.67 0 01-2.479 4.23l2.787 5.233h-3.055l-2.263-4.502h-3.168v4.502h-2.725v-14.3h-.011zm12.807 1.324c0-.72.566-1.303 1.276-1.303.709 0 1.285.573 1.285 1.293 0 .719-.565 1.302-1.265 1.302-.689.021-1.265-.531-1.296-1.23v-.062zm2.304 0c-.02-.563-.483-1.011-1.039-.99-.555.02-.997.49-.977 1.053.021.552.463.99 1.008.99.556 0 .998-.459.998-1.022v-.031h.01zm-.73.115l.319.552h-.299l-.298-.521h-.206v.521h-.257v-1.355h.504c.227 0 .484.083.484.407a.409.409 0 01-.257.406l.01-.01zm-.257-.574h-.216v.386h.226c.165 0 .226-.083.226-.198s-.092-.188-.257-.188h.021z"></path><title>CLEAR logo</title></svg>