<svg xmlns="http://www.w3.org/2000/svg" width="200" height="40" fill="none" class="UserLogo variant--Flat TestimonialCard__logo" preserveAspectRatio="xMidYMid meet" viewBox="0 0 200 40"><path fill="var(--userLogoColor, #E13052)" d="M118.657 13.146c-.774-.111-1.272-.498-1.585-1.18-.092-.221-.221-.442-.332-.645-.976-1.75-1.953-3.52-3.114-5.178-2.304-3.262-5.51-4.902-9.472-5.105-1.53-.073-3.059-.018-4.589-.018-1.584 0-3.188-.055-4.772.018-2.193.092-4.22.719-6.063 1.88-2.046 1.29-3.446 3.17-4.626 5.234-.774 1.345-1.548 2.708-2.322 4.054-.258.442-.552.792-1.142.774-.166 0-.35.092-.535.129-2.672.663-5.16 3.611-5.104 6.818.055 3.17 2.174 5.768 4.754 6.634.737.24 1.198.645 1.548 1.29 1.124 1.972 2.23 3.944 3.391 5.86 2.414 3.962 5.934 6.045 10.578 6.118 2.635.055 5.27.019 7.905 0 .793 0 1.585-.037 2.377-.166 3.797-.626 6.671-2.561 8.643-5.841 1.235-2.046 2.414-4.11 3.594-6.174.239-.424.534-.626 1.05-.737 3.114-.663 5.326-3.446 5.51-6.302.258-3.446-2.119-6.984-5.694-7.464zm-7.519 10.688a8.067 8.067 0 01-2.23 1.253c-.442.166-.608.387-.516.81.443 2.12-.092 4.073-1.142 5.88-1.53 2.616-3.852 4.053-6.892 4.422-1.77.221-3.41-.018-4.957-.83-2.322-1.234-3.944-3.114-4.718-5.694-.35-1.197-.35-2.414-.313-3.63 0-.258-.019-.534-.166-.774-.48-.258-.977-.498-1.437-.755-2.746-1.585-4.276-3.926-4.497-7.114-.055-.718-.055-.903 0-1.474 0-1.75.645-3.299 1.659-4.662 1.769-2.396 4.201-3.52 7.15-3.649 2.008-.092 3.778.516 5.418 1.64.184.13.368.221.534.369.313.276.571.202.884-.037.719-.571 1.475-1.069 2.359-1.382 2.783-.995 5.473-.793 7.998.718 2.451 1.456 3.944 3.704 4.294 6.487.424 3.372-.701 6.266-3.428 8.422z"></path><path fill="var(--userLogoColor, #DF2453)" d="M90.204 25.29c.48.165.35.46.166.774-.221-.24-.387-.461-.166-.774z"></path><path fill="var(--userLogoColor, #E33950)" d="M107.452 13.938c-2.1-.866-4.349-1.16-6.615-1.124h-2.764c-2.101-.055-4.128.276-6.119.921-2.543.848-4.643 3.133-4.183 6.487.11.866.664 1.548 1.493 1.585.977.055 1.972.092 2.93-.018 1.106-.13 2.027-.645 2.45-1.806.148-.387.093-.793.13-1.18.074-.719.221-1.4 1.087-1.603.369.018.737.018 1.124.037 1.64.129 3.299.11 4.939 0 .369-.019.737-.019 1.124-.037.719.221.921.737.958 1.474.074 1.566.535 2.598 2.138 3.004 1.235.313 2.488.203 3.741.055.497-.055.884-.46 1.013-.958.111-.405.222-.81.24-1.253.129-2.304-1.253-4.57-3.686-5.584z"></path><title>ContactMonkey logo</title></svg>